<?xml version="1.0" encoding="utf-8" standalone="no"?>
<!DOCTYPE svg PUBLIC "-//W3C//DTD SVG 1.1//EN"
  "http://www.w3.org/Graphics/SVG/1.1/DTD/svg11.dtd">
<svg xmlns:xlink="http://www.w3.org/1999/xlink" width="323.109735pt" height="132.779pt" viewBox="0 0 323.109735 132.779" xmlns="http://www.w3.org/2000/svg" version="1.1">
 <metadata>
  <rdf:RDF xmlns:dc="http://purl.org/dc/elements/1.1/" xmlns:cc="http://creativecommons.org/ns#" xmlns:rdf="http://www.w3.org/1999/02/22-rdf-syntax-ns#">
   <cc:Work>
    <dc:type rdf:resource="http://purl.org/dc/dcmitype/StillImage"/>
    <dc:date>2023-10-11T12:58:13.422008</dc:date>
    <dc:format>image/svg+xml</dc:format>
    <dc:creator>
     <cc:Agent>
      <dc:title>Matplotlib v3.7.0, https://matplotlib.org/</dc:title>
     </cc:Agent>
    </dc:creator>
   </cc:Work>
  </rdf:RDF>
 </metadata>
 <defs>
  <style type="text/css">*{stroke-linejoin: round; stroke-linecap: butt}</style>
 </defs>
 <g id="figure_1">
  <g id="patch_1">
   <path d="M -0 132.779 
L 323.109735 132.779 
L 323.109735 -0 
L -0 -0 
z
" style="fill: #ffffff"/>
  </g>
  <g id="axes_1">
   <g id="patch_2">
    <path d="M 43.876826 102.960683 
L 176.847947 102.960683 
L 176.847947 17.579 
L 43.876826 17.579 
z
" style="fill: #ffffff"/>
   </g>
   <g id="matplotlib.axis_1">
    <g id="xtick_1">
     <g id="line2d_1">
      <defs>
       <path id="mcd71f99df3" d="M 0 0 
L 0 3.5 
" style="stroke: #000000; stroke-width: 0.8"/>
      </defs>
      <g>
       <use xlink:href="#mcd71f99df3" x="43.876826" y="102.960683" style="stroke: #000000; stroke-width: 0.8"/>
      </g>
     </g>
     <g id="text_1">
      <!-- 0 -->
      <g transform="translate(41.386158 116.879182) scale(0.1 -0.1)">
       <defs>
        <path id="CMR17-30" d="M 2688 2025 
C 2688 2416 2682 3080 2413 3591 
C 2176 4039 1798 4198 1466 4198 
C 1158 4198 768 4058 525 3597 
C 269 3118 243 2524 243 2025 
C 243 1661 250 1106 448 619 
C 723 -39 1216 -128 1466 -128 
C 1760 -128 2208 -7 2470 600 
C 2662 1042 2688 1559 2688 2025 
z
M 1466 -26 
C 1056 -26 813 325 723 812 
C 653 1188 653 1738 653 2096 
C 653 2588 653 2997 736 3387 
C 858 3929 1216 4096 1466 4096 
C 1728 4096 2067 3923 2189 3400 
C 2272 3036 2278 2607 2278 2096 
C 2278 1680 2278 1169 2202 792 
C 2067 95 1690 -26 1466 -26 
z
" transform="scale(0.015625)"/>
       </defs>
       <use xlink:href="#CMR17-30" transform="scale(0.996264)"/>
      </g>
     </g>
    </g>
    <g id="xtick_2">
     <g id="line2d_2">
      <g>
       <use xlink:href="#mcd71f99df3" x="66.03868" y="102.960683" style="stroke: #000000; stroke-width: 0.8"/>
      </g>
     </g>
     <g id="text_2">
      <!-- 100 -->
      <g transform="translate(58.566677 116.879182) scale(0.1 -0.1)">
       <defs>
        <path id="CMR17-31" d="M 1702 4058 
C 1702 4192 1696 4192 1606 4192 
C 1357 3916 979 3827 621 3827 
C 602 3827 570 3827 563 3808 
C 557 3795 557 3782 557 3648 
C 755 3648 1088 3686 1344 3839 
L 1344 461 
C 1344 236 1331 160 781 160 
L 589 160 
L 589 0 
C 896 0 1216 0 1523 0 
C 1830 0 2150 0 2458 0 
L 2458 160 
L 2266 160 
C 1715 160 1702 230 1702 458 
L 1702 4058 
z
" transform="scale(0.015625)"/>
       </defs>
       <use xlink:href="#CMR17-31" transform="scale(0.996264)"/>
       <use xlink:href="#CMR17-30" transform="translate(45.690477 0) scale(0.996264)"/>
       <use xlink:href="#CMR17-30" transform="translate(91.380954 0) scale(0.996264)"/>
      </g>
     </g>
    </g>
    <g id="xtick_3">
     <g id="line2d_3">
      <g>
       <use xlink:href="#mcd71f99df3" x="88.200533" y="102.960683" style="stroke: #000000; stroke-width: 0.8"/>
      </g>
     </g>
     <g id="text_3">
      <!-- 200 -->
      <g transform="translate(80.72853 116.879182) scale(0.1 -0.1)">
       <defs>
        <path id="CMR17-32" d="M 2669 989 
L 2554 989 
C 2490 536 2438 459 2413 420 
C 2381 369 1920 369 1830 369 
L 602 369 
C 832 619 1280 1072 1824 1597 
C 2214 1967 2669 2402 2669 3035 
C 2669 3790 2067 4224 1395 4224 
C 691 4224 262 3604 262 3030 
C 262 2780 448 2748 525 2748 
C 589 2748 781 2787 781 3010 
C 781 3207 614 3264 525 3264 
C 486 3264 448 3258 422 3245 
C 544 3790 915 4058 1306 4058 
C 1862 4058 2227 3617 2227 3035 
C 2227 2479 1901 2000 1536 1584 
L 262 146 
L 262 0 
L 2515 0 
L 2669 989 
z
" transform="scale(0.015625)"/>
       </defs>
       <use xlink:href="#CMR17-32" transform="scale(0.996264)"/>
       <use xlink:href="#CMR17-30" transform="translate(45.690477 0) scale(0.996264)"/>
       <use xlink:href="#CMR17-30" transform="translate(91.380954 0) scale(0.996264)"/>
      </g>
     </g>
    </g>
    <g id="xtick_4">
     <g id="line2d_4">
      <g>
       <use xlink:href="#mcd71f99df3" x="110.362386" y="102.960683" style="stroke: #000000; stroke-width: 0.8"/>
      </g>
     </g>
     <g id="text_4">
      <!-- 300 -->
      <g transform="translate(102.890384 116.879182) scale(0.1 -0.1)">
       <defs>
        <path id="CMR17-33" d="M 1414 2157 
C 1984 2157 2234 1662 2234 1090 
C 2234 320 1824 25 1453 25 
C 1114 25 563 194 390 693 
C 422 680 454 680 486 680 
C 640 680 755 782 755 948 
C 755 1133 614 1216 486 1216 
C 378 1216 211 1165 211 926 
C 211 335 787 -128 1466 -128 
C 2176 -128 2720 430 2720 1085 
C 2720 1707 2208 2157 1600 2227 
C 2086 2328 2554 2756 2554 3329 
C 2554 3820 2048 4179 1472 4179 
C 890 4179 378 3829 378 3329 
C 378 3110 544 3072 627 3072 
C 762 3072 877 3155 877 3321 
C 877 3486 762 3569 627 3569 
C 602 3569 570 3569 544 3557 
C 730 3959 1235 4032 1459 4032 
C 1683 4032 2106 3925 2106 3320 
C 2106 3143 2080 2828 1862 2550 
C 1670 2304 1453 2304 1242 2284 
C 1210 2284 1062 2269 1037 2269 
C 992 2263 966 2257 966 2208 
C 966 2163 973 2157 1101 2157 
L 1414 2157 
z
" transform="scale(0.015625)"/>
       </defs>
       <use xlink:href="#CMR17-33" transform="scale(0.996264)"/>
       <use xlink:href="#CMR17-30" transform="translate(45.690477 0) scale(0.996264)"/>
       <use xlink:href="#CMR17-30" transform="translate(91.380954 0) scale(0.996264)"/>
      </g>
     </g>
    </g>
    <g id="xtick_5">
     <g id="line2d_5">
      <g>
       <use xlink:href="#mcd71f99df3" x="132.52424" y="102.960683" style="stroke: #000000; stroke-width: 0.8"/>
      </g>
     </g>
     <g id="text_5">
      <!-- 400 -->
      <g transform="translate(125.052237 116.879182) scale(0.1 -0.1)">
       <defs>
        <path id="CMR17-34" d="M 2150 4122 
C 2150 4256 2144 4256 2029 4256 
L 128 1254 
L 128 1088 
L 1779 1088 
L 1779 457 
C 1779 224 1766 160 1318 160 
L 1197 160 
L 1197 0 
C 1402 0 1747 0 1965 0 
C 2182 0 2528 0 2733 0 
L 2733 160 
L 2611 160 
C 2163 160 2150 224 2150 457 
L 2150 1088 
L 2803 1088 
L 2803 1254 
L 2150 1254 
L 2150 4122 
z
M 1798 3703 
L 1798 1254 
L 256 1254 
L 1798 3703 
z
" transform="scale(0.015625)"/>
       </defs>
       <use xlink:href="#CMR17-34" transform="scale(0.996264)"/>
       <use xlink:href="#CMR17-30" transform="translate(45.690477 0) scale(0.996264)"/>
       <use xlink:href="#CMR17-30" transform="translate(91.380954 0) scale(0.996264)"/>
      </g>
     </g>
    </g>
    <g id="xtick_6">
     <g id="line2d_6">
      <g>
       <use xlink:href="#mcd71f99df3" x="154.686093" y="102.960683" style="stroke: #000000; stroke-width: 0.8"/>
      </g>
     </g>
     <g id="text_6">
      <!-- 500 -->
      <g transform="translate(147.21409 116.879182) scale(0.1 -0.1)">
       <defs>
        <path id="CMR17-35" d="M 730 3692 
C 794 3666 1056 3584 1325 3584 
C 1920 3584 2246 3911 2432 4100 
C 2432 4157 2432 4192 2394 4192 
C 2387 4192 2374 4192 2323 4163 
C 2099 4058 1837 3973 1517 3973 
C 1325 3973 1037 3999 723 4139 
C 653 4171 640 4171 634 4171 
C 602 4171 595 4164 595 4037 
L 595 2203 
C 595 2089 595 2057 659 2057 
C 691 2057 704 2070 736 2114 
C 941 2401 1222 2522 1542 2522 
C 1766 2522 2246 2382 2246 1289 
C 2246 1085 2246 715 2054 421 
C 1894 159 1645 25 1370 25 
C 947 25 518 320 403 814 
C 429 807 480 795 506 795 
C 589 795 749 840 749 1038 
C 749 1210 627 1280 506 1280 
C 358 1280 262 1190 262 1011 
C 262 454 704 -128 1382 -128 
C 2042 -128 2669 440 2669 1264 
C 2669 2030 2170 2624 1549 2624 
C 1222 2624 947 2503 730 2274 
L 730 3692 
z
" transform="scale(0.015625)"/>
       </defs>
       <use xlink:href="#CMR17-35" transform="scale(0.996264)"/>
       <use xlink:href="#CMR17-30" transform="translate(45.690477 0) scale(0.996264)"/>
       <use xlink:href="#CMR17-30" transform="translate(91.380954 0) scale(0.996264)"/>
      </g>
     </g>
    </g>
    <g id="text_7">
     <!-- (a) Download [ms] -->
     <g transform="translate(70.138143 130.28834) scale(0.1 -0.1)">
      <defs>
       <path id="CMR17-28" d="M 1958 -1561 
C 1958 -1555 1958 -1542 1939 -1523 
C 1645 -1224 858 -407 858 1581 
C 858 3569 1632 4379 1946 4697 
C 1946 4704 1958 4717 1958 4736 
C 1958 4755 1939 4768 1914 4768 
C 1843 4768 1299 4296 986 3594 
C 666 2887 576 2199 576 1588 
C 576 1128 621 351 1005 -471 
C 1312 -1135 1837 -1600 1914 -1600 
C 1946 -1600 1958 -1587 1958 -1561 
z
" transform="scale(0.015625)"/>
       <path id="CMR17-61" d="M 2304 1653 
C 2304 2072 2304 2294 2035 2543 
C 1798 2752 1523 2816 1306 2816 
C 800 2816 435 2407 435 1971 
C 435 1728 627 1728 666 1728 
C 749 1728 896 1778 896 1954 
C 896 2112 774 2181 666 2181 
C 640 2181 608 2174 589 2168 
C 723 2592 1069 2714 1293 2714 
C 1613 2714 1965 2429 1965 1885 
L 1965 1600 
C 1587 1600 1133 1549 774 1357 
C 371 1133 256 813 256 570 
C 256 77 832 -64 1171 -64 
C 1523 -64 1850 139 1990 511 
C 2003 233 2182 -18 2464 -18 
C 2598 -18 2938 70 2938 567 
L 2938 920 
L 2822 920 
L 2822 562 
C 2822 178 2650 128 2566 128 
C 2304 128 2304 458 2304 738 
L 2304 1653 
z
M 1965 870 
C 1965 317 1568 38 1216 38 
C 896 38 646 275 646 570 
C 646 761 730 1100 1101 1305 
C 1408 1478 1760 1504 1965 1504 
L 1965 870 
z
" transform="scale(0.015625)"/>
       <path id="CMR17-29" d="M 1683 1581 
C 1683 2040 1638 2817 1254 3639 
C 947 4303 422 4768 346 4768 
C 326 4768 301 4761 301 4729 
C 301 4717 307 4710 314 4697 
C 621 4378 1402 3568 1402 1584 
C 1402 -407 627 -1217 314 -1537 
C 307 -1549 301 -1556 301 -1568 
C 301 -1600 326 -1600 346 -1600 
C 416 -1600 960 -1128 1274 -426 
C 1594 281 1683 969 1683 1581 
z
" transform="scale(0.015625)"/>
       <path id="CMR17-44" d="M 333 4352 
L 333 4186 
C 774 4186 845 4186 845 3900 
L 845 452 
C 845 166 774 166 333 166 
L 333 0 
L 2368 0 
C 3398 0 4224 943 4224 2141 
C 4224 3346 3411 4352 2368 4352 
L 333 4352 
z
M 1523 166 
C 1267 166 1254 197 1254 414 
L 1254 3938 
C 1254 4155 1267 4186 1523 4186 
L 2240 4186 
C 2771 4186 3750 3874 3750 2141 
C 3750 1242 3488 879 3366 707 
C 3213 510 2848 166 2240 166 
L 1523 166 
z
" transform="scale(0.015625)"/>
       <path id="CMR17-6f" d="M 2758 1356 
C 2758 2176 2163 2816 1466 2816 
C 768 2816 173 2176 173 1356 
C 173 551 768 -64 1466 -64 
C 2163 -64 2758 551 2758 1356 
z
M 1466 51 
C 1165 51 909 230 762 480 
C 602 767 582 1126 582 1408 
C 582 1677 595 2010 762 2298 
C 890 2509 1139 2714 1466 2714 
C 1754 2714 1997 2554 2150 2330 
C 2349 2029 2349 1607 2349 1408 
C 2349 1158 2336 775 2163 467 
C 1984 173 1709 51 1466 51 
z
" transform="scale(0.015625)"/>
       <path id="CMR17-77" d="M 3725 2183 
C 3853 2560 4109 2560 4205 2560 
L 4205 2732 
C 4077 2732 3949 2732 3821 2732 
C 3699 2732 3424 2732 3315 2738 
L 3315 2560 
C 3514 2560 3622 2445 3622 2286 
C 3622 2241 3610 2184 3597 2140 
L 2995 407 
L 2342 2275 
C 2330 2319 2310 2370 2310 2395 
C 2310 2560 2528 2560 2630 2560 
L 2630 2738 
C 2483 2732 2214 2732 2061 2732 
C 1901 2732 1734 2732 1587 2738 
L 1587 2560 
C 1939 2560 1939 2547 2074 2149 
L 1485 451 
L 851 2281 
C 819 2363 819 2376 819 2395 
C 819 2560 1037 2560 1139 2560 
L 1139 2738 
C 986 2732 717 2732 557 2732 
C 416 2732 198 2732 64 2738 
L 64 2560 
C 346 2560 416 2541 486 2331 
L 1274 49 
C 1299 -33 1318 -52 1370 -52 
C 1414 -52 1440 -39 1472 56 
L 2131 1980 
L 2797 56 
C 2829 -39 2854 -52 2899 -52 
C 2950 -52 2970 -33 2995 50 
L 3725 2183 
z
" transform="scale(0.015625)"/>
       <path id="CMR17-6e" d="M 2656 1933 
C 2656 2259 2592 2790 1837 2790 
C 1331 2790 1069 2400 973 2144 
L 966 2144 
L 966 2790 
L 211 2720 
L 211 2554 
C 589 2554 646 2515 646 2208 
L 646 428 
C 646 184 621 153 211 153 
L 211 -13 
C 365 0 646 0 813 0 
C 979 0 1267 0 1421 -13 
L 1421 153 
C 1011 153 986 178 986 428 
L 986 1658 
C 986 2247 1344 2688 1792 2688 
C 2266 2688 2317 2266 2317 1958 
L 2317 428 
C 2317 184 2291 153 1882 153 
L 1882 -13 
C 2035 0 2317 0 2483 0 
C 2650 0 2938 0 3091 -13 
L 3091 153 
C 2682 153 2656 178 2656 428 
L 2656 1933 
z
" transform="scale(0.015625)"/>
       <path id="CMR17-6c" d="M 979 4396 
L 218 4326 
L 218 4160 
C 595 4160 653 4122 653 3817 
L 653 426 
C 653 184 627 153 218 153 
L 218 -13 
C 371 0 653 0 813 0 
C 979 0 1261 0 1414 -13 
L 1414 153 
C 1005 153 979 178 979 426 
L 979 4396 
z
" transform="scale(0.015625)"/>
       <path id="CMR17-64" d="M 1869 4326 
L 1869 4160 
C 2246 4160 2304 4122 2304 3820 
L 2304 2345 
C 2278 2377 2016 2790 1498 2790 
C 845 2790 211 2208 211 1364 
C 211 525 806 -64 1434 -64 
C 1978 -64 2259 337 2291 380 
L 2291 -63 
L 3066 -63 
L 3066 128 
C 2688 128 2630 166 2630 473 
L 2630 4396 
L 1869 4326 
z
M 2291 755 
C 2291 563 2176 390 2029 262 
C 1811 70 1594 38 1472 38 
C 1286 38 621 134 621 1356 
C 621 2612 1363 2688 1530 2688 
C 1824 2688 2061 2522 2208 2291 
C 2291 2157 2291 2138 2291 2023 
L 2291 755 
z
" transform="scale(0.015625)"/>
       <path id="CMR17-5b" d="M 1504 -1600 
L 1504 -1377 
L 902 -1377 
L 902 4544 
L 1504 4544 
L 1504 4767 
L 678 4767 
L 678 -1600 
L 1504 -1600 
z
" transform="scale(0.015625)"/>
       <path id="CMR17-6d" d="M 4326 1933 
C 4326 2252 4269 2790 3507 2790 
C 3072 2790 2771 2496 2656 2151 
L 2650 2151 
C 2573 2676 2195 2790 1837 2790 
C 1331 2790 1069 2400 973 2144 
L 966 2144 
L 966 2790 
L 211 2720 
L 211 2554 
C 589 2554 646 2515 646 2208 
L 646 428 
C 646 184 621 153 211 153 
L 211 -13 
C 365 0 646 0 813 0 
C 979 0 1267 0 1421 -13 
L 1421 153 
C 1011 153 986 178 986 428 
L 986 1658 
C 986 2247 1344 2688 1792 2688 
C 2266 2688 2317 2266 2317 1958 
L 2317 428 
C 2317 184 2291 153 1882 153 
L 1882 -13 
C 2035 0 2317 0 2483 0 
C 2650 0 2938 0 3091 -13 
L 3091 153 
C 2682 153 2656 178 2656 428 
L 2656 1658 
C 2656 2247 3014 2688 3462 2688 
C 3936 2688 3987 2266 3987 1958 
L 3987 428 
C 3987 184 3962 153 3552 153 
L 3552 -13 
C 3706 0 3987 0 4154 0 
C 4320 0 4608 0 4762 -13 
L 4762 153 
C 4352 153 4326 178 4326 428 
L 4326 1933 
z
" transform="scale(0.015625)"/>
       <path id="CMR17-73" d="M 1978 2697 
C 1978 2813 1971 2819 1933 2819 
C 1907 2819 1901 2813 1824 2717 
C 1805 2691 1747 2626 1728 2601 
C 1523 2819 1235 2819 1126 2819 
C 416 2819 160 2447 160 2076 
C 160 1498 813 1365 998 1325 
C 1402 1243 1542 1217 1677 1101 
C 1760 1025 1901 884 1901 654 
C 1901 384 1747 38 1158 38 
C 602 38 403 460 288 1021 
C 269 1110 269 1117 218 1117 
C 166 1117 160 1110 160 983 
L 160 63 
C 160 -51 166 -58 205 -58 
C 237 -58 243 -51 275 0 
C 314 57 410 211 448 276 
C 576 103 800 -64 1158 -64 
C 1792 -64 2131 283 2131 784 
C 2131 1112 1958 1285 1875 1362 
C 1683 1561 1459 1606 1190 1657 
C 838 1735 390 1825 390 2217 
C 390 2383 480 2737 1126 2737 
C 1811 2737 1850 2094 1862 1888 
C 1869 1856 1901 1849 1920 1849 
C 1978 1849 1978 1869 1978 1978 
L 1978 2697 
z
" transform="scale(0.015625)"/>
       <path id="CMR17-5d" d="M 915 4767 
L 90 4767 
L 90 4544 
L 691 4544 
L 691 -1377 
L 90 -1377 
L 90 -1600 
L 915 -1600 
L 915 4767 
z
" transform="scale(0.015625)"/>
      </defs>
      <use xlink:href="#CMR17-28" transform="scale(0.996264)"/>
      <use xlink:href="#CMR17-61" transform="translate(35.280768 0) scale(0.996264)"/>
      <use xlink:href="#CMR17-29" transform="translate(80.971245 0) scale(0.996264)"/>
      <use xlink:href="#CMR17-44" transform="translate(146.327979 0) scale(0.996264)"/>
      <use xlink:href="#CMR17-6f" transform="translate(216.721535 0) scale(0.996264)"/>
      <use xlink:href="#CMR17-77" transform="translate(259.809558 0) scale(0.996264)"/>
      <use xlink:href="#CMR17-6e" transform="translate(326.319439 0) scale(0.996264)"/>
      <use xlink:href="#CMR17-6c" transform="translate(377.214808 0) scale(0.996264)"/>
      <use xlink:href="#CMR17-6f" transform="translate(402.085867 0) scale(0.996264)"/>
      <use xlink:href="#CMR17-61" transform="translate(447.776344 0) scale(0.996264)"/>
      <use xlink:href="#CMR17-64" transform="translate(493.466821 0) scale(0.996264)"/>
      <use xlink:href="#CMR17-5b" transform="translate(574.438157 0) scale(0.996264)"/>
      <use xlink:href="#CMR17-6d" transform="translate(599.309216 0) scale(0.996264)"/>
      <use xlink:href="#CMR17-73" transform="translate(676.228806 0) scale(0.996264)"/>
      <use xlink:href="#CMR17-5d" transform="translate(712.030143 0) scale(0.996264)"/>
     </g>
    </g>
   </g>
   <g id="matplotlib.axis_2">
    <g id="ytick_1">
     <g id="line2d_7">
      <path d="M 43.876826 99.079698 
L 176.847947 99.079698 
" clip-path="url(#p9e520366a0)" style="fill: none; stroke: #808080; stroke-opacity: 0.7; stroke-width: 0.5; stroke-linecap: square"/>
     </g>
     <g id="line2d_8">
      <defs>
       <path id="ma6c7e2a173" d="M 0 0 
L -3.5 0 
" style="stroke: #000000; stroke-width: 0.8"/>
      </defs>
      <g>
       <use xlink:href="#ma6c7e2a173" x="43.876826" y="99.079698" style="stroke: #000000; stroke-width: 0.8"/>
      </g>
     </g>
     <g id="text_8">
      <!-- 0.00 -->
      <g transform="translate(19.165412 102.538947) scale(0.1 -0.1)">
       <defs>
        <path id="CMR17-2e" d="M 1062 261 
C 1062 420 934 522 800 522 
C 672 522 538 420 538 261 
C 538 102 666 0 800 0 
C 928 0 1062 102 1062 261 
z
" transform="scale(0.015625)"/>
       </defs>
       <use xlink:href="#CMR17-30" transform="scale(0.996264)"/>
       <use xlink:href="#CMR17-2e" transform="translate(45.690477 0) scale(0.996264)"/>
       <use xlink:href="#CMR17-30" transform="translate(70.561536 0) scale(0.996264)"/>
       <use xlink:href="#CMR17-30" transform="translate(116.252013 0) scale(0.996264)"/>
      </g>
     </g>
    </g>
    <g id="ytick_2">
     <g id="line2d_9">
      <path d="M 43.876826 79.67477 
L 176.847947 79.67477 
" clip-path="url(#p9e520366a0)" style="fill: none; stroke: #808080; stroke-opacity: 0.7; stroke-width: 0.5; stroke-linecap: square"/>
     </g>
     <g id="line2d_10">
      <g>
       <use xlink:href="#ma6c7e2a173" x="43.876826" y="79.67477" style="stroke: #000000; stroke-width: 0.8"/>
      </g>
     </g>
     <g id="text_9">
      <!-- 0.25 -->
      <g transform="translate(19.165412 83.134019) scale(0.1 -0.1)">
       <use xlink:href="#CMR17-30" transform="scale(0.996264)"/>
       <use xlink:href="#CMR17-2e" transform="translate(45.690477 0) scale(0.996264)"/>
       <use xlink:href="#CMR17-32" transform="translate(70.561536 0) scale(0.996264)"/>
       <use xlink:href="#CMR17-35" transform="translate(116.252013 0) scale(0.996264)"/>
      </g>
     </g>
    </g>
    <g id="ytick_3">
     <g id="line2d_11">
      <path d="M 43.876826 60.269842 
L 176.847947 60.269842 
" clip-path="url(#p9e520366a0)" style="fill: none; stroke: #808080; stroke-opacity: 0.7; stroke-width: 0.5; stroke-linecap: square"/>
     </g>
     <g id="line2d_12">
      <g>
       <use xlink:href="#ma6c7e2a173" x="43.876826" y="60.269842" style="stroke: #000000; stroke-width: 0.8"/>
      </g>
     </g>
     <g id="text_10">
      <!-- 0.50 -->
      <g transform="translate(19.165412 63.729091) scale(0.1 -0.1)">
       <use xlink:href="#CMR17-30" transform="scale(0.996264)"/>
       <use xlink:href="#CMR17-2e" transform="translate(45.690477 0) scale(0.996264)"/>
       <use xlink:href="#CMR17-35" transform="translate(70.561536 0) scale(0.996264)"/>
       <use xlink:href="#CMR17-30" transform="translate(116.252013 0) scale(0.996264)"/>
      </g>
     </g>
    </g>
    <g id="ytick_4">
     <g id="line2d_13">
      <path d="M 43.876826 40.864914 
L 176.847947 40.864914 
" clip-path="url(#p9e520366a0)" style="fill: none; stroke: #808080; stroke-opacity: 0.7; stroke-width: 0.5; stroke-linecap: square"/>
     </g>
     <g id="line2d_14">
      <g>
       <use xlink:href="#ma6c7e2a173" x="43.876826" y="40.864914" style="stroke: #000000; stroke-width: 0.8"/>
      </g>
     </g>
     <g id="text_11">
      <!-- 0.75 -->
      <g transform="translate(19.165412 44.324163) scale(0.1 -0.1)">
       <defs>
        <path id="CMR17-37" d="M 2886 3941 
L 2886 4081 
L 1382 4081 
C 634 4081 621 4165 595 4288 
L 480 4288 
L 294 3094 
L 410 3094 
C 429 3215 474 3540 550 3661 
C 589 3712 1062 3712 1171 3712 
L 2579 3712 
L 1869 2661 
C 1395 1954 1069 999 1069 165 
C 1069 89 1069 -128 1299 -128 
C 1530 -128 1530 89 1530 171 
L 1530 465 
C 1530 1508 1709 2196 2003 2636 
L 2886 3941 
z
" transform="scale(0.015625)"/>
       </defs>
       <use xlink:href="#CMR17-30" transform="scale(0.996264)"/>
       <use xlink:href="#CMR17-2e" transform="translate(45.690477 0) scale(0.996264)"/>
       <use xlink:href="#CMR17-37" transform="translate(70.561536 0) scale(0.996264)"/>
       <use xlink:href="#CMR17-35" transform="translate(116.252013 0) scale(0.996264)"/>
      </g>
     </g>
    </g>
    <g id="ytick_5">
     <g id="line2d_15">
      <path d="M 43.876826 21.459986 
L 176.847947 21.459986 
" clip-path="url(#p9e520366a0)" style="fill: none; stroke: #808080; stroke-opacity: 0.7; stroke-width: 0.5; stroke-linecap: square"/>
     </g>
     <g id="line2d_16">
      <g>
       <use xlink:href="#ma6c7e2a173" x="43.876826" y="21.459986" style="stroke: #000000; stroke-width: 0.8"/>
      </g>
     </g>
     <g id="text_12">
      <!-- 1.00 -->
      <g transform="translate(19.165412 24.919235) scale(0.1 -0.1)">
       <use xlink:href="#CMR17-31" transform="scale(0.996264)"/>
       <use xlink:href="#CMR17-2e" transform="translate(45.690477 0) scale(0.996264)"/>
       <use xlink:href="#CMR17-30" transform="translate(70.561536 0) scale(0.996264)"/>
       <use xlink:href="#CMR17-30" transform="translate(116.252013 0) scale(0.996264)"/>
      </g>
     </g>
    </g>
    <g id="text_13">
     <!-- Percentile -->
     <g transform="translate(13.228234 81.661866) rotate(-90) scale(0.1 -0.1)">
      <defs>
       <path id="CMR17-50" d="M 1267 2042 
L 2291 2042 
C 3117 2042 3718 2578 3718 3184 
C 3718 3791 3130 4352 2291 4352 
L 333 4352 
L 333 4186 
C 774 4186 845 4186 845 3899 
L 845 446 
C 845 160 774 160 333 160 
L 333 0 
C 518 0 858 0 1056 0 
C 1254 0 1594 0 1779 0 
L 1779 160 
C 1338 160 1267 160 1267 446 
L 1267 2042 
z
M 1254 2176 
L 1254 3938 
C 1254 4155 1267 4186 1523 4186 
L 2170 4186 
C 2995 4186 3232 3714 3232 3184 
C 3232 2604 2950 2176 2170 2176 
L 1254 2176 
z
" transform="scale(0.015625)"/>
       <path id="CMR17-65" d="M 2438 1472 
C 2464 1498 2464 1511 2464 1576 
C 2464 2238 2118 2816 1389 2816 
C 710 2816 173 2169 173 1383 
C 173 551 781 -64 1459 -64 
C 2176 -64 2458 607 2458 740 
C 2458 784 2419 784 2406 784 
C 2362 784 2355 771 2330 696 
C 2189 265 1837 51 1504 51 
C 1229 51 954 203 781 480 
C 582 803 582 1176 582 1472 
L 2438 1472 
z
M 589 1568 
C 634 2505 1126 2714 1382 2714 
C 1818 2714 2112 2297 2118 1568 
L 589 1568 
z
" transform="scale(0.015625)"/>
       <path id="CMR17-72" d="M 960 1497 
C 960 2112 1222 2688 1702 2688 
C 1747 2688 1792 2682 1837 2662 
C 1837 2662 1696 2617 1696 2452 
C 1696 2298 1818 2234 1914 2234 
C 1990 2234 2131 2279 2131 2458 
C 2131 2663 1926 2790 1709 2790 
C 1222 2790 1011 2317 947 2093 
L 941 2093 
L 941 2790 
L 198 2720 
L 198 2554 
C 576 2554 634 2515 634 2208 
L 634 428 
C 634 184 608 153 198 153 
L 198 -13 
C 352 0 646 0 813 0 
C 998 0 1325 0 1498 -13 
L 1498 153 
C 1037 153 960 153 960 440 
L 960 1497 
z
" transform="scale(0.015625)"/>
       <path id="CMR17-63" d="M 2234 2240 
C 2112 2240 1933 2240 1933 2017 
C 1933 1838 2080 1787 2163 1787 
C 2208 1787 2394 1807 2394 2024 
C 2394 2467 1958 2803 1466 2803 
C 787 2803 211 2178 211 1363 
C 211 516 813 -64 1466 -64 
C 2259 -64 2458 677 2458 748 
C 2458 774 2451 793 2406 793 
C 2362 793 2355 787 2330 703 
C 2163 180 1798 51 1523 51 
C 1114 51 621 427 621 1369 
C 621 2338 1094 2688 1472 2688 
C 1722 2688 2093 2573 2234 2240 
z
" transform="scale(0.015625)"/>
       <path id="CMR17-74" d="M 966 2560 
L 1862 2560 
L 1862 2725 
L 966 2725 
L 966 3904 
L 851 3904 
C 838 3245 614 2668 70 2668 
L 70 2560 
L 627 2560 
L 627 771 
C 627 650 627 -64 1370 -64 
C 1747 -64 1965 306 1965 777 
L 1965 1140 
L 1850 1140 
L 1850 783 
C 1850 344 1677 51 1408 51 
C 1222 51 966 178 966 758 
L 966 2560 
z
" transform="scale(0.015625)"/>
       <path id="CMR17-69" d="M 992 3909 
C 992 4049 877 4170 730 4170 
C 589 4170 467 4056 467 3909 
C 467 3769 582 3648 730 3648 
C 870 3648 992 3763 992 3909 
z
M 243 2706 
L 243 2541 
C 602 2541 653 2502 653 2197 
L 653 427 
C 653 184 627 153 218 153 
L 218 -13 
C 371 0 646 0 806 0 
C 960 0 1222 0 1370 -13 
L 1370 153 
C 992 153 979 191 979 420 
L 979 2776 
L 243 2706 
z
" transform="scale(0.015625)"/>
      </defs>
      <use xlink:href="#CMR17-50" transform="scale(0.996264)"/>
      <use xlink:href="#CMR17-65" transform="translate(59.983847 0) scale(0.996264)"/>
      <use xlink:href="#CMR17-72" transform="translate(100.469507 0) scale(0.996264)"/>
      <use xlink:href="#CMR17-63" transform="translate(135.750275 0) scale(0.996264)"/>
      <use xlink:href="#CMR17-65" transform="translate(176.235935 0) scale(0.996264)"/>
      <use xlink:href="#CMR17-6e" transform="translate(216.721596 0) scale(0.996264)"/>
      <use xlink:href="#CMR17-74" transform="translate(265.014512 0) scale(0.996264)"/>
      <use xlink:href="#CMR17-69" transform="translate(300.295279 0) scale(0.996264)"/>
      <use xlink:href="#CMR17-6c" transform="translate(325.166338 0) scale(0.996264)"/>
      <use xlink:href="#CMR17-65" transform="translate(350.037396 0) scale(0.996264)"/>
     </g>
    </g>
   </g>
   <g id="line2d_17">
    <path d="M 44.945027 99.078018 
L 48.807617 98.678376 
L 48.935934 98.633038 
L 50.134447 98.339183 
L 50.406373 98.250187 
L 50.917869 98.053724 
L 51.708603 97.717889 
L 52.079593 97.558368 
L 52.720957 97.23093 
L 53.142032 97.051258 
L 53.759018 96.722141 
L 54.095435 96.517282 
L 54.45889 96.31746 
L 55.115545 95.956438 
L 55.43246 95.763333 
L 55.575182 95.645791 
L 55.842454 95.476195 
L 56.49645 95.044648 
L 56.672859 94.888485 
L 56.878964 94.740718 
L 58.518055 93.360439 
L 58.699339 93.204276 
L 58.926719 93.006134 
L 59.163186 92.779445 
L 59.29106 92.653507 
L 59.465031 92.480553 
L 59.59778 92.321031 
L 59.881895 92.018781 
L 60.200582 91.664475 
L 60.366575 91.466333 
L 60.594177 91.227891 
L 60.72737 91.063332 
L 61.172601 90.589805 
L 61.422144 90.284196 
L 61.557331 90.106204 
L 61.781388 89.817386 
L 61.915688 89.642753 
L 64.583975 85.397807 
L 64.913744 84.865509 
L 65.160849 84.435641 
L 65.305122 84.183765 
L 65.744813 83.449967 
L 65.893741 83.169546 
L 66.325454 82.378656 
L 66.442247 82.215776 
L 66.878614 81.414811 
L 67.361077 80.482871 
L 67.593777 80.036211 
L 67.718991 79.802806 
L 68.152034 79.010237 
L 68.423295 78.489694 
L 68.677713 77.960755 
L 73.605623 68.391156 
L 73.735713 68.09898 
L 73.929851 67.763145 
L 74.040438 67.573399 
L 74.497416 66.717021 
L 74.597809 66.530633 
L 74.834054 66.067182 
L 74.973896 65.837135 
L 75.32095 65.086546 
L 76.965581 62.206766 
L 77.062872 62.045566 
L 77.282496 61.686223 
L 77.424332 61.456176 
L 78.665839 59.34042 
L 78.775983 59.165786 
L 79.228085 58.416876 
L 79.424439 58.107908 
L 79.644285 57.802299 
L 79.781245 57.609194 
L 80.061371 57.19108 
L 80.203207 56.964392 
L 80.399117 56.655425 
L 80.970672 55.755388 
L 81.114945 55.50855 
L 81.571479 54.877182 
L 81.700018 54.694152 
L 81.885956 54.405334 
L 81.994106 54.264284 
L 82.169185 54.0292 
L 82.310799 53.834416 
L 82.509591 53.510336 
L 82.60533 53.350815 
L 82.899639 52.907513 
L 83.007124 52.756388 
L 83.18597 52.506191 
L 83.360163 52.276145 
L 83.533247 52.049457 
L 83.755087 51.762318 
L 84.140703 51.268642 
L 84.374289 50.973107 
L 84.506374 50.810228 
L 84.642226 50.640631 
L 84.910163 50.259459 
L 85.036707 50.089863 
L 85.3452 49.685183 
L 85.519392 49.458495 
L 85.727492 49.220052 
L 85.882182 49.008477 
L 87.227406 47.389755 
L 87.359712 47.231913 
L 87.686821 46.849062 
L 88.807546 45.47382 
L 88.93675 45.317657 
L 89.119807 45.114477 
L 89.251891 44.94656 
L 89.384641 44.783681 
L 90.249175 43.673748 
L 90.452621 43.438664 
L 90.618834 43.242201 
L 91.059412 42.770354 
L 91.191497 42.61587 
L 91.375662 42.427803 
L 94.272659 39.833482 
L 94.480759 39.667244 
L 96.26634 38.451524 
L 96.587465 38.234911 
L 96.71002 38.142556 
L 96.953135 37.971281 
L 97.305066 37.731159 
L 97.499203 37.598505 
L 97.655888 37.502792 
L 98.497817 37.004078 
L 98.815174 36.827765 
L 98.950583 36.742127 
L 99.352378 36.500327 
L 99.493105 36.424764 
L 100.463573 35.895825 
L 107.956052 32.470314 
L 108.710442 32.183176 
L 108.953557 32.067313 
L 109.467934 31.91115 
L 109.667169 31.833908 
L 110.183762 31.655916 
L 110.368149 31.575316 
L 110.83798 31.442661 
L 111.491755 31.254594 
L 112.271409 31.002718 
L 112.680738 30.863347 
L 113.47923 30.63498 
L 113.755809 30.564455 
L 114.321158 30.399896 
L 115.379387 30.117795 
L 115.837029 29.975065 
L 116.714417 29.760131 
L 116.926506 29.692964 
L 117.793921 29.464597 
L 118.798518 29.234551 
L 118.928608 29.207684 
L 119.454952 29.091821 
L 121.073432 28.719045 
L 122.074483 28.510828 
L 122.778122 28.379852 
L 122.874082 28.36306 
L 123.883776 28.198502 
L 124.92073 27.976851 
L 125.725648 27.812292 
L 126.701435 27.646054 
L 140.397682 25.834228 
L 141.925298 25.66799 
L 161.398476 24.191998 
L 165.788739 23.973706 
L 176.860357 23.468275 
L 176.860357 23.468275 
" clip-path="url(#p9e520366a0)" style="fill: none; stroke: #1f77b4; stroke-width: 1.5; stroke-linecap: square"/>
   </g>
   <g id="line2d_18">
    <path d="M 45.24244 99.07677 
L 48.138551 98.956757 
L 51.647658 98.330343 
L 51.87792 98.271799 
L 53.446093 97.841506 
L 53.956259 97.69222 
L 54.114938 97.610259 
L 56.632081 96.451101 
L 56.977363 96.208146 
L 57.359876 95.930065 
L 57.842561 95.561242 
L 60.312057 93.239998 
L 60.440152 93.105348 
L 60.594399 92.932645 
L 61.045171 92.3999 
L 61.226233 92.197926 
L 61.380701 92.013514 
L 61.558439 91.820321 
L 62.284462 90.983151 
L 62.420314 90.825084 
L 62.776898 90.383082 
L 62.885269 90.227942 
L 63.224789 89.747886 
L 63.399424 89.493223 
L 63.521758 89.338083 
L 63.946822 88.843391 
L 64.300969 88.41017 
L 64.493777 88.158434 
L 64.644921 87.944751 
L 64.875182 87.625689 
L 68.240238 82.491437 
L 68.504629 81.996746 
L 68.615438 81.800625 
L 69.051805 81.156648 
L 69.283397 80.773189 
L 70.541525 78.730026 
L 71.244721 77.447927 
L 71.418248 77.131792 
L 71.744249 76.566849 
L 71.906473 76.227298 
L 72.287436 75.54234 
L 72.412207 75.337439 
L 72.644242 75.003741 
L 72.788515 74.792985 
L 73.061106 74.271949 
L 73.246158 73.976305 
L 73.372037 73.768477 
L 73.597201 73.45527 
L 73.722859 73.253295 
L 74.228814 72.401489 
L 74.353142 72.225859 
L 74.709726 71.587736 
L 74.789952 71.444305 
L 74.932231 71.233549 
L 75.127921 70.940832 
L 75.264438 70.721295 
L 75.504007 70.293928 
L 75.65781 70.015847 
L 77.014116 67.685822 
L 77.106088 67.539463 
L 77.7705 66.479828 
L 77.92386 66.204675 
L 78.023588 66.055389 
L 78.181824 65.750964 
L 79.226977 64.021007 
L 79.336456 63.860013 
L 79.574475 63.570223 
L 80.166861 62.604258 
L 80.509262 62.010043 
L 80.794928 61.562186 
L 81.090346 61.085058 
L 81.212014 60.915282 
L 81.358947 60.704526 
L 81.448038 60.55524 
L 81.564609 60.364975 
L 81.752763 60.022496 
L 81.842297 59.879065 
L 82.0125 59.630255 
L 82.174282 59.410718 
L 82.311907 59.199962 
L 82.424932 59.041895 
L 82.666275 58.699416 
L 82.814095 58.44768 
L 83.002914 58.149108 
L 83.464102 57.396826 
L 83.551419 57.256322 
L 83.757968 56.954824 
L 83.883626 56.79383 
L 84.220486 56.319628 
L 88.166182 50.33357 
L 88.33838 50.073052 
L 90.244742 47.131248 
L 90.393227 46.955618 
L 90.54836 46.733154 
L 90.755795 46.419947 
L 91.140524 45.919401 
L 91.314717 45.720353 
L 91.466304 45.556432 
L 91.603707 45.389583 
L 91.770586 45.231516 
L 91.878736 45.105648 
L 91.998853 44.973926 
L 92.300919 44.640228 
L 92.457825 44.482161 
L 93.023839 43.899655 
L 93.220858 43.753297 
L 93.490567 43.475216 
L 93.762715 43.19128 
L 94.082732 42.875146 
L 96.804651 40.767585 
L 97.078128 40.583174 
L 97.19071 40.50414 
L 97.402578 40.343146 
L 97.518263 40.26704 
L 98.059012 39.906998 
L 98.559427 39.623063 
L 98.668906 39.535248 
L 98.920886 39.383035 
L 99.339302 39.157643 
L 100.093692 38.692223 
L 104.093463 36.523192 
L 104.810621 36.171932 
L 104.930738 36.095825 
L 105.671609 35.738711 
L 107.007525 35.100588 
L 108.004365 34.655659 
L 109.279337 34.160967 
L 109.657196 34.026318 
L 110.134563 33.86825 
L 110.425769 33.730674 
L 110.893163 33.563825 
L 111.128743 33.478937 
L 114.679294 32.290507 
L 115.221151 32.129513 
L 117.68156 31.388939 
L 118.511522 31.189892 
L 118.720951 31.116713 
L 120.323696 30.759598 
L 121.202857 30.551769 
L 122.08645 30.361503 
L 122.223854 30.317596 
L 126.634284 29.255034 
L 127.13625 29.123311 
L 127.794457 28.97988 
L 128.985435 28.766197 
L 130.155138 28.53495 
L 130.885592 28.362248 
L 131.041834 28.335903 
L 132.849576 28.019769 
L 134.272367 27.785595 
L 135.092134 27.659727 
L 136.227264 27.48117 
L 136.338517 27.463607 
L 137.799869 27.244069 
L 147.183641 26.02344 
L 148.583162 25.853665 
L 162.969529 24.791103 
L 177.009063 24.09151 
L 177.009063 24.09151 
" clip-path="url(#p9e520366a0)" style="fill: none; stroke-dasharray: 1.5,2.475; stroke-dashoffset: 0; stroke: #ff7f0e; stroke-width: 1.5"/>
   </g>
   <g id="line2d_19">
    <path d="M 45.099052 99.07897 
L 46.978599 98.956801 
L 47.723902 98.761185 
L 48.576912 98.420129 
L 48.964301 98.236875 
L 49.101705 98.156883 
L 49.360555 98.015806 
L 49.505937 97.914726 
L 49.905515 97.65148 
L 50.014108 97.570034 
L 50.260326 97.393324 
L 50.475296 97.252248 
L 50.66345 97.103172 
L 50.774038 97.016635 
L 51.243205 96.634129 
L 51.649431 96.283619 
L 52.345092 95.694589 
L 52.498452 95.571692 
L 52.966732 95.189186 
L 54.011663 94.206741 
L 54.174775 94.072936 
L 54.460441 93.817689 
L 54.752756 93.5319 
L 54.863565 93.416276 
L 60.18795 87.428523 
L 60.298981 87.272176 
L 61.097251 86.174833 
L 61.219806 86.004669 
L 61.425025 85.710881 
L 61.575504 85.502175 
L 62.477491 84.233941 
L 62.600711 84.064503 
L 62.797287 83.80053 
L 63.394327 82.983886 
L 63.536828 82.785361 
L 63.935741 82.178878 
L 64.08622 81.947628 
L 64.312936 81.582575 
L 64.415545 81.426954 
L 64.526133 81.26188 
L 64.906874 80.680849 
L 66.229715 78.723958 
L 66.42075 78.423625 
L 66.530673 78.249097 
L 66.612228 78.120383 
L 66.723259 77.940765 
L 66.939337 77.62007 
L 67.795893 76.312567 
L 68.018841 75.961331 
L 68.427506 75.349757 
L 68.650676 74.996338 
L 68.805809 74.785451 
L 69.024546 74.443667 
L 69.12782 74.288047 
L 70.338966 72.512955 
L 70.456423 72.336246 
L 70.658761 72.052639 
L 71.145879 71.355255 
L 71.367054 71.006927 
L 71.458804 70.860033 
L 71.569392 70.705867 
L 71.718763 70.475345 
L 71.829129 70.327724 
L 71.9457 70.167013 
L 72.163994 69.831047 
L 72.585956 69.204929 
L 72.790067 68.915504 
L 73.244163 68.254481 
L 73.384891 68.066864 
L 74.14748 67.02697 
L 74.259619 66.873531 
L 74.458633 66.600832 
L 75.023538 65.818366 
L 75.232968 65.512215 
L 75.35109 65.344233 
L 75.552763 65.063534 
L 75.679307 64.891915 
L 76.299396 64.049819 
L 76.439902 63.863657 
L 76.709169 63.49933 
L 76.907961 63.228085 
L 77.17346 62.89721 
L 77.361614 62.66087 
L 78.196672 61.583162 
L 78.721243 60.935955 
L 79.068298 60.507635 
L 79.262658 60.250934 
L 79.414023 60.0575 
L 79.913551 59.451016 
L 80.370307 58.870712 
L 80.571758 58.59074 
L 81.059762 58.003164 
L 81.409698 57.572662 
L 81.598517 57.333414 
L 81.896594 56.945817 
L 82.378392 56.36624 
L 82.523109 56.21571 
L 82.697302 56.02373 
L 82.924239 55.773573 
L 83.034827 55.645586 
L 88.698953 49.286236 
L 88.83414 49.134978 
L 88.982625 48.962632 
L 89.154379 48.772106 
L 89.282696 48.628121 
L 89.532017 48.332151 
L 89.71175 48.122718 
L 90.289066 47.506054 
L 90.399875 47.388248 
L 90.775297 46.983925 
L 90.926441 46.810852 
L 91.265296 46.468342 
L 91.480709 46.245092 
L 91.640053 46.101833 
L 92.209169 45.595703 
L 92.515224 45.305551 
L 92.727756 45.109935 
L 93.246122 44.707067 
L 93.520708 44.488907 
L 93.742769 44.33765 
L 94.040403 44.095493 
L 94.554558 43.691171 
L 94.722323 43.564638 
L 95.180409 43.227218 
L 95.437265 43.061417 
L 95.547409 42.986515 
L 95.952306 42.721815 
L 96.127163 42.604736 
L 96.365403 42.45566 
L 96.721544 42.229502 
L 97.009648 42.048429 
L 97.148825 41.969164 
L 97.629294 41.676104 
L 97.740324 41.620836 
L 98.330938 41.279053 
L 98.682425 41.098708 
L 98.792126 41.042714 
L 99.459198 40.681296 
L 99.657768 40.56858 
L 100.704029 40.068995 
L 100.885091 39.981731 
L 101.227935 39.832655 
L 101.771787 39.554866 
L 102.196852 39.347614 
L 102.543463 39.188357 
L 102.817162 39.053099 
L 103.543184 38.698226 
L 103.915947 38.535333 
L 104.327271 38.369532 
L 104.501684 38.296085 
L 105.000991 38.100469 
L 105.70463 37.83286 
L 105.872395 37.771048 
L 106.267762 37.605246 
L 106.447717 37.51871 
L 106.821809 37.353636 
L 107.577085 37.06712 
L 108.197395 36.834416 
L 108.326599 36.777695 
L 108.894164 36.576988 
L 109.272023 36.461363 
L 109.75626 36.2832 
L 110.558962 36.00541 
L 110.683733 35.965414 
L 111.054944 35.822883 
L 111.504608 35.646901 
L 111.638688 35.587998 
L 113.250741 35.042599 
L 113.634141 34.917521 
L 125.064117 31.906192 
L 125.776842 31.739663 
L 125.930424 31.700395 
L 126.297202 31.624039 
L 127.230438 31.429877 
L 128.314153 31.221171 
L 129.087158 31.06046 
L 141.702793 28.993035 
L 142.888452 28.832324 
L 143.194729 28.790146 
L 146.707161 28.349464 
L 147.068621 28.300742 
L 149.626542 27.989501 
L 150.198318 27.916781 
L 154.048718 27.497187 
L 158.893078 26.997602 
L 162.194973 26.681998 
L 162.507011 26.655092 
L 165.691448 26.367121 
L 165.828852 26.354759 
L 167.393257 26.202047 
L 168.073626 26.144598 
L 172.478737 25.788998 
L 175.939976 25.539569 
L 176.810715 25.486484 
L 176.856812 25.485756 
L 176.856812 25.485756 
" clip-path="url(#p9e520366a0)" style="fill: none; stroke-dasharray: 5.55,2.4; stroke-dashoffset: 0; stroke: #2ca02c; stroke-width: 1.5"/>
   </g>
   <g id="line2d_20">
    <path d="M 45.078663 99.079445 
L 47.810777 98.964337 
L 51.345814 98.178822 
L 51.950611 97.961509 
L 52.398059 97.807442 
L 53.112779 97.530425 
L 53.964459 97.171947 
L 54.753864 96.797784 
L 55.009612 96.674328 
L 61.631795 92.766741 
L 62.019406 92.492507 
L 62.209998 92.356402 
L 62.469956 92.176024 
L 62.614673 92.074831 
L 62.846265 91.917728 
L 63.645199 91.333841 
L 64.100182 90.9827 
L 64.734676 90.492671 
L 64.916625 90.353529 
L 65.138908 90.188837 
L 67.33271 88.37975 
L 67.943712 87.850508 
L 68.142283 87.656217 
L 68.849689 87.01718 
L 70.676934 85.306757 
L 70.882596 85.113983 
L 71.093133 84.915644 
L 71.257574 84.747663 
L 71.460134 84.551853 
L 72.823531 83.163226 
L 72.963372 83.01776 
L 73.182775 82.793616 
L 75.009798 80.876506 
L 75.176012 80.69461 
L 75.396301 80.468443 
L 82.477456 72.216619 
L 82.588487 72.088609 
L 83.878528 70.447504 
L 83.989338 70.29116 
L 84.159319 70.066257 
L 85.189845 68.721396 
L 85.502992 68.283228 
L 85.645936 68.073757 
L 85.756967 67.920955 
L 85.9203 67.699848 
L 86.496065 66.874109 
L 86.844671 66.354733 
L 87.344864 65.615262 
L 87.455895 65.447027 
L 87.858576 64.819375 
L 87.969606 64.649117 
L 88.30425 64.098624 
L 88.540274 63.686261 
L 88.812865 63.206603 
L 88.923896 63.008264 
L 89.154158 62.576927 
L 89.265188 62.362397 
L 90.038859 60.872828 
L 90.235878 60.479692 
L 90.346909 60.252765 
L 90.557889 59.84369 
L 90.752249 59.475093 
L 90.86882 59.246902 
L 90.979851 59.040467 
L 91.614345 57.86814 
L 91.722273 57.678656 
L 91.833304 57.483352 
L 92.067776 57.076048 
L 92.155316 56.924005 
L 92.382475 56.541747 
L 92.492841 56.350997 
L 92.865382 55.77723 
L 93.007882 55.568518 
L 93.214209 55.257854 
L 93.949096 54.250979 
L 94.10977 54.035437 
L 94.233876 53.869732 
L 94.511121 53.513278 
L 94.714567 53.269402 
L 94.825597 53.143669 
L 96.980838 50.851383 
L 97.151706 50.687197 
L 97.900776 50.000599 
L 98.336257 49.624412 
L 98.651841 49.345371 
L 98.824704 49.192063 
L 104.738373 44.831129 
L 105.482125 44.369434 
L 105.807239 44.166541 
L 106.162272 43.949734 
L 111.621845 40.961237 
L 111.964688 40.79275 
L 113.39302 40.105393 
L 113.79149 39.928052 
L 113.902521 39.880997 
L 114.49668 39.596137 
L 114.607711 39.551612 
L 115.563109 39.133936 
L 115.936979 38.964689 
L 116.178322 38.857677 
L 127.296702 34.745427 
L 127.907039 34.556195 
L 128.103615 34.499273 
L 128.718163 34.317378 
L 129.179573 34.181526 
L 130.061393 33.925253 
L 130.258855 33.867826 
L 136.795494 32.117685 
L 137.507776 31.955522 
L 137.69039 31.912515 
L 138.385829 31.748328 
L 138.574426 31.701526 
L 143.882855 30.603324 
L 144.652536 30.468484 
L 145.538567 30.301008 
L 145.648933 30.276216 
L 146.814425 30.058144 
L 147.705774 29.904583 
L 149.48515 29.611881 
L 150.659285 29.411265 
L 151.229731 29.312601 
L 153.067613 29.026223 
L 153.237151 28.999913 
L 156.150992 28.586032 
L 156.316319 28.563516 
L 157.781218 28.368719 
L 158.061122 28.335578 
L 160.960779 27.96951 
L 161.127658 27.946489 
L 167.309928 27.274311 
L 169.994172 27.001847 
L 170.259893 26.977561 
L 171.873276 26.829818 
L 172.305875 26.783775 
L 174.035164 26.614023 
L 176.849498 26.372171 
L 176.849498 26.372171 
" clip-path="url(#p9e520366a0)" style="fill: none; stroke-dasharray: 9.6,2.4,1.5,2.4; stroke-dashoffset: 0; stroke: #d62728; stroke-width: 1.5"/>
   </g>
   <g id="line2d_21">
    <path d="M 44.975611 99.079613 
L 48.245371 98.965676 
L 50.080594 98.713673 
L 50.314623 98.6734 
L 51.143919 98.522589 
L 51.253621 98.502707 
L 52.027513 98.349092 
L 53.334175 98.070155 
L 54.106959 97.892496 
L 54.694248 97.749076 
L 54.971493 97.676007 
L 55.590917 97.50506 
L 55.790374 97.44448 
L 56.306523 97.300212 
L 57.207403 97.014393 
L 57.318433 96.977093 
L 57.645321 96.866385 
L 58.297544 96.628486 
L 58.47905 96.553208 
L 59.015145 96.337315 
L 59.126176 96.291094 
L 59.59091 96.08888 
L 60.605923 95.580795 
L 61.232438 95.240344 
L 63.047494 94.068521 
L 63.299474 93.884829 
L 63.62614 93.640642 
L 63.736949 93.554489 
L 64.026826 93.324406 
L 64.304071 93.10265 
L 64.557603 92.886502 
L 65.149989 92.373914 
L 65.296479 92.243239 
L 65.40751 92.143322 
L 66.086549 91.482726 
L 66.19758 91.374567 
L 66.393048 91.180679 
L 66.879279 90.667922 
L 66.990088 90.556959 
L 69.837 87.113368 
L 69.948031 86.966975 
L 70.071472 86.8007 
L 70.182503 86.652948 
L 70.410327 86.338326 
L 70.86398 85.708743 
L 70.977449 85.546292 
L 71.088479 85.386475 
L 75.366604 78.62317 
L 75.477635 78.431236 
L 75.619027 78.182887 
L 75.730058 77.989764 
L 76.001098 77.509122 
L 76.112128 77.319652 
L 76.256402 77.069179 
L 76.367433 76.875206 
L 76.454972 76.722695 
L 76.588387 76.480803 
L 76.699418 76.277824 
L 76.962479 75.805934 
L 80.193899 69.851657 
L 80.277006 69.700846 
L 80.388036 69.48988 
L 80.5117 69.255294 
L 83.798302 62.715275 
L 84.091282 62.10328 
L 85.241039 59.659375 
L 85.35207 59.41196 
L 85.61912 58.827748 
L 85.681838 58.684838 
L 86.121751 57.693733 
L 86.185799 57.550229 
L 86.29683 57.290409 
L 87.792312 53.572044 
L 87.903343 53.260736 
L 88.333726 52.050339 
L 88.380709 51.913462 
L 88.973538 50.080534 
L 89.053986 49.818675 
L 89.347631 48.864869 
L 89.458661 48.500034 
L 89.726598 47.605363 
L 90.064345 46.486217 
L 90.102685 46.352653 
L 90.213716 46.004216 
L 90.396773 45.413121 
L 90.507804 45.06222 
L 90.704601 44.444872 
L 90.815632 44.108924 
L 91.048996 43.421395 
L 91.929265 41.079618 
L 91.990653 40.937133 
L 92.101684 40.674169 
L 92.402642 40.009326 
L 92.513673 39.785446 
L 93.031152 38.788733 
L 93.261635 38.392121 
L 93.356488 38.237062 
L 93.467519 38.061102 
L 94.619271 36.498189 
L 94.964109 36.0941 
L 95.07514 35.969968 
L 95.249332 35.784236 
L 95.360141 35.673698 
L 95.50641 35.532743 
L 95.617441 35.425773 
L 99.463852 32.616439 
L 99.780323 32.442687 
L 99.891354 32.379389 
L 100.487951 32.061709 
L 100.797331 31.910218 
L 101.264502 31.691945 
L 102.791454 30.987594 
L 102.902042 30.943242 
L 103.454315 30.72429 
L 103.565346 30.67858 
L 104.143992 30.45453 
L 107.313137 29.358409 
L 107.849454 29.195448 
L 109.192905 28.799346 
L 109.980759 28.586681 
L 110.926406 28.343089 
L 113.415403 27.752844 
L 114.138766 27.594471 
L 115.682561 27.285202 
L 115.79337 27.262092 
L 116.410356 27.144417 
L 118.547645 26.759445 
L 118.720286 26.729623 
L 119.815747 26.54831 
L 121.084513 26.338703 
L 123.703379 25.949568 
L 124.780223 25.797143 
L 134.993514 24.603739 
L 136.698203 24.442307 
L 139.095894 24.247909 
L 147.298883 23.730224 
L 151.475949 23.519003 
L 156.784156 23.291045 
L 161.911966 23.10132 
L 167.98387 22.921366 
L 176.850606 22.708532 
L 176.850606 22.708532 
" clip-path="url(#p9e520366a0)" style="fill: none; stroke: #9467bd; stroke-width: 1.5; stroke-linecap: square"/>
   </g>
   <g id="line2d_22">
    <path d="M 44.294577 99.079553 
L 47.154564 98.967213 
L 48.157166 98.774053 
L 48.467211 98.704365 
L 52.659347 97.220094 
L 52.769935 97.171515 
L 53.237771 96.956089 
L 53.940745 96.629336 
L 54.225968 96.491261 
L 55.078313 96.067349 
L 55.371958 95.916984 
L 55.482989 95.857995 
L 55.96102 95.585459 
L 56.072051 95.523723 
L 59.419599 93.207243 
L 59.530186 93.113266 
L 59.700833 92.972877 
L 59.904722 92.789548 
L 60.422423 92.319226 
L 60.658003 92.102209 
L 60.848152 91.923363 
L 61.485527 91.274048 
L 61.651741 91.103009 
L 61.76255 90.990669 
L 62.94289 89.680185 
L 63.250497 89.322347 
L 63.511342 89.019594 
L 66.570342 84.845824 
L 66.681373 84.673628 
L 67.609068 83.280588 
L 68.280351 82.210977 
L 68.367669 82.065673 
L 69.178349 80.723092 
L 69.309104 80.505208 
L 69.420135 80.309589 
L 69.546901 80.094308 
L 69.657932 79.906931 
L 69.773617 79.699168 
L 69.884648 79.515116 
L 70.801483 77.964772 
L 70.931574 77.747322 
L 72.058282 75.786222 
L 72.184162 75.571519 
L 72.57554 74.878397 
L 72.785856 74.503932 
L 72.90287 74.295012 
L 73.281616 73.618372 
L 73.392647 73.416248 
L 73.812836 72.685679 
L 73.923867 72.488181 
L 74.326105 71.78089 
L 74.437136 71.582958 
L 75.776155 69.206477 
L 75.897158 68.995389 
L 76.008189 68.795433 
L 76.413973 68.084093 
L 76.525004 67.887752 
L 76.973338 67.120315 
L 77.084369 66.92354 
L 77.205151 66.712162 
L 77.659691 65.936774 
L 77.770722 65.742312 
L 78.254736 64.92832 
L 78.365767 64.741665 
L 78.779307 64.019482 
L 78.890338 63.833551 
L 79.015996 63.618993 
L 79.127027 63.434796 
L 79.213015 63.289926 
L 79.972945 62.046817 
L 80.108575 61.825897 
L 80.219606 61.643435 
L 80.553142 61.083183 
L 80.696751 60.856914 
L 80.807782 60.670404 
L 81.409698 59.702577 
L 81.742791 59.143771 
L 81.881302 58.921261 
L 81.992333 58.739811 
L 82.625497 57.731068 
L 82.736528 57.544703 
L 83.354622 56.555768 
L 83.465653 56.374463 
L 84.105244 55.357479 
L 84.275004 55.100414 
L 84.374732 54.951061 
L 85.06729 53.864823 
L 85.653914 52.960901 
L 86.364645 51.85124 
L 86.475676 51.670514 
L 86.614852 51.447281 
L 86.924675 50.949054 
L 87.062965 50.726254 
L 87.371015 50.232799 
L 87.50731 50.0113 
L 87.618341 49.825803 
L 88.043405 49.088583 
L 88.154436 48.897447 
L 88.540053 48.201288 
L 88.650419 47.99714 
L 88.933204 47.45337 
L 89.241697 46.868539 
L 89.352728 46.651956 
L 89.456002 46.452145 
L 89.926277 45.535067 
L 90.03088 45.334533 
L 90.141911 45.12142 
L 90.24585 44.921175 
L 90.356881 44.707918 
L 91.717398 42.289219 
L 91.864109 42.060925 
L 92.373388 41.308091 
L 92.476884 41.157727 
L 92.587915 40.999555 
L 92.785377 40.738152 
L 94.000733 39.334992 
L 95.892469 37.639199 
L 96.069321 37.497798 
L 100.219128 34.922952 
L 100.505681 34.7736 
L 100.616268 34.71837 
L 101.041554 34.512486 
L 101.263173 34.40593 
L 105.998939 32.467096 
L 106.680195 32.227091 
L 107.594593 31.914651 
L 107.783855 31.84959 
L 108.175676 31.718744 
L 109.509598 31.315073 
L 109.6193 31.280952 
L 110.073174 31.145046 
L 110.664231 30.978488 
L 110.774375 30.943933 
L 111.494192 30.73805 
L 111.605223 30.707688 
L 113.260714 30.284498 
L 114.217441 30.047674 
L 115.583941 29.718608 
L 116.351627 29.544532 
L 117.37617 29.321443 
L 117.674468 29.259129 
L 118.806496 29.024329 
L 119.696516 28.850831 
L 121.1951 28.576127 
L 121.303694 28.555886 
L 122.185292 28.396702 
L 123.611407 28.152215 
L 123.886214 28.105082 
L 127.468456 27.525745 
L 128.169657 27.413839 
L 129.653172 27.204775 
L 132.024268 26.872238 
L 135.30799 26.448904 
L 136.492763 26.310251 
L 140.601127 25.885471 
L 142.042091 25.74595 
L 164.942821 24.197197 
L 169.388489 23.992614 
L 169.608334 23.981192 
L 173.588381 23.808273 
L 173.803795 23.799743 
L 176.849941 23.682198 
L 176.849941 23.682198 
" clip-path="url(#p9e520366a0)" style="fill: none; stroke-dasharray: 1.5,2.475; stroke-dashoffset: 0; stroke: #8c564b; stroke-width: 1.5"/>
   </g>
   <g id="line2d_23">
    <path d="M 45.238007 99.079515 
L 48.001147 98.964254 
L 49.862743 98.544375 
L 51.966346 97.555877 
L 52.16824 97.436591 
L 52.697909 97.098127 
L 52.863458 96.98433 
L 53.671257 96.412966 
L 57.5549 93.063268 
L 57.729093 92.870435 
L 57.921679 92.670833 
L 58.032488 92.556304 
L 58.210226 92.362739 
L 58.596951 91.937921 
L 58.726598 91.803999 
L 58.837629 91.677944 
L 59.288179 91.162015 
L 59.806988 90.519482 
L 59.958132 90.337077 
L 60.468741 89.708448 
L 60.594842 89.558792 
L 60.848373 89.227646 
L 61.118526 88.860641 
L 61.939623 87.719377 
L 62.204901 87.356397 
L 63.207503 85.915271 
L 63.437986 85.581198 
L 63.549017 85.412332 
L 63.757338 85.096554 
L 63.97253 84.768335 
L 64.079793 84.60386 
L 65.79091 81.992746 
L 65.884655 81.852055 
L 65.995686 81.67587 
L 69.140674 76.69752 
L 69.230873 76.557926 
L 69.561749 76.035045 
L 69.665024 75.872399 
L 69.775611 75.69841 
L 69.902377 75.502467 
L 70.013408 75.322989 
L 70.214638 75.012883 
L 70.325668 74.827551 
L 70.65588 74.30467 
L 70.739652 74.17459 
L 70.956838 73.840334 
L 71.166932 73.522909 
L 71.489387 73.020518 
L 71.595764 72.856409 
L 71.788572 72.553255 
L 73.495035 69.950191 
L 73.710448 69.628376 
L 73.821479 69.468657 
L 74.037779 69.14611 
L 74.328321 68.723121 
L 74.433811 68.559744 
L 74.544621 68.396549 
L 74.658532 68.22933 
L 74.769563 68.071989 
L 75.002263 67.735904 
L 76.076005 66.177322 
L 76.216289 65.973512 
L 77.156617 64.635389 
L 77.437186 64.259785 
L 77.548217 64.109031 
L 77.680301 63.934311 
L 77.943806 63.572794 
L 78.054836 63.420394 
L 78.160549 63.276227 
L 78.271579 63.128766 
L 78.551262 62.753894 
L 78.662293 62.592712 
L 78.951505 62.210156 
L 79.122151 61.977439 
L 79.414909 61.591773 
L 80.05716 60.745795 
L 80.418177 60.304145 
L 80.529207 60.157783 
L 80.831938 59.764066 
L 81.022974 59.51653 
L 81.164366 59.33815 
L 81.275175 59.199472 
L 81.412136 59.022921 
L 81.645057 58.742453 
L 81.825454 58.516506 
L 82.339388 57.882389 
L 82.733869 57.412747 
L 83.202149 56.853458 
L 83.31872 56.716425 
L 83.55829 56.419857 
L 83.707882 56.238002 
L 83.818691 56.104811 
L 83.979586 55.918199 
L 84.090617 55.780984 
L 84.476455 55.318477 
L 84.587486 55.18181 
L 85.029837 54.665881 
L 85.524046 54.114276 
L 85.635077 53.996088 
L 86.116654 53.454911 
L 86.227685 53.33032 
L 86.656517 52.83232 
L 86.767548 52.706265 
L 87.192834 52.211193 
L 87.595514 51.760395 
L 87.758847 51.573051 
L 88.184576 51.084565 
L 88.559998 50.63084 
L 88.741725 50.413308 
L 88.93542 50.180042 
L 89.046451 50.055268 
L 89.196043 49.873412 
L 89.651248 49.33626 
L 90.053486 48.860215 
L 90.164516 48.72739 
L 90.34159 48.524678 
L 90.560992 48.277142 
L 91.004451 47.76725 
L 91.115482 47.649794 
L 91.753078 46.979635 
L 91.948102 46.793022 
L 92.150662 46.589395 
L 92.261028 46.490783 
L 92.424361 46.343688 
L 92.664595 46.124327 
L 92.775626 46.020226 
L 93.026277 45.796657 
L 93.137086 45.693288 
L 93.370672 45.476854 
L 93.642155 45.242673 
L 93.857124 45.068318 
L 96.580595 42.963986 
L 97.00987 42.666686 
L 97.120901 42.584174 
L 97.963716 42.032386 
L 98.565632 41.663735 
L 98.676441 41.597689 
L 98.960556 41.425712 
L 99.546072 41.085601 
L 99.784755 40.940702 
L 100.37825 40.594554 
L 100.758104 40.37501 
L 101.282232 40.086309 
L 102.1953 39.589224 
L 102.704358 39.312781 
L 103.196573 39.062318 
L 104.130695 38.577673 
L 104.420572 38.442288 
L 104.77361 38.271409 
L 105.179394 38.080406 
L 109.783076 36.060049 
L 109.952835 35.993271 
L 110.603064 35.745735 
L 110.91599 35.630657 
L 111.613423 35.352018 
L 111.926127 35.23566 
L 112.293792 35.104299 
L 112.588323 35.004773 
L 113.08763 34.834077 
L 113.2534 34.7748 
L 115.016376 34.167211 
L 115.533855 34.002187 
L 119.671473 32.752797 
L 121.2033 32.323222 
L 126.885156 30.873497 
L 127.469343 30.744515 
L 129.277307 30.362142 
L 129.997124 30.217975 
L 130.108155 30.19602 
L 136.950184 28.896867 
L 137.848625 28.748674 
L 138.313359 28.67659 
L 140.440011 28.345444 
L 142.223597 28.090041 
L 143.185421 27.947154 
L 144.768664 27.726878 
L 151.382426 26.928652 
L 152.659835 26.793083 
L 171.270695 25.197362 
L 175.834042 24.897867 
L 176.579567 24.856885 
L 176.848833 24.843164 
L 176.848833 24.843164 
" clip-path="url(#p9e520366a0)" style="fill: none; stroke-dasharray: 5.55,2.4; stroke-dashoffset: 0; stroke: #e377c2; stroke-width: 1.5"/>
   </g>
   <g id="patch_3">
    <path d="M 43.876826 102.960683 
L 43.876826 17.579 
" style="fill: none; stroke: #000000; stroke-width: 0.8; stroke-linejoin: miter; stroke-linecap: square"/>
   </g>
   <g id="patch_4">
    <path d="M 176.847947 102.960683 
L 176.847947 17.579 
" style="fill: none; stroke: #000000; stroke-width: 0.8; stroke-linejoin: miter; stroke-linecap: square"/>
   </g>
   <g id="patch_5">
    <path d="M 43.876826 102.960683 
L 176.847947 102.960683 
" style="fill: none; stroke: #000000; stroke-width: 0.8; stroke-linejoin: miter; stroke-linecap: square"/>
   </g>
   <g id="patch_6">
    <path d="M 43.876826 17.579 
L 176.847947 17.579 
" style="fill: none; stroke: #000000; stroke-width: 0.8; stroke-linejoin: miter; stroke-linecap: square"/>
   </g>
  </g>
  <g id="axes_2">
   <g id="patch_7">
    <path d="M 190.138614 102.960683 
L 323.109735 102.960683 
L 323.109735 17.579 
L 190.138614 17.579 
z
" style="fill: #ffffff"/>
   </g>
   <g id="matplotlib.axis_3">
    <g id="xtick_7">
     <g id="line2d_24">
      <g>
       <use xlink:href="#mcd71f99df3" x="190.138614" y="102.960683" style="stroke: #000000; stroke-width: 0.8"/>
      </g>
     </g>
     <g id="text_14">
      <!-- 0 -->
      <g transform="translate(187.647947 116.879182) scale(0.1 -0.1)">
       <use xlink:href="#CMR17-30" transform="scale(0.996264)"/>
      </g>
     </g>
    </g>
    <g id="xtick_8">
     <g id="line2d_25">
      <g>
       <use xlink:href="#mcd71f99df3" x="212.300468" y="102.960683" style="stroke: #000000; stroke-width: 0.8"/>
      </g>
     </g>
     <g id="text_15">
      <!-- 100 -->
      <g transform="translate(204.828465 116.879182) scale(0.1 -0.1)">
       <use xlink:href="#CMR17-31" transform="scale(0.996264)"/>
       <use xlink:href="#CMR17-30" transform="translate(45.690477 0) scale(0.996264)"/>
       <use xlink:href="#CMR17-30" transform="translate(91.380954 0) scale(0.996264)"/>
      </g>
     </g>
    </g>
    <g id="xtick_9">
     <g id="line2d_26">
      <g>
       <use xlink:href="#mcd71f99df3" x="234.462321" y="102.960683" style="stroke: #000000; stroke-width: 0.8"/>
      </g>
     </g>
     <g id="text_16">
      <!-- 200 -->
      <g transform="translate(226.990318 116.879182) scale(0.1 -0.1)">
       <use xlink:href="#CMR17-32" transform="scale(0.996264)"/>
       <use xlink:href="#CMR17-30" transform="translate(45.690477 0) scale(0.996264)"/>
       <use xlink:href="#CMR17-30" transform="translate(91.380954 0) scale(0.996264)"/>
      </g>
     </g>
    </g>
    <g id="xtick_10">
     <g id="line2d_27">
      <g>
       <use xlink:href="#mcd71f99df3" x="256.624175" y="102.960683" style="stroke: #000000; stroke-width: 0.8"/>
      </g>
     </g>
     <g id="text_17">
      <!-- 300 -->
      <g transform="translate(249.152172 116.879182) scale(0.1 -0.1)">
       <use xlink:href="#CMR17-33" transform="scale(0.996264)"/>
       <use xlink:href="#CMR17-30" transform="translate(45.690477 0) scale(0.996264)"/>
       <use xlink:href="#CMR17-30" transform="translate(91.380954 0) scale(0.996264)"/>
      </g>
     </g>
    </g>
    <g id="xtick_11">
     <g id="line2d_28">
      <g>
       <use xlink:href="#mcd71f99df3" x="278.786028" y="102.960683" style="stroke: #000000; stroke-width: 0.8"/>
      </g>
     </g>
     <g id="text_18">
      <!-- 400 -->
      <g transform="translate(271.314025 116.879182) scale(0.1 -0.1)">
       <use xlink:href="#CMR17-34" transform="scale(0.996264)"/>
       <use xlink:href="#CMR17-30" transform="translate(45.690477 0) scale(0.996264)"/>
       <use xlink:href="#CMR17-30" transform="translate(91.380954 0) scale(0.996264)"/>
      </g>
     </g>
    </g>
    <g id="xtick_12">
     <g id="line2d_29">
      <g>
       <use xlink:href="#mcd71f99df3" x="300.947882" y="102.960683" style="stroke: #000000; stroke-width: 0.8"/>
      </g>
     </g>
     <g id="text_19">
      <!-- 500 -->
      <g transform="translate(293.475879 116.879182) scale(0.1 -0.1)">
       <use xlink:href="#CMR17-35" transform="scale(0.996264)"/>
       <use xlink:href="#CMR17-30" transform="translate(45.690477 0) scale(0.996264)"/>
       <use xlink:href="#CMR17-30" transform="translate(91.380954 0) scale(0.996264)"/>
      </g>
     </g>
    </g>
    <g id="text_20">
     <!-- (b) Upload [ms] -->
     <g transform="translate(222.142291 130.28834) scale(0.1 -0.1)">
      <defs>
       <path id="CMR17-62" d="M 960 4396 
L 198 4326 
L 198 4160 
C 576 4160 634 4122 634 3817 
L 634 -13 
L 749 -13 
L 934 441 
C 1120 141 1395 -64 1766 -64 
C 2406 -64 3053 500 3053 1370 
C 3053 2188 2477 2790 1830 2790 
C 1434 2790 1152 2579 960 2330 
L 960 4396 
z
M 973 2004 
C 973 2118 973 2138 1062 2272 
C 1312 2657 1670 2688 1792 2688 
C 1984 2688 2643 2585 2643 1376 
C 2643 108 1888 38 1734 38 
C 1536 38 1248 114 1043 486 
C 973 608 973 621 973 735 
L 973 2004 
z
" transform="scale(0.015625)"/>
       <path id="CMR17-55" d="M 3456 1433 
C 3456 579 2899 38 2291 38 
C 1965 38 1670 210 1491 477 
C 1286 783 1261 1178 1261 1401 
L 1261 3874 
C 1261 4160 1331 4160 1773 4160 
L 1773 4320 
C 1587 4320 1248 4320 1050 4320 
C 851 4320 512 4320 326 4320 
L 326 4160 
C 768 4160 838 4160 838 3874 
L 838 1433 
C 838 516 1536 -128 2278 -128 
C 3110 -128 3590 719 3590 1344 
L 3590 3766 
C 3590 4122 3917 4160 4102 4160 
L 4102 4326 
C 3955 4320 3686 4320 3526 4320 
C 3366 4320 3091 4320 2944 4326 
L 2944 4160 
C 3456 4160 3456 3861 3456 3702 
L 3456 1433 
z
" transform="scale(0.015625)"/>
       <path id="CMR17-70" d="M 1408 -1063 
C 998 -1063 973 -1037 973 -789 
L 973 402 
C 1158 134 1427 -38 1766 -38 
C 2406 -38 3053 523 3053 1388 
C 3053 2191 2496 2802 1837 2802 
C 1453 2802 1139 2592 960 2338 
L 960 2802 
L 198 2732 
L 198 2567 
C 576 2567 634 2528 634 2223 
L 634 -789 
C 634 -1031 608 -1063 198 -1063 
L 198 -1228 
C 352 -1216 634 -1216 800 -1216 
C 966 -1216 1254 -1216 1408 -1228 
L 1408 -1063 
z
M 973 2012 
C 973 2102 973 2235 1222 2471 
C 1254 2497 1472 2688 1792 2688 
C 2259 2688 2643 2108 2643 1382 
C 2643 656 2234 64 1728 64 
C 1498 64 1248 172 1056 472 
C 973 612 973 650 973 752 
L 973 2012 
z
" transform="scale(0.015625)"/>
      </defs>
      <use xlink:href="#CMR17-28" transform="scale(0.996264)"/>
      <use xlink:href="#CMR17-62" transform="translate(35.280768 0) scale(0.996264)"/>
      <use xlink:href="#CMR17-29" transform="translate(86.176138 0) scale(0.996264)"/>
      <use xlink:href="#CMR17-55" transform="translate(151.532872 0) scale(0.996264)"/>
      <use xlink:href="#CMR17-70" transform="translate(220.605302 0) scale(0.996264)"/>
      <use xlink:href="#CMR17-6c" transform="translate(271.500671 0) scale(0.996264)"/>
      <use xlink:href="#CMR17-6f" transform="translate(296.37173 0) scale(0.996264)"/>
      <use xlink:href="#CMR17-61" transform="translate(342.062207 0) scale(0.996264)"/>
      <use xlink:href="#CMR17-64" transform="translate(387.752684 0) scale(0.996264)"/>
      <use xlink:href="#CMR17-5b" transform="translate(468.72402 0) scale(0.996264)"/>
      <use xlink:href="#CMR17-6d" transform="translate(493.595079 0) scale(0.996264)"/>
      <use xlink:href="#CMR17-73" transform="translate(570.514669 0) scale(0.996264)"/>
      <use xlink:href="#CMR17-5d" transform="translate(606.316006 0) scale(0.996264)"/>
     </g>
    </g>
   </g>
   <g id="matplotlib.axis_4"/>
   <g id="line2d_30">
    <path d="M 190.138614 99.077537 
L 191.813386 98.898192 
L 192.376297 98.641058 
L 192.827734 98.202419 
L 193.063093 97.817799 
L 193.196729 97.510968 
L 193.345656 97.137152 
L 193.430758 96.899466 
L 194.037771 94.550693 
L 194.18825 93.774971 
L 194.250303 93.463818 
L 194.499181 92.12197 
L 194.559018 91.812978 
L 194.670049 91.099919 
L 194.988958 89.075264 
L 195.255786 87.223471 
L 195.366817 86.473679 
L 195.536577 85.326302 
L 196.107466 81.331011 
L 196.32288 79.794693 
L 196.363214 79.518113 
L 196.478677 78.76616 
L 196.589487 78.070387 
L 196.703177 77.324916 
L 196.813765 76.594571 
L 196.866288 76.248845 
L 197.1555 74.511574 
L 197.240602 74.012433 
L 197.399059 73.087617 
L 199.697465 62.432787 
L 199.812263 61.966058 
L 199.98845 61.332948 
L 200.297165 60.289289 
L 200.407309 59.919794 
L 200.529864 59.509245 
L 201.165466 57.670417 
L 201.326583 57.175598 
L 201.436727 56.866606 
L 201.899467 55.505311 
L 202.0382 55.161746 
L 202.286634 54.496225 
L 202.379936 54.277985 
L 202.520885 53.962511 
L 202.59823 53.804773 
L 203.128563 52.52775 
L 203.34176 52.039412 
L 203.584654 51.568361 
L 203.938357 50.781835 
L 204.049167 50.559275 
L 204.294498 50.135761 
L 204.481323 49.770588 
L 204.803334 49.098584 
L 205.20668 48.433062 
L 205.339873 48.212662 
L 205.545757 47.858294 
L 205.715516 47.562266 
L 205.795299 47.40885 
L 205.928049 47.197093 
L 206.053263 46.96589 
L 206.278649 46.602878 
L 206.451955 46.358709 
L 206.592683 46.164238 
L 206.739172 45.952481 
L 206.959904 45.611077 
L 207.527026 44.742442 
L 207.622101 44.606312 
L 207.861449 44.288677 
L 208.017911 44.07692 
L 208.292497 43.733355 
L 208.503478 43.424363 
L 209.386849 42.374222 
L 209.517826 42.23161 
L 209.709747 41.970155 
L 209.870421 41.797292 
L 209.999181 41.596339 
L 210.117082 41.419155 
L 210.242075 41.285186 
L 210.585584 40.85519 
L 210.715674 40.699614 
L 210.861056 40.541876 
L 211.114587 40.289064 
L 211.265953 40.105398 
L 211.536992 39.815853 
L 211.851026 39.53279 
L 211.974467 39.411786 
L 213.391939 38.180138 
L 213.599596 38.007276 
L 213.784426 37.847378 
L 214.967425 36.89015 
L 215.077127 36.797236 
L 217.113579 35.280365 
L 217.389494 35.109663 
L 217.700425 34.928157 
L 217.938 34.783385 
L 218.280622 34.571628 
L 218.39941 34.498161 
L 218.801648 34.225902 
L 219.160448 34.048718 
L 219.496643 33.884498 
L 220.349653 33.491235 
L 220.697151 33.316212 
L 221.535977 32.927271 
L 221.858654 32.78682 
L 222.279729 32.609635 
L 222.919763 32.382753 
L 223.318677 32.231498 
L 223.661299 32.091047 
L 224.090131 31.944114 
L 224.202935 31.900898 
L 225.420507 31.498992 
L 225.548381 31.453615 
L 226.002034 31.289396 
L 235.977971 28.772081 
L 237.821615 28.514948 
L 237.975418 28.489019 
L 238.302971 28.443642 
L 239.180137 28.279422 
L 239.467354 28.234046 
L 242.574889 27.799728 
L 243.775397 27.635509 
L 247.20029 27.237924 
L 248.961714 27.062901 
L 249.058561 27.049936 
L 251.082825 26.86843 
L 251.232639 26.846822 
L 255.741025 26.524865 
L 257.435963 26.371449 
L 259.924518 26.23532 
L 266.347466 25.846379 
L 271.077028 25.608692 
L 271.535335 25.578441 
L 277.932132 25.306183 
L 281.970687 25.165732 
L 283.48146 25.120355 
L 287.57963 24.971261 
L 287.714596 24.966939 
L 318.362445 24.184735 
L 323.113503 24.0875 
L 323.113503 24.0875 
" clip-path="url(#pc68d4631e9)" style="fill: none; stroke: #1f77b4; stroke-width: 1.5; stroke-linecap: square"/>
   </g>
   <g id="line2d_31">
    <path d="M 190.138614 99.073111 
L 192.369205 98.855763 
L 192.813107 98.66476 
L 193.221771 98.104923 
L 193.352305 97.818418 
L 193.571929 97.242116 
L 193.682738 96.873282 
L 194.078992 95.348551 
L 195.217003 89.150829 
L 195.397179 88.110191 
L 195.485162 87.665615 
L 195.594863 87.030036 
L 195.6629 86.671082 
L 195.847951 85.561288 
L 195.933939 85.054142 
L 196.121872 83.914709 
L 196.685226 80.555689 
L 196.788943 80.002439 
L 196.899753 79.389912 
L 197.060869 78.563329 
L 197.1719 78.033131 
L 197.590538 75.754266 
L 197.659461 75.457882 
L 197.788665 74.855234 
L 197.847394 74.591782 
L 198.011391 73.804717 
L 198.388364 71.977015 
L 198.545714 71.285452 
L 198.582281 71.114208 
L 198.692647 70.6367 
L 198.746057 70.435817 
L 198.827834 70.086743 
L 199.053663 69.237108 
L 199.156716 68.855102 
L 199.303649 68.308438 
L 199.501111 67.630048 
L 199.647158 67.08997 
L 199.718962 66.806758 
L 199.939029 65.999935 
L 199.981358 65.835277 
L 200.322651 64.705724 
L 200.57441 63.912073 
L 200.749267 63.441152 
L 201.010112 62.723244 
L 201.131559 62.400514 
L 201.359604 61.811039 
L 201.494791 61.432326 
L 201.729929 60.829678 
L 202.333839 59.374103 
L 202.400546 59.209445 
L 203.516839 56.732991 
L 203.593741 56.581506 
L 203.704328 56.331226 
L 204.397994 55.112758 
L 204.522765 54.895409 
L 204.649974 54.622077 
L 204.756573 54.411315 
L 204.995921 53.943687 
L 205.1218 53.713166 
L 205.346965 53.291642 
L 205.496779 53.044655 
L 205.668755 52.748271 
L 205.988994 52.277349 
L 206.117089 52.122571 
L 206.241417 51.915102 
L 206.348902 51.793255 
L 206.498273 51.566027 
L 206.609304 51.414542 
L 206.707259 51.279523 
L 206.800339 51.108279 
L 207.152048 50.604426 
L 207.485584 50.153263 
L 207.803163 49.708687 
L 207.910426 49.567081 
L 208.060019 49.366199 
L 208.36962 48.967727 
L 208.548909 48.730619 
L 208.686756 48.503391 
L 208.793133 48.368372 
L 210.070985 46.659223 
L 210.212821 46.511031 
L 210.343576 46.339787 
L 210.483861 46.171836 
L 210.677999 45.961074 
L 210.855072 45.803003 
L 210.987821 45.648224 
L 211.110376 45.496739 
L 211.464523 45.177303 
L 211.610791 45.032404 
L 211.793405 44.85128 
L 211.959619 44.647104 
L 212.136692 44.48574 
L 215.145607 41.834748 
L 215.388279 41.663504 
L 215.805365 41.288084 
L 216.02654 41.034511 
L 216.268326 40.843508 
L 216.413043 40.754593 
L 216.738379 40.507606 
L 217.05485 40.300137 
L 217.221286 40.161825 
L 217.411213 40.013632 
L 217.728571 39.829216 
L 219.897108 38.419744 
L 220.197844 38.278139 
L 220.340567 38.205689 
L 221.130194 37.770993 
L 221.284883 37.678784 
L 222.245821 37.158465 
L 222.473867 37.000394 
L 222.996443 36.776459 
L 223.680136 36.493248 
L 224.134011 36.295658 
L 224.387986 36.160639 
L 224.59808 36.075017 
L 226.065195 35.446024 
L 226.528378 35.274779 
L 227.459397 34.882894 
L 227.760355 34.747874 
L 228.033389 34.612855 
L 228.717082 34.435024 
L 229.245199 34.267073 
L 229.687772 34.115588 
L 230.361049 33.891654 
L 230.483604 33.852136 
L 239.345464 31.431665 
L 240.679829 31.201144 
L 240.991868 31.125402 
L 241.813408 30.973916 
L 242.717833 30.776327 
L 244.554608 30.486529 
L 247.447838 30.002435 
L 247.564852 29.979383 
L 249.132139 29.758741 
L 250.050526 29.633601 
L 252.264495 29.327338 
L 252.490546 29.271354 
L 253.969406 29.080351 
L 255.153293 28.899227 
L 256.735206 28.727983 
L 257.28216 28.642361 
L 262.404651 28.16156 
L 262.760127 28.10887 
L 266.897967 27.753209 
L 267.856245 27.657707 
L 269.862336 27.506222 
L 272.458376 27.298753 
L 275.002113 27.130802 
L 275.208219 27.101164 
L 277.599261 26.956265 
L 277.770129 26.936506 
L 291.018042 26.291047 
L 294.702671 26.142855 
L 304.682597 25.754262 
L 304.750413 25.74109 
L 323.245809 25.197719 
L 323.245809 25.197719 
" clip-path="url(#pc68d4631e9)" style="fill: none; stroke-dasharray: 1.5,2.475; stroke-dashoffset: 0; stroke: #ff7f0e; stroke-width: 1.5"/>
   </g>
   <g id="line2d_32">
    <path d="M 190.138614 99.070792 
L 190.263829 99.064558 
L 192.184154 98.868639 
L 192.367875 98.808082 
L 193.284711 97.930007 
L 193.430979 97.645924 
L 193.499903 97.487407 
L 194.880143 91.482477 
L 194.991174 90.876017 
L 195.211906 89.529516 
L 195.322937 88.81352 
L 195.489816 87.683421 
L 195.735812 86.060852 
L 195.928177 84.828341 
L 196.039208 84.143513 
L 196.212514 82.987589 
L 196.323101 82.259125 
L 196.35856 82.026693 
L 196.469591 81.345428 
L 196.711599 79.913435 
L 197.099874 77.692421 
L 197.176776 77.289005 
L 197.287807 76.728854 
L 197.746557 74.42591 
L 197.857588 73.895147 
L 199.534797 67.612367 
L 199.58311 67.431587 
L 199.694141 67.071808 
L 199.877198 66.454661 
L 199.987785 66.102897 
L 200.06646 65.866903 
L 200.234668 65.410945 
L 200.369634 65.044932 
L 200.689651 64.218508 
L 200.824617 63.852495 
L 201.128456 63.08841 
L 201.221314 62.872008 
L 201.511191 62.164917 
L 201.627541 61.928923 
L 204.869377 55.663954 
L 205.005451 55.440428 
L 205.143741 55.225807 
L 206.154099 53.686949 
L 206.264909 53.520418 
L 206.355551 53.369025 
L 206.757788 52.807983 
L 206.868154 52.657482 
L 207.000904 52.484716 
L 207.319148 52.094659 
L 207.635398 51.698367 
L 207.968934 51.27714 
L 208.428127 50.71877 
L 208.734182 50.352757 
L 208.907267 50.163962 
L 209.016524 50.028599 
L 209.213765 49.830008 
L 209.425632 49.577985 
L 209.656559 49.338429 
L 209.767368 49.206628 
L 210.032867 48.921654 
L 210.217254 48.728407 
L 210.367733 48.580577 
L 211.232488 47.743466 
L 211.343297 47.614338 
L 211.964716 47.064873 
L 212.220464 46.7986 
L 212.446293 46.613367 
L 212.556216 46.510955 
L 212.900611 46.253588 
L 213.050203 46.107539 
L 213.35914 45.897371 
L 213.48236 45.804755 
L 213.654557 45.658706 
L 217.60247 43.148265 
L 218.871236 42.386851 
L 219.103714 42.259504 
L 219.464509 42.074271 
L 222.081824 40.714412 
L 222.37569 40.574597 
L 222.859261 40.338603 
L 222.984476 40.275374 
L 223.327541 40.115967 
L 223.48489 40.046505 
L 224.468434 39.569174 
L 224.679858 39.470324 
L 225.19645 39.226315 
L 225.428928 39.099858 
L 225.754264 38.947575 
L 226.073838 38.783715 
L 226.721851 38.467572 
L 226.919091 38.382971 
L 227.256395 38.226235 
L 227.892883 37.933247 
L 228.301991 37.738218 
L 229.0207 37.453244 
L 229.405873 37.294727 
L 232.807939 36.045296 
L 233.447752 35.885889 
L 233.582496 35.848486 
L 234.134769 35.682845 
L 236.640388 35.023843 
L 237.217261 34.890262 
L 240.520707 34.173375 
L 241.299696 34.03356 
L 248.385063 32.790362 
L 249.211256 32.654999 
L 251.124489 32.346872 
L 251.237293 32.329061 
L 262.24021 30.96653 
L 264.953264 30.697586 
L 265.630309 30.630796 
L 291.582726 28.736611 
L 302.810364 28.113231 
L 302.970816 28.103435 
L 306.162787 27.958277 
L 308.793399 27.847849 
L 313.989468 27.630557 
L 314.819429 27.594045 
L 320.063145 27.384767 
L 321.222653 27.34113 
L 323.150513 27.27523 
L 323.150513 27.27523 
" clip-path="url(#pc68d4631e9)" style="fill: none; stroke-dasharray: 5.55,2.4; stroke-dashoffset: 0; stroke: #2ca02c; stroke-width: 1.5"/>
   </g>
   <g id="line2d_33">
    <path d="M 190.138614 99.069688 
L 192.517246 98.897701 
L 192.917932 98.77 
L 193.224209 98.60499 
L 193.741245 98.116632 
L 193.968626 97.816945 
L 194.184926 97.469331 
L 194.720578 96.32609 
L 194.778642 96.177762 
L 195.587106 93.641034 
L 195.698137 93.228508 
L 196.015938 92.034914 
L 196.126969 91.607222 
L 196.203206 91.314814 
L 196.314237 90.895919 
L 196.381165 90.616251 
L 196.491975 90.182189 
L 196.534082 90.018999 
L 196.644891 89.584027 
L 196.686777 89.420837 
L 196.761241 89.130856 
L 196.872272 88.692851 
L 196.950725 88.39741 
L 198.321436 83.237504 
L 198.361327 83.097367 
L 198.988286 80.991666 
L 199.086906 80.668622 
L 199.197937 80.308573 
L 199.291238 79.993112 
L 199.548981 79.19991 
L 199.659568 78.86079 
L 199.770599 78.531376 
L 199.895814 78.172236 
L 200.006845 77.838273 
L 200.132281 77.478526 
L 200.243312 77.157302 
L 200.361656 76.807262 
L 200.706051 75.862397 
L 200.841903 75.488394 
L 200.952934 75.175663 
L 201.012771 75.026729 
L 202.235219 72.00407 
L 202.416946 71.567278 
L 202.527755 71.299743 
L 202.618619 71.103187 
L 202.72965 70.848392 
L 202.797687 70.695514 
L 203.387414 69.404249 
L 203.462321 69.248035 
L 203.560498 69.047232 
L 203.671529 68.833386 
L 203.988 68.212171 
L 204.098588 67.983462 
L 204.176819 67.826035 
L 204.616067 66.947295 
L 204.950268 66.301814 
L 205.061298 66.098281 
L 205.515616 65.288397 
L 205.840952 64.721477 
L 206.50337 63.626768 
L 206.791474 63.161464 
L 206.89497 62.992207 
L 207.006001 62.815367 
L 207.843719 61.480725 
L 208.107667 61.081546 
L 208.226454 60.905313 
L 208.40796 60.646574 
L 208.664373 60.267415 
L 208.762328 60.131221 
L 211.607688 56.424558 
L 211.779886 56.224058 
L 212.728192 55.113576 
L 212.908368 54.934612 
L 213.11137 54.702567 
L 213.711956 54.068612 
L 214.058124 53.697339 
L 214.168934 53.595421 
L 214.328499 53.423434 
L 214.835119 52.917787 
L 215.072473 52.687562 
L 215.542304 52.232267 
L 215.737328 52.048147 
L 215.848137 51.947139 
L 216.385562 51.445132 
L 216.496593 51.343517 
L 217.378413 50.605521 
L 217.734776 50.30553 
L 218.077177 50.027379 
L 218.188208 49.937897 
L 218.510219 49.685225 
L 218.932624 49.370674 
L 219.093298 49.253893 
L 219.326662 49.07493 
L 223.936549 46.054394 
L 224.204264 45.896057 
L 224.3543 45.808395 
L 225.379064 45.21903 
L 225.48943 45.162914 
L 225.812328 44.986681 
L 226.047466 44.852003 
L 226.333797 44.696093 
L 226.444163 44.641797 
L 229.767998 42.948016 
L 230.102198 42.784826 
L 230.309855 42.688671 
L 230.658461 42.523357 
L 231.203421 42.284638 
L 231.690317 42.076252 
L 234.488029 40.921484 
L 234.953871 40.738274 
L 235.366747 40.589947 
L 236.018305 40.349408 
L 236.206902 40.27843 
L 236.732803 40.08612 
L 237.558332 39.811609 
L 237.748703 39.739113 
L 238.359262 39.534064 
L 238.536778 39.477948 
L 239.988601 39.032967 
L 240.098967 39.000207 
L 249.385892 36.572676 
L 250.190146 36.40342 
L 261.991111 34.208238 
L 262.944957 34.060821 
L 263.873095 33.90582 
L 266.12474 33.577923 
L 267.120472 33.445369 
L 267.27361 33.423226 
L 271.355602 32.881786 
L 271.743656 32.825367 
L 274.023003 32.540846 
L 274.132039 32.524163 
L 283.248539 31.595981 
L 284.808734 31.443103 
L 284.945472 31.429454 
L 286.508548 31.29235 
L 288.680409 31.108836 
L 289.782297 31.006312 
L 309.081504 29.649831 
L 311.244279 29.516973 
L 315.129695 29.282501 
L 318.597582 29.076845 
L 321.796424 28.906678 
L 323.113724 28.837823 
L 323.113724 28.837823 
" clip-path="url(#pc68d4631e9)" style="fill: none; stroke-dasharray: 9.6,2.4,1.5,2.4; stroke-dashoffset: 0; stroke: #d62728; stroke-width: 1.5"/>
   </g>
   <g id="line2d_34">
    <path d="M 190.138614 99.073546 
L 190.406994 99.067501 
L 192.544727 98.919871 
L 193.29956 98.625034 
L 193.595864 98.360105 
L 193.706894 98.227853 
L 194.246314 97.259133 
L 194.357345 96.991447 
L 194.650989 96.189979 
L 194.76202 95.838932 
L 194.804128 95.69565 
L 194.899202 95.365072 
L 195.010233 94.97033 
L 195.143647 94.475047 
L 195.254678 94.020913 
L 195.410255 93.360606 
L 195.521285 92.879428 
L 195.60949 92.470687 
L 195.72052 91.948677 
L 195.806508 91.54439 
L 195.917539 91.005518 
L 196.029013 90.450737 
L 196.140044 89.889592 
L 196.177941 89.699751 
L 196.277891 89.172545 
L 196.388922 88.592522 
L 196.426819 88.402575 
L 196.53785 87.818523 
L 197.107188 84.875139 
L 197.218219 84.300526 
L 198.047072 80.187764 
L 198.107352 79.907139 
L 198.218383 79.384705 
L 198.342046 78.800865 
L 198.453077 78.287976 
L 198.484325 78.150315 
L 198.595356 77.66288 
L 198.742511 77.023041 
L 198.853542 76.561908 
L 198.901411 76.362734 
L 199.012442 75.888768 
L 199.048123 75.748562 
L 199.159154 75.285201 
L 199.267968 74.837325 
L 199.378999 74.393373 
L 199.416231 74.252954 
L 199.527262 73.819608 
L 199.876754 72.478843 
L 199.987785 72.069677 
L 200.599009 69.927656 
L 200.640674 69.784904 
L 200.751704 69.407873 
L 200.794698 69.264273 
L 200.905729 68.910999 
L 201.309518 67.657094 
L 201.420549 67.327365 
L 201.495456 67.102313 
L 201.606487 66.773963 
L 201.6548 66.627711 
L 201.765831 66.315163 
L 202.023795 65.58157 
L 202.134826 65.276658 
L 202.188014 65.128073 
L 202.34359 64.710847 
L 202.454621 64.416965 
L 202.944398 63.164545 
L 203.004014 63.01299 
L 203.115044 62.731411 
L 203.811148 61.070355 
L 204.048723 60.535089 
L 204.159754 60.291053 
L 204.232888 60.132923 
L 204.343919 59.886766 
L 204.814637 58.872867 
L 205.114487 58.2483 
L 205.493011 57.499012 
L 205.648366 57.196645 
L 205.759397 56.988669 
L 205.848931 56.823115 
L 205.959962 56.608668 
L 206.444198 55.719492 
L 206.555229 55.522969 
L 206.750475 55.182528 
L 207.041238 54.685336 
L 207.254879 54.327395 
L 207.36591 54.147736 
L 207.475168 53.972318 
L 207.709418 53.594333 
L 207.820449 53.415416 
L 208.472673 52.406608 
L 208.603871 52.220797 
L 208.714902 52.044849 
L 211.113701 48.795281 
L 211.265953 48.599289 
L 211.376983 48.457704 
L 211.933689 47.771094 
L 212.270106 47.366807 
L 212.449174 47.157982 
L 212.560205 47.027215 
L 212.742818 46.816693 
L 213.414101 46.047042 
L 213.541753 45.902275 
L 219.570442 40.285952 
L 219.963594 39.974782 
L 220.074624 39.888028 
L 220.852284 39.297188 
L 221.04066 39.154648 
L 221.323002 38.943596 
L 221.818097 38.583534 
L 221.929128 38.501235 
L 222.130358 38.35668 
L 222.751555 37.936272 
L 223.322222 37.543863 
L 224.018105 37.087715 
L 224.48306 36.796484 
L 225.747394 36.025666 
L 226.094449 35.828401 
L 226.20548 35.764343 
L 226.472752 35.609395 
L 226.583561 35.542367 
L 227.067354 35.271393 
L 228.842297 34.299068 
L 229.010062 34.217404 
L 229.421608 34.004761 
L 229.532639 33.946748 
L 234.246908 31.813848 
L 234.988222 31.522299 
L 235.099253 31.476058 
L 236.306631 31.021395 
L 236.846494 30.822857 
L 237.779508 30.499491 
L 239.266568 30.029449 
L 239.514116 29.94471 
L 239.898181 29.820518 
L 240.009212 29.783928 
L 240.706645 29.573194 
L 241.348896 29.38452 
L 241.992698 29.199558 
L 251.952899 26.930375 
L 253.099997 26.727489 
L 253.49891 26.659719 
L 254.905301 26.437425 
L 266.464259 25.166339 
L 269.293885 24.979998 
L 271.156145 24.869063 
L 303.018464 23.890798 
L 310.831625 23.746031 
L 319.4107 23.600204 
L 323.110178 23.543676 
L 323.110178 23.543676 
" clip-path="url(#pc68d4631e9)" style="fill: none; stroke: #9467bd; stroke-width: 1.5; stroke-linecap: square"/>
   </g>
   <g id="line2d_35">
    <path d="M 190.138614 99.073795 
L 192.503949 98.831403 
L 192.861198 98.617051 
L 193.863136 96.733628 
L 193.974166 96.352332 
L 194.473473 94.303994 
L 194.584504 93.763317 
L 194.648773 93.440866 
L 194.759804 92.852965 
L 194.856208 92.313395 
L 194.967239 91.663513 
L 195.01666 91.366149 
L 197.746779 73.934065 
L 198.147908 71.789804 
L 198.258939 71.210942 
L 198.493412 70.044179 
L 198.604442 69.508483 
L 198.934876 68.02222 
L 199.045907 67.516408 
L 199.091338 67.334153 
L 199.583553 65.309427 
L 199.694584 64.874082 
L 199.739129 64.692565 
L 199.85016 64.265889 
L 199.947229 63.888836 
L 200.05826 63.498316 
L 200.115659 63.3061 
L 200.22669 62.894551 
L 200.346807 62.478944 
L 200.457838 62.096171 
L 200.593247 61.655107 
L 201.061306 60.187476 
L 201.172336 59.857647 
L 201.240152 59.656761 
L 201.351183 59.329329 
L 204.497501 51.771472 
L 205.54487 49.812233 
L 205.961513 49.069932 
L 206.043955 48.931765 
L 206.215266 48.644732 
L 207.97115 45.937289 
L 208.221357 45.584585 
L 208.893526 44.68069 
L 209.010098 44.533115 
L 209.121128 44.376501 
L 209.672294 43.67423 
L 209.835848 43.485887 
L 209.946879 43.351225 
L 210.283518 42.926579 
L 210.394548 42.792471 
L 210.91513 42.2149 
L 211.089544 42.019732 
L 211.23958 41.862934 
L 211.350168 41.738049 
L 211.48336 41.596931 
L 211.594391 41.4809 
L 212.325732 40.728084 
L 212.490395 40.564645 
L 212.651955 40.404526 
L 212.951805 40.120998 
L 217.553492 36.435134 
L 218.014237 36.123198 
L 218.125046 36.049964 
L 218.689287 35.695047 
L 218.896279 35.56555 
L 219.208096 35.363742 
L 219.318684 35.292352 
L 219.675268 35.078184 
L 219.785856 35.009378 
L 220.113851 34.803142 
L 220.224882 34.738947 
L 221.106702 34.25195 
L 221.217733 34.195872 
L 221.409433 34.091832 
L 221.856659 33.852576 
L 221.96769 33.795944 
L 223.627613 32.984836 
L 223.738644 32.935399 
L 229.146136 30.805157 
L 232.138873 29.859572 
L 232.293341 29.816037 
L 233.00385 29.630462 
L 233.265138 29.557228 
L 234.443041 29.248612 
L 234.553628 29.222234 
L 236.052434 28.860122 
L 236.290453 28.806257 
L 238.39605 28.337154 
L 239.294935 28.157851 
L 239.840338 28.050859 
L 240.82366 27.857536 
L 241.363523 27.752204 
L 242.180408 27.608688 
L 242.655115 27.531211 
L 256.428264 25.732644 
L 259.969285 25.422921 
L 261.896923 25.269628 
L 271.997631 24.680067 
L 275.566797 24.536366 
L 295.251177 23.970232 
L 295.85819 23.956397 
L 323.130567 23.445235 
L 323.130567 23.445235 
" clip-path="url(#pc68d4631e9)" style="fill: none; stroke-dasharray: 1.5,2.475; stroke-dashoffset: 0; stroke: #8c564b; stroke-width: 1.5"/>
   </g>
   <g id="line2d_36">
    <path d="M 190.138614 99.072723 
L 191.365495 99.007029 
L 192.678584 98.747629 
L 192.78895 98.699033 
L 193.078163 98.52715 
L 193.188972 98.431534 
L 193.425439 98.187207 
L 193.536248 98.032646 
L 193.656809 97.847039 
L 193.76784 97.649057 
L 193.921421 97.334987 
L 194.285319 96.344855 
L 194.710605 94.693511 
L 194.821636 94.181909 
L 194.865295 93.979428 
L 194.976325 93.447803 
L 195.013779 93.252297 
L 195.790552 88.735622 
L 195.901583 88.029414 
L 195.959425 87.660673 
L 196.066689 86.977863 
L 196.17772 86.26108 
L 196.231573 85.900439 
L 196.342604 85.201655 
L 196.405322 84.823241 
L 196.516353 84.14268 
L 197.243483 79.877307 
L 197.354514 79.279763 
L 197.390416 79.085381 
L 197.501447 78.490537 
L 197.662785 77.643042 
L 197.773816 77.077896 
L 197.992997 76.055142 
L 198.104028 75.531841 
L 198.149016 75.32846 
L 198.260047 74.844306 
L 198.31102 74.634401 
L 198.42205 74.169145 
L 198.541503 73.675541 
L 198.652534 73.231658 
L 199.766388 69.17304 
L 199.837528 68.942887 
L 199.948559 68.58697 
L 200.015931 68.360417 
L 200.126962 68.002251 
L 200.396672 67.203576 
L 200.507702 66.89873 
L 200.596128 66.651253 
L 200.953821 65.663146 
L 201.04003 65.417469 
L 201.519391 64.193134 
L 201.736799 63.663984 
L 201.852705 63.388385 
L 201.963736 63.133034 
L 205.587199 56.027304 
L 205.864887 55.587245 
L 205.975918 55.401188 
L 206.086506 55.22053 
L 206.402091 54.742 
L 206.5129 54.584515 
L 206.813636 54.121058 
L 206.924667 53.969423 
L 207.282581 53.448147 
L 207.39339 53.301011 
L 207.536334 53.103929 
L 207.916632 52.583103 
L 208.347236 51.987809 
L 208.458046 51.844723 
L 208.624481 51.635943 
L 208.735291 51.482957 
L 209.357595 50.693056 
L 209.468405 50.554919 
L 209.584533 50.410933 
L 209.695564 50.277071 
L 209.869534 50.064241 
L 210.166946 49.711699 
L 215.231595 44.728193 
L 215.482688 44.525937 
L 216.206051 43.949542 
L 216.414151 43.782157 
L 216.945149 43.399694 
L 217.132195 43.267406 
L 217.242783 43.183489 
L 217.517147 42.999231 
L 218.02155 42.64534 
L 218.933954 42.057695 
L 219.184604 41.904709 
L 219.527005 41.703578 
L 219.919935 41.462401 
L 220.292032 41.253396 
L 220.634876 41.063514 
L 221.007195 40.854508 
L 221.117783 40.800513 
L 221.793055 40.454721 
L 221.960377 40.366079 
L 222.265989 40.215344 
L 225.449982 38.723284 
L 225.800361 38.572098 
L 228.969063 37.404908 
L 229.442883 37.239774 
L 229.693312 37.143258 
L 233.543934 35.957395 
L 234.121029 35.804184 
L 235.80267 35.352427 
L 238.480709 34.695489 
L 238.678392 34.652293 
L 246.903099 33.095214 
L 247.854729 32.935704 
L 248.203114 32.881035 
L 249.176906 32.738173 
L 249.359741 32.710276 
L 251.024096 32.468873 
L 252.869514 32.206998 
L 254.244657 32.02229 
L 255.196065 31.895177 
L 256.427599 31.752091 
L 262.603664 31.079179 
L 263.892598 30.949142 
L 265.792312 30.766684 
L 266.251727 30.728437 
L 269.959184 30.38197 
L 272.750026 30.139443 
L 274.616719 29.991182 
L 275.243013 29.946636 
L 278.698489 29.707259 
L 281.777878 29.498478 
L 282.372038 29.461357 
L 286.669 29.194532 
L 287.455524 29.147736 
L 290.904795 28.94458 
L 291.917148 28.885411 
L 296.073604 28.657058 
L 323.121481 27.436548 
L 323.121481 27.436548 
" clip-path="url(#pc68d4631e9)" style="fill: none; stroke-dasharray: 5.55,2.4; stroke-dashoffset: 0; stroke: #e377c2; stroke-width: 1.5"/>
   </g>
   <g id="line2d_37">
    <path d="M 190.138614 99.079698 
L 323.109735 99.079698 
" clip-path="url(#pc68d4631e9)" style="fill: none; stroke: #808080; stroke-opacity: 0.7; stroke-width: 0.5; stroke-linecap: square"/>
   </g>
   <g id="line2d_38">
    <path d="M 190.138614 79.67477 
L 323.109735 79.67477 
" clip-path="url(#pc68d4631e9)" style="fill: none; stroke: #808080; stroke-opacity: 0.7; stroke-width: 0.5; stroke-linecap: square"/>
   </g>
   <g id="line2d_39">
    <path d="M 190.138614 60.269842 
L 323.109735 60.269842 
" clip-path="url(#pc68d4631e9)" style="fill: none; stroke: #808080; stroke-opacity: 0.7; stroke-width: 0.5; stroke-linecap: square"/>
   </g>
   <g id="line2d_40">
    <path d="M 190.138614 40.864914 
L 323.109735 40.864914 
" clip-path="url(#pc68d4631e9)" style="fill: none; stroke: #808080; stroke-opacity: 0.7; stroke-width: 0.5; stroke-linecap: square"/>
   </g>
   <g id="line2d_41">
    <path d="M 190.138614 21.459986 
L 323.109735 21.459986 
" clip-path="url(#pc68d4631e9)" style="fill: none; stroke: #808080; stroke-opacity: 0.7; stroke-width: 0.5; stroke-linecap: square"/>
   </g>
   <g id="patch_8">
    <path d="M 190.138614 102.960683 
L 190.138614 17.579 
" style="fill: none; stroke: #000000; stroke-width: 0.8; stroke-linejoin: miter; stroke-linecap: square"/>
   </g>
   <g id="patch_9">
    <path d="M 323.109735 102.960683 
L 323.109735 17.579 
" style="fill: none; stroke: #000000; stroke-width: 0.8; stroke-linejoin: miter; stroke-linecap: square"/>
   </g>
   <g id="patch_10">
    <path d="M 190.138614 102.960683 
L 323.109735 102.960683 
" style="fill: none; stroke: #000000; stroke-width: 0.8; stroke-linejoin: miter; stroke-linecap: square"/>
   </g>
   <g id="patch_11">
    <path d="M 190.138614 17.579 
L 323.109735 17.579 
" style="fill: none; stroke: #000000; stroke-width: 0.8; stroke-linejoin: miter; stroke-linecap: square"/>
   </g>
  </g>
  <g id="legend_1">
   <g id="patch_12">
    <path d="M -0 14.108669 
L 322.65147 14.108669 
L 322.65147 0 
L -0 0 
z
" style="fill: #ffffff; opacity: 0.8; stroke: #000000; stroke-linejoin: miter"/>
   </g>
   <g id="line2d_42">
    <path d="M 3.332 6.2475 
L 7.497 6.2475 
L 11.662 6.2475 
" style="fill: none; stroke: #1f77b4; stroke-width: 1.5; stroke-linecap: square"/>
   </g>
   <g id="text_21">
    <!-- Dublin -->
    <g transform="translate(14.161 9.163) scale(0.0833 -0.0833)">
     <defs>
      <path id="CMR17-75" d="M 1882 2693 
L 1882 2528 
C 2259 2528 2317 2489 2317 2186 
L 2317 1032 
C 2317 500 2029 38 1555 38 
C 1030 38 986 348 986 678 
L 986 2763 
L 211 2693 
L 211 2528 
C 467 2528 640 2528 646 2274 
L 646 1058 
C 646 633 646 361 813 183 
C 896 101 1056 -64 1517 -64 
C 2061 -64 2272 377 2323 506 
L 2330 506 
L 2330 -63 
L 3091 -63 
L 3091 128 
C 2714 128 2656 166 2656 473 
L 2656 2763 
L 1882 2693 
z
" transform="scale(0.015625)"/>
     </defs>
     <use xlink:href="#CMR17-44" transform="scale(0.996264)"/>
     <use xlink:href="#CMR17-75" transform="translate(70.393556 0) scale(0.996264)"/>
     <use xlink:href="#CMR17-62" transform="translate(121.288926 0) scale(0.996264)"/>
     <use xlink:href="#CMR17-6c" transform="translate(172.184295 0) scale(0.996264)"/>
     <use xlink:href="#CMR17-69" transform="translate(197.055354 0) scale(0.996264)"/>
     <use xlink:href="#CMR17-6e" transform="translate(221.926412 0) scale(0.996264)"/>
    </g>
   </g>
   <g id="line2d_43">
    <path d="M 44.652264 6.2475 
L 48.817264 6.2475 
L 52.982264 6.2475 
" style="fill: none; stroke-dasharray: 1.5,2.475; stroke-dashoffset: 0; stroke: #ff7f0e; stroke-width: 1.5"/>
   </g>
   <g id="text_22">
    <!-- Lagos -->
    <g transform="translate(55.481264 9.163) scale(0.0833 -0.0833)">
     <defs>
      <path id="CMR17-4c" d="M 3469 1615 
L 3354 1615 
C 3302 983 3219 166 2125 166 
L 1530 166 
C 1274 166 1261 197 1261 414 
L 1261 3898 
C 1261 4129 1274 4192 1760 4192 
L 1901 4192 
L 1901 4352 
C 1638 4352 1331 4352 1069 4352 
C 870 4352 512 4352 326 4352 
L 326 4192 
C 768 4192 838 4192 838 3905 
L 838 452 
C 838 166 768 166 326 166 
L 326 0 
L 3315 0 
L 3469 1615 
z
" transform="scale(0.015625)"/>
      <path id="CMR17-67" d="M 710 1164 
C 832 1068 1043 960 1299 960 
C 1805 960 2240 1357 2240 1888 
C 2240 2054 2189 2310 1997 2509 
C 2176 2692 2438 2752 2586 2752 
C 2611 2752 2650 2752 2682 2734 
C 2656 2728 2598 2703 2598 2605 
C 2598 2527 2656 2471 2739 2471 
C 2835 2471 2886 2533 2886 2614 
C 2886 2731 2790 2854 2586 2854 
C 2330 2854 2106 2738 1926 2580 
C 1734 2753 1504 2816 1299 2816 
C 794 2816 358 2419 358 1888 
C 358 1522 570 1292 634 1228 
C 442 1004 442 743 442 711 
C 442 545 506 302 723 168 
C 390 85 128 -169 128 -486 
C 128 -943 736 -1280 1466 -1280 
C 2170 -1280 2803 -956 2803 -479 
C 2803 384 1856 384 1363 384 
C 1216 384 954 384 922 391 
C 723 423 589 602 589 826 
C 589 883 589 1024 710 1164 
z
M 1299 1068 
C 736 1068 736 1760 736 1889 
C 736 2016 736 2708 1299 2708 
C 1862 2708 1862 2016 1862 1889 
C 1862 1760 1862 1068 1299 1068 
z
M 1466 -1171 
C 826 -1171 384 -835 384 -486 
C 384 -289 493 -105 634 -4 
C 794 104 858 104 1293 104 
C 1818 104 2547 104 2547 -486 
C 2547 -835 2106 -1171 1466 -1171 
z
" transform="scale(0.015625)"/>
     </defs>
     <use xlink:href="#CMR17-4c" transform="scale(0.996264)"/>
     <use xlink:href="#CMR17-61" transform="translate(57.381408 0) scale(0.996264)"/>
     <use xlink:href="#CMR17-67" transform="translate(103.071885 0) scale(0.996264)"/>
     <use xlink:href="#CMR17-6f" transform="translate(148.762362 0) scale(0.996264)"/>
     <use xlink:href="#CMR17-73" transform="translate(194.452839 0) scale(0.996264)"/>
    </g>
   </g>
   <g id="line2d_44">
    <path d="M 81.857573 6.2475 
L 86.022573 6.2475 
L 90.187573 6.2475 
" style="fill: none; stroke-dasharray: 5.55,2.4; stroke-dashoffset: 0; stroke: #2ca02c; stroke-width: 1.5"/>
   </g>
   <g id="text_23">
    <!-- Manila -->
    <g transform="translate(92.686573 9.163) scale(0.0833 -0.0833)">
     <defs>
      <path id="CMR17-4d" d="M 1338 4224 
C 1299 4320 1293 4320 1158 4320 
L 339 4320 
L 339 4160 
C 781 4160 851 4160 851 3875 
L 851 610 
C 851 451 851 153 339 153 
L 339 -13 
C 486 0 755 0 915 0 
C 1075 0 1344 0 1491 -13 
L 1491 153 
C 979 153 979 451 979 610 
L 979 4135 
L 986 4135 
L 2490 89 
C 2515 25 2528 -13 2579 -13 
C 2630 -13 2643 25 2669 89 
L 4186 4166 
L 4192 4166 
L 4192 438 
C 4192 153 4122 153 3680 153 
L 3680 -13 
C 3853 0 4198 0 4384 0 
C 4570 0 4922 0 5094 -13 
L 5094 153 
C 4653 153 4582 153 4582 438 
L 4582 3875 
C 4582 4160 4653 4160 5094 4160 
L 5094 4320 
L 4282 4320 
C 4147 4320 4141 4314 4102 4218 
L 2720 502 
L 1338 4224 
z
" transform="scale(0.015625)"/>
     </defs>
     <use xlink:href="#CMR17-4d" transform="scale(0.996264)"/>
     <use xlink:href="#CMR17-61" transform="translate(84.686941 0) scale(0.996264)"/>
     <use xlink:href="#CMR17-6e" transform="translate(130.377418 0) scale(0.996264)"/>
     <use xlink:href="#CMR17-69" transform="translate(181.272787 0) scale(0.996264)"/>
     <use xlink:href="#CMR17-6c" transform="translate(206.143846 0) scale(0.996264)"/>
     <use xlink:href="#CMR17-61" transform="translate(231.014904 0) scale(0.996264)"/>
    </g>
   </g>
   <g id="line2d_45">
    <path d="M 123.540902 6.2475 
L 127.705902 6.2475 
L 131.870902 6.2475 
" style="fill: none; stroke-dasharray: 9.6,2.4,1.5,2.4; stroke-dashoffset: 0; stroke: #d62728; stroke-width: 1.5"/>
   </g>
   <g id="text_24">
    <!-- Mexico City -->
    <g transform="translate(134.369902 9.163) scale(0.0833 -0.0833)">
     <defs>
      <path id="CMR17-78" d="M 1664 1477 
C 1856 1726 2074 2006 2253 2216 
C 2464 2458 2707 2560 2989 2560 
L 2989 2726 
C 2880 2726 2656 2726 2541 2726 
C 2368 2726 2170 2726 2022 2732 
L 2022 2566 
C 2112 2553 2163 2489 2163 2400 
C 2163 2285 2099 2215 2067 2171 
L 1594 1573 
L 1030 2306 
C 973 2376 973 2388 973 2420 
C 973 2497 1037 2560 1146 2560 
L 1146 2732 
C 992 2726 717 2726 557 2726 
C 384 2726 179 2726 38 2732 
L 38 2560 
C 384 2560 461 2534 614 2343 
L 1350 1395 
C 1363 1382 1395 1344 1395 1325 
C 1395 1299 838 619 768 530 
C 480 185 179 160 6 160 
L 6 0 
C 115 0 339 0 454 0 
C 582 0 864 0 979 -6 
L 979 160 
C 941 166 838 179 838 325 
C 838 440 890 510 947 586 
L 1478 1236 
L 2035 512 
C 2086 442 2163 346 2163 301 
C 2163 211 2086 160 1984 160 
L 1984 -6 
C 2138 0 2413 0 2573 0 
C 2746 0 2950 0 3091 -6 
L 3091 160 
C 2771 160 2675 172 2522 370 
L 1664 1477 
z
" transform="scale(0.015625)"/>
      <path id="CMR17-43" d="M 3974 4289 
C 3974 4403 3968 4410 3930 4410 
C 3904 4410 3898 4403 3853 4327 
L 3571 3792 
C 3258 4187 2874 4416 2381 4416 
C 1286 4416 294 3456 294 2148 
C 294 826 1286 -128 2387 -128 
C 3366 -128 3974 730 3974 1461 
C 3974 1524 3974 1550 3917 1550 
C 3866 1550 3866 1531 3859 1474 
C 3808 585 3168 38 2477 38 
C 1824 38 781 495 781 2147 
C 781 3805 1843 4250 2464 4250 
C 3187 4250 3712 3628 3834 2745 
C 3846 2668 3846 2655 3904 2655 
C 3974 2655 3974 2668 3974 2783 
L 3974 4289 
z
" transform="scale(0.015625)"/>
      <path id="CMR17-79" d="M 2496 2197 
C 2656 2586 2944 2586 3034 2586 
L 3034 2752 
C 2912 2752 2752 2752 2630 2752 
C 2496 2752 2285 2752 2157 2758 
L 2157 2592 
C 2400 2573 2406 2394 2406 2343 
C 2406 2280 2394 2248 2362 2171 
L 1664 449 
L 902 2306 
C 870 2382 870 2426 870 2433 
C 870 2573 1018 2586 1171 2586 
L 1171 2758 
C 1018 2752 742 2752 582 2752 
C 410 2752 205 2752 64 2758 
L 64 2586 
C 410 2586 448 2554 531 2350 
L 1485 15 
C 1197 -738 1030 -1178 627 -1178 
C 557 -1178 397 -1159 282 -1044 
C 429 -1031 493 -942 493 -833 
C 493 -725 416 -629 288 -629 
C 147 -629 77 -725 77 -840 
C 77 -1095 339 -1280 627 -1280 
C 998 -1280 1229 -922 1357 -604 
L 2496 2197 
z
" transform="scale(0.015625)"/>
     </defs>
     <use xlink:href="#CMR17-4d" transform="scale(0.996264)"/>
     <use xlink:href="#CMR17-65" transform="translate(84.686941 0) scale(0.996264)"/>
     <use xlink:href="#CMR17-78" transform="translate(125.172601 0) scale(0.996264)"/>
     <use xlink:href="#CMR17-69" transform="translate(173.465517 0) scale(0.996264)"/>
     <use xlink:href="#CMR17-63" transform="translate(198.336575 0) scale(0.996264)"/>
     <use xlink:href="#CMR17-6f" transform="translate(238.822236 0) scale(0.996264)"/>
     <use xlink:href="#CMR17-43" transform="translate(314.588679 0) scale(0.996264)"/>
     <use xlink:href="#CMR17-69" transform="translate(381.09856 0) scale(0.996264)"/>
     <use xlink:href="#CMR17-74" transform="translate(405.969618 0) scale(0.996264)"/>
     <use xlink:href="#CMR17-79" transform="translate(438.647932 0) scale(0.996264)"/>
    </g>
   </g>
   <g id="line2d_46">
    <path d="M 185.553817 6.2475 
L 189.718817 6.2475 
L 193.883817 6.2475 
" style="fill: none; stroke: #9467bd; stroke-width: 1.5; stroke-linecap: square"/>
   </g>
   <g id="text_25">
    <!-- Seattle -->
    <g transform="translate(196.382817 9.163) scale(0.0833 -0.0833)">
     <defs>
      <path id="CMR17-53" d="M 2803 4290 
C 2803 4404 2797 4411 2758 4411 
C 2720 4411 2707 4385 2682 4328 
L 2490 3907 
C 2246 4257 1875 4416 1472 4416 
C 819 4416 294 3901 294 3253 
C 294 3056 339 2776 557 2510 
C 794 2218 1018 2167 1530 2033 
C 1722 1982 2042 1899 2106 1874 
C 2470 1722 2662 1341 2662 985 
C 2662 527 2336 38 1779 38 
C 1094 38 454 419 410 1311 
C 403 1413 397 1419 352 1419 
C 301 1419 294 1413 294 1285 
L 294 -1 
C 294 -115 301 -122 339 -122 
C 384 -122 397 -90 486 108 
C 493 127 493 140 614 381 
C 934 -39 1472 -128 1779 -128 
C 2477 -128 2970 451 2970 1124 
C 2970 1454 2848 1708 2778 1823 
C 2509 2230 2221 2306 1914 2382 
C 1869 2402 1856 2402 1498 2490 
C 1152 2579 1005 2624 845 2796 
C 666 2992 602 3196 602 3399 
C 602 3812 934 4263 1478 4263 
C 2157 4263 2579 3786 2675 2993 
C 2694 2878 2701 2872 2746 2872 
C 2803 2872 2803 2891 2803 2999 
L 2803 4290 
z
" transform="scale(0.015625)"/>
     </defs>
     <use xlink:href="#CMR17-53" transform="scale(0.996264)"/>
     <use xlink:href="#CMR17-65" transform="translate(50.89537 0) scale(0.996264)"/>
     <use xlink:href="#CMR17-61" transform="translate(91.38103 0) scale(0.996264)"/>
     <use xlink:href="#CMR17-74" transform="translate(137.071507 0) scale(0.996264)"/>
     <use xlink:href="#CMR17-74" transform="translate(172.352275 0) scale(0.996264)"/>
     <use xlink:href="#CMR17-6c" transform="translate(207.633043 0) scale(0.996264)"/>
     <use xlink:href="#CMR17-65" transform="translate(232.504101 0) scale(0.996264)"/>
    </g>
   </g>
   <g id="line2d_47">
    <path d="M 227.000834 6.2475 
L 231.165834 6.2475 
L 235.330834 6.2475 
" style="fill: none; stroke-dasharray: 1.5,2.475; stroke-dashoffset: 0; stroke: #8c564b; stroke-width: 1.5"/>
   </g>
   <g id="text_26">
    <!-- Sydney -->
    <g transform="translate(237.829834 9.163) scale(0.0833 -0.0833)">
     <use xlink:href="#CMR17-53" transform="scale(0.996264)"/>
     <use xlink:href="#CMR17-79" transform="translate(50.89537 0) scale(0.996264)"/>
     <use xlink:href="#CMR17-64" transform="translate(99.188286 0) scale(0.996264)"/>
     <use xlink:href="#CMR17-6e" transform="translate(150.083655 0) scale(0.996264)"/>
     <use xlink:href="#CMR17-65" transform="translate(200.979025 0) scale(0.996264)"/>
     <use xlink:href="#CMR17-79" transform="translate(241.464686 0) scale(0.996264)"/>
    </g>
   </g>
   <g id="line2d_48">
    <path d="M 269.917468 6.2475 
L 274.082468 6.2475 
L 278.247468 6.2475 
" style="fill: none; stroke-dasharray: 5.55,2.4; stroke-dashoffset: 0; stroke: #e377c2; stroke-width: 1.5"/>
   </g>
   <g id="text_27">
    <!-- So Paulo -->
    <g transform="translate(280.746468 9.163) scale(0.0833 -0.0833)">
     <defs>
      <path id="CMR17-7e" d="M 2400 4184 
C 2182 3980 2061 3865 1862 3865 
C 1722 3865 1626 3932 1491 4024 
C 1363 4111 1261 4184 1120 4184 
C 890 4184 730 4004 461 3718 
L 531 3648 
C 749 3850 870 3968 1069 3968 
C 1210 3968 1306 3900 1440 3808 
C 1568 3722 1670 3648 1811 3648 
C 2042 3648 2202 3828 2470 4114 
L 2400 4184 
z
" transform="scale(0.015625)"/>
     </defs>
     <use xlink:href="#CMR17-53" transform="scale(0.996264)"/>
     <use xlink:href="#CMR17-7e" transform="translate(50.89537 0) scale(0.996264)"/>
     <use xlink:href="#CMR17-61" transform="translate(50.89537 0) scale(0.996264)"/>
     <use xlink:href="#CMR17-6f" transform="translate(96.585847 0) scale(0.996264)"/>
     <use xlink:href="#CMR17-50" transform="translate(172.35229 0) scale(0.996264)"/>
     <use xlink:href="#CMR17-61" transform="translate(232.336137 0) scale(0.996264)"/>
     <use xlink:href="#CMR17-75" transform="translate(278.026614 0) scale(0.996264)"/>
     <use xlink:href="#CMR17-6c" transform="translate(328.921984 0) scale(0.996264)"/>
     <use xlink:href="#CMR17-6f" transform="translate(353.793042 0) scale(0.996264)"/>
    </g>
   </g>
  </g>
 </g>
 <defs>
  <clipPath id="p9e520366a0">
   <rect x="43.876826" y="17.579" width="132.971121" height="85.381683"/>
  </clipPath>
  <clipPath id="pc68d4631e9">
   <rect x="190.138614" y="17.579" width="132.971121" height="85.381683"/>
  </clipPath>
 </defs>
</svg>
