<?xml version="1.0" encoding="utf-8" standalone="no"?>
<!DOCTYPE svg PUBLIC "-//W3C//DTD SVG 1.1//EN"
  "http://www.w3.org/Graphics/SVG/1.1/DTD/svg11.dtd">
<svg xmlns:xlink="http://www.w3.org/1999/xlink" width="240.48pt" height="104.644815pt" viewBox="0 0 240.48 104.644815" xmlns="http://www.w3.org/2000/svg" version="1.1">
 <metadata>
  <rdf:RDF xmlns:dc="http://purl.org/dc/elements/1.1/" xmlns:cc="http://creativecommons.org/ns#" xmlns:rdf="http://www.w3.org/1999/02/22-rdf-syntax-ns#">
   <cc:Work>
    <dc:type rdf:resource="http://purl.org/dc/dcmitype/StillImage"/>
    <dc:date>2023-10-12T13:53:28.852479</dc:date>
    <dc:format>image/svg+xml</dc:format>
    <dc:creator>
     <cc:Agent>
      <dc:title>Matplotlib v3.7.0, https://matplotlib.org/</dc:title>
     </cc:Agent>
    </dc:creator>
   </cc:Work>
  </rdf:RDF>
 </metadata>
 <defs>
  <style type="text/css">*{stroke-linejoin: round; stroke-linecap: butt}</style>
 </defs>
 <g id="figure_1">
  <g id="patch_1">
   <path d="M 0 104.644815 
L 240.48 104.644815 
L 240.48 0 
L 0 0 
z
" style="fill: #ffffff"/>
  </g>
  <g id="axes_1">
   <g id="patch_2">
    <path d="M 42.437408 71.062871 
L 231.700515 71.062871 
L 231.700515 0.964815 
L 42.437408 0.964815 
z
" style="fill: #ffffff"/>
   </g>
   <g id="matplotlib.axis_1">
    <g id="xtick_1">
     <g id="line2d_1">
      <defs>
       <path id="mcf816dcd1e" d="M 0 0 
L 0 3.5 
" style="stroke: #000000; stroke-width: 0.8"/>
      </defs>
      <g>
       <use xlink:href="#mcf816dcd1e" x="57.379232" y="71.062871" style="stroke: #000000; stroke-width: 0.8"/>
      </g>
     </g>
     <g id="text_1">
      <!-- 25 -->
      <g transform="translate(51.526242 86.365051) scale(0.12 -0.12)">
       <defs>
        <path id="CMR17-32" d="M 2669 989 
L 2554 989 
C 2490 536 2438 459 2413 420 
C 2381 369 1920 369 1830 369 
L 602 369 
C 832 619 1280 1072 1824 1597 
C 2214 1967 2669 2402 2669 3035 
C 2669 3790 2067 4224 1395 4224 
C 691 4224 262 3604 262 3030 
C 262 2780 448 2748 525 2748 
C 589 2748 781 2787 781 3010 
C 781 3207 614 3264 525 3264 
C 486 3264 448 3258 422 3245 
C 544 3790 915 4058 1306 4058 
C 1862 4058 2227 3617 2227 3035 
C 2227 2479 1901 2000 1536 1584 
L 262 146 
L 262 0 
L 2515 0 
L 2669 989 
z
" transform="scale(0.015625)"/>
        <path id="CMR17-35" d="M 730 3692 
C 794 3666 1056 3584 1325 3584 
C 1920 3584 2246 3911 2432 4100 
C 2432 4157 2432 4192 2394 4192 
C 2387 4192 2374 4192 2323 4163 
C 2099 4058 1837 3973 1517 3973 
C 1325 3973 1037 3999 723 4139 
C 653 4171 640 4171 634 4171 
C 602 4171 595 4164 595 4037 
L 595 2203 
C 595 2089 595 2057 659 2057 
C 691 2057 704 2070 736 2114 
C 941 2401 1222 2522 1542 2522 
C 1766 2522 2246 2382 2246 1289 
C 2246 1085 2246 715 2054 421 
C 1894 159 1645 25 1370 25 
C 947 25 518 320 403 814 
C 429 807 480 795 506 795 
C 589 795 749 840 749 1038 
C 749 1210 627 1280 506 1280 
C 358 1280 262 1190 262 1011 
C 262 454 704 -128 1382 -128 
C 2042 -128 2669 440 2669 1264 
C 2669 2030 2170 2624 1549 2624 
C 1222 2624 947 2503 730 2274 
L 730 3692 
z
" transform="scale(0.015625)"/>
       </defs>
       <use xlink:href="#CMR17-32" transform="scale(0.996264)"/>
       <use xlink:href="#CMR17-35" transform="translate(45.690477 0) scale(0.996264)"/>
      </g>
     </g>
    </g>
    <g id="xtick_2">
     <g id="line2d_2">
      <g>
       <use xlink:href="#mcf816dcd1e" x="82.282272" y="71.062871" style="stroke: #000000; stroke-width: 0.8"/>
      </g>
     </g>
     <g id="text_2">
      <!-- 50 -->
      <g transform="translate(76.429282 86.365051) scale(0.12 -0.12)">
       <defs>
        <path id="CMR17-30" d="M 2688 2025 
C 2688 2416 2682 3080 2413 3591 
C 2176 4039 1798 4198 1466 4198 
C 1158 4198 768 4058 525 3597 
C 269 3118 243 2524 243 2025 
C 243 1661 250 1106 448 619 
C 723 -39 1216 -128 1466 -128 
C 1760 -128 2208 -7 2470 600 
C 2662 1042 2688 1559 2688 2025 
z
M 1466 -26 
C 1056 -26 813 325 723 812 
C 653 1188 653 1738 653 2096 
C 653 2588 653 2997 736 3387 
C 858 3929 1216 4096 1466 4096 
C 1728 4096 2067 3923 2189 3400 
C 2272 3036 2278 2607 2278 2096 
C 2278 1680 2278 1169 2202 792 
C 2067 95 1690 -26 1466 -26 
z
" transform="scale(0.015625)"/>
       </defs>
       <use xlink:href="#CMR17-35" transform="scale(0.996264)"/>
       <use xlink:href="#CMR17-30" transform="translate(45.690477 0) scale(0.996264)"/>
      </g>
     </g>
    </g>
    <g id="xtick_3">
     <g id="line2d_3">
      <g>
       <use xlink:href="#mcf816dcd1e" x="107.185313" y="71.062871" style="stroke: #000000; stroke-width: 0.8"/>
      </g>
     </g>
     <g id="text_3">
      <!-- 75 -->
      <g transform="translate(101.332322 86.365051) scale(0.12 -0.12)">
       <defs>
        <path id="CMR17-37" d="M 2886 3941 
L 2886 4081 
L 1382 4081 
C 634 4081 621 4165 595 4288 
L 480 4288 
L 294 3094 
L 410 3094 
C 429 3215 474 3540 550 3661 
C 589 3712 1062 3712 1171 3712 
L 2579 3712 
L 1869 2661 
C 1395 1954 1069 999 1069 165 
C 1069 89 1069 -128 1299 -128 
C 1530 -128 1530 89 1530 171 
L 1530 465 
C 1530 1508 1709 2196 2003 2636 
L 2886 3941 
z
" transform="scale(0.015625)"/>
       </defs>
       <use xlink:href="#CMR17-37" transform="scale(0.996264)"/>
       <use xlink:href="#CMR17-35" transform="translate(45.690477 0) scale(0.996264)"/>
      </g>
     </g>
    </g>
    <g id="xtick_4">
     <g id="line2d_4">
      <g>
       <use xlink:href="#mcf816dcd1e" x="132.088353" y="71.062871" style="stroke: #000000; stroke-width: 0.8"/>
      </g>
     </g>
     <g id="text_4">
      <!-- 100 -->
      <g transform="translate(123.308868 86.365051) scale(0.12 -0.12)">
       <defs>
        <path id="CMR17-31" d="M 1702 4058 
C 1702 4192 1696 4192 1606 4192 
C 1357 3916 979 3827 621 3827 
C 602 3827 570 3827 563 3808 
C 557 3795 557 3782 557 3648 
C 755 3648 1088 3686 1344 3839 
L 1344 461 
C 1344 236 1331 160 781 160 
L 589 160 
L 589 0 
C 896 0 1216 0 1523 0 
C 1830 0 2150 0 2458 0 
L 2458 160 
L 2266 160 
C 1715 160 1702 230 1702 458 
L 1702 4058 
z
" transform="scale(0.015625)"/>
       </defs>
       <use xlink:href="#CMR17-31" transform="scale(0.996264)"/>
       <use xlink:href="#CMR17-30" transform="translate(45.690477 0) scale(0.996264)"/>
       <use xlink:href="#CMR17-30" transform="translate(91.380954 0) scale(0.996264)"/>
      </g>
     </g>
    </g>
    <g id="xtick_5">
     <g id="line2d_5">
      <g>
       <use xlink:href="#mcf816dcd1e" x="156.991393" y="71.062871" style="stroke: #000000; stroke-width: 0.8"/>
      </g>
     </g>
     <g id="text_5">
      <!-- 125 -->
      <g transform="translate(148.211908 86.365051) scale(0.12 -0.12)">
       <use xlink:href="#CMR17-31" transform="scale(0.996264)"/>
       <use xlink:href="#CMR17-32" transform="translate(45.690477 0) scale(0.996264)"/>
       <use xlink:href="#CMR17-35" transform="translate(91.380954 0) scale(0.996264)"/>
      </g>
     </g>
    </g>
    <g id="xtick_6">
     <g id="line2d_6">
      <g>
       <use xlink:href="#mcf816dcd1e" x="181.894434" y="71.062871" style="stroke: #000000; stroke-width: 0.8"/>
      </g>
     </g>
     <g id="text_6">
      <!-- 150 -->
      <g transform="translate(173.114948 86.365051) scale(0.12 -0.12)">
       <use xlink:href="#CMR17-31" transform="scale(0.996264)"/>
       <use xlink:href="#CMR17-35" transform="translate(45.690477 0) scale(0.996264)"/>
       <use xlink:href="#CMR17-30" transform="translate(91.380954 0) scale(0.996264)"/>
      </g>
     </g>
    </g>
    <g id="xtick_7">
     <g id="line2d_7">
      <g>
       <use xlink:href="#mcf816dcd1e" x="206.797474" y="71.062871" style="stroke: #000000; stroke-width: 0.8"/>
      </g>
     </g>
     <g id="text_7">
      <!-- 175 -->
      <g transform="translate(198.017989 86.365051) scale(0.12 -0.12)">
       <use xlink:href="#CMR17-31" transform="scale(0.996264)"/>
       <use xlink:href="#CMR17-37" transform="translate(45.690477 0) scale(0.996264)"/>
       <use xlink:href="#CMR17-35" transform="translate(91.380954 0) scale(0.996264)"/>
      </g>
     </g>
    </g>
    <g id="xtick_8">
     <g id="line2d_8">
      <g>
       <use xlink:href="#mcf816dcd1e" x="231.700515" y="71.062871" style="stroke: #000000; stroke-width: 0.8"/>
      </g>
     </g>
     <g id="text_8">
      <!-- 200 -->
      <g transform="translate(222.921029 86.365051) scale(0.12 -0.12)">
       <use xlink:href="#CMR17-32" transform="scale(0.996264)"/>
       <use xlink:href="#CMR17-30" transform="translate(45.690477 0) scale(0.996264)"/>
       <use xlink:href="#CMR17-30" transform="translate(91.380954 0) scale(0.996264)"/>
      </g>
     </g>
    </g>
    <g id="text_9">
     <!-- RTT [ms] -->
     <g transform="translate(112.406144 101.656023) scale(0.12 -0.12)">
      <defs>
       <path id="CMR17-52" d="M 2509 2146 
C 3117 2268 3629 2676 3629 3186 
C 3629 3785 2950 4326 2054 4326 
L 333 4326 
L 333 4160 
C 774 4160 845 4160 845 3873 
L 845 415 
C 845 128 774 128 333 128 
L 333 -26 
C 518 -26 851 -26 1050 -26 
C 1248 -26 1581 -26 1766 -26 
L 1766 128 
C 1325 128 1254 128 1254 417 
L 1254 2112 
L 2003 2112 
C 2368 2112 2573 1964 2662 1881 
C 2918 1632 2918 1459 2918 1024 
C 2918 595 2918 377 3110 160 
C 3354 -102 3680 -128 3821 -128 
C 4294 -128 4365 396 4365 503 
C 4365 540 4365 585 4307 585 
C 4256 585 4250 547 4250 522 
C 4218 112 4032 -26 3834 -26 
C 3482 -26 3443 375 3405 764 
C 3386 898 3373 993 3360 1133 
C 3322 1452 3270 1917 2509 2146 
z
M 1984 2214 
L 1254 2214 
L 1254 3913 
C 1254 4129 1267 4160 1523 4160 
L 1990 4160 
C 2522 4160 3142 3977 3142 3190 
C 3142 2372 2464 2214 1984 2214 
z
" transform="scale(0.015625)"/>
       <path id="CMR17-54" d="M 3981 4326 
L 288 4326 
L 179 2918 
L 294 2918 
C 378 3976 467 4160 1453 4160 
C 1568 4160 1754 4160 1805 4154 
C 1926 4135 1926 4058 1926 3912 
L 1926 459 
C 1926 230 1907 160 1376 160 
L 1197 160 
L 1197 0 
C 1504 0 1824 0 2138 0 
C 2451 0 2771 0 3078 0 
L 3078 160 
L 2899 160 
C 2368 160 2349 230 2349 459 
L 2349 3912 
C 2349 4052 2349 4129 2464 4154 
C 2515 4160 2701 4160 2816 4160 
C 3795 4160 3891 3976 3974 2918 
L 4090 2918 
L 3981 4326 
z
" transform="scale(0.015625)"/>
       <path id="CMR17-5b" d="M 1504 -1600 
L 1504 -1377 
L 902 -1377 
L 902 4544 
L 1504 4544 
L 1504 4767 
L 678 4767 
L 678 -1600 
L 1504 -1600 
z
" transform="scale(0.015625)"/>
       <path id="CMR17-6d" d="M 4326 1933 
C 4326 2252 4269 2790 3507 2790 
C 3072 2790 2771 2496 2656 2151 
L 2650 2151 
C 2573 2676 2195 2790 1837 2790 
C 1331 2790 1069 2400 973 2144 
L 966 2144 
L 966 2790 
L 211 2720 
L 211 2554 
C 589 2554 646 2515 646 2208 
L 646 428 
C 646 184 621 153 211 153 
L 211 -13 
C 365 0 646 0 813 0 
C 979 0 1267 0 1421 -13 
L 1421 153 
C 1011 153 986 178 986 428 
L 986 1658 
C 986 2247 1344 2688 1792 2688 
C 2266 2688 2317 2266 2317 1958 
L 2317 428 
C 2317 184 2291 153 1882 153 
L 1882 -13 
C 2035 0 2317 0 2483 0 
C 2650 0 2938 0 3091 -13 
L 3091 153 
C 2682 153 2656 178 2656 428 
L 2656 1658 
C 2656 2247 3014 2688 3462 2688 
C 3936 2688 3987 2266 3987 1958 
L 3987 428 
C 3987 184 3962 153 3552 153 
L 3552 -13 
C 3706 0 3987 0 4154 0 
C 4320 0 4608 0 4762 -13 
L 4762 153 
C 4352 153 4326 178 4326 428 
L 4326 1933 
z
" transform="scale(0.015625)"/>
       <path id="CMR17-73" d="M 1978 2697 
C 1978 2813 1971 2819 1933 2819 
C 1907 2819 1901 2813 1824 2717 
C 1805 2691 1747 2626 1728 2601 
C 1523 2819 1235 2819 1126 2819 
C 416 2819 160 2447 160 2076 
C 160 1498 813 1365 998 1325 
C 1402 1243 1542 1217 1677 1101 
C 1760 1025 1901 884 1901 654 
C 1901 384 1747 38 1158 38 
C 602 38 403 460 288 1021 
C 269 1110 269 1117 218 1117 
C 166 1117 160 1110 160 983 
L 160 63 
C 160 -51 166 -58 205 -58 
C 237 -58 243 -51 275 0 
C 314 57 410 211 448 276 
C 576 103 800 -64 1158 -64 
C 1792 -64 2131 283 2131 784 
C 2131 1112 1958 1285 1875 1362 
C 1683 1561 1459 1606 1190 1657 
C 838 1735 390 1825 390 2217 
C 390 2383 480 2737 1126 2737 
C 1811 2737 1850 2094 1862 1888 
C 1869 1856 1901 1849 1920 1849 
C 1978 1849 1978 1869 1978 1978 
L 1978 2697 
z
" transform="scale(0.015625)"/>
       <path id="CMR17-5d" d="M 915 4767 
L 90 4767 
L 90 4544 
L 691 4544 
L 691 -1377 
L 90 -1377 
L 90 -1600 
L 915 -1600 
L 915 4767 
z
" transform="scale(0.015625)"/>
      </defs>
      <use xlink:href="#CMR17-52" transform="scale(0.996264)"/>
      <use xlink:href="#CMR17-54" transform="translate(59.983847 0) scale(0.996264)"/>
      <use xlink:href="#CMR17-54" transform="translate(126.493727 0) scale(0.996264)"/>
      <use xlink:href="#CMR17-5b" transform="translate(223.079574 0) scale(0.996264)"/>
      <use xlink:href="#CMR17-6d" transform="translate(247.950633 0) scale(0.996264)"/>
      <use xlink:href="#CMR17-73" transform="translate(324.870222 0) scale(0.996264)"/>
      <use xlink:href="#CMR17-5d" transform="translate(360.67156 0) scale(0.996264)"/>
     </g>
    </g>
   </g>
   <g id="matplotlib.axis_2">
    <g id="ytick_1">
     <g id="line2d_9">
      <path d="M 42.437408 67.876596 
L 231.700515 67.876596 
" clip-path="url(#pd96a72eb52)" style="fill: none; stroke: #b0b0b0; stroke-opacity: 0.7; stroke-width: 0.5; stroke-linecap: square"/>
     </g>
     <g id="line2d_10">
      <defs>
       <path id="m5f7e923dc8" d="M 0 0 
L -3.5 0 
" style="stroke: #000000; stroke-width: 0.8"/>
      </defs>
      <g>
       <use xlink:href="#m5f7e923dc8" x="42.437408" y="67.876596" style="stroke: #000000; stroke-width: 0.8"/>
      </g>
     </g>
     <g id="text_10">
      <!-- 0.00 -->
      <g transform="translate(14.626776 72.027686) scale(0.12 -0.12)">
       <defs>
        <path id="CMR17-2e" d="M 1062 261 
C 1062 420 934 522 800 522 
C 672 522 538 420 538 261 
C 538 102 666 0 800 0 
C 928 0 1062 102 1062 261 
z
" transform="scale(0.015625)"/>
       </defs>
       <use xlink:href="#CMR17-30" transform="scale(0.996264)"/>
       <use xlink:href="#CMR17-2e" transform="translate(45.690477 0) scale(0.996264)"/>
       <use xlink:href="#CMR17-30" transform="translate(70.561536 0) scale(0.996264)"/>
       <use xlink:href="#CMR17-30" transform="translate(116.252013 0) scale(0.996264)"/>
      </g>
     </g>
    </g>
    <g id="ytick_2">
     <g id="line2d_11">
      <path d="M 42.437408 51.945219 
L 231.700515 51.945219 
" clip-path="url(#pd96a72eb52)" style="fill: none; stroke: #b0b0b0; stroke-opacity: 0.7; stroke-width: 0.5; stroke-linecap: square"/>
     </g>
     <g id="line2d_12">
      <g>
       <use xlink:href="#m5f7e923dc8" x="42.437408" y="51.945219" style="stroke: #000000; stroke-width: 0.8"/>
      </g>
     </g>
     <g id="text_11">
      <!-- 0.25 -->
      <g transform="translate(14.626776 56.096309) scale(0.12 -0.12)">
       <use xlink:href="#CMR17-30" transform="scale(0.996264)"/>
       <use xlink:href="#CMR17-2e" transform="translate(45.690477 0) scale(0.996264)"/>
       <use xlink:href="#CMR17-32" transform="translate(70.561536 0) scale(0.996264)"/>
       <use xlink:href="#CMR17-35" transform="translate(116.252013 0) scale(0.996264)"/>
      </g>
     </g>
    </g>
    <g id="ytick_3">
     <g id="line2d_13">
      <path d="M 42.437408 36.013843 
L 231.700515 36.013843 
" clip-path="url(#pd96a72eb52)" style="fill: none; stroke: #b0b0b0; stroke-opacity: 0.7; stroke-width: 0.5; stroke-linecap: square"/>
     </g>
     <g id="line2d_14">
      <g>
       <use xlink:href="#m5f7e923dc8" x="42.437408" y="36.013843" style="stroke: #000000; stroke-width: 0.8"/>
      </g>
     </g>
     <g id="text_12">
      <!-- 0.50 -->
      <g transform="translate(14.626776 40.164933) scale(0.12 -0.12)">
       <use xlink:href="#CMR17-30" transform="scale(0.996264)"/>
       <use xlink:href="#CMR17-2e" transform="translate(45.690477 0) scale(0.996264)"/>
       <use xlink:href="#CMR17-35" transform="translate(70.561536 0) scale(0.996264)"/>
       <use xlink:href="#CMR17-30" transform="translate(116.252013 0) scale(0.996264)"/>
      </g>
     </g>
    </g>
    <g id="ytick_4">
     <g id="line2d_15">
      <path d="M 42.437408 20.082466 
L 231.700515 20.082466 
" clip-path="url(#pd96a72eb52)" style="fill: none; stroke: #b0b0b0; stroke-opacity: 0.7; stroke-width: 0.5; stroke-linecap: square"/>
     </g>
     <g id="line2d_16">
      <g>
       <use xlink:href="#m5f7e923dc8" x="42.437408" y="20.082466" style="stroke: #000000; stroke-width: 0.8"/>
      </g>
     </g>
     <g id="text_13">
      <!-- 0.75 -->
      <g transform="translate(14.626776 24.233556) scale(0.12 -0.12)">
       <use xlink:href="#CMR17-30" transform="scale(0.996264)"/>
       <use xlink:href="#CMR17-2e" transform="translate(45.690477 0) scale(0.996264)"/>
       <use xlink:href="#CMR17-37" transform="translate(70.561536 0) scale(0.996264)"/>
       <use xlink:href="#CMR17-35" transform="translate(116.252013 0) scale(0.996264)"/>
      </g>
     </g>
    </g>
    <g id="ytick_5">
     <g id="line2d_17">
      <path d="M 42.437408 4.15109 
L 231.700515 4.15109 
" clip-path="url(#pd96a72eb52)" style="fill: none; stroke: #b0b0b0; stroke-opacity: 0.7; stroke-width: 0.5; stroke-linecap: square"/>
     </g>
     <g id="line2d_18">
      <g>
       <use xlink:href="#m5f7e923dc8" x="42.437408" y="4.15109" style="stroke: #000000; stroke-width: 0.8"/>
      </g>
     </g>
     <g id="text_14">
      <!-- 1.00 -->
      <g transform="translate(14.626776 8.30218) scale(0.12 -0.12)">
       <use xlink:href="#CMR17-31" transform="scale(0.996264)"/>
       <use xlink:href="#CMR17-2e" transform="translate(45.690477 0) scale(0.996264)"/>
       <use xlink:href="#CMR17-30" transform="translate(70.561536 0) scale(0.996264)"/>
       <use xlink:href="#CMR17-30" transform="translate(116.252013 0) scale(0.996264)"/>
      </g>
     </g>
    </g>
    <g id="text_15">
     <!-- Percentile -->
     <g transform="translate(8.30218 61.131892) rotate(-90) scale(0.12 -0.12)">
      <defs>
       <path id="CMR17-50" d="M 1267 2042 
L 2291 2042 
C 3117 2042 3718 2578 3718 3184 
C 3718 3791 3130 4352 2291 4352 
L 333 4352 
L 333 4186 
C 774 4186 845 4186 845 3899 
L 845 446 
C 845 160 774 160 333 160 
L 333 0 
C 518 0 858 0 1056 0 
C 1254 0 1594 0 1779 0 
L 1779 160 
C 1338 160 1267 160 1267 446 
L 1267 2042 
z
M 1254 2176 
L 1254 3938 
C 1254 4155 1267 4186 1523 4186 
L 2170 4186 
C 2995 4186 3232 3714 3232 3184 
C 3232 2604 2950 2176 2170 2176 
L 1254 2176 
z
" transform="scale(0.015625)"/>
       <path id="CMR17-65" d="M 2438 1472 
C 2464 1498 2464 1511 2464 1576 
C 2464 2238 2118 2816 1389 2816 
C 710 2816 173 2169 173 1383 
C 173 551 781 -64 1459 -64 
C 2176 -64 2458 607 2458 740 
C 2458 784 2419 784 2406 784 
C 2362 784 2355 771 2330 696 
C 2189 265 1837 51 1504 51 
C 1229 51 954 203 781 480 
C 582 803 582 1176 582 1472 
L 2438 1472 
z
M 589 1568 
C 634 2505 1126 2714 1382 2714 
C 1818 2714 2112 2297 2118 1568 
L 589 1568 
z
" transform="scale(0.015625)"/>
       <path id="CMR17-72" d="M 960 1497 
C 960 2112 1222 2688 1702 2688 
C 1747 2688 1792 2682 1837 2662 
C 1837 2662 1696 2617 1696 2452 
C 1696 2298 1818 2234 1914 2234 
C 1990 2234 2131 2279 2131 2458 
C 2131 2663 1926 2790 1709 2790 
C 1222 2790 1011 2317 947 2093 
L 941 2093 
L 941 2790 
L 198 2720 
L 198 2554 
C 576 2554 634 2515 634 2208 
L 634 428 
C 634 184 608 153 198 153 
L 198 -13 
C 352 0 646 0 813 0 
C 998 0 1325 0 1498 -13 
L 1498 153 
C 1037 153 960 153 960 440 
L 960 1497 
z
" transform="scale(0.015625)"/>
       <path id="CMR17-63" d="M 2234 2240 
C 2112 2240 1933 2240 1933 2017 
C 1933 1838 2080 1787 2163 1787 
C 2208 1787 2394 1807 2394 2024 
C 2394 2467 1958 2803 1466 2803 
C 787 2803 211 2178 211 1363 
C 211 516 813 -64 1466 -64 
C 2259 -64 2458 677 2458 748 
C 2458 774 2451 793 2406 793 
C 2362 793 2355 787 2330 703 
C 2163 180 1798 51 1523 51 
C 1114 51 621 427 621 1369 
C 621 2338 1094 2688 1472 2688 
C 1722 2688 2093 2573 2234 2240 
z
" transform="scale(0.015625)"/>
       <path id="CMR17-6e" d="M 2656 1933 
C 2656 2259 2592 2790 1837 2790 
C 1331 2790 1069 2400 973 2144 
L 966 2144 
L 966 2790 
L 211 2720 
L 211 2554 
C 589 2554 646 2515 646 2208 
L 646 428 
C 646 184 621 153 211 153 
L 211 -13 
C 365 0 646 0 813 0 
C 979 0 1267 0 1421 -13 
L 1421 153 
C 1011 153 986 178 986 428 
L 986 1658 
C 986 2247 1344 2688 1792 2688 
C 2266 2688 2317 2266 2317 1958 
L 2317 428 
C 2317 184 2291 153 1882 153 
L 1882 -13 
C 2035 0 2317 0 2483 0 
C 2650 0 2938 0 3091 -13 
L 3091 153 
C 2682 153 2656 178 2656 428 
L 2656 1933 
z
" transform="scale(0.015625)"/>
       <path id="CMR17-74" d="M 966 2560 
L 1862 2560 
L 1862 2725 
L 966 2725 
L 966 3904 
L 851 3904 
C 838 3245 614 2668 70 2668 
L 70 2560 
L 627 2560 
L 627 771 
C 627 650 627 -64 1370 -64 
C 1747 -64 1965 306 1965 777 
L 1965 1140 
L 1850 1140 
L 1850 783 
C 1850 344 1677 51 1408 51 
C 1222 51 966 178 966 758 
L 966 2560 
z
" transform="scale(0.015625)"/>
       <path id="CMR17-69" d="M 992 3909 
C 992 4049 877 4170 730 4170 
C 589 4170 467 4056 467 3909 
C 467 3769 582 3648 730 3648 
C 870 3648 992 3763 992 3909 
z
M 243 2706 
L 243 2541 
C 602 2541 653 2502 653 2197 
L 653 427 
C 653 184 627 153 218 153 
L 218 -13 
C 371 0 646 0 806 0 
C 960 0 1222 0 1370 -13 
L 1370 153 
C 992 153 979 191 979 420 
L 979 2776 
L 243 2706 
z
" transform="scale(0.015625)"/>
       <path id="CMR17-6c" d="M 979 4396 
L 218 4326 
L 218 4160 
C 595 4160 653 4122 653 3817 
L 653 426 
C 653 184 627 153 218 153 
L 218 -13 
C 371 0 653 0 813 0 
C 979 0 1261 0 1414 -13 
L 1414 153 
C 1005 153 979 178 979 426 
L 979 4396 
z
" transform="scale(0.015625)"/>
      </defs>
      <use xlink:href="#CMR17-50" transform="scale(0.996264)"/>
      <use xlink:href="#CMR17-65" transform="translate(59.983847 0) scale(0.996264)"/>
      <use xlink:href="#CMR17-72" transform="translate(100.469507 0) scale(0.996264)"/>
      <use xlink:href="#CMR17-63" transform="translate(135.750275 0) scale(0.996264)"/>
      <use xlink:href="#CMR17-65" transform="translate(176.235935 0) scale(0.996264)"/>
      <use xlink:href="#CMR17-6e" transform="translate(216.721596 0) scale(0.996264)"/>
      <use xlink:href="#CMR17-74" transform="translate(265.014512 0) scale(0.996264)"/>
      <use xlink:href="#CMR17-69" transform="translate(300.295279 0) scale(0.996264)"/>
      <use xlink:href="#CMR17-6c" transform="translate(325.166338 0) scale(0.996264)"/>
      <use xlink:href="#CMR17-65" transform="translate(350.037396 0) scale(0.996264)"/>
     </g>
    </g>
   </g>
   <g id="line2d_19">
    <path d="M 46.184817 67.874912 
L 49.747944 67.755348 
L 50.031839 67.704829 
L 50.395423 67.593686 
L 50.550818 67.514538 
L 50.908426 67.362979 
L 51.10765 67.240048 
L 51.396525 67.056493 
L 51.701339 66.758427 
L 51.963319 66.509197 
L 52.796076 65.318617 
L 53.138742 64.998659 
L 54.138848 63.521801 
L 54.290259 63.353402 
L 55.832255 60.531036 
L 56.04144 60.044364 
L 56.293459 59.40108 
L 56.544482 58.461414 
L 57.700979 56.289068 
L 57.853386 55.943851 
L 58.374357 54.882938 
L 58.485923 54.522564 
L 58.996933 53.443127 
L 59.155317 52.964874 
L 59.250944 52.804896 
L 59.582653 52.266019 
L 59.745021 52.047101 
L 61.277056 49.670992 
L 61.375672 49.511013 
L 62.021159 48.637023 
L 62.358844 48.248022 
L 62.472402 48.054363 
L 63.113904 47.183741 
L 63.22547 47.028814 
L 63.439636 46.692016 
L 63.796247 46.245759 
L 64.943779 44.521354 
L 65.225682 44.282228 
L 65.612177 43.810711 
L 65.96082 43.43855 
L 66.141118 43.298779 
L 66.60033 42.913145 
L 66.752736 42.78853 
L 67.059542 42.485412 
L 67.338456 42.256389 
L 67.448029 42.081255 
L 67.962028 41.624894 
L 68.116427 41.48849 
L 68.28776 41.26452 
L 69.582718 40.025104 
L 69.730144 39.846601 
L 70.578839 39.270677 
L 70.850781 39.10733 
L 71.096823 38.906936 
L 71.606837 38.571822 
L 72.317072 37.965586 
L 72.439595 37.844339 
L 72.834059 37.652364 
L 73.254422 37.482281 
L 73.42177 37.414921 
L 74.108098 37.155587 
L 77.863477 36.000371 
L 78.49701 35.830288 
L 78.833699 35.756192 
L 79.617647 35.597898 
L 79.847751 35.540642 
L 80.36175 35.362139 
L 80.576912 35.325091 
L 81.128763 35.234156 
L 82.096994 35.067441 
L 82.284264 35.037129 
L 83.804346 34.848522 
L 85.373238 34.5774 
L 86.789723 34.409001 
L 87.79979 34.275966 
L 88.796908 34.141247 
L 89.903599 34.02 
L 98.105664 33.204949 
L 100.296136 33.034867 
L 106.644419 32.327591 
L 108.095768 31.992477 
L 108.268097 31.915014 
L 109.123765 31.684307 
L 109.234335 31.640524 
L 109.673624 31.490649 
L 109.832008 31.424973 
L 110.349991 31.286886 
L 110.68668 31.143747 
L 111.156849 30.97198 
L 111.331171 30.884413 
L 115.071607 29.596161 
L 115.687211 29.436182 
L 115.941222 29.365455 
L 120.431738 28.21529 
L 122.114187 27.90712 
L 122.304447 27.854917 
L 122.92503 27.705042 
L 123.074449 27.667994 
L 124.490933 27.344668 
L 126.351689 27.055022 
L 127.468341 26.854627 
L 136.846826 25.640472 
L 138.158718 25.495648 
L 140.193795 25.25989 
L 141.776632 25.061179 
L 153.396391 24.047418 
L 155.950446 23.889123 
L 156.999362 23.82008 
L 159.928956 23.591057 
L 161.197019 23.409186 
L 161.76182 23.286255 
L 162.230993 23.133012 
L 163.056778 22.78611 
L 163.407413 22.646339 
L 165.524171 21.326092 
L 165.710446 21.228421 
L 167.032299 20.255075 
L 167.325159 20.058049 
L 167.558252 19.88123 
L 167.947735 19.448445 
L 168.060297 19.296886 
L 168.56035 18.96514 
L 168.704788 18.853996 
L 168.942861 18.717593 
L 169.058411 18.616554 
L 169.300468 18.394268 
L 169.534557 18.210713 
L 169.783587 18.04905 
L 172.308756 16.056891 
L 172.619545 15.886808 
L 172.80582 15.784085 
L 173.207257 15.531486 
L 173.70233 15.248576 
L 173.924465 15.134065 
L 174.037027 15.046498 
L 176.969609 13.517436 
L 177.349131 13.357457 
L 177.487592 13.322093 
L 177.907955 13.172218 
L 178.02749 13.114963 
L 178.379121 12.960036 
L 178.651062 12.81858 
L 179.103301 12.576086 
L 179.67109 12.357168 
L 179.841427 12.272968 
L 180.19505 12.119725 
L 180.369372 12.038894 
L 180.715026 11.93617 
L 181.062672 11.787979 
L 185.831106 10.555299 
L 186.632984 10.410476 
L 186.789375 10.380165 
L 187.733699 10.242078 
L 188.707906 10.070311 
L 189.008734 10.024843 
L 191.343643 9.741933 
L 192.389571 9.593742 
L 194.05409 9.427027 
L 194.445566 9.374823 
L 213.171656 8.214555 
L 216.038494 8.08152 
L 220.720266 7.844077 
L 221.045998 7.81545 
L 225.131093 7.574639 
L 225.592297 7.549379 
L 228.800805 7.342249 
L 229.176342 7.325409 
L 231.713464 7.183954 
L 231.713464 7.183954 
" clip-path="url(#pd96a72eb52)" style="fill: none; stroke: #1f77b4; stroke-width: 1.5; stroke-linecap: square"/>
   </g>
   <g id="line2d_20">
    <path d="M 46.643033 67.872965 
L 49.704115 67.753167 
L 50.325695 67.611587 
L 50.664376 67.466377 
L 52.080861 66.297434 
L 52.838909 65.139383 
L 52.978367 65.005064 
L 53.650749 64.010373 
L 53.881849 63.556592 
L 54.032263 63.277062 
L 54.387879 62.699851 
L 54.506417 62.442103 
L 54.745486 62.075447 
L 55.385992 60.735883 
L 55.49955 60.394639 
L 55.591194 60.191345 
L 55.895011 59.490705 
L 56.014545 59.178503 
L 56.194843 58.681158 
L 56.324339 58.216486 
L 56.539501 57.080216 
L 56.76064 56.644585 
L 56.922012 56.372316 
L 57.033578 56.154501 
L 57.729867 54.655205 
L 58.062571 53.856549 
L 58.374357 53.195842 
L 58.486919 52.774733 
L 58.813647 52.001488 
L 58.920232 51.754631 
L 58.992949 51.45332 
L 59.177231 50.651033 
L 59.368487 50.248075 
L 59.486029 49.946764 
L 59.87352 49.304208 
L 60.024931 48.984746 
L 60.088683 48.839536 
L 60.207221 48.581787 
L 60.387519 48.029989 
L 60.528968 47.688745 
L 61.119668 46.842895 
L 61.296978 46.581517 
L 61.54302 46.102323 
L 61.685466 45.862726 
L 61.876721 45.575936 
L 62.222375 45.114893 
L 62.374782 44.806322 
L 62.945559 43.942321 
L 63.08402 43.64827 
L 63.288225 43.321547 
L 63.403775 43.067429 
L 63.569132 42.878656 
L 64.125964 42.029176 
L 64.521424 41.005444 
L 64.736586 40.838452 
L 65.157946 40.548032 
L 65.307364 40.413712 
L 65.531491 40.152334 
L 65.669952 39.909107 
L 65.914002 39.676771 
L 66.206862 39.495258 
L 66.828441 39.048736 
L 67.073487 38.80914 
L 67.397227 38.580433 
L 68.016815 38.155694 
L 68.228988 37.999593 
L 68.401317 37.763626 
L 68.753945 37.607525 
L 69.28687 37.353407 
L 69.538888 37.200936 
L 69.757039 37.012163 
L 70.326821 36.779827 
L 70.441375 36.725373 
L 70.864726 36.583793 
L 71.321946 36.424062 
L 71.452438 36.336936 
L 71.623771 36.300633 
L 72.306114 36.035624 
L 72.473463 35.890414 
L 74.783469 35.251489 
L 74.906988 35.200666 
L 75.838361 34.97559 
L 76.533654 34.743253 
L 76.733875 34.69606 
L 84.77158 33.577941 
L 85.591388 33.443622 
L 86.739916 33.316563 
L 88.411409 33.116899 
L 89.205317 33.033403 
L 102.790424 31.686578 
L 102.99961 31.661166 
L 104.208901 31.479654 
L 104.601373 31.417939 
L 105.531751 31.247317 
L 106.691236 31.058544 
L 108.266105 30.822577 
L 108.507166 30.804426 
L 108.824929 30.775384 
L 110.298193 30.633804 
L 112.154963 30.448661 
L 112.308366 30.415989 
L 115.648362 30.158241 
L 118.237282 29.933165 
L 119.791232 29.784324 
L 120.381932 29.642744 
L 120.387909 29.635484 
L 121.679878 29.490274 
L 121.87711 29.450341 
L 123.7289 29.116357 
L 123.920156 29.058273 
L 124.663262 28.86587 
L 125.323691 28.695248 
L 125.450199 28.640794 
L 127.223295 28.096255 
L 127.424512 28.02002 
L 135.92641 25.551446 
L 136.423474 25.406236 
L 137.459441 25.166639 
L 138.333039 25.017799 
L 138.426675 25.006908 
L 139.335138 24.847177 
L 139.691749 24.799983 
L 140.436848 24.662034 
L 140.543433 24.647513 
L 141.917085 24.47326 
L 143.183156 24.32079 
L 144.276897 24.197361 
L 151.807577 23.384184 
L 151.926115 23.351511 
L 153.705188 22.992116 
L 156.441534 21.881258 
L 156.565053 21.786871 
L 156.952545 21.61988 
L 157.276284 21.405694 
L 159.841297 19.401793 
L 159.996692 19.085961 
L 160.15408 18.9226 
L 161.180085 18.174767 
L 161.305596 18.047708 
L 162.105482 17.328918 
L 162.364473 17.08569 
L 163.954284 15.65537 
L 164.104698 15.495638 
L 164.242163 15.343168 
L 164.379627 15.256042 
L 164.781064 14.940209 
L 164.958374 14.80952 
L 165.070936 14.66794 
L 165.226331 14.490058 
L 165.495284 14.228679 
L 168.508552 12.155803 
L 168.911981 11.992442 
L 169.214802 11.796408 
L 173.193312 10.101079 
L 174.154569 9.861482 
L 174.399615 9.777986 
L 175.786216 9.349616 
L 175.96253 9.287901 
L 182.094654 8.40938 
L 183.499186 8.27506 
L 184.216393 8.173413 
L 186.352078 8.002791 
L 186.875042 7.930186 
L 190.924276 7.610723 
L 191.353605 7.578051 
L 211.000111 6.303831 
L 214.18272 6.158621 
L 215.073253 6.122319 
L 222.520258 5.85368 
L 231.942572 5.585041 
L 231.942572 5.585041 
" clip-path="url(#pd96a72eb52)" style="fill: none; stroke-dasharray: 1.5,2.475; stroke-dashoffset: 0; stroke: #ff7f0e; stroke-width: 1.5"/>
   </g>
   <g id="line2d_21">
    <path d="M 47.285531 67.875412 
L 50.856627 67.703757 
L 52.397628 67.22549 
L 52.511185 67.162747 
L 52.646658 67.127232 
L 53.232378 66.966231 
L 53.952573 66.637127 
L 54.231488 66.47731 
L 54.919808 65.939852 
L 55.127001 65.731498 
L 55.374039 65.455666 
L 55.719693 64.918207 
L 55.962747 64.584368 
L 56.558428 63.449076 
L 56.72478 63.296362 
L 56.925 63.106949 
L 57.177019 62.82875 
L 57.847409 61.860378 
L 58.373361 61.10983 
L 58.488911 60.812689 
L 58.845523 60.217223 
L 59.074631 59.665559 
L 59.662343 58.551576 
L 59.747013 58.4107 
L 60.00202 57.911125 
L 60.171361 57.539402 
L 60.634557 56.29875 
L 60.992165 55.735247 
L 61.362722 55.180031 
L 61.47628 54.891177 
L 61.753202 54.390418 
L 62.242298 53.5132 
L 62.357848 53.295376 
L 62.474394 52.950882 
L 62.666645 52.550748 
L 64.281358 48.427472 
L 64.55828 47.449629 
L 64.72264 47.223518 
L 64.863094 47.056598 
L 65.157946 46.683692 
L 65.321309 46.442191 
L 66.650136 44.298277 
L 66.777639 44.093475 
L 67.145208 43.484987 
L 67.533696 42.848087 
L 68.781836 40.849784 
L 68.962134 40.659187 
L 70.700366 38.765061 
L 71.068931 38.418199 
L 71.200419 38.304552 
L 71.786139 37.778932 
L 72.020227 37.567026 
L 72.712532 36.902898 
L 73.063167 36.762023 
L 73.297255 36.655478 
L 77.408249 35.140177 
L 77.994965 34.999301 
L 79.861697 34.666646 
L 80.306963 34.531689 
L 85.869306 33.980025 
L 88.937361 33.755097 
L 89.307918 33.724318 
L 92.239504 33.539641 
L 92.375973 33.521883 
L 95.376291 33.377456 
L 100.091931 32.643482 
L 100.36188 32.491952 
L 101.371947 32.139171 
L 101.586113 32.045649 
L 102.014445 31.895302 
L 102.283398 31.736669 
L 102.572273 31.59461 
L 102.834253 31.454918 
L 103.198834 31.251299 
L 103.313388 31.162512 
L 103.891138 30.814467 
L 105.192073 29.933698 
L 105.302643 29.825969 
L 105.529758 29.657866 
L 105.926215 29.384401 
L 106.072645 29.268386 
L 106.645415 28.79959 
L 106.864561 28.56164 
L 107.050836 28.393537 
L 107.220177 28.199389 
L 107.63556 27.87502 
L 107.82283 27.704548 
L 108.654592 26.886523 
L 108.966378 26.678169 
L 109.484361 26.230681 
L 109.663663 26.099276 
L 110.190612 25.658892 
L 110.402785 25.504994 
L 110.638866 25.319133 
L 112.166917 23.967201 
L 112.494641 23.748192 
L 112.887113 23.541022 
L 113.220813 23.313727 
L 113.486778 23.170484 
L 113.741785 23.036711 
L 114.120311 22.848482 
L 114.461981 22.653151 
L 114.776755 22.450716 
L 115.514882 22.055317 
L 115.786823 21.912074 
L 116.940332 21.350939 
L 117.264071 21.217166 
L 119.409717 20.48556 
L 119.915747 20.341133 
L 121.837265 19.885359 
L 123.043569 19.690027 
L 124.210027 19.52074 
L 125.825736 19.37868 
L 126.303875 19.341981 
L 156.840979 17.618327 
L 157.102959 17.575709 
L 158.120995 17.431282 
L 158.401902 17.386296 
L 159.035435 17.243053 
L 163.904477 15.972805 
L 164.396562 15.809436 
L 165.362799 15.466126 
L 165.552063 15.41167 
L 166.112879 15.225809 
L 166.657758 15.030477 
L 167.333128 14.818571 
L 167.62798 14.725049 
L 169.899137 14.071575 
L 170.10135 14.002913 
L 170.817561 13.806398 
L 174.93752 12.938651 
L 175.883836 12.776467 
L 177.516479 12.557458 
L 179.911156 12.312406 
L 182.367592 12.130096 
L 187.592249 11.60566 
L 187.758602 11.578432 
L 190.726048 11.314438 
L 192.208277 11.172379 
L 195.978597 10.911936 
L 198.048538 10.798289 
L 201.65151 10.534295 
L 201.884602 10.511802 
L 204.464557 10.295162 
L 205.061234 10.232419 
L 206.396037 10.052477 
L 206.711808 9.992101 
L 209.297739 9.440437 
L 209.653355 9.357569 
L 210.308803 9.216693 
L 211.106696 9.0332 
L 211.280021 8.994134 
L 212.734359 8.635434 
L 212.992355 8.559668 
L 213.685655 8.412874 
L 213.877907 8.351315 
L 214.656874 8.169005 
L 214.859086 8.099159 
L 215.701805 7.883702 
L 218.18414 7.403068 
L 218.705112 7.311913 
L 219.633497 7.146177 
L 222.433595 6.781558 
L 231.772235 6.297372 
L 231.772235 6.297372 
" clip-path="url(#pd96a72eb52)" style="fill: none; stroke-dasharray: 5.55,2.4; stroke-dashoffset: 0; stroke: #2ca02c; stroke-width: 1.5"/>
   </g>
   <g id="line2d_22">
    <path d="M 47.205842 67.876445 
L 50.404388 67.760788 
L 50.523923 67.736004 
L 51.128569 67.579492 
L 54.80625 65.231649 
L 55.783445 64.355958 
L 57.378236 62.016677 
L 57.491794 61.752618 
L 57.865339 61.059125 
L 58.225935 60.479036 
L 58.77679 59.350852 
L 59.555758 57.760339 
L 60.248062 56.868426 
L 62.149658 54.202001 
L 62.358844 53.928028 
L 62.472402 53.700469 
L 62.821044 53.171449 
L 63.188613 52.455125 
L 63.354965 52.190015 
L 63.467527 51.909283 
L 63.934708 51.088116 
L 64.351087 49.929441 
L 64.464645 49.531099 
L 65.234647 48.429351 
L 65.817378 47.168837 
L 70.315863 41.25109 
L 71.015141 40.351516 
L 71.462399 39.771127 
L 71.974406 39.158294 
L 72.314083 38.510463 
L 72.529245 38.115426 
L 73.746506 36.864675 
L 74.165873 36.482405 
L 74.959782 35.614375 
L 75.601285 35.014008 
L 76.304546 34.408535 
L 76.4191 34.271549 
L 76.691042 34.08905 
L 77.229943 33.723453 
L 79.996173 31.776956 
L 80.308955 31.458674 
L 80.542048 31.328446 
L 81.161635 31.074902 
L 81.548131 30.874379 
L 81.874858 30.712759 
L 82.799259 30.318173 
L 83.088135 30.174577 
L 86.673176 28.674488 
L 87.09354 28.531643 
L 88.04384 28.202846 
L 92.286322 26.807449 
L 92.847138 26.674668 
L 93.553388 26.49232 
L 94.17696 26.331602 
L 95.167105 26.069946 
L 95.862398 25.877234 
L 96.226979 25.751212 
L 96.341533 25.691731 
L 97.72913 25.370144 
L 98.277993 25.242771 
L 98.8926 25.100828 
L 99.504219 24.945967 
L 100.572061 24.672596 
L 102.161871 24.309101 
L 103.768615 23.954469 
L 105.489914 23.551321 
L 107.126541 23.192333 
L 107.662455 23.070817 
L 108.288019 22.89643 
L 108.767154 22.801501 
L 109.936601 22.564629 
L 110.732502 22.393396 
L 113.885227 21.55811 
L 114.379303 21.422176 
L 125.068684 18.314299 
L 125.795853 18.166498 
L 128.073983 17.710629 
L 129.006353 17.544052 
L 129.968606 17.384685 
L 131.681935 17.111013 
L 132.932068 16.905384 
L 133.742911 16.776058 
L 134.700184 16.644329 
L 135.440302 16.536933 
L 140.865181 15.831273 
L 143.694166 15.506682 
L 144.376509 15.415658 
L 146.032063 15.263351 
L 146.155582 15.246978 
L 148.567193 15.014612 
L 150.262592 14.870867 
L 151.955003 14.717208 
L 152.22794 14.68176 
L 153.674308 14.576016 
L 159.277493 14.04219 
L 168.980713 12.466698 
L 169.445902 12.377777 
L 170.240807 12.206544 
L 171.635377 11.901629 
L 172.419325 11.731147 
L 173.538966 11.509296 
L 175.856941 11.047568 
L 176.21156 10.962703 
L 179.826485 10.305259 
L 180.162178 10.232409 
L 191.437279 8.6443 
L 193.05498 8.472166 
L 193.580933 8.429207 
L 196.835262 8.154784 
L 196.951808 8.142918 
L 208.505823 7.383185 
L 231.701511 6.147154 
L 231.701511 6.147154 
" clip-path="url(#pd96a72eb52)" style="fill: none; stroke-dasharray: 9.6,2.4,1.5,2.4; stroke-dashoffset: 0; stroke: #d62728; stroke-width: 1.5"/>
   </g>
   <g id="patch_3">
    <path d="M 42.437408 71.062871 
L 42.437408 0.964815 
" style="fill: none; stroke: #000000; stroke-width: 0.8; stroke-linejoin: miter; stroke-linecap: square"/>
   </g>
   <g id="patch_4">
    <path d="M 231.700515 71.062871 
L 231.700515 0.964815 
" style="fill: none; stroke: #000000; stroke-width: 0.8; stroke-linejoin: miter; stroke-linecap: square"/>
   </g>
   <g id="patch_5">
    <path d="M 42.437408 71.062871 
L 231.700515 71.062871 
" style="fill: none; stroke: #000000; stroke-width: 0.8; stroke-linejoin: miter; stroke-linecap: square"/>
   </g>
   <g id="patch_6">
    <path d="M 42.437408 0.964815 
L 231.700515 0.964815 
" style="fill: none; stroke: #000000; stroke-width: 0.8; stroke-linejoin: miter; stroke-linecap: square"/>
   </g>
   <g id="legend_1">
    <g id="patch_7">
     <path d="M 111.239909 66.064871 
L 226.702515 66.064871 
L 226.702515 39.601105 
L 111.239909 39.601105 
z
" style="fill: #ffffff; opacity: 0.8; stroke: #000000; stroke-linejoin: miter"/>
    </g>
    <g id="line2d_23">
     <path d="M 115.238309 47.098105 
L 120.236309 47.098105 
L 125.234309 47.098105 
" style="fill: none; stroke: #1f77b4; stroke-width: 1.5; stroke-linecap: square"/>
    </g>
    <g id="text_16">
     <!-- Bogotá -->
     <g transform="translate(128.233109 50.596705) scale(0.09996 -0.09996)">
      <defs>
       <path id="CMR17-42" d="M 333 4352 
L 333 4186 
C 774 4186 845 4186 845 3900 
L 845 452 
C 845 166 774 166 333 166 
L 333 0 
L 2534 0 
C 3354 0 3885 583 3885 1164 
C 3885 1741 3360 2233 2675 2233 
C 3290 2356 3718 2771 3718 3264 
C 3718 3802 3194 4352 2368 4352 
L 333 4352 
z
M 1248 2304 
L 1248 3937 
C 1248 4155 1261 4186 1517 4186 
L 2336 4186 
C 2970 4186 3251 3674 3251 3277 
C 3251 2791 2861 2304 2170 2304 
L 1248 2304 
z
M 1517 166 
C 1261 166 1248 197 1248 413 
L 1248 2202 
L 2432 2202 
C 3091 2202 3411 1625 3411 1162 
C 3411 699 3046 166 2349 166 
L 1517 166 
z
" transform="scale(0.015625)"/>
       <path id="CMR17-6f" d="M 2758 1356 
C 2758 2176 2163 2816 1466 2816 
C 768 2816 173 2176 173 1356 
C 173 551 768 -64 1466 -64 
C 2163 -64 2758 551 2758 1356 
z
M 1466 51 
C 1165 51 909 230 762 480 
C 602 767 582 1126 582 1408 
C 582 1677 595 2010 762 2298 
C 890 2509 1139 2714 1466 2714 
C 1754 2714 1997 2554 2150 2330 
C 2349 2029 2349 1607 2349 1408 
C 2349 1158 2336 775 2163 467 
C 1984 173 1709 51 1466 51 
z
" transform="scale(0.015625)"/>
       <path id="CMR17-67" d="M 710 1164 
C 832 1068 1043 960 1299 960 
C 1805 960 2240 1357 2240 1888 
C 2240 2054 2189 2310 1997 2509 
C 2176 2692 2438 2752 2586 2752 
C 2611 2752 2650 2752 2682 2734 
C 2656 2728 2598 2703 2598 2605 
C 2598 2527 2656 2471 2739 2471 
C 2835 2471 2886 2533 2886 2614 
C 2886 2731 2790 2854 2586 2854 
C 2330 2854 2106 2738 1926 2580 
C 1734 2753 1504 2816 1299 2816 
C 794 2816 358 2419 358 1888 
C 358 1522 570 1292 634 1228 
C 442 1004 442 743 442 711 
C 442 545 506 302 723 168 
C 390 85 128 -169 128 -486 
C 128 -943 736 -1280 1466 -1280 
C 2170 -1280 2803 -956 2803 -479 
C 2803 384 1856 384 1363 384 
C 1216 384 954 384 922 391 
C 723 423 589 602 589 826 
C 589 883 589 1024 710 1164 
z
M 1299 1068 
C 736 1068 736 1760 736 1889 
C 736 2016 736 2708 1299 2708 
C 1862 2708 1862 2016 1862 1889 
C 1862 1760 1862 1068 1299 1068 
z
M 1466 -1171 
C 826 -1171 384 -835 384 -486 
C 384 -289 493 -105 634 -4 
C 794 104 858 104 1293 104 
C 1818 104 2547 104 2547 -486 
C 2547 -835 2106 -1171 1466 -1171 
z
" transform="scale(0.015625)"/>
       <path id="CMR17-13" d="M 2221 4091 
C 2298 4161 2317 4174 2317 4244 
C 2317 4339 2234 4416 2144 4416 
C 2067 4416 2042 4384 1978 4308 
L 1254 3390 
C 1210 3333 1210 3327 1210 3320 
C 1210 3314 1267 3256 1280 3244 
L 2221 4091 
z
" transform="scale(0.015625)"/>
       <path id="CMR17-61" d="M 2304 1653 
C 2304 2072 2304 2294 2035 2543 
C 1798 2752 1523 2816 1306 2816 
C 800 2816 435 2407 435 1971 
C 435 1728 627 1728 666 1728 
C 749 1728 896 1778 896 1954 
C 896 2112 774 2181 666 2181 
C 640 2181 608 2174 589 2168 
C 723 2592 1069 2714 1293 2714 
C 1613 2714 1965 2429 1965 1885 
L 1965 1600 
C 1587 1600 1133 1549 774 1357 
C 371 1133 256 813 256 570 
C 256 77 832 -64 1171 -64 
C 1523 -64 1850 139 1990 511 
C 2003 233 2182 -18 2464 -18 
C 2598 -18 2938 70 2938 567 
L 2938 920 
L 2822 920 
L 2822 562 
C 2822 178 2650 128 2566 128 
C 2304 128 2304 458 2304 738 
L 2304 1653 
z
M 1965 870 
C 1965 317 1568 38 1216 38 
C 896 38 646 275 646 570 
C 646 761 730 1100 1101 1305 
C 1408 1478 1760 1504 1965 1504 
L 1965 870 
z
" transform="scale(0.015625)"/>
      </defs>
      <use xlink:href="#CMR17-42" transform="scale(0.996264)"/>
      <use xlink:href="#CMR17-6f" transform="translate(65.188754 0) scale(0.996264)"/>
      <use xlink:href="#CMR17-67" transform="translate(110.879232 0) scale(0.996264)"/>
      <use xlink:href="#CMR17-6f" transform="translate(156.569709 0) scale(0.996264)"/>
      <use xlink:href="#CMR17-74" transform="translate(202.260186 0) scale(0.996264)"/>
      <use xlink:href="#CMR17-13" transform="translate(237.540954 0) scale(0.996264)"/>
      <use xlink:href="#CMR17-61" transform="translate(237.540954 0) scale(0.996264)"/>
     </g>
    </g>
    <g id="line2d_24">
     <path d="M 115.238309 56.631468 
L 120.236309 56.631468 
L 125.234309 56.631468 
" style="fill: none; stroke-dasharray: 1.5,2.475; stroke-dashoffset: 0; stroke: #ff7f0e; stroke-width: 1.5"/>
    </g>
    <g id="text_17">
     <!-- Lima -->
     <g transform="translate(128.233109 60.130068) scale(0.09996 -0.09996)">
      <defs>
       <path id="CMR17-4c" d="M 3469 1615 
L 3354 1615 
C 3302 983 3219 166 2125 166 
L 1530 166 
C 1274 166 1261 197 1261 414 
L 1261 3898 
C 1261 4129 1274 4192 1760 4192 
L 1901 4192 
L 1901 4352 
C 1638 4352 1331 4352 1069 4352 
C 870 4352 512 4352 326 4352 
L 326 4192 
C 768 4192 838 4192 838 3905 
L 838 452 
C 838 166 768 166 326 166 
L 326 0 
L 3315 0 
L 3469 1615 
z
" transform="scale(0.015625)"/>
      </defs>
      <use xlink:href="#CMR17-4c" transform="scale(0.996264)"/>
      <use xlink:href="#CMR17-69" transform="translate(57.381408 0) scale(0.996264)"/>
      <use xlink:href="#CMR17-6d" transform="translate(82.252466 0) scale(0.996264)"/>
      <use xlink:href="#CMR17-61" transform="translate(159.172056 0) scale(0.996264)"/>
     </g>
    </g>
    <g id="line2d_25">
     <path d="M 164.931051 47.098105 
L 169.929051 47.098105 
L 174.927051 47.098105 
" style="fill: none; stroke-dasharray: 5.55,2.4; stroke-dashoffset: 0; stroke: #2ca02c; stroke-width: 1.5"/>
    </g>
    <g id="text_18">
     <!-- Santiago -->
     <g transform="translate(177.925851 50.596705) scale(0.09996 -0.09996)">
      <defs>
       <path id="CMR17-53" d="M 2803 4290 
C 2803 4404 2797 4411 2758 4411 
C 2720 4411 2707 4385 2682 4328 
L 2490 3907 
C 2246 4257 1875 4416 1472 4416 
C 819 4416 294 3901 294 3253 
C 294 3056 339 2776 557 2510 
C 794 2218 1018 2167 1530 2033 
C 1722 1982 2042 1899 2106 1874 
C 2470 1722 2662 1341 2662 985 
C 2662 527 2336 38 1779 38 
C 1094 38 454 419 410 1311 
C 403 1413 397 1419 352 1419 
C 301 1419 294 1413 294 1285 
L 294 -1 
C 294 -115 301 -122 339 -122 
C 384 -122 397 -90 486 108 
C 493 127 493 140 614 381 
C 934 -39 1472 -128 1779 -128 
C 2477 -128 2970 451 2970 1124 
C 2970 1454 2848 1708 2778 1823 
C 2509 2230 2221 2306 1914 2382 
C 1869 2402 1856 2402 1498 2490 
C 1152 2579 1005 2624 845 2796 
C 666 2992 602 3196 602 3399 
C 602 3812 934 4263 1478 4263 
C 2157 4263 2579 3786 2675 2993 
C 2694 2878 2701 2872 2746 2872 
C 2803 2872 2803 2891 2803 2999 
L 2803 4290 
z
" transform="scale(0.015625)"/>
      </defs>
      <use xlink:href="#CMR17-53" transform="scale(0.996264)"/>
      <use xlink:href="#CMR17-61" transform="translate(50.89537 0) scale(0.996264)"/>
      <use xlink:href="#CMR17-6e" transform="translate(96.585847 0) scale(0.996264)"/>
      <use xlink:href="#CMR17-74" transform="translate(144.878763 0) scale(0.996264)"/>
      <use xlink:href="#CMR17-69" transform="translate(180.159531 0) scale(0.996264)"/>
      <use xlink:href="#CMR17-61" transform="translate(205.030589 0) scale(0.996264)"/>
      <use xlink:href="#CMR17-67" transform="translate(250.721066 0) scale(0.996264)"/>
      <use xlink:href="#CMR17-6f" transform="translate(296.411543 0) scale(0.996264)"/>
     </g>
    </g>
    <g id="line2d_26">
     <path d="M 164.931051 56.631468 
L 169.929051 56.631468 
L 174.927051 56.631468 
" style="fill: none; stroke-dasharray: 9.6,2.4,1.5,2.4; stroke-dashoffset: 0; stroke: #d62728; stroke-width: 1.5"/>
    </g>
    <g id="text_19">
     <!-- São Paulo -->
     <g transform="translate(177.925851 60.130068) scale(0.09996 -0.09996)">
      <defs>
       <path id="CMR17-7e" d="M 2400 4184 
C 2182 3980 2061 3865 1862 3865 
C 1722 3865 1626 3932 1491 4024 
C 1363 4111 1261 4184 1120 4184 
C 890 4184 730 4004 461 3718 
L 531 3648 
C 749 3850 870 3968 1069 3968 
C 1210 3968 1306 3900 1440 3808 
C 1568 3722 1670 3648 1811 3648 
C 2042 3648 2202 3828 2470 4114 
L 2400 4184 
z
" transform="scale(0.015625)"/>
       <path id="CMR17-75" d="M 1882 2693 
L 1882 2528 
C 2259 2528 2317 2489 2317 2186 
L 2317 1032 
C 2317 500 2029 38 1555 38 
C 1030 38 986 348 986 678 
L 986 2763 
L 211 2693 
L 211 2528 
C 467 2528 640 2528 646 2274 
L 646 1058 
C 646 633 646 361 813 183 
C 896 101 1056 -64 1517 -64 
C 2061 -64 2272 377 2323 506 
L 2330 506 
L 2330 -63 
L 3091 -63 
L 3091 128 
C 2714 128 2656 166 2656 473 
L 2656 2763 
L 1882 2693 
z
" transform="scale(0.015625)"/>
      </defs>
      <use xlink:href="#CMR17-53" transform="scale(0.996264)"/>
      <use xlink:href="#CMR17-7e" transform="translate(50.89537 0) scale(0.996264)"/>
      <use xlink:href="#CMR17-61" transform="translate(50.89537 0) scale(0.996264)"/>
      <use xlink:href="#CMR17-6f" transform="translate(96.585847 0) scale(0.996264)"/>
      <use xlink:href="#CMR17-50" transform="translate(172.35229 0) scale(0.996264)"/>
      <use xlink:href="#CMR17-61" transform="translate(232.336137 0) scale(0.996264)"/>
      <use xlink:href="#CMR17-75" transform="translate(278.026614 0) scale(0.996264)"/>
      <use xlink:href="#CMR17-6c" transform="translate(328.921984 0) scale(0.996264)"/>
      <use xlink:href="#CMR17-6f" transform="translate(353.793042 0) scale(0.996264)"/>
     </g>
    </g>
   </g>
  </g>
 </g>
 <defs>
  <clipPath id="pd96a72eb52">
   <rect x="42.437408" y="0.964815" width="189.263107" height="70.098056"/>
  </clipPath>
 </defs>
</svg>
