<?xml version="1.0" encoding="utf-8" standalone="no"?>
<!DOCTYPE svg PUBLIC "-//W3C//DTD SVG 1.1//EN"
  "http://www.w3.org/Graphics/SVG/1.1/DTD/svg11.dtd">
<svg xmlns:xlink="http://www.w3.org/1999/xlink" width="218.16pt" height="164.16pt" viewBox="0 0 218.16 164.16" xmlns="http://www.w3.org/2000/svg" version="1.1">
 <metadata>
  <rdf:RDF xmlns:dc="http://purl.org/dc/elements/1.1/" xmlns:cc="http://creativecommons.org/ns#" xmlns:rdf="http://www.w3.org/1999/02/22-rdf-syntax-ns#">
   <cc:Work>
    <dc:type rdf:resource="http://purl.org/dc/dcmitype/StillImage"/>
    <dc:date>2023-10-10T20:50:43.971875</dc:date>
    <dc:format>image/svg+xml</dc:format>
    <dc:creator>
     <cc:Agent>
      <dc:title>Matplotlib v3.7.0, https://matplotlib.org/</dc:title>
     </cc:Agent>
    </dc:creator>
   </cc:Work>
  </rdf:RDF>
 </metadata>
 <defs>
  <style type="text/css">*{stroke-linejoin: round; stroke-linecap: butt}</style>
 </defs>
 <g id="figure_1">
  <g id="patch_1">
   <path d="M 0 164.16 
L 218.16 164.16 
L 218.16 0 
L 0 0 
z
" style="fill: #ffffff"/>
  </g>
  <g id="axes_1">
   <g id="patch_2">
    <path d="M 47.676976 126.814399 
L 207.917267 126.814399 
L 207.917267 0 
L 47.676976 0 
z
" style="fill: #ffffff"/>
   </g>
   <g id="matplotlib.axis_1">
    <g id="xtick_1">
     <g id="line2d_1">
      <defs>
       <path id="mf215893646" d="M 0 0 
L 0 3.5 
" style="stroke: #000000; stroke-width: 0.8"/>
      </defs>
      <g>
       <use xlink:href="#mf215893646" x="60.327525" y="126.814399" style="stroke: #000000; stroke-width: 0.8"/>
      </g>
     </g>
     <g id="text_1">
      <!-- 25 -->
      <g transform="translate(53.499036 143.500275) scale(0.14 -0.14)">
       <defs>
        <path id="CMR17-32" d="M 2669 989 
L 2554 989 
C 2490 536 2438 459 2413 420 
C 2381 369 1920 369 1830 369 
L 602 369 
C 832 619 1280 1072 1824 1597 
C 2214 1967 2669 2402 2669 3035 
C 2669 3790 2067 4224 1395 4224 
C 691 4224 262 3604 262 3030 
C 262 2780 448 2748 525 2748 
C 589 2748 781 2787 781 3010 
C 781 3207 614 3264 525 3264 
C 486 3264 448 3258 422 3245 
C 544 3790 915 4058 1306 4058 
C 1862 4058 2227 3617 2227 3035 
C 2227 2479 1901 2000 1536 1584 
L 262 146 
L 262 0 
L 2515 0 
L 2669 989 
z
" transform="scale(0.015625)"/>
        <path id="CMR17-35" d="M 730 3692 
C 794 3666 1056 3584 1325 3584 
C 1920 3584 2246 3911 2432 4100 
C 2432 4157 2432 4192 2394 4192 
C 2387 4192 2374 4192 2323 4163 
C 2099 4058 1837 3973 1517 3973 
C 1325 3973 1037 3999 723 4139 
C 653 4171 640 4171 634 4171 
C 602 4171 595 4164 595 4037 
L 595 2203 
C 595 2089 595 2057 659 2057 
C 691 2057 704 2070 736 2114 
C 941 2401 1222 2522 1542 2522 
C 1766 2522 2246 2382 2246 1289 
C 2246 1085 2246 715 2054 421 
C 1894 159 1645 25 1370 25 
C 947 25 518 320 403 814 
C 429 807 480 795 506 795 
C 589 795 749 840 749 1038 
C 749 1210 627 1280 506 1280 
C 358 1280 262 1190 262 1011 
C 262 454 704 -128 1382 -128 
C 2042 -128 2669 440 2669 1264 
C 2669 2030 2170 2624 1549 2624 
C 1222 2624 947 2503 730 2274 
L 730 3692 
z
" transform="scale(0.015625)"/>
       </defs>
       <use xlink:href="#CMR17-32" transform="scale(0.996264)"/>
       <use xlink:href="#CMR17-35" transform="translate(45.690477 0) scale(0.996264)"/>
      </g>
     </g>
    </g>
    <g id="xtick_2">
     <g id="line2d_2">
      <g>
       <use xlink:href="#mf215893646" x="81.411774" y="126.814399" style="stroke: #000000; stroke-width: 0.8"/>
      </g>
     </g>
     <g id="text_2">
      <!-- 50 -->
      <g transform="translate(74.583285 143.500275) scale(0.14 -0.14)">
       <defs>
        <path id="CMR17-30" d="M 2688 2025 
C 2688 2416 2682 3080 2413 3591 
C 2176 4039 1798 4198 1466 4198 
C 1158 4198 768 4058 525 3597 
C 269 3118 243 2524 243 2025 
C 243 1661 250 1106 448 619 
C 723 -39 1216 -128 1466 -128 
C 1760 -128 2208 -7 2470 600 
C 2662 1042 2688 1559 2688 2025 
z
M 1466 -26 
C 1056 -26 813 325 723 812 
C 653 1188 653 1738 653 2096 
C 653 2588 653 2997 736 3387 
C 858 3929 1216 4096 1466 4096 
C 1728 4096 2067 3923 2189 3400 
C 2272 3036 2278 2607 2278 2096 
C 2278 1680 2278 1169 2202 792 
C 2067 95 1690 -26 1466 -26 
z
" transform="scale(0.015625)"/>
       </defs>
       <use xlink:href="#CMR17-35" transform="scale(0.996264)"/>
       <use xlink:href="#CMR17-30" transform="translate(45.690477 0) scale(0.996264)"/>
      </g>
     </g>
    </g>
    <g id="xtick_3">
     <g id="line2d_3">
      <g>
       <use xlink:href="#mf215893646" x="102.496023" y="126.814399" style="stroke: #000000; stroke-width: 0.8"/>
      </g>
     </g>
     <g id="text_3">
      <!-- 75 -->
      <g transform="translate(95.667534 143.500275) scale(0.14 -0.14)">
       <defs>
        <path id="CMR17-37" d="M 2886 3941 
L 2886 4081 
L 1382 4081 
C 634 4081 621 4165 595 4288 
L 480 4288 
L 294 3094 
L 410 3094 
C 429 3215 474 3540 550 3661 
C 589 3712 1062 3712 1171 3712 
L 2579 3712 
L 1869 2661 
C 1395 1954 1069 999 1069 165 
C 1069 89 1069 -128 1299 -128 
C 1530 -128 1530 89 1530 171 
L 1530 465 
C 1530 1508 1709 2196 2003 2636 
L 2886 3941 
z
" transform="scale(0.015625)"/>
       </defs>
       <use xlink:href="#CMR17-37" transform="scale(0.996264)"/>
       <use xlink:href="#CMR17-35" transform="translate(45.690477 0) scale(0.996264)"/>
      </g>
     </g>
    </g>
    <g id="xtick_4">
     <g id="line2d_4">
      <g>
       <use xlink:href="#mf215893646" x="123.580272" y="126.814399" style="stroke: #000000; stroke-width: 0.8"/>
      </g>
     </g>
     <g id="text_4">
      <!-- 100 -->
      <g transform="translate(113.337539 143.500275) scale(0.14 -0.14)">
       <defs>
        <path id="CMR17-31" d="M 1702 4058 
C 1702 4192 1696 4192 1606 4192 
C 1357 3916 979 3827 621 3827 
C 602 3827 570 3827 563 3808 
C 557 3795 557 3782 557 3648 
C 755 3648 1088 3686 1344 3839 
L 1344 461 
C 1344 236 1331 160 781 160 
L 589 160 
L 589 0 
C 896 0 1216 0 1523 0 
C 1830 0 2150 0 2458 0 
L 2458 160 
L 2266 160 
C 1715 160 1702 230 1702 458 
L 1702 4058 
z
" transform="scale(0.015625)"/>
       </defs>
       <use xlink:href="#CMR17-31" transform="scale(0.996264)"/>
       <use xlink:href="#CMR17-30" transform="translate(45.690477 0) scale(0.996264)"/>
       <use xlink:href="#CMR17-30" transform="translate(91.380954 0) scale(0.996264)"/>
      </g>
     </g>
    </g>
    <g id="xtick_5">
     <g id="line2d_5">
      <g>
       <use xlink:href="#mf215893646" x="144.66452" y="126.814399" style="stroke: #000000; stroke-width: 0.8"/>
      </g>
     </g>
     <g id="text_5">
      <!-- 125 -->
      <g transform="translate(134.421787 143.500275) scale(0.14 -0.14)">
       <use xlink:href="#CMR17-31" transform="scale(0.996264)"/>
       <use xlink:href="#CMR17-32" transform="translate(45.690477 0) scale(0.996264)"/>
       <use xlink:href="#CMR17-35" transform="translate(91.380954 0) scale(0.996264)"/>
      </g>
     </g>
    </g>
    <g id="xtick_6">
     <g id="line2d_6">
      <g>
       <use xlink:href="#mf215893646" x="165.748769" y="126.814399" style="stroke: #000000; stroke-width: 0.8"/>
      </g>
     </g>
     <g id="text_6">
      <!-- 150 -->
      <g transform="translate(155.506036 143.500275) scale(0.14 -0.14)">
       <use xlink:href="#CMR17-31" transform="scale(0.996264)"/>
       <use xlink:href="#CMR17-35" transform="translate(45.690477 0) scale(0.996264)"/>
       <use xlink:href="#CMR17-30" transform="translate(91.380954 0) scale(0.996264)"/>
      </g>
     </g>
    </g>
    <g id="xtick_7">
     <g id="line2d_7">
      <g>
       <use xlink:href="#mf215893646" x="186.833018" y="126.814399" style="stroke: #000000; stroke-width: 0.8"/>
      </g>
     </g>
     <g id="text_7">
      <!-- 175 -->
      <g transform="translate(176.590285 143.500275) scale(0.14 -0.14)">
       <use xlink:href="#CMR17-31" transform="scale(0.996264)"/>
       <use xlink:href="#CMR17-37" transform="translate(45.690477 0) scale(0.996264)"/>
       <use xlink:href="#CMR17-35" transform="translate(91.380954 0) scale(0.996264)"/>
      </g>
     </g>
    </g>
    <g id="xtick_8">
     <g id="line2d_8">
      <g>
       <use xlink:href="#mf215893646" x="207.917267" y="126.814399" style="stroke: #000000; stroke-width: 0.8"/>
      </g>
     </g>
     <g id="text_8">
      <!-- 200 -->
      <g transform="translate(197.674534 143.500275) scale(0.14 -0.14)">
       <use xlink:href="#CMR17-32" transform="scale(0.996264)"/>
       <use xlink:href="#CMR17-30" transform="translate(45.690477 0) scale(0.996264)"/>
       <use xlink:href="#CMR17-30" transform="translate(91.380954 0) scale(0.996264)"/>
      </g>
     </g>
    </g>
    <g id="text_9">
     <!-- RTT [ms] -->
     <g transform="translate(99.023834 160.673076) scale(0.14 -0.14)">
      <defs>
       <path id="CMR17-52" d="M 2509 2146 
C 3117 2268 3629 2676 3629 3186 
C 3629 3785 2950 4326 2054 4326 
L 333 4326 
L 333 4160 
C 774 4160 845 4160 845 3873 
L 845 415 
C 845 128 774 128 333 128 
L 333 -26 
C 518 -26 851 -26 1050 -26 
C 1248 -26 1581 -26 1766 -26 
L 1766 128 
C 1325 128 1254 128 1254 417 
L 1254 2112 
L 2003 2112 
C 2368 2112 2573 1964 2662 1881 
C 2918 1632 2918 1459 2918 1024 
C 2918 595 2918 377 3110 160 
C 3354 -102 3680 -128 3821 -128 
C 4294 -128 4365 396 4365 503 
C 4365 540 4365 585 4307 585 
C 4256 585 4250 547 4250 522 
C 4218 112 4032 -26 3834 -26 
C 3482 -26 3443 375 3405 764 
C 3386 898 3373 993 3360 1133 
C 3322 1452 3270 1917 2509 2146 
z
M 1984 2214 
L 1254 2214 
L 1254 3913 
C 1254 4129 1267 4160 1523 4160 
L 1990 4160 
C 2522 4160 3142 3977 3142 3190 
C 3142 2372 2464 2214 1984 2214 
z
" transform="scale(0.015625)"/>
       <path id="CMR17-54" d="M 3981 4326 
L 288 4326 
L 179 2918 
L 294 2918 
C 378 3976 467 4160 1453 4160 
C 1568 4160 1754 4160 1805 4154 
C 1926 4135 1926 4058 1926 3912 
L 1926 459 
C 1926 230 1907 160 1376 160 
L 1197 160 
L 1197 0 
C 1504 0 1824 0 2138 0 
C 2451 0 2771 0 3078 0 
L 3078 160 
L 2899 160 
C 2368 160 2349 230 2349 459 
L 2349 3912 
C 2349 4052 2349 4129 2464 4154 
C 2515 4160 2701 4160 2816 4160 
C 3795 4160 3891 3976 3974 2918 
L 4090 2918 
L 3981 4326 
z
" transform="scale(0.015625)"/>
       <path id="CMR17-5b" d="M 1504 -1600 
L 1504 -1377 
L 902 -1377 
L 902 4544 
L 1504 4544 
L 1504 4767 
L 678 4767 
L 678 -1600 
L 1504 -1600 
z
" transform="scale(0.015625)"/>
       <path id="CMR17-6d" d="M 4326 1933 
C 4326 2252 4269 2790 3507 2790 
C 3072 2790 2771 2496 2656 2151 
L 2650 2151 
C 2573 2676 2195 2790 1837 2790 
C 1331 2790 1069 2400 973 2144 
L 966 2144 
L 966 2790 
L 211 2720 
L 211 2554 
C 589 2554 646 2515 646 2208 
L 646 428 
C 646 184 621 153 211 153 
L 211 -13 
C 365 0 646 0 813 0 
C 979 0 1267 0 1421 -13 
L 1421 153 
C 1011 153 986 178 986 428 
L 986 1658 
C 986 2247 1344 2688 1792 2688 
C 2266 2688 2317 2266 2317 1958 
L 2317 428 
C 2317 184 2291 153 1882 153 
L 1882 -13 
C 2035 0 2317 0 2483 0 
C 2650 0 2938 0 3091 -13 
L 3091 153 
C 2682 153 2656 178 2656 428 
L 2656 1658 
C 2656 2247 3014 2688 3462 2688 
C 3936 2688 3987 2266 3987 1958 
L 3987 428 
C 3987 184 3962 153 3552 153 
L 3552 -13 
C 3706 0 3987 0 4154 0 
C 4320 0 4608 0 4762 -13 
L 4762 153 
C 4352 153 4326 178 4326 428 
L 4326 1933 
z
" transform="scale(0.015625)"/>
       <path id="CMR17-73" d="M 1978 2697 
C 1978 2813 1971 2819 1933 2819 
C 1907 2819 1901 2813 1824 2717 
C 1805 2691 1747 2626 1728 2601 
C 1523 2819 1235 2819 1126 2819 
C 416 2819 160 2447 160 2076 
C 160 1498 813 1365 998 1325 
C 1402 1243 1542 1217 1677 1101 
C 1760 1025 1901 884 1901 654 
C 1901 384 1747 38 1158 38 
C 602 38 403 460 288 1021 
C 269 1110 269 1117 218 1117 
C 166 1117 160 1110 160 983 
L 160 63 
C 160 -51 166 -58 205 -58 
C 237 -58 243 -51 275 0 
C 314 57 410 211 448 276 
C 576 103 800 -64 1158 -64 
C 1792 -64 2131 283 2131 784 
C 2131 1112 1958 1285 1875 1362 
C 1683 1561 1459 1606 1190 1657 
C 838 1735 390 1825 390 2217 
C 390 2383 480 2737 1126 2737 
C 1811 2737 1850 2094 1862 1888 
C 1869 1856 1901 1849 1920 1849 
C 1978 1849 1978 1869 1978 1978 
L 1978 2697 
z
" transform="scale(0.015625)"/>
       <path id="CMR17-5d" d="M 915 4767 
L 90 4767 
L 90 4544 
L 691 4544 
L 691 -1377 
L 90 -1377 
L 90 -1600 
L 915 -1600 
L 915 4767 
z
" transform="scale(0.015625)"/>
      </defs>
      <use xlink:href="#CMR17-52" transform="scale(0.996264)"/>
      <use xlink:href="#CMR17-54" transform="translate(59.983847 0) scale(0.996264)"/>
      <use xlink:href="#CMR17-54" transform="translate(126.493727 0) scale(0.996264)"/>
      <use xlink:href="#CMR17-5b" transform="translate(223.079574 0) scale(0.996264)"/>
      <use xlink:href="#CMR17-6d" transform="translate(247.950633 0) scale(0.996264)"/>
      <use xlink:href="#CMR17-73" transform="translate(324.870222 0) scale(0.996264)"/>
      <use xlink:href="#CMR17-5d" transform="translate(360.67156 0) scale(0.996264)"/>
     </g>
    </g>
   </g>
   <g id="matplotlib.axis_2">
    <g id="ytick_1">
     <g id="line2d_9">
      <path d="M 47.676976 121.050108 
L 207.917267 121.050108 
" clip-path="url(#p52de51f2ed)" style="fill: none; stroke: #b0b0b0; stroke-opacity: 0.7; stroke-width: 0.5; stroke-linecap: square"/>
     </g>
     <g id="line2d_10">
      <defs>
       <path id="m4048121105" d="M 0 0 
L -3.5 0 
" style="stroke: #000000; stroke-width: 0.8"/>
      </defs>
      <g>
       <use xlink:href="#m4048121105" x="47.676976" y="121.050108" style="stroke: #000000; stroke-width: 0.8"/>
      </g>
     </g>
     <g id="text_10">
      <!-- 0.00 -->
      <g transform="translate(16.397905 125.893046) scale(0.14 -0.14)">
       <defs>
        <path id="CMR17-2e" d="M 1062 261 
C 1062 420 934 522 800 522 
C 672 522 538 420 538 261 
C 538 102 666 0 800 0 
C 928 0 1062 102 1062 261 
z
" transform="scale(0.015625)"/>
       </defs>
       <use xlink:href="#CMR17-30" transform="scale(0.996264)"/>
       <use xlink:href="#CMR17-2e" transform="translate(45.690477 0) scale(0.996264)"/>
       <use xlink:href="#CMR17-30" transform="translate(70.561536 0) scale(0.996264)"/>
       <use xlink:href="#CMR17-30" transform="translate(116.252013 0) scale(0.996264)"/>
      </g>
     </g>
    </g>
    <g id="ytick_2">
     <g id="line2d_11">
      <path d="M 47.676976 92.228654 
L 207.917267 92.228654 
" clip-path="url(#p52de51f2ed)" style="fill: none; stroke: #b0b0b0; stroke-opacity: 0.7; stroke-width: 0.5; stroke-linecap: square"/>
     </g>
     <g id="line2d_12">
      <g>
       <use xlink:href="#m4048121105" x="47.676976" y="92.228654" style="stroke: #000000; stroke-width: 0.8"/>
      </g>
     </g>
     <g id="text_11">
      <!-- 0.25 -->
      <g transform="translate(16.397905 97.071592) scale(0.14 -0.14)">
       <use xlink:href="#CMR17-30" transform="scale(0.996264)"/>
       <use xlink:href="#CMR17-2e" transform="translate(45.690477 0) scale(0.996264)"/>
       <use xlink:href="#CMR17-32" transform="translate(70.561536 0) scale(0.996264)"/>
       <use xlink:href="#CMR17-35" transform="translate(116.252013 0) scale(0.996264)"/>
      </g>
     </g>
    </g>
    <g id="ytick_3">
     <g id="line2d_13">
      <path d="M 47.676976 63.4072 
L 207.917267 63.4072 
" clip-path="url(#p52de51f2ed)" style="fill: none; stroke: #b0b0b0; stroke-opacity: 0.7; stroke-width: 0.5; stroke-linecap: square"/>
     </g>
     <g id="line2d_14">
      <g>
       <use xlink:href="#m4048121105" x="47.676976" y="63.4072" style="stroke: #000000; stroke-width: 0.8"/>
      </g>
     </g>
     <g id="text_12">
      <!-- 0.50 -->
      <g transform="translate(16.397905 68.250138) scale(0.14 -0.14)">
       <use xlink:href="#CMR17-30" transform="scale(0.996264)"/>
       <use xlink:href="#CMR17-2e" transform="translate(45.690477 0) scale(0.996264)"/>
       <use xlink:href="#CMR17-35" transform="translate(70.561536 0) scale(0.996264)"/>
       <use xlink:href="#CMR17-30" transform="translate(116.252013 0) scale(0.996264)"/>
      </g>
     </g>
    </g>
    <g id="ytick_4">
     <g id="line2d_15">
      <path d="M 47.676976 34.585745 
L 207.917267 34.585745 
" clip-path="url(#p52de51f2ed)" style="fill: none; stroke: #b0b0b0; stroke-opacity: 0.7; stroke-width: 0.5; stroke-linecap: square"/>
     </g>
     <g id="line2d_16">
      <g>
       <use xlink:href="#m4048121105" x="47.676976" y="34.585745" style="stroke: #000000; stroke-width: 0.8"/>
      </g>
     </g>
     <g id="text_13">
      <!-- 0.75 -->
      <g transform="translate(16.397905 39.428683) scale(0.14 -0.14)">
       <use xlink:href="#CMR17-30" transform="scale(0.996264)"/>
       <use xlink:href="#CMR17-2e" transform="translate(45.690477 0) scale(0.996264)"/>
       <use xlink:href="#CMR17-37" transform="translate(70.561536 0) scale(0.996264)"/>
       <use xlink:href="#CMR17-35" transform="translate(116.252013 0) scale(0.996264)"/>
      </g>
     </g>
    </g>
    <g id="ytick_5">
     <g id="line2d_17">
      <path d="M 47.676976 5.764291 
L 207.917267 5.764291 
" clip-path="url(#p52de51f2ed)" style="fill: none; stroke: #b0b0b0; stroke-opacity: 0.7; stroke-width: 0.5; stroke-linecap: square"/>
     </g>
     <g id="line2d_18">
      <g>
       <use xlink:href="#m4048121105" x="47.676976" y="5.764291" style="stroke: #000000; stroke-width: 0.8"/>
      </g>
     </g>
     <g id="text_14">
      <!-- 1.00 -->
      <g transform="translate(16.397905 10.607229) scale(0.14 -0.14)">
       <use xlink:href="#CMR17-31" transform="scale(0.996264)"/>
       <use xlink:href="#CMR17-2e" transform="translate(45.690477 0) scale(0.996264)"/>
       <use xlink:href="#CMR17-30" transform="translate(70.561536 0) scale(0.996264)"/>
       <use xlink:href="#CMR17-30" transform="translate(116.252013 0) scale(0.996264)"/>
      </g>
     </g>
    </g>
    <g id="text_15">
     <!-- Percentile -->
     <g transform="translate(9.685876 92.711592) rotate(-90) scale(0.14 -0.14)">
      <defs>
       <path id="CMR17-50" d="M 1267 2042 
L 2291 2042 
C 3117 2042 3718 2578 3718 3184 
C 3718 3791 3130 4352 2291 4352 
L 333 4352 
L 333 4186 
C 774 4186 845 4186 845 3899 
L 845 446 
C 845 160 774 160 333 160 
L 333 0 
C 518 0 858 0 1056 0 
C 1254 0 1594 0 1779 0 
L 1779 160 
C 1338 160 1267 160 1267 446 
L 1267 2042 
z
M 1254 2176 
L 1254 3938 
C 1254 4155 1267 4186 1523 4186 
L 2170 4186 
C 2995 4186 3232 3714 3232 3184 
C 3232 2604 2950 2176 2170 2176 
L 1254 2176 
z
" transform="scale(0.015625)"/>
       <path id="CMR17-65" d="M 2438 1472 
C 2464 1498 2464 1511 2464 1576 
C 2464 2238 2118 2816 1389 2816 
C 710 2816 173 2169 173 1383 
C 173 551 781 -64 1459 -64 
C 2176 -64 2458 607 2458 740 
C 2458 784 2419 784 2406 784 
C 2362 784 2355 771 2330 696 
C 2189 265 1837 51 1504 51 
C 1229 51 954 203 781 480 
C 582 803 582 1176 582 1472 
L 2438 1472 
z
M 589 1568 
C 634 2505 1126 2714 1382 2714 
C 1818 2714 2112 2297 2118 1568 
L 589 1568 
z
" transform="scale(0.015625)"/>
       <path id="CMR17-72" d="M 960 1497 
C 960 2112 1222 2688 1702 2688 
C 1747 2688 1792 2682 1837 2662 
C 1837 2662 1696 2617 1696 2452 
C 1696 2298 1818 2234 1914 2234 
C 1990 2234 2131 2279 2131 2458 
C 2131 2663 1926 2790 1709 2790 
C 1222 2790 1011 2317 947 2093 
L 941 2093 
L 941 2790 
L 198 2720 
L 198 2554 
C 576 2554 634 2515 634 2208 
L 634 428 
C 634 184 608 153 198 153 
L 198 -13 
C 352 0 646 0 813 0 
C 998 0 1325 0 1498 -13 
L 1498 153 
C 1037 153 960 153 960 440 
L 960 1497 
z
" transform="scale(0.015625)"/>
       <path id="CMR17-63" d="M 2234 2240 
C 2112 2240 1933 2240 1933 2017 
C 1933 1838 2080 1787 2163 1787 
C 2208 1787 2394 1807 2394 2024 
C 2394 2467 1958 2803 1466 2803 
C 787 2803 211 2178 211 1363 
C 211 516 813 -64 1466 -64 
C 2259 -64 2458 677 2458 748 
C 2458 774 2451 793 2406 793 
C 2362 793 2355 787 2330 703 
C 2163 180 1798 51 1523 51 
C 1114 51 621 427 621 1369 
C 621 2338 1094 2688 1472 2688 
C 1722 2688 2093 2573 2234 2240 
z
" transform="scale(0.015625)"/>
       <path id="CMR17-6e" d="M 2656 1933 
C 2656 2259 2592 2790 1837 2790 
C 1331 2790 1069 2400 973 2144 
L 966 2144 
L 966 2790 
L 211 2720 
L 211 2554 
C 589 2554 646 2515 646 2208 
L 646 428 
C 646 184 621 153 211 153 
L 211 -13 
C 365 0 646 0 813 0 
C 979 0 1267 0 1421 -13 
L 1421 153 
C 1011 153 986 178 986 428 
L 986 1658 
C 986 2247 1344 2688 1792 2688 
C 2266 2688 2317 2266 2317 1958 
L 2317 428 
C 2317 184 2291 153 1882 153 
L 1882 -13 
C 2035 0 2317 0 2483 0 
C 2650 0 2938 0 3091 -13 
L 3091 153 
C 2682 153 2656 178 2656 428 
L 2656 1933 
z
" transform="scale(0.015625)"/>
       <path id="CMR17-74" d="M 966 2560 
L 1862 2560 
L 1862 2725 
L 966 2725 
L 966 3904 
L 851 3904 
C 838 3245 614 2668 70 2668 
L 70 2560 
L 627 2560 
L 627 771 
C 627 650 627 -64 1370 -64 
C 1747 -64 1965 306 1965 777 
L 1965 1140 
L 1850 1140 
L 1850 783 
C 1850 344 1677 51 1408 51 
C 1222 51 966 178 966 758 
L 966 2560 
z
" transform="scale(0.015625)"/>
       <path id="CMR17-69" d="M 992 3909 
C 992 4049 877 4170 730 4170 
C 589 4170 467 4056 467 3909 
C 467 3769 582 3648 730 3648 
C 870 3648 992 3763 992 3909 
z
M 243 2706 
L 243 2541 
C 602 2541 653 2502 653 2197 
L 653 427 
C 653 184 627 153 218 153 
L 218 -13 
C 371 0 646 0 806 0 
C 960 0 1222 0 1370 -13 
L 1370 153 
C 992 153 979 191 979 420 
L 979 2776 
L 243 2706 
z
" transform="scale(0.015625)"/>
       <path id="CMR17-6c" d="M 979 4396 
L 218 4326 
L 218 4160 
C 595 4160 653 4122 653 3817 
L 653 426 
C 653 184 627 153 218 153 
L 218 -13 
C 371 0 653 0 813 0 
C 979 0 1261 0 1414 -13 
L 1414 153 
C 1005 153 979 178 979 426 
L 979 4396 
z
" transform="scale(0.015625)"/>
      </defs>
      <use xlink:href="#CMR17-50" transform="scale(0.996264)"/>
      <use xlink:href="#CMR17-65" transform="translate(59.983847 0) scale(0.996264)"/>
      <use xlink:href="#CMR17-72" transform="translate(100.469507 0) scale(0.996264)"/>
      <use xlink:href="#CMR17-63" transform="translate(135.750275 0) scale(0.996264)"/>
      <use xlink:href="#CMR17-65" transform="translate(176.235935 0) scale(0.996264)"/>
      <use xlink:href="#CMR17-6e" transform="translate(216.721596 0) scale(0.996264)"/>
      <use xlink:href="#CMR17-74" transform="translate(265.014512 0) scale(0.996264)"/>
      <use xlink:href="#CMR17-69" transform="translate(300.295279 0) scale(0.996264)"/>
      <use xlink:href="#CMR17-6c" transform="translate(325.166338 0) scale(0.996264)"/>
      <use xlink:href="#CMR17-65" transform="translate(350.037396 0) scale(0.996264)"/>
     </g>
    </g>
   </g>
   <g id="line2d_19">
    <path d="M 51.714187 121.049836 
L 54.06972 120.92511 
L 55.058993 120.489792 
L 55.380317 120.150667 
L 56.109832 119.095522 
L 56.223687 118.827048 
L 56.994527 117.927878 
L 58.199702 116.196658 
L 58.378497 115.870576 
L 58.886206 114.868148 
L 59.093675 114.419514 
L 59.652829 112.410037 
L 60.156321 111.001909 
L 60.518126 109.638345 
L 61.028365 107.720171 
L 61.170051 107.234582 
L 61.283063 106.542745 
L 61.913904 103.535459 
L 62.013421 103.259105 
L 62.126433 102.841178 
L 62.402215 102.186298 
L 62.774984 101.072458 
L 63.152814 99.79286 
L 63.268356 99.527919 
L 64.087268 97.110025 
L 66.110513 89.53461 
L 66.452077 87.456928 
L 66.857738 86.269176 
L 68.095805 81.924413 
L 68.190263 81.680667 
L 68.74267 79.98613 
L 68.772188 79.803797 
L 69.603751 77.457369 
L 69.717606 76.989714 
L 70.011942 76.305215 
L 70.80218 73.961776 
L 71.052661 73.39059 
L 72.916508 68.281166 
L 73.150122 67.217325 
L 73.788553 65.979303 
L 74.211924 64.886658 
L 74.663971 64.002977 
L 74.776982 63.686407 
L 75.630473 61.793232 
L 76.118784 60.98292 
L 76.773239 59.780766 
L 77.376248 58.856597 
L 78.090583 57.755801 
L 78.320823 57.427545 
L 78.535882 57.065867 
L 78.859736 56.537343 
L 79.316843 55.941158 
L 79.989009 54.881393 
L 80.317923 54.599876 
L 80.521175 54.415097 
L 85.08212 50.160821 
L 85.356215 49.955933 
L 86.465246 49.110295 
L 86.672716 48.916005 
L 87.182111 48.635847 
L 87.37946 48.493458 
L 87.605483 48.344819 
L 92.763533 45.152754 
L 93.123652 44.920421 
L 93.637265 44.578307 
L 94.535454 44.131032 
L 94.904006 43.97098 
L 95.020391 43.890547 
L 95.324848 43.75006 
L 95.74822 43.523433 
L 95.861231 43.445717 
L 96.983757 42.854423 
L 97.37002 42.679698 
L 97.790018 42.4278 
L 107.787326 37.472721 
L 117.145359 31.574179 
L 117.55355 31.419019 
L 118.17933 31.147828 
L 119.362578 30.674195 
L 119.47559 30.607076 
L 120.060045 30.362515 
L 120.250647 30.230724 
L 120.684982 30.082357 
L 121.07968 29.939425 
L 121.874134 29.678559 
L 122.337144 29.517149 
L 122.820395 29.337804 
L 123.476537 29.120417 
L 123.703404 29.009277 
L 128.516516 27.575062 
L 129.182778 27.391913 
L 129.578319 27.268546 
L 130.504339 27.006866 
L 131.839393 26.693012 
L 132.552884 26.524265 
L 134.257335 26.09112 
L 134.975886 25.941394 
L 136.229134 25.701996 
L 136.342146 25.669932 
L 137.015998 25.531619 
L 137.349973 25.447109 
L 138.308884 25.274014 
L 139.084785 25.140321 
L 140.126347 24.945216 
L 140.496586 24.838696 
L 141.174656 24.735708 
L 142.133567 24.579733 
L 142.245735 24.553103 
L 143.832958 24.236532 
L 146.34873 23.728388 
L 146.466802 23.6879 
L 148.135831 23.266712 
L 148.852696 23.097693 
L 149.087996 23.024596 
L 151.611359 22.095264 
L 151.916659 21.954506 
L 153.868217 21.209138 
L 154.122071 21.062945 
L 154.967971 20.744472 
L 155.24038 20.635506 
L 155.945437 20.313229 
L 156.475073 20.026277 
L 156.740735 19.923833 
L 157.573141 19.539329 
L 157.777236 19.457265 
L 158.418198 19.175748 
L 159.165423 18.881188 
L 159.770963 18.622769 
L 160.667465 18.217341 
L 161.215656 17.995605 
L 161.644931 17.814087 
L 163.049985 17.258389 
L 164.904556 16.547804 
L 165.016724 16.486663 
L 165.887925 16.161941 
L 166.302863 16.026073 
L 166.755753 15.866294 
L 167.202739 15.710318 
L 171.575612 14.417949 
L 172.472115 14.210072 
L 173.813073 13.894588 
L 176.206557 13.396498 
L 176.344869 13.368782 
L 177.683298 13.113351 
L 178.34956 13.014711 
L 179.354857 12.863084 
L 179.967143 12.781291 
L 180.875453 12.621512 
L 181.167259 12.562817 
L 182.615325 12.385918 
L 182.730023 12.367712 
L 183.424117 12.260376 
L 187.460485 11.715549 
L 187.743858 11.663104 
L 190.454449 11.377239 
L 191.041434 11.303871 
L 193.457689 11.037028 
L 193.973832 10.987028 
L 203.762827 9.824005 
L 203.944995 9.801179 
L 205.386314 9.637051 
L 205.501012 9.621834 
L 207.307511 9.443305 
L 207.91811 9.375371 
L 207.91811 9.375371 
" clip-path="url(#p52de51f2ed)" style="fill: none; stroke: #1f77b4; stroke-width: 1.5; stroke-linecap: square"/>
   </g>
   <g id="line2d_20">
    <path d="M 51.781657 121.047967 
L 54.538633 120.838083 
L 55.041282 120.651759 
L 55.198149 120.5511 
L 55.553208 120.341217 
L 55.762363 120.184876 
L 55.931881 120.052092 
L 56.109832 119.872193 
L 56.222843 119.745834 
L 56.668986 119.505968 
L 56.825853 119.396743 
L 56.952358 119.300368 
L 57.06537 119.171868 
L 57.286333 118.957702 
L 57.428019 118.803502 
L 57.541874 118.666435 
L 57.796572 118.355894 
L 57.90368 118.141727 
L 58.000667 117.998236 
L 58.181992 117.649144 
L 58.28657 117.452111 
L 59.230301 114.753614 
L 59.705961 112.911782 
L 59.928611 112.451324 
L 60.135236 111.971591 
L 60.259212 111.637491 
L 60.452344 111.012125 
L 61.111859 109.039652 
L 61.315954 108.088753 
L 61.409568 107.793203 
L 61.647399 106.827312 
L 62.013421 105.263897 
L 62.12559 104.593556 
L 62.236914 104.274448 
L 62.473901 103.321407 
L 62.635828 102.612516 
L 62.946189 100.590784 
L 63.29197 99.397877 
L 63.377151 99.110894 
L 63.674017 98.170703 
L 63.700161 98.080753 
L 63.813173 97.489653 
L 64.038353 96.617996 
L 64.276183 95.652105 
L 64.384978 95.249472 
L 64.542688 94.671223 
L 64.65823 93.990173 
L 64.948349 92.630216 
L 65.079915 91.994142 
L 66.169549 85.886113 
L 66.395572 84.13209 
L 67.073641 82.208875 
L 67.186653 81.68845 
L 67.462435 80.688293 
L 67.619301 80.223552 
L 68.024119 78.895719 
L 68.186889 78.366728 
L 68.245925 78.171837 
L 69.269776 74.708765 
L 69.506763 73.807124 
L 69.700739 72.751283 
L 71.19772 69.247519 
L 71.287961 69.089036 
L 71.409406 68.750653 
L 72.133861 67.350004 
L 72.246872 67.030896 
L 72.328679 66.883122 
L 72.480486 66.673238 
L 72.580847 66.478347 
L 73.256386 65.062706 
L 73.498433 64.839973 
L 73.833251 64.497307 
L 74.150358 64.173916 
L 74.65891 63.741299 
L 74.783729 63.595666 
L 75.051921 63.39435 
L 75.487943 63.013133 
L 75.71987 62.835375 
L 76.159266 62.52055 
L 76.365048 62.312809 
L 76.839022 62.051526 
L 77.187334 61.890901 
L 78.080462 61.447576 
L 78.502147 61.282668 
L 78.71552 61.190576 
L 79.559733 60.882177 
L 80.913342 60.426002 
L 82.86743 60.079052 
L 83.043695 60.034077 
L 85.893442 59.48367 
L 87.181268 59.310195 
L 87.32211 59.267361 
L 88.982706 59.063903 
L 90.295833 58.877578 
L 92.157994 58.697679 
L 93.681963 58.410695 
L 94.382804 58.232937 
L 95.3628 57.913829 
L 95.503642 57.849579 
L 95.870508 57.688954 
L 96.007978 57.633271 
L 96.411952 57.369846 
L 96.637975 57.097855 
L 96.950022 56.894397 
L 97.656766 56.316147 
L 97.791705 56.204781 
L 97.967126 56.052723 
L 98.21845 55.825706 
L 98.786882 55.20034 
L 98.934471 54.99474 
L 99.102302 54.825549 
L 99.947359 53.574816 
L 100.242538 53.120783 
L 100.461814 52.8852 
L 100.697114 52.589651 
L 100.808439 52.407609 
L 100.920608 52.193443 
L 101.496629 51.283235 
L 101.678797 50.925577 
L 101.816266 50.707127 
L 101.97482 50.473686 
L 102.053253 50.328052 
L 102.662166 49.083745 
L 102.976743 48.509779 
L 103.12096 48.177821 
L 103.74674 46.888539 
L 103.989631 46.539447 
L 104.417219 45.753456 
L 104.541195 45.543573 
L 105.024446 44.764007 
L 105.142518 44.519857 
L 105.322999 44.222166 
L 106.712029 41.71856 
L 106.825041 41.431577 
L 109.530571 38.156971 
L 109.662137 38.030613 
L 110.039967 37.568013 
L 110.194304 37.33243 
L 110.42117 37.143964 
L 110.586471 37.024031 
L 110.742494 36.897672 
L 110.909481 36.764889 
L 111.094179 36.580706 
L 111.288998 36.385814 
L 111.951887 35.925357 
L 112.829835 35.323549 
L 113.174773 35.124374 
L 113.306339 35.027999 
L 115.590185 33.991433 
L 116.237049 33.787975 
L 122.432445 32.685018 
L 123.741355 32.515826 
L 125.328577 32.329501 
L 126.878691 32.18601 
L 128.370613 32.00611 
L 133.744566 31.545652 
L 134.062517 31.522094 
L 136.245158 31.316494 
L 136.300821 31.312211 
L 137.808766 31.170861 
L 141.823207 30.682561 
L 142.567059 30.521936 
L 143.374164 30.357028 
L 143.502357 30.316336 
L 145.906804 29.695254 
L 146.634633 29.363296 
L 146.922222 29.224087 
L 147.082462 29.117004 
L 148.313782 28.476646 
L 148.449565 28.40383 
L 148.741371 28.260338 
L 149.055104 28.080438 
L 149.205224 27.999055 
L 149.641247 27.724922 
L 149.843655 27.570722 
L 150.158232 27.390822 
L 151.655214 26.311423 
L 151.779189 26.215048 
L 151.984972 26.086548 
L 152.140152 25.98589 
L 152.413404 25.769582 
L 152.711113 25.568265 
L 153.264364 25.163491 
L 153.422917 25.058549 
L 153.736651 24.855091 
L 154.926646 24.129067 
L 155.054838 24.036975 
L 155.539776 23.743567 
L 157.149769 22.852634 
L 157.451696 22.625618 
L 157.595069 22.559226 
L 158.562414 22.137318 
L 158.697353 22.092343 
L 159.197471 21.936002 
L 160.190961 21.552644 
L 160.68855 21.342761 
L 161.243487 21.175711 
L 161.920713 21.023653 
L 162.110471 20.959403 
L 162.85095 20.785928 
L 164.201185 20.516078 
L 165.139856 20.361878 
L 165.350699 20.314762 
L 166.381297 20.154137 
L 167.454907 19.860729 
L 167.573822 19.839312 
L 168.505746 19.640137 
L 169.524537 19.462379 
L 170.418509 19.288904 
L 175.448367 18.335863 
L 176.389568 18.185947 
L 177.116553 18.095997 
L 180.507744 17.633397 
L 181.442197 17.455639 
L 182.117737 17.350698 
L 183.326286 17.181506 
L 183.774115 17.110831 
L 185.485313 16.727473 
L 186.828801 16.29914 
L 186.947716 16.215615 
L 188.519758 15.528141 
L 188.657227 15.476741 
L 188.949877 15.333249 
L 189.18855 15.209033 
L 189.842162 14.9092 
L 191.062518 14.273125 
L 191.276734 14.178892 
L 191.56095 14.018267 
L 191.776853 13.915467 
L 192.044201 13.756984 
L 192.169863 13.675601 
L 195.996233 11.855186 
L 196.545267 11.615319 
L 196.674302 11.566061 
L 197.225023 11.360461 
L 198.145139 11.013511 
L 198.943811 10.782212 
L 199.080437 10.737237 
L 200.46525 10.450253 
L 200.733442 10.366729 
L 205.21764 9.835596 
L 207.385101 9.692104 
L 207.97799 9.647129 
L 207.97799 9.647129 
" clip-path="url(#p52de51f2ed)" style="fill: none; stroke-dasharray: 1.5,2.475; stroke-dashoffset: 0; stroke: #ff7f0e; stroke-width: 1.5"/>
   </g>
   <g id="line2d_21">
    <path d="M 50.849733 121.047062 
L 53.481048 120.925201 
L 53.945744 120.797248 
L 54.31008 120.654063 
L 54.664296 120.312854 
L 54.813572 120.169668 
L 54.934174 120.008204 
L 56.001037 117.854325 
L 56.263325 116.766723 
L 56.36959 116.556514 
L 56.516336 116.303654 
L 56.953202 115.307447 
L 57.064526 114.926634 
L 57.14043 114.713379 
L 57.394284 113.683661 
L 57.489585 113.397289 
L 57.654885 113.01343 
L 57.808379 112.50771 
L 57.987173 112.026362 
L 58.065607 111.764363 
L 58.21151 111.258643 
L 58.375967 110.57318 
L 58.819579 108.556394 
L 59.103795 107.31342 
L 59.381264 105.896796 
L 59.538974 104.431427 
L 59.809696 103.285941 
L 60.641258 99.87081 
L 60.939811 98.521209 
L 61.030895 98.128209 
L 61.400291 96.382563 
L 61.588363 95.532588 
L 61.636435 95.3041 
L 61.986434 93.579779 
L 62.013421 93.488383 
L 62.126433 92.970478 
L 63.437873 88.647488 
L 63.544138 88.345884 
L 63.717872 87.803606 
L 64.273653 86.210285 
L 64.358833 85.984843 
L 64.871602 84.5408 
L 64.941602 84.370196 
L 65.142324 83.73043 
L 65.722562 82.04876 
L 66.075091 80.912413 
L 66.392198 79.41658 
L 66.495933 79.206371 
L 66.644366 78.941325 
L 66.962316 78.389908 
L 67.424483 77.134748 
L 67.51894 76.961097 
L 67.913638 76.312192 
L 68.155685 75.839984 
L 68.249299 75.693752 
L 69.069054 74.002942 
L 69.139898 73.850616 
L 69.585197 72.820898 
L 69.764835 72.327364 
L 69.879533 72.132388 
L 70.010255 71.906947 
L 70.193267 71.593157 
L 70.409169 71.227576 
L 71.995548 68.58321 
L 72.12374 68.443071 
L 72.404583 67.998282 
L 72.567353 67.745422 
L 73.163616 66.59689 
L 73.443614 66.350123 
L 73.579397 66.252635 
L 73.745541 66.075937 
L 73.96566 65.902287 
L 74.179876 65.701217 
L 74.301322 65.625055 
L 74.594814 65.390474 
L 74.724693 65.247288 
L 74.968427 65.076684 
L 75.121077 64.936545 
L 76.859263 63.806292 
L 77.189864 63.666152 
L 77.318056 63.571711 
L 78.752628 62.825317 
L 79.09588 62.685178 
L 79.752865 62.267807 
L 79.892021 62.179458 
L 80.362622 62.014947 
L 80.521175 61.966203 
L 82.33442 61.381274 
L 83.216585 61.091856 
L 83.4755 61.000461 
L 85.987056 60.284533 
L 86.0832 60.263207 
L 86.505728 60.132207 
L 86.678619 60.083463 
L 87.548134 59.879347 
L 87.681386 59.842789 
L 88.291986 59.672185 
L 88.606563 59.577744 
L 89.645595 59.303558 
L 89.971135 59.199977 
L 91.434382 58.959303 
L 92.456547 58.758234 
L 92.561125 58.733862 
L 93.413772 58.548025 
L 101.219161 57.094843 
L 101.418196 57.027819 
L 104.407099 55.361382 
L 104.610351 55.215149 
L 105.313722 54.730755 
L 105.432637 54.627174 
L 105.644323 54.44743 
L 106.095526 54.075757 
L 106.352753 53.865548 
L 106.515524 53.688851 
L 107.538532 52.911992 
L 107.754434 52.726155 
L 107.933229 52.625621 
L 108.155035 52.476342 
L 108.72431 52.12904 
L 110.000328 51.339996 
L 110.131051 51.199857 
L 110.262617 51.108461 
L 110.704542 50.907392 
L 111.214781 50.605788 
L 111.554659 50.444324 
L 111.934176 50.234115 
L 114.945007 48.802258 
L 115.430788 48.607281 
L 115.622233 48.485421 
L 117.067769 47.742074 
L 118.003066 47.419145 
L 118.160776 47.385633 
L 118.690413 47.224168 
L 118.856556 47.148006 
L 122.112808 46.084776 
L 122.960395 45.865428 
L 123.165333 45.816683 
L 123.70003 45.630847 
L 126.191345 45.018499 
L 126.420742 44.957569 
L 134.657936 42.937737 
L 135.613474 42.773226 
L 136.003954 42.715342 
L 137.069974 42.468575 
L 137.159371 42.432017 
L 147.898844 40.738161 
L 148.462215 40.463975 
L 148.94884 40.217208 
L 149.073659 40.125813 
L 149.469199 39.796791 
L 149.708716 39.583536 
L 149.874017 39.434257 
L 150.56558 38.678724 
L 150.686182 38.465468 
L 150.817748 38.310097 
L 150.974614 38.148632 
L 151.370155 37.655098 
L 151.485697 37.481448 
L 152.158706 36.491334 
L 152.254007 36.342055 
L 152.367862 36.134893 
L 152.478343 35.982567 
L 152.938823 35.257499 
L 153.067859 35.062523 
L 153.271111 34.739594 
L 153.520748 34.36792 
L 153.669181 34.090688 
L 153.78135 33.901805 
L 153.932313 33.472248 
L 154.187854 32.960435 
L 154.358215 32.701482 
L 154.550503 32.409018 
L 154.783273 32.116553 
L 154.900502 31.903298 
L 155.107971 31.482881 
L 155.305319 31.184323 
L 157.083986 28.198749 
L 157.198685 28.046424 
L 157.718201 27.181216 
L 157.854826 27.031938 
L 158.213259 26.55973 
L 158.341451 26.401311 
L 158.464583 26.224614 
L 161.37927 22.885645 
L 161.732642 22.605367 
L 166.113105 18.782004 
L 166.355996 18.641865 
L 166.567682 18.486493 
L 168.893696 17.40803 
L 169.454537 17.219147 
L 171.034169 16.631172 
L 171.241638 16.555009 
L 171.550311 16.457521 
L 172.235128 16.244266 
L 172.344766 16.207708 
L 173.13163 16.04015 
L 173.278376 16.003592 
L 174.179939 15.729407 
L 174.292107 15.677616 
L 175.283067 15.488733 
L 175.859932 15.354687 
L 176.008365 15.327268 
L 183.782549 14.023364 
L 184.955677 13.892364 
L 186.165913 13.736993 
L 187.591208 13.581621 
L 190.32457 13.301343 
L 190.827218 13.261738 
L 193.557207 13.014971 
L 193.658411 12.984506 
L 194.857683 12.85046 
L 195.0019 12.826088 
L 207.928231 11.251045 
L 207.928231 11.251045 
" clip-path="url(#p52de51f2ed)" style="fill: none; stroke-dasharray: 5.55,2.4; stroke-dashoffset: 0; stroke: #2ca02c; stroke-width: 1.5"/>
   </g>
   <g id="line2d_22">
    <path d="M 51.237683 121.043541 
L 53.518156 120.918758 
L 53.901046 120.780841 
L 54.563935 120.419629 
L 55.828146 118.245788 
L 56.081157 117.280366 
L 56.292 116.505401 
L 56.399108 116.282106 
L 56.625131 115.809247 
L 57.707174 112.039504 
L 57.75103 111.875317 
L 57.918017 111.146325 
L 58.277292 109.905068 
L 58.482231 108.801729 
L 58.583436 108.361707 
L 58.748736 107.48823 
L 58.820423 107.107315 
L 59.112229 105.688736 
L 59.158614 105.412901 
L 59.343312 104.270157 
L 59.387167 103.941782 
L 60.014635 99.90934 
L 60.14114 99.423345 
L 60.276923 98.838838 
L 60.326681 98.595841 
L 60.439693 98.044171 
L 60.793908 96.218407 
L 61.737639 90.741116 
L 61.881012 89.729722 
L 62.753057 85.887737 
L 63.071851 84.272133 
L 63.288597 83.733598 
L 63.494379 82.998039 
L 63.610764 82.617124 
L 63.762571 81.980077 
L 64.388351 79.983558 
L 64.519074 79.576374 
L 64.729073 78.801409 
L 65.085818 77.573287 
L 65.306781 76.719513 
L 66.011838 74.414322 
L 66.130753 73.882355 
L 66.444487 72.279886 
L 66.747257 71.872701 
L 66.882196 71.655974 
L 66.974967 71.485219 
L 67.74918 69.764535 
L 67.860505 69.600348 
L 68.11942 69.232568 
L 68.945079 67.866529 
L 69.165199 67.531587 
L 69.42074 67.170374 
L 69.514354 66.993052 
L 69.599534 66.776325 
L 69.799413 66.428247 
L 70.12158 66.152413 
L 70.282664 65.961955 
L 70.621699 65.561338 
L 70.770975 65.265801 
L 70.923625 65.081911 
L 71.236515 64.858616 
L 71.392539 64.681294 
L 71.58061 64.543376 
L 72.604461 63.801249 
L 72.919882 63.525414 
L 73.121447 63.17077 
L 73.724457 62.789855 
L 74.492767 62.376103 
L 74.817464 62.179078 
L 75.64987 61.666813 
L 76.34312 61.272763 
L 76.469626 61.147981 
L 77.479983 60.753931 
L 77.688295 60.701391 
L 81.506231 59.460135 
L 82.347914 59.302515 
L 83.098514 59.112057 
L 85.895128 58.376498 
L 86.430668 58.232013 
L 87.114641 58.034988 
L 92.524016 56.957919 
L 93.175098 56.820001 
L 94.988343 56.439087 
L 95.97846 56.268332 
L 96.202796 56.215792 
L 96.68436 56.064739 
L 100.299887 55.099318 
L 100.597597 54.98767 
L 101.057233 54.823483 
L 104.556375 53.798953 
L 106.33926 53.424606 
L 106.596487 53.385201 
L 110.321652 52.689047 
L 112.622366 52.275295 
L 115.871027 51.224495 
L 116.24464 51.040605 
L 116.656204 50.837013 
L 116.980902 50.567746 
L 117.470056 50.410126 
L 117.613429 50.337883 
L 117.832705 50.186831 
L 118.035114 49.996374 
L 118.419691 49.792781 
L 118.561377 49.641729 
L 119.142459 49.319922 
L 122.178591 47.3037 
L 122.736902 46.955623 
L 125.892792 44.939402 
L 126.050502 44.834322 
L 126.742909 44.49938 
L 126.934354 44.36803 
L 127.111462 44.276085 
L 127.755796 43.987115 
L 127.881458 43.941143 
L 129.958678 43.153043 
L 130.399761 42.975721 
L 130.498435 42.923181 
L 131.52566 42.601374 
L 131.901803 42.529131 
L 132.489632 42.378079 
L 133.189629 42.187621 
L 134.147697 41.984029 
L 134.238781 41.970894 
L 135.081308 41.773869 
L 135.906123 41.550574 
L 136.057087 41.478332 
L 136.98648 41.353549 
L 140.402129 40.48664 
L 140.539598 40.40783 
L 141.51875 40.079455 
L 141.795376 39.915268 
L 142.9626 39.087763 
L 143.566453 38.562364 
L 143.746091 38.417879 
L 143.900427 38.188017 
L 144.053077 37.997559 
L 144.225968 37.793967 
L 144.35416 37.649482 
L 144.561629 37.439322 
L 144.719339 37.23573 
L 144.849218 37.071542 
L 145.040663 36.749735 
L 145.191627 36.57898 
L 145.366204 36.303145 
L 145.518854 36.10612 
L 145.768492 35.744908 
L 145.921985 35.554451 
L 146.079695 35.193239 
L 146.249213 34.963376 
L 146.402706 34.615299 
L 146.552826 34.385437 
L 146.777162 33.945414 
L 146.885113 33.774659 
L 147.03439 33.479122 
L 147.144871 33.157315 
L 147.34222 32.48743 
L 148.037157 31.430064 
L 148.151855 31.259309 
L 148.40824 30.661667 
L 148.533058 30.444939 
L 152.644487 22.675592 
L 152.840149 22.386622 
L 152.998702 22.202732 
L 153.559543 21.506578 
L 153.758579 21.178203 
L 154.065565 20.626533 
L 154.214842 20.482048 
L 154.415564 20.245619 
L 154.586768 20.081431 
L 154.691346 20.028891 
L 154.776526 19.897541 
L 154.94267 19.628274 
L 155.104597 19.444384 
L 155.2505 19.293332 
L 155.762426 18.859877 
L 157.186877 17.441298 
L 157.309166 17.316516 
L 157.458443 17.158896 
L 157.843863 16.935601 
L 158.066512 16.777981 
L 159.361929 15.983314 
L 159.534819 15.851964 
L 160.682646 15.10327 
L 160.806621 15.017892 
L 162.364326 14.5516 
L 162.578542 14.426818 
L 163.101431 14.249495 
L 163.30637 14.150983 
L 163.988656 13.980228 
L 164.1548 13.888283 
L 172.852474 12.101924 
L 173.845964 11.944304 
L 176.420773 11.45831 
L 177.75161 11.280987 
L 181.709546 10.61767 
L 182.958577 10.479753 
L 185.250013 10.177648 
L 186.103503 10.09227 
L 188.157109 9.875543 
L 189.059515 9.750761 
L 190.972278 9.593141 
L 191.096253 9.560303 
L 194.970695 9.231929 
L 195.076959 9.199091 
L 197.338878 9.061174 
L 197.659358 9.034904 
L 199.720554 8.857581 
L 201.049706 8.726231 
L 207.484618 8.365019 
L 208.122206 8.358452 
L 208.122206 8.358452 
" clip-path="url(#p52de51f2ed)" style="fill: none; stroke-dasharray: 9.6,2.4,1.5,2.4; stroke-dashoffset: 0; stroke: #d62728; stroke-width: 1.5"/>
   </g>
   <g id="patch_3">
    <path d="M 47.676976 126.814399 
L 47.676976 0 
" style="fill: none; stroke: #000000; stroke-width: 0.8; stroke-linejoin: miter; stroke-linecap: square"/>
   </g>
   <g id="patch_4">
    <path d="M 207.917267 126.814399 
L 207.917267 0 
" style="fill: none; stroke: #000000; stroke-width: 0.8; stroke-linejoin: miter; stroke-linecap: square"/>
   </g>
   <g id="patch_5">
    <path d="M 47.676976 126.814399 
L 207.917267 126.814399 
" style="fill: none; stroke: #000000; stroke-width: 0.8; stroke-linejoin: miter; stroke-linecap: square"/>
   </g>
   <g id="patch_6">
    <path d="M 47.676976 0 
L 207.917267 0 
" style="fill: none; stroke: #000000; stroke-width: 0.8; stroke-linejoin: miter; stroke-linecap: square"/>
   </g>
   <g id="legend_1">
    <g id="patch_7">
     <path d="M 69.788867 120.983399 
L 202.086267 120.983399 
L 202.086267 90.109005 
L 69.788867 90.109005 
z
" style="fill: #ffffff; opacity: 0.8; stroke: #000000; stroke-linejoin: miter"/>
    </g>
    <g id="line2d_23">
     <path d="M 74.453667 98.855505 
L 80.284667 98.855505 
L 86.115667 98.855505 
" style="fill: none; stroke-dasharray: 5.55,2.4; stroke-dashoffset: 0; stroke: #2ca02c; stroke-width: 1.5"/>
    </g>
    <g id="text_16">
     <!-- Bogotá -->
     <g transform="translate(89.614267 102.937205) scale(0.11662 -0.11662)">
      <defs>
       <path id="CMR17-42" d="M 333 4352 
L 333 4186 
C 774 4186 845 4186 845 3900 
L 845 452 
C 845 166 774 166 333 166 
L 333 0 
L 2534 0 
C 3354 0 3885 583 3885 1164 
C 3885 1741 3360 2233 2675 2233 
C 3290 2356 3718 2771 3718 3264 
C 3718 3802 3194 4352 2368 4352 
L 333 4352 
z
M 1248 2304 
L 1248 3937 
C 1248 4155 1261 4186 1517 4186 
L 2336 4186 
C 2970 4186 3251 3674 3251 3277 
C 3251 2791 2861 2304 2170 2304 
L 1248 2304 
z
M 1517 166 
C 1261 166 1248 197 1248 413 
L 1248 2202 
L 2432 2202 
C 3091 2202 3411 1625 3411 1162 
C 3411 699 3046 166 2349 166 
L 1517 166 
z
" transform="scale(0.015625)"/>
       <path id="CMR17-6f" d="M 2758 1356 
C 2758 2176 2163 2816 1466 2816 
C 768 2816 173 2176 173 1356 
C 173 551 768 -64 1466 -64 
C 2163 -64 2758 551 2758 1356 
z
M 1466 51 
C 1165 51 909 230 762 480 
C 602 767 582 1126 582 1408 
C 582 1677 595 2010 762 2298 
C 890 2509 1139 2714 1466 2714 
C 1754 2714 1997 2554 2150 2330 
C 2349 2029 2349 1607 2349 1408 
C 2349 1158 2336 775 2163 467 
C 1984 173 1709 51 1466 51 
z
" transform="scale(0.015625)"/>
       <path id="CMR17-67" d="M 710 1164 
C 832 1068 1043 960 1299 960 
C 1805 960 2240 1357 2240 1888 
C 2240 2054 2189 2310 1997 2509 
C 2176 2692 2438 2752 2586 2752 
C 2611 2752 2650 2752 2682 2734 
C 2656 2728 2598 2703 2598 2605 
C 2598 2527 2656 2471 2739 2471 
C 2835 2471 2886 2533 2886 2614 
C 2886 2731 2790 2854 2586 2854 
C 2330 2854 2106 2738 1926 2580 
C 1734 2753 1504 2816 1299 2816 
C 794 2816 358 2419 358 1888 
C 358 1522 570 1292 634 1228 
C 442 1004 442 743 442 711 
C 442 545 506 302 723 168 
C 390 85 128 -169 128 -486 
C 128 -943 736 -1280 1466 -1280 
C 2170 -1280 2803 -956 2803 -479 
C 2803 384 1856 384 1363 384 
C 1216 384 954 384 922 391 
C 723 423 589 602 589 826 
C 589 883 589 1024 710 1164 
z
M 1299 1068 
C 736 1068 736 1760 736 1889 
C 736 2016 736 2708 1299 2708 
C 1862 2708 1862 2016 1862 1889 
C 1862 1760 1862 1068 1299 1068 
z
M 1466 -1171 
C 826 -1171 384 -835 384 -486 
C 384 -289 493 -105 634 -4 
C 794 104 858 104 1293 104 
C 1818 104 2547 104 2547 -486 
C 2547 -835 2106 -1171 1466 -1171 
z
" transform="scale(0.015625)"/>
       <path id="CMR17-13" d="M 2221 4091 
C 2298 4161 2317 4174 2317 4244 
C 2317 4339 2234 4416 2144 4416 
C 2067 4416 2042 4384 1978 4308 
L 1254 3390 
C 1210 3333 1210 3327 1210 3320 
C 1210 3314 1267 3256 1280 3244 
L 2221 4091 
z
" transform="scale(0.015625)"/>
       <path id="CMR17-61" d="M 2304 1653 
C 2304 2072 2304 2294 2035 2543 
C 1798 2752 1523 2816 1306 2816 
C 800 2816 435 2407 435 1971 
C 435 1728 627 1728 666 1728 
C 749 1728 896 1778 896 1954 
C 896 2112 774 2181 666 2181 
C 640 2181 608 2174 589 2168 
C 723 2592 1069 2714 1293 2714 
C 1613 2714 1965 2429 1965 1885 
L 1965 1600 
C 1587 1600 1133 1549 774 1357 
C 371 1133 256 813 256 570 
C 256 77 832 -64 1171 -64 
C 1523 -64 1850 139 1990 511 
C 2003 233 2182 -18 2464 -18 
C 2598 -18 2938 70 2938 567 
L 2938 920 
L 2822 920 
L 2822 562 
C 2822 178 2650 128 2566 128 
C 2304 128 2304 458 2304 738 
L 2304 1653 
z
M 1965 870 
C 1965 317 1568 38 1216 38 
C 896 38 646 275 646 570 
C 646 761 730 1100 1101 1305 
C 1408 1478 1760 1504 1965 1504 
L 1965 870 
z
" transform="scale(0.015625)"/>
      </defs>
      <use xlink:href="#CMR17-42" transform="scale(0.996264)"/>
      <use xlink:href="#CMR17-6f" transform="translate(65.188754 0) scale(0.996264)"/>
      <use xlink:href="#CMR17-67" transform="translate(110.879232 0) scale(0.996264)"/>
      <use xlink:href="#CMR17-6f" transform="translate(156.569709 0) scale(0.996264)"/>
      <use xlink:href="#CMR17-74" transform="translate(202.260186 0) scale(0.996264)"/>
      <use xlink:href="#CMR17-13" transform="translate(237.540954 0) scale(0.996264)"/>
      <use xlink:href="#CMR17-61" transform="translate(237.540954 0) scale(0.996264)"/>
     </g>
    </g>
    <g id="line2d_24">
     <path d="M 74.453667 109.977762 
L 80.284667 109.977762 
L 86.115667 109.977762 
" style="fill: none; stroke-dasharray: 9.6,2.4,1.5,2.4; stroke-dashoffset: 0; stroke: #d62728; stroke-width: 1.5"/>
    </g>
    <g id="text_17">
     <!-- Lima -->
     <g transform="translate(89.614267 114.059462) scale(0.11662 -0.11662)">
      <defs>
       <path id="CMR17-4c" d="M 3469 1615 
L 3354 1615 
C 3302 983 3219 166 2125 166 
L 1530 166 
C 1274 166 1261 197 1261 414 
L 1261 3898 
C 1261 4129 1274 4192 1760 4192 
L 1901 4192 
L 1901 4352 
C 1638 4352 1331 4352 1069 4352 
C 870 4352 512 4352 326 4352 
L 326 4192 
C 768 4192 838 4192 838 3905 
L 838 452 
C 838 166 768 166 326 166 
L 326 0 
L 3315 0 
L 3469 1615 
z
" transform="scale(0.015625)"/>
      </defs>
      <use xlink:href="#CMR17-4c" transform="scale(0.996264)"/>
      <use xlink:href="#CMR17-69" transform="translate(57.381408 0) scale(0.996264)"/>
      <use xlink:href="#CMR17-6d" transform="translate(82.252466 0) scale(0.996264)"/>
      <use xlink:href="#CMR17-61" transform="translate(159.172056 0) scale(0.996264)"/>
     </g>
    </g>
    <g id="line2d_25">
     <path d="M 131.430196 98.855505 
L 137.261196 98.855505 
L 143.092196 98.855505 
" style="fill: none; stroke-dasharray: 1.5,2.475; stroke-dashoffset: 0; stroke: #ff7f0e; stroke-width: 1.5"/>
    </g>
    <g id="text_18">
     <!-- Santiago -->
     <g transform="translate(146.590796 102.937205) scale(0.11662 -0.11662)">
      <defs>
       <path id="CMR17-53" d="M 2803 4290 
C 2803 4404 2797 4411 2758 4411 
C 2720 4411 2707 4385 2682 4328 
L 2490 3907 
C 2246 4257 1875 4416 1472 4416 
C 819 4416 294 3901 294 3253 
C 294 3056 339 2776 557 2510 
C 794 2218 1018 2167 1530 2033 
C 1722 1982 2042 1899 2106 1874 
C 2470 1722 2662 1341 2662 985 
C 2662 527 2336 38 1779 38 
C 1094 38 454 419 410 1311 
C 403 1413 397 1419 352 1419 
C 301 1419 294 1413 294 1285 
L 294 -1 
C 294 -115 301 -122 339 -122 
C 384 -122 397 -90 486 108 
C 493 127 493 140 614 381 
C 934 -39 1472 -128 1779 -128 
C 2477 -128 2970 451 2970 1124 
C 2970 1454 2848 1708 2778 1823 
C 2509 2230 2221 2306 1914 2382 
C 1869 2402 1856 2402 1498 2490 
C 1152 2579 1005 2624 845 2796 
C 666 2992 602 3196 602 3399 
C 602 3812 934 4263 1478 4263 
C 2157 4263 2579 3786 2675 2993 
C 2694 2878 2701 2872 2746 2872 
C 2803 2872 2803 2891 2803 2999 
L 2803 4290 
z
" transform="scale(0.015625)"/>
      </defs>
      <use xlink:href="#CMR17-53" transform="scale(0.996264)"/>
      <use xlink:href="#CMR17-61" transform="translate(50.89537 0) scale(0.996264)"/>
      <use xlink:href="#CMR17-6e" transform="translate(96.585847 0) scale(0.996264)"/>
      <use xlink:href="#CMR17-74" transform="translate(144.878763 0) scale(0.996264)"/>
      <use xlink:href="#CMR17-69" transform="translate(180.159531 0) scale(0.996264)"/>
      <use xlink:href="#CMR17-61" transform="translate(205.030589 0) scale(0.996264)"/>
      <use xlink:href="#CMR17-67" transform="translate(250.721066 0) scale(0.996264)"/>
      <use xlink:href="#CMR17-6f" transform="translate(296.411543 0) scale(0.996264)"/>
     </g>
    </g>
    <g id="line2d_26">
     <path d="M 131.430196 109.977762 
L 137.261196 109.977762 
L 143.092196 109.977762 
" style="fill: none; stroke: #1f77b4; stroke-width: 1.5; stroke-linecap: square"/>
    </g>
    <g id="text_19">
     <!-- São Paulo -->
     <g transform="translate(146.590796 114.059462) scale(0.11662 -0.11662)">
      <defs>
       <path id="CMR17-7e" d="M 2400 4184 
C 2182 3980 2061 3865 1862 3865 
C 1722 3865 1626 3932 1491 4024 
C 1363 4111 1261 4184 1120 4184 
C 890 4184 730 4004 461 3718 
L 531 3648 
C 749 3850 870 3968 1069 3968 
C 1210 3968 1306 3900 1440 3808 
C 1568 3722 1670 3648 1811 3648 
C 2042 3648 2202 3828 2470 4114 
L 2400 4184 
z
" transform="scale(0.015625)"/>
       <path id="CMR17-75" d="M 1882 2693 
L 1882 2528 
C 2259 2528 2317 2489 2317 2186 
L 2317 1032 
C 2317 500 2029 38 1555 38 
C 1030 38 986 348 986 678 
L 986 2763 
L 211 2693 
L 211 2528 
C 467 2528 640 2528 646 2274 
L 646 1058 
C 646 633 646 361 813 183 
C 896 101 1056 -64 1517 -64 
C 2061 -64 2272 377 2323 506 
L 2330 506 
L 2330 -63 
L 3091 -63 
L 3091 128 
C 2714 128 2656 166 2656 473 
L 2656 2763 
L 1882 2693 
z
" transform="scale(0.015625)"/>
      </defs>
      <use xlink:href="#CMR17-53" transform="scale(0.996264)"/>
      <use xlink:href="#CMR17-7e" transform="translate(50.89537 0) scale(0.996264)"/>
      <use xlink:href="#CMR17-61" transform="translate(50.89537 0) scale(0.996264)"/>
      <use xlink:href="#CMR17-6f" transform="translate(96.585847 0) scale(0.996264)"/>
      <use xlink:href="#CMR17-50" transform="translate(172.35229 0) scale(0.996264)"/>
      <use xlink:href="#CMR17-61" transform="translate(232.336137 0) scale(0.996264)"/>
      <use xlink:href="#CMR17-75" transform="translate(278.026614 0) scale(0.996264)"/>
      <use xlink:href="#CMR17-6c" transform="translate(328.921984 0) scale(0.996264)"/>
      <use xlink:href="#CMR17-6f" transform="translate(353.793042 0) scale(0.996264)"/>
     </g>
    </g>
   </g>
  </g>
 </g>
 <defs>
  <clipPath id="p52de51f2ed">
   <rect x="47.676976" y="0" width="160.240292" height="126.814399"/>
  </clipPath>
 </defs>
</svg>
