<?xml version="1.0" encoding="utf-8" standalone="no"?>
<!DOCTYPE svg PUBLIC "-//W3C//DTD SVG 1.1//EN"
  "http://www.w3.org/Graphics/SVG/1.1/DTD/svg11.dtd">
<svg xmlns:xlink="http://www.w3.org/1999/xlink" width="420.48pt" height="119.13pt" viewBox="0 0 420.48 119.13" xmlns="http://www.w3.org/2000/svg" version="1.1">
 <metadata>
  <rdf:RDF xmlns:dc="http://purl.org/dc/elements/1.1/" xmlns:cc="http://creativecommons.org/ns#" xmlns:rdf="http://www.w3.org/1999/02/22-rdf-syntax-ns#">
   <cc:Work>
    <dc:type rdf:resource="http://purl.org/dc/dcmitype/StillImage"/>
    <dc:date>2023-10-12T10:42:02.689152</dc:date>
    <dc:format>image/svg+xml</dc:format>
    <dc:creator>
     <cc:Agent>
      <dc:title>Matplotlib v3.7.0, https://matplotlib.org/</dc:title>
     </cc:Agent>
    </dc:creator>
   </cc:Work>
  </rdf:RDF>
 </metadata>
 <defs>
  <style type="text/css">*{stroke-linejoin: round; stroke-linecap: butt}</style>
 </defs>
 <g id="figure_1">
  <g id="patch_1">
   <path d="M 0 119.13 
L 420.48 119.13 
L 420.48 0 
L 0 0 
z
" style="fill: #ffffff"/>
  </g>
  <g id="axes_1">
   <g id="patch_2">
    <path d="M 42.437408 85.548056 
L 223.515456 85.548056 
L 223.515456 22.65 
L 42.437408 22.65 
z
" style="fill: #ffffff"/>
   </g>
   <g id="matplotlib.axis_1">
    <g id="xtick_1">
     <g id="line2d_1">
      <defs>
       <path id="m78bdd21d6d" d="M 0 0 
L 0 3.5 
" style="stroke: #000000; stroke-width: 0.8"/>
      </defs>
      <g>
       <use xlink:href="#m78bdd21d6d" x="42.437408" y="85.548056" style="stroke: #000000; stroke-width: 0.8"/>
      </g>
     </g>
     <g id="text_1">
      <!-- 0 -->
      <g transform="translate(39.510912 100.850236) scale(0.12 -0.12)">
       <defs>
        <path id="CMR17-30" d="M 2688 2025 
C 2688 2416 2682 3080 2413 3591 
C 2176 4039 1798 4198 1466 4198 
C 1158 4198 768 4058 525 3597 
C 269 3118 243 2524 243 2025 
C 243 1661 250 1106 448 619 
C 723 -39 1216 -128 1466 -128 
C 1760 -128 2208 -7 2470 600 
C 2662 1042 2688 1559 2688 2025 
z
M 1466 -26 
C 1056 -26 813 325 723 812 
C 653 1188 653 1738 653 2096 
C 653 2588 653 2997 736 3387 
C 858 3929 1216 4096 1466 4096 
C 1728 4096 2067 3923 2189 3400 
C 2272 3036 2278 2607 2278 2096 
C 2278 1680 2278 1169 2202 792 
C 2067 95 1690 -26 1466 -26 
z
" transform="scale(0.015625)"/>
       </defs>
       <use xlink:href="#CMR17-30" transform="scale(0.996264)"/>
      </g>
     </g>
    </g>
    <g id="xtick_2">
     <g id="line2d_2">
      <g>
       <use xlink:href="#m78bdd21d6d" x="72.617082" y="85.548056" style="stroke: #000000; stroke-width: 0.8"/>
      </g>
     </g>
     <g id="text_2">
      <!-- 100 -->
      <g transform="translate(63.837597 100.850236) scale(0.12 -0.12)">
       <defs>
        <path id="CMR17-31" d="M 1702 4058 
C 1702 4192 1696 4192 1606 4192 
C 1357 3916 979 3827 621 3827 
C 602 3827 570 3827 563 3808 
C 557 3795 557 3782 557 3648 
C 755 3648 1088 3686 1344 3839 
L 1344 461 
C 1344 236 1331 160 781 160 
L 589 160 
L 589 0 
C 896 0 1216 0 1523 0 
C 1830 0 2150 0 2458 0 
L 2458 160 
L 2266 160 
C 1715 160 1702 230 1702 458 
L 1702 4058 
z
" transform="scale(0.015625)"/>
       </defs>
       <use xlink:href="#CMR17-31" transform="scale(0.996264)"/>
       <use xlink:href="#CMR17-30" transform="translate(45.690477 0) scale(0.996264)"/>
       <use xlink:href="#CMR17-30" transform="translate(91.380954 0) scale(0.996264)"/>
      </g>
     </g>
    </g>
    <g id="xtick_3">
     <g id="line2d_3">
      <g>
       <use xlink:href="#m78bdd21d6d" x="102.796757" y="85.548056" style="stroke: #000000; stroke-width: 0.8"/>
      </g>
     </g>
     <g id="text_3">
      <!-- 200 -->
      <g transform="translate(94.017272 100.850236) scale(0.12 -0.12)">
       <defs>
        <path id="CMR17-32" d="M 2669 989 
L 2554 989 
C 2490 536 2438 459 2413 420 
C 2381 369 1920 369 1830 369 
L 602 369 
C 832 619 1280 1072 1824 1597 
C 2214 1967 2669 2402 2669 3035 
C 2669 3790 2067 4224 1395 4224 
C 691 4224 262 3604 262 3030 
C 262 2780 448 2748 525 2748 
C 589 2748 781 2787 781 3010 
C 781 3207 614 3264 525 3264 
C 486 3264 448 3258 422 3245 
C 544 3790 915 4058 1306 4058 
C 1862 4058 2227 3617 2227 3035 
C 2227 2479 1901 2000 1536 1584 
L 262 146 
L 262 0 
L 2515 0 
L 2669 989 
z
" transform="scale(0.015625)"/>
       </defs>
       <use xlink:href="#CMR17-32" transform="scale(0.996264)"/>
       <use xlink:href="#CMR17-30" transform="translate(45.690477 0) scale(0.996264)"/>
       <use xlink:href="#CMR17-30" transform="translate(91.380954 0) scale(0.996264)"/>
      </g>
     </g>
    </g>
    <g id="xtick_4">
     <g id="line2d_4">
      <g>
       <use xlink:href="#m78bdd21d6d" x="132.976432" y="85.548056" style="stroke: #000000; stroke-width: 0.8"/>
      </g>
     </g>
     <g id="text_4">
      <!-- 300 -->
      <g transform="translate(124.196947 100.850236) scale(0.12 -0.12)">
       <defs>
        <path id="CMR17-33" d="M 1414 2157 
C 1984 2157 2234 1662 2234 1090 
C 2234 320 1824 25 1453 25 
C 1114 25 563 194 390 693 
C 422 680 454 680 486 680 
C 640 680 755 782 755 948 
C 755 1133 614 1216 486 1216 
C 378 1216 211 1165 211 926 
C 211 335 787 -128 1466 -128 
C 2176 -128 2720 430 2720 1085 
C 2720 1707 2208 2157 1600 2227 
C 2086 2328 2554 2756 2554 3329 
C 2554 3820 2048 4179 1472 4179 
C 890 4179 378 3829 378 3329 
C 378 3110 544 3072 627 3072 
C 762 3072 877 3155 877 3321 
C 877 3486 762 3569 627 3569 
C 602 3569 570 3569 544 3557 
C 730 3959 1235 4032 1459 4032 
C 1683 4032 2106 3925 2106 3320 
C 2106 3143 2080 2828 1862 2550 
C 1670 2304 1453 2304 1242 2284 
C 1210 2284 1062 2269 1037 2269 
C 992 2263 966 2257 966 2208 
C 966 2163 973 2157 1101 2157 
L 1414 2157 
z
" transform="scale(0.015625)"/>
       </defs>
       <use xlink:href="#CMR17-33" transform="scale(0.996264)"/>
       <use xlink:href="#CMR17-30" transform="translate(45.690477 0) scale(0.996264)"/>
       <use xlink:href="#CMR17-30" transform="translate(91.380954 0) scale(0.996264)"/>
      </g>
     </g>
    </g>
    <g id="xtick_5">
     <g id="line2d_5">
      <g>
       <use xlink:href="#m78bdd21d6d" x="163.156107" y="85.548056" style="stroke: #000000; stroke-width: 0.8"/>
      </g>
     </g>
     <g id="text_5">
      <!-- 400 -->
      <g transform="translate(154.376621 100.850236) scale(0.12 -0.12)">
       <defs>
        <path id="CMR17-34" d="M 2150 4122 
C 2150 4256 2144 4256 2029 4256 
L 128 1254 
L 128 1088 
L 1779 1088 
L 1779 457 
C 1779 224 1766 160 1318 160 
L 1197 160 
L 1197 0 
C 1402 0 1747 0 1965 0 
C 2182 0 2528 0 2733 0 
L 2733 160 
L 2611 160 
C 2163 160 2150 224 2150 457 
L 2150 1088 
L 2803 1088 
L 2803 1254 
L 2150 1254 
L 2150 4122 
z
M 1798 3703 
L 1798 1254 
L 256 1254 
L 1798 3703 
z
" transform="scale(0.015625)"/>
       </defs>
       <use xlink:href="#CMR17-34" transform="scale(0.996264)"/>
       <use xlink:href="#CMR17-30" transform="translate(45.690477 0) scale(0.996264)"/>
       <use xlink:href="#CMR17-30" transform="translate(91.380954 0) scale(0.996264)"/>
      </g>
     </g>
    </g>
    <g id="xtick_6">
     <g id="line2d_6">
      <g>
       <use xlink:href="#m78bdd21d6d" x="193.335781" y="85.548056" style="stroke: #000000; stroke-width: 0.8"/>
      </g>
     </g>
     <g id="text_6">
      <!-- 500 -->
      <g transform="translate(184.556296 100.850236) scale(0.12 -0.12)">
       <defs>
        <path id="CMR17-35" d="M 730 3692 
C 794 3666 1056 3584 1325 3584 
C 1920 3584 2246 3911 2432 4100 
C 2432 4157 2432 4192 2394 4192 
C 2387 4192 2374 4192 2323 4163 
C 2099 4058 1837 3973 1517 3973 
C 1325 3973 1037 3999 723 4139 
C 653 4171 640 4171 634 4171 
C 602 4171 595 4164 595 4037 
L 595 2203 
C 595 2089 595 2057 659 2057 
C 691 2057 704 2070 736 2114 
C 941 2401 1222 2522 1542 2522 
C 1766 2522 2246 2382 2246 1289 
C 2246 1085 2246 715 2054 421 
C 1894 159 1645 25 1370 25 
C 947 25 518 320 403 814 
C 429 807 480 795 506 795 
C 589 795 749 840 749 1038 
C 749 1210 627 1280 506 1280 
C 358 1280 262 1190 262 1011 
C 262 454 704 -128 1382 -128 
C 2042 -128 2669 440 2669 1264 
C 2669 2030 2170 2624 1549 2624 
C 1222 2624 947 2503 730 2274 
L 730 3692 
z
" transform="scale(0.015625)"/>
       </defs>
       <use xlink:href="#CMR17-35" transform="scale(0.996264)"/>
       <use xlink:href="#CMR17-30" transform="translate(45.690477 0) scale(0.996264)"/>
       <use xlink:href="#CMR17-30" transform="translate(91.380954 0) scale(0.996264)"/>
      </g>
     </g>
    </g>
    <g id="text_7">
     <!-- (a) Download [ms] -->
     <g transform="translate(85.714569 116.141208) scale(0.12 -0.12)">
      <defs>
       <path id="CMR17-28" d="M 1958 -1561 
C 1958 -1555 1958 -1542 1939 -1523 
C 1645 -1224 858 -407 858 1581 
C 858 3569 1632 4379 1946 4697 
C 1946 4704 1958 4717 1958 4736 
C 1958 4755 1939 4768 1914 4768 
C 1843 4768 1299 4296 986 3594 
C 666 2887 576 2199 576 1588 
C 576 1128 621 351 1005 -471 
C 1312 -1135 1837 -1600 1914 -1600 
C 1946 -1600 1958 -1587 1958 -1561 
z
" transform="scale(0.015625)"/>
       <path id="CMR17-61" d="M 2304 1653 
C 2304 2072 2304 2294 2035 2543 
C 1798 2752 1523 2816 1306 2816 
C 800 2816 435 2407 435 1971 
C 435 1728 627 1728 666 1728 
C 749 1728 896 1778 896 1954 
C 896 2112 774 2181 666 2181 
C 640 2181 608 2174 589 2168 
C 723 2592 1069 2714 1293 2714 
C 1613 2714 1965 2429 1965 1885 
L 1965 1600 
C 1587 1600 1133 1549 774 1357 
C 371 1133 256 813 256 570 
C 256 77 832 -64 1171 -64 
C 1523 -64 1850 139 1990 511 
C 2003 233 2182 -18 2464 -18 
C 2598 -18 2938 70 2938 567 
L 2938 920 
L 2822 920 
L 2822 562 
C 2822 178 2650 128 2566 128 
C 2304 128 2304 458 2304 738 
L 2304 1653 
z
M 1965 870 
C 1965 317 1568 38 1216 38 
C 896 38 646 275 646 570 
C 646 761 730 1100 1101 1305 
C 1408 1478 1760 1504 1965 1504 
L 1965 870 
z
" transform="scale(0.015625)"/>
       <path id="CMR17-29" d="M 1683 1581 
C 1683 2040 1638 2817 1254 3639 
C 947 4303 422 4768 346 4768 
C 326 4768 301 4761 301 4729 
C 301 4717 307 4710 314 4697 
C 621 4378 1402 3568 1402 1584 
C 1402 -407 627 -1217 314 -1537 
C 307 -1549 301 -1556 301 -1568 
C 301 -1600 326 -1600 346 -1600 
C 416 -1600 960 -1128 1274 -426 
C 1594 281 1683 969 1683 1581 
z
" transform="scale(0.015625)"/>
       <path id="CMR17-44" d="M 333 4352 
L 333 4186 
C 774 4186 845 4186 845 3900 
L 845 452 
C 845 166 774 166 333 166 
L 333 0 
L 2368 0 
C 3398 0 4224 943 4224 2141 
C 4224 3346 3411 4352 2368 4352 
L 333 4352 
z
M 1523 166 
C 1267 166 1254 197 1254 414 
L 1254 3938 
C 1254 4155 1267 4186 1523 4186 
L 2240 4186 
C 2771 4186 3750 3874 3750 2141 
C 3750 1242 3488 879 3366 707 
C 3213 510 2848 166 2240 166 
L 1523 166 
z
" transform="scale(0.015625)"/>
       <path id="CMR17-6f" d="M 2758 1356 
C 2758 2176 2163 2816 1466 2816 
C 768 2816 173 2176 173 1356 
C 173 551 768 -64 1466 -64 
C 2163 -64 2758 551 2758 1356 
z
M 1466 51 
C 1165 51 909 230 762 480 
C 602 767 582 1126 582 1408 
C 582 1677 595 2010 762 2298 
C 890 2509 1139 2714 1466 2714 
C 1754 2714 1997 2554 2150 2330 
C 2349 2029 2349 1607 2349 1408 
C 2349 1158 2336 775 2163 467 
C 1984 173 1709 51 1466 51 
z
" transform="scale(0.015625)"/>
       <path id="CMR17-77" d="M 3725 2183 
C 3853 2560 4109 2560 4205 2560 
L 4205 2732 
C 4077 2732 3949 2732 3821 2732 
C 3699 2732 3424 2732 3315 2738 
L 3315 2560 
C 3514 2560 3622 2445 3622 2286 
C 3622 2241 3610 2184 3597 2140 
L 2995 407 
L 2342 2275 
C 2330 2319 2310 2370 2310 2395 
C 2310 2560 2528 2560 2630 2560 
L 2630 2738 
C 2483 2732 2214 2732 2061 2732 
C 1901 2732 1734 2732 1587 2738 
L 1587 2560 
C 1939 2560 1939 2547 2074 2149 
L 1485 451 
L 851 2281 
C 819 2363 819 2376 819 2395 
C 819 2560 1037 2560 1139 2560 
L 1139 2738 
C 986 2732 717 2732 557 2732 
C 416 2732 198 2732 64 2738 
L 64 2560 
C 346 2560 416 2541 486 2331 
L 1274 49 
C 1299 -33 1318 -52 1370 -52 
C 1414 -52 1440 -39 1472 56 
L 2131 1980 
L 2797 56 
C 2829 -39 2854 -52 2899 -52 
C 2950 -52 2970 -33 2995 50 
L 3725 2183 
z
" transform="scale(0.015625)"/>
       <path id="CMR17-6e" d="M 2656 1933 
C 2656 2259 2592 2790 1837 2790 
C 1331 2790 1069 2400 973 2144 
L 966 2144 
L 966 2790 
L 211 2720 
L 211 2554 
C 589 2554 646 2515 646 2208 
L 646 428 
C 646 184 621 153 211 153 
L 211 -13 
C 365 0 646 0 813 0 
C 979 0 1267 0 1421 -13 
L 1421 153 
C 1011 153 986 178 986 428 
L 986 1658 
C 986 2247 1344 2688 1792 2688 
C 2266 2688 2317 2266 2317 1958 
L 2317 428 
C 2317 184 2291 153 1882 153 
L 1882 -13 
C 2035 0 2317 0 2483 0 
C 2650 0 2938 0 3091 -13 
L 3091 153 
C 2682 153 2656 178 2656 428 
L 2656 1933 
z
" transform="scale(0.015625)"/>
       <path id="CMR17-6c" d="M 979 4396 
L 218 4326 
L 218 4160 
C 595 4160 653 4122 653 3817 
L 653 426 
C 653 184 627 153 218 153 
L 218 -13 
C 371 0 653 0 813 0 
C 979 0 1261 0 1414 -13 
L 1414 153 
C 1005 153 979 178 979 426 
L 979 4396 
z
" transform="scale(0.015625)"/>
       <path id="CMR17-64" d="M 1869 4326 
L 1869 4160 
C 2246 4160 2304 4122 2304 3820 
L 2304 2345 
C 2278 2377 2016 2790 1498 2790 
C 845 2790 211 2208 211 1364 
C 211 525 806 -64 1434 -64 
C 1978 -64 2259 337 2291 380 
L 2291 -63 
L 3066 -63 
L 3066 128 
C 2688 128 2630 166 2630 473 
L 2630 4396 
L 1869 4326 
z
M 2291 755 
C 2291 563 2176 390 2029 262 
C 1811 70 1594 38 1472 38 
C 1286 38 621 134 621 1356 
C 621 2612 1363 2688 1530 2688 
C 1824 2688 2061 2522 2208 2291 
C 2291 2157 2291 2138 2291 2023 
L 2291 755 
z
" transform="scale(0.015625)"/>
       <path id="CMR17-5b" d="M 1504 -1600 
L 1504 -1377 
L 902 -1377 
L 902 4544 
L 1504 4544 
L 1504 4767 
L 678 4767 
L 678 -1600 
L 1504 -1600 
z
" transform="scale(0.015625)"/>
       <path id="CMR17-6d" d="M 4326 1933 
C 4326 2252 4269 2790 3507 2790 
C 3072 2790 2771 2496 2656 2151 
L 2650 2151 
C 2573 2676 2195 2790 1837 2790 
C 1331 2790 1069 2400 973 2144 
L 966 2144 
L 966 2790 
L 211 2720 
L 211 2554 
C 589 2554 646 2515 646 2208 
L 646 428 
C 646 184 621 153 211 153 
L 211 -13 
C 365 0 646 0 813 0 
C 979 0 1267 0 1421 -13 
L 1421 153 
C 1011 153 986 178 986 428 
L 986 1658 
C 986 2247 1344 2688 1792 2688 
C 2266 2688 2317 2266 2317 1958 
L 2317 428 
C 2317 184 2291 153 1882 153 
L 1882 -13 
C 2035 0 2317 0 2483 0 
C 2650 0 2938 0 3091 -13 
L 3091 153 
C 2682 153 2656 178 2656 428 
L 2656 1658 
C 2656 2247 3014 2688 3462 2688 
C 3936 2688 3987 2266 3987 1958 
L 3987 428 
C 3987 184 3962 153 3552 153 
L 3552 -13 
C 3706 0 3987 0 4154 0 
C 4320 0 4608 0 4762 -13 
L 4762 153 
C 4352 153 4326 178 4326 428 
L 4326 1933 
z
" transform="scale(0.015625)"/>
       <path id="CMR17-73" d="M 1978 2697 
C 1978 2813 1971 2819 1933 2819 
C 1907 2819 1901 2813 1824 2717 
C 1805 2691 1747 2626 1728 2601 
C 1523 2819 1235 2819 1126 2819 
C 416 2819 160 2447 160 2076 
C 160 1498 813 1365 998 1325 
C 1402 1243 1542 1217 1677 1101 
C 1760 1025 1901 884 1901 654 
C 1901 384 1747 38 1158 38 
C 602 38 403 460 288 1021 
C 269 1110 269 1117 218 1117 
C 166 1117 160 1110 160 983 
L 160 63 
C 160 -51 166 -58 205 -58 
C 237 -58 243 -51 275 0 
C 314 57 410 211 448 276 
C 576 103 800 -64 1158 -64 
C 1792 -64 2131 283 2131 784 
C 2131 1112 1958 1285 1875 1362 
C 1683 1561 1459 1606 1190 1657 
C 838 1735 390 1825 390 2217 
C 390 2383 480 2737 1126 2737 
C 1811 2737 1850 2094 1862 1888 
C 1869 1856 1901 1849 1920 1849 
C 1978 1849 1978 1869 1978 1978 
L 1978 2697 
z
" transform="scale(0.015625)"/>
       <path id="CMR17-5d" d="M 915 4767 
L 90 4767 
L 90 4544 
L 691 4544 
L 691 -1377 
L 90 -1377 
L 90 -1600 
L 915 -1600 
L 915 4767 
z
" transform="scale(0.015625)"/>
      </defs>
      <use xlink:href="#CMR17-28" transform="scale(0.996264)"/>
      <use xlink:href="#CMR17-61" transform="translate(35.280768 0) scale(0.996264)"/>
      <use xlink:href="#CMR17-29" transform="translate(80.971245 0) scale(0.996264)"/>
      <use xlink:href="#CMR17-44" transform="translate(146.327979 0) scale(0.996264)"/>
      <use xlink:href="#CMR17-6f" transform="translate(216.721535 0) scale(0.996264)"/>
      <use xlink:href="#CMR17-77" transform="translate(259.809558 0) scale(0.996264)"/>
      <use xlink:href="#CMR17-6e" transform="translate(326.319439 0) scale(0.996264)"/>
      <use xlink:href="#CMR17-6c" transform="translate(377.214808 0) scale(0.996264)"/>
      <use xlink:href="#CMR17-6f" transform="translate(402.085867 0) scale(0.996264)"/>
      <use xlink:href="#CMR17-61" transform="translate(447.776344 0) scale(0.996264)"/>
      <use xlink:href="#CMR17-64" transform="translate(493.466821 0) scale(0.996264)"/>
      <use xlink:href="#CMR17-5b" transform="translate(574.438157 0) scale(0.996264)"/>
      <use xlink:href="#CMR17-6d" transform="translate(599.309216 0) scale(0.996264)"/>
      <use xlink:href="#CMR17-73" transform="translate(676.228806 0) scale(0.996264)"/>
      <use xlink:href="#CMR17-5d" transform="translate(712.030143 0) scale(0.996264)"/>
     </g>
    </g>
   </g>
   <g id="matplotlib.axis_2">
    <g id="ytick_1">
     <g id="line2d_7">
      <path d="M 42.437408 82.689054 
L 223.515456 82.689054 
" clip-path="url(#pbaaba316b9)" style="fill: none; stroke: #808080; stroke-opacity: 0.7; stroke-width: 0.5; stroke-linecap: square"/>
     </g>
     <g id="line2d_8">
      <defs>
       <path id="md6c5b35cf7" d="M 0 0 
L -3.5 0 
" style="stroke: #000000; stroke-width: 0.8"/>
      </defs>
      <g>
       <use xlink:href="#md6c5b35cf7" x="42.437408" y="82.689054" style="stroke: #000000; stroke-width: 0.8"/>
      </g>
     </g>
     <g id="text_8">
      <!-- 0.00 -->
      <g transform="translate(14.626776 86.840144) scale(0.12 -0.12)">
       <defs>
        <path id="CMR17-2e" d="M 1062 261 
C 1062 420 934 522 800 522 
C 672 522 538 420 538 261 
C 538 102 666 0 800 0 
C 928 0 1062 102 1062 261 
z
" transform="scale(0.015625)"/>
       </defs>
       <use xlink:href="#CMR17-30" transform="scale(0.996264)"/>
       <use xlink:href="#CMR17-2e" transform="translate(45.690477 0) scale(0.996264)"/>
       <use xlink:href="#CMR17-30" transform="translate(70.561536 0) scale(0.996264)"/>
       <use xlink:href="#CMR17-30" transform="translate(116.252013 0) scale(0.996264)"/>
      </g>
     </g>
    </g>
    <g id="ytick_2">
     <g id="line2d_9">
      <path d="M 42.437408 68.394041 
L 223.515456 68.394041 
" clip-path="url(#pbaaba316b9)" style="fill: none; stroke: #808080; stroke-opacity: 0.7; stroke-width: 0.5; stroke-linecap: square"/>
     </g>
     <g id="line2d_10">
      <g>
       <use xlink:href="#md6c5b35cf7" x="42.437408" y="68.394041" style="stroke: #000000; stroke-width: 0.8"/>
      </g>
     </g>
     <g id="text_9">
      <!-- 0.25 -->
      <g transform="translate(14.626776 72.545131) scale(0.12 -0.12)">
       <use xlink:href="#CMR17-30" transform="scale(0.996264)"/>
       <use xlink:href="#CMR17-2e" transform="translate(45.690477 0) scale(0.996264)"/>
       <use xlink:href="#CMR17-32" transform="translate(70.561536 0) scale(0.996264)"/>
       <use xlink:href="#CMR17-35" transform="translate(116.252013 0) scale(0.996264)"/>
      </g>
     </g>
    </g>
    <g id="ytick_3">
     <g id="line2d_11">
      <path d="M 42.437408 54.099028 
L 223.515456 54.099028 
" clip-path="url(#pbaaba316b9)" style="fill: none; stroke: #808080; stroke-opacity: 0.7; stroke-width: 0.5; stroke-linecap: square"/>
     </g>
     <g id="line2d_12">
      <g>
       <use xlink:href="#md6c5b35cf7" x="42.437408" y="54.099028" style="stroke: #000000; stroke-width: 0.8"/>
      </g>
     </g>
     <g id="text_10">
      <!-- 0.50 -->
      <g transform="translate(14.626776 58.250118) scale(0.12 -0.12)">
       <use xlink:href="#CMR17-30" transform="scale(0.996264)"/>
       <use xlink:href="#CMR17-2e" transform="translate(45.690477 0) scale(0.996264)"/>
       <use xlink:href="#CMR17-35" transform="translate(70.561536 0) scale(0.996264)"/>
       <use xlink:href="#CMR17-30" transform="translate(116.252013 0) scale(0.996264)"/>
      </g>
     </g>
    </g>
    <g id="ytick_4">
     <g id="line2d_13">
      <path d="M 42.437408 39.804015 
L 223.515456 39.804015 
" clip-path="url(#pbaaba316b9)" style="fill: none; stroke: #808080; stroke-opacity: 0.7; stroke-width: 0.5; stroke-linecap: square"/>
     </g>
     <g id="line2d_14">
      <g>
       <use xlink:href="#md6c5b35cf7" x="42.437408" y="39.804015" style="stroke: #000000; stroke-width: 0.8"/>
      </g>
     </g>
     <g id="text_11">
      <!-- 0.75 -->
      <g transform="translate(14.626776 43.955105) scale(0.12 -0.12)">
       <defs>
        <path id="CMR17-37" d="M 2886 3941 
L 2886 4081 
L 1382 4081 
C 634 4081 621 4165 595 4288 
L 480 4288 
L 294 3094 
L 410 3094 
C 429 3215 474 3540 550 3661 
C 589 3712 1062 3712 1171 3712 
L 2579 3712 
L 1869 2661 
C 1395 1954 1069 999 1069 165 
C 1069 89 1069 -128 1299 -128 
C 1530 -128 1530 89 1530 171 
L 1530 465 
C 1530 1508 1709 2196 2003 2636 
L 2886 3941 
z
" transform="scale(0.015625)"/>
       </defs>
       <use xlink:href="#CMR17-30" transform="scale(0.996264)"/>
       <use xlink:href="#CMR17-2e" transform="translate(45.690477 0) scale(0.996264)"/>
       <use xlink:href="#CMR17-37" transform="translate(70.561536 0) scale(0.996264)"/>
       <use xlink:href="#CMR17-35" transform="translate(116.252013 0) scale(0.996264)"/>
      </g>
     </g>
    </g>
    <g id="ytick_5">
     <g id="line2d_15">
      <path d="M 42.437408 25.509003 
L 223.515456 25.509003 
" clip-path="url(#pbaaba316b9)" style="fill: none; stroke: #808080; stroke-opacity: 0.7; stroke-width: 0.5; stroke-linecap: square"/>
     </g>
     <g id="line2d_16">
      <g>
       <use xlink:href="#md6c5b35cf7" x="42.437408" y="25.509003" style="stroke: #000000; stroke-width: 0.8"/>
      </g>
     </g>
     <g id="text_12">
      <!-- 1.00 -->
      <g transform="translate(14.626776 29.660092) scale(0.12 -0.12)">
       <use xlink:href="#CMR17-31" transform="scale(0.996264)"/>
       <use xlink:href="#CMR17-2e" transform="translate(45.690477 0) scale(0.996264)"/>
       <use xlink:href="#CMR17-30" transform="translate(70.561536 0) scale(0.996264)"/>
       <use xlink:href="#CMR17-30" transform="translate(116.252013 0) scale(0.996264)"/>
      </g>
     </g>
    </g>
    <g id="text_13">
     <!-- Percentile -->
     <g transform="translate(8.30218 79.217078) rotate(-90) scale(0.12 -0.12)">
      <defs>
       <path id="CMR17-50" d="M 1267 2042 
L 2291 2042 
C 3117 2042 3718 2578 3718 3184 
C 3718 3791 3130 4352 2291 4352 
L 333 4352 
L 333 4186 
C 774 4186 845 4186 845 3899 
L 845 446 
C 845 160 774 160 333 160 
L 333 0 
C 518 0 858 0 1056 0 
C 1254 0 1594 0 1779 0 
L 1779 160 
C 1338 160 1267 160 1267 446 
L 1267 2042 
z
M 1254 2176 
L 1254 3938 
C 1254 4155 1267 4186 1523 4186 
L 2170 4186 
C 2995 4186 3232 3714 3232 3184 
C 3232 2604 2950 2176 2170 2176 
L 1254 2176 
z
" transform="scale(0.015625)"/>
       <path id="CMR17-65" d="M 2438 1472 
C 2464 1498 2464 1511 2464 1576 
C 2464 2238 2118 2816 1389 2816 
C 710 2816 173 2169 173 1383 
C 173 551 781 -64 1459 -64 
C 2176 -64 2458 607 2458 740 
C 2458 784 2419 784 2406 784 
C 2362 784 2355 771 2330 696 
C 2189 265 1837 51 1504 51 
C 1229 51 954 203 781 480 
C 582 803 582 1176 582 1472 
L 2438 1472 
z
M 589 1568 
C 634 2505 1126 2714 1382 2714 
C 1818 2714 2112 2297 2118 1568 
L 589 1568 
z
" transform="scale(0.015625)"/>
       <path id="CMR17-72" d="M 960 1497 
C 960 2112 1222 2688 1702 2688 
C 1747 2688 1792 2682 1837 2662 
C 1837 2662 1696 2617 1696 2452 
C 1696 2298 1818 2234 1914 2234 
C 1990 2234 2131 2279 2131 2458 
C 2131 2663 1926 2790 1709 2790 
C 1222 2790 1011 2317 947 2093 
L 941 2093 
L 941 2790 
L 198 2720 
L 198 2554 
C 576 2554 634 2515 634 2208 
L 634 428 
C 634 184 608 153 198 153 
L 198 -13 
C 352 0 646 0 813 0 
C 998 0 1325 0 1498 -13 
L 1498 153 
C 1037 153 960 153 960 440 
L 960 1497 
z
" transform="scale(0.015625)"/>
       <path id="CMR17-63" d="M 2234 2240 
C 2112 2240 1933 2240 1933 2017 
C 1933 1838 2080 1787 2163 1787 
C 2208 1787 2394 1807 2394 2024 
C 2394 2467 1958 2803 1466 2803 
C 787 2803 211 2178 211 1363 
C 211 516 813 -64 1466 -64 
C 2259 -64 2458 677 2458 748 
C 2458 774 2451 793 2406 793 
C 2362 793 2355 787 2330 703 
C 2163 180 1798 51 1523 51 
C 1114 51 621 427 621 1369 
C 621 2338 1094 2688 1472 2688 
C 1722 2688 2093 2573 2234 2240 
z
" transform="scale(0.015625)"/>
       <path id="CMR17-74" d="M 966 2560 
L 1862 2560 
L 1862 2725 
L 966 2725 
L 966 3904 
L 851 3904 
C 838 3245 614 2668 70 2668 
L 70 2560 
L 627 2560 
L 627 771 
C 627 650 627 -64 1370 -64 
C 1747 -64 1965 306 1965 777 
L 1965 1140 
L 1850 1140 
L 1850 783 
C 1850 344 1677 51 1408 51 
C 1222 51 966 178 966 758 
L 966 2560 
z
" transform="scale(0.015625)"/>
       <path id="CMR17-69" d="M 992 3909 
C 992 4049 877 4170 730 4170 
C 589 4170 467 4056 467 3909 
C 467 3769 582 3648 730 3648 
C 870 3648 992 3763 992 3909 
z
M 243 2706 
L 243 2541 
C 602 2541 653 2502 653 2197 
L 653 427 
C 653 184 627 153 218 153 
L 218 -13 
C 371 0 646 0 806 0 
C 960 0 1222 0 1370 -13 
L 1370 153 
C 992 153 979 191 979 420 
L 979 2776 
L 243 2706 
z
" transform="scale(0.015625)"/>
      </defs>
      <use xlink:href="#CMR17-50" transform="scale(0.996264)"/>
      <use xlink:href="#CMR17-65" transform="translate(59.983847 0) scale(0.996264)"/>
      <use xlink:href="#CMR17-72" transform="translate(100.469507 0) scale(0.996264)"/>
      <use xlink:href="#CMR17-63" transform="translate(135.750275 0) scale(0.996264)"/>
      <use xlink:href="#CMR17-65" transform="translate(176.235935 0) scale(0.996264)"/>
      <use xlink:href="#CMR17-6e" transform="translate(216.721596 0) scale(0.996264)"/>
      <use xlink:href="#CMR17-74" transform="translate(265.014512 0) scale(0.996264)"/>
      <use xlink:href="#CMR17-69" transform="translate(300.295279 0) scale(0.996264)"/>
      <use xlink:href="#CMR17-6c" transform="translate(325.166338 0) scale(0.996264)"/>
      <use xlink:href="#CMR17-65" transform="translate(350.037396 0) scale(0.996264)"/>
     </g>
    </g>
   </g>
   <g id="line2d_17">
    <path d="M 43.892068 82.687817 
L 49.365756 82.355065 
L 53.232677 81.656164 
L 53.480151 81.595551 
L 54.53825 81.309805 
L 55.290327 81.120545 
L 56.163727 80.870672 
L 56.349634 80.802638 
L 57.969075 80.317736 
L 58.709685 80.04436 
L 59.944033 79.568118 
L 60.083463 79.508742 
L 60.5096 79.34917 
L 61.553515 78.875401 
L 61.997157 78.652742 
L 62.407298 78.459771 
L 65.204351 76.902395 
L 65.59729 76.658708 
L 68.590208 74.480361 
L 69.280116 73.843309 
L 69.780797 73.421494 
L 70.265482 72.956384 
L 70.68166 72.57539 
L 70.895935 72.384893 
L 71.33505 71.969263 
L 71.472669 71.839379 
L 71.616324 71.718153 
L 71.827582 71.53013 
L 71.976066 71.391587 
L 72.122437 71.256754 
L 88.710394 54.411369 
L 88.846806 54.280248 
L 90.051277 53.202826 
L 90.258008 53.027173 
L 91.117525 52.302294 
L 91.32999 52.140248 
L 96.671189 47.90478 
L 97.246413 47.485439 
L 106.414998 41.35366 
L 106.69235 41.202746 
L 107.307713 40.841544 
L 107.766746 40.580538 
L 108.200428 40.360353 
L 108.48291 40.220573 
L 108.989325 39.94596 
L 109.382868 39.771544 
L 112.101453 38.652065 
L 112.570143 38.488781 
L 112.691465 38.449198 
L 113.085914 38.274781 
L 113.237114 38.210458 
L 114.007601 37.946978 
L 116.370066 37.094689 
L 116.925372 36.935117 
L 117.851888 36.624631 
L 118.25026 36.498458 
L 118.943487 36.303013 
L 119.973821 36.007371 
L 120.386981 35.892331 
L 121.009889 35.719152 
L 121.3476 35.622666 
L 123.566409 35.063545 
L 124.153102 34.91758 
L 125.000849 34.689973 
L 127.166543 34.170435 
L 128.010065 33.98736 
L 128.339023 33.894585 
L 129.203369 33.718932 
L 130.020031 33.555649 
L 131.006001 33.337938 
L 131.316852 33.274851 
L 132.335416 33.097961 
L 132.557538 33.054666 
L 134.253032 32.755314 
L 134.361075 32.737996 
L 135.231457 32.595742 
L 135.915329 32.479464 
L 138.879878 32.009406 
L 139.979625 31.860967 
L 141.523919 31.637071 
L 142.610991 31.477499 
L 142.742273 31.451522 
L 163.455489 29.385742 
L 184.835374 28.167303 
L 190.501608 27.927326 
L 191.243123 27.90506 
L 201.951777 27.537673 
L 209.834104 27.313777 
L 210.355609 27.290274 
L 216.698471 27.125754 
L 217.491895 27.105962 
L 223.532357 26.988447 
L 223.532357 26.988447 
" clip-path="url(#pbaaba316b9)" style="fill: none; stroke: #1f77b4; stroke-width: 1.5; stroke-linecap: square"/>
   </g>
   <g id="line2d_18">
    <path d="M 44.297079 82.686897 
L 48.762162 82.568298 
L 52.505045 82.20603 
L 52.893156 82.158591 
L 54.329105 81.953737 
L 54.46944 81.925704 
L 55.465671 81.779072 
L 55.688096 81.753196 
L 56.356575 81.610877 
L 56.606765 81.56128 
L 57.424634 81.386616 
L 58.138383 81.209795 
L 60.240096 80.595234 
L 60.42721 80.511136 
L 60.885337 80.334315 
L 61.137639 80.220028 
L 61.515489 80.069083 
L 61.664878 79.997923 
L 62.612822 79.560183 
L 62.969848 79.387675 
L 67.044104 77.022154 
L 67.313608 76.830239 
L 67.838433 76.502473 
L 68.488805 76.071202 
L 68.615257 75.967697 
L 68.9415 75.689527 
L 69.130123 75.555833 
L 69.382425 75.387638 
L 73.609692 72.230735 
L 73.719848 72.133699 
L 73.986636 71.881405 
L 74.279982 71.637737 
L 74.489731 71.407007 
L 74.706723 71.247437 
L 75.041717 70.956329 
L 75.260822 70.792446 
L 75.709292 70.369801 
L 76.132109 69.955781 
L 76.391051 69.759552 
L 76.627961 69.559011 
L 76.938812 69.289467 
L 77.065566 69.177337 
L 77.294328 68.987578 
L 77.686966 68.610215 
L 77.871967 68.463583 
L 78.74084 67.706703 
L 79.59402 66.857099 
L 79.761215 66.703998 
L 81.701466 64.881879 
L 82.222971 64.372979 
L 82.473161 64.153031 
L 82.783709 63.896425 
L 83.032692 63.713135 
L 83.224634 63.540626 
L 83.981842 62.863531 
L 84.37116 62.499107 
L 84.562198 62.317973 
L 84.876066 62.059211 
L 85.04809 61.912579 
L 85.230677 61.76379 
L 85.436201 61.563249 
L 85.599171 61.384272 
L 85.87441 61.131978 
L 86.003579 61.00691 
L 87.58771 59.547058 
L 87.783878 59.370237 
L 87.908218 59.264575 
L 88.166858 59.04894 
L 88.676894 58.585324 
L 88.827189 58.449473 
L 89.081604 58.223056 
L 89.283808 58.026828 
L 89.460962 57.858632 
L 89.869595 57.487739 
L 89.992125 57.399329 
L 93.395185 54.503345 
L 93.544272 54.363182 
L 93.811363 54.110888 
L 95.682502 52.564782 
L 95.934804 52.338365 
L 96.153909 52.127042 
L 96.297262 52.019224 
L 96.52693 51.835934 
L 96.74694 51.656957 
L 96.970269 51.501699 
L 97.326389 51.227842 
L 97.515616 51.063959 
L 97.723554 50.915171 
L 101.324593 48.023499 
L 101.501144 47.887649 
L 101.680411 47.728079 
L 101.870241 47.57929 
L 103.095536 46.473081 
L 103.25579 46.341543 
L 103.914009 45.821862 
L 104.059475 45.709731 
L 105.015265 44.886004 
L 105.169181 44.745841 
L 105.537373 44.448264 
L 106.494673 43.749605 
L 106.752105 43.572784 
L 107.244638 43.257956 
L 107.536173 43.078979 
L 107.931829 42.871969 
L 108.442771 42.56361 
L 110.787128 41.293517 
L 111.409735 41.041224 
L 111.518381 40.97222 
L 112.054372 40.754429 
L 112.170866 40.674643 
L 112.846287 40.394317 
L 117.340041 38.729612 
L 119.109475 38.164647 
L 119.248905 38.12152 
L 119.947565 37.927448 
L 120.176326 37.84335 
L 120.605783 37.711812 
L 121.029808 37.56518 
L 121.675653 37.377578 
L 121.790637 37.340919 
L 122.705685 37.064906 
L 123.036152 36.980808 
L 124.059847 36.694013 
L 124.276839 36.640104 
L 124.857496 36.499941 
L 125.043101 36.450345 
L 126.738293 35.988885 
L 127.637346 35.771093 
L 127.75897 35.738748 
L 128.377955 35.574865 
L 129.310205 35.352761 
L 129.944582 35.195347 
L 135.760507 34.028759 
L 136.683401 33.851938 
L 136.79235 33.823905 
L 137.677218 33.694524 
L 139.667568 33.360289 
L 141.197074 33.125247 
L 141.69866 33.013116 
L 142.667729 32.851389 
L 143.192252 32.793168 
L 144.241901 32.650849 
L 144.692182 32.590471 
L 146.39854 32.379148 
L 146.739873 32.323083 
L 148.607994 32.11176 
L 149.937107 31.937095 
L 150.866641 31.796932 
L 151.133128 31.755961 
L 155.044715 31.26 
L 156.696751 31.050834 
L 163.838469 30.321986 
L 165.776306 30.149477 
L 169.270207 29.843275 
L 171.006142 29.724676 
L 173.089747 29.552167 
L 173.41116 29.524135 
L 175.901587 29.351626 
L 190.061589 28.493397 
L 194.130412 28.318732 
L 194.383318 28.310107 
L 202.232146 28.034094 
L 216.921197 27.609292 
L 223.734862 27.447565 
L 223.734862 27.447565 
" clip-path="url(#pbaaba316b9)" style="fill: none; stroke-dasharray: 1.5,2.475; stroke-dashoffset: 0; stroke: #ff7f0e; stroke-width: 1.5"/>
   </g>
   <g id="line2d_19">
    <path d="M 44.101817 82.688518 
L 46.950174 82.56852 
L 47.854357 82.423344 
L 48.1806 82.355845 
L 48.773328 82.217098 
L 49.143633 82.126028 
L 49.691092 81.968531 
L 50.184832 81.800855 
L 50.554835 81.671215 
L 57.435499 78.496629 
L 57.543542 78.445737 
L 57.849564 78.302168 
L 64.153193 74.443487 
L 64.979512 73.856354 
L 65.19077 73.701536 
L 65.997472 73.095653 
L 66.126943 73.006727 
L 66.812324 72.472629 
L 66.920971 72.384238 
L 67.116535 72.23424 
L 67.240875 72.147456 
L 68.232579 71.415148 
L 68.423013 71.272115 
L 68.650568 71.093725 
L 68.986467 70.856943 
L 69.211004 70.684447 
L 71.387562 68.900014 
L 71.574978 68.738231 
L 71.793781 68.572163 
L 71.983309 68.425915 
L 74.560653 66.285775 
L 74.764366 66.119707 
L 75.269272 65.692214 
L 75.495922 65.515432 
L 75.811299 65.254008 
L 76.053944 65.048833 
L 76.275764 64.8683 
L 76.419721 64.761159 
L 76.619511 64.596162 
L 76.855516 64.402237 
L 77.096048 64.199205 
L 77.314549 64.036351 
L 77.70779 63.740642 
L 77.948322 63.538145 
L 78.119441 63.407433 
L 78.683801 62.944585 
L 80.165019 61.777284 
L 80.333723 61.634787 
L 80.555846 61.46604 
L 80.774347 61.296221 
L 81.006127 61.110867 
L 81.175736 60.959799 
L 81.402084 60.783552 
L 81.687584 60.564449 
L 82.371455 60.030887 
L 83.41869 59.248758 
L 83.649866 59.083761 
L 84.464717 58.473057 
L 84.575778 58.38788 
L 84.881197 58.161813 
L 85.106035 57.988244 
L 85.500182 57.692 
L 85.610036 57.598251 
L 85.873504 57.417183 
L 86.093514 57.25165 
L 86.431225 57.014333 
L 86.542286 56.928085 
L 87.518599 56.209169 
L 87.746455 56.055958 
L 88.181646 55.76507 
L 88.91803 55.259365 
L 89.214394 55.036511 
L 89.425954 54.885443 
L 89.734994 54.692589 
L 89.939612 54.554913 
L 90.45327 54.205633 
L 90.659699 54.065279 
L 90.874277 53.909924 
L 91.503825 53.499039 
L 91.69124 53.361363 
L 91.985492 53.158866 
L 92.187092 53.026547 
L 93.766395 51.963173 
L 93.877154 51.886032 
L 94.087808 51.737642 
L 94.319588 51.57318 
L 94.894209 51.208365 
L 95.119651 51.076046 
L 95.622747 50.777659 
L 95.925449 50.586412 
L 96.035906 50.511414 
L 96.667567 50.110706 
L 96.896631 49.97678 
L 97.231323 49.777498 
L 97.341781 49.705178 
L 109.121813 42.862086 
L 109.486987 42.709946 
L 112.706253 41.401219 
L 113.141142 41.249079 
L 117.039149 39.982137 
L 117.576951 39.834283 
L 118.478418 39.561609 
L 118.622375 39.528395 
L 119.308963 39.34947 
L 119.414893 39.324292 
L 120.028446 39.167866 
L 123.340062 38.302167 
L 123.820522 38.170384 
L 127.002969 37.492717 
L 127.948196 37.27415 
L 129.199144 37.003619 
L 129.529008 36.93612 
L 133.244126 36.224169 
L 133.382047 36.201669 
L 134.176678 36.0356 
L 134.941431 35.872211 
L 137.603881 35.394362 
L 138.542168 35.239543 
L 140.598611 34.884371 
L 142.115441 34.660982 
L 144.27359 34.336881 
L 144.808675 34.259204 
L 145.773821 34.118849 
L 146.306191 34.047065 
L 147.42314 33.89546 
L 148.491501 33.771712 
L 149.639838 33.635108 
L 152.614346 33.259579 
L 153.0097 33.203865 
L 155.3109 32.92262 
L 155.507068 32.895835 
L 158.710942 32.55727 
L 159.054387 32.526199 
L 159.694498 32.451736 
L 169.150997 31.577466 
L 170.020474 31.498181 
L 171.759125 31.349255 
L 174.05278 31.168723 
L 176.172299 31.015511 
L 178.996211 30.815158 
L 179.732293 30.765337 
L 181.999692 30.612661 
L 184.156935 30.467486 
L 186.76959 30.298739 
L 188.080896 30.213026 
L 190.620818 30.0641 
L 190.850787 30.049636 
L 194.347102 29.847675 
L 194.453335 29.842854 
L 196.869218 29.703571 
L 200.522166 29.504824 
L 203.700991 29.348398 
L 204.643502 29.296971 
L 207.831381 29.150723 
L 213.388968 28.880728 
L 213.992863 28.860371 
L 215.215744 28.805194 
L 223.527528 28.474664 
L 223.527528 28.474664 
" clip-path="url(#pbaaba316b9)" style="fill: none; stroke-dasharray: 5.55,2.4; stroke-dashoffset: 0; stroke: #2ca02c; stroke-width: 1.5"/>
   </g>
   <g id="line2d_20">
    <path d="M 44.074051 82.688867 
L 48.253936 82.574253 
L 51.464148 82.215127 
L 51.748743 82.169467 
L 52.980677 81.94937 
L 53.927715 81.773068 
L 55.724311 81.383378 
L 55.834467 81.360269 
L 57.038032 81.062084 
L 57.146981 81.036366 
L 57.705909 80.886715 
L 58.585344 80.644812 
L 59.307846 80.443724 
L 59.695956 80.333955 
L 60.172493 80.189895 
L 60.283555 80.155603 
L 60.857572 79.984893 
L 60.968331 79.950229 
L 61.492251 79.79275 
L 61.603312 79.755663 
L 65.603024 78.404701 
L 65.799796 78.337982 
L 66.499662 78.080612 
L 66.610723 78.040916 
L 67.249325 77.796032 
L 67.802821 77.584135 
L 68.226543 77.428892 
L 74.954498 74.539112 
L 75.188391 74.425988 
L 75.554772 74.2372 
L 76.604723 73.71929 
L 77.264752 73.399301 
L 77.498041 73.287668 
L 78.772227 72.630917 
L 79.045957 72.485179 
L 80.642461 71.62939 
L 80.92947 71.472656 
L 83.191135 70.206118 
L 83.456414 70.052739 
L 83.902772 69.798723 
L 87.168213 67.91252 
L 87.449185 67.74125 
L 87.739816 67.558612 
L 88.118872 67.325469 
L 88.387471 67.169667 
L 88.68625 66.995043 
L 88.874873 66.879497 
L 93.643564 63.804841 
L 93.79084 63.709981 
L 94.02594 63.548216 
L 94.136699 63.47572 
L 94.398055 63.308737 
L 95.001951 62.900597 
L 95.256365 62.734918 
L 95.367427 62.65329 
L 97.115433 61.443406 
L 97.460085 61.194236 
L 98.865854 60.19569 
L 99.077414 60.037653 
L 99.900414 59.399165 
L 100.075758 59.262 
L 100.437914 58.991025 
L 100.676333 58.801491 
L 100.898154 58.62314 
L 101.086173 58.471066 
L 101.352961 58.263268 
L 101.580516 58.077089 
L 101.691577 57.988379 
L 102.283099 57.492648 
L 102.778951 57.055994 
L 102.951881 56.907088 
L 103.20871 56.66444 
L 103.383752 56.494289 
L 103.494813 56.388806 
L 103.863609 56.030612 
L 103.97467 55.925874 
L 104.274656 55.610171 
L 105.166465 54.685054 
L 105.317364 54.522357 
L 106.304541 53.479084 
L 106.428579 53.347696 
L 106.74275 53.023421 
L 106.853811 52.903588 
L 107.210233 52.553035 
L 107.32069 52.449043 
L 107.472192 52.304423 
L 107.582952 52.198754 
L 107.760106 52.027857 
L 108.172059 51.643013 
L 108.28312 51.542934 
L 108.477779 51.366633 
L 109.022824 50.899601 
L 109.461637 50.533766 
L 109.795424 50.276209 
L 110.901509 49.462725 
L 111.234692 49.227345 
L 111.568178 49.00818 
L 111.679239 48.934938 
L 111.891402 48.796841 
L 112.002463 48.727513 
L 114.743683 47.165027 
L 115.023449 47.018543 
L 116.048351 46.515543 
L 116.475091 46.314269 
L 117.378671 45.88656 
L 117.746561 45.717341 
L 118.23849 45.502648 
L 119.002035 45.161413 
L 119.513883 44.94262 
L 120.195038 44.652263 
L 120.74129 44.426574 
L 121.32255 44.197531 
L 121.67022 44.064839 
L 122.193536 43.871951 
L 122.554787 43.728636 
L 123.21542 43.479279 
L 123.736321 43.288069 
L 124.164872 43.132267 
L 129.68232 41.313155 
L 129.85193 41.255382 
L 134.708142 39.871806 
L 135.254696 39.726814 
L 135.365153 39.700909 
L 136.036349 39.520134 
L 136.394582 39.429374 
L 138.434728 38.915193 
L 139.130973 38.750073 
L 139.482868 38.663227 
L 140.466122 38.429897 
L 140.820431 38.34156 
L 142.282033 38.00368 
L 142.946891 37.849742 
L 144.142006 37.590321 
L 144.454064 37.528075 
L 146.352667 37.122544 
L 146.666234 37.058621 
L 152.044856 35.996898 
L 152.354197 35.936143 
L 153.131626 35.803264 
L 172.605061 32.909197 
L 173.879851 32.760664 
L 175.046597 32.633935 
L 176.596323 32.454466 
L 181.750408 31.929661 
L 183.387655 31.772555 
L 184.416179 31.673409 
L 186.089943 31.527857 
L 186.336813 31.505866 
L 186.864957 31.457038 
L 188.331388 31.321551 
L 189.875078 31.195381 
L 192.908437 30.940061 
L 193.792098 30.871292 
L 200.077921 30.427929 
L 202.453061 30.264487 
L 208.792 29.886351 
L 212.155827 29.701104 
L 213.794885 29.609599 
L 217.20217 29.440193 
L 217.957567 29.398074 
L 223.517569 29.127658 
L 223.517569 29.127658 
" clip-path="url(#pbaaba316b9)" style="fill: none; stroke-dasharray: 9.6,2.4,1.5,2.4; stroke-dashoffset: 0; stroke: #d62728; stroke-width: 1.5"/>
   </g>
   <g id="line2d_21">
    <path d="M 43.933716 82.688991 
L 48.894651 82.575515 
L 49.005108 82.567503 
L 51.660316 82.346184 
L 54.56179 82.034233 
L 54.671644 82.022216 
L 56.052968 81.853723 
L 58.959271 81.440689 
L 59.07003 81.4221 
L 60.235871 81.230135 
L 61.605424 80.976456 
L 61.716486 80.953799 
L 62.760401 80.733856 
L 65.224873 80.109329 
L 65.335632 80.079536 
L 66.509622 79.722646 
L 68.598055 78.976506 
L 68.984657 78.824725 
L 69.54449 78.595206 
L 70.247072 78.288889 
L 70.702484 78.081026 
L 70.813545 78.029139 
L 71.255375 77.824093 
L 71.366437 77.768262 
L 71.772655 77.570664 
L 72.014998 77.446297 
L 73.048953 76.897317 
L 73.160015 76.837794 
L 78.275771 73.524135 
L 78.386833 73.43945 
L 78.763777 73.162863 
L 78.874838 73.078366 
L 79.216774 72.816363 
L 79.327835 72.73099 
L 85.334194 67.604151 
L 85.445255 67.50144 
L 85.599775 67.356168 
L 85.997241 66.974742 
L 86.22721 66.759118 
L 86.338271 66.655531 
L 86.492188 66.510196 
L 86.790665 66.229917 
L 86.938847 66.085771 
L 87.049908 65.976864 
L 87.267805 65.766372 
L 87.378867 65.660031 
L 87.725329 65.313656 
L 87.836391 65.204561 
L 88.206092 64.84379 
L 98.066093 54.459298 
L 98.177154 54.336183 
L 99.30346 53.008203 
L 102.189844 49.239575 
L 102.300905 49.076339 
L 108.086349 39.692354 
L 108.234531 39.510967 
L 108.345592 39.376961 
L 110.464205 37.340021 
L 110.661279 37.185923 
L 110.997782 36.944387 
L 111.477941 36.624988 
L 111.589002 36.550255 
L 111.858204 36.381011 
L 111.969266 36.312036 
L 112.259896 36.138348 
L 112.370957 36.076133 
L 113.538609 35.480336 
L 113.849459 35.33644 
L 117.647571 33.881277 
L 118.810394 33.526703 
L 118.921456 33.493843 
L 119.529274 33.319153 
L 119.640335 33.290111 
L 120.007924 33.192157 
L 122.681843 32.524193 
L 123.284229 32.394568 
L 129.551944 31.208105 
L 131.585451 30.885577 
L 132.026074 30.823049 
L 140.29289 29.792186 
L 144.048147 29.421213 
L 150.514143 28.862406 
L 155.783816 28.477976 
L 157.401748 28.366253 
L 160.687409 28.157764 
L 161.463932 28.11007 
L 169.113876 27.692593 
L 208.91453 26.624551 
L 220.974629 26.457747 
L 223.519078 26.428768 
L 223.519078 26.428768 
" clip-path="url(#pbaaba316b9)" style="fill: none; stroke: #9467bd; stroke-width: 1.5; stroke-linecap: square"/>
   </g>
   <g id="line2d_22">
    <path d="M 43.006294 82.688947 
L 47.274304 82.576794 
L 50.140166 82.183777 
L 51.192229 81.998133 
L 51.88093 81.872666 
L 52.752519 81.699803 
L 53.688692 81.487105 
L 54.629996 81.264502 
L 56.137773 80.885652 
L 57.474732 80.531191 
L 57.976319 80.390387 
L 58.08738 80.360032 
L 58.579007 80.214009 
L 64.004105 78.18172 
L 64.115166 78.126549 
L 64.743205 77.818952 
L 65.018444 77.683154 
L 65.765994 77.301534 
L 65.876754 77.238055 
L 66.187604 77.07041 
L 67.125287 76.544471 
L 67.591563 76.262437 
L 67.702624 76.193419 
L 68.060555 75.976035 
L 68.502687 75.702202 
L 73.915714 71.745624 
L 74.026775 71.6585 
L 75.029344 70.815059 
L 75.140405 70.720906 
L 75.987247 69.987275 
L 76.098308 69.888435 
L 76.761053 69.284745 
L 76.872115 69.184947 
L 77.022409 69.045633 
L 77.229744 68.85477 
L 77.498343 68.605753 
L 77.697529 68.417979 
L 77.80859 68.313813 
L 78.037654 68.115175 
L 78.148715 68.01282 
L 78.362689 67.819614 
L 78.47375 67.715875 
L 79.727112 66.550672 
L 79.91483 66.366731 
L 80.025891 66.264803 
L 80.224171 66.077028 
L 80.335232 65.974993 
L 80.536531 65.786154 
L 81.147669 65.218996 
L 81.42834 64.948464 
L 81.573806 64.810003 
L 81.765447 64.624678 
L 81.876508 64.516253 
L 82.401333 64.010124 
L 82.512394 63.899462 
L 83.996631 62.489609 
L 84.318949 62.171148 
L 84.844378 61.664487 
L 84.955439 61.556807 
L 85.14376 61.372654 
L 86.64369 59.946292 
L 86.849817 59.755748 
L 86.960878 59.651902 
L 87.568697 59.086981 
L 87.679758 58.979514 
L 87.898561 58.775657 
L 88.102877 58.585752 
L 89.243367 57.539732 
L 89.396378 57.4001 
L 89.507439 57.292206 
L 90.111636 56.730055 
L 90.376312 56.488174 
L 90.588475 56.295606 
L 90.699536 56.194743 
L 90.922564 55.998341 
L 91.033625 55.899821 
L 91.252126 55.70491 
L 92.163552 54.901623 
L 92.369981 54.710973 
L 92.481042 54.614157 
L 93.258773 53.929307 
L 94.183478 53.111748 
L 94.344034 52.970837 
L 94.700154 52.660258 
L 94.923785 52.46375 
L 95.258176 52.183845 
L 95.479091 51.988189 
L 95.590153 51.88413 
L 96.456611 51.13708 
L 96.644329 50.969009 
L 97.666514 50.111722 
L 97.777575 50.01448 
L 98.022936 49.805936 
L 98.205221 49.660978 
L 98.316283 49.562991 
L 99.350238 48.697289 
L 99.461299 48.608461 
L 100.402302 47.808582 
L 100.513061 47.706973 
L 100.696554 47.54966 
L 101.505972 46.842657 
L 101.617034 46.746586 
L 102.282495 46.141192 
L 102.547473 45.898778 
L 106.697782 41.66645 
L 106.896062 41.478675 
L 107.841893 40.638962 
L 108.098421 40.430738 
L 108.20918 40.339993 
L 108.402028 40.193331 
L 108.707446 39.954112 
L 109.016788 39.727249 
L 109.127849 39.6528 
L 110.740048 38.650555 
L 111.005327 38.50762 
L 111.713644 38.143574 
L 112.652534 37.694428 
L 112.763595 37.644475 
L 113.203011 37.454145 
L 119.72001 35.271892 
L 120.298856 35.119691 
L 121.546484 34.797184 
L 122.136798 34.656273 
L 123.096814 34.435055 
L 123.747789 34.291055 
L 124.600667 34.10786 
L 125.859763 33.847873 
L 136.905222 32.01156 
L 138.639346 31.777774 
L 143.914753 31.14522 
L 168.57366 29.080872 
L 171.094267 28.93421 
L 174.35005 28.758471 
L 190.805819 28.039964 
L 195.139319 27.888616 
L 195.247664 27.885314 
L 211.92797 27.407517 
L 217.547727 27.27257 
L 220.586217 27.204618 
L 223.518172 27.146038 
L 223.518172 27.146038 
" clip-path="url(#pbaaba316b9)" style="fill: none; stroke-dasharray: 1.5,2.475; stroke-dashoffset: 0; stroke: #8c564b; stroke-width: 1.5"/>
   </g>
   <g id="line2d_23">
    <path d="M 44.291043 82.688919 
L 48.441352 82.574359 
L 49.645219 82.443357 
L 51.006926 82.210194 
L 53.615054 81.514074 
L 53.876108 81.429704 
L 55.365777 80.885478 
L 55.694433 80.757979 
L 61.160576 78.195343 
L 61.610555 77.942368 
L 61.870402 77.791418 
L 62.720262 77.29032 
L 62.831323 77.222528 
L 63.533302 76.78747 
L 63.644363 76.706469 
L 64.206309 76.333948 
L 64.822276 75.932719 
L 65.33352 75.582839 
L 66.243135 74.919066 
L 66.461032 74.756661 
L 66.789689 74.501664 
L 66.978916 74.361227 
L 67.089977 74.282114 
L 67.354954 74.087497 
L 67.680593 73.836947 
L 69.030228 72.780301 
L 69.221869 72.623691 
L 69.551733 72.354813 
L 71.721048 70.565927 
L 71.912689 70.409317 
L 72.02375 70.315108 
L 72.334601 70.054721 
L 76.14569 66.799739 
L 76.324354 66.646228 
L 76.435415 66.545685 
L 76.681077 66.334087 
L 76.869399 66.178285 
L 76.979856 66.08475 
L 77.480839 65.65724 
L 77.591598 65.560605 
L 77.780221 65.404669 
L 77.891282 65.306687 
L 80.889029 62.77788 
L 81.07222 62.623291 
L 81.432264 62.326649 
L 81.779632 62.050088 
L 81.890391 61.959114 
L 82.075694 61.803986 
L 82.186454 61.712203 
L 82.373266 61.556806 
L 84.060913 60.197992 
L 84.293599 60.012809 
L 84.661187 59.727084 
L 84.772248 59.638536 
L 85.135008 59.355101 
L 85.246069 59.271001 
L 85.602491 58.990262 
L 87.059566 57.83752 
L 87.276558 57.675249 
L 87.387619 57.586028 
L 87.697564 57.355695 
L 87.898561 57.213506 
L 88.816928 56.542185 
L 89.231597 56.235434 
L 89.342658 56.158208 
L 89.748877 55.855365 
L 89.929049 55.724902 
L 90.795508 55.099944 
L 91.267518 54.767586 
L 91.565089 54.55437 
L 91.770915 54.411642 
L 92.04555 54.229289 
L 92.52933 53.891675 
L 92.739381 53.74369 
L 93.471841 53.238145 
L 93.727463 53.067248 
L 94.275526 52.700926 
L 94.923785 52.270855 
L 95.524059 51.881352 
L 95.795676 51.702638 
L 96.034397 51.554789 
L 96.593023 51.18375 
L 96.704084 51.113936 
L 97.337254 50.709607 
L 97.540061 50.574426 
L 100.07455 49.010213 
L 100.346771 48.835677 
L 100.457832 48.766941 
L 101.139591 48.340914 
L 101.400042 48.177565 
L 102.147894 47.722021 
L 102.343458 47.599914 
L 102.886994 47.263377 
L 103.473989 46.879669 
L 103.58505 46.804868 
L 104.176572 46.425338 
L 104.403825 46.279241 
L 105.042125 45.872621 
L 107.316465 44.482808 
L 109.067792 43.579133 
L 109.178853 43.525761 
L 114.973049 41.05976 
L 115.772508 40.767565 
L 115.955095 40.708128 
L 117.030397 40.354206 
L 117.293866 40.267814 
L 118.227625 39.97225 
L 118.753958 39.801758 
L 118.864416 39.767794 
L 119.298701 39.628975 
L 119.553116 39.5504 
L 120.268073 39.331658 
L 121.093789 39.084074 
L 121.659356 38.922073 
L 123.46078 38.406015 
L 124.188714 38.202233 
L 124.926305 38.008155 
L 125.037065 37.977965 
L 125.678081 37.813134 
L 126.243346 37.67391 
L 139.302695 34.871372 
L 140.267841 34.706271 
L 158.780657 32.062634 
L 161.049867 31.806559 
L 162.003847 31.706825 
L 163.789578 31.52919 
L 164.788827 31.419751 
L 166.186448 31.277427 
L 168.314115 31.07122 
L 195.187003 29.182465 
L 200.167554 28.93232 
L 201.29899 28.875849 
L 205.070846 28.697405 
L 210.176644 28.482841 
L 219.848928 28.117732 
L 220.14167 28.108028 
L 223.516663 28.001286 
L 223.516663 28.001286 
" clip-path="url(#pbaaba316b9)" style="fill: none; stroke-dasharray: 5.55,2.4; stroke-dashoffset: 0; stroke: #1f77b4; stroke-width: 1.5"/>
   </g>
   <g id="patch_3">
    <path d="M 42.437408 85.548056 
L 42.437408 22.65 
" style="fill: none; stroke: #000000; stroke-width: 0.8; stroke-linejoin: miter; stroke-linecap: square"/>
   </g>
   <g id="patch_4">
    <path d="M 223.515456 85.548056 
L 223.515456 22.65 
" style="fill: none; stroke: #000000; stroke-width: 0.8; stroke-linejoin: miter; stroke-linecap: square"/>
   </g>
   <g id="patch_5">
    <path d="M 42.437408 85.548056 
L 223.515456 85.548056 
" style="fill: none; stroke: #000000; stroke-width: 0.8; stroke-linejoin: miter; stroke-linecap: square"/>
   </g>
   <g id="patch_6">
    <path d="M 42.437408 22.65 
L 223.515456 22.65 
" style="fill: none; stroke: #000000; stroke-width: 0.8; stroke-linejoin: miter; stroke-linecap: square"/>
   </g>
  </g>
  <g id="axes_2">
   <g id="patch_7">
    <path d="M 239.401951 85.548056 
L 420.48 85.548056 
L 420.48 22.65 
L 239.401951 22.65 
z
" style="fill: #ffffff"/>
   </g>
   <g id="matplotlib.axis_3">
    <g id="xtick_7">
     <g id="line2d_24">
      <g>
       <use xlink:href="#m78bdd21d6d" x="239.401951" y="85.548056" style="stroke: #000000; stroke-width: 0.8"/>
      </g>
     </g>
     <g id="text_14">
      <!-- 0 -->
      <g transform="translate(236.475456 100.850236) scale(0.12 -0.12)">
       <use xlink:href="#CMR17-30" transform="scale(0.996264)"/>
      </g>
     </g>
    </g>
    <g id="xtick_8">
     <g id="line2d_25">
      <g>
       <use xlink:href="#m78bdd21d6d" x="269.581626" y="85.548056" style="stroke: #000000; stroke-width: 0.8"/>
      </g>
     </g>
     <g id="text_15">
      <!-- 100 -->
      <g transform="translate(260.802141 100.850236) scale(0.12 -0.12)">
       <use xlink:href="#CMR17-31" transform="scale(0.996264)"/>
       <use xlink:href="#CMR17-30" transform="translate(45.690477 0) scale(0.996264)"/>
       <use xlink:href="#CMR17-30" transform="translate(91.380954 0) scale(0.996264)"/>
      </g>
     </g>
    </g>
    <g id="xtick_9">
     <g id="line2d_26">
      <g>
       <use xlink:href="#m78bdd21d6d" x="299.761301" y="85.548056" style="stroke: #000000; stroke-width: 0.8"/>
      </g>
     </g>
     <g id="text_16">
      <!-- 200 -->
      <g transform="translate(290.981816 100.850236) scale(0.12 -0.12)">
       <use xlink:href="#CMR17-32" transform="scale(0.996264)"/>
       <use xlink:href="#CMR17-30" transform="translate(45.690477 0) scale(0.996264)"/>
       <use xlink:href="#CMR17-30" transform="translate(91.380954 0) scale(0.996264)"/>
      </g>
     </g>
    </g>
    <g id="xtick_10">
     <g id="line2d_27">
      <g>
       <use xlink:href="#m78bdd21d6d" x="329.940976" y="85.548056" style="stroke: #000000; stroke-width: 0.8"/>
      </g>
     </g>
     <g id="text_17">
      <!-- 300 -->
      <g transform="translate(321.16149 100.850236) scale(0.12 -0.12)">
       <use xlink:href="#CMR17-33" transform="scale(0.996264)"/>
       <use xlink:href="#CMR17-30" transform="translate(45.690477 0) scale(0.996264)"/>
       <use xlink:href="#CMR17-30" transform="translate(91.380954 0) scale(0.996264)"/>
      </g>
     </g>
    </g>
    <g id="xtick_11">
     <g id="line2d_28">
      <g>
       <use xlink:href="#m78bdd21d6d" x="360.12065" y="85.548056" style="stroke: #000000; stroke-width: 0.8"/>
      </g>
     </g>
     <g id="text_18">
      <!-- 400 -->
      <g transform="translate(351.341165 100.850236) scale(0.12 -0.12)">
       <use xlink:href="#CMR17-34" transform="scale(0.996264)"/>
       <use xlink:href="#CMR17-30" transform="translate(45.690477 0) scale(0.996264)"/>
       <use xlink:href="#CMR17-30" transform="translate(91.380954 0) scale(0.996264)"/>
      </g>
     </g>
    </g>
    <g id="xtick_12">
     <g id="line2d_29">
      <g>
       <use xlink:href="#m78bdd21d6d" x="390.300325" y="85.548056" style="stroke: #000000; stroke-width: 0.8"/>
      </g>
     </g>
     <g id="text_19">
      <!-- 500 -->
      <g transform="translate(381.52084 100.850236) scale(0.12 -0.12)">
       <use xlink:href="#CMR17-35" transform="scale(0.996264)"/>
       <use xlink:href="#CMR17-30" transform="translate(45.690477 0) scale(0.996264)"/>
       <use xlink:href="#CMR17-30" transform="translate(91.380954 0) scale(0.996264)"/>
      </g>
     </g>
    </g>
    <g id="text_20">
     <!-- (b) Upload [ms] -->
     <g transform="translate(289.427352 116.141208) scale(0.12 -0.12)">
      <defs>
       <path id="CMR17-62" d="M 960 4396 
L 198 4326 
L 198 4160 
C 576 4160 634 4122 634 3817 
L 634 -13 
L 749 -13 
L 934 441 
C 1120 141 1395 -64 1766 -64 
C 2406 -64 3053 500 3053 1370 
C 3053 2188 2477 2790 1830 2790 
C 1434 2790 1152 2579 960 2330 
L 960 4396 
z
M 973 2004 
C 973 2118 973 2138 1062 2272 
C 1312 2657 1670 2688 1792 2688 
C 1984 2688 2643 2585 2643 1376 
C 2643 108 1888 38 1734 38 
C 1536 38 1248 114 1043 486 
C 973 608 973 621 973 735 
L 973 2004 
z
" transform="scale(0.015625)"/>
       <path id="CMR17-55" d="M 3456 1433 
C 3456 579 2899 38 2291 38 
C 1965 38 1670 210 1491 477 
C 1286 783 1261 1178 1261 1401 
L 1261 3874 
C 1261 4160 1331 4160 1773 4160 
L 1773 4320 
C 1587 4320 1248 4320 1050 4320 
C 851 4320 512 4320 326 4320 
L 326 4160 
C 768 4160 838 4160 838 3874 
L 838 1433 
C 838 516 1536 -128 2278 -128 
C 3110 -128 3590 719 3590 1344 
L 3590 3766 
C 3590 4122 3917 4160 4102 4160 
L 4102 4326 
C 3955 4320 3686 4320 3526 4320 
C 3366 4320 3091 4320 2944 4326 
L 2944 4160 
C 3456 4160 3456 3861 3456 3702 
L 3456 1433 
z
" transform="scale(0.015625)"/>
       <path id="CMR17-70" d="M 1408 -1063 
C 998 -1063 973 -1037 973 -789 
L 973 402 
C 1158 134 1427 -38 1766 -38 
C 2406 -38 3053 523 3053 1388 
C 3053 2191 2496 2802 1837 2802 
C 1453 2802 1139 2592 960 2338 
L 960 2802 
L 198 2732 
L 198 2567 
C 576 2567 634 2528 634 2223 
L 634 -789 
C 634 -1031 608 -1063 198 -1063 
L 198 -1228 
C 352 -1216 634 -1216 800 -1216 
C 966 -1216 1254 -1216 1408 -1228 
L 1408 -1063 
z
M 973 2012 
C 973 2102 973 2235 1222 2471 
C 1254 2497 1472 2688 1792 2688 
C 2259 2688 2643 2108 2643 1382 
C 2643 656 2234 64 1728 64 
C 1498 64 1248 172 1056 472 
C 973 612 973 650 973 752 
L 973 2012 
z
" transform="scale(0.015625)"/>
      </defs>
      <use xlink:href="#CMR17-28" transform="scale(0.996264)"/>
      <use xlink:href="#CMR17-62" transform="translate(35.280768 0) scale(0.996264)"/>
      <use xlink:href="#CMR17-29" transform="translate(86.176138 0) scale(0.996264)"/>
      <use xlink:href="#CMR17-55" transform="translate(151.532872 0) scale(0.996264)"/>
      <use xlink:href="#CMR17-70" transform="translate(220.605302 0) scale(0.996264)"/>
      <use xlink:href="#CMR17-6c" transform="translate(271.500671 0) scale(0.996264)"/>
      <use xlink:href="#CMR17-6f" transform="translate(296.37173 0) scale(0.996264)"/>
      <use xlink:href="#CMR17-61" transform="translate(342.062207 0) scale(0.996264)"/>
      <use xlink:href="#CMR17-64" transform="translate(387.752684 0) scale(0.996264)"/>
      <use xlink:href="#CMR17-5b" transform="translate(468.72402 0) scale(0.996264)"/>
      <use xlink:href="#CMR17-6d" transform="translate(493.595079 0) scale(0.996264)"/>
      <use xlink:href="#CMR17-73" transform="translate(570.514669 0) scale(0.996264)"/>
      <use xlink:href="#CMR17-5d" transform="translate(606.316006 0) scale(0.996264)"/>
     </g>
    </g>
   </g>
   <g id="matplotlib.axis_4"/>
   <g id="line2d_30">
    <path d="M 239.401951 82.687462 
L 241.828397 82.521916 
L 242.5008 82.350004 
L 243.285774 81.851776 
L 243.447839 81.68623 
L 243.778004 81.24849 
L 244.058977 80.815524 
L 244.132615 80.66908 
L 244.377071 80.162893 
L 244.712065 79.349492 
L 245.600857 76.694397 
L 245.758696 76.196168 
L 245.85165 75.890546 
L 247.595733 69.353091 
L 247.771681 68.670215 
L 248.103959 67.481153 
L 248.446196 66.269806 
L 248.508366 66.067649 
L 248.809258 65.075968 
L 249.369091 63.286803 
L 249.628938 62.502054 
L 249.676018 62.3381 
L 249.786777 61.960847 
L 250.042701 61.20475 
L 250.272067 60.577587 
L 250.500225 59.967934 
L 250.84548 59.137023 
L 250.95624 58.853686 
L 251.12585 58.446189 
L 251.236609 58.240849 
L 251.863743 56.897384 
L 251.948548 56.709553 
L 252.611595 55.272173 
L 252.75193 55.001569 
L 252.926369 54.673662 
L 253.075155 54.3951 
L 253.240238 54.106987 
L 253.325043 53.963727 
L 253.500386 53.632636 
L 254.791171 51.585602 
L 254.913097 51.39618 
L 255.23602 50.854973 
L 255.510051 50.466578 
L 255.660949 50.266013 
L 255.843235 49.990635 
L 256.079541 49.672278 
L 256.214143 49.514691 
L 256.357496 49.352329 
L 256.651446 48.992586 
L 257.21973 48.217388 
L 257.446379 47.956335 
L 257.584904 47.816258 
L 257.778959 47.618877 
L 257.925632 47.440597 
L 260.821976 44.546735 
L 261.020558 44.347762 
L 261.130714 44.253846 
L 261.671835 43.808147 
L 266.155629 40.5625 
L 266.331879 40.435158 
L 266.574523 40.233001 
L 266.899558 40.016518 
L 267.152464 39.862115 
L 267.475688 39.645633 
L 271.691487 37.544479 
L 271.980608 37.409177 
L 278.025597 35.067663 
L 278.364213 34.945096 
L 278.507265 34.897342 
L 279.091543 34.73498 
L 279.256324 34.698369 
L 280.863694 34.282914 
L 281.401194 34.165122 
L 281.988189 34.005944 
L 283.036932 33.75285 
L 284.393207 33.479063 
L 284.702247 33.421759 
L 286.839571 33.020629 
L 288.330447 32.738884 
L 289.346597 32.566971 
L 292.164171 32.14674 
L 292.55862 32.079885 
L 296.095678 31.589616 
L 297.075008 31.438397 
L 297.202668 31.41452 
L 297.382841 31.385868 
L 297.815919 31.339706 
L 301.19725 30.965637 
L 302.931072 30.819193 
L 304.191979 30.715727 
L 305.887775 30.566099 
L 306.105974 30.537447 
L 309.332181 30.284353 
L 309.437508 30.271619 
L 334.269043 29.03162 
L 365.28892 28.221402 
L 373.067731 28.079733 
L 378.172321 27.992185 
L 420.485131 27.444611 
L 420.485131 27.444611 
" clip-path="url(#p81f644fee8)" style="fill: none; stroke: #1f77b4; stroke-width: 1.5; stroke-linecap: square"/>
   </g>
   <g id="line2d_31">
    <path d="M 239.401951 82.684202 
L 242.678257 82.487698 
L 243.369975 82.182027 
L 243.491297 82.080136 
L 243.727604 81.827835 
L 244.189051 81.131583 
L 244.404232 80.716742 
L 244.523744 80.532369 
L 244.772424 79.923451 
L 244.928152 79.566834 
L 245.111946 79.062233 
L 245.539592 77.795878 
L 245.605685 77.611504 
L 245.791592 77.007438 
L 245.847424 76.820639 
L 245.95758 76.493133 
L 246.128699 76.00794 
L 246.403636 75.098202 
L 246.541557 74.661528 
L 249.070614 66.898432 
L 249.148176 66.694651 
L 249.562241 65.486519 
L 249.710121 65.103216 
L 251.208542 61.40119 
L 251.291838 61.204687 
L 251.515167 60.765587 
L 252.082244 59.64479 
L 252.220466 59.397341 
L 252.295614 59.251783 
L 252.499628 58.793275 
L 252.610388 58.560382 
L 253.631366 56.755462 
L 253.778039 56.524996 
L 254.029134 56.168378 
L 257.898772 51.16846 
L 258.360219 50.797287 
L 258.491501 50.642025 
L 259.041677 50.088904 
L 259.373955 49.710453 
L 259.527267 49.552765 
L 261.064017 48.155408 
L 261.23091 48.024406 
L 264.048786 45.887129 
L 264.252197 45.7537 
L 266.419702 44.169544 
L 266.545551 44.072505 
L 266.754696 43.934225 
L 267.243909 43.635831 
L 267.529408 43.487847 
L 267.78171 43.332585 
L 275.291017 39.681504 
L 275.679128 39.518964 
L 275.842098 39.470445 
L 276.224776 39.307905 
L 277.76062 38.735377 
L 277.969463 38.657746 
L 278.349425 38.512188 
L 279.253005 38.20409 
L 279.696344 38.060958 
L 279.804689 38.034272 
L 280.557974 37.840195 
L 281.137122 37.653395 
L 283.428363 36.964421 
L 283.868684 36.852826 
L 285.256044 36.54958 
L 287.374959 36.025571 
L 287.982476 35.887291 
L 291.391873 35.140093 
L 292.485283 34.982405 
L 292.631655 34.946016 
L 293.984308 34.703419 
L 294.336806 34.640344 
L 294.944625 34.526323 
L 296.291845 34.281301 
L 296.968474 34.15515 
L 298.137031 33.980481 
L 298.273745 33.965925 
L 299.469463 33.798533 
L 300.932272 33.60203 
L 301.863013 33.437064 
L 301.985241 33.422508 
L 303.027044 33.286654 
L 303.608002 33.206597 
L 304.603932 33.073169 
L 304.713182 33.065891 
L 305.884153 32.927611 
L 306.073682 32.898499 
L 308.027212 32.701996 
L 308.38303 32.660754 
L 310.413821 32.439991 
L 317.082925 31.835925 
L 336.488456 30.501643 
L 342.548233 30.212953 
L 342.792387 30.198398 
L 348.83979 29.924263 
L 349.086358 29.912133 
L 354.696759 29.7035 
L 354.981957 29.67924 
L 376.77802 29.067897 
L 384.295475 28.915061 
L 393.86877 28.704002 
L 404.706291 28.497794 
L 420.665303 28.262476 
L 420.665303 28.262476 
" clip-path="url(#p81f644fee8)" style="fill: none; stroke-dasharray: 1.5,2.475; stroke-dashoffset: 0; stroke: #ff7f0e; stroke-width: 1.5"/>
   </g>
   <g id="line2d_32">
    <path d="M 239.401951 82.682493 
L 239.555566 82.679213 
L 242.629366 82.43976 
L 243.277022 82.169474 
L 244.508051 80.667808 
L 244.619112 80.422451 
L 244.854513 79.894343 
L 245.469575 78.291648 
L 245.852857 77.119313 
L 245.938567 76.862147 
L 246.400316 75.348673 
L 246.464599 75.115124 
L 246.57566 74.704446 
L 246.619421 74.535845 
L 246.730482 74.148784 
L 246.922425 73.466507 
L 247.033486 73.069606 
L 247.580341 71.182192 
L 247.618066 71.04508 
L 247.728825 70.630466 
L 247.795522 70.394293 
L 247.906584 70.008544 
L 248.14621 69.221958 
L 248.257272 68.858514 
L 248.543978 67.970242 
L 248.65504 67.604174 
L 249.004822 66.578791 
L 249.115883 66.280295 
L 249.212458 66.01132 
L 249.323519 65.67871 
L 249.60419 64.952479 
L 249.706801 64.676944 
L 252.315532 59.268588 
L 252.399734 59.136724 
L 252.53856 58.89924 
L 253.065497 58.018184 
L 253.179878 57.847615 
L 253.551692 57.305073 
L 253.76808 57.01117 
L 254.274193 56.297403 
L 254.383746 56.157667 
L 254.496919 56.012028 
L 254.607075 55.860483 
L 254.763708 55.64924 
L 255.022347 55.350744 
L 255.151215 55.17427 
L 255.309054 54.982708 
L 255.614473 54.624513 
L 255.725232 54.49593 
L 259.019042 51.076673 
L 259.198309 50.934313 
L 260.139311 50.116237 
L 260.279647 50.001431 
L 260.840989 49.55467 
L 261.066733 49.386069 
L 261.432209 49.061332 
L 261.614192 48.929469 
L 261.81549 48.77202 
L 262.173723 48.496485 
L 262.351481 48.375119 
L 264.700064 46.809162 
L 264.935767 46.66549 
L 265.28223 46.452935 
L 265.543586 46.305327 
L 265.815203 46.143286 
L 266.149895 45.941227 
L 266.414571 45.784435 
L 266.581465 45.685373 
L 266.945733 45.492499 
L 267.11655 45.384253 
L 267.514922 45.184162 
L 267.624474 45.132335 
L 268.276657 44.778732 
L 268.434798 44.700008 
L 270.247993 43.839946 
L 270.562767 43.690369 
L 271.498639 43.307245 
L 271.890069 43.158981 
L 272.039157 43.099938 
L 272.455033 42.933305 
L 272.843445 42.779792 
L 272.993137 42.715501 
L 273.528524 42.535091 
L 273.740084 42.462271 
L 274.155356 42.324504 
L 274.593263 42.167711 
L 274.942442 42.050281 
L 275.596134 41.828541 
L 276.484321 41.56219 
L 277.181774 41.371284 
L 277.660423 41.201371 
L 278.144505 41.064259 
L 278.743874 40.864169 
L 279.50923 40.641117 
L 281.186918 40.162867 
L 284.024109 39.397273 
L 284.756268 39.219488 
L 287.236434 38.566732 
L 287.372243 38.529338 
L 288.174418 38.314815 
L 288.466256 38.238715 
L 289.466712 37.981549 
L 295.98522 36.519902 
L 296.866466 36.368358 
L 299.532539 35.952431 
L 300.53209 35.798919 
L 301.595923 35.654591 
L 302.99113 35.467621 
L 307.211154 34.967722 
L 308.889445 34.790592 
L 310.943474 34.582629 
L 312.465737 34.438301 
L 315.89445 34.101099 
L 316.05742 34.085354 
L 318.597945 33.866238 
L 319.586933 33.782266 
L 321.477991 33.615633 
L 321.998591 33.567086 
L 324.415379 33.383396 
L 324.577444 33.370276 
L 325.070278 33.332882 
L 327.476805 33.168873 
L 334.572952 32.681438 
L 335.032589 32.650605 
L 338.418446 32.466915 
L 340.157097 32.375726 
L 343.019941 32.221557 
L 346.110944 32.081822 
L 349.812783 31.925029 
L 352.176153 31.812847 
L 358.222047 31.555681 
L 359.778413 31.486142 
L 365.214074 31.291299 
L 389.946921 30.50012 
L 390.545384 30.480439 
L 396.651638 30.315774 
L 398.509197 30.26854 
L 405.073578 30.1229 
L 413.995595 29.935274 
L 417.127944 29.85655 
L 420.535531 29.792914 
L 420.535531 29.792914 
" clip-path="url(#p81f644fee8)" style="fill: none; stroke-dasharray: 5.55,2.4; stroke-dashoffset: 0; stroke: #2ca02c; stroke-width: 1.5"/>
   </g>
   <g id="line2d_33">
    <path d="M 239.401951 82.68168 
L 242.878952 82.522582 
L 243.578517 82.346278 
L 244.390048 81.927752 
L 244.501109 81.849544 
L 244.752808 81.637935 
L 245.292722 81.100086 
L 245.403783 80.962216 
L 245.661216 80.633518 
L 246.747081 78.827131 
L 246.995761 78.331738 
L 247.067589 78.186717 
L 247.17865 77.973097 
L 247.283977 77.757019 
L 247.395038 77.520607 
L 247.501874 77.303858 
L 247.612935 77.06901 
L 249.705292 72.69203 
L 249.816655 72.471707 
L 249.927717 72.24021 
L 250.321561 71.458798 
L 250.432622 71.244061 
L 250.540666 71.026195 
L 250.651727 70.813022 
L 250.731401 70.665096 
L 250.842462 70.452593 
L 251.45511 69.362147 
L 251.704696 68.919042 
L 251.815757 68.719052 
L 253.26076 66.380849 
L 253.371821 66.20611 
L 253.560444 65.928359 
L 253.671505 65.761664 
L 255.682679 62.981473 
L 255.819091 62.812543 
L 256.676495 61.740866 
L 256.821056 61.569032 
L 257.479878 60.790972 
L 257.611462 60.644164 
L 257.722523 60.519924 
L 258.157412 60.059836 
L 258.678011 59.487129 
L 258.858486 59.301887 
L 259.30092 58.836213 
L 259.757538 58.358472 
L 260.386785 57.754481 
L 260.758598 57.402321 
L 261.534216 56.706044 
L 261.697488 56.563034 
L 262.024636 56.277016 
L 262.262753 56.070546 
L 262.45711 55.907426 
L 262.620081 55.76464 
L 262.946323 55.479962 
L 263.130117 55.320194 
L 269.755763 50.552396 
L 269.978489 50.412962 
L 270.088946 50.344363 
L 270.452913 50.140127 
L 271.308507 49.644287 
L 271.589178 49.479379 
L 272.209974 49.131241 
L 272.321035 49.066887 
L 272.716691 48.854831 
L 273.461827 48.460661 
L 273.674594 48.343796 
L 274.509665 47.916332 
L 274.717301 47.805723 
L 275.327233 47.509426 
L 275.43769 47.456021 
L 275.855377 47.265863 
L 276.331009 47.051349 
L 276.624355 46.920406 
L 276.735416 46.873258 
L 277.16095 46.681536 
L 277.61787 46.481323 
L 278.02107 46.309488 
L 278.132132 46.258094 
L 286.512122 43.273668 
L 287.036041 43.113676 
L 288.113455 42.80129 
L 289.665898 42.344554 
L 290.223618 42.173837 
L 290.976601 41.96044 
L 301.013456 39.597434 
L 301.958985 39.40817 
L 303.920362 39.038357 
L 304.907539 38.854009 
L 305.1529 38.810212 
L 306.685424 38.556817 
L 306.931388 38.512797 
L 308.281325 38.294038 
L 309.879037 38.051145 
L 310.112024 38.016063 
L 311.831964 37.763116 
L 312.35377 37.687812 
L 313.482188 37.520894 
L 314.717744 37.333417 
L 330.117829 35.544907 
L 333.076342 35.265145 
L 335.030476 35.087947 
L 362.665702 33.152852 
L 365.6215 33.004703 
L 366.441783 32.964929 
L 372.671774 32.661704 
L 372.861 32.653213 
L 376.780435 32.469535 
L 381.367141 32.272004 
L 387.527719 32.018386 
L 393.754993 31.799626 
L 398.29975 31.641869 
L 400.13226 31.583101 
L 404.888576 31.421769 
L 405.610474 31.400094 
L 418.129003 31.008159 
L 419.070006 30.980004 
L 420.485432 30.944028 
L 420.485432 30.944028 
" clip-path="url(#p81f644fee8)" style="fill: none; stroke-dasharray: 9.6,2.4,1.5,2.4; stroke-dashoffset: 0; stroke: #d62728; stroke-width: 1.5"/>
   </g>
   <g id="line2d_34">
    <path d="M 239.401951 82.684522 
L 239.8637 82.678506 
L 242.99786 82.533656 
L 243.6766 82.363649 
L 243.78736 82.322084 
L 244.090364 82.170906 
L 244.201425 82.099496 
L 244.439543 81.92316 
L 244.550604 81.829562 
L 244.715385 81.672368 
L 244.826446 81.551659 
L 244.951994 81.404621 
L 245.063055 81.260943 
L 245.315055 80.924756 
L 245.426116 80.762796 
L 245.507903 80.626852 
L 245.618964 80.440985 
L 245.696224 80.306447 
L 245.807286 80.098391 
L 245.899032 79.925805 
L 246.010093 79.715874 
L 246.074979 79.584306 
L 246.18604 79.360468 
L 246.329997 79.051704 
L 246.441059 78.801302 
L 246.513188 78.638951 
L 246.624249 78.373939 
L 246.680082 78.244715 
L 246.836714 77.860713 
L 246.947775 77.572654 
L 247.154204 77.046849 
L 247.265266 76.759258 
L 247.338904 76.561671 
L 247.449965 76.261345 
L 247.497649 76.13423 
L 247.60871 75.825701 
L 247.666052 75.671006 
L 247.777113 75.350367 
L 247.821175 75.224346 
L 247.932236 74.912613 
L 248.095207 74.45478 
L 248.206268 74.134531 
L 248.250934 74.008354 
L 248.361995 73.707637 
L 248.406963 73.581226 
L 248.56782 73.126205 
L 248.678882 72.819629 
L 248.733205 72.666497 
L 248.844266 72.354843 
L 248.891045 72.228196 
L 249.002106 71.914823 
L 249.047074 71.788646 
L 249.158135 71.4766 
L 249.279457 71.138226 
L 249.390518 70.834853 
L 249.46476 70.636797 
L 249.575822 70.328502 
L 249.634974 70.17287 
L 249.746035 69.882623 
L 249.938581 69.379007 
L 250.049642 69.088447 
L 250.152857 68.821794 
L 250.263918 68.53936 
L 250.313413 68.411932 
L 250.424474 68.130123 
L 250.50445 67.927536 
L 250.615511 67.644086 
L 250.66742 67.515877 
L 250.778482 67.242661 
L 250.832201 67.114062 
L 254.606773 59.552006 
L 254.690069 59.41575 
L 254.80113 59.239726 
L 254.968326 58.969324 
L 257.05525 55.932782 
L 257.162388 55.790354 
L 257.273449 55.647222 
L 257.899074 54.839842 
L 258.010135 54.700383 
L 258.189402 54.482561 
L 259.2807 53.192738 
L 259.391761 53.064373 
L 259.794961 52.610602 
L 260.576313 51.780956 
L 261.150029 51.194758 
L 261.424664 50.926621 
L 261.581598 50.771614 
L 261.848084 50.518556 
L 262.013771 50.360971 
L 263.162711 49.331081 
L 263.512795 49.024896 
L 263.909356 48.693318 
L 264.109146 48.526826 
L 268.279373 45.428719 
L 269.113841 44.871585 
L 269.224902 44.795722 
L 269.630819 44.535242 
L 270.816277 43.796381 
L 270.927338 43.724659 
L 271.257202 43.524494 
L 271.368263 43.4566 
L 271.721667 43.250497 
L 271.832728 43.186979 
L 272.193979 42.978688 
L 272.30504 42.916498 
L 278.848295 39.653618 
L 279.206528 39.495252 
L 280.552541 38.923351 
L 280.95544 38.759203 
L 281.066501 38.714045 
L 281.844232 38.398093 
L 281.955293 38.351294 
L 282.826278 38.011045 
L 282.937339 37.968933 
L 283.983367 37.583526 
L 284.22239 37.495787 
L 285.34115 37.091472 
L 285.575647 37.0085 
L 287.144084 36.487696 
L 287.819204 36.263076 
L 288.437887 36.070958 
L 288.745418 35.972673 
L 291.50384 35.143886 
L 291.793565 35.059194 
L 292.520895 34.853013 
L 292.631353 34.821059 
L 293.17006 34.67488 
L 293.655047 34.547843 
L 294.141242 34.420963 
L 294.252303 34.39229 
L 299.865421 33.053558 
L 300.472636 32.922771 
L 301.151377 32.778389 
L 302.741544 32.460563 
L 303.134785 32.382044 
L 304.668516 32.099765 
L 312.930806 30.786426 
L 314.115358 30.624153 
L 315.012901 30.506335 
L 316.466053 30.319842 
L 317.320741 30.213197 
L 319.502732 29.960686 
L 319.812979 29.924981 
L 322.722299 29.625358 
L 323.459589 29.549183 
L 335.453595 28.625626 
L 339.310256 28.414679 
L 339.421317 28.40796 
L 365.831249 27.664177 
L 374.002697 27.534249 
L 379.948395 27.452917 
L 420.480604 27.043993 
L 420.480604 27.043993 
" clip-path="url(#p81f644fee8)" style="fill: none; stroke: #9467bd; stroke-width: 1.5; stroke-linecap: square"/>
   </g>
   <g id="line2d_35">
    <path d="M 239.401951 82.684705 
L 242.766985 82.472577 
L 243.152681 82.326357 
L 243.263743 82.271049 
L 244.393368 81.104279 
L 244.504429 80.908186 
L 244.594364 80.74661 
L 244.705426 80.528367 
L 244.834595 80.262562 
L 244.945656 80.024071 
L 245.154801 79.554835 
L 245.26556 79.27449 
L 245.313546 79.150013 
L 245.424607 78.85866 
L 245.509714 78.632807 
L 245.620775 78.322701 
L 245.667855 78.179742 
L 245.778917 77.850339 
L 245.949734 77.313837 
L 246.060795 76.952092 
L 246.158275 76.634647 
L 246.269336 76.264885 
L 246.309174 76.125323 
L 246.420235 75.745097 
L 246.462486 75.604313 
L 246.573547 75.203431 
L 246.613686 75.063733 
L 246.724748 74.670325 
L 249.711932 64.324443 
L 249.780742 64.11313 
L 249.891803 63.783048 
L 249.967252 63.566164 
L 250.078313 63.24043 
L 250.128411 63.096249 
L 250.239473 62.782338 
L 250.290174 62.637748 
L 250.401236 62.324653 
L 251.084202 60.513481 
L 251.195263 60.238979 
L 251.258338 60.088954 
L 251.718277 59.031848 
L 251.829338 58.780311 
L 251.898147 58.627569 
L 252.009209 58.387039 
L 252.119365 58.138357 
L 252.230426 57.8875 
L 253.29607 55.739315 
L 253.407131 55.535069 
L 253.494954 55.373765 
L 253.606015 55.176993 
L 253.700779 55.012564 
L 253.811841 54.821635 
L 253.989901 54.511937 
L 254.100962 54.329841 
L 254.199348 54.163917 
L 254.976474 52.927433 
L 255.714367 51.827114 
L 255.838104 51.649639 
L 255.949165 51.49907 
L 256.078636 51.319013 
L 256.189697 51.16165 
L 256.330033 50.9767 
L 256.441094 50.831296 
L 256.578411 50.647705 
L 256.689473 50.493332 
L 256.839164 50.30417 
L 256.950225 50.159852 
L 257.111083 49.965662 
L 257.222144 49.826101 
L 257.706829 49.24027 
L 257.817891 49.109134 
L 258.448646 48.391623 
L 259.118031 47.67384 
L 259.256254 47.528843 
L 259.835402 46.93282 
L 260.053299 46.712946 
L 260.327029 46.448771 
L 263.909054 43.3719 
L 264.094056 43.231795 
L 264.960816 42.600304 
L 265.147327 42.472157 
L 265.3613 42.314251 
L 265.568031 42.17102 
L 265.679092 42.0956 
L 266.306528 41.679906 
L 266.555208 41.51004 
L 266.66627 41.432718 
L 267.370663 40.993922 
L 267.481423 40.930868 
L 267.775071 40.750946 
L 268.251306 40.471416 
L 268.563666 40.287418 
L 268.674727 40.225451 
L 269.185669 39.935729 
L 269.412318 39.816144 
L 271.249959 38.866937 
L 271.36102 38.814754 
L 276.452331 36.643876 
L 276.964178 36.454714 
L 277.869568 36.136998 
L 279.018509 35.740872 
L 279.430763 35.603077 
L 280.551938 35.236848 
L 281.357433 34.995639 
L 282.394709 34.696268 
L 282.505468 34.66379 
L 283.408444 34.415923 
L 283.519204 34.387657 
L 294.321113 32.06852 
L 295.045123 31.940238 
L 295.463413 31.873107 
L 296.883669 31.655272 
L 297.077724 31.629181 
L 303.8763 30.720741 
L 305.176138 30.567862 
L 307.839193 30.28045 
L 322.695741 29.053887 
L 326.146183 28.851408 
L 327.360613 28.780472 
L 330.380392 28.620799 
L 339.128876 28.239349 
L 343.478069 28.083753 
L 357.624791 27.73913 
L 366.282435 27.591279 
L 396.796198 27.193387 
L 420.508369 26.971475 
L 420.508369 26.971475 
" clip-path="url(#p81f644fee8)" style="fill: none; stroke-dasharray: 1.5,2.475; stroke-dashoffset: 0; stroke: #8c564b; stroke-width: 1.5"/>
   </g>
   <g id="line2d_36">
    <path d="M 239.401951 82.683916 
L 243.475906 82.253005 
L 243.586967 82.193009 
L 243.951537 81.977719 
L 244.062599 81.894189 
L 244.390953 81.587414 
L 244.501713 81.463112 
L 244.616697 81.316437 
L 245.044042 80.682169 
L 245.155103 80.485276 
L 245.249867 80.30678 
L 245.360928 80.073259 
L 245.508507 79.746264 
L 245.619568 79.485397 
L 245.685058 79.322811 
L 245.798835 79.033106 
L 245.909896 78.748208 
L 245.971463 78.587777 
L 246.082524 78.283321 
L 246.17759 78.014168 
L 246.508963 77.018598 
L 246.620024 76.656799 
L 246.662879 76.506808 
L 246.773941 76.148158 
L 247.297256 74.386561 
L 247.408317 74.00852 
L 247.451474 73.858364 
L 247.562535 73.468555 
L 247.603882 73.319394 
L 248.118747 71.581166 
L 248.229808 71.21456 
L 248.274172 71.063575 
L 248.348112 70.817956 
L 248.459174 70.454997 
L 248.538546 70.203079 
L 248.649607 69.848407 
L 248.697291 69.695599 
L 248.808352 69.352362 
L 248.85996 69.197565 
L 249.01961 68.720415 
L 249.130671 68.379663 
L 250.879583 63.901671 
L 250.95624 63.733284 
L 251.067301 63.493963 
L 251.219105 63.162824 
L 251.330166 62.932287 
L 251.41648 62.758762 
L 251.527541 62.527562 
L 251.613553 62.353706 
L 251.808212 61.975333 
L 251.919273 61.758055 
L 251.988988 61.632759 
L 252.262114 61.114672 
L 252.361104 60.933855 
L 252.472165 60.726189 
L 252.581415 60.539571 
L 252.692477 60.345164 
L 252.932405 59.916905 
L 253.043466 59.731116 
L 253.159658 59.540687 
L 253.270719 59.359704 
L 253.401095 59.161485 
L 253.512156 58.995253 
L 253.906605 58.397116 
L 254.017666 58.234364 
L 254.157096 58.031339 
L 254.268157 57.859969 
L 254.416641 57.651971 
L 254.527703 57.493529 
L 254.68524 57.280891 
L 254.796302 57.132889 
L 254.954141 56.919588 
L 255.065203 56.768935 
L 255.238736 56.547182 
L 255.800379 55.835848 
L 255.993831 55.60299 
L 256.104289 55.468247 
L 256.308303 55.229589 
L 256.419365 55.096835 
L 256.620663 54.859669 
L 259.629275 51.719489 
L 259.774741 51.580105 
L 260.074123 51.300676 
L 260.259125 51.134776 
L 260.370186 51.036661 
L 260.773688 50.688617 
L 260.981022 50.500342 
L 261.143993 50.357644 
L 261.624453 49.967173 
L 261.735514 49.882317 
L 262.191529 49.50527 
L 264.178861 48.012163 
L 264.446554 47.823557 
L 264.557616 47.750634 
L 265.361602 47.182494 
L 265.472362 47.106588 
L 265.780496 46.906877 
L 266.160458 46.654463 
L 267.849011 45.600554 
L 267.960072 45.537077 
L 272.947263 42.924432 
L 273.274109 42.78306 
L 274.382307 42.301102 
L 275.100885 41.988692 
L 275.446442 41.847983 
L 276.214817 41.552312 
L 276.637634 41.394201 
L 276.748393 41.352104 
L 277.074938 41.226311 
L 277.563547 41.047152 
L 278.192189 40.828216 
L 278.562192 40.701594 
L 279.146169 40.507519 
L 289.336638 37.824601 
L 290.204605 37.660524 
L 290.386589 37.625056 
L 300.146394 35.951299 
L 301.901342 35.7022 
L 309.178868 34.815186 
L 310.656465 34.659064 
L 313.669 34.357426 
L 315.230195 34.209093 
L 315.864572 34.150092 
L 317.96387 33.966955 
L 318.573801 33.913919 
L 320.388203 33.76857 
L 320.654992 33.748682 
L 321.716713 33.666974 
L 324.871092 33.422515 
L 329.486772 33.100161 
L 329.739375 33.087068 
L 331.991383 32.94437 
L 334.238561 32.809296 
L 342.158915 32.376893 
L 387.84551 30.695678 
L 393.883256 30.529446 
L 396.031445 30.471439 
L 403.061197 30.29808 
L 403.522041 30.285815 
L 415.222097 30.018982 
L 420.495995 29.911752 
L 420.495995 29.911752 
" clip-path="url(#p81f644fee8)" style="fill: none; stroke-dasharray: 5.55,2.4; stroke-dashoffset: 0; stroke: #1f77b4; stroke-width: 1.5"/>
   </g>
   <g id="line2d_37">
    <path d="M 239.401951 82.689054 
L 420.48 82.689054 
" clip-path="url(#p81f644fee8)" style="fill: none; stroke: #808080; stroke-opacity: 0.7; stroke-width: 0.5; stroke-linecap: square"/>
   </g>
   <g id="line2d_38">
    <path d="M 239.401951 68.394041 
L 420.48 68.394041 
" clip-path="url(#p81f644fee8)" style="fill: none; stroke: #808080; stroke-opacity: 0.7; stroke-width: 0.5; stroke-linecap: square"/>
   </g>
   <g id="line2d_39">
    <path d="M 239.401951 54.099028 
L 420.48 54.099028 
" clip-path="url(#p81f644fee8)" style="fill: none; stroke: #808080; stroke-opacity: 0.7; stroke-width: 0.5; stroke-linecap: square"/>
   </g>
   <g id="line2d_40">
    <path d="M 239.401951 39.804015 
L 420.48 39.804015 
" clip-path="url(#p81f644fee8)" style="fill: none; stroke: #808080; stroke-opacity: 0.7; stroke-width: 0.5; stroke-linecap: square"/>
   </g>
   <g id="line2d_41">
    <path d="M 239.401951 25.509003 
L 420.48 25.509003 
" clip-path="url(#p81f644fee8)" style="fill: none; stroke: #808080; stroke-opacity: 0.7; stroke-width: 0.5; stroke-linecap: square"/>
   </g>
   <g id="patch_8">
    <path d="M 239.401951 85.548056 
L 239.401951 22.65 
" style="fill: none; stroke: #000000; stroke-width: 0.8; stroke-linejoin: miter; stroke-linecap: square"/>
   </g>
   <g id="patch_9">
    <path d="M 420.48 85.548056 
L 420.48 22.65 
" style="fill: none; stroke: #000000; stroke-width: 0.8; stroke-linejoin: miter; stroke-linecap: square"/>
   </g>
   <g id="patch_10">
    <path d="M 239.401951 85.548056 
L 420.48 85.548056 
" style="fill: none; stroke: #000000; stroke-width: 0.8; stroke-linejoin: miter; stroke-linecap: square"/>
   </g>
   <g id="patch_11">
    <path d="M 239.401951 22.65 
L 420.48 22.65 
" style="fill: none; stroke: #000000; stroke-width: 0.8; stroke-linejoin: miter; stroke-linecap: square"/>
   </g>
  </g>
  <g id="legend_1">
   <g id="patch_12">
    <path d="M 29.776635 16.930403 
L 408.559365 16.930403 
L 408.559365 0 
L 29.776635 0 
z
" style="fill: #ffffff; opacity: 0.8; stroke: #000000; stroke-linejoin: miter"/>
   </g>
   <g id="line2d_42">
    <path d="M 33.775035 7.497 
L 38.773035 7.497 
L 43.771035 7.497 
" style="fill: none; stroke: #1f77b4; stroke-width: 1.5; stroke-linecap: square"/>
   </g>
   <g id="text_21">
    <!-- Dublin -->
    <g transform="translate(46.769835 10.9956) scale(0.09996 -0.09996)">
     <defs>
      <path id="CMR17-75" d="M 1882 2693 
L 1882 2528 
C 2259 2528 2317 2489 2317 2186 
L 2317 1032 
C 2317 500 2029 38 1555 38 
C 1030 38 986 348 986 678 
L 986 2763 
L 211 2693 
L 211 2528 
C 467 2528 640 2528 646 2274 
L 646 1058 
C 646 633 646 361 813 183 
C 896 101 1056 -64 1517 -64 
C 2061 -64 2272 377 2323 506 
L 2330 506 
L 2330 -63 
L 3091 -63 
L 3091 128 
C 2714 128 2656 166 2656 473 
L 2656 2763 
L 1882 2693 
z
" transform="scale(0.015625)"/>
     </defs>
     <use xlink:href="#CMR17-44" transform="scale(0.996264)"/>
     <use xlink:href="#CMR17-75" transform="translate(70.393556 0) scale(0.996264)"/>
     <use xlink:href="#CMR17-62" transform="translate(121.288926 0) scale(0.996264)"/>
     <use xlink:href="#CMR17-6c" transform="translate(172.184295 0) scale(0.996264)"/>
     <use xlink:href="#CMR17-69" transform="translate(197.055354 0) scale(0.996264)"/>
     <use xlink:href="#CMR17-6e" transform="translate(221.926412 0) scale(0.996264)"/>
    </g>
   </g>
   <g id="line2d_43">
    <path d="M 82.330532 7.497 
L 87.328532 7.497 
L 92.326532 7.497 
" style="fill: none; stroke-dasharray: 1.5,2.475; stroke-dashoffset: 0; stroke: #ff7f0e; stroke-width: 1.5"/>
   </g>
   <g id="text_22">
    <!-- Lagos -->
    <g transform="translate(95.325332 10.9956) scale(0.09996 -0.09996)">
     <defs>
      <path id="CMR17-4c" d="M 3469 1615 
L 3354 1615 
C 3302 983 3219 166 2125 166 
L 1530 166 
C 1274 166 1261 197 1261 414 
L 1261 3898 
C 1261 4129 1274 4192 1760 4192 
L 1901 4192 
L 1901 4352 
C 1638 4352 1331 4352 1069 4352 
C 870 4352 512 4352 326 4352 
L 326 4192 
C 768 4192 838 4192 838 3905 
L 838 452 
C 838 166 768 166 326 166 
L 326 0 
L 3315 0 
L 3469 1615 
z
" transform="scale(0.015625)"/>
      <path id="CMR17-67" d="M 710 1164 
C 832 1068 1043 960 1299 960 
C 1805 960 2240 1357 2240 1888 
C 2240 2054 2189 2310 1997 2509 
C 2176 2692 2438 2752 2586 2752 
C 2611 2752 2650 2752 2682 2734 
C 2656 2728 2598 2703 2598 2605 
C 2598 2527 2656 2471 2739 2471 
C 2835 2471 2886 2533 2886 2614 
C 2886 2731 2790 2854 2586 2854 
C 2330 2854 2106 2738 1926 2580 
C 1734 2753 1504 2816 1299 2816 
C 794 2816 358 2419 358 1888 
C 358 1522 570 1292 634 1228 
C 442 1004 442 743 442 711 
C 442 545 506 302 723 168 
C 390 85 128 -169 128 -486 
C 128 -943 736 -1280 1466 -1280 
C 2170 -1280 2803 -956 2803 -479 
C 2803 384 1856 384 1363 384 
C 1216 384 954 384 922 391 
C 723 423 589 602 589 826 
C 589 883 589 1024 710 1164 
z
M 1299 1068 
C 736 1068 736 1760 736 1889 
C 736 2016 736 2708 1299 2708 
C 1862 2708 1862 2016 1862 1889 
C 1862 1760 1862 1068 1299 1068 
z
M 1466 -1171 
C 826 -1171 384 -835 384 -486 
C 384 -289 493 -105 634 -4 
C 794 104 858 104 1293 104 
C 1818 104 2547 104 2547 -486 
C 2547 -835 2106 -1171 1466 -1171 
z
" transform="scale(0.015625)"/>
     </defs>
     <use xlink:href="#CMR17-4c" transform="scale(0.996264)"/>
     <use xlink:href="#CMR17-61" transform="translate(57.381408 0) scale(0.996264)"/>
     <use xlink:href="#CMR17-67" transform="translate(103.071885 0) scale(0.996264)"/>
     <use xlink:href="#CMR17-6f" transform="translate(148.762362 0) scale(0.996264)"/>
     <use xlink:href="#CMR17-73" transform="translate(194.452839 0) scale(0.996264)"/>
    </g>
   </g>
   <g id="line2d_44">
    <path d="M 126.109613 7.497 
L 131.107613 7.497 
L 136.105613 7.497 
" style="fill: none; stroke-dasharray: 5.55,2.4; stroke-dashoffset: 0; stroke: #2ca02c; stroke-width: 1.5"/>
   </g>
   <g id="text_23">
    <!-- Manila -->
    <g transform="translate(139.104413 10.9956) scale(0.09996 -0.09996)">
     <defs>
      <path id="CMR17-4d" d="M 1338 4224 
C 1299 4320 1293 4320 1158 4320 
L 339 4320 
L 339 4160 
C 781 4160 851 4160 851 3875 
L 851 610 
C 851 451 851 153 339 153 
L 339 -13 
C 486 0 755 0 915 0 
C 1075 0 1344 0 1491 -13 
L 1491 153 
C 979 153 979 451 979 610 
L 979 4135 
L 986 4135 
L 2490 89 
C 2515 25 2528 -13 2579 -13 
C 2630 -13 2643 25 2669 89 
L 4186 4166 
L 4192 4166 
L 4192 438 
C 4192 153 4122 153 3680 153 
L 3680 -13 
C 3853 0 4198 0 4384 0 
C 4570 0 4922 0 5094 -13 
L 5094 153 
C 4653 153 4582 153 4582 438 
L 4582 3875 
C 4582 4160 4653 4160 5094 4160 
L 5094 4320 
L 4282 4320 
C 4147 4320 4141 4314 4102 4218 
L 2720 502 
L 1338 4224 
z
" transform="scale(0.015625)"/>
     </defs>
     <use xlink:href="#CMR17-4d" transform="scale(0.996264)"/>
     <use xlink:href="#CMR17-61" transform="translate(84.686941 0) scale(0.996264)"/>
     <use xlink:href="#CMR17-6e" transform="translate(130.377418 0) scale(0.996264)"/>
     <use xlink:href="#CMR17-69" transform="translate(181.272787 0) scale(0.996264)"/>
     <use xlink:href="#CMR17-6c" transform="translate(206.143846 0) scale(0.996264)"/>
     <use xlink:href="#CMR17-61" transform="translate(231.014904 0) scale(0.996264)"/>
    </g>
   </g>
   <g id="line2d_45">
    <path d="M 175.090806 7.497 
L 180.088806 7.497 
L 185.086806 7.497 
" style="fill: none; stroke-dasharray: 9.6,2.4,1.5,2.4; stroke-dashoffset: 0; stroke: #d62728; stroke-width: 1.5"/>
   </g>
   <g id="text_24">
    <!-- Mexico City -->
    <g transform="translate(188.085606 10.9956) scale(0.09996 -0.09996)">
     <defs>
      <path id="CMR17-78" d="M 1664 1477 
C 1856 1726 2074 2006 2253 2216 
C 2464 2458 2707 2560 2989 2560 
L 2989 2726 
C 2880 2726 2656 2726 2541 2726 
C 2368 2726 2170 2726 2022 2732 
L 2022 2566 
C 2112 2553 2163 2489 2163 2400 
C 2163 2285 2099 2215 2067 2171 
L 1594 1573 
L 1030 2306 
C 973 2376 973 2388 973 2420 
C 973 2497 1037 2560 1146 2560 
L 1146 2732 
C 992 2726 717 2726 557 2726 
C 384 2726 179 2726 38 2732 
L 38 2560 
C 384 2560 461 2534 614 2343 
L 1350 1395 
C 1363 1382 1395 1344 1395 1325 
C 1395 1299 838 619 768 530 
C 480 185 179 160 6 160 
L 6 0 
C 115 0 339 0 454 0 
C 582 0 864 0 979 -6 
L 979 160 
C 941 166 838 179 838 325 
C 838 440 890 510 947 586 
L 1478 1236 
L 2035 512 
C 2086 442 2163 346 2163 301 
C 2163 211 2086 160 1984 160 
L 1984 -6 
C 2138 0 2413 0 2573 0 
C 2746 0 2950 0 3091 -6 
L 3091 160 
C 2771 160 2675 172 2522 370 
L 1664 1477 
z
" transform="scale(0.015625)"/>
      <path id="CMR17-43" d="M 3974 4289 
C 3974 4403 3968 4410 3930 4410 
C 3904 4410 3898 4403 3853 4327 
L 3571 3792 
C 3258 4187 2874 4416 2381 4416 
C 1286 4416 294 3456 294 2148 
C 294 826 1286 -128 2387 -128 
C 3366 -128 3974 730 3974 1461 
C 3974 1524 3974 1550 3917 1550 
C 3866 1550 3866 1531 3859 1474 
C 3808 585 3168 38 2477 38 
C 1824 38 781 495 781 2147 
C 781 3805 1843 4250 2464 4250 
C 3187 4250 3712 3628 3834 2745 
C 3846 2668 3846 2655 3904 2655 
C 3974 2655 3974 2668 3974 2783 
L 3974 4289 
z
" transform="scale(0.015625)"/>
      <path id="CMR17-79" d="M 2496 2197 
C 2656 2586 2944 2586 3034 2586 
L 3034 2752 
C 2912 2752 2752 2752 2630 2752 
C 2496 2752 2285 2752 2157 2758 
L 2157 2592 
C 2400 2573 2406 2394 2406 2343 
C 2406 2280 2394 2248 2362 2171 
L 1664 449 
L 902 2306 
C 870 2382 870 2426 870 2433 
C 870 2573 1018 2586 1171 2586 
L 1171 2758 
C 1018 2752 742 2752 582 2752 
C 410 2752 205 2752 64 2758 
L 64 2586 
C 410 2586 448 2554 531 2350 
L 1485 15 
C 1197 -738 1030 -1178 627 -1178 
C 557 -1178 397 -1159 282 -1044 
C 429 -1031 493 -942 493 -833 
C 493 -725 416 -629 288 -629 
C 147 -629 77 -725 77 -840 
C 77 -1095 339 -1280 627 -1280 
C 998 -1280 1229 -922 1357 -604 
L 2496 2197 
z
" transform="scale(0.015625)"/>
     </defs>
     <use xlink:href="#CMR17-4d" transform="scale(0.996264)"/>
     <use xlink:href="#CMR17-65" transform="translate(84.686941 0) scale(0.996264)"/>
     <use xlink:href="#CMR17-78" transform="translate(125.172601 0) scale(0.996264)"/>
     <use xlink:href="#CMR17-69" transform="translate(173.465517 0) scale(0.996264)"/>
     <use xlink:href="#CMR17-63" transform="translate(198.336575 0) scale(0.996264)"/>
     <use xlink:href="#CMR17-6f" transform="translate(238.822236 0) scale(0.996264)"/>
     <use xlink:href="#CMR17-43" transform="translate(314.588679 0) scale(0.996264)"/>
     <use xlink:href="#CMR17-69" transform="translate(381.09856 0) scale(0.996264)"/>
     <use xlink:href="#CMR17-74" transform="translate(405.969618 0) scale(0.996264)"/>
     <use xlink:href="#CMR17-79" transform="translate(438.647932 0) scale(0.996264)"/>
    </g>
   </g>
   <g id="line2d_46">
    <path d="M 247.673662 7.497 
L 252.671662 7.497 
L 257.669662 7.497 
" style="fill: none; stroke: #9467bd; stroke-width: 1.5; stroke-linecap: square"/>
   </g>
   <g id="text_25">
    <!-- Seattle -->
    <g transform="translate(260.668462 10.9956) scale(0.09996 -0.09996)">
     <defs>
      <path id="CMR17-53" d="M 2803 4290 
C 2803 4404 2797 4411 2758 4411 
C 2720 4411 2707 4385 2682 4328 
L 2490 3907 
C 2246 4257 1875 4416 1472 4416 
C 819 4416 294 3901 294 3253 
C 294 3056 339 2776 557 2510 
C 794 2218 1018 2167 1530 2033 
C 1722 1982 2042 1899 2106 1874 
C 2470 1722 2662 1341 2662 985 
C 2662 527 2336 38 1779 38 
C 1094 38 454 419 410 1311 
C 403 1413 397 1419 352 1419 
C 301 1419 294 1413 294 1285 
L 294 -1 
C 294 -115 301 -122 339 -122 
C 384 -122 397 -90 486 108 
C 493 127 493 140 614 381 
C 934 -39 1472 -128 1779 -128 
C 2477 -128 2970 451 2970 1124 
C 2970 1454 2848 1708 2778 1823 
C 2509 2230 2221 2306 1914 2382 
C 1869 2402 1856 2402 1498 2490 
C 1152 2579 1005 2624 845 2796 
C 666 2992 602 3196 602 3399 
C 602 3812 934 4263 1478 4263 
C 2157 4263 2579 3786 2675 2993 
C 2694 2878 2701 2872 2746 2872 
C 2803 2872 2803 2891 2803 2999 
L 2803 4290 
z
" transform="scale(0.015625)"/>
     </defs>
     <use xlink:href="#CMR17-53" transform="scale(0.996264)"/>
     <use xlink:href="#CMR17-65" transform="translate(50.89537 0) scale(0.996264)"/>
     <use xlink:href="#CMR17-61" transform="translate(91.38103 0) scale(0.996264)"/>
     <use xlink:href="#CMR17-74" transform="translate(137.071507 0) scale(0.996264)"/>
     <use xlink:href="#CMR17-74" transform="translate(172.352275 0) scale(0.996264)"/>
     <use xlink:href="#CMR17-6c" transform="translate(207.633043 0) scale(0.996264)"/>
     <use xlink:href="#CMR17-65" transform="translate(232.504101 0) scale(0.996264)"/>
    </g>
   </g>
   <g id="line2d_47">
    <path d="M 296.379779 7.497 
L 301.377779 7.497 
L 306.375779 7.497 
" style="fill: none; stroke-dasharray: 1.5,2.475; stroke-dashoffset: 0; stroke: #8c564b; stroke-width: 1.5"/>
   </g>
   <g id="text_26">
    <!-- Sydney -->
    <g transform="translate(309.374579 10.9956) scale(0.09996 -0.09996)">
     <use xlink:href="#CMR17-53" transform="scale(0.996264)"/>
     <use xlink:href="#CMR17-79" transform="translate(50.89537 0) scale(0.996264)"/>
     <use xlink:href="#CMR17-64" transform="translate(99.188286 0) scale(0.996264)"/>
     <use xlink:href="#CMR17-6e" transform="translate(150.083655 0) scale(0.996264)"/>
     <use xlink:href="#CMR17-65" transform="translate(200.979025 0) scale(0.996264)"/>
     <use xlink:href="#CMR17-79" transform="translate(241.464686 0) scale(0.996264)"/>
    </g>
   </g>
   <g id="line2d_48">
    <path d="M 346.787902 7.497 
L 351.785902 7.497 
L 356.783902 7.497 
" style="fill: none; stroke-dasharray: 5.55,2.4; stroke-dashoffset: 0; stroke: #1f77b4; stroke-width: 1.5"/>
   </g>
   <g id="text_27">
    <!-- So Paulo -->
    <g transform="translate(359.782702 10.9956) scale(0.09996 -0.09996)">
     <defs>
      <path id="CMR17-7e" d="M 2400 4184 
C 2182 3980 2061 3865 1862 3865 
C 1722 3865 1626 3932 1491 4024 
C 1363 4111 1261 4184 1120 4184 
C 890 4184 730 4004 461 3718 
L 531 3648 
C 749 3850 870 3968 1069 3968 
C 1210 3968 1306 3900 1440 3808 
C 1568 3722 1670 3648 1811 3648 
C 2042 3648 2202 3828 2470 4114 
L 2400 4184 
z
" transform="scale(0.015625)"/>
     </defs>
     <use xlink:href="#CMR17-53" transform="scale(0.996264)"/>
     <use xlink:href="#CMR17-7e" transform="translate(50.89537 0) scale(0.996264)"/>
     <use xlink:href="#CMR17-61" transform="translate(50.89537 0) scale(0.996264)"/>
     <use xlink:href="#CMR17-6f" transform="translate(96.585847 0) scale(0.996264)"/>
     <use xlink:href="#CMR17-50" transform="translate(172.35229 0) scale(0.996264)"/>
     <use xlink:href="#CMR17-61" transform="translate(232.336137 0) scale(0.996264)"/>
     <use xlink:href="#CMR17-75" transform="translate(278.026614 0) scale(0.996264)"/>
     <use xlink:href="#CMR17-6c" transform="translate(328.921984 0) scale(0.996264)"/>
     <use xlink:href="#CMR17-6f" transform="translate(353.793042 0) scale(0.996264)"/>
    </g>
   </g>
  </g>
 </g>
 <defs>
  <clipPath id="pbaaba316b9">
   <rect x="42.437408" y="22.65" width="181.078049" height="62.898056"/>
  </clipPath>
  <clipPath id="p81f644fee8">
   <rect x="239.401951" y="22.65" width="181.078049" height="62.898056"/>
  </clipPath>
 </defs>
</svg>
