<?xml version="1.0" encoding="utf-8" standalone="no"?>
<!DOCTYPE svg PUBLIC "-//W3C//DTD SVG 1.1//EN"
  "http://www.w3.org/Graphics/SVG/1.1/DTD/svg11.dtd">
<svg xmlns:xlink="http://www.w3.org/1999/xlink" width="266.4pt" height="117.515pt" viewBox="0 0 266.4 117.515" xmlns="http://www.w3.org/2000/svg" version="1.1">
 <metadata>
  <rdf:RDF xmlns:dc="http://purl.org/dc/elements/1.1/" xmlns:cc="http://creativecommons.org/ns#" xmlns:rdf="http://www.w3.org/1999/02/22-rdf-syntax-ns#">
   <cc:Work>
    <dc:type rdf:resource="http://purl.org/dc/dcmitype/StillImage"/>
    <dc:date>2023-10-11T12:36:46.791785</dc:date>
    <dc:format>image/svg+xml</dc:format>
    <dc:creator>
     <cc:Agent>
      <dc:title>Matplotlib v3.7.0, https://matplotlib.org/</dc:title>
     </cc:Agent>
    </dc:creator>
   </cc:Work>
  </rdf:RDF>
 </metadata>
 <defs>
  <style type="text/css">*{stroke-linejoin: round; stroke-linecap: butt}</style>
 </defs>
 <g id="figure_1">
  <g id="patch_1">
   <path d="M 0 117.515 
L 266.4 117.515 
L 266.4 0 
L 0 0 
z
" style="fill: #ffffff"/>
  </g>
  <g id="axes_1">
   <g id="patch_2">
    <path d="M 37.567091 87.696683 
L 145.338212 87.696683 
L 145.338212 23.915 
L 37.567091 23.915 
z
" style="fill: #ffffff"/>
   </g>
   <g id="matplotlib.axis_1">
    <g id="xtick_1">
     <g id="line2d_1">
      <defs>
       <path id="m21add8a067" d="M 0 0 
L 0 3.5 
" style="stroke: #000000; stroke-width: 0.8"/>
      </defs>
      <g>
       <use xlink:href="#m21add8a067" x="37.567091" y="87.696683" style="stroke: #000000; stroke-width: 0.8"/>
      </g>
     </g>
     <g id="text_1">
      <!-- 0 -->
      <g transform="translate(35.076423 101.615182) scale(0.1 -0.1)">
       <defs>
        <path id="CMR17-30" d="M 2688 2025 
C 2688 2416 2682 3080 2413 3591 
C 2176 4039 1798 4198 1466 4198 
C 1158 4198 768 4058 525 3597 
C 269 3118 243 2524 243 2025 
C 243 1661 250 1106 448 619 
C 723 -39 1216 -128 1466 -128 
C 1760 -128 2208 -7 2470 600 
C 2662 1042 2688 1559 2688 2025 
z
M 1466 -26 
C 1056 -26 813 325 723 812 
C 653 1188 653 1738 653 2096 
C 653 2588 653 2997 736 3387 
C 858 3929 1216 4096 1466 4096 
C 1728 4096 2067 3923 2189 3400 
C 2272 3036 2278 2607 2278 2096 
C 2278 1680 2278 1169 2202 792 
C 2067 95 1690 -26 1466 -26 
z
" transform="scale(0.015625)"/>
       </defs>
       <use xlink:href="#CMR17-30" transform="scale(0.996264)"/>
      </g>
     </g>
    </g>
    <g id="xtick_2">
     <g id="line2d_2">
      <g>
       <use xlink:href="#m21add8a067" x="55.528944" y="87.696683" style="stroke: #000000; stroke-width: 0.8"/>
      </g>
     </g>
     <g id="text_2">
      <!-- 100 -->
      <g transform="translate(48.056942 101.615182) scale(0.1 -0.1)">
       <defs>
        <path id="CMR17-31" d="M 1702 4058 
C 1702 4192 1696 4192 1606 4192 
C 1357 3916 979 3827 621 3827 
C 602 3827 570 3827 563 3808 
C 557 3795 557 3782 557 3648 
C 755 3648 1088 3686 1344 3839 
L 1344 461 
C 1344 236 1331 160 781 160 
L 589 160 
L 589 0 
C 896 0 1216 0 1523 0 
C 1830 0 2150 0 2458 0 
L 2458 160 
L 2266 160 
C 1715 160 1702 230 1702 458 
L 1702 4058 
z
" transform="scale(0.015625)"/>
       </defs>
       <use xlink:href="#CMR17-31" transform="scale(0.996264)"/>
       <use xlink:href="#CMR17-30" transform="translate(45.690477 0) scale(0.996264)"/>
       <use xlink:href="#CMR17-30" transform="translate(91.380954 0) scale(0.996264)"/>
      </g>
     </g>
    </g>
    <g id="xtick_3">
     <g id="line2d_3">
      <g>
       <use xlink:href="#m21add8a067" x="73.490798" y="87.696683" style="stroke: #000000; stroke-width: 0.8"/>
      </g>
     </g>
     <g id="text_3">
      <!-- 200 -->
      <g transform="translate(66.018795 101.615182) scale(0.1 -0.1)">
       <defs>
        <path id="CMR17-32" d="M 2669 989 
L 2554 989 
C 2490 536 2438 459 2413 420 
C 2381 369 1920 369 1830 369 
L 602 369 
C 832 619 1280 1072 1824 1597 
C 2214 1967 2669 2402 2669 3035 
C 2669 3790 2067 4224 1395 4224 
C 691 4224 262 3604 262 3030 
C 262 2780 448 2748 525 2748 
C 589 2748 781 2787 781 3010 
C 781 3207 614 3264 525 3264 
C 486 3264 448 3258 422 3245 
C 544 3790 915 4058 1306 4058 
C 1862 4058 2227 3617 2227 3035 
C 2227 2479 1901 2000 1536 1584 
L 262 146 
L 262 0 
L 2515 0 
L 2669 989 
z
" transform="scale(0.015625)"/>
       </defs>
       <use xlink:href="#CMR17-32" transform="scale(0.996264)"/>
       <use xlink:href="#CMR17-30" transform="translate(45.690477 0) scale(0.996264)"/>
       <use xlink:href="#CMR17-30" transform="translate(91.380954 0) scale(0.996264)"/>
      </g>
     </g>
    </g>
    <g id="xtick_4">
     <g id="line2d_4">
      <g>
       <use xlink:href="#m21add8a067" x="91.452651" y="87.696683" style="stroke: #000000; stroke-width: 0.8"/>
      </g>
     </g>
     <g id="text_4">
      <!-- 300 -->
      <g transform="translate(83.980648 101.615182) scale(0.1 -0.1)">
       <defs>
        <path id="CMR17-33" d="M 1414 2157 
C 1984 2157 2234 1662 2234 1090 
C 2234 320 1824 25 1453 25 
C 1114 25 563 194 390 693 
C 422 680 454 680 486 680 
C 640 680 755 782 755 948 
C 755 1133 614 1216 486 1216 
C 378 1216 211 1165 211 926 
C 211 335 787 -128 1466 -128 
C 2176 -128 2720 430 2720 1085 
C 2720 1707 2208 2157 1600 2227 
C 2086 2328 2554 2756 2554 3329 
C 2554 3820 2048 4179 1472 4179 
C 890 4179 378 3829 378 3329 
C 378 3110 544 3072 627 3072 
C 762 3072 877 3155 877 3321 
C 877 3486 762 3569 627 3569 
C 602 3569 570 3569 544 3557 
C 730 3959 1235 4032 1459 4032 
C 1683 4032 2106 3925 2106 3320 
C 2106 3143 2080 2828 1862 2550 
C 1670 2304 1453 2304 1242 2284 
C 1210 2284 1062 2269 1037 2269 
C 992 2263 966 2257 966 2208 
C 966 2163 973 2157 1101 2157 
L 1414 2157 
z
" transform="scale(0.015625)"/>
       </defs>
       <use xlink:href="#CMR17-33" transform="scale(0.996264)"/>
       <use xlink:href="#CMR17-30" transform="translate(45.690477 0) scale(0.996264)"/>
       <use xlink:href="#CMR17-30" transform="translate(91.380954 0) scale(0.996264)"/>
      </g>
     </g>
    </g>
    <g id="xtick_5">
     <g id="line2d_5">
      <g>
       <use xlink:href="#m21add8a067" x="109.414505" y="87.696683" style="stroke: #000000; stroke-width: 0.8"/>
      </g>
     </g>
     <g id="text_5">
      <!-- 400 -->
      <g transform="translate(101.942502 101.615182) scale(0.1 -0.1)">
       <defs>
        <path id="CMR17-34" d="M 2150 4122 
C 2150 4256 2144 4256 2029 4256 
L 128 1254 
L 128 1088 
L 1779 1088 
L 1779 457 
C 1779 224 1766 160 1318 160 
L 1197 160 
L 1197 0 
C 1402 0 1747 0 1965 0 
C 2182 0 2528 0 2733 0 
L 2733 160 
L 2611 160 
C 2163 160 2150 224 2150 457 
L 2150 1088 
L 2803 1088 
L 2803 1254 
L 2150 1254 
L 2150 4122 
z
M 1798 3703 
L 1798 1254 
L 256 1254 
L 1798 3703 
z
" transform="scale(0.015625)"/>
       </defs>
       <use xlink:href="#CMR17-34" transform="scale(0.996264)"/>
       <use xlink:href="#CMR17-30" transform="translate(45.690477 0) scale(0.996264)"/>
       <use xlink:href="#CMR17-30" transform="translate(91.380954 0) scale(0.996264)"/>
      </g>
     </g>
    </g>
    <g id="xtick_6">
     <g id="line2d_6">
      <g>
       <use xlink:href="#m21add8a067" x="127.376358" y="87.696683" style="stroke: #000000; stroke-width: 0.8"/>
      </g>
     </g>
     <g id="text_6">
      <!-- 500 -->
      <g transform="translate(119.904355 101.615182) scale(0.1 -0.1)">
       <defs>
        <path id="CMR17-35" d="M 730 3692 
C 794 3666 1056 3584 1325 3584 
C 1920 3584 2246 3911 2432 4100 
C 2432 4157 2432 4192 2394 4192 
C 2387 4192 2374 4192 2323 4163 
C 2099 4058 1837 3973 1517 3973 
C 1325 3973 1037 3999 723 4139 
C 653 4171 640 4171 634 4171 
C 602 4171 595 4164 595 4037 
L 595 2203 
C 595 2089 595 2057 659 2057 
C 691 2057 704 2070 736 2114 
C 941 2401 1222 2522 1542 2522 
C 1766 2522 2246 2382 2246 1289 
C 2246 1085 2246 715 2054 421 
C 1894 159 1645 25 1370 25 
C 947 25 518 320 403 814 
C 429 807 480 795 506 795 
C 589 795 749 840 749 1038 
C 749 1210 627 1280 506 1280 
C 358 1280 262 1190 262 1011 
C 262 454 704 -128 1382 -128 
C 2042 -128 2669 440 2669 1264 
C 2669 2030 2170 2624 1549 2624 
C 1222 2624 947 2503 730 2274 
L 730 3692 
z
" transform="scale(0.015625)"/>
       </defs>
       <use xlink:href="#CMR17-35" transform="scale(0.996264)"/>
       <use xlink:href="#CMR17-30" transform="translate(45.690477 0) scale(0.996264)"/>
       <use xlink:href="#CMR17-30" transform="translate(91.380954 0) scale(0.996264)"/>
      </g>
     </g>
    </g>
    <g id="text_7">
     <!-- (a) Download [ms] -->
     <g transform="translate(51.228408 115.02434) scale(0.1 -0.1)">
      <defs>
       <path id="CMR17-28" d="M 1958 -1561 
C 1958 -1555 1958 -1542 1939 -1523 
C 1645 -1224 858 -407 858 1581 
C 858 3569 1632 4379 1946 4697 
C 1946 4704 1958 4717 1958 4736 
C 1958 4755 1939 4768 1914 4768 
C 1843 4768 1299 4296 986 3594 
C 666 2887 576 2199 576 1588 
C 576 1128 621 351 1005 -471 
C 1312 -1135 1837 -1600 1914 -1600 
C 1946 -1600 1958 -1587 1958 -1561 
z
" transform="scale(0.015625)"/>
       <path id="CMR17-61" d="M 2304 1653 
C 2304 2072 2304 2294 2035 2543 
C 1798 2752 1523 2816 1306 2816 
C 800 2816 435 2407 435 1971 
C 435 1728 627 1728 666 1728 
C 749 1728 896 1778 896 1954 
C 896 2112 774 2181 666 2181 
C 640 2181 608 2174 589 2168 
C 723 2592 1069 2714 1293 2714 
C 1613 2714 1965 2429 1965 1885 
L 1965 1600 
C 1587 1600 1133 1549 774 1357 
C 371 1133 256 813 256 570 
C 256 77 832 -64 1171 -64 
C 1523 -64 1850 139 1990 511 
C 2003 233 2182 -18 2464 -18 
C 2598 -18 2938 70 2938 567 
L 2938 920 
L 2822 920 
L 2822 562 
C 2822 178 2650 128 2566 128 
C 2304 128 2304 458 2304 738 
L 2304 1653 
z
M 1965 870 
C 1965 317 1568 38 1216 38 
C 896 38 646 275 646 570 
C 646 761 730 1100 1101 1305 
C 1408 1478 1760 1504 1965 1504 
L 1965 870 
z
" transform="scale(0.015625)"/>
       <path id="CMR17-29" d="M 1683 1581 
C 1683 2040 1638 2817 1254 3639 
C 947 4303 422 4768 346 4768 
C 326 4768 301 4761 301 4729 
C 301 4717 307 4710 314 4697 
C 621 4378 1402 3568 1402 1584 
C 1402 -407 627 -1217 314 -1537 
C 307 -1549 301 -1556 301 -1568 
C 301 -1600 326 -1600 346 -1600 
C 416 -1600 960 -1128 1274 -426 
C 1594 281 1683 969 1683 1581 
z
" transform="scale(0.015625)"/>
       <path id="CMR17-44" d="M 333 4352 
L 333 4186 
C 774 4186 845 4186 845 3900 
L 845 452 
C 845 166 774 166 333 166 
L 333 0 
L 2368 0 
C 3398 0 4224 943 4224 2141 
C 4224 3346 3411 4352 2368 4352 
L 333 4352 
z
M 1523 166 
C 1267 166 1254 197 1254 414 
L 1254 3938 
C 1254 4155 1267 4186 1523 4186 
L 2240 4186 
C 2771 4186 3750 3874 3750 2141 
C 3750 1242 3488 879 3366 707 
C 3213 510 2848 166 2240 166 
L 1523 166 
z
" transform="scale(0.015625)"/>
       <path id="CMR17-6f" d="M 2758 1356 
C 2758 2176 2163 2816 1466 2816 
C 768 2816 173 2176 173 1356 
C 173 551 768 -64 1466 -64 
C 2163 -64 2758 551 2758 1356 
z
M 1466 51 
C 1165 51 909 230 762 480 
C 602 767 582 1126 582 1408 
C 582 1677 595 2010 762 2298 
C 890 2509 1139 2714 1466 2714 
C 1754 2714 1997 2554 2150 2330 
C 2349 2029 2349 1607 2349 1408 
C 2349 1158 2336 775 2163 467 
C 1984 173 1709 51 1466 51 
z
" transform="scale(0.015625)"/>
       <path id="CMR17-77" d="M 3725 2183 
C 3853 2560 4109 2560 4205 2560 
L 4205 2732 
C 4077 2732 3949 2732 3821 2732 
C 3699 2732 3424 2732 3315 2738 
L 3315 2560 
C 3514 2560 3622 2445 3622 2286 
C 3622 2241 3610 2184 3597 2140 
L 2995 407 
L 2342 2275 
C 2330 2319 2310 2370 2310 2395 
C 2310 2560 2528 2560 2630 2560 
L 2630 2738 
C 2483 2732 2214 2732 2061 2732 
C 1901 2732 1734 2732 1587 2738 
L 1587 2560 
C 1939 2560 1939 2547 2074 2149 
L 1485 451 
L 851 2281 
C 819 2363 819 2376 819 2395 
C 819 2560 1037 2560 1139 2560 
L 1139 2738 
C 986 2732 717 2732 557 2732 
C 416 2732 198 2732 64 2738 
L 64 2560 
C 346 2560 416 2541 486 2331 
L 1274 49 
C 1299 -33 1318 -52 1370 -52 
C 1414 -52 1440 -39 1472 56 
L 2131 1980 
L 2797 56 
C 2829 -39 2854 -52 2899 -52 
C 2950 -52 2970 -33 2995 50 
L 3725 2183 
z
" transform="scale(0.015625)"/>
       <path id="CMR17-6e" d="M 2656 1933 
C 2656 2259 2592 2790 1837 2790 
C 1331 2790 1069 2400 973 2144 
L 966 2144 
L 966 2790 
L 211 2720 
L 211 2554 
C 589 2554 646 2515 646 2208 
L 646 428 
C 646 184 621 153 211 153 
L 211 -13 
C 365 0 646 0 813 0 
C 979 0 1267 0 1421 -13 
L 1421 153 
C 1011 153 986 178 986 428 
L 986 1658 
C 986 2247 1344 2688 1792 2688 
C 2266 2688 2317 2266 2317 1958 
L 2317 428 
C 2317 184 2291 153 1882 153 
L 1882 -13 
C 2035 0 2317 0 2483 0 
C 2650 0 2938 0 3091 -13 
L 3091 153 
C 2682 153 2656 178 2656 428 
L 2656 1933 
z
" transform="scale(0.015625)"/>
       <path id="CMR17-6c" d="M 979 4396 
L 218 4326 
L 218 4160 
C 595 4160 653 4122 653 3817 
L 653 426 
C 653 184 627 153 218 153 
L 218 -13 
C 371 0 653 0 813 0 
C 979 0 1261 0 1414 -13 
L 1414 153 
C 1005 153 979 178 979 426 
L 979 4396 
z
" transform="scale(0.015625)"/>
       <path id="CMR17-64" d="M 1869 4326 
L 1869 4160 
C 2246 4160 2304 4122 2304 3820 
L 2304 2345 
C 2278 2377 2016 2790 1498 2790 
C 845 2790 211 2208 211 1364 
C 211 525 806 -64 1434 -64 
C 1978 -64 2259 337 2291 380 
L 2291 -63 
L 3066 -63 
L 3066 128 
C 2688 128 2630 166 2630 473 
L 2630 4396 
L 1869 4326 
z
M 2291 755 
C 2291 563 2176 390 2029 262 
C 1811 70 1594 38 1472 38 
C 1286 38 621 134 621 1356 
C 621 2612 1363 2688 1530 2688 
C 1824 2688 2061 2522 2208 2291 
C 2291 2157 2291 2138 2291 2023 
L 2291 755 
z
" transform="scale(0.015625)"/>
       <path id="CMR17-5b" d="M 1504 -1600 
L 1504 -1377 
L 902 -1377 
L 902 4544 
L 1504 4544 
L 1504 4767 
L 678 4767 
L 678 -1600 
L 1504 -1600 
z
" transform="scale(0.015625)"/>
       <path id="CMR17-6d" d="M 4326 1933 
C 4326 2252 4269 2790 3507 2790 
C 3072 2790 2771 2496 2656 2151 
L 2650 2151 
C 2573 2676 2195 2790 1837 2790 
C 1331 2790 1069 2400 973 2144 
L 966 2144 
L 966 2790 
L 211 2720 
L 211 2554 
C 589 2554 646 2515 646 2208 
L 646 428 
C 646 184 621 153 211 153 
L 211 -13 
C 365 0 646 0 813 0 
C 979 0 1267 0 1421 -13 
L 1421 153 
C 1011 153 986 178 986 428 
L 986 1658 
C 986 2247 1344 2688 1792 2688 
C 2266 2688 2317 2266 2317 1958 
L 2317 428 
C 2317 184 2291 153 1882 153 
L 1882 -13 
C 2035 0 2317 0 2483 0 
C 2650 0 2938 0 3091 -13 
L 3091 153 
C 2682 153 2656 178 2656 428 
L 2656 1658 
C 2656 2247 3014 2688 3462 2688 
C 3936 2688 3987 2266 3987 1958 
L 3987 428 
C 3987 184 3962 153 3552 153 
L 3552 -13 
C 3706 0 3987 0 4154 0 
C 4320 0 4608 0 4762 -13 
L 4762 153 
C 4352 153 4326 178 4326 428 
L 4326 1933 
z
" transform="scale(0.015625)"/>
       <path id="CMR17-73" d="M 1978 2697 
C 1978 2813 1971 2819 1933 2819 
C 1907 2819 1901 2813 1824 2717 
C 1805 2691 1747 2626 1728 2601 
C 1523 2819 1235 2819 1126 2819 
C 416 2819 160 2447 160 2076 
C 160 1498 813 1365 998 1325 
C 1402 1243 1542 1217 1677 1101 
C 1760 1025 1901 884 1901 654 
C 1901 384 1747 38 1158 38 
C 602 38 403 460 288 1021 
C 269 1110 269 1117 218 1117 
C 166 1117 160 1110 160 983 
L 160 63 
C 160 -51 166 -58 205 -58 
C 237 -58 243 -51 275 0 
C 314 57 410 211 448 276 
C 576 103 800 -64 1158 -64 
C 1792 -64 2131 283 2131 784 
C 2131 1112 1958 1285 1875 1362 
C 1683 1561 1459 1606 1190 1657 
C 838 1735 390 1825 390 2217 
C 390 2383 480 2737 1126 2737 
C 1811 2737 1850 2094 1862 1888 
C 1869 1856 1901 1849 1920 1849 
C 1978 1849 1978 1869 1978 1978 
L 1978 2697 
z
" transform="scale(0.015625)"/>
       <path id="CMR17-5d" d="M 915 4767 
L 90 4767 
L 90 4544 
L 691 4544 
L 691 -1377 
L 90 -1377 
L 90 -1600 
L 915 -1600 
L 915 4767 
z
" transform="scale(0.015625)"/>
      </defs>
      <use xlink:href="#CMR17-28" transform="scale(0.996264)"/>
      <use xlink:href="#CMR17-61" transform="translate(35.280768 0) scale(0.996264)"/>
      <use xlink:href="#CMR17-29" transform="translate(80.971245 0) scale(0.996264)"/>
      <use xlink:href="#CMR17-44" transform="translate(146.327979 0) scale(0.996264)"/>
      <use xlink:href="#CMR17-6f" transform="translate(216.721535 0) scale(0.996264)"/>
      <use xlink:href="#CMR17-77" transform="translate(259.809558 0) scale(0.996264)"/>
      <use xlink:href="#CMR17-6e" transform="translate(326.319439 0) scale(0.996264)"/>
      <use xlink:href="#CMR17-6c" transform="translate(377.214808 0) scale(0.996264)"/>
      <use xlink:href="#CMR17-6f" transform="translate(402.085867 0) scale(0.996264)"/>
      <use xlink:href="#CMR17-61" transform="translate(447.776344 0) scale(0.996264)"/>
      <use xlink:href="#CMR17-64" transform="translate(493.466821 0) scale(0.996264)"/>
      <use xlink:href="#CMR17-5b" transform="translate(574.438157 0) scale(0.996264)"/>
      <use xlink:href="#CMR17-6d" transform="translate(599.309216 0) scale(0.996264)"/>
      <use xlink:href="#CMR17-73" transform="translate(676.228806 0) scale(0.996264)"/>
      <use xlink:href="#CMR17-5d" transform="translate(712.030143 0) scale(0.996264)"/>
     </g>
    </g>
   </g>
   <g id="matplotlib.axis_2">
    <g id="ytick_1">
     <g id="line2d_7">
      <path d="M 37.567091 84.797516 
L 145.338212 84.797516 
" clip-path="url(#pb1f22f2c08)" style="fill: none; stroke: #808080; stroke-opacity: 0.7; stroke-width: 0.5; stroke-linecap: square"/>
     </g>
     <g id="line2d_8">
      <defs>
       <path id="mbc7c0cf7c9" d="M 0 0 
L -3.5 0 
" style="stroke: #000000; stroke-width: 0.8"/>
      </defs>
      <g>
       <use xlink:href="#mbc7c0cf7c9" x="37.567091" y="84.797516" style="stroke: #000000; stroke-width: 0.8"/>
      </g>
     </g>
     <g id="text_8">
      <!-- 0.00 -->
      <g transform="translate(12.855677 88.256765) scale(0.1 -0.1)">
       <defs>
        <path id="CMR17-2e" d="M 1062 261 
C 1062 420 934 522 800 522 
C 672 522 538 420 538 261 
C 538 102 666 0 800 0 
C 928 0 1062 102 1062 261 
z
" transform="scale(0.015625)"/>
       </defs>
       <use xlink:href="#CMR17-30" transform="scale(0.996264)"/>
       <use xlink:href="#CMR17-2e" transform="translate(45.690477 0) scale(0.996264)"/>
       <use xlink:href="#CMR17-30" transform="translate(70.561536 0) scale(0.996264)"/>
       <use xlink:href="#CMR17-30" transform="translate(116.252013 0) scale(0.996264)"/>
      </g>
     </g>
    </g>
    <g id="ytick_2">
     <g id="line2d_9">
      <path d="M 37.567091 70.301679 
L 145.338212 70.301679 
" clip-path="url(#pb1f22f2c08)" style="fill: none; stroke: #808080; stroke-opacity: 0.7; stroke-width: 0.5; stroke-linecap: square"/>
     </g>
     <g id="line2d_10">
      <g>
       <use xlink:href="#mbc7c0cf7c9" x="37.567091" y="70.301679" style="stroke: #000000; stroke-width: 0.8"/>
      </g>
     </g>
     <g id="text_9">
      <!-- 0.25 -->
      <g transform="translate(12.855677 73.760928) scale(0.1 -0.1)">
       <use xlink:href="#CMR17-30" transform="scale(0.996264)"/>
       <use xlink:href="#CMR17-2e" transform="translate(45.690477 0) scale(0.996264)"/>
       <use xlink:href="#CMR17-32" transform="translate(70.561536 0) scale(0.996264)"/>
       <use xlink:href="#CMR17-35" transform="translate(116.252013 0) scale(0.996264)"/>
      </g>
     </g>
    </g>
    <g id="ytick_3">
     <g id="line2d_11">
      <path d="M 37.567091 55.805842 
L 145.338212 55.805842 
" clip-path="url(#pb1f22f2c08)" style="fill: none; stroke: #808080; stroke-opacity: 0.7; stroke-width: 0.5; stroke-linecap: square"/>
     </g>
     <g id="line2d_12">
      <g>
       <use xlink:href="#mbc7c0cf7c9" x="37.567091" y="55.805842" style="stroke: #000000; stroke-width: 0.8"/>
      </g>
     </g>
     <g id="text_10">
      <!-- 0.50 -->
      <g transform="translate(12.855677 59.265091) scale(0.1 -0.1)">
       <use xlink:href="#CMR17-30" transform="scale(0.996264)"/>
       <use xlink:href="#CMR17-2e" transform="translate(45.690477 0) scale(0.996264)"/>
       <use xlink:href="#CMR17-35" transform="translate(70.561536 0) scale(0.996264)"/>
       <use xlink:href="#CMR17-30" transform="translate(116.252013 0) scale(0.996264)"/>
      </g>
     </g>
    </g>
    <g id="ytick_4">
     <g id="line2d_13">
      <path d="M 37.567091 41.310005 
L 145.338212 41.310005 
" clip-path="url(#pb1f22f2c08)" style="fill: none; stroke: #808080; stroke-opacity: 0.7; stroke-width: 0.5; stroke-linecap: square"/>
     </g>
     <g id="line2d_14">
      <g>
       <use xlink:href="#mbc7c0cf7c9" x="37.567091" y="41.310005" style="stroke: #000000; stroke-width: 0.8"/>
      </g>
     </g>
     <g id="text_11">
      <!-- 0.75 -->
      <g transform="translate(12.855677 44.769254) scale(0.1 -0.1)">
       <defs>
        <path id="CMR17-37" d="M 2886 3941 
L 2886 4081 
L 1382 4081 
C 634 4081 621 4165 595 4288 
L 480 4288 
L 294 3094 
L 410 3094 
C 429 3215 474 3540 550 3661 
C 589 3712 1062 3712 1171 3712 
L 2579 3712 
L 1869 2661 
C 1395 1954 1069 999 1069 165 
C 1069 89 1069 -128 1299 -128 
C 1530 -128 1530 89 1530 171 
L 1530 465 
C 1530 1508 1709 2196 2003 2636 
L 2886 3941 
z
" transform="scale(0.015625)"/>
       </defs>
       <use xlink:href="#CMR17-30" transform="scale(0.996264)"/>
       <use xlink:href="#CMR17-2e" transform="translate(45.690477 0) scale(0.996264)"/>
       <use xlink:href="#CMR17-37" transform="translate(70.561536 0) scale(0.996264)"/>
       <use xlink:href="#CMR17-35" transform="translate(116.252013 0) scale(0.996264)"/>
      </g>
     </g>
    </g>
    <g id="ytick_5">
     <g id="line2d_15">
      <path d="M 37.567091 26.814167 
L 145.338212 26.814167 
" clip-path="url(#pb1f22f2c08)" style="fill: none; stroke: #808080; stroke-opacity: 0.7; stroke-width: 0.5; stroke-linecap: square"/>
     </g>
     <g id="line2d_16">
      <g>
       <use xlink:href="#mbc7c0cf7c9" x="37.567091" y="26.814167" style="stroke: #000000; stroke-width: 0.8"/>
      </g>
     </g>
     <g id="text_12">
      <!-- 1.00 -->
      <g transform="translate(12.855677 30.273417) scale(0.1 -0.1)">
       <use xlink:href="#CMR17-31" transform="scale(0.996264)"/>
       <use xlink:href="#CMR17-2e" transform="translate(45.690477 0) scale(0.996264)"/>
       <use xlink:href="#CMR17-30" transform="translate(70.561536 0) scale(0.996264)"/>
       <use xlink:href="#CMR17-30" transform="translate(116.252013 0) scale(0.996264)"/>
      </g>
     </g>
    </g>
    <g id="text_13">
     <!-- Percentile -->
     <g transform="translate(6.918498 77.197866) rotate(-90) scale(0.1 -0.1)">
      <defs>
       <path id="CMR17-50" d="M 1267 2042 
L 2291 2042 
C 3117 2042 3718 2578 3718 3184 
C 3718 3791 3130 4352 2291 4352 
L 333 4352 
L 333 4186 
C 774 4186 845 4186 845 3899 
L 845 446 
C 845 160 774 160 333 160 
L 333 0 
C 518 0 858 0 1056 0 
C 1254 0 1594 0 1779 0 
L 1779 160 
C 1338 160 1267 160 1267 446 
L 1267 2042 
z
M 1254 2176 
L 1254 3938 
C 1254 4155 1267 4186 1523 4186 
L 2170 4186 
C 2995 4186 3232 3714 3232 3184 
C 3232 2604 2950 2176 2170 2176 
L 1254 2176 
z
" transform="scale(0.015625)"/>
       <path id="CMR17-65" d="M 2438 1472 
C 2464 1498 2464 1511 2464 1576 
C 2464 2238 2118 2816 1389 2816 
C 710 2816 173 2169 173 1383 
C 173 551 781 -64 1459 -64 
C 2176 -64 2458 607 2458 740 
C 2458 784 2419 784 2406 784 
C 2362 784 2355 771 2330 696 
C 2189 265 1837 51 1504 51 
C 1229 51 954 203 781 480 
C 582 803 582 1176 582 1472 
L 2438 1472 
z
M 589 1568 
C 634 2505 1126 2714 1382 2714 
C 1818 2714 2112 2297 2118 1568 
L 589 1568 
z
" transform="scale(0.015625)"/>
       <path id="CMR17-72" d="M 960 1497 
C 960 2112 1222 2688 1702 2688 
C 1747 2688 1792 2682 1837 2662 
C 1837 2662 1696 2617 1696 2452 
C 1696 2298 1818 2234 1914 2234 
C 1990 2234 2131 2279 2131 2458 
C 2131 2663 1926 2790 1709 2790 
C 1222 2790 1011 2317 947 2093 
L 941 2093 
L 941 2790 
L 198 2720 
L 198 2554 
C 576 2554 634 2515 634 2208 
L 634 428 
C 634 184 608 153 198 153 
L 198 -13 
C 352 0 646 0 813 0 
C 998 0 1325 0 1498 -13 
L 1498 153 
C 1037 153 960 153 960 440 
L 960 1497 
z
" transform="scale(0.015625)"/>
       <path id="CMR17-63" d="M 2234 2240 
C 2112 2240 1933 2240 1933 2017 
C 1933 1838 2080 1787 2163 1787 
C 2208 1787 2394 1807 2394 2024 
C 2394 2467 1958 2803 1466 2803 
C 787 2803 211 2178 211 1363 
C 211 516 813 -64 1466 -64 
C 2259 -64 2458 677 2458 748 
C 2458 774 2451 793 2406 793 
C 2362 793 2355 787 2330 703 
C 2163 180 1798 51 1523 51 
C 1114 51 621 427 621 1369 
C 621 2338 1094 2688 1472 2688 
C 1722 2688 2093 2573 2234 2240 
z
" transform="scale(0.015625)"/>
       <path id="CMR17-74" d="M 966 2560 
L 1862 2560 
L 1862 2725 
L 966 2725 
L 966 3904 
L 851 3904 
C 838 3245 614 2668 70 2668 
L 70 2560 
L 627 2560 
L 627 771 
C 627 650 627 -64 1370 -64 
C 1747 -64 1965 306 1965 777 
L 1965 1140 
L 1850 1140 
L 1850 783 
C 1850 344 1677 51 1408 51 
C 1222 51 966 178 966 758 
L 966 2560 
z
" transform="scale(0.015625)"/>
       <path id="CMR17-69" d="M 992 3909 
C 992 4049 877 4170 730 4170 
C 589 4170 467 4056 467 3909 
C 467 3769 582 3648 730 3648 
C 870 3648 992 3763 992 3909 
z
M 243 2706 
L 243 2541 
C 602 2541 653 2502 653 2197 
L 653 427 
C 653 184 627 153 218 153 
L 218 -13 
C 371 0 646 0 806 0 
C 960 0 1222 0 1370 -13 
L 1370 153 
C 992 153 979 191 979 420 
L 979 2776 
L 243 2706 
z
" transform="scale(0.015625)"/>
      </defs>
      <use xlink:href="#CMR17-50" transform="scale(0.996264)"/>
      <use xlink:href="#CMR17-65" transform="translate(59.983847 0) scale(0.996264)"/>
      <use xlink:href="#CMR17-72" transform="translate(100.469507 0) scale(0.996264)"/>
      <use xlink:href="#CMR17-63" transform="translate(135.750275 0) scale(0.996264)"/>
      <use xlink:href="#CMR17-65" transform="translate(176.235935 0) scale(0.996264)"/>
      <use xlink:href="#CMR17-6e" transform="translate(216.721596 0) scale(0.996264)"/>
      <use xlink:href="#CMR17-74" transform="translate(265.014512 0) scale(0.996264)"/>
      <use xlink:href="#CMR17-69" transform="translate(300.295279 0) scale(0.996264)"/>
      <use xlink:href="#CMR17-6c" transform="translate(325.166338 0) scale(0.996264)"/>
      <use xlink:href="#CMR17-65" transform="translate(350.037396 0) scale(0.996264)"/>
     </g>
    </g>
   </g>
   <g id="line2d_17">
    <path d="M 38.541162 84.797327 
L 41.01415 84.682803 
L 42.133892 84.502135 
L 42.753397 84.366822 
L 43.476181 84.170469 
L 43.586467 84.135318 
L 44.031742 83.98791 
L 46.825349 82.890483 
L 47.10232 82.760085 
L 48.004544 82.32599 
L 48.115189 82.267783 
L 48.497238 82.073886 
L 51.424302 80.408563 
L 51.793418 80.181216 
L 52.050272 80.023415 
L 52.462138 79.75109 
L 52.879032 79.487269 
L 53.058471 79.36802 
L 53.348735 79.176958 
L 53.459739 79.101553 
L 53.724497 78.917105 
L 54.176956 78.600558 
L 54.358011 78.471671 
L 54.837054 78.128855 
L 55.073611 77.965574 
L 55.184616 77.88072 
L 55.410396 77.706477 
L 55.970806 77.277863 
L 56.154735 77.132912 
L 56.7649 76.652138 
L 56.972539 76.494904 
L 57.18377 76.309133 
L 57.956489 75.657329 
L 58.366199 75.316403 
L 59.262316 74.534578 
L 59.448041 74.370918 
L 59.559045 74.277372 
L 60.890737 73.037073 
L 61.060656 72.877571 
L 62.972875 71.026667 
L 63.166504 70.841085 
L 63.276431 70.730907 
L 63.404858 70.602021 
L 63.668538 70.337822 
L 68.993868 64.573636 
L 69.27533 64.239513 
L 69.57709 63.892162 
L 69.687914 63.764598 
L 69.974226 63.428396 
L 70.170729 63.175725 
L 71.18719 61.945065 
L 71.298194 61.799926 
L 71.617915 61.385863 
L 72.206166 60.605739 
L 72.556961 60.12591 
L 73.050014 59.445947 
L 73.161018 59.282854 
L 73.534984 58.728188 
L 73.645988 58.55489 
L 73.760405 58.369308 
L 73.87141 58.182592 
L 74.140119 57.73867 
L 74.251123 57.547608 
L 74.487501 57.137703 
L 74.598505 56.937947 
L 74.810635 56.553555 
L 74.921639 56.361737 
L 75.130176 55.981124 
L 75.241001 55.775699 
L 75.339073 55.598621 
L 75.450077 55.400566 
L 75.554974 55.219898 
L 75.777881 54.824167 
L 75.888885 54.625167 
L 76.14538 54.194285 
L 76.256384 54.013617 
L 76.766501 53.198909 
L 77.144239 52.640274 
L 77.357985 52.332608 
L 77.506889 52.128884 
L 77.617893 51.981099 
L 78.411986 50.9844 
L 78.679079 50.681082 
L 78.838221 50.507595 
L 80.828933 48.573727 
L 80.996518 48.424997 
L 81.449156 48.061582 
L 81.590696 47.946113 
L 82.25277 47.409966 
L 82.429155 47.275032 
L 82.621886 47.128192 
L 83.153377 46.730193 
L 83.464476 46.503413 
L 83.652357 46.366778 
L 83.916217 46.182519 
L 84.027041 46.102768 
L 84.250846 45.942132 
L 85.243239 45.294674 
L 85.421959 45.177126 
L 86.752932 44.351458 
L 87.096543 44.150757 
L 87.352499 44.005051 
L 87.89836 43.695874 
L 88.202095 43.537506 
L 92.870919 41.206394 
L 93.21884 41.048593 
L 93.483598 40.931234 
L 94.774696 40.377513 
L 95.344266 40.144118 
L 95.454373 40.101408 
L 95.786128 39.97082 
L 96.04406 39.860643 
L 96.897248 39.521417 
L 97.134345 39.432973 
L 98.098896 39.064455 
L 98.244387 39.013241 
L 98.648888 38.862999 
L 98.881854 38.77909 
L 99.354071 38.612029 
L 100.085477 38.352366 
L 100.506144 38.211573 
L 104.253525 37.014929 
L 104.836747 36.835017 
L 105.358539 36.684397 
L 105.846023 36.550975 
L 107.305604 36.156566 
L 107.906787 36.003112 
L 108.392655 35.872713 
L 109.103046 35.693179 
L 110.360196 35.36945 
L 110.982395 35.214484 
L 120.602225 33.303672 
L 121.705801 33.124137 
L 122.754234 32.962556 
L 123.803027 32.803432 
L 127.495266 32.26842 
L 128.947302 32.090776 
L 130.199962 31.940534 
L 134.997752 31.408356 
L 136.008286 31.308762 
L 138.839074 31.040783 
L 139.521445 30.975962 
L 142.759249 30.694376 
L 145.339469 30.48366 
L 145.339469 30.48366 
" clip-path="url(#pb1f22f2c08)" style="fill: none; stroke: #1f77b4; stroke-width: 1.5; stroke-linecap: square"/>
   </g>
   <g id="line2d_18">
    <path d="M 38.670308 84.797379 
L 41.123538 84.68285 
L 42.560127 84.351973 
L 42.671131 84.310972 
L 43.027674 84.178949 
L 43.544796 83.967521 
L 44.165557 83.63473 
L 44.750575 83.293466 
L 44.977613 83.149963 
L 45.777813 82.619548 
L 45.888638 82.534676 
L 46.267454 82.27186 
L 46.378458 82.192181 
L 46.709495 81.947406 
L 46.820499 81.864311 
L 47.09801 81.644273 
L 48.527234 80.417252 
L 48.638239 80.316936 
L 49.253971 79.708893 
L 49.643563 79.318291 
L 50.117397 78.818217 
L 50.636854 78.229717 
L 50.798511 78.04945 
L 50.909515 77.919477 
L 51.068118 77.740303 
L 51.178943 77.6091 
L 51.291743 77.474753 
L 52.091764 76.459571 
L 52.371251 76.107373 
L 53.407829 74.732203 
L 53.625347 74.427156 
L 53.736351 74.272036 
L 53.951355 73.968902 
L 54.062359 73.814056 
L 54.174261 73.652649 
L 54.402377 73.339812 
L 54.513381 73.182368 
L 54.654202 72.986384 
L 54.972486 72.536604 
L 55.190004 72.231557 
L 55.301008 72.069604 
L 55.629531 71.59659 
L 58.701726 67.123117 
L 58.800337 66.983578 
L 58.911341 66.822171 
L 59.259621 66.304056 
L 59.47229 66.002699 
L 59.583294 65.843616 
L 59.794705 65.543216 
L 59.905709 65.383859 
L 60.123227 65.078812 
L 60.234232 64.913715 
L 60.554671 64.458742 
L 60.655257 64.318792 
L 60.963662 63.891699 
L 61.18118 63.586926 
L 61.292185 63.429346 
L 62.603939 61.635009 
L 62.711351 61.493146 
L 62.953836 61.169239 
L 63.244818 60.78178 
L 63.37576 60.61313 
L 63.486764 60.459376 
L 63.695481 60.17975 
L 63.929164 59.86254 
L 64.780556 58.768772 
L 64.95317 58.556798 
L 65.226549 58.209657 
L 65.531901 57.837778 
L 73.386619 49.041307 
L 73.601084 48.808012 
L 73.711908 48.685145 
L 73.840874 48.537816 
L 74.266031 48.075052 
L 74.377036 47.953826 
L 74.541926 47.772329 
L 74.65293 47.653836 
L 75.123351 47.140231 
L 75.604549 46.634553 
L 75.715553 46.517564 
L 76.351403 45.894214 
L 76.462227 45.800048 
L 76.778176 45.515365 
L 76.970368 45.353548 
L 77.27087 45.098523 
L 77.535807 44.878894 
L 80.716492 42.598287 
L 81.195355 42.297341 
L 81.30636 42.235293 
L 81.997172 41.849201 
L 82.723011 41.454225 
L 82.833656 41.391767 
L 83.154455 41.21765 
L 83.312339 41.132231 
L 83.58985 40.985038 
L 84.531231 40.508198 
L 84.728991 40.409522 
L 85.269104 40.138096 
L 85.677017 39.947442 
L 87.254068 39.228696 
L 87.643301 39.071662 
L 87.990684 38.922146 
L 88.412787 38.740238 
L 88.751727 38.596462 
L 89.14581 38.435875 
L 89.586055 38.256701 
L 89.69706 38.215017 
L 90.209511 38.024773 
L 90.390028 37.952338 
L 90.756091 37.813345 
L 94.070053 36.671333 
L 94.924857 36.39567 
L 95.224641 36.306698 
L 95.791337 36.141191 
L 96.103873 36.042789 
L 106.598625 33.495539 
L 107.845178 33.265387 
L 109.443783 32.974554 
L 111.12591 32.680031 
L 111.68632 32.585455 
L 117.504344 31.735643 
L 118.451652 31.609907 
L 119.637494 31.45957 
L 120.086001 31.407226 
L 122.51642 31.127736 
L 122.728729 31.105733 
L 123.528031 31.017581 
L 143.59681 29.432212 
L 145.33893 29.341463 
L 145.33893 29.341463 
" clip-path="url(#pb1f22f2c08)" style="fill: none; stroke-dasharray: 1.5,2.475; stroke-dashoffset: 0; stroke: #ff7f0e; stroke-width: 1.5"/>
   </g>
   <g id="line2d_19">
    <path d="M 38.45764 84.797452 
L 41.387936 84.683969 
L 42.714958 84.505746 
L 47.016463 83.632974 
L 47.491015 83.507114 
L 48.17141 83.315118 
L 48.282414 83.283003 
L 48.741699 83.139244 
L 49.114587 83.01167 
L 49.97478 82.694893 
L 51.240013 82.130013 
L 51.9901 81.735739 
L 52.236716 81.595027 
L 52.431782 81.475894 
L 52.879212 81.199992 
L 53.283533 80.933165 
L 53.50644 80.780965 
L 53.834782 80.547206 
L 54.376871 80.134209 
L 54.562417 79.988737 
L 55.32382 79.34344 
L 55.54026 79.149287 
L 55.934882 78.783828 
L 56.122045 78.599893 
L 56.233049 78.49301 
L 56.431707 78.305013 
L 56.542532 78.190133 
L 56.673474 78.054245 
L 56.784478 77.934096 
L 57.165269 77.529033 
L 57.276273 77.404569 
L 57.611801 77.031431 
L 57.722805 76.903857 
L 58.031031 76.55014 
L 58.142035 76.418885 
L 58.281598 76.25196 
L 58.564318 75.912778 
L 58.698673 75.747503 
L 63.925033 68.168146 
L 64.207214 67.703231 
L 64.301693 67.552109 
L 64.412697 67.35986 
L 64.500711 67.211023 
L 65.184878 66.051813 
L 65.295882 65.868259 
L 65.384793 65.719042 
L 65.495797 65.533266 
L 65.58399 65.384493 
L 65.694994 65.200875 
L 65.939096 64.780262 
L 70.563195 56.384939 
L 70.6742 56.173585 
L 70.786102 55.958486 
L 70.897106 55.735517 
L 70.970211 55.592012 
L 71.081215 55.370694 
L 71.183239 55.162703 
L 71.294243 54.93745 
L 71.462186 54.597633 
L 71.57319 54.369967 
L 71.673597 54.163374 
L 71.784601 53.926187 
L 71.883032 53.720736 
L 71.994037 53.482027 
L 72.253765 52.922542 
L 72.701374 51.906138 
L 72.812379 51.645341 
L 72.932364 51.356301 
L 73.573243 49.737189 
L 76.901215 40.662424 
L 76.979708 40.517014 
L 77.405763 39.759377 
L 77.500422 39.608256 
L 77.611427 39.432889 
L 77.791943 39.169363 
L 78.824211 37.902699 
L 78.995028 37.72454 
L 79.106032 37.609596 
L 79.306846 37.420901 
L 79.41785 37.320999 
L 82.85054 35.031077 
L 83.788867 34.581776 
L 84.044644 34.472227 
L 84.37137 34.331832 
L 90.351949 32.336219 
L 90.970555 32.181162 
L 91.267824 32.106903 
L 92.222856 31.882538 
L 93.120589 31.683116 
L 102.513561 30.136297 
L 103.871297 29.965119 
L 104.383569 29.901713 
L 107.533001 29.542982 
L 107.643286 29.530923 
L 119.234789 28.618356 
L 121.855423 28.48837 
L 122.726394 28.447052 
L 145.340367 27.746854 
L 145.340367 27.746854 
" clip-path="url(#pb1f22f2c08)" style="fill: none; stroke-dasharray: 5.55,2.4; stroke-dashoffset: 0; stroke: #2ca02c; stroke-width: 1.5"/>
   </g>
   <g id="line2d_20">
    <path d="M 37.905672 84.797408 
L 40.438293 84.685299 
L 41.245499 84.525452 
L 42.217235 84.267104 
L 42.408888 84.209106 
L 42.908228 84.054767 
L 43.018873 84.023121 
L 43.818175 83.749653 
L 44.430315 83.511071 
L 44.825476 83.351656 
L 45.570174 83.033473 
L 46.360496 82.679866 
L 47.614593 82.055166 
L 47.885817 81.910656 
L 50.160326 80.413385 
L 50.27133 80.328493 
L 53.472312 77.291938 
L 53.583137 77.165789 
L 53.721802 77.008102 
L 53.960695 76.73485 
L 54.07116 76.599304 
L 54.229404 76.406299 
L 54.340409 76.274749 
L 54.5423 76.023854 
L 54.653304 75.883988 
L 56.076601 73.998548 
L 56.187606 73.853498 
L 56.300226 73.703695 
L 57.069353 72.604962 
L 57.180178 72.440471 
L 57.278788 72.29488 
L 57.820697 71.469508 
L 57.931702 71.298968 
L 58.075756 71.082742 
L 58.531807 70.360622 
L 58.865359 69.847492 
L 58.999354 69.637314 
L 59.473547 68.893485 
L 59.584551 68.717545 
L 59.709925 68.512552 
L 59.820929 68.330564 
L 60.255067 67.634797 
L 60.366072 67.462098 
L 61.672976 65.333647 
L 61.803379 65.125738 
L 62.175728 64.519183 
L 62.375464 64.18966 
L 62.75877 63.556968 
L 62.880911 63.353919 
L 63.139022 62.92946 
L 63.230808 62.786138 
L 63.341812 62.60793 
L 63.716855 61.995111 
L 63.843846 61.789145 
L 63.95485 61.61461 
L 64.311213 61.046612 
L 64.443771 60.837515 
L 64.798698 60.272974 
L 64.932873 60.062689 
L 65.275944 59.526877 
L 66.266361 57.96934 
L 66.408439 57.75441 
L 67.174332 56.601891 
L 67.307609 56.392254 
L 68.049614 55.282828 
L 68.191333 55.068115 
L 68.302337 54.895523 
L 68.448726 54.677893 
L 69.153549 53.635539 
L 69.769461 52.721171 
L 69.880465 52.558623 
L 70.183302 52.119368 
L 70.350168 51.889534 
L 70.461172 51.728282 
L 71.210541 50.653419 
L 71.321545 50.498108 
L 71.480866 50.272702 
L 72.139348 49.313943 
L 72.285378 49.096529 
L 72.396382 48.931606 
L 72.658266 48.545813 
L 73.17413 47.751762 
L 73.377997 47.432068 
L 73.50409 47.22675 
L 73.903202 46.555933 
L 74.009357 46.362604 
L 74.120361 46.1723 
L 74.425353 45.631844 
L 74.536357 45.429227 
L 75.001749 44.59921 
L 75.079703 44.459775 
L 75.399065 43.901931 
L 76.493481 42.156681 
L 76.657293 41.928683 
L 76.768297 41.784281 
L 76.941629 41.55045 
L 78.384864 39.988377 
L 78.585498 39.812113 
L 78.831755 39.596751 
L 79.006524 39.448461 
L 79.815885 38.832185 
L 79.92671 38.754638 
L 83.437713 36.772858 
L 83.747016 36.630292 
L 83.85802 36.583201 
L 84.679236 36.218901 
L 85.122535 36.039937 
L 85.723898 35.807943 
L 88.094503 34.979222 
L 88.294778 34.912151 
L 88.746698 34.769801 
L 89.265257 34.606174 
L 89.704963 34.471384 
L 93.031678 33.586824 
L 93.663217 33.437562 
L 94.011677 33.35753 
L 95.507719 33.020339 
L 95.838936 32.950784 
L 97.01418 32.71339 
L 97.875092 32.544578 
L 101.790955 31.872572 
L 102.68797 31.73303 
L 104.1903 31.508704 
L 107.070124 31.108438 
L 107.752315 31.019226 
L 109.231833 30.827086 
L 111.956466 30.510956 
L 112.215297 30.484927 
L 120.915659 29.724573 
L 123.021327 29.573906 
L 123.26471 29.556193 
L 125.82158 29.383602 
L 126.060652 29.369021 
L 128.778101 29.208202 
L 133.57194 28.952986 
L 134.629355 28.90622 
L 140.6446 28.650465 
L 140.871278 28.641069 
L 145.033758 28.485326 
L 145.250737 28.477333 
L 145.339828 28.474201 
L 145.339828 28.474201 
" clip-path="url(#pb1f22f2c08)" style="fill: none; stroke-dasharray: 9.6,2.4,1.5,2.4; stroke-dashoffset: 0; stroke: #d62728; stroke-width: 1.5"/>
   </g>
   <g id="line2d_21">
    <path d="M 38.432852 84.796261 
L 41.680355 84.461344 
L 42.03133 84.382319 
L 42.786267 84.201689 
L 43.017795 84.126427 
L 43.662087 83.88935 
L 43.796262 83.821614 
L 44.526591 83.51053 
L 46.192553 82.706478 
L 46.308586 82.651285 
L 46.73051 82.435533 
L 47.803012 81.776988 
L 47.984607 81.633989 
L 49.774146 80.249163 
L 50.13482 79.931807 
L 50.291807 79.77501 
L 50.600751 79.457654 
L 50.786297 79.272007 
L 50.917059 79.130263 
L 51.163855 78.871862 
L 51.326948 78.69625 
L 51.513213 78.529419 
L 51.732886 78.298614 
L 51.955074 78.026415 
L 52.208337 77.716586 
L 52.377717 77.500834 
L 52.500217 77.33902 
L 54.478894 74.384973 
L 54.621691 74.167967 
L 56.264482 71.521242 
L 56.33597 71.380752 
L 56.574145 70.951757 
L 61.734765 61.720833 
L 61.87828 61.483757 
L 61.971682 61.325706 
L 62.098852 61.101173 
L 62.430427 60.545486 
L 62.576816 60.299629 
L 62.781402 59.940879 
L 62.911266 59.67997 
L 63.081185 59.353833 
L 63.299063 58.991319 
L 63.407373 58.83954 
L 63.533106 58.631315 
L 63.622556 58.463229 
L 63.771998 58.201065 
L 64.136803 57.63158 
L 64.248885 57.452205 
L 64.589981 56.937912 
L 64.759002 56.684529 
L 64.966821 56.358392 
L 65.054295 56.210377 
L 67.488126 52.620364 
L 67.777851 52.221473 
L 67.904482 52.053388 
L 68.082663 51.821329 
L 68.372927 51.424947 
L 68.485907 51.286966 
L 68.606431 51.141459 
L 68.730188 50.970864 
L 68.923637 50.698666 
L 69.481353 49.943534 
L 69.607086 49.785483 
L 69.715935 49.653774 
L 69.884956 49.459346 
L 70.021107 49.269936 
L 70.194259 49.091815 
L 75.790095 42.748456 
L 76.016055 42.521414 
L 76.46564 42.082384 
L 76.86565 41.742449 
L 77.768772 40.997352 
L 78.016826 40.831775 
L 78.124597 40.760276 
L 78.438211 40.526963 
L 78.806968 40.267308 
L 79.125791 40.081661 
L 79.318521 39.96375 
L 79.655845 39.729182 
L 79.765592 39.655174 
L 80.079206 39.478308 
L 80.219129 39.387993 
L 80.535976 39.188548 
L 80.869886 38.969033 
L 81.083453 38.836069 
L 81.442331 38.632861 
L 81.631289 38.523731 
L 82.435082 38.093481 
L 82.55381 38.037034 
L 83.278391 37.690828 
L 84.725219 36.973327 
L 85.106908 36.812767 
L 85.221684 36.772627 
L 85.512846 36.639664 
L 89.308545 35.096786 
L 89.745018 34.958805 
L 93.951325 33.675583 
L 94.679319 33.489936 
L 94.80577 33.449796 
L 102.428062 31.845454 
L 103.341961 31.668587 
L 113.934964 30.267454 
L 115.222111 30.130727 
L 117.739105 29.889888 
L 121.900867 29.548699 
L 122.401284 29.504795 
L 128.645004 29.0758 
L 129.197511 29.040678 
L 132.555659 28.870083 
L 133.050508 28.838724 
L 140.816495 28.479974 
L 144.131534 28.355791 
L 145.34827 28.314396 
L 145.34827 28.314396 
" clip-path="url(#pb1f22f2c08)" style="fill: none; stroke: #9467bd; stroke-width: 1.5; stroke-linecap: square"/>
   </g>
   <g id="line2d_22">
    <path d="M 38.6739 84.795329 
L 41.280525 84.67725 
L 42.518276 84.513252 
L 42.616707 84.484825 
L 43.397329 84.347066 
L 47.154949 83.192516 
L 47.310498 83.126917 
L 47.60184 83.004464 
L 48.46814 82.477482 
L 48.824503 82.212898 
L 49.04705 82.033593 
L 49.211222 81.922073 
L 50.619072 80.712857 
L 50.737081 80.588218 
L 50.947055 80.367367 
L 51.74995 79.52332 
L 51.917534 79.348389 
L 52.086735 79.193137 
L 52.242284 79.011645 
L 52.458725 78.777673 
L 53.147203 77.981734 
L 53.428485 77.58595 
L 53.584035 77.406645 
L 54.217011 76.709104 
L 54.357113 76.538546 
L 54.610555 76.210549 
L 54.7212 76.070603 
L 54.846035 75.882551 
L 55.013439 75.685753 
L 55.128934 75.519568 
L 55.505774 75.071305 
L 56.261429 73.977981 
L 56.385725 73.770249 
L 56.517565 73.597504 
L 56.672037 73.330733 
L 56.767773 73.201721 
L 56.892249 73.013669 
L 57.071868 72.788444 
L 57.1791 72.644125 
L 57.280584 72.482314 
L 57.441343 72.187116 
L 57.681493 71.806639 
L 57.94176 71.452402 
L 59.18023 69.591565 
L 59.330211 69.361967 
L 59.473008 69.090822 
L 59.601974 68.876531 
L 61.299729 66.141034 
L 61.415583 65.974849 
L 61.534131 65.79117 
L 61.669204 65.638105 
L 61.809127 65.423813 
L 61.95821 65.198589 
L 62.14645 64.903391 
L 62.374386 64.564461 
L 62.532091 64.315183 
L 63.878153 62.196321 
L 64.0161 61.968909 
L 64.163028 61.758991 
L 64.398867 61.387261 
L 64.625725 61.046144 
L 64.781095 60.834039 
L 64.958917 60.576014 
L 65.087165 60.355163 
L 65.235171 60.134312 
L 65.336476 59.970313 
L 65.674877 59.436771 
L 65.886647 59.121893 
L 66.013458 58.933842 
L 66.195771 58.649577 
L 66.435202 58.32814 
L 66.83665 57.761798 
L 66.948372 57.615293 
L 67.102844 57.357268 
L 67.263782 57.097057 
L 67.38736 56.915566 
L 67.516147 56.7297 
L 67.625355 56.550395 
L 67.995548 56.054026 
L 68.161516 55.793815 
L 68.44675 55.378352 
L 68.571765 55.212167 
L 68.950221 54.693931 
L 69.218212 54.315641 
L 69.938662 53.27917 
L 70.052719 53.130478 
L 70.195875 52.933679 
L 70.323943 52.760934 
L 70.487756 52.553203 
L 70.664141 52.290805 
L 70.997333 51.796622 
L 71.11175 51.626064 
L 71.404169 51.280573 
L 71.721555 50.795137 
L 71.909975 50.543673 
L 72.037145 50.351248 
L 72.466254 49.824266 
L 72.652877 49.605601 
L 74.335903 47.143435 
L 74.446009 46.953197 
L 74.696936 46.588026 
L 75.073237 46.074164 
L 75.235253 45.890486 
L 75.373739 45.73086 
L 75.58515 45.442223 
L 75.767642 45.230118 
L 75.934149 45.018013 
L 76.325358 44.62223 
L 76.568382 44.381698 
L 76.781948 44.149914 
L 77.56742 43.452373 
L 77.720814 43.334294 
L 77.838105 43.187789 
L 78.023292 43.028163 
L 79.576453 41.812387 
L 79.817681 41.676815 
L 80.013825 41.521563 
L 80.554476 41.182632 
L 80.850488 40.988021 
L 81.118299 40.817462 
L 81.821685 40.421679 
L 82.175534 40.207387 
L 82.332341 40.117735 
L 82.757677 39.901256 
L 82.928674 39.791924 
L 83.348263 39.582006 
L 83.49106 39.522966 
L 83.922144 39.275875 
L 84.114875 39.159983 
L 87.916501 37.355998 
L 88.506189 37.10672 
L 90.212924 36.428859 
L 91.186816 36.107422 
L 92.528746 35.621986 
L 93.428096 35.350842 
L 95.37534 34.79106 
L 103.406085 32.906169 
L 104.126176 32.757477 
L 104.240054 32.722491 
L 105.854106 32.385747 
L 106.403918 32.285161 
L 107.390024 32.123349 
L 109.515091 31.734126 
L 109.820622 31.694766 
L 110.968385 31.522021 
L 111.443476 31.454235 
L 115.002258 30.951306 
L 116.163492 30.802614 
L 116.636786 30.734828 
L 117.945487 30.577389 
L 119.564209 30.422137 
L 121.628206 30.188165 
L 121.852011 30.164112 
L 124.430794 29.925768 
L 126.79619 29.739903 
L 128.81187 29.599957 
L 131.223069 29.462198 
L 137.021514 29.153881 
L 138.17736 29.097028 
L 144.032205 28.84775 
L 145.468794 28.779964 
L 145.468794 28.779964 
" clip-path="url(#pb1f22f2c08)" style="fill: none; stroke-dasharray: 1.5,2.475; stroke-dashoffset: 0; stroke: #8c564b; stroke-width: 1.5"/>
   </g>
   <g id="line2d_23">
    <path d="M 38.557687 84.796973 
L 40.247898 84.676919 
L 41.018102 84.448218 
L 41.196463 84.378142 
L 41.57007 84.223864 
L 41.686283 84.169541 
L 41.993969 84.010918 
L 43.685257 82.858183 
L 43.96205 82.64089 
L 44.664358 82.086252 
L 44.817213 81.977062 
L 45.250813 81.634284 
L 45.415523 81.489241 
L 45.908935 81.061176 
L 46.01958 80.96611 
L 47.62501 79.50482 
L 47.809479 79.316319 
L 47.980655 79.149547 
L 48.1574 78.964306 
L 48.546633 78.575896 
L 48.726072 78.389568 
L 48.836897 78.280378 
L 49.076328 78.035381 
L 49.185357 77.911525 
L 49.327974 77.764309 
L 49.51316 77.556252 
L 49.700682 77.33733 
L 50.077701 76.913067 
L 50.594105 76.33344 
L 50.766359 76.122666 
L 50.877363 75.976537 
L 50.990164 75.830408 
L 51.192594 75.570201 
L 51.350299 75.381156 
L 51.906757 74.662462 
L 52.116372 74.381612 
L 52.698516 73.637386 
L 52.809161 73.507554 
L 52.975128 73.299497 
L 53.185102 73.01593 
L 53.367774 72.799725 
L 54.99871 70.534453 
L 55.139711 70.353014 
L 55.289872 70.1254 
L 57.190775 67.452163 
L 57.578751 66.9035 
L 57.689755 66.750309 
L 58.929303 65.077158 
L 59.134786 64.783271 
L 59.338115 64.52089 
L 59.520248 64.281325 
L 59.631072 64.137913 
L 59.743693 63.976573 
L 59.962289 63.666932 
L 60.091974 63.490382 
L 60.20208 63.344253 
L 60.345954 63.161184 
L 60.754946 62.586446 
L 60.897563 62.403921 
L 61.108435 62.118181 
L 61.272247 61.911754 
L 61.417379 61.714018 
L 62.201593 60.729141 
L 62.434918 60.438512 
L 62.675427 60.117463 
L 63.517658 59.044582 
L 63.631716 58.904429 
L 63.834685 58.644222 
L 64.529988 57.794066 
L 65.422693 56.736396 
L 65.61201 56.514758 
L 65.781391 56.332232 
L 66.284323 55.750975 
L 66.477233 55.520102 
L 66.737321 55.233277 
L 66.847966 55.101271 
L 67.00136 54.9144 
L 67.191217 54.693849 
L 67.540036 54.291315 
L 67.722708 54.092492 
L 68.07961 53.68344 
L 68.652773 53.016352 
L 68.804011 52.859902 
L 68.976984 52.688784 
L 69.277845 52.37697 
L 69.38867 52.254743 
L 69.852984 51.750625 
L 69.984105 51.61862 
L 70.230901 51.370364 
L 70.791491 50.80812 
L 70.928001 50.661448 
L 71.472065 50.111155 
L 71.650965 49.923741 
L 72.083666 49.457649 
L 72.194311 49.337595 
L 77.179983 44.469162 
L 77.419953 44.294242 
L 77.8408 43.991662 
L 78.07107 43.841188 
L 78.261825 43.696688 
L 78.555502 43.481026 
L 78.709794 43.366947 
L 79.80385 42.677588 
L 80.042743 42.536891 
L 80.320254 42.367946 
L 80.431258 42.308191 
L 82.087341 41.435762 
L 82.50226 41.232594 
L 82.828447 41.060933 
L 83.366225 40.831147 
L 83.800183 40.640473 
L 84.23019 40.459577 
L 85.036138 40.099958 
L 85.23336 40.00109 
L 85.859689 39.728932 
L 85.998534 39.655052 
L 86.574751 39.439933 
L 86.941352 39.300866 
L 87.449852 39.122143 
L 87.560677 39.083031 
L 87.89836 38.965693 
L 88.239455 38.828799 
L 89.181914 38.476242 
L 89.624135 38.326854 
L 90.730944 37.965605 
L 91.143169 37.83523 
L 91.364638 37.767326 
L 92.039465 37.534823 
L 92.21154 37.475611 
L 93.040659 37.18118 
L 93.831699 36.955196 
L 94.437193 36.772671 
L 95.124773 36.58091 
L 95.575436 36.436954 
L 96.722839 36.131659 
L 96.976101 36.071903 
L 97.534176 35.935553 
L 98.505193 35.686753 
L 99.846944 35.360815 
L 104.920629 34.294453 
L 107.061143 33.913105 
L 107.373859 33.852263 
L 109.166811 33.565981 
L 109.320744 33.53393 
L 110.346366 33.367158 
L 111.951976 33.121075 
L 112.06783 33.110753 
L 113.653323 32.8663 
L 114.926099 32.683231 
L 116.03255 32.535472 
L 122.468821 31.774949 
L 123.341946 31.685316 
L 127.908927 31.219768 
L 129.969331 31.020402 
L 145.345396 29.821492 
L 145.345396 29.821492 
" clip-path="url(#pb1f22f2c08)" style="fill: none; stroke-dasharray: 5.55,2.4; stroke-dashoffset: 0; stroke: #e377c2; stroke-width: 1.5"/>
   </g>
   <g id="patch_3">
    <path d="M 37.567091 87.696683 
L 37.567091 23.915 
" style="fill: none; stroke: #000000; stroke-width: 0.8; stroke-linejoin: miter; stroke-linecap: square"/>
   </g>
   <g id="patch_4">
    <path d="M 145.338212 87.696683 
L 145.338212 23.915 
" style="fill: none; stroke: #000000; stroke-width: 0.8; stroke-linejoin: miter; stroke-linecap: square"/>
   </g>
   <g id="patch_5">
    <path d="M 37.567091 87.696683 
L 145.338212 87.696683 
" style="fill: none; stroke: #000000; stroke-width: 0.8; stroke-linejoin: miter; stroke-linecap: square"/>
   </g>
   <g id="patch_6">
    <path d="M 37.567091 23.915 
L 145.338212 23.915 
" style="fill: none; stroke: #000000; stroke-width: 0.8; stroke-linejoin: miter; stroke-linecap: square"/>
   </g>
  </g>
  <g id="axes_2">
   <g id="patch_7">
    <path d="M 158.628879 87.696683 
L 266.4 87.696683 
L 266.4 23.915 
L 158.628879 23.915 
z
" style="fill: #ffffff"/>
   </g>
   <g id="matplotlib.axis_3">
    <g id="xtick_7">
     <g id="line2d_24">
      <g>
       <use xlink:href="#m21add8a067" x="158.628879" y="87.696683" style="stroke: #000000; stroke-width: 0.8"/>
      </g>
     </g>
     <g id="text_14">
      <!-- 0 -->
      <g transform="translate(156.138212 101.615182) scale(0.1 -0.1)">
       <use xlink:href="#CMR17-30" transform="scale(0.996264)"/>
      </g>
     </g>
    </g>
    <g id="xtick_8">
     <g id="line2d_25">
      <g>
       <use xlink:href="#m21add8a067" x="176.590733" y="87.696683" style="stroke: #000000; stroke-width: 0.8"/>
      </g>
     </g>
     <g id="text_15">
      <!-- 100 -->
      <g transform="translate(169.11873 101.615182) scale(0.1 -0.1)">
       <use xlink:href="#CMR17-31" transform="scale(0.996264)"/>
       <use xlink:href="#CMR17-30" transform="translate(45.690477 0) scale(0.996264)"/>
       <use xlink:href="#CMR17-30" transform="translate(91.380954 0) scale(0.996264)"/>
      </g>
     </g>
    </g>
    <g id="xtick_9">
     <g id="line2d_26">
      <g>
       <use xlink:href="#m21add8a067" x="194.552586" y="87.696683" style="stroke: #000000; stroke-width: 0.8"/>
      </g>
     </g>
     <g id="text_16">
      <!-- 200 -->
      <g transform="translate(187.080583 101.615182) scale(0.1 -0.1)">
       <use xlink:href="#CMR17-32" transform="scale(0.996264)"/>
       <use xlink:href="#CMR17-30" transform="translate(45.690477 0) scale(0.996264)"/>
       <use xlink:href="#CMR17-30" transform="translate(91.380954 0) scale(0.996264)"/>
      </g>
     </g>
    </g>
    <g id="xtick_10">
     <g id="line2d_27">
      <g>
       <use xlink:href="#m21add8a067" x="212.51444" y="87.696683" style="stroke: #000000; stroke-width: 0.8"/>
      </g>
     </g>
     <g id="text_17">
      <!-- 300 -->
      <g transform="translate(205.042437 101.615182) scale(0.1 -0.1)">
       <use xlink:href="#CMR17-33" transform="scale(0.996264)"/>
       <use xlink:href="#CMR17-30" transform="translate(45.690477 0) scale(0.996264)"/>
       <use xlink:href="#CMR17-30" transform="translate(91.380954 0) scale(0.996264)"/>
      </g>
     </g>
    </g>
    <g id="xtick_11">
     <g id="line2d_28">
      <g>
       <use xlink:href="#m21add8a067" x="230.476293" y="87.696683" style="stroke: #000000; stroke-width: 0.8"/>
      </g>
     </g>
     <g id="text_18">
      <!-- 400 -->
      <g transform="translate(223.00429 101.615182) scale(0.1 -0.1)">
       <use xlink:href="#CMR17-34" transform="scale(0.996264)"/>
       <use xlink:href="#CMR17-30" transform="translate(45.690477 0) scale(0.996264)"/>
       <use xlink:href="#CMR17-30" transform="translate(91.380954 0) scale(0.996264)"/>
      </g>
     </g>
    </g>
    <g id="xtick_12">
     <g id="line2d_29">
      <g>
       <use xlink:href="#m21add8a067" x="248.438147" y="87.696683" style="stroke: #000000; stroke-width: 0.8"/>
      </g>
     </g>
     <g id="text_19">
      <!-- 500 -->
      <g transform="translate(240.966144 101.615182) scale(0.1 -0.1)">
       <use xlink:href="#CMR17-35" transform="scale(0.996264)"/>
       <use xlink:href="#CMR17-30" transform="translate(45.690477 0) scale(0.996264)"/>
       <use xlink:href="#CMR17-30" transform="translate(91.380954 0) scale(0.996264)"/>
      </g>
     </g>
    </g>
    <g id="text_20">
     <!-- (b) Upload [ms] -->
     <g transform="translate(178.032556 115.02434) scale(0.1 -0.1)">
      <defs>
       <path id="CMR17-62" d="M 960 4396 
L 198 4326 
L 198 4160 
C 576 4160 634 4122 634 3817 
L 634 -13 
L 749 -13 
L 934 441 
C 1120 141 1395 -64 1766 -64 
C 2406 -64 3053 500 3053 1370 
C 3053 2188 2477 2790 1830 2790 
C 1434 2790 1152 2579 960 2330 
L 960 4396 
z
M 973 2004 
C 973 2118 973 2138 1062 2272 
C 1312 2657 1670 2688 1792 2688 
C 1984 2688 2643 2585 2643 1376 
C 2643 108 1888 38 1734 38 
C 1536 38 1248 114 1043 486 
C 973 608 973 621 973 735 
L 973 2004 
z
" transform="scale(0.015625)"/>
       <path id="CMR17-55" d="M 3456 1433 
C 3456 579 2899 38 2291 38 
C 1965 38 1670 210 1491 477 
C 1286 783 1261 1178 1261 1401 
L 1261 3874 
C 1261 4160 1331 4160 1773 4160 
L 1773 4320 
C 1587 4320 1248 4320 1050 4320 
C 851 4320 512 4320 326 4320 
L 326 4160 
C 768 4160 838 4160 838 3874 
L 838 1433 
C 838 516 1536 -128 2278 -128 
C 3110 -128 3590 719 3590 1344 
L 3590 3766 
C 3590 4122 3917 4160 4102 4160 
L 4102 4326 
C 3955 4320 3686 4320 3526 4320 
C 3366 4320 3091 4320 2944 4326 
L 2944 4160 
C 3456 4160 3456 3861 3456 3702 
L 3456 1433 
z
" transform="scale(0.015625)"/>
       <path id="CMR17-70" d="M 1408 -1063 
C 998 -1063 973 -1037 973 -789 
L 973 402 
C 1158 134 1427 -38 1766 -38 
C 2406 -38 3053 523 3053 1388 
C 3053 2191 2496 2802 1837 2802 
C 1453 2802 1139 2592 960 2338 
L 960 2802 
L 198 2732 
L 198 2567 
C 576 2567 634 2528 634 2223 
L 634 -789 
C 634 -1031 608 -1063 198 -1063 
L 198 -1228 
C 352 -1216 634 -1216 800 -1216 
C 966 -1216 1254 -1216 1408 -1228 
L 1408 -1063 
z
M 973 2012 
C 973 2102 973 2235 1222 2471 
C 1254 2497 1472 2688 1792 2688 
C 2259 2688 2643 2108 2643 1382 
C 2643 656 2234 64 1728 64 
C 1498 64 1248 172 1056 472 
C 973 612 973 650 973 752 
L 973 2012 
z
" transform="scale(0.015625)"/>
      </defs>
      <use xlink:href="#CMR17-28" transform="scale(0.996264)"/>
      <use xlink:href="#CMR17-62" transform="translate(35.280768 0) scale(0.996264)"/>
      <use xlink:href="#CMR17-29" transform="translate(86.176138 0) scale(0.996264)"/>
      <use xlink:href="#CMR17-55" transform="translate(151.532872 0) scale(0.996264)"/>
      <use xlink:href="#CMR17-70" transform="translate(220.605302 0) scale(0.996264)"/>
      <use xlink:href="#CMR17-6c" transform="translate(271.500671 0) scale(0.996264)"/>
      <use xlink:href="#CMR17-6f" transform="translate(296.37173 0) scale(0.996264)"/>
      <use xlink:href="#CMR17-61" transform="translate(342.062207 0) scale(0.996264)"/>
      <use xlink:href="#CMR17-64" transform="translate(387.752684 0) scale(0.996264)"/>
      <use xlink:href="#CMR17-5b" transform="translate(468.72402 0) scale(0.996264)"/>
      <use xlink:href="#CMR17-6d" transform="translate(493.595079 0) scale(0.996264)"/>
      <use xlink:href="#CMR17-73" transform="translate(570.514669 0) scale(0.996264)"/>
      <use xlink:href="#CMR17-5d" transform="translate(606.316006 0) scale(0.996264)"/>
     </g>
    </g>
   </g>
   <g id="matplotlib.axis_4"/>
   <g id="line2d_30">
    <path d="M 158.628879 84.790038 
L 160.690541 84.630291 
L 161.10995 84.451737 
L 161.615576 84.001501 
L 162.153354 83.144306 
L 162.264179 82.91137 
L 162.437331 82.514155 
L 162.548335 82.231596 
L 163.107308 80.519926 
L 163.218312 80.140612 
L 163.301835 79.856466 
L 163.412839 79.465823 
L 163.490794 79.188928 
L 163.601798 78.790128 
L 163.678854 78.51414 
L 163.955108 77.516005 
L 164.066112 77.108594 
L 164.354579 76.079643 
L 164.465584 75.696477 
L 164.771833 74.622434 
L 165.640468 71.76965 
L 165.741414 71.463752 
L 166.263026 69.924291 
L 166.378341 69.600039 
L 166.489346 69.299352 
L 168.781817 63.81675 
L 169.011369 63.348385 
L 169.122374 63.116129 
L 169.370427 62.624426 
L 169.481252 62.413696 
L 169.592435 62.212257 
L 169.903535 61.641247 
L 170.014539 61.433689 
L 170.12213 61.234515 
L 170.458017 60.632009 
L 171.487052 58.922151 
L 171.596619 58.755607 
L 171.707623 58.590875 
L 172.539257 57.362977 
L 172.650082 57.195979 
L 172.802219 56.968708 
L 176.832859 52.06278 
L 177.197305 51.701594 
L 177.842135 51.066912 
L 178.241786 50.683746 
L 178.427512 50.516068 
L 178.904758 50.083732 
L 179.385418 49.655248 
L 179.538632 49.524505 
L 179.766568 49.330316 
L 180.054137 49.088996 
L 180.430259 48.792842 
L 180.630892 48.644198 
L 180.802428 48.512775 
L 181.003242 48.357107 
L 181.350085 48.098339 
L 187.066984 44.623562 
L 187.68092 44.313585 
L 187.915322 44.196664 
L 188.323954 43.997717 
L 188.625354 43.83797 
L 188.736358 43.781322 
L 195.796445 40.932617 
L 196.268482 40.771284 
L 198.439172 40.109184 
L 198.619509 40.059334 
L 199.385223 39.839994 
L 199.562506 39.790823 
L 200.126688 39.65011 
L 200.309001 39.598221 
L 200.972512 39.430996 
L 201.996517 39.175401 
L 202.166077 39.1396 
L 202.763668 38.983932 
L 204.65074 38.530976 
L 205.238632 38.403178 
L 205.982791 38.245018 
L 206.149477 38.211029 
L 206.929022 38.053095 
L 207.100737 38.015254 
L 207.403574 37.954754 
L 208.402612 37.753315 
L 209.310225 37.583371 
L 210.429248 37.371055 
L 211.256571 37.22649 
L 212.124129 37.07626 
L 212.412416 37.025277 
L 213.410197 36.859412 
L 213.57365 36.830408 
L 216.528555 36.379718 
L 219.284801 35.995646 
L 221.00393 35.770188 
L 221.114036 35.754779 
L 233.850248 34.405882 
L 235.825513 34.235485 
L 237.69139 34.085935 
L 241.204729 33.810626 
L 242.557076 33.709113 
L 245.146996 33.52852 
L 266.403233 32.325547 
L 266.403233 32.325547 
" clip-path="url(#pec3be0062d)" style="fill: none; stroke: #1f77b4; stroke-width: 1.5; stroke-linecap: square"/>
   </g>
   <g id="line2d_31">
    <path d="M 158.628879 84.792306 
L 161.052652 84.35635 
L 161.580191 83.71065 
L 161.691016 83.503428 
L 161.758732 83.349146 
L 162.052947 82.563114 
L 162.163952 82.182283 
L 162.286272 81.717924 
L 162.397276 81.258439 
L 162.441822 81.065166 
L 162.552826 80.578623 
L 162.882426 78.914796 
L 162.99343 78.29145 
L 163.113954 77.622054 
L 163.224958 76.984085 
L 163.332191 76.351999 
L 163.443195 75.694536 
L 163.474628 75.513027 
L 163.585632 74.848673 
L 163.61509 74.669518 
L 163.726094 74.046171 
L 163.841768 73.390388 
L 164.077608 72.077309 
L 164.188612 71.475811 
L 164.223997 71.290773 
L 164.335001 70.720702 
L 164.372002 70.533984 
L 164.483007 69.97635 
L 164.520367 69.789632 
L 164.631371 69.244266 
L 164.669271 69.056876 
L 164.780275 68.532855 
L 164.869725 68.129839 
L 164.98073 67.656404 
L 165.023299 67.46498 
L 165.6728 64.957644 
L 165.81865 64.449253 
L 166.599631 61.95637 
L 166.672916 61.735703 
L 167.883365 58.668884 
L 168.000476 58.407209 
L 168.111481 58.163013 
L 168.233442 57.896801 
L 168.494248 57.350427 
L 168.571124 57.191944 
L 168.682129 56.970604 
L 168.824925 56.684897 
L 168.93593 56.455154 
L 169.082319 56.166085 
L 169.192964 55.952645 
L 169.271457 55.811808 
L 169.433653 55.508117 
L 169.758223 54.927963 
L 169.936764 54.608811 
L 170.047768 54.420748 
L 170.248402 54.081092 
L 170.53184 53.616061 
L 170.616261 53.482283 
L 170.727265 53.291699 
L 170.967236 52.915069 
L 171.222474 52.529532 
L 171.496392 52.121138 
L 171.607396 51.955596 
L 172.099371 51.270065 
L 172.217381 51.11696 
L 172.63212 50.576804 
L 172.847482 50.302861 
L 173.052607 50.044044 
L 173.438966 49.556156 
L 173.666902 49.283221 
L 173.777727 49.148939 
L 173.942257 48.949447 
L 174.053262 48.824072 
L 174.895852 47.883758 
L 175.006856 47.758887 
L 175.312747 47.437214 
L 178.844766 44.283842 
L 179.043783 44.140653 
L 179.259146 43.972589 
L 179.547793 43.766208 
L 179.753815 43.615959 
L 180.045336 43.408737 
L 180.60395 43.037653 
L 180.824521 42.900009 
L 181.050302 42.75245 
L 181.521621 42.463213 
L 181.850502 42.272293 
L 182.268115 42.033307 
L 182.542752 41.884571 
L 182.942403 41.662559 
L 183.29697 41.483236 
L 187.786176 39.505467 
L 188.210435 39.354378 
L 195.13958 37.309552 
L 196.62718 36.96519 
L 197.153283 36.841664 
L 197.998209 36.664357 
L 198.108494 36.642677 
L 199.064065 36.449908 
L 199.501616 36.367557 
L 211.862424 34.552138 
L 213.929474 34.333487 
L 219.102668 33.840053 
L 221.372148 33.640394 
L 230.756139 32.953688 
L 233.013405 32.814027 
L 266.40952 31.278769 
L 266.40952 31.278769 
" clip-path="url(#pec3be0062d)" style="fill: none; stroke-dasharray: 1.5,2.475; stroke-dashoffset: 0; stroke: #ff7f0e; stroke-width: 1.5"/>
   </g>
   <g id="line2d_32">
    <path d="M 158.628879 84.792921 
L 158.916808 84.786345 
L 160.847527 84.618465 
L 161.461104 84.226454 
L 161.572109 84.097316 
L 161.998343 83.349025 
L 162.50828 81.955518 
L 162.619285 81.581808 
L 162.6782 81.382 
L 162.789204 80.96543 
L 162.945292 80.352141 
L 163.056297 79.889619 
L 163.08755 79.754459 
L 163.198554 79.270467 
L 163.240944 79.085157 
L 163.351949 78.585954 
L 163.391465 78.403021 
L 163.54917 77.671526 
L 163.660174 77.126847 
L 163.699331 76.944231 
L 163.810335 76.410089 
L 163.861167 76.158704 
L 163.972171 75.637951 
L 164.074734 75.142788 
L 164.185738 74.61641 
L 164.239085 74.362174 
L 164.350089 73.835637 
L 164.424271 73.479754 
L 164.535276 72.954564 
L 164.564553 72.820593 
L 164.675558 72.303642 
L 164.704835 72.16975 
L 164.81584 71.666744 
L 165.678907 68.029079 
L 165.713932 67.892572 
L 166.264822 65.831585 
L 166.375827 65.435138 
L 166.505511 64.98141 
L 166.616516 64.601045 
L 166.659444 64.460815 
L 166.770449 64.097484 
L 166.813377 63.957175 
L 168.394021 59.437169 
L 168.451498 59.290442 
L 168.562503 59.01735 
L 168.658778 58.784425 
L 168.769783 58.516245 
L 169.176978 57.572504 
L 169.287982 57.321595 
L 169.500291 56.856379 
L 169.611295 56.613076 
L 169.733436 56.357334 
L 170.081896 55.641844 
L 170.212479 55.378575 
L 170.539205 54.730031 
L 170.683977 54.454245 
L 170.794981 54.241919 
L 171.170564 53.56208 
L 171.607037 52.800638 
L 171.803719 52.474227 
L 172.00561 52.148053 
L 172.116615 51.965278 
L 172.331977 51.627458 
L 172.563506 51.273159 
L 172.680796 51.100129 
L 173.390829 50.072646 
L 173.514586 49.896765 
L 174.073738 49.135243 
L 174.216355 48.950964 
L 174.609001 48.456514 
L 174.720006 48.322225 
L 175.157736 47.788004 
L 175.26874 47.651577 
L 176.352379 46.401944 
L 176.534333 46.200393 
L 176.645337 46.082821 
L 177.456674 45.219019 
L 177.762744 44.904016 
L 177.90087 44.771471 
L 178.011875 44.658495 
L 178.245379 44.434126 
L 178.356383 44.330103 
L 178.604436 44.099317 
L 178.71544 43.995769 
L 178.877456 43.846348 
L 182.00695 41.233789 
L 182.253926 41.045469 
L 182.472881 40.884323 
L 182.662378 40.744172 
L 183.104779 40.427822 
L 183.284397 40.300743 
L 183.770804 39.964825 
L 184.477064 39.489468 
L 184.69548 39.353833 
L 184.806485 39.283481 
L 185.440718 38.882438 
L 185.551722 38.813828 
L 186.308455 38.358754 
L 186.419459 38.296561 
L 186.666614 38.153717 
L 187.798929 37.532901 
L 188.222111 37.307582 
L 188.518302 37.151745 
L 188.921006 36.944568 
L 189.181812 36.810042 
L 195.538333 34.127606 
L 195.95846 33.985316 
L 196.456004 33.818703 
L 197.435104 33.508216 
L 198.969226 33.056152 
L 199.080231 33.023036 
L 199.813074 32.820851 
L 200.336123 32.680779 
L 201.005562 32.506878 
L 201.791932 32.308417 
L 202.3906 32.165731 
L 203.08267 32.003476 
L 204.610865 31.666527 
L 205.12188 31.562266 
L 206.114452 31.36317 
L 207.185517 31.163917 
L 208.328969 30.968466 
L 210.590366 30.607354 
L 211.001333 30.5473 
L 212.10473 30.391859 
L 214.097418 30.152834 
L 215.482097 30.007771 
L 223.776342 29.38751 
L 234.113568 28.992092 
L 250.342462 28.625909 
L 259.145567 28.479183 
L 266.400359 28.370722 
L 266.400359 28.370722 
" clip-path="url(#pec3be0062d)" style="fill: none; stroke-dasharray: 5.55,2.4; stroke-dashoffset: 0; stroke: #2ca02c; stroke-width: 1.5"/>
   </g>
   <g id="line2d_33">
    <path d="M 158.628879 84.793106 
L 160.625339 84.57979 
L 160.837469 84.450256 
L 161.202274 84.030376 
L 161.313278 83.842553 
L 161.42536 83.616559 
L 161.536365 83.351015 
L 161.612164 83.152995 
L 161.893805 82.226005 
L 162.00481 81.812877 
L 162.085279 81.48615 
L 162.196283 80.988963 
L 162.234003 80.820019 
L 162.345007 80.290724 
L 162.636348 78.732742 
L 162.747353 78.093344 
L 162.796568 77.814572 
L 162.907572 77.14348 
L 162.954273 76.868428 
L 163.065277 76.196509 
L 163.091861 76.036108 
L 163.202865 75.362673 
L 163.229988 75.201997 
L 163.340992 74.508718 
L 163.383562 74.240006 
L 163.453074 73.801384 
L 163.564078 73.114445 
L 163.677058 72.409453 
L 163.788062 71.719206 
L 163.814287 71.559081 
L 163.925291 70.884957 
L 163.950797 70.725383 
L 163.995881 70.453501 
L 164.106885 69.81617 
L 164.595807 67.04223 
L 164.706811 66.467874 
L 165.087064 64.568972 
L 165.198068 64.034027 
L 165.261653 63.733069 
L 167.398036 55.9783 
L 167.46683 55.785516 
L 167.577834 55.480424 
L 167.648963 55.285848 
L 170.410239 49.209362 
L 173.850293 44.134277 
L 173.994167 43.960096 
L 174.320893 43.569843 
L 174.484167 43.383535 
L 174.860827 42.95456 
L 174.971831 42.831228 
L 175.196713 42.592418 
L 175.785323 42.000837 
L 177.352495 40.556679 
L 180.963546 37.926328 
L 181.192739 37.789491 
L 181.303743 37.717145 
L 181.514256 37.597396 
L 182.099633 37.253857 
L 182.814695 36.845276 
L 183.681534 36.394115 
L 183.792538 36.339546 
L 184.302295 36.088334 
L 184.71919 35.895412 
L 184.830194 35.841532 
L 185.433533 35.572681 
L 185.584412 35.503505 
L 186.240379 35.22115 
L 186.351204 35.175951 
L 187.254326 34.830483 
L 187.612126 34.6953 
L 188.040337 34.542616 
L 188.374068 34.426312 
L 189.105654 34.172895 
L 189.449264 34.04915 
L 190.116906 33.834318 
L 190.418666 33.742542 
L 191.396509 33.441859 
L 197.458814 32.005832 
L 198.32727 31.843364 
L 198.913545 31.737257 
L 200.634111 31.436988 
L 201.158776 31.354583 
L 202.307796 31.169791 
L 206.188634 30.63278 
L 206.334484 30.61142 
L 208.263228 30.401549 
L 208.476795 30.37702 
L 209.865964 30.24418 
L 210.075579 30.223234 
L 211.712623 30.067243 
L 215.861451 29.724256 
L 218.643024 29.536984 
L 228.376193 29.094917 
L 239.967336 28.781695 
L 240.292446 28.774116 
L 266.416884 28.297185 
L 266.416884 28.297185 
" clip-path="url(#pec3be0062d)" style="fill: none; stroke-dasharray: 9.6,2.4,1.5,2.4; stroke-dashoffset: 0; stroke: #d62728; stroke-width: 1.5"/>
   </g>
   <g id="line2d_34">
    <path d="M 158.628879 84.795902 
L 160.067444 84.631259 
L 160.202877 84.576378 
L 160.871776 84.046938 
L 161.170661 83.483601 
L 161.281306 83.215653 
L 161.578575 82.274606 
L 161.859319 81.083366 
L 162.100007 79.914724 
L 162.134494 79.725869 
L 162.292738 78.881671 
L 162.598629 77.136779 
L 162.836264 75.558145 
L 163.188855 73.387119 
L 163.227114 73.132083 
L 163.406014 71.915017 
L 163.78429 69.519625 
L 164.124847 67.479345 
L 164.235492 66.895024 
L 164.37326 66.131533 
L 165.111133 62.306007 
L 165.327214 61.368188 
L 165.688786 59.934827 
L 165.877026 59.242358 
L 166.003837 58.787169 
L 166.142143 58.299697 
L 166.420731 57.229518 
L 166.531376 56.869564 
L 168.292177 51.943191 
L 168.392584 51.704297 
L 168.805527 50.818131 
L 170.040943 48.311362 
L 170.146559 48.153176 
L 170.257563 47.949794 
L 170.565968 47.376772 
L 170.941011 46.806978 
L 171.060458 46.613281 
L 171.191579 46.430882 
L 171.993935 45.220273 
L 172.112483 45.073386 
L 175.059305 41.468998 
L 175.270716 41.233333 
L 175.419261 41.075146 
L 175.799693 40.69905 
L 179.898947 37.490128 
L 180.227649 37.291588 
L 181.064312 36.829943 
L 181.192021 36.744393 
L 181.497731 36.578136 
L 181.61628 36.507113 
L 181.817093 36.384438 
L 181.964919 36.303731 
L 182.335113 36.139088 
L 182.532155 36.039011 
L 184.352588 35.267449 
L 184.490176 35.204498 
L 185.346597 34.928479 
L 186.358748 34.571753 
L 193.243886 32.750996 
L 194.106414 32.587967 
L 194.406736 32.533086 
L 195.232622 32.371672 
L 197.07443 32.106952 
L 198.400374 31.901955 
L 199.049157 31.808335 
L 200.510713 31.624322 
L 200.995144 31.562985 
L 202.36725 31.399956 
L 202.490468 31.388657 
L 203.260493 31.304721 
L 216.666861 30.299108 
L 220.474235 30.086041 
L 221.49824 30.042459 
L 225.240054 29.858447 
L 226.343809 29.816479 
L 262.552391 28.849605 
L 266.403054 28.776969 
L 266.403054 28.776969 
" clip-path="url(#pec3be0062d)" style="fill: none; stroke: #9467bd; stroke-width: 1.5; stroke-linecap: square"/>
   </g>
   <g id="line2d_35">
    <path d="M 158.628879 84.792596 
L 160.573789 84.595792 
L 161.003077 84.263685 
L 161.150544 84.01768 
L 161.412248 83.417428 
L 161.913923 81.646193 
L 162.029777 81.104983 
L 162.490678 78.713815 
L 162.587492 78.216885 
L 162.698496 77.673215 
L 163.334166 74.253747 
L 163.472113 73.503432 
L 163.60539 72.814618 
L 163.800456 71.665776 
L 166.101549 61.673058 
L 166.17196 61.449193 
L 166.315295 60.979324 
L 166.368103 60.78252 
L 166.517366 60.25853 
L 168.496762 55.156389 
L 168.616029 54.898084 
L 168.750563 54.573357 
L 169.583275 52.927585 
L 169.842464 52.538897 
L 169.989392 52.305192 
L 170.099499 52.098548 
L 171.100153 50.374054 
L 171.185113 50.231371 
L 171.397422 49.958306 
L 171.488129 49.815623 
L 172.455196 48.541318 
L 172.609847 48.342054 
L 172.915558 47.953366 
L 173.334608 47.453976 
L 173.506862 47.242412 
L 174.144328 46.410916 
L 174.278503 46.233792 
L 174.508774 45.997627 
L 174.645823 45.825424 
L 174.857773 45.567119 
L 175.127919 45.259613 
L 175.246108 45.153831 
L 175.634264 44.765143 
L 176.689882 43.822944 
L 176.878841 43.663041 
L 177.313697 43.276813 
L 177.424342 43.178412 
L 177.610427 43.008668 
L 177.963198 42.706082 
L 178.193828 42.543719 
L 178.51786 42.297714 
L 178.713465 42.157491 
L 181.330866 40.305075 
L 181.657233 40.100891 
L 182.346788 39.687602 
L 182.610648 39.54246 
L 182.735662 39.490798 
L 183.762542 38.981568 
L 184.141896 38.765084 
L 184.807383 38.452658 
L 184.927547 38.378856 
L 185.401022 38.204193 
L 185.514541 38.142692 
L 185.963407 37.992629 
L 188.676545 36.910207 
L 189.059851 36.760144 
L 190.833225 36.228774 
L 191.077866 36.147592 
L 191.859206 35.904047 
L 192.298912 35.753984 
L 192.778135 35.606382 
L 199.032272 34.189393 
L 200.158301 33.982749 
L 200.327142 33.953229 
L 201.433593 33.753965 
L 201.682544 33.699844 
L 202.849705 33.542401 
L 211.797941 32.317296 
L 213.864632 32.118032 
L 214.160464 32.076212 
L 227.203823 31.070052 
L 242.159401 30.344337 
L 246.969585 30.189354 
L 266.510286 29.606323 
L 266.510286 29.606323 
" clip-path="url(#pec3be0062d)" style="fill: none; stroke-dasharray: 1.5,2.475; stroke-dashoffset: 0; stroke: #8c564b; stroke-width: 1.5"/>
   </g>
   <g id="line2d_36">
    <path d="M 158.628879 84.790863 
L 158.746709 84.785541 
L 160.454522 84.586631 
L 160.80406 84.405682 
L 161.408117 83.484309 
L 161.58558 83.000005 
L 161.740411 82.479778 
L 161.851236 82.056013 
L 161.930268 81.740684 
L 162.374824 79.668424 
L 162.485828 79.049075 
L 162.990915 76.135937 
L 163.029354 75.912413 
L 163.139999 75.223212 
L 163.177719 75.000352 
L 163.366318 73.877407 
L 163.477322 73.25074 
L 163.646523 72.200307 
L 163.757527 71.563661 
L 164.002886 70.229166 
L 164.113711 69.622457 
L 164.4672 67.88881 
L 164.578204 67.353283 
L 166.69447 59.941047 
L 168.248709 56.399246 
L 170.470052 52.518832 
L 170.605843 52.304621 
L 170.793545 52.032533 
L 170.911913 51.844267 
L 171.022917 51.697246 
L 171.480585 51.082554 
L 171.621586 50.865016 
L 172.058777 50.288243 
L 172.155053 50.155193 
L 172.382809 49.884435 
L 172.713307 49.503246 
L 172.845327 49.356225 
L 172.978784 49.206544 
L 173.08889 49.07948 
L 173.276771 48.870591 
L 173.387775 48.744859 
L 174.324486 47.764943 
L 174.837656 47.246712 
L 174.99123 47.099691 
L 175.138337 46.955997 
L 176.315018 45.946144 
L 176.468592 45.801785 
L 177.37854 45.110588 
L 178.239451 44.529823 
L 178.350096 44.453319 
L 178.872427 44.118698 
L 179.150476 43.959702 
L 179.419365 43.802703 
L 179.654486 43.661004 
L 179.787943 43.58317 
L 180.100838 43.401556 
L 180.845177 43.033672 
L 181.775422 42.530742 
L 181.959171 42.423636 
L 183.007605 41.906735 
L 183.368638 41.739092 
L 183.60771 41.618681 
L 184.217695 41.342602 
L 184.348457 41.281399 
L 187.585542 39.829154 
L 187.750612 39.755976 
L 188.215824 39.547087 
L 188.341198 39.496528 
L 188.687502 39.352168 
L 189.867955 38.852564 
L 190.318438 38.690243 
L 190.443633 38.646336 
L 191.256586 38.331672 
L 191.364537 38.297744 
L 191.855434 38.120787 
L 192.092351 38.050936 
L 192.770052 37.846038 
L 193.096598 37.742259 
L 197.231956 36.762343 
L 198.354033 36.52884 
L 198.472581 36.50223 
L 209.435778 34.767253 
L 210.962715 34.595618 
L 215.305532 34.082044 
L 215.805051 34.028823 
L 217.726431 33.853862 
L 218.053696 33.821265 
L 220.285097 33.623685 
L 220.43903 33.609049 
L 225.199999 33.256466 
L 247.456172 31.91931 
L 249.977657 31.782268 
L 250.904129 31.740357 
L 255.804842 31.548099 
L 266.43305 31.158262 
L 266.43305 31.158262 
" clip-path="url(#pec3be0062d)" style="fill: none; stroke-dasharray: 5.55,2.4; stroke-dashoffset: 0; stroke: #e377c2; stroke-width: 1.5"/>
   </g>
   <g id="line2d_37">
    <path d="M 158.628879 84.797516 
L 266.4 84.797516 
" clip-path="url(#pec3be0062d)" style="fill: none; stroke: #808080; stroke-opacity: 0.7; stroke-width: 0.5; stroke-linecap: square"/>
   </g>
   <g id="line2d_38">
    <path d="M 158.628879 70.301679 
L 266.4 70.301679 
" clip-path="url(#pec3be0062d)" style="fill: none; stroke: #808080; stroke-opacity: 0.7; stroke-width: 0.5; stroke-linecap: square"/>
   </g>
   <g id="line2d_39">
    <path d="M 158.628879 55.805842 
L 266.4 55.805842 
" clip-path="url(#pec3be0062d)" style="fill: none; stroke: #808080; stroke-opacity: 0.7; stroke-width: 0.5; stroke-linecap: square"/>
   </g>
   <g id="line2d_40">
    <path d="M 158.628879 41.310005 
L 266.4 41.310005 
" clip-path="url(#pec3be0062d)" style="fill: none; stroke: #808080; stroke-opacity: 0.7; stroke-width: 0.5; stroke-linecap: square"/>
   </g>
   <g id="line2d_41">
    <path d="M 158.628879 26.814167 
L 266.4 26.814167 
" clip-path="url(#pec3be0062d)" style="fill: none; stroke: #808080; stroke-opacity: 0.7; stroke-width: 0.5; stroke-linecap: square"/>
   </g>
   <g id="patch_8">
    <path d="M 158.628879 87.696683 
L 158.628879 23.915 
" style="fill: none; stroke: #000000; stroke-width: 0.8; stroke-linejoin: miter; stroke-linecap: square"/>
   </g>
   <g id="patch_9">
    <path d="M 266.4 87.696683 
L 266.4 23.915 
" style="fill: none; stroke: #000000; stroke-width: 0.8; stroke-linejoin: miter; stroke-linecap: square"/>
   </g>
   <g id="patch_10">
    <path d="M 158.628879 87.696683 
L 266.4 87.696683 
" style="fill: none; stroke: #000000; stroke-width: 0.8; stroke-linejoin: miter; stroke-linecap: square"/>
   </g>
   <g id="patch_11">
    <path d="M 158.628879 23.915 
L 266.4 23.915 
" style="fill: none; stroke: #000000; stroke-width: 0.8; stroke-linejoin: miter; stroke-linecap: square"/>
   </g>
  </g>
  <g id="legend_1">
   <g id="patch_12">
    <path d="M 55.263929 22.053138 
L 245.696071 22.053138 
L 245.696071 -0 
L 55.263929 -0 
z
" style="fill: #ffffff; opacity: 0.8; stroke: #000000; stroke-linejoin: miter"/>
   </g>
   <g id="line2d_42">
    <path d="M 58.595929 6.2475 
L 62.760929 6.2475 
L 66.925929 6.2475 
" style="fill: none; stroke: #1f77b4; stroke-width: 1.5; stroke-linecap: square"/>
   </g>
   <g id="text_21">
    <!-- Mexico City -->
    <g transform="translate(69.424929 9.163) scale(0.0833 -0.0833)">
     <defs>
      <path id="CMR17-4d" d="M 1338 4224 
C 1299 4320 1293 4320 1158 4320 
L 339 4320 
L 339 4160 
C 781 4160 851 4160 851 3875 
L 851 610 
C 851 451 851 153 339 153 
L 339 -13 
C 486 0 755 0 915 0 
C 1075 0 1344 0 1491 -13 
L 1491 153 
C 979 153 979 451 979 610 
L 979 4135 
L 986 4135 
L 2490 89 
C 2515 25 2528 -13 2579 -13 
C 2630 -13 2643 25 2669 89 
L 4186 4166 
L 4192 4166 
L 4192 438 
C 4192 153 4122 153 3680 153 
L 3680 -13 
C 3853 0 4198 0 4384 0 
C 4570 0 4922 0 5094 -13 
L 5094 153 
C 4653 153 4582 153 4582 438 
L 4582 3875 
C 4582 4160 4653 4160 5094 4160 
L 5094 4320 
L 4282 4320 
C 4147 4320 4141 4314 4102 4218 
L 2720 502 
L 1338 4224 
z
" transform="scale(0.015625)"/>
      <path id="CMR17-78" d="M 1664 1477 
C 1856 1726 2074 2006 2253 2216 
C 2464 2458 2707 2560 2989 2560 
L 2989 2726 
C 2880 2726 2656 2726 2541 2726 
C 2368 2726 2170 2726 2022 2732 
L 2022 2566 
C 2112 2553 2163 2489 2163 2400 
C 2163 2285 2099 2215 2067 2171 
L 1594 1573 
L 1030 2306 
C 973 2376 973 2388 973 2420 
C 973 2497 1037 2560 1146 2560 
L 1146 2732 
C 992 2726 717 2726 557 2726 
C 384 2726 179 2726 38 2732 
L 38 2560 
C 384 2560 461 2534 614 2343 
L 1350 1395 
C 1363 1382 1395 1344 1395 1325 
C 1395 1299 838 619 768 530 
C 480 185 179 160 6 160 
L 6 0 
C 115 0 339 0 454 0 
C 582 0 864 0 979 -6 
L 979 160 
C 941 166 838 179 838 325 
C 838 440 890 510 947 586 
L 1478 1236 
L 2035 512 
C 2086 442 2163 346 2163 301 
C 2163 211 2086 160 1984 160 
L 1984 -6 
C 2138 0 2413 0 2573 0 
C 2746 0 2950 0 3091 -6 
L 3091 160 
C 2771 160 2675 172 2522 370 
L 1664 1477 
z
" transform="scale(0.015625)"/>
      <path id="CMR17-43" d="M 3974 4289 
C 3974 4403 3968 4410 3930 4410 
C 3904 4410 3898 4403 3853 4327 
L 3571 3792 
C 3258 4187 2874 4416 2381 4416 
C 1286 4416 294 3456 294 2148 
C 294 826 1286 -128 2387 -128 
C 3366 -128 3974 730 3974 1461 
C 3974 1524 3974 1550 3917 1550 
C 3866 1550 3866 1531 3859 1474 
C 3808 585 3168 38 2477 38 
C 1824 38 781 495 781 2147 
C 781 3805 1843 4250 2464 4250 
C 3187 4250 3712 3628 3834 2745 
C 3846 2668 3846 2655 3904 2655 
C 3974 2655 3974 2668 3974 2783 
L 3974 4289 
z
" transform="scale(0.015625)"/>
      <path id="CMR17-79" d="M 2496 2197 
C 2656 2586 2944 2586 3034 2586 
L 3034 2752 
C 2912 2752 2752 2752 2630 2752 
C 2496 2752 2285 2752 2157 2758 
L 2157 2592 
C 2400 2573 2406 2394 2406 2343 
C 2406 2280 2394 2248 2362 2171 
L 1664 449 
L 902 2306 
C 870 2382 870 2426 870 2433 
C 870 2573 1018 2586 1171 2586 
L 1171 2758 
C 1018 2752 742 2752 582 2752 
C 410 2752 205 2752 64 2758 
L 64 2586 
C 410 2586 448 2554 531 2350 
L 1485 15 
C 1197 -738 1030 -1178 627 -1178 
C 557 -1178 397 -1159 282 -1044 
C 429 -1031 493 -942 493 -833 
C 493 -725 416 -629 288 -629 
C 147 -629 77 -725 77 -840 
C 77 -1095 339 -1280 627 -1280 
C 998 -1280 1229 -922 1357 -604 
L 2496 2197 
z
" transform="scale(0.015625)"/>
     </defs>
     <use xlink:href="#CMR17-4d" transform="scale(0.996264)"/>
     <use xlink:href="#CMR17-65" transform="translate(84.686941 0) scale(0.996264)"/>
     <use xlink:href="#CMR17-78" transform="translate(125.172601 0) scale(0.996264)"/>
     <use xlink:href="#CMR17-69" transform="translate(173.465517 0) scale(0.996264)"/>
     <use xlink:href="#CMR17-63" transform="translate(198.336575 0) scale(0.996264)"/>
     <use xlink:href="#CMR17-6f" transform="translate(238.822236 0) scale(0.996264)"/>
     <use xlink:href="#CMR17-43" transform="translate(314.588679 0) scale(0.996264)"/>
     <use xlink:href="#CMR17-69" transform="translate(381.09856 0) scale(0.996264)"/>
     <use xlink:href="#CMR17-74" transform="translate(405.969618 0) scale(0.996264)"/>
     <use xlink:href="#CMR17-79" transform="translate(438.647932 0) scale(0.996264)"/>
    </g>
   </g>
   <g id="line2d_43">
    <path d="M 58.595929 14.191969 
L 62.760929 14.191969 
L 66.925929 14.191969 
" style="fill: none; stroke-dasharray: 1.5,2.475; stroke-dashoffset: 0; stroke: #ff7f0e; stroke-width: 1.5"/>
   </g>
   <g id="text_22">
    <!-- So Paulo -->
    <g transform="translate(69.424929 17.107469) scale(0.0833 -0.0833)">
     <defs>
      <path id="CMR17-53" d="M 2803 4290 
C 2803 4404 2797 4411 2758 4411 
C 2720 4411 2707 4385 2682 4328 
L 2490 3907 
C 2246 4257 1875 4416 1472 4416 
C 819 4416 294 3901 294 3253 
C 294 3056 339 2776 557 2510 
C 794 2218 1018 2167 1530 2033 
C 1722 1982 2042 1899 2106 1874 
C 2470 1722 2662 1341 2662 985 
C 2662 527 2336 38 1779 38 
C 1094 38 454 419 410 1311 
C 403 1413 397 1419 352 1419 
C 301 1419 294 1413 294 1285 
L 294 -1 
C 294 -115 301 -122 339 -122 
C 384 -122 397 -90 486 108 
C 493 127 493 140 614 381 
C 934 -39 1472 -128 1779 -128 
C 2477 -128 2970 451 2970 1124 
C 2970 1454 2848 1708 2778 1823 
C 2509 2230 2221 2306 1914 2382 
C 1869 2402 1856 2402 1498 2490 
C 1152 2579 1005 2624 845 2796 
C 666 2992 602 3196 602 3399 
C 602 3812 934 4263 1478 4263 
C 2157 4263 2579 3786 2675 2993 
C 2694 2878 2701 2872 2746 2872 
C 2803 2872 2803 2891 2803 2999 
L 2803 4290 
z
" transform="scale(0.015625)"/>
      <path id="CMR17-7e" d="M 2400 4184 
C 2182 3980 2061 3865 1862 3865 
C 1722 3865 1626 3932 1491 4024 
C 1363 4111 1261 4184 1120 4184 
C 890 4184 730 4004 461 3718 
L 531 3648 
C 749 3850 870 3968 1069 3968 
C 1210 3968 1306 3900 1440 3808 
C 1568 3722 1670 3648 1811 3648 
C 2042 3648 2202 3828 2470 4114 
L 2400 4184 
z
" transform="scale(0.015625)"/>
      <path id="CMR17-75" d="M 1882 2693 
L 1882 2528 
C 2259 2528 2317 2489 2317 2186 
L 2317 1032 
C 2317 500 2029 38 1555 38 
C 1030 38 986 348 986 678 
L 986 2763 
L 211 2693 
L 211 2528 
C 467 2528 640 2528 646 2274 
L 646 1058 
C 646 633 646 361 813 183 
C 896 101 1056 -64 1517 -64 
C 2061 -64 2272 377 2323 506 
L 2330 506 
L 2330 -63 
L 3091 -63 
L 3091 128 
C 2714 128 2656 166 2656 473 
L 2656 2763 
L 1882 2693 
z
" transform="scale(0.015625)"/>
     </defs>
     <use xlink:href="#CMR17-53" transform="scale(0.996264)"/>
     <use xlink:href="#CMR17-7e" transform="translate(50.89537 0) scale(0.996264)"/>
     <use xlink:href="#CMR17-61" transform="translate(50.89537 0) scale(0.996264)"/>
     <use xlink:href="#CMR17-6f" transform="translate(96.585847 0) scale(0.996264)"/>
     <use xlink:href="#CMR17-50" transform="translate(172.35229 0) scale(0.996264)"/>
     <use xlink:href="#CMR17-61" transform="translate(232.336137 0) scale(0.996264)"/>
     <use xlink:href="#CMR17-75" transform="translate(278.026614 0) scale(0.996264)"/>
     <use xlink:href="#CMR17-6c" transform="translate(328.921984 0) scale(0.996264)"/>
     <use xlink:href="#CMR17-6f" transform="translate(353.793042 0) scale(0.996264)"/>
    </g>
   </g>
   <g id="line2d_44">
    <path d="M 120.608844 6.2475 
L 124.773844 6.2475 
L 128.938844 6.2475 
" style="fill: none; stroke-dasharray: 5.55,2.4; stroke-dashoffset: 0; stroke: #2ca02c; stroke-width: 1.5"/>
   </g>
   <g id="text_23">
    <!-- Seattle -->
    <g transform="translate(131.437844 9.163) scale(0.0833 -0.0833)">
     <use xlink:href="#CMR17-53" transform="scale(0.996264)"/>
     <use xlink:href="#CMR17-65" transform="translate(50.89537 0) scale(0.996264)"/>
     <use xlink:href="#CMR17-61" transform="translate(91.38103 0) scale(0.996264)"/>
     <use xlink:href="#CMR17-74" transform="translate(137.071507 0) scale(0.996264)"/>
     <use xlink:href="#CMR17-74" transform="translate(172.352275 0) scale(0.996264)"/>
     <use xlink:href="#CMR17-6c" transform="translate(207.633043 0) scale(0.996264)"/>
     <use xlink:href="#CMR17-65" transform="translate(232.504101 0) scale(0.996264)"/>
    </g>
   </g>
   <g id="line2d_45">
    <path d="M 120.608844 14.191969 
L 124.773844 14.191969 
L 128.938844 14.191969 
" style="fill: none; stroke-dasharray: 9.6,2.4,1.5,2.4; stroke-dashoffset: 0; stroke: #d62728; stroke-width: 1.5"/>
   </g>
   <g id="text_24">
    <!-- Sydney -->
    <g transform="translate(131.437844 17.107469) scale(0.0833 -0.0833)">
     <use xlink:href="#CMR17-53" transform="scale(0.996264)"/>
     <use xlink:href="#CMR17-79" transform="translate(50.89537 0) scale(0.996264)"/>
     <use xlink:href="#CMR17-64" transform="translate(99.188286 0) scale(0.996264)"/>
     <use xlink:href="#CMR17-6e" transform="translate(150.083655 0) scale(0.996264)"/>
     <use xlink:href="#CMR17-65" transform="translate(200.979025 0) scale(0.996264)"/>
     <use xlink:href="#CMR17-79" transform="translate(241.464686 0) scale(0.996264)"/>
    </g>
   </g>
   <g id="line2d_46">
    <path d="M 163.525478 6.2475 
L 167.690478 6.2475 
L 171.855478 6.2475 
" style="fill: none; stroke: #9467bd; stroke-width: 1.5; stroke-linecap: square"/>
   </g>
   <g id="text_25">
    <!-- Dublin -->
    <g transform="translate(174.354478 9.163) scale(0.0833 -0.0833)">
     <use xlink:href="#CMR17-44" transform="scale(0.996264)"/>
     <use xlink:href="#CMR17-75" transform="translate(70.393556 0) scale(0.996264)"/>
     <use xlink:href="#CMR17-62" transform="translate(121.288926 0) scale(0.996264)"/>
     <use xlink:href="#CMR17-6c" transform="translate(172.184295 0) scale(0.996264)"/>
     <use xlink:href="#CMR17-69" transform="translate(197.055354 0) scale(0.996264)"/>
     <use xlink:href="#CMR17-6e" transform="translate(221.926412 0) scale(0.996264)"/>
    </g>
   </g>
   <g id="line2d_47">
    <path d="M 163.525478 14.191969 
L 167.690478 14.191969 
L 171.855478 14.191969 
" style="fill: none; stroke-dasharray: 1.5,2.475; stroke-dashoffset: 0; stroke: #8c564b; stroke-width: 1.5"/>
   </g>
   <g id="text_26">
    <!-- Lagos -->
    <g transform="translate(174.354478 17.107469) scale(0.0833 -0.0833)">
     <defs>
      <path id="CMR17-4c" d="M 3469 1615 
L 3354 1615 
C 3302 983 3219 166 2125 166 
L 1530 166 
C 1274 166 1261 197 1261 414 
L 1261 3898 
C 1261 4129 1274 4192 1760 4192 
L 1901 4192 
L 1901 4352 
C 1638 4352 1331 4352 1069 4352 
C 870 4352 512 4352 326 4352 
L 326 4192 
C 768 4192 838 4192 838 3905 
L 838 452 
C 838 166 768 166 326 166 
L 326 0 
L 3315 0 
L 3469 1615 
z
" transform="scale(0.015625)"/>
      <path id="CMR17-67" d="M 710 1164 
C 832 1068 1043 960 1299 960 
C 1805 960 2240 1357 2240 1888 
C 2240 2054 2189 2310 1997 2509 
C 2176 2692 2438 2752 2586 2752 
C 2611 2752 2650 2752 2682 2734 
C 2656 2728 2598 2703 2598 2605 
C 2598 2527 2656 2471 2739 2471 
C 2835 2471 2886 2533 2886 2614 
C 2886 2731 2790 2854 2586 2854 
C 2330 2854 2106 2738 1926 2580 
C 1734 2753 1504 2816 1299 2816 
C 794 2816 358 2419 358 1888 
C 358 1522 570 1292 634 1228 
C 442 1004 442 743 442 711 
C 442 545 506 302 723 168 
C 390 85 128 -169 128 -486 
C 128 -943 736 -1280 1466 -1280 
C 2170 -1280 2803 -956 2803 -479 
C 2803 384 1856 384 1363 384 
C 1216 384 954 384 922 391 
C 723 423 589 602 589 826 
C 589 883 589 1024 710 1164 
z
M 1299 1068 
C 736 1068 736 1760 736 1889 
C 736 2016 736 2708 1299 2708 
C 1862 2708 1862 2016 1862 1889 
C 1862 1760 1862 1068 1299 1068 
z
M 1466 -1171 
C 826 -1171 384 -835 384 -486 
C 384 -289 493 -105 634 -4 
C 794 104 858 104 1293 104 
C 1818 104 2547 104 2547 -486 
C 2547 -835 2106 -1171 1466 -1171 
z
" transform="scale(0.015625)"/>
     </defs>
     <use xlink:href="#CMR17-4c" transform="scale(0.996264)"/>
     <use xlink:href="#CMR17-61" transform="translate(57.381408 0) scale(0.996264)"/>
     <use xlink:href="#CMR17-67" transform="translate(103.071885 0) scale(0.996264)"/>
     <use xlink:href="#CMR17-6f" transform="translate(148.762362 0) scale(0.996264)"/>
     <use xlink:href="#CMR17-73" transform="translate(194.452839 0) scale(0.996264)"/>
    </g>
   </g>
   <g id="line2d_48">
    <path d="M 204.845742 6.2475 
L 209.010742 6.2475 
L 213.175742 6.2475 
" style="fill: none; stroke-dasharray: 5.55,2.4; stroke-dashoffset: 0; stroke: #e377c2; stroke-width: 1.5"/>
   </g>
   <g id="text_27">
    <!-- Manila -->
    <g transform="translate(215.674742 9.163) scale(0.0833 -0.0833)">
     <use xlink:href="#CMR17-4d" transform="scale(0.996264)"/>
     <use xlink:href="#CMR17-61" transform="translate(84.686941 0) scale(0.996264)"/>
     <use xlink:href="#CMR17-6e" transform="translate(130.377418 0) scale(0.996264)"/>
     <use xlink:href="#CMR17-69" transform="translate(181.272787 0) scale(0.996264)"/>
     <use xlink:href="#CMR17-6c" transform="translate(206.143846 0) scale(0.996264)"/>
     <use xlink:href="#CMR17-61" transform="translate(231.014904 0) scale(0.996264)"/>
    </g>
   </g>
  </g>
 </g>
 <defs>
  <clipPath id="pb1f22f2c08">
   <rect x="37.567091" y="23.915" width="107.771121" height="63.781683"/>
  </clipPath>
  <clipPath id="pec3be0062d">
   <rect x="158.628879" y="23.915" width="107.771121" height="63.781683"/>
  </clipPath>
 </defs>
</svg>
