<?xml version="1.0" encoding="utf-8" standalone="no"?>
<!DOCTYPE svg PUBLIC "-//W3C//DTD SVG 1.1//EN"
  "http://www.w3.org/Graphics/SVG/1.1/DTD/svg11.dtd">
<svg xmlns:xlink="http://www.w3.org/1999/xlink" width="200.88pt" height="103.68pt" viewBox="0 0 200.88 103.68" xmlns="http://www.w3.org/2000/svg" version="1.1">
 <metadata>
  <rdf:RDF xmlns:dc="http://purl.org/dc/elements/1.1/" xmlns:cc="http://creativecommons.org/ns#" xmlns:rdf="http://www.w3.org/1999/02/22-rdf-syntax-ns#">
   <cc:Work>
    <dc:type rdf:resource="http://purl.org/dc/dcmitype/StillImage"/>
    <dc:date>2023-10-12T13:59:33.668551</dc:date>
    <dc:format>image/svg+xml</dc:format>
    <dc:creator>
     <cc:Agent>
      <dc:title>Matplotlib v3.7.0, https://matplotlib.org/</dc:title>
     </cc:Agent>
    </dc:creator>
   </cc:Work>
  </rdf:RDF>
 </metadata>
 <defs>
  <style type="text/css">*{stroke-linejoin: round; stroke-linecap: butt}</style>
 </defs>
 <g id="figure_1">
  <g id="patch_1">
   <path d="M 0 103.68 
L 200.88 103.68 
L 200.88 -0 
L 0 -0 
z
" style="fill: #ffffff"/>
  </g>
  <g id="axes_1">
   <g id="patch_2">
    <path d="M 3.5 70.098056 
L 192.100515 70.098056 
L 192.100515 -0 
L 3.5 -0 
z
" style="fill: #ffffff"/>
   </g>
   <g id="matplotlib.axis_1">
    <g id="xtick_1">
     <g id="line2d_1">
      <defs>
       <path id="mfb1905043d" d="M 0 0 
L 0 3.5 
" style="stroke: #000000; stroke-width: 0.8"/>
      </defs>
      <g>
       <use xlink:href="#mfb1905043d" x="8.738903" y="70.098056" style="stroke: #000000; stroke-width: 0.8"/>
      </g>
     </g>
     <g id="text_1">
      <!-- 25 -->
      <g transform="translate(2.885913 85.400236) scale(0.12 -0.12)">
       <defs>
        <path id="CMR17-32" d="M 2669 989 
L 2554 989 
C 2490 536 2438 459 2413 420 
C 2381 369 1920 369 1830 369 
L 602 369 
C 832 619 1280 1072 1824 1597 
C 2214 1967 2669 2402 2669 3035 
C 2669 3790 2067 4224 1395 4224 
C 691 4224 262 3604 262 3030 
C 262 2780 448 2748 525 2748 
C 589 2748 781 2787 781 3010 
C 781 3207 614 3264 525 3264 
C 486 3264 448 3258 422 3245 
C 544 3790 915 4058 1306 4058 
C 1862 4058 2227 3617 2227 3035 
C 2227 2479 1901 2000 1536 1584 
L 262 146 
L 262 0 
L 2515 0 
L 2669 989 
z
" transform="scale(0.015625)"/>
        <path id="CMR17-35" d="M 730 3692 
C 794 3666 1056 3584 1325 3584 
C 1920 3584 2246 3911 2432 4100 
C 2432 4157 2432 4192 2394 4192 
C 2387 4192 2374 4192 2323 4163 
C 2099 4058 1837 3973 1517 3973 
C 1325 3973 1037 3999 723 4139 
C 653 4171 640 4171 634 4171 
C 602 4171 595 4164 595 4037 
L 595 2203 
C 595 2089 595 2057 659 2057 
C 691 2057 704 2070 736 2114 
C 941 2401 1222 2522 1542 2522 
C 1766 2522 2246 2382 2246 1289 
C 2246 1085 2246 715 2054 421 
C 1894 159 1645 25 1370 25 
C 947 25 518 320 403 814 
C 429 807 480 795 506 795 
C 589 795 749 840 749 1038 
C 749 1210 627 1280 506 1280 
C 358 1280 262 1190 262 1011 
C 262 454 704 -128 1382 -128 
C 2042 -128 2669 440 2669 1264 
C 2669 2030 2170 2624 1549 2624 
C 1222 2624 947 2503 730 2274 
L 730 3692 
z
" transform="scale(0.015625)"/>
       </defs>
       <use xlink:href="#CMR17-32" transform="scale(0.996264)"/>
       <use xlink:href="#CMR17-35" transform="translate(45.690477 0) scale(0.996264)"/>
      </g>
     </g>
    </g>
    <g id="xtick_2">
     <g id="line2d_2">
      <g>
       <use xlink:href="#mfb1905043d" x="34.933419" y="70.098056" style="stroke: #000000; stroke-width: 0.8"/>
      </g>
     </g>
     <g id="text_2">
      <!-- 50 -->
      <g transform="translate(29.080429 85.400236) scale(0.12 -0.12)">
       <defs>
        <path id="CMR17-30" d="M 2688 2025 
C 2688 2416 2682 3080 2413 3591 
C 2176 4039 1798 4198 1466 4198 
C 1158 4198 768 4058 525 3597 
C 269 3118 243 2524 243 2025 
C 243 1661 250 1106 448 619 
C 723 -39 1216 -128 1466 -128 
C 1760 -128 2208 -7 2470 600 
C 2662 1042 2688 1559 2688 2025 
z
M 1466 -26 
C 1056 -26 813 325 723 812 
C 653 1188 653 1738 653 2096 
C 653 2588 653 2997 736 3387 
C 858 3929 1216 4096 1466 4096 
C 1728 4096 2067 3923 2189 3400 
C 2272 3036 2278 2607 2278 2096 
C 2278 1680 2278 1169 2202 792 
C 2067 95 1690 -26 1466 -26 
z
" transform="scale(0.015625)"/>
       </defs>
       <use xlink:href="#CMR17-35" transform="scale(0.996264)"/>
       <use xlink:href="#CMR17-30" transform="translate(45.690477 0) scale(0.996264)"/>
      </g>
     </g>
    </g>
    <g id="xtick_3">
     <g id="line2d_3">
      <g>
       <use xlink:href="#mfb1905043d" x="61.127935" y="70.098056" style="stroke: #000000; stroke-width: 0.8"/>
      </g>
     </g>
     <g id="text_3">
      <!-- 75 -->
      <g transform="translate(55.274945 85.400236) scale(0.12 -0.12)">
       <defs>
        <path id="CMR17-37" d="M 2886 3941 
L 2886 4081 
L 1382 4081 
C 634 4081 621 4165 595 4288 
L 480 4288 
L 294 3094 
L 410 3094 
C 429 3215 474 3540 550 3661 
C 589 3712 1062 3712 1171 3712 
L 2579 3712 
L 1869 2661 
C 1395 1954 1069 999 1069 165 
C 1069 89 1069 -128 1299 -128 
C 1530 -128 1530 89 1530 171 
L 1530 465 
C 1530 1508 1709 2196 2003 2636 
L 2886 3941 
z
" transform="scale(0.015625)"/>
       </defs>
       <use xlink:href="#CMR17-37" transform="scale(0.996264)"/>
       <use xlink:href="#CMR17-35" transform="translate(45.690477 0) scale(0.996264)"/>
      </g>
     </g>
    </g>
    <g id="xtick_4">
     <g id="line2d_4">
      <g>
       <use xlink:href="#mfb1905043d" x="87.322451" y="70.098056" style="stroke: #000000; stroke-width: 0.8"/>
      </g>
     </g>
     <g id="text_4">
      <!-- 100 -->
      <g transform="translate(78.542966 85.400236) scale(0.12 -0.12)">
       <defs>
        <path id="CMR17-31" d="M 1702 4058 
C 1702 4192 1696 4192 1606 4192 
C 1357 3916 979 3827 621 3827 
C 602 3827 570 3827 563 3808 
C 557 3795 557 3782 557 3648 
C 755 3648 1088 3686 1344 3839 
L 1344 461 
C 1344 236 1331 160 781 160 
L 589 160 
L 589 0 
C 896 0 1216 0 1523 0 
C 1830 0 2150 0 2458 0 
L 2458 160 
L 2266 160 
C 1715 160 1702 230 1702 458 
L 1702 4058 
z
" transform="scale(0.015625)"/>
       </defs>
       <use xlink:href="#CMR17-31" transform="scale(0.996264)"/>
       <use xlink:href="#CMR17-30" transform="translate(45.690477 0) scale(0.996264)"/>
       <use xlink:href="#CMR17-30" transform="translate(91.380954 0) scale(0.996264)"/>
      </g>
     </g>
    </g>
    <g id="xtick_5">
     <g id="line2d_5">
      <g>
       <use xlink:href="#mfb1905043d" x="113.516967" y="70.098056" style="stroke: #000000; stroke-width: 0.8"/>
      </g>
     </g>
     <g id="text_5">
      <!-- 125 -->
      <g transform="translate(104.737481 85.400236) scale(0.12 -0.12)">
       <use xlink:href="#CMR17-31" transform="scale(0.996264)"/>
       <use xlink:href="#CMR17-32" transform="translate(45.690477 0) scale(0.996264)"/>
       <use xlink:href="#CMR17-35" transform="translate(91.380954 0) scale(0.996264)"/>
      </g>
     </g>
    </g>
    <g id="xtick_6">
     <g id="line2d_6">
      <g>
       <use xlink:href="#mfb1905043d" x="139.711483" y="70.098056" style="stroke: #000000; stroke-width: 0.8"/>
      </g>
     </g>
     <g id="text_6">
      <!-- 150 -->
      <g transform="translate(130.931997 85.400236) scale(0.12 -0.12)">
       <use xlink:href="#CMR17-31" transform="scale(0.996264)"/>
       <use xlink:href="#CMR17-35" transform="translate(45.690477 0) scale(0.996264)"/>
       <use xlink:href="#CMR17-30" transform="translate(91.380954 0) scale(0.996264)"/>
      </g>
     </g>
    </g>
    <g id="xtick_7">
     <g id="line2d_7">
      <g>
       <use xlink:href="#mfb1905043d" x="165.905999" y="70.098056" style="stroke: #000000; stroke-width: 0.8"/>
      </g>
     </g>
     <g id="text_7">
      <!-- 175 -->
      <g transform="translate(157.126513 85.400236) scale(0.12 -0.12)">
       <use xlink:href="#CMR17-31" transform="scale(0.996264)"/>
       <use xlink:href="#CMR17-37" transform="translate(45.690477 0) scale(0.996264)"/>
       <use xlink:href="#CMR17-35" transform="translate(91.380954 0) scale(0.996264)"/>
      </g>
     </g>
    </g>
    <g id="xtick_8">
     <g id="line2d_8">
      <g>
       <use xlink:href="#mfb1905043d" x="192.100515" y="70.098056" style="stroke: #000000; stroke-width: 0.8"/>
      </g>
     </g>
     <g id="text_8">
      <!-- 200 -->
      <g transform="translate(183.321029 85.400236) scale(0.12 -0.12)">
       <use xlink:href="#CMR17-32" transform="scale(0.996264)"/>
       <use xlink:href="#CMR17-30" transform="translate(45.690477 0) scale(0.996264)"/>
       <use xlink:href="#CMR17-30" transform="translate(91.380954 0) scale(0.996264)"/>
      </g>
     </g>
    </g>
    <g id="text_9">
     <!-- RTT [ms] -->
     <g transform="translate(73.13744 100.691208) scale(0.12 -0.12)">
      <defs>
       <path id="CMR17-52" d="M 2509 2146 
C 3117 2268 3629 2676 3629 3186 
C 3629 3785 2950 4326 2054 4326 
L 333 4326 
L 333 4160 
C 774 4160 845 4160 845 3873 
L 845 415 
C 845 128 774 128 333 128 
L 333 -26 
C 518 -26 851 -26 1050 -26 
C 1248 -26 1581 -26 1766 -26 
L 1766 128 
C 1325 128 1254 128 1254 417 
L 1254 2112 
L 2003 2112 
C 2368 2112 2573 1964 2662 1881 
C 2918 1632 2918 1459 2918 1024 
C 2918 595 2918 377 3110 160 
C 3354 -102 3680 -128 3821 -128 
C 4294 -128 4365 396 4365 503 
C 4365 540 4365 585 4307 585 
C 4256 585 4250 547 4250 522 
C 4218 112 4032 -26 3834 -26 
C 3482 -26 3443 375 3405 764 
C 3386 898 3373 993 3360 1133 
C 3322 1452 3270 1917 2509 2146 
z
M 1984 2214 
L 1254 2214 
L 1254 3913 
C 1254 4129 1267 4160 1523 4160 
L 1990 4160 
C 2522 4160 3142 3977 3142 3190 
C 3142 2372 2464 2214 1984 2214 
z
" transform="scale(0.015625)"/>
       <path id="CMR17-54" d="M 3981 4326 
L 288 4326 
L 179 2918 
L 294 2918 
C 378 3976 467 4160 1453 4160 
C 1568 4160 1754 4160 1805 4154 
C 1926 4135 1926 4058 1926 3912 
L 1926 459 
C 1926 230 1907 160 1376 160 
L 1197 160 
L 1197 0 
C 1504 0 1824 0 2138 0 
C 2451 0 2771 0 3078 0 
L 3078 160 
L 2899 160 
C 2368 160 2349 230 2349 459 
L 2349 3912 
C 2349 4052 2349 4129 2464 4154 
C 2515 4160 2701 4160 2816 4160 
C 3795 4160 3891 3976 3974 2918 
L 4090 2918 
L 3981 4326 
z
" transform="scale(0.015625)"/>
       <path id="CMR17-5b" d="M 1504 -1600 
L 1504 -1377 
L 902 -1377 
L 902 4544 
L 1504 4544 
L 1504 4767 
L 678 4767 
L 678 -1600 
L 1504 -1600 
z
" transform="scale(0.015625)"/>
       <path id="CMR17-6d" d="M 4326 1933 
C 4326 2252 4269 2790 3507 2790 
C 3072 2790 2771 2496 2656 2151 
L 2650 2151 
C 2573 2676 2195 2790 1837 2790 
C 1331 2790 1069 2400 973 2144 
L 966 2144 
L 966 2790 
L 211 2720 
L 211 2554 
C 589 2554 646 2515 646 2208 
L 646 428 
C 646 184 621 153 211 153 
L 211 -13 
C 365 0 646 0 813 0 
C 979 0 1267 0 1421 -13 
L 1421 153 
C 1011 153 986 178 986 428 
L 986 1658 
C 986 2247 1344 2688 1792 2688 
C 2266 2688 2317 2266 2317 1958 
L 2317 428 
C 2317 184 2291 153 1882 153 
L 1882 -13 
C 2035 0 2317 0 2483 0 
C 2650 0 2938 0 3091 -13 
L 3091 153 
C 2682 153 2656 178 2656 428 
L 2656 1658 
C 2656 2247 3014 2688 3462 2688 
C 3936 2688 3987 2266 3987 1958 
L 3987 428 
C 3987 184 3962 153 3552 153 
L 3552 -13 
C 3706 0 3987 0 4154 0 
C 4320 0 4608 0 4762 -13 
L 4762 153 
C 4352 153 4326 178 4326 428 
L 4326 1933 
z
" transform="scale(0.015625)"/>
       <path id="CMR17-73" d="M 1978 2697 
C 1978 2813 1971 2819 1933 2819 
C 1907 2819 1901 2813 1824 2717 
C 1805 2691 1747 2626 1728 2601 
C 1523 2819 1235 2819 1126 2819 
C 416 2819 160 2447 160 2076 
C 160 1498 813 1365 998 1325 
C 1402 1243 1542 1217 1677 1101 
C 1760 1025 1901 884 1901 654 
C 1901 384 1747 38 1158 38 
C 602 38 403 460 288 1021 
C 269 1110 269 1117 218 1117 
C 166 1117 160 1110 160 983 
L 160 63 
C 160 -51 166 -58 205 -58 
C 237 -58 243 -51 275 0 
C 314 57 410 211 448 276 
C 576 103 800 -64 1158 -64 
C 1792 -64 2131 283 2131 784 
C 2131 1112 1958 1285 1875 1362 
C 1683 1561 1459 1606 1190 1657 
C 838 1735 390 1825 390 2217 
C 390 2383 480 2737 1126 2737 
C 1811 2737 1850 2094 1862 1888 
C 1869 1856 1901 1849 1920 1849 
C 1978 1849 1978 1869 1978 1978 
L 1978 2697 
z
" transform="scale(0.015625)"/>
       <path id="CMR17-5d" d="M 915 4767 
L 90 4767 
L 90 4544 
L 691 4544 
L 691 -1377 
L 90 -1377 
L 90 -1600 
L 915 -1600 
L 915 4767 
z
" transform="scale(0.015625)"/>
      </defs>
      <use xlink:href="#CMR17-52" transform="scale(0.996264)"/>
      <use xlink:href="#CMR17-54" transform="translate(59.983847 0) scale(0.996264)"/>
      <use xlink:href="#CMR17-54" transform="translate(126.493727 0) scale(0.996264)"/>
      <use xlink:href="#CMR17-5b" transform="translate(223.079574 0) scale(0.996264)"/>
      <use xlink:href="#CMR17-6d" transform="translate(247.950633 0) scale(0.996264)"/>
      <use xlink:href="#CMR17-73" transform="translate(324.870222 0) scale(0.996264)"/>
      <use xlink:href="#CMR17-5d" transform="translate(360.67156 0) scale(0.996264)"/>
     </g>
    </g>
   </g>
   <g id="matplotlib.axis_2">
    <g id="ytick_1">
     <g id="line2d_9">
      <path d="M 3.5 66.911781 
L 192.100515 66.911781 
" clip-path="url(#p0df9fe03c3)" style="fill: none; stroke: #b0b0b0; stroke-opacity: 0.7; stroke-width: 0.5; stroke-linecap: square"/>
     </g>
     <g id="line2d_10">
      <defs>
       <path id="maab7c09d6d" d="M 0 0 
L -3.5 0 
" style="stroke: #000000; stroke-width: 0.8"/>
      </defs>
      <g>
       <use xlink:href="#maab7c09d6d" x="3.5" y="66.911781" style="stroke: #000000; stroke-width: 0.8"/>
      </g>
     </g>
    </g>
    <g id="ytick_2">
     <g id="line2d_11">
      <path d="M 3.5 50.980405 
L 192.100515 50.980405 
" clip-path="url(#p0df9fe03c3)" style="fill: none; stroke: #b0b0b0; stroke-opacity: 0.7; stroke-width: 0.5; stroke-linecap: square"/>
     </g>
     <g id="line2d_12">
      <g>
       <use xlink:href="#maab7c09d6d" x="3.5" y="50.980405" style="stroke: #000000; stroke-width: 0.8"/>
      </g>
     </g>
    </g>
    <g id="ytick_3">
     <g id="line2d_13">
      <path d="M 3.5 35.049028 
L 192.100515 35.049028 
" clip-path="url(#p0df9fe03c3)" style="fill: none; stroke: #b0b0b0; stroke-opacity: 0.7; stroke-width: 0.5; stroke-linecap: square"/>
     </g>
     <g id="line2d_14">
      <g>
       <use xlink:href="#maab7c09d6d" x="3.5" y="35.049028" style="stroke: #000000; stroke-width: 0.8"/>
      </g>
     </g>
    </g>
    <g id="ytick_4">
     <g id="line2d_15">
      <path d="M 3.5 19.117652 
L 192.100515 19.117652 
" clip-path="url(#p0df9fe03c3)" style="fill: none; stroke: #b0b0b0; stroke-opacity: 0.7; stroke-width: 0.5; stroke-linecap: square"/>
     </g>
     <g id="line2d_16">
      <g>
       <use xlink:href="#maab7c09d6d" x="3.5" y="19.117652" style="stroke: #000000; stroke-width: 0.8"/>
      </g>
     </g>
    </g>
    <g id="ytick_5">
     <g id="line2d_17">
      <path d="M 3.5 3.186275 
L 192.100515 3.186275 
" clip-path="url(#p0df9fe03c3)" style="fill: none; stroke: #b0b0b0; stroke-opacity: 0.7; stroke-width: 0.5; stroke-linecap: square"/>
     </g>
     <g id="line2d_18">
      <g>
       <use xlink:href="#maab7c09d6d" x="3.5" y="3.186275" style="stroke: #000000; stroke-width: 0.8"/>
      </g>
     </g>
    </g>
   </g>
   <g id="line2d_19">
    <path d="M 3.496857 66.544552 
L 3.619447 66.524702 
L 5.098913 66.367467 
L 7.091792 66.057176 
L 7.743512 65.780318 
L 8.563924 65.247496 
L 9.021804 64.634751 
L 9.381193 64.035587 
L 9.5195 63.843353 
L 10.986393 61.165662 
L 11.174993 60.947832 
L 11.668498 60.299565 
L 12.242682 59.402126 
L 12.685893 58.932511 
L 13.449725 57.988058 
L 13.57965 57.841271 
L 13.976759 57.316807 
L 14.092014 57.114126 
L 14.278519 56.825775 
L 15.934013 53.280942 
L 16.195958 52.157314 
L 17.568551 49.172989 
L 17.988711 48.266147 
L 19.415788 44.411023 
L 20.02874 42.674651 
L 20.194289 42.097949 
L 20.495002 41.067304 
L 20.705606 40.552766 
L 24.429418 30.978164 
L 24.628497 30.14341 
L 25.318984 28.911128 
L 28.428797 22.461893 
L 28.813332 21.384235 
L 29.559352 19.822857 
L 29.764717 19.316154 
L 30.263461 18.370134 
L 30.359857 18.198273 
L 30.621802 17.764702 
L 31.153027 16.770623 
L 31.956674 15.415062 
L 32.086599 15.227007 
L 32.611537 14.427251 
L 32.702694 14.258002 
L 33.324028 13.266013 
L 34.642136 12.108431 
L 34.958566 11.826871 
L 35.704586 11.2392 
L 35.939289 11.066816 
L 36.211711 10.857344 
L 36.426507 10.710557 
L 36.617203 10.570561 
L 36.838284 10.413848 
L 37.396751 10.01162 
L 37.757188 9.807372 
L 38.199351 9.522678 
L 38.655136 9.254177 
L 38.939084 9.127762 
L 39.404299 8.897395 
L 40.911008 8.268456 
L 41.171905 8.131072 
L 41.975553 7.852124 
L 42.485822 7.698546 
L 43.014951 7.55855 
L 44.296387 7.287437 
L 44.506991 7.234155 
L 56.016861 5.431441 
L 57.38631 5.298758 
L 58.130235 5.223013 
L 60.137782 5.066823 
L 60.801027 5.011974 
L 63.107193 4.840635 
L 64.622283 4.763324 
L 72.923849 4.460347 
L 90.828325 4.182966 
L 109.904219 3.855959 
L 121.436093 3.691934 
L 192.489241 3.39627 
L 192.489241 3.39627 
" clip-path="url(#p0df9fe03c3)" style="fill: none; stroke: #1f77b4; stroke-width: 1.5; stroke-linecap: square"/>
   </g>
   <g id="line2d_20">
    <path d="M 11.166611 66.910402 
L 15.064355 66.790465 
L 15.958112 66.521639 
L 17.195541 65.575923 
L 18.167881 64.257988 
L 18.281041 63.801673 
L 18.338669 63.659678 
L 18.55556 62.969002 
L 18.611092 62.712584 
L 18.972577 60.411711 
L 19.563525 56.62747 
L 19.600197 56.397245 
L 19.991019 53.751723 
L 20.428992 49.883388 
L 20.667886 48.877015 
L 20.763234 48.449651 
L 20.98222 47.454306 
L 21.033561 47.20478 
L 21.953513 41.884786 
L 21.99228 41.731762 
L 22.503597 39.106919 
L 22.986624 36.752281 
L 23.227614 35.561176 
L 23.589098 33.591165 
L 23.710641 32.963905 
L 23.967347 31.62529 
L 24.372838 28.901188 
L 24.736418 26.237745 
L 24.941783 25.587049 
L 25.502346 23.844506 
L 25.616554 23.381298 
L 26.765969 20.045101 
L 28.041118 15.464033 
L 28.100842 15.317902 
L 29.123475 12.931556 
L 29.229301 12.781289 
L 29.734332 12.018927 
L 29.828632 11.893475 
L 30.051809 11.614999 
L 30.258222 11.376502 
L 30.453109 11.195906 
L 30.741249 10.89813 
L 30.856505 10.745106 
L 31.355248 10.272248 
L 31.59519 10.046159 
L 31.95877 9.75114 
L 32.833667 9.078386 
L 32.957305 8.939148 
L 33.808103 8.666186 
L 34.016611 8.572442 
L 34.995238 8.276044 
L 35.168122 8.231929 
L 35.502364 8.139563 
L 36.250479 7.930017 
L 36.423363 7.885902 
L 37.485813 7.60329 
L 39.823411 7.149733 
L 40.075926 7.112511 
L 48.856328 5.93657 
L 49.61073 5.805604 
L 49.924017 5.778032 
L 51.695814 5.613979 
L 51.805831 5.596058 
L 53.094601 5.455441 
L 57.25429 5.018427 
L 60.292854 4.813016 
L 61.347969 4.750979 
L 72.675525 4.286393 
L 79.565731 4.148534 
L 80.013133 4.137505 
L 87.387413 3.954152 
L 94.158172 3.776314 
L 119.013624 3.468887 
L 193.148295 3.325513 
L 193.148295 3.325513 
" clip-path="url(#p0df9fe03c3)" style="fill: none; stroke-dasharray: 1.5,2.475; stroke-dashoffset: 0; stroke: #ff7f0e; stroke-width: 1.5"/>
   </g>
   <g id="line2d_21">
    <path d="M 3.498952 66.177796 
L 3.615256 66.013032 
L 5.573558 63.25401 
L 6.117356 61.81987 
L 6.4034 60.849702 
L 6.780601 59.427966 
L 9.014469 50.721261 
L 9.686097 47.378986 
L 12.207057 34.419478 
L 13.976759 28.162563 
L 14.092014 27.595723 
L 14.678772 25.326484 
L 15.228856 23.290171 
L 15.512805 22.415603 
L 16.470477 19.495326 
L 18.254847 16.119471 
L 19.485989 14.683452 
L 21.498776 13.143061 
L 22.147352 12.792607 
L 22.603137 12.555797 
L 23.0453 12.336028 
L 23.363825 12.185046 
L 26.158256 10.971427 
L 26.681099 10.797266 
L 27.022675 10.688759 
L 29.12138 10.053508 
L 29.798246 9.888117 
L 30.60399 9.68 
L 32.082408 9.26765 
L 32.735175 9.077826 
L 33.754666 8.829991 
L 35.346245 8.528027 
L 35.600855 8.481667 
L 37.381035 8.170056 
L 39.545749 7.894279 
L 41.067127 7.722623 
L 41.556441 7.664987 
L 44.343537 7.443213 
L 47.418773 7.258526 
L 79.051271 6.201778 
L 95.553816 4.340253 
L 106.548178 4.013105 
L 116.757752 3.920636 
L 167.037602 3.493126 
L 168.111577 3.47383 
L 192.190624 3.311446 
L 192.190624 3.311446 
" clip-path="url(#p0df9fe03c3)" style="fill: none; stroke-dasharray: 5.55,2.4; stroke-dashoffset: 0; stroke: #2ca02c; stroke-width: 1.5"/>
   </g>
   <g id="line2d_22">
    <path d="M 6.797366 66.911322 
L 9.750011 66.779627 
L 10.546325 66.55111 
L 11.909487 65.833438 
L 12.162003 65.684305 
L 12.509866 65.494792 
L 13.84369 64.485738 
L 14.72697 63.564787 
L 15.920392 61.814658 
L 16.189671 61.06303 
L 16.459999 60.73815 
L 17.394619 59.327127 
L 17.794871 58.714995 
L 17.965659 58.520434 
L 18.29571 58.062023 
L 18.456021 57.825705 
L 19.565621 55.88377 
L 19.641061 55.730507 
L 20.164951 54.589758 
L 20.490811 53.755533 
L 20.575681 53.597223 
L 20.820862 53.142024 
L 21.494585 51.737883 
L 22.624092 49.530721 
L 22.806406 49.223737 
L 23.098737 48.683648 
L 23.269525 48.387218 
L 23.605863 47.714057 
L 24.311019 46.256228 
L 24.626401 45.373822 
L 25.06123 44.836027 
L 25.203728 44.653856 
L 25.423762 44.337236 
L 25.601885 44.034382 
L 25.896311 43.570924 
L 26.016806 43.397012 
L 26.811024 42.229648 
L 27.031058 41.891461 
L 27.251091 41.522989 
L 27.505702 41.15314 
L 29.138144 38.51464 
L 29.2534 38.376521 
L 29.527919 38.042005 
L 30.865935 36.100987 
L 31.323815 35.36496 
L 31.494603 35.068071 
L 32.033162 34.15125 
L 32.116985 34.011295 
L 33.28526 31.720159 
L 34.932371 29.386349 
L 35.047627 29.17894 
L 35.170218 29.00411 
L 35.980152 27.766539 
L 36.09436 27.521962 
L 36.745032 26.483999 
L 38.066283 24.392931 
L 38.108194 24.254352 
L 39.004047 22.907111 
L 39.123494 22.766238 
L 39.237702 22.574431 
L 39.596043 22.115102 
L 39.766831 21.863642 
L 41.219055 19.821672 
L 41.334311 19.596826 
L 42.266836 18.64972 
L 42.382092 18.494622 
L 43.27061 17.569082 
L 43.603804 17.208869 
L 43.848985 16.980352 
L 45.292826 15.56887 
L 45.546389 15.278405 
L 46.346894 14.806687 
L 47.153685 14.247325 
L 47.616804 13.923822 
L 47.890274 13.746699 
L 48.351298 13.423654 
L 48.682397 13.171735 
L 49.19057 12.828042 
L 50.100044 12.177824 
L 50.592501 11.956649 
L 51.095435 11.663431 
L 57.032161 9.184159 
L 57.509948 9.044204 
L 57.691215 8.98088 
L 57.982498 8.86708 
L 58.100897 8.81018 
L 65.025679 7.407416 
L 69.656869 6.842089 
L 71.675943 6.681943 
L 80.838784 6.219403 
L 93.245555 5.822481 
L 101.80697 5.463645 
L 106.011714 5.315889 
L 107.470225 5.26679 
L 111.146887 5.103891 
L 115.605194 4.878586 
L 116.183569 4.848301 
L 122.080478 4.552789 
L 129.146711 4.274255 
L 137.154898 4.10585 
L 142.227204 4.014535 
L 178.574714 3.556583 
L 192.139283 3.468021 
L 192.139283 3.468021 
" clip-path="url(#p0df9fe03c3)" style="fill: none; stroke-dasharray: 9.6,2.4,1.5,2.4; stroke-dashoffset: 0; stroke: #d62728; stroke-width: 1.5"/>
   </g>
   <g id="line2d_23">
    <path d="M 7.06455 66.91115 
L 10.562041 66.796977 
L 11.075454 66.710559 
L 15.830283 65.643263 
L 16.749186 65.216219 
L 17.188206 65.043383 
L 17.843069 64.777189 
L 18.378485 64.557044 
L 19.215662 63.926254 
L 19.328822 63.742064 
L 19.563525 63.473348 
L 19.741648 63.246263 
L 20.048647 62.79588 
L 20.129326 62.656475 
L 20.315831 62.258447 
L 20.652169 61.879343 
L 20.798858 61.720384 
L 21.084902 61.432113 
L 21.311223 61.192413 
L 21.425431 61.03787 
L 21.648608 60.777984 
L 21.787963 60.595686 
L 22.0541 60.306154 
L 24.252343 57.485894 
L 25.036083 56.298117 
L 25.33994 55.986507 
L 25.912028 55.182251 
L 26.103772 54.938135 
L 26.411819 54.609494 
L 26.654904 54.240482 
L 27.597907 52.949887 
L 27.711067 52.747404 
L 27.934244 52.484995 
L 28.211906 52.104629 
L 28.645688 51.449239 
L 28.756752 51.252433 
L 28.993551 50.980562 
L 29.22511 50.712477 
L 30.740201 48.732429 
L 30.856505 48.478851 
L 31.147788 48.066946 
L 31.487269 47.484727 
L 31.93048 46.706333 
L 32.272056 46.123483 
L 32.466943 45.727978 
L 32.564387 45.540003 
L 32.83681 44.823426 
L 32.951018 44.504878 
L 33.29469 44.113157 
L 33.884591 43.455244 
L 33.998799 43.258438 
L 34.096242 43.127233 
L 34.588699 42.466166 
L 34.834928 42.188619 
L 36.95354 39.46487 
L 37.229106 38.98547 
L 37.447045 38.725585 
L 37.821103 38.278986 
L 38.311464 37.516992 
L 38.525211 37.158704 
L 38.798682 36.866648 
L 38.952706 36.671103 
L 39.367627 36.150702 
L 41.106943 33.883014 
L 41.338502 33.385952 
L 45.07384 28.714956 
L 45.967597 27.329111 
L 46.234781 27.038948 
L 46.670658 26.480699 
L 46.82992 26.255508 
L 47.081388 25.938851 
L 49.041785 23.405601 
L 49.301635 23.06939 
L 49.598157 22.54205 
L 49.774184 22.234225 
L 50.028795 22.012818 
L 50.293883 21.761763 
L 50.614504 21.43943 
L 51.05562 20.87172 
L 51.489401 20.481892 
L 51.805831 20.138742 
L 52.167315 19.792439 
L 52.508892 19.403872 
L 52.701683 19.230405 
L 54.13819 17.674248 
L 54.423187 17.440856 
L 55.333708 16.51738 
L 55.923609 16.032934 
L 56.141547 15.867667 
L 57.300392 14.970053 
L 57.546621 14.780186 
L 58.195197 14.172105 
L 58.60907 13.931774 
L 61.926344 12.062114 
L 62.16419 11.922079 
L 62.350695 11.813583 
L 62.687033 11.682379 
L 62.911258 11.584606 
L 64.268134 11.071144 
L 64.387581 11.018788 
L 64.993198 10.815674 
L 65.503467 10.637791 
L 65.961347 10.487033 
L 68.977908 9.69413 
L 69.890524 9.472723 
L 70.215336 9.404598 
L 71.167769 9.236177 
L 73.425736 8.895551 
L 75.063417 8.674774 
L 75.598833 8.628727 
L 80.933085 8.280531 
L 86.358493 8.081202 
L 101.587984 7.864841 
L 120.877626 7.66488 
L 121.145858 7.659834 
L 125.780191 7.534938 
L 129.917877 7.374087 
L 130.331751 7.358948 
L 133.10313 7.206297 
L 133.90573 7.150787 
L 136.17208 7.012644 
L 140.975106 6.639217 
L 141.222382 6.619662 
L 142.251303 6.525675 
L 144.500888 6.350315 
L 170.925916 4.693231 
L 176.604887 4.527334 
L 190.084585 4.336204 
L 192.141378 4.322327 
L 192.141378 4.322327 
" clip-path="url(#p0df9fe03c3)" style="fill: none; stroke: #9467bd; stroke-width: 1.5; stroke-linecap: square"/>
   </g>
   <g id="patch_3">
    <path d="M 3.5 70.098056 
L 3.5 -0 
" style="fill: none; stroke: #000000; stroke-width: 0.8; stroke-linejoin: miter; stroke-linecap: square"/>
   </g>
   <g id="patch_4">
    <path d="M 192.100515 70.098056 
L 192.100515 -0 
" style="fill: none; stroke: #000000; stroke-width: 0.8; stroke-linejoin: miter; stroke-linecap: square"/>
   </g>
   <g id="patch_5">
    <path d="M 3.5 70.098056 
L 192.100515 70.098056 
" style="fill: none; stroke: #000000; stroke-width: 0.8; stroke-linejoin: miter; stroke-linecap: square"/>
   </g>
   <g id="patch_6">
    <path d="M 3.5 -0 
L 192.100515 -0 
" style="fill: none; stroke: #000000; stroke-width: 0.8; stroke-linejoin: miter; stroke-linecap: square"/>
   </g>
   <g id="legend_1">
    <g id="patch_7">
     <path d="M 88.694727 65.100056 
L 187.102515 65.100056 
L 187.102515 29.102927 
L 88.694727 29.102927 
z
" style="fill: #ffffff; opacity: 0.8; stroke: #000000; stroke-linejoin: miter"/>
    </g>
    <g id="line2d_24">
     <path d="M 92.693127 36.599927 
L 97.691127 36.599927 
L 102.689127 36.599927 
" style="fill: none; stroke: #1f77b4; stroke-width: 1.5; stroke-linecap: square"/>
    </g>
    <g id="text_10">
     <!-- Berlin -->
     <g transform="translate(105.687927 40.098527) scale(0.09996 -0.09996)">
      <defs>
       <path id="CMR17-42" d="M 333 4352 
L 333 4186 
C 774 4186 845 4186 845 3900 
L 845 452 
C 845 166 774 166 333 166 
L 333 0 
L 2534 0 
C 3354 0 3885 583 3885 1164 
C 3885 1741 3360 2233 2675 2233 
C 3290 2356 3718 2771 3718 3264 
C 3718 3802 3194 4352 2368 4352 
L 333 4352 
z
M 1248 2304 
L 1248 3937 
C 1248 4155 1261 4186 1517 4186 
L 2336 4186 
C 2970 4186 3251 3674 3251 3277 
C 3251 2791 2861 2304 2170 2304 
L 1248 2304 
z
M 1517 166 
C 1261 166 1248 197 1248 413 
L 1248 2202 
L 2432 2202 
C 3091 2202 3411 1625 3411 1162 
C 3411 699 3046 166 2349 166 
L 1517 166 
z
" transform="scale(0.015625)"/>
       <path id="CMR17-65" d="M 2438 1472 
C 2464 1498 2464 1511 2464 1576 
C 2464 2238 2118 2816 1389 2816 
C 710 2816 173 2169 173 1383 
C 173 551 781 -64 1459 -64 
C 2176 -64 2458 607 2458 740 
C 2458 784 2419 784 2406 784 
C 2362 784 2355 771 2330 696 
C 2189 265 1837 51 1504 51 
C 1229 51 954 203 781 480 
C 582 803 582 1176 582 1472 
L 2438 1472 
z
M 589 1568 
C 634 2505 1126 2714 1382 2714 
C 1818 2714 2112 2297 2118 1568 
L 589 1568 
z
" transform="scale(0.015625)"/>
       <path id="CMR17-72" d="M 960 1497 
C 960 2112 1222 2688 1702 2688 
C 1747 2688 1792 2682 1837 2662 
C 1837 2662 1696 2617 1696 2452 
C 1696 2298 1818 2234 1914 2234 
C 1990 2234 2131 2279 2131 2458 
C 2131 2663 1926 2790 1709 2790 
C 1222 2790 1011 2317 947 2093 
L 941 2093 
L 941 2790 
L 198 2720 
L 198 2554 
C 576 2554 634 2515 634 2208 
L 634 428 
C 634 184 608 153 198 153 
L 198 -13 
C 352 0 646 0 813 0 
C 998 0 1325 0 1498 -13 
L 1498 153 
C 1037 153 960 153 960 440 
L 960 1497 
z
" transform="scale(0.015625)"/>
       <path id="CMR17-6c" d="M 979 4396 
L 218 4326 
L 218 4160 
C 595 4160 653 4122 653 3817 
L 653 426 
C 653 184 627 153 218 153 
L 218 -13 
C 371 0 653 0 813 0 
C 979 0 1261 0 1414 -13 
L 1414 153 
C 1005 153 979 178 979 426 
L 979 4396 
z
" transform="scale(0.015625)"/>
       <path id="CMR17-69" d="M 992 3909 
C 992 4049 877 4170 730 4170 
C 589 4170 467 4056 467 3909 
C 467 3769 582 3648 730 3648 
C 870 3648 992 3763 992 3909 
z
M 243 2706 
L 243 2541 
C 602 2541 653 2502 653 2197 
L 653 427 
C 653 184 627 153 218 153 
L 218 -13 
C 371 0 646 0 806 0 
C 960 0 1222 0 1370 -13 
L 1370 153 
C 992 153 979 191 979 420 
L 979 2776 
L 243 2706 
z
" transform="scale(0.015625)"/>
       <path id="CMR17-6e" d="M 2656 1933 
C 2656 2259 2592 2790 1837 2790 
C 1331 2790 1069 2400 973 2144 
L 966 2144 
L 966 2790 
L 211 2720 
L 211 2554 
C 589 2554 646 2515 646 2208 
L 646 428 
C 646 184 621 153 211 153 
L 211 -13 
C 365 0 646 0 813 0 
C 979 0 1267 0 1421 -13 
L 1421 153 
C 1011 153 986 178 986 428 
L 986 1658 
C 986 2247 1344 2688 1792 2688 
C 2266 2688 2317 2266 2317 1958 
L 2317 428 
C 2317 184 2291 153 1882 153 
L 1882 -13 
C 2035 0 2317 0 2483 0 
C 2650 0 2938 0 3091 -13 
L 3091 153 
C 2682 153 2656 178 2656 428 
L 2656 1933 
z
" transform="scale(0.015625)"/>
      </defs>
      <use xlink:href="#CMR17-42" transform="scale(0.996264)"/>
      <use xlink:href="#CMR17-65" transform="translate(65.188754 0) scale(0.996264)"/>
      <use xlink:href="#CMR17-72" transform="translate(105.674415 0) scale(0.996264)"/>
      <use xlink:href="#CMR17-6c" transform="translate(140.955183 0) scale(0.996264)"/>
      <use xlink:href="#CMR17-69" transform="translate(165.826241 0) scale(0.996264)"/>
      <use xlink:href="#CMR17-6e" transform="translate(190.6973 0) scale(0.996264)"/>
     </g>
    </g>
    <g id="line2d_25">
     <path d="M 92.693127 46.13329 
L 97.691127 46.13329 
L 102.689127 46.13329 
" style="fill: none; stroke-dasharray: 1.5,2.475; stroke-dashoffset: 0; stroke: #ff7f0e; stroke-width: 1.5"/>
    </g>
    <g id="text_11">
     <!-- Dublin -->
     <g transform="translate(105.687927 49.63189) scale(0.09996 -0.09996)">
      <defs>
       <path id="CMR17-44" d="M 333 4352 
L 333 4186 
C 774 4186 845 4186 845 3900 
L 845 452 
C 845 166 774 166 333 166 
L 333 0 
L 2368 0 
C 3398 0 4224 943 4224 2141 
C 4224 3346 3411 4352 2368 4352 
L 333 4352 
z
M 1523 166 
C 1267 166 1254 197 1254 414 
L 1254 3938 
C 1254 4155 1267 4186 1523 4186 
L 2240 4186 
C 2771 4186 3750 3874 3750 2141 
C 3750 1242 3488 879 3366 707 
C 3213 510 2848 166 2240 166 
L 1523 166 
z
" transform="scale(0.015625)"/>
       <path id="CMR17-75" d="M 1882 2693 
L 1882 2528 
C 2259 2528 2317 2489 2317 2186 
L 2317 1032 
C 2317 500 2029 38 1555 38 
C 1030 38 986 348 986 678 
L 986 2763 
L 211 2693 
L 211 2528 
C 467 2528 640 2528 646 2274 
L 646 1058 
C 646 633 646 361 813 183 
C 896 101 1056 -64 1517 -64 
C 2061 -64 2272 377 2323 506 
L 2330 506 
L 2330 -63 
L 3091 -63 
L 3091 128 
C 2714 128 2656 166 2656 473 
L 2656 2763 
L 1882 2693 
z
" transform="scale(0.015625)"/>
       <path id="CMR17-62" d="M 960 4396 
L 198 4326 
L 198 4160 
C 576 4160 634 4122 634 3817 
L 634 -13 
L 749 -13 
L 934 441 
C 1120 141 1395 -64 1766 -64 
C 2406 -64 3053 500 3053 1370 
C 3053 2188 2477 2790 1830 2790 
C 1434 2790 1152 2579 960 2330 
L 960 4396 
z
M 973 2004 
C 973 2118 973 2138 1062 2272 
C 1312 2657 1670 2688 1792 2688 
C 1984 2688 2643 2585 2643 1376 
C 2643 108 1888 38 1734 38 
C 1536 38 1248 114 1043 486 
C 973 608 973 621 973 735 
L 973 2004 
z
" transform="scale(0.015625)"/>
      </defs>
      <use xlink:href="#CMR17-44" transform="scale(0.996264)"/>
      <use xlink:href="#CMR17-75" transform="translate(70.393556 0) scale(0.996264)"/>
      <use xlink:href="#CMR17-62" transform="translate(121.288926 0) scale(0.996264)"/>
      <use xlink:href="#CMR17-6c" transform="translate(172.184295 0) scale(0.996264)"/>
      <use xlink:href="#CMR17-69" transform="translate(197.055354 0) scale(0.996264)"/>
      <use xlink:href="#CMR17-6e" transform="translate(221.926412 0) scale(0.996264)"/>
     </g>
    </g>
    <g id="line2d_26">
     <path d="M 92.693127 55.666653 
L 97.691127 55.666653 
L 102.689127 55.666653 
" style="fill: none; stroke-dasharray: 5.55,2.4; stroke-dashoffset: 0; stroke: #2ca02c; stroke-width: 1.5"/>
    </g>
    <g id="text_12">
     <!-- London -->
     <g transform="translate(105.687927 59.165253) scale(0.09996 -0.09996)">
      <defs>
       <path id="CMR17-4c" d="M 3469 1615 
L 3354 1615 
C 3302 983 3219 166 2125 166 
L 1530 166 
C 1274 166 1261 197 1261 414 
L 1261 3898 
C 1261 4129 1274 4192 1760 4192 
L 1901 4192 
L 1901 4352 
C 1638 4352 1331 4352 1069 4352 
C 870 4352 512 4352 326 4352 
L 326 4192 
C 768 4192 838 4192 838 3905 
L 838 452 
C 838 166 768 166 326 166 
L 326 0 
L 3315 0 
L 3469 1615 
z
" transform="scale(0.015625)"/>
       <path id="CMR17-6f" d="M 2758 1356 
C 2758 2176 2163 2816 1466 2816 
C 768 2816 173 2176 173 1356 
C 173 551 768 -64 1466 -64 
C 2163 -64 2758 551 2758 1356 
z
M 1466 51 
C 1165 51 909 230 762 480 
C 602 767 582 1126 582 1408 
C 582 1677 595 2010 762 2298 
C 890 2509 1139 2714 1466 2714 
C 1754 2714 1997 2554 2150 2330 
C 2349 2029 2349 1607 2349 1408 
C 2349 1158 2336 775 2163 467 
C 1984 173 1709 51 1466 51 
z
" transform="scale(0.015625)"/>
       <path id="CMR17-64" d="M 1869 4326 
L 1869 4160 
C 2246 4160 2304 4122 2304 3820 
L 2304 2345 
C 2278 2377 2016 2790 1498 2790 
C 845 2790 211 2208 211 1364 
C 211 525 806 -64 1434 -64 
C 1978 -64 2259 337 2291 380 
L 2291 -63 
L 3066 -63 
L 3066 128 
C 2688 128 2630 166 2630 473 
L 2630 4396 
L 1869 4326 
z
M 2291 755 
C 2291 563 2176 390 2029 262 
C 1811 70 1594 38 1472 38 
C 1286 38 621 134 621 1356 
C 621 2612 1363 2688 1530 2688 
C 1824 2688 2061 2522 2208 2291 
C 2291 2157 2291 2138 2291 2023 
L 2291 755 
z
" transform="scale(0.015625)"/>
      </defs>
      <use xlink:href="#CMR17-4c" transform="scale(0.996264)"/>
      <use xlink:href="#CMR17-6f" transform="translate(57.381408 0) scale(0.996264)"/>
      <use xlink:href="#CMR17-6e" transform="translate(103.071885 0) scale(0.996264)"/>
      <use xlink:href="#CMR17-64" transform="translate(153.967255 0) scale(0.996264)"/>
      <use xlink:href="#CMR17-6f" transform="translate(204.862625 0) scale(0.996264)"/>
      <use xlink:href="#CMR17-6e" transform="translate(250.553102 0) scale(0.996264)"/>
     </g>
    </g>
    <g id="line2d_27">
     <path d="M 144.376057 36.599927 
L 149.374057 36.599927 
L 154.372057 36.599927 
" style="fill: none; stroke-dasharray: 9.6,2.4,1.5,2.4; stroke-dashoffset: 0; stroke: #d62728; stroke-width: 1.5"/>
    </g>
    <g id="text_13">
     <!-- Paris -->
     <g transform="translate(157.370857 40.098527) scale(0.09996 -0.09996)">
      <defs>
       <path id="CMR17-50" d="M 1267 2042 
L 2291 2042 
C 3117 2042 3718 2578 3718 3184 
C 3718 3791 3130 4352 2291 4352 
L 333 4352 
L 333 4186 
C 774 4186 845 4186 845 3899 
L 845 446 
C 845 160 774 160 333 160 
L 333 0 
C 518 0 858 0 1056 0 
C 1254 0 1594 0 1779 0 
L 1779 160 
C 1338 160 1267 160 1267 446 
L 1267 2042 
z
M 1254 2176 
L 1254 3938 
C 1254 4155 1267 4186 1523 4186 
L 2170 4186 
C 2995 4186 3232 3714 3232 3184 
C 3232 2604 2950 2176 2170 2176 
L 1254 2176 
z
" transform="scale(0.015625)"/>
       <path id="CMR17-61" d="M 2304 1653 
C 2304 2072 2304 2294 2035 2543 
C 1798 2752 1523 2816 1306 2816 
C 800 2816 435 2407 435 1971 
C 435 1728 627 1728 666 1728 
C 749 1728 896 1778 896 1954 
C 896 2112 774 2181 666 2181 
C 640 2181 608 2174 589 2168 
C 723 2592 1069 2714 1293 2714 
C 1613 2714 1965 2429 1965 1885 
L 1965 1600 
C 1587 1600 1133 1549 774 1357 
C 371 1133 256 813 256 570 
C 256 77 832 -64 1171 -64 
C 1523 -64 1850 139 1990 511 
C 2003 233 2182 -18 2464 -18 
C 2598 -18 2938 70 2938 567 
L 2938 920 
L 2822 920 
L 2822 562 
C 2822 178 2650 128 2566 128 
C 2304 128 2304 458 2304 738 
L 2304 1653 
z
M 1965 870 
C 1965 317 1568 38 1216 38 
C 896 38 646 275 646 570 
C 646 761 730 1100 1101 1305 
C 1408 1478 1760 1504 1965 1504 
L 1965 870 
z
" transform="scale(0.015625)"/>
      </defs>
      <use xlink:href="#CMR17-50" transform="scale(0.996264)"/>
      <use xlink:href="#CMR17-61" transform="translate(59.983847 0) scale(0.996264)"/>
      <use xlink:href="#CMR17-72" transform="translate(105.674324 0) scale(0.996264)"/>
      <use xlink:href="#CMR17-69" transform="translate(140.955092 0) scale(0.996264)"/>
      <use xlink:href="#CMR17-73" transform="translate(165.82615 0) scale(0.996264)"/>
     </g>
    </g>
    <g id="line2d_28">
     <path d="M 144.376057 46.13329 
L 149.374057 46.13329 
L 154.372057 46.13329 
" style="fill: none; stroke: #9467bd; stroke-width: 1.5; stroke-linecap: square"/>
    </g>
    <g id="text_14">
     <!-- Rome -->
     <g transform="translate(157.370857 49.63189) scale(0.09996 -0.09996)">
      <use xlink:href="#CMR17-52" transform="scale(0.996264)"/>
      <use xlink:href="#CMR17-6f" transform="translate(67.791102 0) scale(0.996264)"/>
      <use xlink:href="#CMR17-6d" transform="translate(113.481579 0) scale(0.996264)"/>
      <use xlink:href="#CMR17-65" transform="translate(190.401169 0) scale(0.996264)"/>
     </g>
    </g>
   </g>
  </g>
 </g>
 <defs>
  <clipPath id="p0df9fe03c3">
   <rect x="3.5" y="-0" width="188.600515" height="70.098056"/>
  </clipPath>
 </defs>
</svg>
