<?xml version="1.0" encoding="utf-8" standalone="no"?>
<!DOCTYPE svg PUBLIC "-//W3C//DTD SVG 1.1//EN"
  "http://www.w3.org/Graphics/SVG/1.1/DTD/svg11.dtd">
<svg xmlns:xlink="http://www.w3.org/1999/xlink" width="200.88pt" height="103.68pt" viewBox="0 0 200.88 103.68" xmlns="http://www.w3.org/2000/svg" version="1.1">
 <metadata>
  <rdf:RDF xmlns:dc="http://purl.org/dc/elements/1.1/" xmlns:cc="http://creativecommons.org/ns#" xmlns:rdf="http://www.w3.org/1999/02/22-rdf-syntax-ns#">
   <cc:Work>
    <dc:type rdf:resource="http://purl.org/dc/dcmitype/StillImage"/>
    <dc:date>2023-10-12T13:59:51.004249</dc:date>
    <dc:format>image/svg+xml</dc:format>
    <dc:creator>
     <cc:Agent>
      <dc:title>Matplotlib v3.7.0, https://matplotlib.org/</dc:title>
     </cc:Agent>
    </dc:creator>
   </cc:Work>
  </rdf:RDF>
 </metadata>
 <defs>
  <style type="text/css">*{stroke-linejoin: round; stroke-linecap: butt}</style>
 </defs>
 <g id="figure_1">
  <g id="patch_1">
   <path d="M 0 103.68 
L 200.88 103.68 
L 200.88 -0 
L 0 -0 
z
" style="fill: #ffffff"/>
  </g>
  <g id="axes_1">
   <g id="patch_2">
    <path d="M 3.5 70.098056 
L 192.100515 70.098056 
L 192.100515 -0 
L 3.5 -0 
z
" style="fill: #ffffff"/>
   </g>
   <g id="matplotlib.axis_1">
    <g id="xtick_1">
     <g id="line2d_1">
      <defs>
       <path id="m232fa87a9f" d="M 0 0 
L 0 3.5 
" style="stroke: #000000; stroke-width: 0.8"/>
      </defs>
      <g>
       <use xlink:href="#m232fa87a9f" x="34.933419" y="70.098056" style="stroke: #000000; stroke-width: 0.8"/>
      </g>
     </g>
     <g id="text_1">
      <!-- 50 -->
      <g transform="translate(29.080429 85.400236) scale(0.12 -0.12)">
       <defs>
        <path id="CMR17-35" d="M 730 3692 
C 794 3666 1056 3584 1325 3584 
C 1920 3584 2246 3911 2432 4100 
C 2432 4157 2432 4192 2394 4192 
C 2387 4192 2374 4192 2323 4163 
C 2099 4058 1837 3973 1517 3973 
C 1325 3973 1037 3999 723 4139 
C 653 4171 640 4171 634 4171 
C 602 4171 595 4164 595 4037 
L 595 2203 
C 595 2089 595 2057 659 2057 
C 691 2057 704 2070 736 2114 
C 941 2401 1222 2522 1542 2522 
C 1766 2522 2246 2382 2246 1289 
C 2246 1085 2246 715 2054 421 
C 1894 159 1645 25 1370 25 
C 947 25 518 320 403 814 
C 429 807 480 795 506 795 
C 589 795 749 840 749 1038 
C 749 1210 627 1280 506 1280 
C 358 1280 262 1190 262 1011 
C 262 454 704 -128 1382 -128 
C 2042 -128 2669 440 2669 1264 
C 2669 2030 2170 2624 1549 2624 
C 1222 2624 947 2503 730 2274 
L 730 3692 
z
" transform="scale(0.015625)"/>
        <path id="CMR17-30" d="M 2688 2025 
C 2688 2416 2682 3080 2413 3591 
C 2176 4039 1798 4198 1466 4198 
C 1158 4198 768 4058 525 3597 
C 269 3118 243 2524 243 2025 
C 243 1661 250 1106 448 619 
C 723 -39 1216 -128 1466 -128 
C 1760 -128 2208 -7 2470 600 
C 2662 1042 2688 1559 2688 2025 
z
M 1466 -26 
C 1056 -26 813 325 723 812 
C 653 1188 653 1738 653 2096 
C 653 2588 653 2997 736 3387 
C 858 3929 1216 4096 1466 4096 
C 1728 4096 2067 3923 2189 3400 
C 2272 3036 2278 2607 2278 2096 
C 2278 1680 2278 1169 2202 792 
C 2067 95 1690 -26 1466 -26 
z
" transform="scale(0.015625)"/>
       </defs>
       <use xlink:href="#CMR17-35" transform="scale(0.996264)"/>
       <use xlink:href="#CMR17-30" transform="translate(45.690477 0) scale(0.996264)"/>
      </g>
     </g>
    </g>
    <g id="xtick_2">
     <g id="line2d_2">
      <g>
       <use xlink:href="#m232fa87a9f" x="74.225193" y="70.098056" style="stroke: #000000; stroke-width: 0.8"/>
      </g>
     </g>
     <g id="text_2">
      <!-- 100 -->
      <g transform="translate(65.445708 85.400236) scale(0.12 -0.12)">
       <defs>
        <path id="CMR17-31" d="M 1702 4058 
C 1702 4192 1696 4192 1606 4192 
C 1357 3916 979 3827 621 3827 
C 602 3827 570 3827 563 3808 
C 557 3795 557 3782 557 3648 
C 755 3648 1088 3686 1344 3839 
L 1344 461 
C 1344 236 1331 160 781 160 
L 589 160 
L 589 0 
C 896 0 1216 0 1523 0 
C 1830 0 2150 0 2458 0 
L 2458 160 
L 2266 160 
C 1715 160 1702 230 1702 458 
L 1702 4058 
z
" transform="scale(0.015625)"/>
       </defs>
       <use xlink:href="#CMR17-31" transform="scale(0.996264)"/>
       <use xlink:href="#CMR17-30" transform="translate(45.690477 0) scale(0.996264)"/>
       <use xlink:href="#CMR17-30" transform="translate(91.380954 0) scale(0.996264)"/>
      </g>
     </g>
    </g>
    <g id="xtick_3">
     <g id="line2d_3">
      <g>
       <use xlink:href="#m232fa87a9f" x="113.516967" y="70.098056" style="stroke: #000000; stroke-width: 0.8"/>
      </g>
     </g>
     <g id="text_3">
      <!-- 150 -->
      <g transform="translate(104.737481 85.400236) scale(0.12 -0.12)">
       <use xlink:href="#CMR17-31" transform="scale(0.996264)"/>
       <use xlink:href="#CMR17-35" transform="translate(45.690477 0) scale(0.996264)"/>
       <use xlink:href="#CMR17-30" transform="translate(91.380954 0) scale(0.996264)"/>
      </g>
     </g>
    </g>
    <g id="xtick_4">
     <g id="line2d_4">
      <g>
       <use xlink:href="#m232fa87a9f" x="152.808741" y="70.098056" style="stroke: #000000; stroke-width: 0.8"/>
      </g>
     </g>
     <g id="text_4">
      <!-- 200 -->
      <g transform="translate(144.029255 85.400236) scale(0.12 -0.12)">
       <defs>
        <path id="CMR17-32" d="M 2669 989 
L 2554 989 
C 2490 536 2438 459 2413 420 
C 2381 369 1920 369 1830 369 
L 602 369 
C 832 619 1280 1072 1824 1597 
C 2214 1967 2669 2402 2669 3035 
C 2669 3790 2067 4224 1395 4224 
C 691 4224 262 3604 262 3030 
C 262 2780 448 2748 525 2748 
C 589 2748 781 2787 781 3010 
C 781 3207 614 3264 525 3264 
C 486 3264 448 3258 422 3245 
C 544 3790 915 4058 1306 4058 
C 1862 4058 2227 3617 2227 3035 
C 2227 2479 1901 2000 1536 1584 
L 262 146 
L 262 0 
L 2515 0 
L 2669 989 
z
" transform="scale(0.015625)"/>
       </defs>
       <use xlink:href="#CMR17-32" transform="scale(0.996264)"/>
       <use xlink:href="#CMR17-30" transform="translate(45.690477 0) scale(0.996264)"/>
       <use xlink:href="#CMR17-30" transform="translate(91.380954 0) scale(0.996264)"/>
      </g>
     </g>
    </g>
    <g id="xtick_5">
     <g id="line2d_5">
      <g>
       <use xlink:href="#m232fa87a9f" x="192.100515" y="70.098056" style="stroke: #000000; stroke-width: 0.8"/>
      </g>
     </g>
     <g id="text_5">
      <!-- 250 -->
      <g transform="translate(183.321029 85.400236) scale(0.12 -0.12)">
       <use xlink:href="#CMR17-32" transform="scale(0.996264)"/>
       <use xlink:href="#CMR17-35" transform="translate(45.690477 0) scale(0.996264)"/>
       <use xlink:href="#CMR17-30" transform="translate(91.380954 0) scale(0.996264)"/>
      </g>
     </g>
    </g>
    <g id="text_6">
     <!-- RTT [ms] -->
     <g transform="translate(73.13744 100.691208) scale(0.12 -0.12)">
      <defs>
       <path id="CMR17-52" d="M 2509 2146 
C 3117 2268 3629 2676 3629 3186 
C 3629 3785 2950 4326 2054 4326 
L 333 4326 
L 333 4160 
C 774 4160 845 4160 845 3873 
L 845 415 
C 845 128 774 128 333 128 
L 333 -26 
C 518 -26 851 -26 1050 -26 
C 1248 -26 1581 -26 1766 -26 
L 1766 128 
C 1325 128 1254 128 1254 417 
L 1254 2112 
L 2003 2112 
C 2368 2112 2573 1964 2662 1881 
C 2918 1632 2918 1459 2918 1024 
C 2918 595 2918 377 3110 160 
C 3354 -102 3680 -128 3821 -128 
C 4294 -128 4365 396 4365 503 
C 4365 540 4365 585 4307 585 
C 4256 585 4250 547 4250 522 
C 4218 112 4032 -26 3834 -26 
C 3482 -26 3443 375 3405 764 
C 3386 898 3373 993 3360 1133 
C 3322 1452 3270 1917 2509 2146 
z
M 1984 2214 
L 1254 2214 
L 1254 3913 
C 1254 4129 1267 4160 1523 4160 
L 1990 4160 
C 2522 4160 3142 3977 3142 3190 
C 3142 2372 2464 2214 1984 2214 
z
" transform="scale(0.015625)"/>
       <path id="CMR17-54" d="M 3981 4326 
L 288 4326 
L 179 2918 
L 294 2918 
C 378 3976 467 4160 1453 4160 
C 1568 4160 1754 4160 1805 4154 
C 1926 4135 1926 4058 1926 3912 
L 1926 459 
C 1926 230 1907 160 1376 160 
L 1197 160 
L 1197 0 
C 1504 0 1824 0 2138 0 
C 2451 0 2771 0 3078 0 
L 3078 160 
L 2899 160 
C 2368 160 2349 230 2349 459 
L 2349 3912 
C 2349 4052 2349 4129 2464 4154 
C 2515 4160 2701 4160 2816 4160 
C 3795 4160 3891 3976 3974 2918 
L 4090 2918 
L 3981 4326 
z
" transform="scale(0.015625)"/>
       <path id="CMR17-5b" d="M 1504 -1600 
L 1504 -1377 
L 902 -1377 
L 902 4544 
L 1504 4544 
L 1504 4767 
L 678 4767 
L 678 -1600 
L 1504 -1600 
z
" transform="scale(0.015625)"/>
       <path id="CMR17-6d" d="M 4326 1933 
C 4326 2252 4269 2790 3507 2790 
C 3072 2790 2771 2496 2656 2151 
L 2650 2151 
C 2573 2676 2195 2790 1837 2790 
C 1331 2790 1069 2400 973 2144 
L 966 2144 
L 966 2790 
L 211 2720 
L 211 2554 
C 589 2554 646 2515 646 2208 
L 646 428 
C 646 184 621 153 211 153 
L 211 -13 
C 365 0 646 0 813 0 
C 979 0 1267 0 1421 -13 
L 1421 153 
C 1011 153 986 178 986 428 
L 986 1658 
C 986 2247 1344 2688 1792 2688 
C 2266 2688 2317 2266 2317 1958 
L 2317 428 
C 2317 184 2291 153 1882 153 
L 1882 -13 
C 2035 0 2317 0 2483 0 
C 2650 0 2938 0 3091 -13 
L 3091 153 
C 2682 153 2656 178 2656 428 
L 2656 1658 
C 2656 2247 3014 2688 3462 2688 
C 3936 2688 3987 2266 3987 1958 
L 3987 428 
C 3987 184 3962 153 3552 153 
L 3552 -13 
C 3706 0 3987 0 4154 0 
C 4320 0 4608 0 4762 -13 
L 4762 153 
C 4352 153 4326 178 4326 428 
L 4326 1933 
z
" transform="scale(0.015625)"/>
       <path id="CMR17-73" d="M 1978 2697 
C 1978 2813 1971 2819 1933 2819 
C 1907 2819 1901 2813 1824 2717 
C 1805 2691 1747 2626 1728 2601 
C 1523 2819 1235 2819 1126 2819 
C 416 2819 160 2447 160 2076 
C 160 1498 813 1365 998 1325 
C 1402 1243 1542 1217 1677 1101 
C 1760 1025 1901 884 1901 654 
C 1901 384 1747 38 1158 38 
C 602 38 403 460 288 1021 
C 269 1110 269 1117 218 1117 
C 166 1117 160 1110 160 983 
L 160 63 
C 160 -51 166 -58 205 -58 
C 237 -58 243 -51 275 0 
C 314 57 410 211 448 276 
C 576 103 800 -64 1158 -64 
C 1792 -64 2131 283 2131 784 
C 2131 1112 1958 1285 1875 1362 
C 1683 1561 1459 1606 1190 1657 
C 838 1735 390 1825 390 2217 
C 390 2383 480 2737 1126 2737 
C 1811 2737 1850 2094 1862 1888 
C 1869 1856 1901 1849 1920 1849 
C 1978 1849 1978 1869 1978 1978 
L 1978 2697 
z
" transform="scale(0.015625)"/>
       <path id="CMR17-5d" d="M 915 4767 
L 90 4767 
L 90 4544 
L 691 4544 
L 691 -1377 
L 90 -1377 
L 90 -1600 
L 915 -1600 
L 915 4767 
z
" transform="scale(0.015625)"/>
      </defs>
      <use xlink:href="#CMR17-52" transform="scale(0.996264)"/>
      <use xlink:href="#CMR17-54" transform="translate(59.983847 0) scale(0.996264)"/>
      <use xlink:href="#CMR17-54" transform="translate(126.493727 0) scale(0.996264)"/>
      <use xlink:href="#CMR17-5b" transform="translate(223.079574 0) scale(0.996264)"/>
      <use xlink:href="#CMR17-6d" transform="translate(247.950633 0) scale(0.996264)"/>
      <use xlink:href="#CMR17-73" transform="translate(324.870222 0) scale(0.996264)"/>
      <use xlink:href="#CMR17-5d" transform="translate(360.67156 0) scale(0.996264)"/>
     </g>
    </g>
   </g>
   <g id="matplotlib.axis_2">
    <g id="ytick_1">
     <g id="line2d_6">
      <path d="M 3.5 66.911781 
L 192.100515 66.911781 
" clip-path="url(#pb5d8cb6d65)" style="fill: none; stroke: #b0b0b0; stroke-opacity: 0.7; stroke-width: 0.5; stroke-linecap: square"/>
     </g>
     <g id="line2d_7">
      <defs>
       <path id="ma630409748" d="M 0 0 
L -3.5 0 
" style="stroke: #000000; stroke-width: 0.8"/>
      </defs>
      <g>
       <use xlink:href="#ma630409748" x="3.5" y="66.911781" style="stroke: #000000; stroke-width: 0.8"/>
      </g>
     </g>
    </g>
    <g id="ytick_2">
     <g id="line2d_8">
      <path d="M 3.5 50.980405 
L 192.100515 50.980405 
" clip-path="url(#pb5d8cb6d65)" style="fill: none; stroke: #b0b0b0; stroke-opacity: 0.7; stroke-width: 0.5; stroke-linecap: square"/>
     </g>
     <g id="line2d_9">
      <g>
       <use xlink:href="#ma630409748" x="3.5" y="50.980405" style="stroke: #000000; stroke-width: 0.8"/>
      </g>
     </g>
    </g>
    <g id="ytick_3">
     <g id="line2d_10">
      <path d="M 3.5 35.049028 
L 192.100515 35.049028 
" clip-path="url(#pb5d8cb6d65)" style="fill: none; stroke: #b0b0b0; stroke-opacity: 0.7; stroke-width: 0.5; stroke-linecap: square"/>
     </g>
     <g id="line2d_11">
      <g>
       <use xlink:href="#ma630409748" x="3.5" y="35.049028" style="stroke: #000000; stroke-width: 0.8"/>
      </g>
     </g>
    </g>
    <g id="ytick_4">
     <g id="line2d_12">
      <path d="M 3.5 19.117652 
L 192.100515 19.117652 
" clip-path="url(#pb5d8cb6d65)" style="fill: none; stroke: #b0b0b0; stroke-opacity: 0.7; stroke-width: 0.5; stroke-linecap: square"/>
     </g>
     <g id="line2d_13">
      <g>
       <use xlink:href="#ma630409748" x="3.5" y="19.117652" style="stroke: #000000; stroke-width: 0.8"/>
      </g>
     </g>
    </g>
    <g id="ytick_5">
     <g id="line2d_14">
      <path d="M 3.5 3.186275 
L 192.100515 3.186275 
" clip-path="url(#pb5d8cb6d65)" style="fill: none; stroke: #b0b0b0; stroke-opacity: 0.7; stroke-width: 0.5; stroke-linecap: square"/>
     </g>
     <g id="line2d_15">
      <g>
       <use xlink:href="#ma630409748" x="3.5" y="3.186275" style="stroke: #000000; stroke-width: 0.8"/>
      </g>
     </g>
    </g>
   </g>
   <g id="line2d_16">
    <path d="M 6.476745 66.911004 
L 9.156444 66.796004 
L 9.553291 66.72141 
L 9.920276 66.574551 
L 10.642459 65.705059 
L 10.8177 65.33364 
L 14.390108 54.391551 
L 14.681653 53.148309 
L 15.645087 50.635405 
L 15.711097 50.479222 
L 16.129948 49.405372 
L 16.398704 48.633007 
L 16.615594 47.958548 
L 16.853702 47.341589 
L 17.418718 45.978684 
L 17.850142 44.72534 
L 18.336574 43.518618 
L 18.523603 42.996456 
L 19.340872 40.680917 
L 19.744005 39.539465 
L 20.720013 36.296933 
L 21.061065 35.171021 
L 21.191514 34.885853 
L 21.560071 34.139907 
L 21.697592 33.847745 
L 21.902695 33.393184 
L 25.168627 27.175418 
L 25.242496 27.044877 
L 25.870379 26.047952 
L 26.143849 25.621364 
L 27.401186 23.379643 
L 27.562282 23.176062 
L 27.89862 22.75569 
L 28.047143 22.559103 
L 28.521787 21.865218 
L 28.954783 21.281671 
L 29.106449 21.084306 
L 29.195248 20.938225 
L 29.39878 20.681806 
L 29.693468 20.341469 
L 29.795627 20.208597 
L 30.157897 19.736165 
L 30.252197 19.598631 
L 30.405435 19.439341 
L 30.572032 19.299476 
L 30.773992 19.116098 
L 30.984596 18.942821 
L 31.18577 18.778868 
L 31.498532 18.50924 
L 31.698134 18.35772 
L 31.901666 18.199983 
L 32.288297 17.885288 
L 32.439177 17.740761 
L 32.727579 17.475017 
L 32.96333 17.254342 
L 34.042282 16.34289 
L 37.976174 14.906168 
L 40.206375 14.467148 
L 41.595732 14.293871 
L 46.616435 13.853296 
L 48.544875 13.662925 
L 48.744478 13.620966 
L 49.726772 13.180391 
L 50.134621 12.930966 
L 50.301218 12.798871 
L 50.517322 12.613939 
L 51.088625 12.104987 
L 51.274868 11.895966 
L 51.607276 11.543973 
L 52.205297 10.798028 
L 52.347533 10.620089 
L 52.987989 10.139109 
L 53.211166 10.000022 
L 53.767538 9.605292 
L 54.019005 9.457657 
L 54.339626 9.235427 
L 54.779694 8.956475 
L 55.116818 8.728806 
L 55.300703 8.600597 
L 55.54667 8.462286 
L 55.827213 8.34107 
L 57.570196 7.650293 
L 57.803589 7.574922 
L 58.359175 7.323165 
L 58.527343 7.231476 
L 60.328478 6.898908 
L 61.205471 6.754381 
L 63.667493 6.236105 
L 63.896957 6.16151 
L 64.461973 6.007659 
L 65.282385 5.725598 
L 67.551092 5.239957 
L 67.872499 5.159923 
L 68.722773 4.993639 
L 68.86108 4.960227 
L 73.939935 4.352592 
L 77.257732 4.176207 
L 83.96641 4.008369 
L 145.520117 3.560025 
L 192.173597 3.441917 
L 192.173597 3.441917 
" clip-path="url(#pb5d8cb6d65)" style="fill: none; stroke: #1f77b4; stroke-width: 1.5; stroke-linecap: square"/>
   </g>
   <g id="line2d_17">
    <path d="M 12.788575 66.563554 
L 12.831796 66.215327 
L 13.289153 65.867101 
L 13.807804 64.82242 
L 14.400324 64.474193 
L 14.598354 64.125967 
L 16.116589 63.77774 
L 16.834056 63.429513 
L 18.474881 63.081286 
L 18.679198 62.733059 
L 19.289006 62.384833 
L 19.308652 62.036606 
L 19.688997 61.340152 
L 19.718073 60.991925 
L 20.379746 60.295472 
L 20.69408 59.947245 
L 20.734158 59.599018 
L 21.233949 59.250791 
L 21.735312 57.857884 
L 22.140803 57.16143 
L 22.356908 56.813204 
L 22.413488 56.11675 
L 22.580085 55.768523 
L 22.608375 55.420296 
L 22.837839 55.07207 
L 23.145887 52.982709 
L 23.37928 52.634482 
L 23.472009 51.938028 
L 23.684184 51.589802 
L 23.689685 51.241575 
L 23.931722 50.545121 
L 23.9718 49.500441 
L 24.161972 49.152214 
L 24.169831 48.803987 
L 24.374148 48.45576 
L 24.438586 47.759307 
L 24.653119 47.41108 
L 24.783568 46.714626 
L 24.947808 45.321719 
L 25.192203 44.973492 
L 25.292004 44.277039 
L 25.619697 43.928812 
L 25.754861 43.232358 
L 26.028331 42.884131 
L 26.16821 42.187678 
L 26.480187 41.839451 
L 26.969762 40.446544 
L 27.051489 39.053636 
L 27.446765 38.70541 
L 27.625935 38.357183 
L 27.643223 38.008956 
L 28.010994 36.964276 
L 28.770111 33.830234 
L 28.981501 33.482008 
L 29.103306 32.785554 
L 29.689539 32.437327 
L 29.91586 32.0891 
L 30.260841 30.696193 
L 30.387361 30.347966 
L 30.660046 29.999739 
L 32.316587 28.955059 
L 32.404601 28.258605 
L 32.591629 27.910379 
L 33.349175 27.213925 
L 33.361748 26.865698 
L 33.691799 26.517471 
L 33.786885 26.169245 
L 34.933419 25.124564 
L 34.960138 24.776337 
L 37.944741 23.731657 
L 39.309737 23.38343 
L 39.484978 23.035203 
L 42.460151 22.686976 
L 43.616115 22.33875 
L 46.178725 21.990523 
L 46.188941 21.642296 
L 46.676944 21.294069 
L 46.750027 20.945842 
L 48.669037 20.597616 
L 48.84978 19.901162 
L 54.895998 19.552935 
L 66.48157 19.204708 
L 96.543706 18.856482 
L 99.464657 18.508255 
L 101.218642 18.160028 
L 104.286543 17.811801 
L 105.27591 17.463574 
L 105.32699 17.115348 
L 105.754484 16.767121 
L 107.067615 16.418894 
L 107.484108 16.070667 
L 109.132005 15.72244 
L 112.088318 15.374214 
L 112.559033 15.025987 
L 123.2739 14.67776 
L 126.954754 13.981306 
L 130.707118 13.63308 
L 130.782558 13.284853 
L 151.800514 12.936626 
L 159.621148 12.240172 
L 161.208536 11.891945 
L 161.918931 11.543719 
L 162.910656 11.195492 
L 164.960901 10.847265 
L 165.240658 10.150811 
L 166.369118 9.106131 
L 166.639445 8.757904 
L 166.710956 8.409677 
L 167.32155 8.061451 
L 167.35377 7.713224 
L 167.882637 6.668543 
L 167.888138 6.320317 
L 168.138033 5.97209 
L 168.749413 5.623863 
L 172.317892 5.275636 
L 173.210601 4.927409 
L 176.755505 4.579183 
L 176.816015 4.230956 
L 179.872915 3.882729 
L 195.42617 3.186275 
L 195.42617 3.186275 
" clip-path="url(#pb5d8cb6d65)" style="fill: none; stroke-dasharray: 1.5,2.475; stroke-dashoffset: 0; stroke: #ff7f0e; stroke-width: 1.5"/>
   </g>
   <g id="line2d_18">
    <path d="M 9.76861 66.696492 
L 12.405873 66.481203 
L 13.651423 65.835337 
L 14.407396 64.758892 
L 15.704025 64.328315 
L 15.834474 64.113026 
L 17.497302 62.821292 
L 17.529521 62.606004 
L 17.992378 62.390715 
L 18.122041 61.960137 
L 18.569181 61.098982 
L 19.204136 60.668404 
L 19.270932 60.453115 
L 19.769938 60.022537 
L 20.002545 59.591959 
L 20.103132 59.376671 
L 20.472475 59.161382 
L 20.700367 58.515515 
L 20.788381 57.65436 
L 21.351825 56.793204 
L 21.599363 56.147337 
L 22.019785 55.71676 
L 22.030001 55.501471 
L 22.3962 55.070893 
L 22.653168 53.563871 
L 23.069661 53.133293 
L 23.30384 52.487427 
L 23.465722 51.626271 
L 23.550592 51.195693 
L 23.812275 49.473382 
L 24.185547 47.751072 
L 24.543102 47.105205 
L 24.812644 46.459338 
L 24.894371 46.028761 
L 25.19456 45.382894 
L 25.971751 42.584139 
L 26.278227 42.153561 
L 26.410248 41.507694 
L 26.452683 40.861828 
L 26.675074 40.43125 
L 26.759158 39.570094 
L 26.957975 39.139517 
L 27.18351 37.632495 
L 27.407473 37.417206 
L 28.056573 35.479606 
L 28.313541 35.049028 
L 28.81569 32.250273 
L 28.983859 30.743251 
L 29.104877 29.666806 
L 29.278547 29.236229 
L 30.074598 29.02094 
L 30.342568 28.375073 
L 30.76299 27.944495 
L 31.33665 26.868051 
L 31.539396 26.652762 
L 31.584188 26.437473 
L 31.928384 26.222184 
L 32.16885 25.576318 
L 32.586129 25.14574 
L 32.807734 24.284585 
L 33.361748 24.069296 
L 33.854467 23.638718 
L 34.940492 23.20814 
L 36.659114 22.777563 
L 36.98445 22.562274 
L 38.857096 21.916407 
L 39.888898 21.701118 
L 40.052351 21.27054 
L 45.500549 21.055252 
L 45.745729 20.839963 
L 46.868688 20.624674 
L 47.071434 20.409385 
L 48.613243 20.194096 
L 50.478817 19.548229 
L 50.656415 19.332941 
L 52.463837 19.117652 
L 52.757739 18.687074 
L 87.508956 18.471785 
L 91.814548 18.256496 
L 92.016508 18.041207 
L 95.277725 17.61063 
L 95.527621 17.395341 
L 95.603061 17.180052 
L 97.42227 16.964763 
L 98.628528 16.534185 
L 98.7244 16.318896 
L 100.967174 15.888319 
L 103.617797 15.67303 
L 103.825258 15.457741 
L 104.193815 15.242452 
L 108.779951 15.027163 
L 112.058456 14.381297 
L 112.583394 14.166008 
L 143.737056 13.950719 
L 153.553713 13.73543 
L 153.97885 13.520141 
L 154.116371 13.304852 
L 155.59217 13.089563 
L 155.605529 12.874274 
L 157.519824 12.658986 
L 157.663632 12.443697 
L 158.71508 12.013119 
L 162.02109 11.367252 
L 162.394362 11.151964 
L 163.218703 10.936675 
L 163.255638 10.721386 
L 164.365237 10.506097 
L 164.486256 10.290808 
L 165.532989 9.644941 
L 165.57621 9.429653 
L 166.873624 8.999075 
L 167.642957 8.783786 
L 168.296772 8.137919 
L 168.489302 7.707342 
L 168.571815 7.492053 
L 169.054318 7.061475 
L 169.216986 6.846186 
L 170.28415 6.630897 
L 170.652707 6.200319 
L 170.814589 5.985031 
L 173.845556 5.769742 
L 174.872643 5.123875 
L 182.676776 4.26272 
L 184.224871 3.832142 
L 191.61644 3.616853 
L 192.154737 3.401564 
L 197.488988 3.186275 
L 197.488988 3.186275 
" clip-path="url(#pb5d8cb6d65)" style="fill: none; stroke-dasharray: 5.55,2.4; stroke-dashoffset: 0; stroke: #2ca02c; stroke-width: 1.5"/>
   </g>
   <g id="line2d_19">
    <path d="M 7.793019 66.909435 
L 9.510856 66.756965 
L 9.84405 66.681903 
L 10.220465 66.545853 
L 10.573305 66.297209 
L 10.737545 66.154121 
L 11.213761 65.243992 
L 12.165408 61.010012 
L 12.324932 60.14445 
L 13.715075 51.369204 
L 13.829022 50.250307 
L 14.354745 46.447935 
L 14.577923 44.44002 
L 14.800314 43.426679 
L 14.968483 42.73939 
L 15.190874 41.728396 
L 15.383404 40.757278 
L 15.492635 40.29283 
L 15.645873 39.485911 
L 16.272184 36.408359 
L 16.313047 36.21132 
L 17.012441 32.704506 
L 17.107527 32.36438 
L 17.298485 31.651288 
L 17.560168 30.520663 
L 17.845427 29.472137 
L 17.913794 29.303247 
L 18.103181 28.843491 
L 18.853654 26.950515 
L 18.94874 26.741748 
L 19.215924 26.162361 
L 19.328298 25.901989 
L 19.408453 25.747173 
L 19.60727 25.392973 
L 19.956967 24.696302 
L 20.055982 24.485189 
L 20.210006 24.21778 
L 20.310593 24.055927 
L 20.58092 23.598516 
L 21.386401 22.587522 
L 21.560071 22.428014 
L 22.321546 21.822825 
L 22.672814 21.621095 
L 23.405998 21.140228 
L 23.613459 20.994794 
L 23.758053 20.905658 
L 23.967085 20.720348 
L 24.193406 20.579606 
L 25.731286 19.786761 
L 26.287657 19.566266 
L 26.403175 19.493549 
L 26.602777 19.418487 
L 26.913182 19.289474 
L 27.201584 19.141695 
L 27.787031 18.977496 
L 27.892333 18.928237 
L 28.667953 18.76873 
L 28.789757 18.740581 
L 36.670901 17.382424 
L 38.328228 17.201805 
L 40.849974 16.803037 
L 40.97728 16.781926 
L 41.683746 16.582541 
L 45.933544 14.884258 
L 46.042775 14.804504 
L 46.462411 14.619194 
L 46.596789 14.546478 
L 46.862402 14.361168 
L 47.013282 14.260303 
L 47.502858 13.840424 
L 47.661596 13.683262 
L 48.271405 12.970171 
L 48.390066 12.820046 
L 49.220694 11.776212 
L 49.729129 11.375098 
L 50.136978 10.95991 
L 50.398661 10.744106 
L 50.811225 10.314843 
L 50.998254 10.15299 
L 51.489401 9.702617 
L 51.768373 9.439899 
L 52.087422 9.120885 
L 52.256376 8.928538 
L 52.536134 8.747919 
L 53.230812 8.370262 
L 54.285404 7.720504 
L 54.637458 7.563343 
L 55.857075 7.115315 
L 56.286927 6.986302 
L 56.857443 6.86198 
L 57.980402 6.573459 
L 59.008275 6.374075 
L 60.286829 6.226296 
L 61.093096 6.132469 
L 62.430588 5.989381 
L 62.565752 5.963579 
L 64.507551 5.775923 
L 64.601852 5.768886 
L 66.786474 5.616416 
L 75.563471 5.128511 
L 79.246682 4.929127 
L 79.58852 4.903324 
L 80.436437 4.842336 
L 93.162256 4.452951 
L 101.984045 4.279369 
L 102.168717 4.269987 
L 155.026368 3.882947 
L 174.614104 3.756279 
L 182.059109 3.725785 
L 192.117803 3.695291 
L 192.117803 3.695291 
" clip-path="url(#pb5d8cb6d65)" style="fill: none; stroke-dasharray: 9.6,2.4,1.5,2.4; stroke-dashoffset: 0; stroke: #d62728; stroke-width: 1.5"/>
   </g>
   <g id="line2d_20">
    <path d="M 8.231515 66.911662 
L 11.303346 66.798659 
L 12.041246 66.575027 
L 13.125699 65.96182 
L 13.715075 65.385766 
L 13.828236 65.217092 
L 14.138641 64.844135 
L 14.583424 64.163386 
L 15.722099 62.981959 
L 16.847416 61.32751 
L 17.567241 60.283537 
L 20.001759 56.056252 
L 20.11492 55.733505 
L 20.781308 53.716899 
L 21.094856 52.811095 
L 21.454769 51.998233 
L 23.335273 46.564118 
L 24.576108 42.483427 
L 24.778853 41.748908 
L 25.153697 40.564987 
L 25.418523 39.800555 
L 27.732809 32.828792 
L 28.946139 30.354477 
L 29.431785 29.454964 
L 29.545731 29.249256 
L 30.146895 28.348793 
L 30.645901 27.673979 
L 31.373584 26.864679 
L 31.757072 26.486498 
L 32.45568 25.816552 
L 33.15193 25.241447 
L 33.291809 25.108265 
L 33.540133 24.865404 
L 34.874481 24.188929 
L 36.518449 23.449424 
L 37.0316 23.269118 
L 39.153356 22.586589 
L 39.747447 22.38456 
L 42.14346 21.776576 
L 43.345002 21.482792 
L 44.426312 21.271979 
L 45.93433 20.940092 
L 46.049062 20.896885 
L 47.931924 20.212101 
L 48.708329 19.872736 
L 50.079612 19.342619 
L 50.279214 19.273179 
L 50.679205 19.131807 
L 51.857958 18.719441 
L 52.798603 18.39242 
L 55.449226 17.707637 
L 56.936027 17.521751 
L 57.05233 17.507507 
L 58.506126 17.374088 
L 58.666436 17.356757 
L 64.715012 17.063092 
L 65.307532 17.041014 
L 72.900274 16.848007 
L 82.027753 16.683131 
L 92.309625 16.509947 
L 94.650629 16.310411 
L 97.503997 15.991344 
L 98.693752 15.844274 
L 102.793456 15.112841 
L 103.220165 15.041145 
L 104.103444 14.863094 
L 109.007057 13.865772 
L 117.927076 13.303487 
L 122.081002 13.20544 
L 128.306391 13.061931 
L 137.02995 12.856698 
L 145.326015 12.810404 
L 155.214183 12.682801 
L 155.703759 12.650752 
L 157.86402 12.485283 
L 162.977452 11.600607 
L 173.427492 8.559616 
L 174.344562 8.355925 
L 175.112323 8.18464 
L 190.592496 5.958647 
L 192.1013 5.8314 
L 192.1013 5.8314 
" clip-path="url(#pb5d8cb6d65)" style="fill: none; stroke: #9467bd; stroke-width: 1.5; stroke-linecap: square"/>
   </g>
   <g id="patch_3">
    <path d="M 3.5 70.098056 
L 3.5 -0 
" style="fill: none; stroke: #000000; stroke-width: 0.8; stroke-linejoin: miter; stroke-linecap: square"/>
   </g>
   <g id="patch_4">
    <path d="M 192.100515 70.098056 
L 192.100515 -0 
" style="fill: none; stroke: #000000; stroke-width: 0.8; stroke-linejoin: miter; stroke-linecap: square"/>
   </g>
   <g id="patch_5">
    <path d="M 3.5 70.098056 
L 192.100515 70.098056 
" style="fill: none; stroke: #000000; stroke-width: 0.8; stroke-linejoin: miter; stroke-linecap: square"/>
   </g>
   <g id="patch_6">
    <path d="M 3.5 -0 
L 192.100515 -0 
" style="fill: none; stroke: #000000; stroke-width: 0.8; stroke-linejoin: miter; stroke-linecap: square"/>
   </g>
   <g id="legend_1">
    <g id="patch_7">
     <path d="M 73.341961 65.100056 
L 187.102515 65.100056 
L 187.102515 29.102927 
L 73.341961 29.102927 
z
" style="fill: #ffffff; opacity: 0.8; stroke: #000000; stroke-linejoin: miter"/>
    </g>
    <g id="line2d_21">
     <path d="M 77.340361 36.599927 
L 82.338361 36.599927 
L 87.336361 36.599927 
" style="fill: none; stroke: #1f77b4; stroke-width: 1.5; stroke-linecap: square"/>
    </g>
    <g id="text_7">
     <!-- Auckland -->
     <g transform="translate(90.335161 40.098527) scale(0.09996 -0.09996)">
      <defs>
       <path id="CMR17-41" d="M 2323 4378 
C 2291 4461 2278 4480 2214 4480 
C 2150 4480 2138 4461 2106 4378 
L 749 566 
C 627 223 371 153 147 153 
L 147 -13 
C 262 0 518 0 640 0 
C 800 0 1056 0 1210 -13 
L 1210 153 
C 909 153 864 361 864 439 
C 864 497 877 530 890 569 
L 1229 1536 
L 2906 1536 
L 3290 442 
C 3322 365 3322 352 3322 327 
C 3322 153 3046 153 2925 153 
L 2925 0 
C 3110 0 3443 0 3642 0 
C 3808 0 4128 0 4282 -13 
L 4282 153 
C 3942 153 3827 153 3744 387 
L 2323 4378 
z
M 2067 3893 
L 2848 1702 
L 1286 1702 
L 2067 3893 
z
" transform="scale(0.015625)"/>
       <path id="CMR17-75" d="M 1882 2693 
L 1882 2528 
C 2259 2528 2317 2489 2317 2186 
L 2317 1032 
C 2317 500 2029 38 1555 38 
C 1030 38 986 348 986 678 
L 986 2763 
L 211 2693 
L 211 2528 
C 467 2528 640 2528 646 2274 
L 646 1058 
C 646 633 646 361 813 183 
C 896 101 1056 -64 1517 -64 
C 2061 -64 2272 377 2323 506 
L 2330 506 
L 2330 -63 
L 3091 -63 
L 3091 128 
C 2714 128 2656 166 2656 473 
L 2656 2763 
L 1882 2693 
z
" transform="scale(0.015625)"/>
       <path id="CMR17-63" d="M 2234 2240 
C 2112 2240 1933 2240 1933 2017 
C 1933 1838 2080 1787 2163 1787 
C 2208 1787 2394 1807 2394 2024 
C 2394 2467 1958 2803 1466 2803 
C 787 2803 211 2178 211 1363 
C 211 516 813 -64 1466 -64 
C 2259 -64 2458 677 2458 748 
C 2458 774 2451 793 2406 793 
C 2362 793 2355 787 2330 703 
C 2163 180 1798 51 1523 51 
C 1114 51 621 427 621 1369 
C 621 2338 1094 2688 1472 2688 
C 1722 2688 2093 2573 2234 2240 
z
" transform="scale(0.015625)"/>
       <path id="CMR17-6b" d="M 1670 1673 
C 1664 1686 1632 1724 1632 1743 
C 1632 1756 2086 2171 2144 2222 
C 2509 2528 2739 2560 2906 2560 
L 2906 2733 
C 2867 2733 2854 2733 2848 2720 
L 2534 2720 
C 2355 2720 2080 2720 1907 2733 
L 1907 2566 
C 1997 2559 2061 2508 2061 2419 
C 2061 2291 1933 2170 1926 2170 
L 960 1289 
L 960 4396 
L 198 4326 
L 198 4160 
C 576 4160 634 4122 634 3817 
L 634 426 
C 634 184 608 153 198 153 
L 198 -13 
C 352 0 634 0 794 0 
C 954 0 1235 0 1389 -13 
L 1389 153 
C 979 153 954 178 954 428 
L 954 1130 
L 1395 1532 
L 2042 574 
C 2118 459 2182 369 2182 286 
C 2182 172 2067 153 1990 153 
L 1990 -13 
C 2144 0 2419 0 2579 0 
C 2694 0 2931 0 3040 0 
L 3040 153 
C 2739 153 2669 210 2477 491 
L 1670 1673 
z
" transform="scale(0.015625)"/>
       <path id="CMR17-6c" d="M 979 4396 
L 218 4326 
L 218 4160 
C 595 4160 653 4122 653 3817 
L 653 426 
C 653 184 627 153 218 153 
L 218 -13 
C 371 0 653 0 813 0 
C 979 0 1261 0 1414 -13 
L 1414 153 
C 1005 153 979 178 979 426 
L 979 4396 
z
" transform="scale(0.015625)"/>
       <path id="CMR17-61" d="M 2304 1653 
C 2304 2072 2304 2294 2035 2543 
C 1798 2752 1523 2816 1306 2816 
C 800 2816 435 2407 435 1971 
C 435 1728 627 1728 666 1728 
C 749 1728 896 1778 896 1954 
C 896 2112 774 2181 666 2181 
C 640 2181 608 2174 589 2168 
C 723 2592 1069 2714 1293 2714 
C 1613 2714 1965 2429 1965 1885 
L 1965 1600 
C 1587 1600 1133 1549 774 1357 
C 371 1133 256 813 256 570 
C 256 77 832 -64 1171 -64 
C 1523 -64 1850 139 1990 511 
C 2003 233 2182 -18 2464 -18 
C 2598 -18 2938 70 2938 567 
L 2938 920 
L 2822 920 
L 2822 562 
C 2822 178 2650 128 2566 128 
C 2304 128 2304 458 2304 738 
L 2304 1653 
z
M 1965 870 
C 1965 317 1568 38 1216 38 
C 896 38 646 275 646 570 
C 646 761 730 1100 1101 1305 
C 1408 1478 1760 1504 1965 1504 
L 1965 870 
z
" transform="scale(0.015625)"/>
       <path id="CMR17-6e" d="M 2656 1933 
C 2656 2259 2592 2790 1837 2790 
C 1331 2790 1069 2400 973 2144 
L 966 2144 
L 966 2790 
L 211 2720 
L 211 2554 
C 589 2554 646 2515 646 2208 
L 646 428 
C 646 184 621 153 211 153 
L 211 -13 
C 365 0 646 0 813 0 
C 979 0 1267 0 1421 -13 
L 1421 153 
C 1011 153 986 178 986 428 
L 986 1658 
C 986 2247 1344 2688 1792 2688 
C 2266 2688 2317 2266 2317 1958 
L 2317 428 
C 2317 184 2291 153 1882 153 
L 1882 -13 
C 2035 0 2317 0 2483 0 
C 2650 0 2938 0 3091 -13 
L 3091 153 
C 2682 153 2656 178 2656 428 
L 2656 1933 
z
" transform="scale(0.015625)"/>
       <path id="CMR17-64" d="M 1869 4326 
L 1869 4160 
C 2246 4160 2304 4122 2304 3820 
L 2304 2345 
C 2278 2377 2016 2790 1498 2790 
C 845 2790 211 2208 211 1364 
C 211 525 806 -64 1434 -64 
C 1978 -64 2259 337 2291 380 
L 2291 -63 
L 3066 -63 
L 3066 128 
C 2688 128 2630 166 2630 473 
L 2630 4396 
L 1869 4326 
z
M 2291 755 
C 2291 563 2176 390 2029 262 
C 1811 70 1594 38 1472 38 
C 1286 38 621 134 621 1356 
C 621 2612 1363 2688 1530 2688 
C 1824 2688 2061 2522 2208 2291 
C 2291 2157 2291 2138 2291 2023 
L 2291 755 
z
" transform="scale(0.015625)"/>
      </defs>
      <use xlink:href="#CMR17-41" transform="scale(0.996264)"/>
      <use xlink:href="#CMR17-75" transform="translate(69.07243 0) scale(0.996264)"/>
      <use xlink:href="#CMR17-63" transform="translate(119.9678 0) scale(0.996264)"/>
      <use xlink:href="#CMR17-6b" transform="translate(157.851006 0) scale(0.996264)"/>
      <use xlink:href="#CMR17-6c" transform="translate(206.143922 0) scale(0.996264)"/>
      <use xlink:href="#CMR17-61" transform="translate(231.01498 0) scale(0.996264)"/>
      <use xlink:href="#CMR17-6e" transform="translate(276.705458 0) scale(0.996264)"/>
      <use xlink:href="#CMR17-64" transform="translate(327.600827 0) scale(0.996264)"/>
     </g>
    </g>
    <g id="line2d_22">
     <path d="M 77.340361 46.13329 
L 82.338361 46.13329 
L 87.336361 46.13329 
" style="fill: none; stroke-dasharray: 1.5,2.475; stroke-dashoffset: 0; stroke: #ff7f0e; stroke-width: 1.5"/>
    </g>
    <g id="text_8">
     <!-- Kellevie -->
     <g transform="translate(90.335161 49.63189) scale(0.09996 -0.09996)">
      <defs>
       <path id="CMR17-4b" d="M 2362 2675 
L 3469 3782 
C 3699 4006 3942 4186 4301 4186 
L 4301 4352 
C 4173 4352 4013 4352 3885 4352 
C 3712 4352 3411 4352 3245 4358 
L 3245 4192 
C 3411 4180 3437 4065 3437 4019 
C 3437 3975 3411 3905 3386 3867 
L 1261 1738 
L 1261 3900 
C 1261 4186 1331 4186 1773 4186 
L 1773 4352 
C 1587 4352 1248 4352 1050 4352 
C 851 4352 512 4352 326 4352 
L 326 4186 
C 768 4186 838 4186 838 3899 
L 838 446 
C 838 160 768 160 326 160 
L 326 0 
C 512 0 851 0 1050 0 
C 1248 0 1587 0 1773 0 
L 1773 160 
C 1331 160 1261 160 1261 447 
L 1261 1579 
L 2080 2390 
L 3290 537 
C 3328 473 3373 390 3373 326 
C 3373 160 3194 160 3110 160 
L 3110 0 
C 3315 0 3610 0 3821 0 
C 3974 0 4237 0 4384 -6 
L 4384 160 
C 4077 160 3981 198 3789 493 
L 2362 2675 
z
" transform="scale(0.015625)"/>
       <path id="CMR17-65" d="M 2438 1472 
C 2464 1498 2464 1511 2464 1576 
C 2464 2238 2118 2816 1389 2816 
C 710 2816 173 2169 173 1383 
C 173 551 781 -64 1459 -64 
C 2176 -64 2458 607 2458 740 
C 2458 784 2419 784 2406 784 
C 2362 784 2355 771 2330 696 
C 2189 265 1837 51 1504 51 
C 1229 51 954 203 781 480 
C 582 803 582 1176 582 1472 
L 2438 1472 
z
M 589 1568 
C 634 2505 1126 2714 1382 2714 
C 1818 2714 2112 2297 2118 1568 
L 589 1568 
z
" transform="scale(0.015625)"/>
       <path id="CMR17-76" d="M 2502 2163 
C 2560 2304 2662 2560 3034 2560 
L 3034 2726 
C 2912 2726 2752 2726 2630 2726 
C 2496 2726 2285 2726 2157 2732 
L 2157 2566 
C 2317 2553 2406 2477 2406 2311 
C 2406 2253 2406 2240 2368 2151 
L 1664 377 
L 902 2286 
C 864 2369 864 2381 864 2407 
C 864 2560 1075 2560 1171 2560 
L 1171 2732 
C 1018 2726 736 2726 576 2726 
C 403 2726 205 2726 64 2732 
L 64 2560 
C 307 2560 442 2560 518 2362 
L 1446 44 
C 1485 -51 1491 -64 1549 -64 
C 1606 -64 1613 -51 1651 44 
L 2502 2163 
z
" transform="scale(0.015625)"/>
       <path id="CMR17-69" d="M 992 3909 
C 992 4049 877 4170 730 4170 
C 589 4170 467 4056 467 3909 
C 467 3769 582 3648 730 3648 
C 870 3648 992 3763 992 3909 
z
M 243 2706 
L 243 2541 
C 602 2541 653 2502 653 2197 
L 653 427 
C 653 184 627 153 218 153 
L 218 -13 
C 371 0 646 0 806 0 
C 960 0 1222 0 1370 -13 
L 1370 153 
C 992 153 979 191 979 420 
L 979 2776 
L 243 2706 
z
" transform="scale(0.015625)"/>
      </defs>
      <use xlink:href="#CMR17-4b" transform="scale(0.996264)"/>
      <use xlink:href="#CMR17-65" transform="translate(71.674777 0) scale(0.996264)"/>
      <use xlink:href="#CMR17-6c" transform="translate(112.160438 0) scale(0.996264)"/>
      <use xlink:href="#CMR17-6c" transform="translate(137.031496 0) scale(0.996264)"/>
      <use xlink:href="#CMR17-65" transform="translate(161.902555 0) scale(0.996264)"/>
      <use xlink:href="#CMR17-76" transform="translate(202.388215 0) scale(0.996264)"/>
      <use xlink:href="#CMR17-69" transform="translate(250.681131 0) scale(0.996264)"/>
      <use xlink:href="#CMR17-65" transform="translate(275.55219 0) scale(0.996264)"/>
     </g>
    </g>
    <g id="line2d_23">
     <path d="M 77.340361 55.666653 
L 82.338361 55.666653 
L 87.336361 55.666653 
" style="fill: none; stroke-dasharray: 5.55,2.4; stroke-dashoffset: 0; stroke: #2ca02c; stroke-width: 1.5"/>
    </g>
    <g id="text_9">
     <!-- Noojee -->
     <g transform="translate(90.335161 59.165253) scale(0.09996 -0.09996)">
      <defs>
       <path id="CMR17-4e" d="M 1312 4250 
C 1267 4320 1261 4320 1139 4320 
L 326 4320 
L 326 4160 
L 448 4160 
C 704 4160 819 4129 838 4122 
L 838 610 
C 838 451 838 153 326 153 
L 326 -13 
C 474 0 742 0 902 0 
C 1062 0 1331 0 1478 -13 
L 1478 153 
C 966 153 966 451 966 610 
L 966 4033 
C 1011 3995 1011 3982 1056 3919 
L 3430 76 
C 3475 0 3494 0 3526 0 
C 3590 0 3590 19 3590 139 
L 3590 3705 
C 3590 3863 3590 4160 4102 4160 
L 4102 4326 
C 3955 4320 3686 4320 3526 4320 
C 3366 4320 3098 4320 2950 4326 
L 2950 4160 
C 3462 4160 3462 3862 3462 3703 
L 3462 763 
L 1312 4250 
z
" transform="scale(0.015625)"/>
       <path id="CMR17-6f" d="M 2758 1356 
C 2758 2176 2163 2816 1466 2816 
C 768 2816 173 2176 173 1356 
C 173 551 768 -64 1466 -64 
C 2163 -64 2758 551 2758 1356 
z
M 1466 51 
C 1165 51 909 230 762 480 
C 602 767 582 1126 582 1408 
C 582 1677 595 2010 762 2298 
C 890 2509 1139 2714 1466 2714 
C 1754 2714 1997 2554 2150 2330 
C 2349 2029 2349 1607 2349 1408 
C 2349 1158 2336 775 2163 467 
C 1984 173 1709 51 1466 51 
z
" transform="scale(0.015625)"/>
       <path id="CMR17-6a" d="M 1165 3963 
C 1165 4103 1050 4224 902 4224 
C 762 4224 640 4110 640 3963 
C 640 3823 755 3702 902 3702 
C 1043 3702 1165 3817 1165 3963 
z
M 365 2754 
L 365 2588 
C 787 2588 838 2543 838 2235 
L 838 -359 
C 838 -678 781 -1178 403 -1178 
C 358 -1178 186 -1178 45 -1082 
C 90 -1075 250 -1031 250 -851 
C 250 -729 166 -621 19 -621 
C -122 -621 -211 -717 -211 -858 
C -211 -1114 70 -1280 397 -1280 
C 838 -1280 1165 -877 1165 -332 
L 1165 2825 
L 365 2754 
z
" transform="scale(0.015625)"/>
      </defs>
      <use xlink:href="#CMR17-4e" transform="scale(0.996264)"/>
      <use xlink:href="#CMR17-6f" transform="translate(69.07243 0) scale(0.996264)"/>
      <use xlink:href="#CMR17-6f" transform="translate(117.365346 0) scale(0.996264)"/>
      <use xlink:href="#CMR17-6a" transform="translate(168.260624 0) scale(0.996264)"/>
      <use xlink:href="#CMR17-65" transform="translate(195.734137 0) scale(0.996264)"/>
      <use xlink:href="#CMR17-65" transform="translate(236.219797 0) scale(0.996264)"/>
     </g>
    </g>
    <g id="line2d_24">
     <path d="M 137.693992 36.599927 
L 142.691992 36.599927 
L 147.689992 36.599927 
" style="fill: none; stroke-dasharray: 9.6,2.4,1.5,2.4; stroke-dashoffset: 0; stroke: #d62728; stroke-width: 1.5"/>
    </g>
    <g id="text_10">
     <!-- Perth -->
     <g transform="translate(150.688792 40.098527) scale(0.09996 -0.09996)">
      <defs>
       <path id="CMR17-50" d="M 1267 2042 
L 2291 2042 
C 3117 2042 3718 2578 3718 3184 
C 3718 3791 3130 4352 2291 4352 
L 333 4352 
L 333 4186 
C 774 4186 845 4186 845 3899 
L 845 446 
C 845 160 774 160 333 160 
L 333 0 
C 518 0 858 0 1056 0 
C 1254 0 1594 0 1779 0 
L 1779 160 
C 1338 160 1267 160 1267 446 
L 1267 2042 
z
M 1254 2176 
L 1254 3938 
C 1254 4155 1267 4186 1523 4186 
L 2170 4186 
C 2995 4186 3232 3714 3232 3184 
C 3232 2604 2950 2176 2170 2176 
L 1254 2176 
z
" transform="scale(0.015625)"/>
       <path id="CMR17-72" d="M 960 1497 
C 960 2112 1222 2688 1702 2688 
C 1747 2688 1792 2682 1837 2662 
C 1837 2662 1696 2617 1696 2452 
C 1696 2298 1818 2234 1914 2234 
C 1990 2234 2131 2279 2131 2458 
C 2131 2663 1926 2790 1709 2790 
C 1222 2790 1011 2317 947 2093 
L 941 2093 
L 941 2790 
L 198 2720 
L 198 2554 
C 576 2554 634 2515 634 2208 
L 634 428 
C 634 184 608 153 198 153 
L 198 -13 
C 352 0 646 0 813 0 
C 998 0 1325 0 1498 -13 
L 1498 153 
C 1037 153 960 153 960 440 
L 960 1497 
z
" transform="scale(0.015625)"/>
       <path id="CMR17-74" d="M 966 2560 
L 1862 2560 
L 1862 2725 
L 966 2725 
L 966 3904 
L 851 3904 
C 838 3245 614 2668 70 2668 
L 70 2560 
L 627 2560 
L 627 771 
C 627 650 627 -64 1370 -64 
C 1747 -64 1965 306 1965 777 
L 1965 1140 
L 1850 1140 
L 1850 783 
C 1850 344 1677 51 1408 51 
C 1222 51 966 178 966 758 
L 966 2560 
z
" transform="scale(0.015625)"/>
       <path id="CMR17-68" d="M 2656 1933 
C 2656 2259 2592 2790 1837 2790 
C 1312 2790 1056 2368 979 2157 
L 973 2157 
L 973 4396 
L 211 4326 
L 211 4160 
C 589 4160 646 4122 646 3817 
L 646 426 
C 646 184 621 153 211 153 
L 211 -13 
C 365 0 646 0 813 0 
C 979 0 1267 0 1421 -13 
L 1421 153 
C 1011 153 986 178 986 428 
L 986 1658 
C 986 2247 1344 2688 1792 2688 
C 2266 2688 2317 2266 2317 1958 
L 2317 428 
C 2317 184 2291 153 1882 153 
L 1882 -13 
C 2035 0 2317 0 2483 0 
C 2650 0 2938 0 3091 -13 
L 3091 153 
C 2682 153 2656 178 2656 428 
L 2656 1933 
z
" transform="scale(0.015625)"/>
      </defs>
      <use xlink:href="#CMR17-50" transform="scale(0.996264)"/>
      <use xlink:href="#CMR17-65" transform="translate(59.983847 0) scale(0.996264)"/>
      <use xlink:href="#CMR17-72" transform="translate(100.469507 0) scale(0.996264)"/>
      <use xlink:href="#CMR17-74" transform="translate(135.750275 0) scale(0.996264)"/>
      <use xlink:href="#CMR17-68" transform="translate(171.031043 0) scale(0.996264)"/>
     </g>
    </g>
    <g id="line2d_25">
     <path d="M 137.693992 46.13329 
L 142.691992 46.13329 
L 147.689992 46.13329 
" style="fill: none; stroke: #9467bd; stroke-width: 1.5; stroke-linecap: square"/>
    </g>
    <g id="text_11">
     <!-- Sydney -->
     <g transform="translate(150.688792 49.63189) scale(0.09996 -0.09996)">
      <defs>
       <path id="CMR17-53" d="M 2803 4290 
C 2803 4404 2797 4411 2758 4411 
C 2720 4411 2707 4385 2682 4328 
L 2490 3907 
C 2246 4257 1875 4416 1472 4416 
C 819 4416 294 3901 294 3253 
C 294 3056 339 2776 557 2510 
C 794 2218 1018 2167 1530 2033 
C 1722 1982 2042 1899 2106 1874 
C 2470 1722 2662 1341 2662 985 
C 2662 527 2336 38 1779 38 
C 1094 38 454 419 410 1311 
C 403 1413 397 1419 352 1419 
C 301 1419 294 1413 294 1285 
L 294 -1 
C 294 -115 301 -122 339 -122 
C 384 -122 397 -90 486 108 
C 493 127 493 140 614 381 
C 934 -39 1472 -128 1779 -128 
C 2477 -128 2970 451 2970 1124 
C 2970 1454 2848 1708 2778 1823 
C 2509 2230 2221 2306 1914 2382 
C 1869 2402 1856 2402 1498 2490 
C 1152 2579 1005 2624 845 2796 
C 666 2992 602 3196 602 3399 
C 602 3812 934 4263 1478 4263 
C 2157 4263 2579 3786 2675 2993 
C 2694 2878 2701 2872 2746 2872 
C 2803 2872 2803 2891 2803 2999 
L 2803 4290 
z
" transform="scale(0.015625)"/>
       <path id="CMR17-79" d="M 2496 2197 
C 2656 2586 2944 2586 3034 2586 
L 3034 2752 
C 2912 2752 2752 2752 2630 2752 
C 2496 2752 2285 2752 2157 2758 
L 2157 2592 
C 2400 2573 2406 2394 2406 2343 
C 2406 2280 2394 2248 2362 2171 
L 1664 449 
L 902 2306 
C 870 2382 870 2426 870 2433 
C 870 2573 1018 2586 1171 2586 
L 1171 2758 
C 1018 2752 742 2752 582 2752 
C 410 2752 205 2752 64 2758 
L 64 2586 
C 410 2586 448 2554 531 2350 
L 1485 15 
C 1197 -738 1030 -1178 627 -1178 
C 557 -1178 397 -1159 282 -1044 
C 429 -1031 493 -942 493 -833 
C 493 -725 416 -629 288 -629 
C 147 -629 77 -725 77 -840 
C 77 -1095 339 -1280 627 -1280 
C 998 -1280 1229 -922 1357 -604 
L 2496 2197 
z
" transform="scale(0.015625)"/>
      </defs>
      <use xlink:href="#CMR17-53" transform="scale(0.996264)"/>
      <use xlink:href="#CMR17-79" transform="translate(50.89537 0) scale(0.996264)"/>
      <use xlink:href="#CMR17-64" transform="translate(99.188286 0) scale(0.996264)"/>
      <use xlink:href="#CMR17-6e" transform="translate(150.083655 0) scale(0.996264)"/>
      <use xlink:href="#CMR17-65" transform="translate(200.979025 0) scale(0.996264)"/>
      <use xlink:href="#CMR17-79" transform="translate(241.464686 0) scale(0.996264)"/>
     </g>
    </g>
   </g>
  </g>
 </g>
 <defs>
  <clipPath id="pb5d8cb6d65">
   <rect x="3.5" y="-0" width="188.600515" height="70.098056"/>
  </clipPath>
 </defs>
</svg>
