<?xml version="1.0" encoding="utf-8" standalone="no"?>
<!DOCTYPE svg PUBLIC "-//W3C//DTD SVG 1.1//EN"
  "http://www.w3.org/Graphics/SVG/1.1/DTD/svg11.dtd">
<svg xmlns:xlink="http://www.w3.org/1999/xlink" width="218.16pt" height="164.16pt" viewBox="0 0 218.16 164.16" xmlns="http://www.w3.org/2000/svg" version="1.1">
 <metadata>
  <rdf:RDF xmlns:dc="http://purl.org/dc/elements/1.1/" xmlns:cc="http://creativecommons.org/ns#" xmlns:rdf="http://www.w3.org/1999/02/22-rdf-syntax-ns#">
   <cc:Work>
    <dc:type rdf:resource="http://purl.org/dc/dcmitype/StillImage"/>
    <dc:date>2023-10-10T20:50:48.365204</dc:date>
    <dc:format>image/svg+xml</dc:format>
    <dc:creator>
     <cc:Agent>
      <dc:title>Matplotlib v3.7.0, https://matplotlib.org/</dc:title>
     </cc:Agent>
    </dc:creator>
   </cc:Work>
  </rdf:RDF>
 </metadata>
 <defs>
  <style type="text/css">*{stroke-linejoin: round; stroke-linecap: butt}</style>
 </defs>
 <g id="figure_1">
  <g id="patch_1">
   <path d="M 0 164.16 
L 218.16 164.16 
L 218.16 0 
L 0 0 
z
" style="fill: #ffffff"/>
  </g>
  <g id="axes_1">
   <g id="patch_2">
    <path d="M 3.5 126.814399 
L 207.917267 126.814399 
L 207.917267 0 
L 3.5 0 
z
" style="fill: #ffffff"/>
   </g>
   <g id="matplotlib.axis_1">
    <g id="xtick_1">
     <g id="line2d_1">
      <defs>
       <path id="ma877d5d804" d="M 0 0 
L 0 3.5 
" style="stroke: #000000; stroke-width: 0.8"/>
      </defs>
      <g>
       <use xlink:href="#ma877d5d804" x="19.638205" y="126.814399" style="stroke: #000000; stroke-width: 0.8"/>
      </g>
     </g>
     <g id="text_1">
      <!-- 25 -->
      <g transform="translate(12.809717 143.500275) scale(0.14 -0.14)">
       <defs>
        <path id="CMR17-32" d="M 2669 989 
L 2554 989 
C 2490 536 2438 459 2413 420 
C 2381 369 1920 369 1830 369 
L 602 369 
C 832 619 1280 1072 1824 1597 
C 2214 1967 2669 2402 2669 3035 
C 2669 3790 2067 4224 1395 4224 
C 691 4224 262 3604 262 3030 
C 262 2780 448 2748 525 2748 
C 589 2748 781 2787 781 3010 
C 781 3207 614 3264 525 3264 
C 486 3264 448 3258 422 3245 
C 544 3790 915 4058 1306 4058 
C 1862 4058 2227 3617 2227 3035 
C 2227 2479 1901 2000 1536 1584 
L 262 146 
L 262 0 
L 2515 0 
L 2669 989 
z
" transform="scale(0.015625)"/>
        <path id="CMR17-35" d="M 730 3692 
C 794 3666 1056 3584 1325 3584 
C 1920 3584 2246 3911 2432 4100 
C 2432 4157 2432 4192 2394 4192 
C 2387 4192 2374 4192 2323 4163 
C 2099 4058 1837 3973 1517 3973 
C 1325 3973 1037 3999 723 4139 
C 653 4171 640 4171 634 4171 
C 602 4171 595 4164 595 4037 
L 595 2203 
C 595 2089 595 2057 659 2057 
C 691 2057 704 2070 736 2114 
C 941 2401 1222 2522 1542 2522 
C 1766 2522 2246 2382 2246 1289 
C 2246 1085 2246 715 2054 421 
C 1894 159 1645 25 1370 25 
C 947 25 518 320 403 814 
C 429 807 480 795 506 795 
C 589 795 749 840 749 1038 
C 749 1210 627 1280 506 1280 
C 358 1280 262 1190 262 1011 
C 262 454 704 -128 1382 -128 
C 2042 -128 2669 440 2669 1264 
C 2669 2030 2170 2624 1549 2624 
C 1222 2624 947 2503 730 2274 
L 730 3692 
z
" transform="scale(0.015625)"/>
       </defs>
       <use xlink:href="#CMR17-32" transform="scale(0.996264)"/>
       <use xlink:href="#CMR17-35" transform="translate(45.690477 0) scale(0.996264)"/>
      </g>
     </g>
    </g>
    <g id="xtick_2">
     <g id="line2d_2">
      <g>
       <use xlink:href="#ma877d5d804" x="46.535214" y="126.814399" style="stroke: #000000; stroke-width: 0.8"/>
      </g>
     </g>
     <g id="text_2">
      <!-- 50 -->
      <g transform="translate(39.706725 143.500275) scale(0.14 -0.14)">
       <defs>
        <path id="CMR17-30" d="M 2688 2025 
C 2688 2416 2682 3080 2413 3591 
C 2176 4039 1798 4198 1466 4198 
C 1158 4198 768 4058 525 3597 
C 269 3118 243 2524 243 2025 
C 243 1661 250 1106 448 619 
C 723 -39 1216 -128 1466 -128 
C 1760 -128 2208 -7 2470 600 
C 2662 1042 2688 1559 2688 2025 
z
M 1466 -26 
C 1056 -26 813 325 723 812 
C 653 1188 653 1738 653 2096 
C 653 2588 653 2997 736 3387 
C 858 3929 1216 4096 1466 4096 
C 1728 4096 2067 3923 2189 3400 
C 2272 3036 2278 2607 2278 2096 
C 2278 1680 2278 1169 2202 792 
C 2067 95 1690 -26 1466 -26 
z
" transform="scale(0.015625)"/>
       </defs>
       <use xlink:href="#CMR17-35" transform="scale(0.996264)"/>
       <use xlink:href="#CMR17-30" transform="translate(45.690477 0) scale(0.996264)"/>
      </g>
     </g>
    </g>
    <g id="xtick_3">
     <g id="line2d_3">
      <g>
       <use xlink:href="#ma877d5d804" x="73.432223" y="126.814399" style="stroke: #000000; stroke-width: 0.8"/>
      </g>
     </g>
     <g id="text_3">
      <!-- 75 -->
      <g transform="translate(66.603734 143.500275) scale(0.14 -0.14)">
       <defs>
        <path id="CMR17-37" d="M 2886 3941 
L 2886 4081 
L 1382 4081 
C 634 4081 621 4165 595 4288 
L 480 4288 
L 294 3094 
L 410 3094 
C 429 3215 474 3540 550 3661 
C 589 3712 1062 3712 1171 3712 
L 2579 3712 
L 1869 2661 
C 1395 1954 1069 999 1069 165 
C 1069 89 1069 -128 1299 -128 
C 1530 -128 1530 89 1530 171 
L 1530 465 
C 1530 1508 1709 2196 2003 2636 
L 2886 3941 
z
" transform="scale(0.015625)"/>
       </defs>
       <use xlink:href="#CMR17-37" transform="scale(0.996264)"/>
       <use xlink:href="#CMR17-35" transform="translate(45.690477 0) scale(0.996264)"/>
      </g>
     </g>
    </g>
    <g id="xtick_4">
     <g id="line2d_4">
      <g>
       <use xlink:href="#ma877d5d804" x="100.329232" y="126.814399" style="stroke: #000000; stroke-width: 0.8"/>
      </g>
     </g>
     <g id="text_4">
      <!-- 100 -->
      <g transform="translate(90.086499 143.500275) scale(0.14 -0.14)">
       <defs>
        <path id="CMR17-31" d="M 1702 4058 
C 1702 4192 1696 4192 1606 4192 
C 1357 3916 979 3827 621 3827 
C 602 3827 570 3827 563 3808 
C 557 3795 557 3782 557 3648 
C 755 3648 1088 3686 1344 3839 
L 1344 461 
C 1344 236 1331 160 781 160 
L 589 160 
L 589 0 
C 896 0 1216 0 1523 0 
C 1830 0 2150 0 2458 0 
L 2458 160 
L 2266 160 
C 1715 160 1702 230 1702 458 
L 1702 4058 
z
" transform="scale(0.015625)"/>
       </defs>
       <use xlink:href="#CMR17-31" transform="scale(0.996264)"/>
       <use xlink:href="#CMR17-30" transform="translate(45.690477 0) scale(0.996264)"/>
       <use xlink:href="#CMR17-30" transform="translate(91.380954 0) scale(0.996264)"/>
      </g>
     </g>
    </g>
    <g id="xtick_5">
     <g id="line2d_5">
      <g>
       <use xlink:href="#ma877d5d804" x="127.226241" y="126.814399" style="stroke: #000000; stroke-width: 0.8"/>
      </g>
     </g>
     <g id="text_5">
      <!-- 125 -->
      <g transform="translate(116.983508 143.500275) scale(0.14 -0.14)">
       <use xlink:href="#CMR17-31" transform="scale(0.996264)"/>
       <use xlink:href="#CMR17-32" transform="translate(45.690477 0) scale(0.996264)"/>
       <use xlink:href="#CMR17-35" transform="translate(91.380954 0) scale(0.996264)"/>
      </g>
     </g>
    </g>
    <g id="xtick_6">
     <g id="line2d_6">
      <g>
       <use xlink:href="#ma877d5d804" x="154.123249" y="126.814399" style="stroke: #000000; stroke-width: 0.8"/>
      </g>
     </g>
     <g id="text_6">
      <!-- 150 -->
      <g transform="translate(143.880516 143.500275) scale(0.14 -0.14)">
       <use xlink:href="#CMR17-31" transform="scale(0.996264)"/>
       <use xlink:href="#CMR17-35" transform="translate(45.690477 0) scale(0.996264)"/>
       <use xlink:href="#CMR17-30" transform="translate(91.380954 0) scale(0.996264)"/>
      </g>
     </g>
    </g>
    <g id="xtick_7">
     <g id="line2d_7">
      <g>
       <use xlink:href="#ma877d5d804" x="181.020258" y="126.814399" style="stroke: #000000; stroke-width: 0.8"/>
      </g>
     </g>
     <g id="text_7">
      <!-- 175 -->
      <g transform="translate(170.777525 143.500275) scale(0.14 -0.14)">
       <use xlink:href="#CMR17-31" transform="scale(0.996264)"/>
       <use xlink:href="#CMR17-37" transform="translate(45.690477 0) scale(0.996264)"/>
       <use xlink:href="#CMR17-35" transform="translate(91.380954 0) scale(0.996264)"/>
      </g>
     </g>
    </g>
    <g id="xtick_8">
     <g id="line2d_8">
      <g>
       <use xlink:href="#ma877d5d804" x="207.917267" y="126.814399" style="stroke: #000000; stroke-width: 0.8"/>
      </g>
     </g>
     <g id="text_8">
      <!-- 200 -->
      <g transform="translate(197.674534 143.500275) scale(0.14 -0.14)">
       <use xlink:href="#CMR17-32" transform="scale(0.996264)"/>
       <use xlink:href="#CMR17-30" transform="translate(45.690477 0) scale(0.996264)"/>
       <use xlink:href="#CMR17-30" transform="translate(91.380954 0) scale(0.996264)"/>
      </g>
     </g>
    </g>
    <g id="text_9">
     <!-- RTT [ms] -->
     <g transform="translate(76.935346 160.673076) scale(0.14 -0.14)">
      <defs>
       <path id="CMR17-52" d="M 2509 2146 
C 3117 2268 3629 2676 3629 3186 
C 3629 3785 2950 4326 2054 4326 
L 333 4326 
L 333 4160 
C 774 4160 845 4160 845 3873 
L 845 415 
C 845 128 774 128 333 128 
L 333 -26 
C 518 -26 851 -26 1050 -26 
C 1248 -26 1581 -26 1766 -26 
L 1766 128 
C 1325 128 1254 128 1254 417 
L 1254 2112 
L 2003 2112 
C 2368 2112 2573 1964 2662 1881 
C 2918 1632 2918 1459 2918 1024 
C 2918 595 2918 377 3110 160 
C 3354 -102 3680 -128 3821 -128 
C 4294 -128 4365 396 4365 503 
C 4365 540 4365 585 4307 585 
C 4256 585 4250 547 4250 522 
C 4218 112 4032 -26 3834 -26 
C 3482 -26 3443 375 3405 764 
C 3386 898 3373 993 3360 1133 
C 3322 1452 3270 1917 2509 2146 
z
M 1984 2214 
L 1254 2214 
L 1254 3913 
C 1254 4129 1267 4160 1523 4160 
L 1990 4160 
C 2522 4160 3142 3977 3142 3190 
C 3142 2372 2464 2214 1984 2214 
z
" transform="scale(0.015625)"/>
       <path id="CMR17-54" d="M 3981 4326 
L 288 4326 
L 179 2918 
L 294 2918 
C 378 3976 467 4160 1453 4160 
C 1568 4160 1754 4160 1805 4154 
C 1926 4135 1926 4058 1926 3912 
L 1926 459 
C 1926 230 1907 160 1376 160 
L 1197 160 
L 1197 0 
C 1504 0 1824 0 2138 0 
C 2451 0 2771 0 3078 0 
L 3078 160 
L 2899 160 
C 2368 160 2349 230 2349 459 
L 2349 3912 
C 2349 4052 2349 4129 2464 4154 
C 2515 4160 2701 4160 2816 4160 
C 3795 4160 3891 3976 3974 2918 
L 4090 2918 
L 3981 4326 
z
" transform="scale(0.015625)"/>
       <path id="CMR17-5b" d="M 1504 -1600 
L 1504 -1377 
L 902 -1377 
L 902 4544 
L 1504 4544 
L 1504 4767 
L 678 4767 
L 678 -1600 
L 1504 -1600 
z
" transform="scale(0.015625)"/>
       <path id="CMR17-6d" d="M 4326 1933 
C 4326 2252 4269 2790 3507 2790 
C 3072 2790 2771 2496 2656 2151 
L 2650 2151 
C 2573 2676 2195 2790 1837 2790 
C 1331 2790 1069 2400 973 2144 
L 966 2144 
L 966 2790 
L 211 2720 
L 211 2554 
C 589 2554 646 2515 646 2208 
L 646 428 
C 646 184 621 153 211 153 
L 211 -13 
C 365 0 646 0 813 0 
C 979 0 1267 0 1421 -13 
L 1421 153 
C 1011 153 986 178 986 428 
L 986 1658 
C 986 2247 1344 2688 1792 2688 
C 2266 2688 2317 2266 2317 1958 
L 2317 428 
C 2317 184 2291 153 1882 153 
L 1882 -13 
C 2035 0 2317 0 2483 0 
C 2650 0 2938 0 3091 -13 
L 3091 153 
C 2682 153 2656 178 2656 428 
L 2656 1658 
C 2656 2247 3014 2688 3462 2688 
C 3936 2688 3987 2266 3987 1958 
L 3987 428 
C 3987 184 3962 153 3552 153 
L 3552 -13 
C 3706 0 3987 0 4154 0 
C 4320 0 4608 0 4762 -13 
L 4762 153 
C 4352 153 4326 178 4326 428 
L 4326 1933 
z
" transform="scale(0.015625)"/>
       <path id="CMR17-73" d="M 1978 2697 
C 1978 2813 1971 2819 1933 2819 
C 1907 2819 1901 2813 1824 2717 
C 1805 2691 1747 2626 1728 2601 
C 1523 2819 1235 2819 1126 2819 
C 416 2819 160 2447 160 2076 
C 160 1498 813 1365 998 1325 
C 1402 1243 1542 1217 1677 1101 
C 1760 1025 1901 884 1901 654 
C 1901 384 1747 38 1158 38 
C 602 38 403 460 288 1021 
C 269 1110 269 1117 218 1117 
C 166 1117 160 1110 160 983 
L 160 63 
C 160 -51 166 -58 205 -58 
C 237 -58 243 -51 275 0 
C 314 57 410 211 448 276 
C 576 103 800 -64 1158 -64 
C 1792 -64 2131 283 2131 784 
C 2131 1112 1958 1285 1875 1362 
C 1683 1561 1459 1606 1190 1657 
C 838 1735 390 1825 390 2217 
C 390 2383 480 2737 1126 2737 
C 1811 2737 1850 2094 1862 1888 
C 1869 1856 1901 1849 1920 1849 
C 1978 1849 1978 1869 1978 1978 
L 1978 2697 
z
" transform="scale(0.015625)"/>
       <path id="CMR17-5d" d="M 915 4767 
L 90 4767 
L 90 4544 
L 691 4544 
L 691 -1377 
L 90 -1377 
L 90 -1600 
L 915 -1600 
L 915 4767 
z
" transform="scale(0.015625)"/>
      </defs>
      <use xlink:href="#CMR17-52" transform="scale(0.996264)"/>
      <use xlink:href="#CMR17-54" transform="translate(59.983847 0) scale(0.996264)"/>
      <use xlink:href="#CMR17-54" transform="translate(126.493727 0) scale(0.996264)"/>
      <use xlink:href="#CMR17-5b" transform="translate(223.079574 0) scale(0.996264)"/>
      <use xlink:href="#CMR17-6d" transform="translate(247.950633 0) scale(0.996264)"/>
      <use xlink:href="#CMR17-73" transform="translate(324.870222 0) scale(0.996264)"/>
      <use xlink:href="#CMR17-5d" transform="translate(360.67156 0) scale(0.996264)"/>
     </g>
    </g>
   </g>
   <g id="matplotlib.axis_2">
    <g id="ytick_1">
     <g id="line2d_9">
      <path d="M 3.5 121.050108 
L 207.917267 121.050108 
" clip-path="url(#p3fc52e2c95)" style="fill: none; stroke: #b0b0b0; stroke-opacity: 0.7; stroke-width: 0.5; stroke-linecap: square"/>
     </g>
     <g id="line2d_10">
      <defs>
       <path id="m82b43be881" d="M 0 0 
L -3.5 0 
" style="stroke: #000000; stroke-width: 0.8"/>
      </defs>
      <g>
       <use xlink:href="#m82b43be881" x="3.5" y="121.050108" style="stroke: #000000; stroke-width: 0.8"/>
      </g>
     </g>
    </g>
    <g id="ytick_2">
     <g id="line2d_11">
      <path d="M 3.5 92.228654 
L 207.917267 92.228654 
" clip-path="url(#p3fc52e2c95)" style="fill: none; stroke: #b0b0b0; stroke-opacity: 0.7; stroke-width: 0.5; stroke-linecap: square"/>
     </g>
     <g id="line2d_12">
      <g>
       <use xlink:href="#m82b43be881" x="3.5" y="92.228654" style="stroke: #000000; stroke-width: 0.8"/>
      </g>
     </g>
    </g>
    <g id="ytick_3">
     <g id="line2d_13">
      <path d="M 3.5 63.4072 
L 207.917267 63.4072 
" clip-path="url(#p3fc52e2c95)" style="fill: none; stroke: #b0b0b0; stroke-opacity: 0.7; stroke-width: 0.5; stroke-linecap: square"/>
     </g>
     <g id="line2d_14">
      <g>
       <use xlink:href="#m82b43be881" x="3.5" y="63.4072" style="stroke: #000000; stroke-width: 0.8"/>
      </g>
     </g>
    </g>
    <g id="ytick_4">
     <g id="line2d_15">
      <path d="M 3.5 34.585745 
L 207.917267 34.585745 
" clip-path="url(#p3fc52e2c95)" style="fill: none; stroke: #b0b0b0; stroke-opacity: 0.7; stroke-width: 0.5; stroke-linecap: square"/>
     </g>
     <g id="line2d_16">
      <g>
       <use xlink:href="#m82b43be881" x="3.5" y="34.585745" style="stroke: #000000; stroke-width: 0.8"/>
      </g>
     </g>
    </g>
    <g id="ytick_5">
     <g id="line2d_17">
      <path d="M 3.5 5.764291 
L 207.917267 5.764291 
" clip-path="url(#p3fc52e2c95)" style="fill: none; stroke: #b0b0b0; stroke-opacity: 0.7; stroke-width: 0.5; stroke-linecap: square"/>
     </g>
     <g id="line2d_18">
      <g>
       <use xlink:href="#m82b43be881" x="3.5" y="5.764291" style="stroke: #000000; stroke-width: 0.8"/>
      </g>
     </g>
    </g>
   </g>
   <g id="line2d_19">
    <path d="M 8.650239 121.049836 
L 11.655173 120.92511 
L 12.912877 120.493052 
L 14.011351 119.52133 
L 14.827944 118.485206 
L 15.414299 117.902607 
L 15.756429 117.460767 
L 17.113114 115.93226 
L 18.554794 113.159481 
L 18.862496 112.227432 
L 19.637129 110.448929 
L 19.750097 109.994589 
L 20.09653 108.932107 
L 20.338603 108.210924 
L 20.71301 107.234582 
L 20.825977 106.636766 
L 22.09982 102.540639 
L 25.416759 94.725011 
L 25.874008 93.269057 
L 26.339864 91.847614 
L 26.692753 90.771002 
L 27.168292 88.581909 
L 27.282335 87.888442 
L 27.648135 87.003131 
L 27.911725 86.402054 
L 28.244172 85.540384 
L 28.35714 85.029523 
L 28.634717 83.9309 
L 28.899383 83.283357 
L 29.621299 81.782567 
L 30.131266 80.489111 
L 31.422323 77.630192 
L 31.881724 76.502494 
L 32.277648 75.804136 
L 34.670406 70.640365 
L 34.947983 70.01918 
L 35.229863 69.474624 
L 36.344475 66.705106 
L 36.666164 66.222233 
L 39.658187 61.157645 
L 40.078856 60.503037 
L 40.192899 60.265541 
L 40.561926 59.846526 
L 41.080501 59.261753 
L 41.154736 59.176701 
L 41.26878 58.991649 
L 41.557116 58.634047 
L 41.841148 58.308781 
L 41.979937 58.15987 
L 42.605023 57.41423 
L 44.088662 55.719151 
L 44.314597 55.410732 
L 44.500724 55.059107 
L 44.840703 54.808025 
L 45.05803 54.659114 
L 51.112009 50.211092 
L 51.504705 49.99778 
L 51.75431 49.858109 
L 51.936133 49.732295 
L 52.178207 49.604852 
L 52.98942 49.1016 
L 53.103464 48.988286 
L 53.693046 48.724976 
L 54.22991 48.457589 
L 54.637669 48.240201 
L 60.934797 45.183731 
L 61.270471 45.030201 
L 61.720189 44.733467 
L 62.672344 44.401408 
L 62.786387 44.33592 
L 63.947262 43.873971 
L 64.711137 43.567183 
L 64.940299 43.455771 
L 65.761196 43.13431 
L 66.251797 42.901161 
L 67.137247 42.563124 
L 67.569751 42.373996 
L 68.76613 41.957427 
L 69.725815 41.597107 
L 70.218568 41.358253 
L 70.95447 41.110431 
L 71.422478 40.939781 
L 71.813023 40.782991 
L 72.944849 40.382726 
L 74.021805 39.963168 
L 78.876178 38.00532 
L 80.143565 37.489568 
L 80.581448 37.293648 
L 87.417592 33.746969 
L 87.531635 33.631753 
L 88.163177 33.358117 
L 88.680675 33.104045 
L 88.945342 32.970895 
L 89.158366 32.879049 
L 89.569352 32.717367 
L 89.681244 32.640194 
L 90.276206 32.375796 
L 90.768959 32.141018 
L 91.327341 31.934771 
L 91.872812 31.660591 
L 92.435498 31.478257 
L 92.656053 31.413313 
L 93.119758 31.242935 
L 93.703961 31.072286 
L 94.154754 30.922832 
L 94.778765 30.732074 
L 95.260759 30.559251 
L 96.03109 30.250561 
L 96.334488 30.159258 
L 97.100515 29.969044 
L 97.213482 29.920675 
L 97.505046 29.839154 
L 98.357143 29.620136 
L 98.636872 29.546496 
L 99.297463 29.351391 
L 99.557826 29.29324 
L 100.284045 29.089711 
L 100.698259 28.959006 
L 101.404036 28.800042 
L 101.517004 28.757923 
L 106.695216 27.563921 
L 107.343972 27.425608 
L 109.146071 27.009855 
L 109.380613 26.970997 
L 111.084808 26.653882 
L 111.206382 26.624263 
L 111.433393 26.585405 
L 112.142398 26.454701 
L 112.588888 26.352801 
L 123.242256 24.671579 
L 124.561285 24.494136 
L 124.924933 24.434083 
L 125.846962 24.300933 
L 126.134222 24.250662 
L 128.170864 23.933276 
L 129.765318 23.644966 
L 131.060678 23.369699 
L 131.413567 23.315624 
L 132.296865 23.148779 
L 133.833222 22.778405 
L 134.006439 22.734927 
L 134.550834 22.596342 
L 136.093646 22.092275 
L 136.351858 21.988744 
L 138.915681 21.227072 
L 139.329895 21.051532 
L 140.162626 20.813221 
L 140.496149 20.69882 
L 141.021178 20.543116 
L 141.296604 20.422738 
L 141.786129 20.2491 
L 142.759801 19.881171 
L 143.27192 19.704544 
L 143.658161 19.551285 
L 144.28002 19.361343 
L 145.710941 18.885808 
L 146.030477 18.783092 
L 147.275271 18.354295 
L 148.125216 18.048865 
L 148.711571 17.88827 
L 149.408742 17.65947 
L 149.874598 17.508929 
L 151.963958 16.867092 
L 152.208182 16.777419 
L 153.064583 16.52063 
L 153.728401 16.309493 
L 154.387916 16.142919 
L 156.606381 15.512495 
L 157.289565 15.366845 
L 161.380062 14.448111 
L 162.107358 14.310885 
L 163.715799 14.018499 
L 164.673332 13.847034 
L 164.968123 13.758449 
L 165.983754 13.610625 
L 167.345819 13.413618 
L 168.403409 13.260903 
L 169.789143 13.062537 
L 170.106528 13.024494 
L 173.23734 12.6495 
L 174.181963 12.524502 
L 175.705409 12.375048 
L 181.784133 11.719353 
L 184.843937 11.453597 
L 185.571232 11.383761 
L 187.735903 11.18159 
L 188.395418 11.127787 
L 190.406238 10.960398 
L 191.143216 10.887845 
L 192.91304 10.748989 
L 193.202451 10.724533 
L 195.003475 10.541112 
L 195.136884 10.521004 
L 195.806082 10.466385 
L 199.286555 10.135412 
L 200.031064 10.061772 
L 203.231808 9.769386 
L 204.731585 9.629171 
L 207.918343 9.375371 
L 207.918343 9.375371 
" clip-path="url(#p3fc52e2c95)" style="fill: none; stroke: #1f77b4; stroke-width: 1.5; stroke-linecap: square"/>
   </g>
   <g id="line2d_20">
    <path d="M 8.73631 121.047967 
L 12.253363 120.838083 
L 12.894587 120.651759 
L 13.049514 120.583225 
L 13.941419 120.109917 
L 14.109256 120.009259 
L 14.257728 119.872193 
L 14.370695 119.767251 
L 15.284118 119.347485 
L 17.04103 117.443545 
L 18.200829 114.888538 
L 18.406322 114.316714 
L 18.485937 114.006173 
L 18.67852 113.175207 
L 18.815157 112.952473 
L 20.591435 109.174577 
L 20.805535 108.352177 
L 21.160576 107.399137 
L 22.02666 104.394381 
L 22.084757 104.244464 
L 23.400559 99.459985 
L 23.856732 98.305628 
L 24.121399 97.388995 
L 24.203166 97.15127 
L 24.409735 96.493779 
L 24.870211 95.114547 
L 25.015455 94.671223 
L 25.13165 94.067273 
L 27.103739 85.768322 
L 27.34366 84.211332 
L 27.4222 84.02929 
L 27.67288 83.483166 
L 27.808441 83.194041 
L 28.053741 82.669333 
L 28.244172 82.208875 
L 28.354988 81.756984 
L 28.637944 80.951718 
L 28.830527 80.46556 
L 28.917673 80.274952 
L 29.183416 79.671002 
L 30.369036 76.47778 
L 30.394857 76.430663 
L 30.504597 75.98948 
L 30.566998 75.852414 
L 30.693952 75.569714 
L 30.987667 74.852256 
L 31.300748 73.98274 
L 31.813943 72.393625 
L 33.521365 69.238953 
L 33.620346 69.089036 
L 33.742997 68.79777 
L 34.274482 67.986079 
L 34.404663 67.784762 
L 34.699454 67.350004 
L 34.81027 67.07373 
L 34.947983 66.883122 
L 35.09753 66.728922 
L 35.338527 66.396964 
L 35.618256 65.908664 
L 35.716161 65.711631 
L 36.174486 65.037006 
L 36.480036 64.820698 
L 36.609142 64.74574 
L 36.785586 64.602248 
L 37.014749 64.381657 
L 37.214863 64.229599 
L 37.412825 64.079682 
L 40.583444 62.098642 
L 41.001961 61.950867 
L 41.219289 61.837359 
L 41.631351 61.687443 
L 42.6373 61.351201 
L 43.447438 61.059935 
L 44.045627 60.931435 
L 44.775074 60.620894 
L 45.641158 60.47526 
L 46.088724 60.408869 
L 47.192577 60.250386 
L 47.543314 60.198986 
L 49.553059 59.867028 
L 50.506289 59.719253 
L 50.75912 59.678561 
L 52.891515 59.410853 
L 56.490335 59.031778 
L 57.374709 58.907562 
L 58.526977 58.84117 
L 61.361921 58.567037 
L 61.512545 58.539195 
L 62.773476 58.288621 
L 65.500833 57.45123 
L 66.08934 57.016472 
L 66.431469 56.842997 
L 66.721957 56.710214 
L 67.223317 56.339706 
L 67.399762 56.224056 
L 67.674111 56.042014 
L 68.054973 55.729331 
L 68.247556 55.58584 
L 68.457352 55.399515 
L 68.668225 55.22604 
L 70.187368 53.557683 
L 70.509056 53.159333 
L 70.908208 52.838084 
L 71.191164 52.521117 
L 73.431147 49.417845 
L 73.544114 49.184403 
L 73.677524 49.034487 
L 74.233754 48.173538 
L 74.397288 47.856571 
L 74.659802 47.261188 
L 75.676509 46.093981 
L 76.119772 45.455765 
L 76.253181 45.29514 
L 76.630815 44.783282 
L 76.742707 44.592674 
L 76.949276 44.324966 
L 77.090216 44.149349 
L 77.395766 43.787408 
L 77.876685 43.153475 
L 78.041294 42.9286 
L 78.171476 42.740134 
L 78.56202 42.209001 
L 78.692202 41.990551 
L 79.236597 41.15316 
L 79.419497 41.007527 
L 79.662646 40.769802 
L 79.886429 40.536361 
L 80.000472 40.390728 
L 80.233939 40.180845 
L 80.380258 40.04592 
L 82.462087 38.12913 
L 82.760106 37.85928 
L 82.909653 37.713647 
L 83.194761 37.392397 
L 83.381964 37.253189 
L 83.702577 37.060439 
L 84.143688 36.777739 
L 86.228744 35.520582 
L 86.525687 35.36424 
L 87.246527 35.017291 
L 90.072864 34.010708 
L 91.710354 33.60165 
L 91.820094 33.569525 
L 92.78731 33.428175 
L 92.978817 33.391767 
L 94.617383 33.173317 
L 95.381258 33.066234 
L 97.059631 32.867059 
L 97.159688 32.843501 
L 98.926284 32.682876 
L 99.203861 32.659318 
L 101.816098 32.39161 
L 102.704776 32.323076 
L 105.964693 32.038235 
L 106.124999 32.01896 
L 120.490154 31.014519 
L 122.33744 30.830336 
L 123.529516 30.697553 
L 123.784499 30.656861 
L 124.967968 30.46197 
L 125.442431 30.380586 
L 126.250417 30.228528 
L 126.38275 30.211395 
L 126.632355 30.177128 
L 129.261806 29.541054 
L 129.702917 29.374004 
L 130.12251 29.213379 
L 133.43407 27.776322 
L 133.587921 27.716355 
L 134.245284 27.384397 
L 134.469067 27.268747 
L 134.752024 27.103839 
L 134.881129 27.003181 
L 135.82898 26.508456 
L 135.952706 26.424931 
L 136.224904 26.264307 
L 136.391665 26.174357 
L 137.11896 25.765299 
L 138.257242 25.139932 
L 138.686518 24.919341 
L 139.13516 24.625933 
L 139.975423 24.2747 
L 140.089466 24.240433 
L 140.37565 24.090517 
L 140.954474 23.8121 
L 141.115856 23.735 
L 141.422482 23.572234 
L 142.097059 23.255267 
L 142.806064 22.985418 
L 144.315524 22.35791 
L 144.812581 22.175868 
L 145.021302 22.122327 
L 146.258564 21.786085 
L 146.508168 21.68971 
L 147.168759 21.509811 
L 147.379631 21.449844 
L 147.791694 21.306352 
L 150.002628 20.869453 
L 151.024714 20.695978 
L 152.025283 20.526786 
L 153.357223 20.355453 
L 154.274949 20.239803 
L 155.667138 20.008504 
L 155.819913 19.984945 
L 156.386902 19.843595 
L 164.870218 18.528613 
L 165.200514 18.470788 
L 166.875659 18.290888 
L 167.415751 18.222355 
L 170.12159 17.911814 
L 175.660222 17.275739 
L 175.829136 17.262889 
L 177.31923 17.078706 
L 178.120761 16.94164 
L 179.466687 16.688923 
L 180.58883 16.438348 
L 180.814765 16.367673 
L 182.086456 15.892224 
L 182.240307 15.810841 
L 183.156957 15.547416 
L 183.292518 15.493874 
L 183.708883 15.339674 
L 184.969815 14.868508 
L 185.216192 14.776416 
L 185.682048 14.58795 
L 185.921969 14.502283 
L 186.342638 14.3438 
L 186.520159 14.230292 
L 187.240998 13.9583 
L 187.537941 13.816951 
L 187.970445 13.617776 
L 192.649449 11.865894 
L 193.060435 11.726686 
L 193.207831 11.679569 
L 197.334908 10.619445 
L 202.817594 9.949104 
L 205.133965 9.794904 
L 206.861828 9.711379 
L 207.99473 9.647129 
L 207.99473 9.647129 
" clip-path="url(#p3fc52e2c95)" style="fill: none; stroke-dasharray: 1.5,2.475; stroke-dashoffset: 0; stroke: #ff7f0e; stroke-width: 1.5"/>
   </g>
   <g id="line2d_21">
    <path d="M 7.547462 121.047062 
L 10.904209 120.925201 
L 11.497019 120.797248 
L 11.961799 120.654063 
L 12.365254 120.343319 
L 12.526636 120.215366 
L 12.724598 120.050855 
L 14.100649 117.912209 
L 14.781681 116.297561 
L 14.849462 116.163515 
L 15.017299 115.910655 
L 15.490687 114.893123 
L 15.593971 114.64331 
L 15.675738 114.335613 
L 16.335253 112.797128 
L 16.408412 112.63871 
L 16.526759 112.309687 
L 16.908697 111.356131 
L 17.063624 110.847365 
L 17.189502 110.478738 
L 17.470306 109.525182 
L 17.485369 109.479485 
L 17.598336 108.961579 
L 18.11691 107.161095 
L 18.829143 103.764243 
L 19.941604 100.282088 
L 20.677506 97.640769 
L 20.71301 97.543281 
L 20.825977 96.918747 
L 21.36069 95.072566 
L 21.600611 93.972778 
L 21.767373 93.546267 
L 22.001914 92.836431 
L 22.089061 92.662781 
L 22.232153 92.303293 
L 22.469922 91.776248 
L 22.629153 91.371063 
L 22.706616 91.145622 
L 23.057353 89.79602 
L 23.532892 88.781534 
L 23.807242 88.202698 
L 23.965396 87.797513 
L 24.584027 86.371749 
L 24.688388 86.185912 
L 24.857301 85.85689 
L 24.945523 85.680193 
L 25.197279 85.086124 
L 25.290881 84.888102 
L 25.96223 83.313059 
L 26.070894 83.10285 
L 26.563647 81.936039 
L 27.177975 79.870509 
L 27.321067 79.511021 
L 27.58143 79.090604 
L 27.687942 78.950465 
L 27.834262 78.758535 
L 27.928939 78.624489 
L 28.464728 77.673979 
L 28.835906 76.948911 
L 28.94457 76.787447 
L 29.147912 76.54068 
L 29.329736 76.220797 
L 29.624527 75.839984 
L 29.73857 75.696798 
L 29.917166 75.46831 
L 30.228096 74.919939 
L 30.394857 74.700591 
L 30.511052 74.389848 
L 30.742366 74.066918 
L 30.908052 73.817105 
L 32.187274 71.638854 
L 34.118479 69.095023 
L 34.222839 68.960977 
L 34.452002 68.64414 
L 35.039433 68.001328 
L 35.234167 67.763701 
L 36.353082 66.356216 
L 36.639267 66.185611 
L 37.878681 65.356962 
L 39.305298 64.479569 
L 40.050883 64.129221 
L 40.175685 64.040872 
L 40.631859 63.851989 
L 41.33656 63.556478 
L 42.040186 63.285339 
L 42.25321 63.157386 
L 43.304345 62.77962 
L 43.418389 62.71869 
L 43.984302 62.52676 
L 44.686852 62.164226 
L 45.289345 61.996668 
L 45.844499 61.832157 
L 46.069358 61.759041 
L 46.95158 61.539692 
L 47.432498 61.430018 
L 48.253395 61.2716 
L 48.613815 61.180205 
L 49.010815 61.033973 
L 50.588055 60.65316 
L 51.689757 60.45209 
L 52.494515 60.263207 
L 53.033531 60.132207 
L 53.225038 60.08651 
L 54.637669 59.827557 
L 55.072325 59.739208 
L 55.605961 59.592976 
L 62.82727 58.423118 
L 64.161362 58.276886 
L 65.652532 58.097142 
L 68.664997 57.70719 
L 69.590254 57.567051 
L 71.908776 57.07047 
L 72.078765 57.021726 
L 72.269196 56.982122 
L 72.593036 56.857215 
L 72.923332 56.720122 
L 77.307544 54.529686 
L 77.451712 54.444384 
L 77.721758 54.285966 
L 77.884216 54.136687 
L 78.266153 53.932571 
L 80.18122 52.710923 
L 80.466329 52.57383 
L 81.115085 52.241761 
L 81.417407 52.101622 
L 81.55512 52.013273 
L 81.854214 51.851809 
L 82.158688 51.708623 
L 82.543854 51.550205 
L 82.700932 51.437484 
L 83.109767 51.26688 
L 83.232417 51.163299 
L 83.927436 50.898253 
L 84.535308 50.627114 
L 84.681628 50.541812 
L 85.322853 50.288952 
L 86.81725 49.704023 
L 87.016288 49.609581 
L 87.414364 49.435931 
L 87.551001 49.350628 
L 88.371898 49.082536 
L 89.556442 48.741328 
L 89.7189 48.665165 
L 90.264371 48.45191 
L 91.364997 48.004074 
L 91.715734 47.873074 
L 91.836232 47.799958 
L 92.657129 47.601935 
L 96.672314 46.44731 
L 97.351195 46.291938 
L 104.51871 44.82657 
L 104.637057 44.799151 
L 105.680661 44.610268 
L 105.981907 44.521919 
L 107.431118 44.275152 
L 107.564527 44.229455 
L 110.376878 43.674991 
L 114.761091 42.898132 
L 116.341559 42.678784 
L 116.719193 42.605668 
L 117.619705 42.43811 
L 129.839554 41.045858 
L 129.934231 41.021486 
L 131.021946 40.81737 
L 133.215667 39.924744 
L 133.389959 39.763279 
L 133.941886 39.388559 
L 134.125861 39.242327 
L 136.263636 37.076262 
L 136.405652 36.890426 
L 136.816638 36.466962 
L 136.993082 36.195823 
L 137.264204 35.915544 
L 137.421283 35.732754 
L 137.648294 35.406778 
L 137.797841 35.230081 
L 137.922643 35.096035 
L 138.044218 34.916291 
L 138.228193 34.718268 
L 138.440142 34.471501 
L 138.658545 34.179037 
L 138.769361 34.032805 
L 139.60532 32.689296 
L 139.944222 32.317623 
L 140.067948 32.17139 
L 140.157247 32.034298 
L 140.361664 31.787531 
L 140.512287 31.546857 
L 140.727463 31.257439 
L 140.915742 31.050277 
L 141.121235 30.797417 
L 141.211609 30.678603 
L 141.322425 30.447069 
L 141.558043 30.145465 
L 142.029278 29.490467 
L 142.198192 29.268072 
L 142.356346 28.996933 
L 142.631771 28.73798 
L 142.756573 28.588701 
L 142.906121 28.427237 
L 143.978774 27.098961 
L 144.388684 26.739473 
L 144.600632 26.468334 
L 148.574934 22.86432 
L 148.752455 22.73332 
L 149.257043 22.395158 
L 149.5712 22.248926 
L 150.259763 21.749299 
L 150.495381 21.560416 
L 151.521771 20.740906 
L 151.892949 20.47586 
L 152.025283 20.347907 
L 152.43089 20.064582 
L 152.575058 19.982327 
L 153.032307 19.729467 
L 153.171095 19.622839 
L 153.362602 19.455281 
L 153.526136 19.315142 
L 154.118946 19.007445 
L 154.237293 18.931283 
L 155.17546 18.483446 
L 155.351905 18.41033 
L 156.058758 18.136145 
L 156.295452 17.98382 
L 156.438544 17.910704 
L 157.024899 17.72182 
L 157.188433 17.648704 
L 157.868389 17.472007 
L 158.655933 17.270938 
L 159.499424 17.015031 
L 159.605936 16.957148 
L 160.481702 16.771311 
L 160.622643 16.695148 
L 168.644407 15.059176 
L 171.3255 14.721014 
L 171.598774 14.696642 
L 173.325562 14.483386 
L 174.391759 14.312782 
L 175.999125 14.139131 
L 180.467256 13.72176 
L 187.47554 13.149017 
L 188.264161 13.091134 
L 190.824756 12.896158 
L 192.970061 12.71946 
L 194.606475 12.588461 
L 197.414523 12.332554 
L 198.866962 12.189369 
L 199.722286 12.052276 
L 202.20757 11.814648 
L 202.3356 11.799416 
L 204.161369 11.598347 
L 204.520713 11.567882 
L 207.235159 11.360719 
L 207.931254 11.251045 
L 207.931254 11.251045 
" clip-path="url(#p3fc52e2c95)" style="fill: none; stroke-dasharray: 5.55,2.4; stroke-dashoffset: 0; stroke: #2ca02c; stroke-width: 1.5"/>
   </g>
   <g id="line2d_22">
    <path d="M 8.042367 121.043541 
L 10.951547 120.918758 
L 11.439997 120.780841 
L 12.285639 120.419629 
L 13.885473 118.29176 
L 14.070524 117.84517 
L 14.141533 117.615308 
L 14.253424 117.135881 
L 14.681625 116.170459 
L 14.855917 115.901192 
L 15.179757 115.244442 
L 15.25722 115.080255 
L 15.487459 114.35783 
L 15.687573 113.852133 
L 17.485369 108.131844 
L 17.594033 107.547337 
L 17.669344 107.337177 
L 18.510683 103.44922 
L 18.649471 101.938696 
L 18.780729 101.314784 
L 19.981411 97.302044 
L 20.116972 96.691267 
L 20.677506 94.629073 
L 21.101403 92.691662 
L 21.14659 92.507772 
L 21.882492 88.672355 
L 21.947045 88.488465 
L 22.084757 88.166658 
L 22.285947 87.601853 
L 22.348348 87.404828 
L 22.63776 86.308057 
L 22.699085 86.097897 
L 22.891667 85.106205 
L 23.739461 82.860121 
L 23.809393 82.702502 
L 24.040708 81.934105 
L 24.098805 81.750215 
L 24.298919 81.21168 
L 24.811038 79.996693 
L 24.95413 79.648616 
L 25.167154 79.018136 
L 25.302715 78.683194 
L 25.487767 78.22347 
L 25.52865 78.072417 
L 26.517384 75.406014 
L 26.662628 75.057937 
L 26.869197 74.466862 
L 26.953116 74.223865 
L 27.356571 72.424371 
L 28.077411 71.537759 
L 28.660538 70.30307 
L 28.829451 70.073208 
L 29.544912 69.311378 
L 29.67079 69.120921 
L 30.108673 68.464171 
L 30.332456 68.208039 
L 30.861789 67.590694 
L 31.281382 67.137537 
L 31.410488 66.887972 
L 31.978553 66.218088 
L 32.348656 65.955388 
L 32.68433 65.640148 
L 32.841409 65.429988 
L 33.066268 65.160721 
L 33.470799 64.898021 
L 33.753756 64.681294 
L 33.993677 64.543376 
L 35.271823 63.807817 
L 35.587056 63.623927 
L 36.000194 63.151067 
L 36.279923 63.000015 
L 36.407952 62.96061 
L 37.56022 62.415508 
L 37.928171 62.27759 
L 38.323019 62.073998 
L 38.601672 61.916378 
L 39.127778 61.679948 
L 39.6442 61.496058 
L 40.065946 61.285898 
L 40.2241 61.154549 
L 40.485539 61.036334 
L 41.8745 60.681689 
L 42.021896 60.609446 
L 42.966519 60.373017 
L 46.128531 59.558647 
L 46.968794 59.414162 
L 50.063026 58.809953 
L 50.237318 58.718008 
L 52.937778 58.232013 
L 53.810317 58.034988 
L 60.711014 56.957919 
L 61.541593 56.820001 
L 63.854736 56.439087 
L 65.11782 56.268332 
L 65.404004 56.215792 
L 66.018331 56.064739 
L 70.630631 55.099318 
L 71.010416 54.98767 
L 71.596771 54.823483 
L 75.946555 53.818656 
L 77.145086 53.615064 
L 78.520061 53.391769 
L 79.537844 53.234149 
L 80.11344 53.135636 
L 81.260328 52.997719 
L 83.819848 52.643074 
L 85.364812 52.413212 
L 85.369115 52.406644 
L 86.444996 52.255592 
L 86.609606 52.20962 
L 87.385315 51.992892 
L 88.694662 51.690787 
L 89.291775 51.546303 
L 89.534924 51.47406 
L 90.296647 51.303305 
L 90.86794 51.086578 
L 91.051915 51.0012 
L 91.910468 50.567746 
L 92.534479 50.410126 
L 92.704468 50.344451 
L 95.991282 48.551525 
L 96.415179 48.269122 
L 97.484604 47.769993 
L 97.676111 47.69775 
L 98.239872 47.415348 
L 98.36575 47.375943 
L 98.87249 47.159215 
L 99.011278 47.093541 
L 99.229682 46.975326 
L 99.695538 46.725761 
L 100.260375 46.449926 
L 100.407771 46.351414 
L 101.028554 46.108416 
L 101.405112 45.898256 
L 101.638578 45.793176 
L 102.164684 45.576449 
L 102.314231 45.471369 
L 102.662816 45.241507 
L 103.024312 45.090454 
L 103.453588 44.854025 
L 103.710724 44.70954 
L 104.269106 44.545352 
L 104.474599 44.479677 
L 104.615539 44.354895 
L 104.917861 44.243247 
L 105.479471 44.065925 
L 108.254166 43.185881 
L 108.983613 42.995423 
L 110.944943 42.529131 
L 111.694832 42.378079 
L 112.587813 42.187621 
L 113.810013 41.984029 
L 113.926208 41.970894 
L 115.001012 41.773869 
L 116.053223 41.550574 
L 116.245806 41.478332 
L 117.431426 41.353549 
L 121.788741 40.48664 
L 121.929682 40.420965 
L 123.336933 40.01378 
L 123.538123 39.921835 
L 124.183651 39.659136 
L 124.263266 39.606596 
L 124.614003 39.448976 
L 125.473631 38.838199 
L 125.739374 38.628039 
L 126.67539 37.774264 
L 126.890566 37.557537 
L 127.177826 37.373647 
L 128.845441 35.521613 
L 129.234909 34.969944 
L 129.376925 34.779486 
L 129.489893 34.543056 
L 129.851389 34.083332 
L 130.004164 33.827199 
L 130.107448 33.682715 
L 130.588367 32.56624 
L 130.758356 32.369215 
L 130.954166 32.113083 
L 131.239274 31.791276 
L 131.381291 31.581116 
L 131.86974 30.930934 
L 132.534634 29.991782 
L 132.686333 29.715947 
L 132.84126 29.453247 
L 133.335089 28.678283 
L 133.484637 28.441853 
L 133.634184 28.277666 
L 133.870878 27.903318 
L 134.579883 26.865654 
L 134.735885 26.596387 
L 134.841322 26.359957 
L 134.986566 26.123527 
L 135.161934 25.9068 
L 135.281357 25.742612 
L 135.466408 25.499615 
L 135.586907 25.368265 
L 135.748289 25.177808 
L 135.880622 24.888838 
L 135.983907 24.750921 
L 136.156048 24.376573 
L 136.618676 23.686986 
L 136.812335 23.476826 
L 137.712846 22.301245 
L 138.228193 21.861223 
L 138.348692 21.723305 
L 138.558488 21.519713 
L 138.767209 21.26358 
L 138.903846 21.066556 
L 139.04371 20.902368 
L 139.49558 20.396671 
L 139.736577 20.193079 
L 139.921629 20.035459 
L 140.122818 19.910676 
L 140.257303 19.707084 
L 140.584371 19.418114 
L 143.922828 16.981573 
L 144.266034 16.823953 
L 144.447857 16.666334 
L 145.131041 16.370796 
L 148.17901 14.912812 
L 148.981617 14.742057 
L 150.005855 14.44652 
L 151.279698 14.098443 
L 151.918771 13.960525 
L 154.123249 13.494233 
L 155.165777 13.356316 
L 155.318552 13.310343 
L 156.142677 13.159291 
L 162.56891 12.167599 
L 164.260194 11.983709 
L 164.489357 11.937737 
L 167.71377 11.464877 
L 168.278607 11.40577 
L 169.923628 11.22188 
L 170.171081 11.182475 
L 171.65472 10.939477 
L 171.741866 10.913207 
L 173.762369 10.689913 
L 174.484285 10.61767 
L 176.077664 10.479753 
L 179.000831 10.177648 
L 180.089622 10.09227 
L 182.512504 9.888678 
L 182.520035 9.882111 
L 184.834254 9.691653 
L 195.219727 8.988931 
L 203.613746 8.476667 
L 208.178706 8.358452 
L 208.178706 8.358452 
" clip-path="url(#p3fc52e2c95)" style="fill: none; stroke-dasharray: 9.6,2.4,1.5,2.4; stroke-dashoffset: 0; stroke: #d62728; stroke-width: 1.5"/>
   </g>
   <g id="patch_3">
    <path d="M 3.5 126.814399 
L 3.5 0 
" style="fill: none; stroke: #000000; stroke-width: 0.8; stroke-linejoin: miter; stroke-linecap: square"/>
   </g>
   <g id="patch_4">
    <path d="M 207.917267 126.814399 
L 207.917267 0 
" style="fill: none; stroke: #000000; stroke-width: 0.8; stroke-linejoin: miter; stroke-linecap: square"/>
   </g>
   <g id="patch_5">
    <path d="M 3.5 126.814399 
L 207.917267 126.814399 
" style="fill: none; stroke: #000000; stroke-width: 0.8; stroke-linejoin: miter; stroke-linecap: square"/>
   </g>
   <g id="patch_6">
    <path d="M 3.5 0 
L 207.917267 0 
" style="fill: none; stroke: #000000; stroke-width: 0.8; stroke-linejoin: miter; stroke-linecap: square"/>
   </g>
   <g id="legend_1">
    <g id="patch_7">
     <path d="M 69.788867 120.983399 
L 202.086267 120.983399 
L 202.086267 90.109005 
L 69.788867 90.109005 
z
" style="fill: #ffffff; opacity: 0.8; stroke: #000000; stroke-linejoin: miter"/>
    </g>
    <g id="line2d_23">
     <path d="M 74.453667 98.855505 
L 80.284667 98.855505 
L 86.115667 98.855505 
" style="fill: none; stroke-dasharray: 5.55,2.4; stroke-dashoffset: 0; stroke: #2ca02c; stroke-width: 1.5"/>
    </g>
    <g id="text_10">
     <!-- Bogotá -->
     <g transform="translate(89.614267 102.937205) scale(0.11662 -0.11662)">
      <defs>
       <path id="CMR17-42" d="M 333 4352 
L 333 4186 
C 774 4186 845 4186 845 3900 
L 845 452 
C 845 166 774 166 333 166 
L 333 0 
L 2534 0 
C 3354 0 3885 583 3885 1164 
C 3885 1741 3360 2233 2675 2233 
C 3290 2356 3718 2771 3718 3264 
C 3718 3802 3194 4352 2368 4352 
L 333 4352 
z
M 1248 2304 
L 1248 3937 
C 1248 4155 1261 4186 1517 4186 
L 2336 4186 
C 2970 4186 3251 3674 3251 3277 
C 3251 2791 2861 2304 2170 2304 
L 1248 2304 
z
M 1517 166 
C 1261 166 1248 197 1248 413 
L 1248 2202 
L 2432 2202 
C 3091 2202 3411 1625 3411 1162 
C 3411 699 3046 166 2349 166 
L 1517 166 
z
" transform="scale(0.015625)"/>
       <path id="CMR17-6f" d="M 2758 1356 
C 2758 2176 2163 2816 1466 2816 
C 768 2816 173 2176 173 1356 
C 173 551 768 -64 1466 -64 
C 2163 -64 2758 551 2758 1356 
z
M 1466 51 
C 1165 51 909 230 762 480 
C 602 767 582 1126 582 1408 
C 582 1677 595 2010 762 2298 
C 890 2509 1139 2714 1466 2714 
C 1754 2714 1997 2554 2150 2330 
C 2349 2029 2349 1607 2349 1408 
C 2349 1158 2336 775 2163 467 
C 1984 173 1709 51 1466 51 
z
" transform="scale(0.015625)"/>
       <path id="CMR17-67" d="M 710 1164 
C 832 1068 1043 960 1299 960 
C 1805 960 2240 1357 2240 1888 
C 2240 2054 2189 2310 1997 2509 
C 2176 2692 2438 2752 2586 2752 
C 2611 2752 2650 2752 2682 2734 
C 2656 2728 2598 2703 2598 2605 
C 2598 2527 2656 2471 2739 2471 
C 2835 2471 2886 2533 2886 2614 
C 2886 2731 2790 2854 2586 2854 
C 2330 2854 2106 2738 1926 2580 
C 1734 2753 1504 2816 1299 2816 
C 794 2816 358 2419 358 1888 
C 358 1522 570 1292 634 1228 
C 442 1004 442 743 442 711 
C 442 545 506 302 723 168 
C 390 85 128 -169 128 -486 
C 128 -943 736 -1280 1466 -1280 
C 2170 -1280 2803 -956 2803 -479 
C 2803 384 1856 384 1363 384 
C 1216 384 954 384 922 391 
C 723 423 589 602 589 826 
C 589 883 589 1024 710 1164 
z
M 1299 1068 
C 736 1068 736 1760 736 1889 
C 736 2016 736 2708 1299 2708 
C 1862 2708 1862 2016 1862 1889 
C 1862 1760 1862 1068 1299 1068 
z
M 1466 -1171 
C 826 -1171 384 -835 384 -486 
C 384 -289 493 -105 634 -4 
C 794 104 858 104 1293 104 
C 1818 104 2547 104 2547 -486 
C 2547 -835 2106 -1171 1466 -1171 
z
" transform="scale(0.015625)"/>
       <path id="CMR17-74" d="M 966 2560 
L 1862 2560 
L 1862 2725 
L 966 2725 
L 966 3904 
L 851 3904 
C 838 3245 614 2668 70 2668 
L 70 2560 
L 627 2560 
L 627 771 
C 627 650 627 -64 1370 -64 
C 1747 -64 1965 306 1965 777 
L 1965 1140 
L 1850 1140 
L 1850 783 
C 1850 344 1677 51 1408 51 
C 1222 51 966 178 966 758 
L 966 2560 
z
" transform="scale(0.015625)"/>
       <path id="CMR17-13" d="M 2221 4091 
C 2298 4161 2317 4174 2317 4244 
C 2317 4339 2234 4416 2144 4416 
C 2067 4416 2042 4384 1978 4308 
L 1254 3390 
C 1210 3333 1210 3327 1210 3320 
C 1210 3314 1267 3256 1280 3244 
L 2221 4091 
z
" transform="scale(0.015625)"/>
       <path id="CMR17-61" d="M 2304 1653 
C 2304 2072 2304 2294 2035 2543 
C 1798 2752 1523 2816 1306 2816 
C 800 2816 435 2407 435 1971 
C 435 1728 627 1728 666 1728 
C 749 1728 896 1778 896 1954 
C 896 2112 774 2181 666 2181 
C 640 2181 608 2174 589 2168 
C 723 2592 1069 2714 1293 2714 
C 1613 2714 1965 2429 1965 1885 
L 1965 1600 
C 1587 1600 1133 1549 774 1357 
C 371 1133 256 813 256 570 
C 256 77 832 -64 1171 -64 
C 1523 -64 1850 139 1990 511 
C 2003 233 2182 -18 2464 -18 
C 2598 -18 2938 70 2938 567 
L 2938 920 
L 2822 920 
L 2822 562 
C 2822 178 2650 128 2566 128 
C 2304 128 2304 458 2304 738 
L 2304 1653 
z
M 1965 870 
C 1965 317 1568 38 1216 38 
C 896 38 646 275 646 570 
C 646 761 730 1100 1101 1305 
C 1408 1478 1760 1504 1965 1504 
L 1965 870 
z
" transform="scale(0.015625)"/>
      </defs>
      <use xlink:href="#CMR17-42" transform="scale(0.996264)"/>
      <use xlink:href="#CMR17-6f" transform="translate(65.188754 0) scale(0.996264)"/>
      <use xlink:href="#CMR17-67" transform="translate(110.879232 0) scale(0.996264)"/>
      <use xlink:href="#CMR17-6f" transform="translate(156.569709 0) scale(0.996264)"/>
      <use xlink:href="#CMR17-74" transform="translate(202.260186 0) scale(0.996264)"/>
      <use xlink:href="#CMR17-13" transform="translate(237.540954 0) scale(0.996264)"/>
      <use xlink:href="#CMR17-61" transform="translate(237.540954 0) scale(0.996264)"/>
     </g>
    </g>
    <g id="line2d_24">
     <path d="M 74.453667 109.977762 
L 80.284667 109.977762 
L 86.115667 109.977762 
" style="fill: none; stroke-dasharray: 9.6,2.4,1.5,2.4; stroke-dashoffset: 0; stroke: #d62728; stroke-width: 1.5"/>
    </g>
    <g id="text_11">
     <!-- Lima -->
     <g transform="translate(89.614267 114.059462) scale(0.11662 -0.11662)">
      <defs>
       <path id="CMR17-4c" d="M 3469 1615 
L 3354 1615 
C 3302 983 3219 166 2125 166 
L 1530 166 
C 1274 166 1261 197 1261 414 
L 1261 3898 
C 1261 4129 1274 4192 1760 4192 
L 1901 4192 
L 1901 4352 
C 1638 4352 1331 4352 1069 4352 
C 870 4352 512 4352 326 4352 
L 326 4192 
C 768 4192 838 4192 838 3905 
L 838 452 
C 838 166 768 166 326 166 
L 326 0 
L 3315 0 
L 3469 1615 
z
" transform="scale(0.015625)"/>
       <path id="CMR17-69" d="M 992 3909 
C 992 4049 877 4170 730 4170 
C 589 4170 467 4056 467 3909 
C 467 3769 582 3648 730 3648 
C 870 3648 992 3763 992 3909 
z
M 243 2706 
L 243 2541 
C 602 2541 653 2502 653 2197 
L 653 427 
C 653 184 627 153 218 153 
L 218 -13 
C 371 0 646 0 806 0 
C 960 0 1222 0 1370 -13 
L 1370 153 
C 992 153 979 191 979 420 
L 979 2776 
L 243 2706 
z
" transform="scale(0.015625)"/>
      </defs>
      <use xlink:href="#CMR17-4c" transform="scale(0.996264)"/>
      <use xlink:href="#CMR17-69" transform="translate(57.381408 0) scale(0.996264)"/>
      <use xlink:href="#CMR17-6d" transform="translate(82.252466 0) scale(0.996264)"/>
      <use xlink:href="#CMR17-61" transform="translate(159.172056 0) scale(0.996264)"/>
     </g>
    </g>
    <g id="line2d_25">
     <path d="M 131.430196 98.855505 
L 137.261196 98.855505 
L 143.092196 98.855505 
" style="fill: none; stroke-dasharray: 1.5,2.475; stroke-dashoffset: 0; stroke: #ff7f0e; stroke-width: 1.5"/>
    </g>
    <g id="text_12">
     <!-- Santiago -->
     <g transform="translate(146.590796 102.937205) scale(0.11662 -0.11662)">
      <defs>
       <path id="CMR17-53" d="M 2803 4290 
C 2803 4404 2797 4411 2758 4411 
C 2720 4411 2707 4385 2682 4328 
L 2490 3907 
C 2246 4257 1875 4416 1472 4416 
C 819 4416 294 3901 294 3253 
C 294 3056 339 2776 557 2510 
C 794 2218 1018 2167 1530 2033 
C 1722 1982 2042 1899 2106 1874 
C 2470 1722 2662 1341 2662 985 
C 2662 527 2336 38 1779 38 
C 1094 38 454 419 410 1311 
C 403 1413 397 1419 352 1419 
C 301 1419 294 1413 294 1285 
L 294 -1 
C 294 -115 301 -122 339 -122 
C 384 -122 397 -90 486 108 
C 493 127 493 140 614 381 
C 934 -39 1472 -128 1779 -128 
C 2477 -128 2970 451 2970 1124 
C 2970 1454 2848 1708 2778 1823 
C 2509 2230 2221 2306 1914 2382 
C 1869 2402 1856 2402 1498 2490 
C 1152 2579 1005 2624 845 2796 
C 666 2992 602 3196 602 3399 
C 602 3812 934 4263 1478 4263 
C 2157 4263 2579 3786 2675 2993 
C 2694 2878 2701 2872 2746 2872 
C 2803 2872 2803 2891 2803 2999 
L 2803 4290 
z
" transform="scale(0.015625)"/>
       <path id="CMR17-6e" d="M 2656 1933 
C 2656 2259 2592 2790 1837 2790 
C 1331 2790 1069 2400 973 2144 
L 966 2144 
L 966 2790 
L 211 2720 
L 211 2554 
C 589 2554 646 2515 646 2208 
L 646 428 
C 646 184 621 153 211 153 
L 211 -13 
C 365 0 646 0 813 0 
C 979 0 1267 0 1421 -13 
L 1421 153 
C 1011 153 986 178 986 428 
L 986 1658 
C 986 2247 1344 2688 1792 2688 
C 2266 2688 2317 2266 2317 1958 
L 2317 428 
C 2317 184 2291 153 1882 153 
L 1882 -13 
C 2035 0 2317 0 2483 0 
C 2650 0 2938 0 3091 -13 
L 3091 153 
C 2682 153 2656 178 2656 428 
L 2656 1933 
z
" transform="scale(0.015625)"/>
      </defs>
      <use xlink:href="#CMR17-53" transform="scale(0.996264)"/>
      <use xlink:href="#CMR17-61" transform="translate(50.89537 0) scale(0.996264)"/>
      <use xlink:href="#CMR17-6e" transform="translate(96.585847 0) scale(0.996264)"/>
      <use xlink:href="#CMR17-74" transform="translate(144.878763 0) scale(0.996264)"/>
      <use xlink:href="#CMR17-69" transform="translate(180.159531 0) scale(0.996264)"/>
      <use xlink:href="#CMR17-61" transform="translate(205.030589 0) scale(0.996264)"/>
      <use xlink:href="#CMR17-67" transform="translate(250.721066 0) scale(0.996264)"/>
      <use xlink:href="#CMR17-6f" transform="translate(296.411543 0) scale(0.996264)"/>
     </g>
    </g>
    <g id="line2d_26">
     <path d="M 131.430196 109.977762 
L 137.261196 109.977762 
L 143.092196 109.977762 
" style="fill: none; stroke: #1f77b4; stroke-width: 1.5; stroke-linecap: square"/>
    </g>
    <g id="text_13">
     <!-- São Paulo -->
     <g transform="translate(146.590796 114.059462) scale(0.11662 -0.11662)">
      <defs>
       <path id="CMR17-7e" d="M 2400 4184 
C 2182 3980 2061 3865 1862 3865 
C 1722 3865 1626 3932 1491 4024 
C 1363 4111 1261 4184 1120 4184 
C 890 4184 730 4004 461 3718 
L 531 3648 
C 749 3850 870 3968 1069 3968 
C 1210 3968 1306 3900 1440 3808 
C 1568 3722 1670 3648 1811 3648 
C 2042 3648 2202 3828 2470 4114 
L 2400 4184 
z
" transform="scale(0.015625)"/>
       <path id="CMR17-50" d="M 1267 2042 
L 2291 2042 
C 3117 2042 3718 2578 3718 3184 
C 3718 3791 3130 4352 2291 4352 
L 333 4352 
L 333 4186 
C 774 4186 845 4186 845 3899 
L 845 446 
C 845 160 774 160 333 160 
L 333 0 
C 518 0 858 0 1056 0 
C 1254 0 1594 0 1779 0 
L 1779 160 
C 1338 160 1267 160 1267 446 
L 1267 2042 
z
M 1254 2176 
L 1254 3938 
C 1254 4155 1267 4186 1523 4186 
L 2170 4186 
C 2995 4186 3232 3714 3232 3184 
C 3232 2604 2950 2176 2170 2176 
L 1254 2176 
z
" transform="scale(0.015625)"/>
       <path id="CMR17-75" d="M 1882 2693 
L 1882 2528 
C 2259 2528 2317 2489 2317 2186 
L 2317 1032 
C 2317 500 2029 38 1555 38 
C 1030 38 986 348 986 678 
L 986 2763 
L 211 2693 
L 211 2528 
C 467 2528 640 2528 646 2274 
L 646 1058 
C 646 633 646 361 813 183 
C 896 101 1056 -64 1517 -64 
C 2061 -64 2272 377 2323 506 
L 2330 506 
L 2330 -63 
L 3091 -63 
L 3091 128 
C 2714 128 2656 166 2656 473 
L 2656 2763 
L 1882 2693 
z
" transform="scale(0.015625)"/>
       <path id="CMR17-6c" d="M 979 4396 
L 218 4326 
L 218 4160 
C 595 4160 653 4122 653 3817 
L 653 426 
C 653 184 627 153 218 153 
L 218 -13 
C 371 0 653 0 813 0 
C 979 0 1261 0 1414 -13 
L 1414 153 
C 1005 153 979 178 979 426 
L 979 4396 
z
" transform="scale(0.015625)"/>
      </defs>
      <use xlink:href="#CMR17-53" transform="scale(0.996264)"/>
      <use xlink:href="#CMR17-7e" transform="translate(50.89537 0) scale(0.996264)"/>
      <use xlink:href="#CMR17-61" transform="translate(50.89537 0) scale(0.996264)"/>
      <use xlink:href="#CMR17-6f" transform="translate(96.585847 0) scale(0.996264)"/>
      <use xlink:href="#CMR17-50" transform="translate(172.35229 0) scale(0.996264)"/>
      <use xlink:href="#CMR17-61" transform="translate(232.336137 0) scale(0.996264)"/>
      <use xlink:href="#CMR17-75" transform="translate(278.026614 0) scale(0.996264)"/>
      <use xlink:href="#CMR17-6c" transform="translate(328.921984 0) scale(0.996264)"/>
      <use xlink:href="#CMR17-6f" transform="translate(353.793042 0) scale(0.996264)"/>
     </g>
    </g>
   </g>
  </g>
 </g>
 <defs>
  <clipPath id="p3fc52e2c95">
   <rect x="3.5" y="0" width="204.417267" height="126.814399"/>
  </clipPath>
 </defs>
</svg>
