<?xml version="1.0" encoding="utf-8" standalone="no"?>
<!DOCTYPE svg PUBLIC "-//W3C//DTD SVG 1.1//EN"
  "http://www.w3.org/Graphics/SVG/1.1/DTD/svg11.dtd">
<svg xmlns:xlink="http://www.w3.org/1999/xlink" width="266.4pt" height="108pt" viewBox="0 0 266.4 108" xmlns="http://www.w3.org/2000/svg" version="1.1">
 <metadata>
  <rdf:RDF xmlns:dc="http://purl.org/dc/elements/1.1/" xmlns:cc="http://creativecommons.org/ns#" xmlns:rdf="http://www.w3.org/1999/02/22-rdf-syntax-ns#">
   <cc:Work>
    <dc:type rdf:resource="http://purl.org/dc/dcmitype/StillImage"/>
    <dc:date>2023-10-11T12:35:39.305679</dc:date>
    <dc:format>image/svg+xml</dc:format>
    <dc:creator>
     <cc:Agent>
      <dc:title>Matplotlib v3.7.0, https://matplotlib.org/</dc:title>
     </cc:Agent>
    </dc:creator>
   </cc:Work>
  </rdf:RDF>
 </metadata>
 <defs>
  <style type="text/css">*{stroke-linejoin: round; stroke-linecap: butt}</style>
 </defs>
 <g id="figure_1">
  <g id="patch_1">
   <path d="M 0 108 
L 266.4 108 
L 266.4 0 
L 0 0 
z
" style="fill: #ffffff"/>
  </g>
  <g id="axes_1">
   <g id="patch_2">
    <path d="M 37.567091 78.181683 
L 266.4 78.181683 
L 266.4 0 
L 37.567091 0 
z
" style="fill: #ffffff"/>
   </g>
   <g id="matplotlib.axis_1">
    <g id="xtick_1">
     <g id="line2d_1">
      <defs>
       <path id="m9b51132ab1" d="M 0 0 
L 0 3.5 
" style="stroke: #000000; stroke-width: 0.8"/>
      </defs>
      <g>
       <use xlink:href="#m9b51132ab1" x="47.967254" y="78.181683" style="stroke: #000000; stroke-width: 0.8"/>
      </g>
     </g>
     <g id="text_1">
      <!-- 0 -->
      <g transform="translate(45.476586 92.100182) scale(0.1 -0.1)">
       <defs>
        <path id="CMR17-30" d="M 2688 2025 
C 2688 2416 2682 3080 2413 3591 
C 2176 4039 1798 4198 1466 4198 
C 1158 4198 768 4058 525 3597 
C 269 3118 243 2524 243 2025 
C 243 1661 250 1106 448 619 
C 723 -39 1216 -128 1466 -128 
C 1760 -128 2208 -7 2470 600 
C 2662 1042 2688 1559 2688 2025 
z
M 1466 -26 
C 1056 -26 813 325 723 812 
C 653 1188 653 1738 653 2096 
C 653 2588 653 2997 736 3387 
C 858 3929 1216 4096 1466 4096 
C 1728 4096 2067 3923 2189 3400 
C 2272 3036 2278 2607 2278 2096 
C 2278 1680 2278 1169 2202 792 
C 2067 95 1690 -26 1466 -26 
z
" transform="scale(0.015625)"/>
       </defs>
       <use xlink:href="#CMR17-30" transform="scale(0.996264)"/>
      </g>
     </g>
    </g>
    <g id="xtick_2">
     <g id="line2d_2">
      <g>
       <use xlink:href="#m9b51132ab1" x="89.111924" y="78.181683" style="stroke: #000000; stroke-width: 0.8"/>
      </g>
     </g>
     <g id="text_2">
      <!-- 20 -->
      <g transform="translate(84.130589 92.100182) scale(0.1 -0.1)">
       <defs>
        <path id="CMR17-32" d="M 2669 989 
L 2554 989 
C 2490 536 2438 459 2413 420 
C 2381 369 1920 369 1830 369 
L 602 369 
C 832 619 1280 1072 1824 1597 
C 2214 1967 2669 2402 2669 3035 
C 2669 3790 2067 4224 1395 4224 
C 691 4224 262 3604 262 3030 
C 262 2780 448 2748 525 2748 
C 589 2748 781 2787 781 3010 
C 781 3207 614 3264 525 3264 
C 486 3264 448 3258 422 3245 
C 544 3790 915 4058 1306 4058 
C 1862 4058 2227 3617 2227 3035 
C 2227 2479 1901 2000 1536 1584 
L 262 146 
L 262 0 
L 2515 0 
L 2669 989 
z
" transform="scale(0.015625)"/>
       </defs>
       <use xlink:href="#CMR17-32" transform="scale(0.996264)"/>
       <use xlink:href="#CMR17-30" transform="translate(45.690477 0) scale(0.996264)"/>
      </g>
     </g>
    </g>
    <g id="xtick_3">
     <g id="line2d_3">
      <g>
       <use xlink:href="#m9b51132ab1" x="130.256594" y="78.181683" style="stroke: #000000; stroke-width: 0.8"/>
      </g>
     </g>
     <g id="text_3">
      <!-- 40 -->
      <g transform="translate(125.275259 92.100182) scale(0.1 -0.1)">
       <defs>
        <path id="CMR17-34" d="M 2150 4122 
C 2150 4256 2144 4256 2029 4256 
L 128 1254 
L 128 1088 
L 1779 1088 
L 1779 457 
C 1779 224 1766 160 1318 160 
L 1197 160 
L 1197 0 
C 1402 0 1747 0 1965 0 
C 2182 0 2528 0 2733 0 
L 2733 160 
L 2611 160 
C 2163 160 2150 224 2150 457 
L 2150 1088 
L 2803 1088 
L 2803 1254 
L 2150 1254 
L 2150 4122 
z
M 1798 3703 
L 1798 1254 
L 256 1254 
L 1798 3703 
z
" transform="scale(0.015625)"/>
       </defs>
       <use xlink:href="#CMR17-34" transform="scale(0.996264)"/>
       <use xlink:href="#CMR17-30" transform="translate(45.690477 0) scale(0.996264)"/>
      </g>
     </g>
    </g>
    <g id="xtick_4">
     <g id="line2d_4">
      <g>
       <use xlink:href="#m9b51132ab1" x="171.401264" y="78.181683" style="stroke: #000000; stroke-width: 0.8"/>
      </g>
     </g>
     <g id="text_4">
      <!-- 60 -->
      <g transform="translate(166.419929 92.100182) scale(0.1 -0.1)">
       <defs>
        <path id="CMR17-36" d="M 678 2176 
C 678 3690 1395 4032 1811 4032 
C 1946 4032 2272 4009 2400 3776 
C 2298 3776 2106 3776 2106 3553 
C 2106 3381 2246 3323 2336 3323 
C 2394 3323 2566 3348 2566 3560 
C 2566 3954 2246 4179 1805 4179 
C 1043 4179 243 3390 243 1984 
C 243 253 966 -128 1478 -128 
C 2099 -128 2688 427 2688 1283 
C 2688 2081 2170 2662 1517 2662 
C 1126 2662 838 2407 678 1960 
L 678 2176 
z
M 1478 25 
C 691 25 691 1200 691 1436 
C 691 1896 909 2560 1504 2560 
C 1613 2560 1926 2560 2138 2120 
C 2253 1870 2253 1609 2253 1289 
C 2253 944 2253 690 2118 434 
C 1978 171 1773 25 1478 25 
z
" transform="scale(0.015625)"/>
       </defs>
       <use xlink:href="#CMR17-36" transform="scale(0.996264)"/>
       <use xlink:href="#CMR17-30" transform="translate(45.690477 0) scale(0.996264)"/>
      </g>
     </g>
    </g>
    <g id="xtick_5">
     <g id="line2d_5">
      <g>
       <use xlink:href="#m9b51132ab1" x="212.545935" y="78.181683" style="stroke: #000000; stroke-width: 0.8"/>
      </g>
     </g>
     <g id="text_5">
      <!-- 80 -->
      <g transform="translate(207.564599 92.100182) scale(0.1 -0.1)">
       <defs>
        <path id="CMR17-38" d="M 1741 2264 
C 2144 2467 2554 2773 2554 3263 
C 2554 3841 1990 4179 1472 4179 
C 890 4179 378 3759 378 3180 
C 378 3021 416 2747 666 2505 
C 730 2442 998 2251 1171 2130 
C 883 1983 211 1634 211 934 
C 211 279 838 -128 1459 -128 
C 2144 -128 2720 362 2720 1010 
C 2720 1590 2330 1857 2074 2029 
L 1741 2264 
z
M 902 2822 
C 851 2854 595 3051 595 3351 
C 595 3739 998 4032 1459 4032 
C 1965 4032 2336 3676 2336 3262 
C 2336 2669 1670 2331 1638 2331 
C 1632 2331 1626 2331 1574 2370 
L 902 2822 
z
M 2080 1519 
C 2176 1449 2483 1240 2483 851 
C 2483 381 2010 25 1472 25 
C 890 25 448 438 448 940 
C 448 1443 838 1862 1280 2060 
L 2080 1519 
z
" transform="scale(0.015625)"/>
       </defs>
       <use xlink:href="#CMR17-38" transform="scale(0.996264)"/>
       <use xlink:href="#CMR17-30" transform="translate(45.690477 0) scale(0.996264)"/>
      </g>
     </g>
    </g>
    <g id="xtick_6">
     <g id="line2d_6">
      <g>
       <use xlink:href="#m9b51132ab1" x="253.690605" y="78.181683" style="stroke: #000000; stroke-width: 0.8"/>
      </g>
     </g>
     <g id="text_6">
      <!-- 100 -->
      <g transform="translate(246.218602 92.100182) scale(0.1 -0.1)">
       <defs>
        <path id="CMR17-31" d="M 1702 4058 
C 1702 4192 1696 4192 1606 4192 
C 1357 3916 979 3827 621 3827 
C 602 3827 570 3827 563 3808 
C 557 3795 557 3782 557 3648 
C 755 3648 1088 3686 1344 3839 
L 1344 461 
C 1344 236 1331 160 781 160 
L 589 160 
L 589 0 
C 896 0 1216 0 1523 0 
C 1830 0 2150 0 2458 0 
L 2458 160 
L 2266 160 
C 1715 160 1702 230 1702 458 
L 1702 4058 
z
" transform="scale(0.015625)"/>
       </defs>
       <use xlink:href="#CMR17-31" transform="scale(0.996264)"/>
       <use xlink:href="#CMR17-30" transform="translate(45.690477 0) scale(0.996264)"/>
       <use xlink:href="#CMR17-30" transform="translate(91.380954 0) scale(0.996264)"/>
      </g>
     </g>
    </g>
    <g id="text_7">
     <!-- Mean Throughput Upload [Mbps] -->
     <g transform="translate(78.190658 105.50934) scale(0.1 -0.1)">
      <defs>
       <path id="CMR17-4d" d="M 1338 4224 
C 1299 4320 1293 4320 1158 4320 
L 339 4320 
L 339 4160 
C 781 4160 851 4160 851 3875 
L 851 610 
C 851 451 851 153 339 153 
L 339 -13 
C 486 0 755 0 915 0 
C 1075 0 1344 0 1491 -13 
L 1491 153 
C 979 153 979 451 979 610 
L 979 4135 
L 986 4135 
L 2490 89 
C 2515 25 2528 -13 2579 -13 
C 2630 -13 2643 25 2669 89 
L 4186 4166 
L 4192 4166 
L 4192 438 
C 4192 153 4122 153 3680 153 
L 3680 -13 
C 3853 0 4198 0 4384 0 
C 4570 0 4922 0 5094 -13 
L 5094 153 
C 4653 153 4582 153 4582 438 
L 4582 3875 
C 4582 4160 4653 4160 5094 4160 
L 5094 4320 
L 4282 4320 
C 4147 4320 4141 4314 4102 4218 
L 2720 502 
L 1338 4224 
z
" transform="scale(0.015625)"/>
       <path id="CMR17-65" d="M 2438 1472 
C 2464 1498 2464 1511 2464 1576 
C 2464 2238 2118 2816 1389 2816 
C 710 2816 173 2169 173 1383 
C 173 551 781 -64 1459 -64 
C 2176 -64 2458 607 2458 740 
C 2458 784 2419 784 2406 784 
C 2362 784 2355 771 2330 696 
C 2189 265 1837 51 1504 51 
C 1229 51 954 203 781 480 
C 582 803 582 1176 582 1472 
L 2438 1472 
z
M 589 1568 
C 634 2505 1126 2714 1382 2714 
C 1818 2714 2112 2297 2118 1568 
L 589 1568 
z
" transform="scale(0.015625)"/>
       <path id="CMR17-61" d="M 2304 1653 
C 2304 2072 2304 2294 2035 2543 
C 1798 2752 1523 2816 1306 2816 
C 800 2816 435 2407 435 1971 
C 435 1728 627 1728 666 1728 
C 749 1728 896 1778 896 1954 
C 896 2112 774 2181 666 2181 
C 640 2181 608 2174 589 2168 
C 723 2592 1069 2714 1293 2714 
C 1613 2714 1965 2429 1965 1885 
L 1965 1600 
C 1587 1600 1133 1549 774 1357 
C 371 1133 256 813 256 570 
C 256 77 832 -64 1171 -64 
C 1523 -64 1850 139 1990 511 
C 2003 233 2182 -18 2464 -18 
C 2598 -18 2938 70 2938 567 
L 2938 920 
L 2822 920 
L 2822 562 
C 2822 178 2650 128 2566 128 
C 2304 128 2304 458 2304 738 
L 2304 1653 
z
M 1965 870 
C 1965 317 1568 38 1216 38 
C 896 38 646 275 646 570 
C 646 761 730 1100 1101 1305 
C 1408 1478 1760 1504 1965 1504 
L 1965 870 
z
" transform="scale(0.015625)"/>
       <path id="CMR17-6e" d="M 2656 1933 
C 2656 2259 2592 2790 1837 2790 
C 1331 2790 1069 2400 973 2144 
L 966 2144 
L 966 2790 
L 211 2720 
L 211 2554 
C 589 2554 646 2515 646 2208 
L 646 428 
C 646 184 621 153 211 153 
L 211 -13 
C 365 0 646 0 813 0 
C 979 0 1267 0 1421 -13 
L 1421 153 
C 1011 153 986 178 986 428 
L 986 1658 
C 986 2247 1344 2688 1792 2688 
C 2266 2688 2317 2266 2317 1958 
L 2317 428 
C 2317 184 2291 153 1882 153 
L 1882 -13 
C 2035 0 2317 0 2483 0 
C 2650 0 2938 0 3091 -13 
L 3091 153 
C 2682 153 2656 178 2656 428 
L 2656 1933 
z
" transform="scale(0.015625)"/>
       <path id="CMR17-54" d="M 3981 4326 
L 288 4326 
L 179 2918 
L 294 2918 
C 378 3976 467 4160 1453 4160 
C 1568 4160 1754 4160 1805 4154 
C 1926 4135 1926 4058 1926 3912 
L 1926 459 
C 1926 230 1907 160 1376 160 
L 1197 160 
L 1197 0 
C 1504 0 1824 0 2138 0 
C 2451 0 2771 0 3078 0 
L 3078 160 
L 2899 160 
C 2368 160 2349 230 2349 459 
L 2349 3912 
C 2349 4052 2349 4129 2464 4154 
C 2515 4160 2701 4160 2816 4160 
C 3795 4160 3891 3976 3974 2918 
L 4090 2918 
L 3981 4326 
z
" transform="scale(0.015625)"/>
       <path id="CMR17-68" d="M 2656 1933 
C 2656 2259 2592 2790 1837 2790 
C 1312 2790 1056 2368 979 2157 
L 973 2157 
L 973 4396 
L 211 4326 
L 211 4160 
C 589 4160 646 4122 646 3817 
L 646 426 
C 646 184 621 153 211 153 
L 211 -13 
C 365 0 646 0 813 0 
C 979 0 1267 0 1421 -13 
L 1421 153 
C 1011 153 986 178 986 428 
L 986 1658 
C 986 2247 1344 2688 1792 2688 
C 2266 2688 2317 2266 2317 1958 
L 2317 428 
C 2317 184 2291 153 1882 153 
L 1882 -13 
C 2035 0 2317 0 2483 0 
C 2650 0 2938 0 3091 -13 
L 3091 153 
C 2682 153 2656 178 2656 428 
L 2656 1933 
z
" transform="scale(0.015625)"/>
       <path id="CMR17-72" d="M 960 1497 
C 960 2112 1222 2688 1702 2688 
C 1747 2688 1792 2682 1837 2662 
C 1837 2662 1696 2617 1696 2452 
C 1696 2298 1818 2234 1914 2234 
C 1990 2234 2131 2279 2131 2458 
C 2131 2663 1926 2790 1709 2790 
C 1222 2790 1011 2317 947 2093 
L 941 2093 
L 941 2790 
L 198 2720 
L 198 2554 
C 576 2554 634 2515 634 2208 
L 634 428 
C 634 184 608 153 198 153 
L 198 -13 
C 352 0 646 0 813 0 
C 998 0 1325 0 1498 -13 
L 1498 153 
C 1037 153 960 153 960 440 
L 960 1497 
z
" transform="scale(0.015625)"/>
       <path id="CMR17-6f" d="M 2758 1356 
C 2758 2176 2163 2816 1466 2816 
C 768 2816 173 2176 173 1356 
C 173 551 768 -64 1466 -64 
C 2163 -64 2758 551 2758 1356 
z
M 1466 51 
C 1165 51 909 230 762 480 
C 602 767 582 1126 582 1408 
C 582 1677 595 2010 762 2298 
C 890 2509 1139 2714 1466 2714 
C 1754 2714 1997 2554 2150 2330 
C 2349 2029 2349 1607 2349 1408 
C 2349 1158 2336 775 2163 467 
C 1984 173 1709 51 1466 51 
z
" transform="scale(0.015625)"/>
       <path id="CMR17-75" d="M 1882 2693 
L 1882 2528 
C 2259 2528 2317 2489 2317 2186 
L 2317 1032 
C 2317 500 2029 38 1555 38 
C 1030 38 986 348 986 678 
L 986 2763 
L 211 2693 
L 211 2528 
C 467 2528 640 2528 646 2274 
L 646 1058 
C 646 633 646 361 813 183 
C 896 101 1056 -64 1517 -64 
C 2061 -64 2272 377 2323 506 
L 2330 506 
L 2330 -63 
L 3091 -63 
L 3091 128 
C 2714 128 2656 166 2656 473 
L 2656 2763 
L 1882 2693 
z
" transform="scale(0.015625)"/>
       <path id="CMR17-67" d="M 710 1164 
C 832 1068 1043 960 1299 960 
C 1805 960 2240 1357 2240 1888 
C 2240 2054 2189 2310 1997 2509 
C 2176 2692 2438 2752 2586 2752 
C 2611 2752 2650 2752 2682 2734 
C 2656 2728 2598 2703 2598 2605 
C 2598 2527 2656 2471 2739 2471 
C 2835 2471 2886 2533 2886 2614 
C 2886 2731 2790 2854 2586 2854 
C 2330 2854 2106 2738 1926 2580 
C 1734 2753 1504 2816 1299 2816 
C 794 2816 358 2419 358 1888 
C 358 1522 570 1292 634 1228 
C 442 1004 442 743 442 711 
C 442 545 506 302 723 168 
C 390 85 128 -169 128 -486 
C 128 -943 736 -1280 1466 -1280 
C 2170 -1280 2803 -956 2803 -479 
C 2803 384 1856 384 1363 384 
C 1216 384 954 384 922 391 
C 723 423 589 602 589 826 
C 589 883 589 1024 710 1164 
z
M 1299 1068 
C 736 1068 736 1760 736 1889 
C 736 2016 736 2708 1299 2708 
C 1862 2708 1862 2016 1862 1889 
C 1862 1760 1862 1068 1299 1068 
z
M 1466 -1171 
C 826 -1171 384 -835 384 -486 
C 384 -289 493 -105 634 -4 
C 794 104 858 104 1293 104 
C 1818 104 2547 104 2547 -486 
C 2547 -835 2106 -1171 1466 -1171 
z
" transform="scale(0.015625)"/>
       <path id="CMR17-70" d="M 1408 -1063 
C 998 -1063 973 -1037 973 -789 
L 973 402 
C 1158 134 1427 -38 1766 -38 
C 2406 -38 3053 523 3053 1388 
C 3053 2191 2496 2802 1837 2802 
C 1453 2802 1139 2592 960 2338 
L 960 2802 
L 198 2732 
L 198 2567 
C 576 2567 634 2528 634 2223 
L 634 -789 
C 634 -1031 608 -1063 198 -1063 
L 198 -1228 
C 352 -1216 634 -1216 800 -1216 
C 966 -1216 1254 -1216 1408 -1228 
L 1408 -1063 
z
M 973 2012 
C 973 2102 973 2235 1222 2471 
C 1254 2497 1472 2688 1792 2688 
C 2259 2688 2643 2108 2643 1382 
C 2643 656 2234 64 1728 64 
C 1498 64 1248 172 1056 472 
C 973 612 973 650 973 752 
L 973 2012 
z
" transform="scale(0.015625)"/>
       <path id="CMR17-74" d="M 966 2560 
L 1862 2560 
L 1862 2725 
L 966 2725 
L 966 3904 
L 851 3904 
C 838 3245 614 2668 70 2668 
L 70 2560 
L 627 2560 
L 627 771 
C 627 650 627 -64 1370 -64 
C 1747 -64 1965 306 1965 777 
L 1965 1140 
L 1850 1140 
L 1850 783 
C 1850 344 1677 51 1408 51 
C 1222 51 966 178 966 758 
L 966 2560 
z
" transform="scale(0.015625)"/>
       <path id="CMR17-55" d="M 3456 1433 
C 3456 579 2899 38 2291 38 
C 1965 38 1670 210 1491 477 
C 1286 783 1261 1178 1261 1401 
L 1261 3874 
C 1261 4160 1331 4160 1773 4160 
L 1773 4320 
C 1587 4320 1248 4320 1050 4320 
C 851 4320 512 4320 326 4320 
L 326 4160 
C 768 4160 838 4160 838 3874 
L 838 1433 
C 838 516 1536 -128 2278 -128 
C 3110 -128 3590 719 3590 1344 
L 3590 3766 
C 3590 4122 3917 4160 4102 4160 
L 4102 4326 
C 3955 4320 3686 4320 3526 4320 
C 3366 4320 3091 4320 2944 4326 
L 2944 4160 
C 3456 4160 3456 3861 3456 3702 
L 3456 1433 
z
" transform="scale(0.015625)"/>
       <path id="CMR17-6c" d="M 979 4396 
L 218 4326 
L 218 4160 
C 595 4160 653 4122 653 3817 
L 653 426 
C 653 184 627 153 218 153 
L 218 -13 
C 371 0 653 0 813 0 
C 979 0 1261 0 1414 -13 
L 1414 153 
C 1005 153 979 178 979 426 
L 979 4396 
z
" transform="scale(0.015625)"/>
       <path id="CMR17-64" d="M 1869 4326 
L 1869 4160 
C 2246 4160 2304 4122 2304 3820 
L 2304 2345 
C 2278 2377 2016 2790 1498 2790 
C 845 2790 211 2208 211 1364 
C 211 525 806 -64 1434 -64 
C 1978 -64 2259 337 2291 380 
L 2291 -63 
L 3066 -63 
L 3066 128 
C 2688 128 2630 166 2630 473 
L 2630 4396 
L 1869 4326 
z
M 2291 755 
C 2291 563 2176 390 2029 262 
C 1811 70 1594 38 1472 38 
C 1286 38 621 134 621 1356 
C 621 2612 1363 2688 1530 2688 
C 1824 2688 2061 2522 2208 2291 
C 2291 2157 2291 2138 2291 2023 
L 2291 755 
z
" transform="scale(0.015625)"/>
       <path id="CMR17-5b" d="M 1504 -1600 
L 1504 -1377 
L 902 -1377 
L 902 4544 
L 1504 4544 
L 1504 4767 
L 678 4767 
L 678 -1600 
L 1504 -1600 
z
" transform="scale(0.015625)"/>
       <path id="CMR17-62" d="M 960 4396 
L 198 4326 
L 198 4160 
C 576 4160 634 4122 634 3817 
L 634 -13 
L 749 -13 
L 934 441 
C 1120 141 1395 -64 1766 -64 
C 2406 -64 3053 500 3053 1370 
C 3053 2188 2477 2790 1830 2790 
C 1434 2790 1152 2579 960 2330 
L 960 4396 
z
M 973 2004 
C 973 2118 973 2138 1062 2272 
C 1312 2657 1670 2688 1792 2688 
C 1984 2688 2643 2585 2643 1376 
C 2643 108 1888 38 1734 38 
C 1536 38 1248 114 1043 486 
C 973 608 973 621 973 735 
L 973 2004 
z
" transform="scale(0.015625)"/>
       <path id="CMR17-73" d="M 1978 2697 
C 1978 2813 1971 2819 1933 2819 
C 1907 2819 1901 2813 1824 2717 
C 1805 2691 1747 2626 1728 2601 
C 1523 2819 1235 2819 1126 2819 
C 416 2819 160 2447 160 2076 
C 160 1498 813 1365 998 1325 
C 1402 1243 1542 1217 1677 1101 
C 1760 1025 1901 884 1901 654 
C 1901 384 1747 38 1158 38 
C 602 38 403 460 288 1021 
C 269 1110 269 1117 218 1117 
C 166 1117 160 1110 160 983 
L 160 63 
C 160 -51 166 -58 205 -58 
C 237 -58 243 -51 275 0 
C 314 57 410 211 448 276 
C 576 103 800 -64 1158 -64 
C 1792 -64 2131 283 2131 784 
C 2131 1112 1958 1285 1875 1362 
C 1683 1561 1459 1606 1190 1657 
C 838 1735 390 1825 390 2217 
C 390 2383 480 2737 1126 2737 
C 1811 2737 1850 2094 1862 1888 
C 1869 1856 1901 1849 1920 1849 
C 1978 1849 1978 1869 1978 1978 
L 1978 2697 
z
" transform="scale(0.015625)"/>
       <path id="CMR17-5d" d="M 915 4767 
L 90 4767 
L 90 4544 
L 691 4544 
L 691 -1377 
L 90 -1377 
L 90 -1600 
L 915 -1600 
L 915 4767 
z
" transform="scale(0.015625)"/>
      </defs>
      <use xlink:href="#CMR17-4d" transform="scale(0.996264)"/>
      <use xlink:href="#CMR17-65" transform="translate(84.686941 0) scale(0.996264)"/>
      <use xlink:href="#CMR17-61" transform="translate(125.172601 0) scale(0.996264)"/>
      <use xlink:href="#CMR17-6e" transform="translate(170.863078 0) scale(0.996264)"/>
      <use xlink:href="#CMR17-54" transform="translate(251.834414 0) scale(0.996264)"/>
      <use xlink:href="#CMR17-68" transform="translate(318.344295 0) scale(0.996264)"/>
      <use xlink:href="#CMR17-72" transform="translate(369.239665 0) scale(0.996264)"/>
      <use xlink:href="#CMR17-6f" transform="translate(404.520432 0) scale(0.996264)"/>
      <use xlink:href="#CMR17-75" transform="translate(450.21091 0) scale(0.996264)"/>
      <use xlink:href="#CMR17-67" transform="translate(501.106279 0) scale(0.996264)"/>
      <use xlink:href="#CMR17-68" transform="translate(546.796756 0) scale(0.996264)"/>
      <use xlink:href="#CMR17-70" transform="translate(597.692126 0) scale(0.996264)"/>
      <use xlink:href="#CMR17-75" transform="translate(648.587496 0) scale(0.996264)"/>
      <use xlink:href="#CMR17-74" transform="translate(699.482866 0) scale(0.996264)"/>
      <use xlink:href="#CMR17-55" transform="translate(764.8396 0) scale(0.996264)"/>
      <use xlink:href="#CMR17-70" transform="translate(833.91203 0) scale(0.996264)"/>
      <use xlink:href="#CMR17-6c" transform="translate(884.807399 0) scale(0.996264)"/>
      <use xlink:href="#CMR17-6f" transform="translate(909.678458 0) scale(0.996264)"/>
      <use xlink:href="#CMR17-61" transform="translate(955.368935 0) scale(0.996264)"/>
      <use xlink:href="#CMR17-64" transform="translate(1001.059412 0) scale(0.996264)"/>
      <use xlink:href="#CMR17-5b" transform="translate(1082.030748 0) scale(0.996264)"/>
      <use xlink:href="#CMR17-4d" transform="translate(1106.901807 0) scale(0.996264)"/>
      <use xlink:href="#CMR17-62" transform="translate(1191.588747 0) scale(0.996264)"/>
      <use xlink:href="#CMR17-70" transform="translate(1242.484117 0) scale(0.996264)"/>
      <use xlink:href="#CMR17-73" transform="translate(1293.379487 0) scale(0.996264)"/>
      <use xlink:href="#CMR17-5d" transform="translate(1329.180825 0) scale(0.996264)"/>
     </g>
    </g>
   </g>
   <g id="matplotlib.axis_2">
    <g id="ytick_1">
     <g id="line2d_7">
      <path d="M 37.567091 74.62797 
L 266.4 74.62797 
" clip-path="url(#p4845d2250b)" style="fill: none; stroke: #b0b0b0; stroke-opacity: 0.7; stroke-width: 0.5; stroke-linecap: square"/>
     </g>
     <g id="line2d_8">
      <defs>
       <path id="m17bb209061" d="M 0 0 
L -3.5 0 
" style="stroke: #000000; stroke-width: 0.8"/>
      </defs>
      <g>
       <use xlink:href="#m17bb209061" x="37.567091" y="74.62797" style="stroke: #000000; stroke-width: 0.8"/>
      </g>
     </g>
     <g id="text_8">
      <!-- 0.00 -->
      <g transform="translate(12.855677 78.08722) scale(0.1 -0.1)">
       <defs>
        <path id="CMR17-2e" d="M 1062 261 
C 1062 420 934 522 800 522 
C 672 522 538 420 538 261 
C 538 102 666 0 800 0 
C 928 0 1062 102 1062 261 
z
" transform="scale(0.015625)"/>
       </defs>
       <use xlink:href="#CMR17-30" transform="scale(0.996264)"/>
       <use xlink:href="#CMR17-2e" transform="translate(45.690477 0) scale(0.996264)"/>
       <use xlink:href="#CMR17-30" transform="translate(70.561536 0) scale(0.996264)"/>
       <use xlink:href="#CMR17-30" transform="translate(116.252013 0) scale(0.996264)"/>
      </g>
     </g>
    </g>
    <g id="ytick_2">
     <g id="line2d_9">
      <path d="M 37.567091 56.859406 
L 266.4 56.859406 
" clip-path="url(#p4845d2250b)" style="fill: none; stroke: #b0b0b0; stroke-opacity: 0.7; stroke-width: 0.5; stroke-linecap: square"/>
     </g>
     <g id="line2d_10">
      <g>
       <use xlink:href="#m17bb209061" x="37.567091" y="56.859406" style="stroke: #000000; stroke-width: 0.8"/>
      </g>
     </g>
     <g id="text_9">
      <!-- 0.25 -->
      <g transform="translate(12.855677 60.318655) scale(0.1 -0.1)">
       <defs>
        <path id="CMR17-35" d="M 730 3692 
C 794 3666 1056 3584 1325 3584 
C 1920 3584 2246 3911 2432 4100 
C 2432 4157 2432 4192 2394 4192 
C 2387 4192 2374 4192 2323 4163 
C 2099 4058 1837 3973 1517 3973 
C 1325 3973 1037 3999 723 4139 
C 653 4171 640 4171 634 4171 
C 602 4171 595 4164 595 4037 
L 595 2203 
C 595 2089 595 2057 659 2057 
C 691 2057 704 2070 736 2114 
C 941 2401 1222 2522 1542 2522 
C 1766 2522 2246 2382 2246 1289 
C 2246 1085 2246 715 2054 421 
C 1894 159 1645 25 1370 25 
C 947 25 518 320 403 814 
C 429 807 480 795 506 795 
C 589 795 749 840 749 1038 
C 749 1210 627 1280 506 1280 
C 358 1280 262 1190 262 1011 
C 262 454 704 -128 1382 -128 
C 2042 -128 2669 440 2669 1264 
C 2669 2030 2170 2624 1549 2624 
C 1222 2624 947 2503 730 2274 
L 730 3692 
z
" transform="scale(0.015625)"/>
       </defs>
       <use xlink:href="#CMR17-30" transform="scale(0.996264)"/>
       <use xlink:href="#CMR17-2e" transform="translate(45.690477 0) scale(0.996264)"/>
       <use xlink:href="#CMR17-32" transform="translate(70.561536 0) scale(0.996264)"/>
       <use xlink:href="#CMR17-35" transform="translate(116.252013 0) scale(0.996264)"/>
      </g>
     </g>
    </g>
    <g id="ytick_3">
     <g id="line2d_11">
      <path d="M 37.567091 39.090842 
L 266.4 39.090842 
" clip-path="url(#p4845d2250b)" style="fill: none; stroke: #b0b0b0; stroke-opacity: 0.7; stroke-width: 0.5; stroke-linecap: square"/>
     </g>
     <g id="line2d_12">
      <g>
       <use xlink:href="#m17bb209061" x="37.567091" y="39.090842" style="stroke: #000000; stroke-width: 0.8"/>
      </g>
     </g>
     <g id="text_10">
      <!-- 0.50 -->
      <g transform="translate(12.855677 42.550091) scale(0.1 -0.1)">
       <use xlink:href="#CMR17-30" transform="scale(0.996264)"/>
       <use xlink:href="#CMR17-2e" transform="translate(45.690477 0) scale(0.996264)"/>
       <use xlink:href="#CMR17-35" transform="translate(70.561536 0) scale(0.996264)"/>
       <use xlink:href="#CMR17-30" transform="translate(116.252013 0) scale(0.996264)"/>
      </g>
     </g>
    </g>
    <g id="ytick_4">
     <g id="line2d_13">
      <path d="M 37.567091 21.322277 
L 266.4 21.322277 
" clip-path="url(#p4845d2250b)" style="fill: none; stroke: #b0b0b0; stroke-opacity: 0.7; stroke-width: 0.5; stroke-linecap: square"/>
     </g>
     <g id="line2d_14">
      <g>
       <use xlink:href="#m17bb209061" x="37.567091" y="21.322277" style="stroke: #000000; stroke-width: 0.8"/>
      </g>
     </g>
     <g id="text_11">
      <!-- 0.75 -->
      <g transform="translate(12.855677 24.781526) scale(0.1 -0.1)">
       <defs>
        <path id="CMR17-37" d="M 2886 3941 
L 2886 4081 
L 1382 4081 
C 634 4081 621 4165 595 4288 
L 480 4288 
L 294 3094 
L 410 3094 
C 429 3215 474 3540 550 3661 
C 589 3712 1062 3712 1171 3712 
L 2579 3712 
L 1869 2661 
C 1395 1954 1069 999 1069 165 
C 1069 89 1069 -128 1299 -128 
C 1530 -128 1530 89 1530 171 
L 1530 465 
C 1530 1508 1709 2196 2003 2636 
L 2886 3941 
z
" transform="scale(0.015625)"/>
       </defs>
       <use xlink:href="#CMR17-30" transform="scale(0.996264)"/>
       <use xlink:href="#CMR17-2e" transform="translate(45.690477 0) scale(0.996264)"/>
       <use xlink:href="#CMR17-37" transform="translate(70.561536 0) scale(0.996264)"/>
       <use xlink:href="#CMR17-35" transform="translate(116.252013 0) scale(0.996264)"/>
      </g>
     </g>
    </g>
    <g id="ytick_5">
     <g id="line2d_15">
      <path d="M 37.567091 3.553713 
L 266.4 3.553713 
" clip-path="url(#p4845d2250b)" style="fill: none; stroke: #b0b0b0; stroke-opacity: 0.7; stroke-width: 0.5; stroke-linecap: square"/>
     </g>
     <g id="line2d_16">
      <g>
       <use xlink:href="#m17bb209061" x="37.567091" y="3.553713" style="stroke: #000000; stroke-width: 0.8"/>
      </g>
     </g>
     <g id="text_12">
      <!-- 1.00 -->
      <g transform="translate(12.855677 7.012962) scale(0.1 -0.1)">
       <use xlink:href="#CMR17-31" transform="scale(0.996264)"/>
       <use xlink:href="#CMR17-2e" transform="translate(45.690477 0) scale(0.996264)"/>
       <use xlink:href="#CMR17-30" transform="translate(70.561536 0) scale(0.996264)"/>
       <use xlink:href="#CMR17-30" transform="translate(116.252013 0) scale(0.996264)"/>
      </g>
     </g>
    </g>
    <g id="text_13">
     <!-- Percentile -->
     <g transform="translate(6.918498 60.482866) rotate(-90) scale(0.1 -0.1)">
      <defs>
       <path id="CMR17-50" d="M 1267 2042 
L 2291 2042 
C 3117 2042 3718 2578 3718 3184 
C 3718 3791 3130 4352 2291 4352 
L 333 4352 
L 333 4186 
C 774 4186 845 4186 845 3899 
L 845 446 
C 845 160 774 160 333 160 
L 333 0 
C 518 0 858 0 1056 0 
C 1254 0 1594 0 1779 0 
L 1779 160 
C 1338 160 1267 160 1267 446 
L 1267 2042 
z
M 1254 2176 
L 1254 3938 
C 1254 4155 1267 4186 1523 4186 
L 2170 4186 
C 2995 4186 3232 3714 3232 3184 
C 3232 2604 2950 2176 2170 2176 
L 1254 2176 
z
" transform="scale(0.015625)"/>
       <path id="CMR17-63" d="M 2234 2240 
C 2112 2240 1933 2240 1933 2017 
C 1933 1838 2080 1787 2163 1787 
C 2208 1787 2394 1807 2394 2024 
C 2394 2467 1958 2803 1466 2803 
C 787 2803 211 2178 211 1363 
C 211 516 813 -64 1466 -64 
C 2259 -64 2458 677 2458 748 
C 2458 774 2451 793 2406 793 
C 2362 793 2355 787 2330 703 
C 2163 180 1798 51 1523 51 
C 1114 51 621 427 621 1369 
C 621 2338 1094 2688 1472 2688 
C 1722 2688 2093 2573 2234 2240 
z
" transform="scale(0.015625)"/>
       <path id="CMR17-69" d="M 992 3909 
C 992 4049 877 4170 730 4170 
C 589 4170 467 4056 467 3909 
C 467 3769 582 3648 730 3648 
C 870 3648 992 3763 992 3909 
z
M 243 2706 
L 243 2541 
C 602 2541 653 2502 653 2197 
L 653 427 
C 653 184 627 153 218 153 
L 218 -13 
C 371 0 646 0 806 0 
C 960 0 1222 0 1370 -13 
L 1370 153 
C 992 153 979 191 979 420 
L 979 2776 
L 243 2706 
z
" transform="scale(0.015625)"/>
      </defs>
      <use xlink:href="#CMR17-50" transform="scale(0.996264)"/>
      <use xlink:href="#CMR17-65" transform="translate(59.983847 0) scale(0.996264)"/>
      <use xlink:href="#CMR17-72" transform="translate(100.469507 0) scale(0.996264)"/>
      <use xlink:href="#CMR17-63" transform="translate(135.750275 0) scale(0.996264)"/>
      <use xlink:href="#CMR17-65" transform="translate(176.235935 0) scale(0.996264)"/>
      <use xlink:href="#CMR17-6e" transform="translate(216.721596 0) scale(0.996264)"/>
      <use xlink:href="#CMR17-74" transform="translate(265.014512 0) scale(0.996264)"/>
      <use xlink:href="#CMR17-69" transform="translate(300.295279 0) scale(0.996264)"/>
      <use xlink:href="#CMR17-6c" transform="translate(325.166338 0) scale(0.996264)"/>
      <use xlink:href="#CMR17-65" transform="translate(350.037396 0) scale(0.996264)"/>
     </g>
    </g>
   </g>
   <g id="line2d_17">
    <path d="M 47.968975 74.627693 
L 48.080701 72.278493 
L 48.236821 64.297381 
L 48.952053 59.362617 
L 48.982096 59.177359 
L 49.279752 57.629465 
L 49.429118 56.852879 
L 49.477096 56.579852 
L 49.706511 55.417473 
L 49.831555 54.751987 
L 50.092435 53.464899 
L 50.207127 52.95523 
L 50.284502 52.639429 
L 50.406294 52.122539 
L 50.502554 51.713137 
L 51.220669 48.516526 
L 51.872762 45.454623 
L 51.984559 44.922178 
L 52.060738 44.599434 
L 52.208828 43.9695 
L 52.27752 43.667309 
L 52.404665 43.116255 
L 52.455608 42.894612 
L 56.51098 25.717236 
L 56.556995 25.554197 
L 57.505624 22.241487 
L 57.563838 22.053173 
L 58.29251 19.852847 
L 58.409081 19.525381 
L 59.013512 17.946657 
L 59.148944 17.613636 
L 59.264482 17.326166 
L 59.365414 17.087024 
L 59.509785 16.75067 
L 59.651571 16.434592 
L 59.849509 15.991027 
L 59.984991 15.701891 
L 60.110666 15.452195 
L 60.538242 14.628114 
L 60.641778 14.4423 
L 60.760433 14.225934 
L 61.188456 13.501009 
L 61.289497 13.335193 
L 61.404473 13.154379 
L 61.80641 12.533888 
L 62.090764 12.13754 
L 62.235827 11.941172 
L 62.909438 11.133478 
L 63.039646 10.986271 
L 63.160954 10.862951 
L 63.483711 10.524653 
L 63.60927 10.400499 
L 63.839275 10.18691 
L 64.092842 9.961378 
L 64.324017 9.786396 
L 64.630905 9.548921 
L 64.810944 9.422268 
L 65.039135 9.24562 
L 65.389684 9.006756 
L 65.543928 8.918709 
L 66.078359 8.601242 
L 66.474636 8.379599 
L 66.788724 8.221282 
L 67.185059 8.0488 
L 67.593814 7.882706 
L 67.723861 7.829378 
L 68.167291 7.659118 
L 68.818724 7.443307 
L 69.378022 7.284157 
L 70.108776 7.0839 
L 70.472522 6.996132 
L 71.080492 6.855313 
L 72.438013 6.5584 
L 78.946239 5.552671 
L 80.141216 5.39491 
L 80.52005 5.34797 
L 83.3679 5.051612 
L 83.515165 5.03828 
L 85.212422 4.876631 
L 85.72437 4.835246 
L 87.497011 4.680262 
L 87.602562 4.670263 
L 90.012377 4.499448 
L 92.452773 4.337798 
L 95.374251 4.182536 
L 97.849772 4.081713 
L 105.162341 3.844516 
L 105.505756 3.833406 
L 111.525611 3.718696 
L 145.493062 3.568711 
L 193.956099 3.553713 
L 193.956099 3.553713 
" clip-path="url(#p4845d2250b)" style="fill: none; stroke: #1f77b4; stroke-width: 1.5; stroke-linecap: square"/>
   </g>
   <g id="line2d_18">
    <path d="M 47.968906 74.627764 
L 47.983614 74.186085 
L 48.095865 72.408863 
L 48.395988 65.742684 
L 48.442369 65.556866 
L 49.345946 62.467585 
L 49.411807 62.260136 
L 49.532175 61.8885 
L 49.902945 60.720852 
L 50.000866 60.397421 
L 50.151695 60.007656 
L 50.253693 59.746233 
L 50.402537 59.385103 
L 50.489139 59.187542 
L 50.614635 58.882446 
L 50.824829 58.355686 
L 50.987339 57.948204 
L 51.060804 57.764446 
L 51.23123 57.308141 
L 51.311295 57.107902 
L 51.736449 55.943138 
L 52.740772 53.286679 
L 52.982621 52.644761 
L 55.953483 44.269754 
L 56.111528 43.81695 
L 60.256977 32.613468 
L 60.394309 32.269642 
L 60.593183 31.766779 
L 60.745106 31.387932 
L 60.897588 31.028656 
L 60.999711 30.77877 
L 61.493396 29.556942 
L 61.578505 29.347639 
L 61.696212 29.079212 
L 63.123726 25.776096 
L 63.24474 25.509935 
L 63.357378 25.260667 
L 67.631982 16.955496 
L 67.761662 16.745369 
L 67.886109 16.55028 
L 68.05491 16.291948 
L 70.675874 12.775203 
L 70.860011 12.560337 
L 72.006815 11.340776 
L 72.236487 11.123645 
L 75.538549 8.563596 
L 75.775866 8.419185 
L 75.94885 8.31783 
L 76.399681 8.08669 
L 76.515488 8.023034 
L 77.029174 7.762847 
L 77.14311 7.710109 
L 77.850678 7.405837 
L 78.022532 7.332499 
L 78.362377 7.192826 
L 78.478068 7.149564 
L 79.353933 6.84488 
L 79.606483 6.767834 
L 80.592373 6.478806 
L 81.354144 6.276301 
L 83.223959 5.88942 
L 84.611514 5.643242 
L 85.348897 5.531998 
L 88.29006 5.195176 
L 89.415606 5.091143 
L 95.118572 4.675627 
L 95.249513 4.667387 
L 97.702269 4.530598 
L 114.525851 3.862311 
L 123.553726 3.6973 
L 123.651473 3.695446 
L 151.435418 3.567309 
L 197.604818 3.553713 
L 197.604818 3.553713 
" clip-path="url(#p4845d2250b)" style="fill: none; stroke-dasharray: 1.5,2.475; stroke-dashoffset: 0; stroke: #ff7f0e; stroke-width: 1.5"/>
   </g>
   <g id="line2d_19">
    <path d="M 47.968587 74.627873 
L 48.079919 73.890494 
L 48.108367 73.345011 
L 48.22009 69.750763 
L 48.261778 69.533133 
L 48.374487 69.123899 
L 48.459728 68.935791 
L 48.63811 68.581135 
L 48.783344 68.29572 
L 48.976961 67.894158 
L 49.107173 67.633021 
L 49.380014 67.094724 
L 49.509979 66.837374 
L 49.581627 66.693453 
L 49.751575 66.337922 
L 49.837019 66.148843 
L 49.999374 65.778746 
L 50.146782 65.454 
L 50.429044 64.802955 
L 50.765724 64.011776 
L 50.862392 63.776277 
L 51.040005 63.332568 
L 51.108039 63.156016 
L 51.24246 62.792328 
L 51.315068 62.596063 
L 53.788226 54.253283 
L 53.952394 53.59913 
L 54.213762 52.58294 
L 54.473881 51.526836 
L 54.582214 51.06992 
L 54.72156 50.482095 
L 54.872262 49.849598 
L 55.028576 49.167477 
L 55.113055 48.810004 
L 55.77479 45.941675 
L 55.933695 45.237509 
L 56.047652 44.724559 
L 56.204824 44.028939 
L 56.494924 42.747922 
L 56.816507 41.306182 
L 56.963402 40.642512 
L 57.12605 39.937472 
L 57.201793 39.613795 
L 57.514316 38.265187 
L 57.639838 37.729901 
L 57.819643 36.97543 
L 57.873611 36.746243 
L 58.188053 35.430557 
L 58.432785 34.419514 
L 58.572712 33.847519 
L 58.639197 33.580652 
L 58.77215 33.055854 
L 58.958446 32.334693 
L 59.001373 32.160958 
L 59.155903 31.551185 
L 59.343685 30.828374 
L 59.45684 30.409234 
L 59.539348 30.10867 
L 59.797422 29.139191 
L 60.029264 28.305573 
L 60.578662 26.413813 
L 60.629121 26.245225 
L 60.769664 25.779277 
L 60.853207 25.505224 
L 61.046567 24.880593 
L 61.182207 24.455238 
L 61.647785 23.036807 
L 61.772769 22.656415 
L 61.822397 22.510843 
L 63.72152 17.599743 
L 63.793421 17.439118 
L 63.906611 17.195365 
L 64.049834 16.890721 
L 64.400823 16.158781 
L 64.521986 15.912503 
L 64.754277 15.463452 
L 64.852381 15.282531 
L 64.972961 15.063444 
L 65.646413 13.888668 
L 65.788503 13.655889 
L 66.486911 12.602407 
L 66.612649 12.420612 
L 66.739642 12.236194 
L 66.886738 12.034782 
L 67.100061 11.747133 
L 67.249254 11.560288 
L 67.373345 11.400732 
L 67.493945 11.24943 
L 69.004146 9.637743 
L 69.203837 9.453908 
L 70.173698 8.623495 
L 70.391364 8.454227 
L 70.507282 8.369253 
L 70.6392 8.276413 
L 70.877682 8.115109 
L 70.995451 8.037515 
L 71.27559 7.849213 
L 71.464088 7.725491 
L 71.695183 7.579239 
L 72.113787 7.328494 
L 72.23155 7.262651 
L 72.474644 7.129606 
L 72.673358 7.025404 
L 73.265315 6.736396 
L 73.394587 6.673467 
L 76.574403 5.529088 
L 77.703698 5.245226 
L 77.884189 5.203468 
L 79.154745 4.945633 
L 79.267819 4.924074 
L 80.079574 4.776074 
L 81.047444 4.626908 
L 81.254478 4.597969 
L 84.333089 4.251858 
L 96.828218 3.710162 
L 111.633199 3.585954 
L 134.235177 3.556238 
L 166.880596 3.553713 
L 166.880596 3.553713 
" clip-path="url(#p4845d2250b)" style="fill: none; stroke-dasharray: 5.55,2.4; stroke-dashoffset: 0; stroke: #2ca02c; stroke-width: 1.5"/>
   </g>
   <g id="line2d_20">
    <path d="M 47.968954 74.627801 
L 48.41112 68.973279 
L 48.821182 68.033617 
L 48.922183 67.799673 
L 49.04778 67.497995 
L 49.164565 67.231788 
L 49.80242 65.697892 
L 54.76539 50.685434 
L 54.996719 49.929043 
L 56.071115 46.375795 
L 56.398253 45.269247 
L 56.456162 45.066045 
L 56.529954 44.820277 
L 56.84128 43.77268 
L 57.112064 42.841633 
L 57.15609 42.696875 
L 57.401862 41.864135 
L 57.458587 41.682554 
L 57.570535 41.289325 
L 57.909928 40.166731 
L 58.047689 39.715565 
L 58.300979 38.871339 
L 58.378358 38.606315 
L 58.587035 37.9158 
L 59.136755 36.086137 
L 59.263187 35.661997 
L 59.44316 35.083302 
L 59.500585 34.894796 
L 59.626699 34.474879 
L 59.682356 34.29296 
L 62.219304 26.670603 
L 62.332366 26.359128 
L 63.625244 23.04506 
L 63.87128 22.462312 
L 64.145218 21.840375 
L 64.336722 21.410154 
L 64.450591 21.14986 
L 64.836987 20.309012 
L 64.909833 20.157159 
L 65.123138 19.712243 
L 66.434964 17.24409 
L 66.530254 17.07332 
L 66.672996 16.818937 
L 66.888724 16.457802 
L 67.009505 16.263721 
L 67.266573 15.850898 
L 67.388008 15.666445 
L 67.581846 15.374733 
L 67.688504 15.220854 
L 67.799908 15.067481 
L 67.942595 14.865799 
L 68.232187 14.467334 
L 68.891292 13.609933 
L 69.02436 13.439162 
L 69.145172 13.295079 
L 71.746733 10.720174 
L 71.920244 10.585719 
L 72.371771 10.228975 
L 72.588391 10.078643 
L 72.711739 9.983038 
L 72.909329 9.841996 
L 73.083634 9.722744 
L 73.384716 9.515488 
L 73.83718 9.241512 
L 73.968295 9.157393 
L 74.265277 8.988311 
L 74.388957 8.913145 
L 74.96997 8.600825 
L 75.173183 8.497451 
L 75.39116 8.391036 
L 76.091818 8.047298 
L 76.299327 7.963011 
L 76.851679 7.73481 
L 77.186703 7.598666 
L 77.594889 7.449854 
L 78.844319 7.053585 
L 79.090218 6.97825 
L 80.909952 6.500227 
L 81.34757 6.401075 
L 81.995945 6.251925 
L 82.925075 6.058182 
L 85.733976 5.576612 
L 86.428959 5.473068 
L 98.389521 4.363649 
L 111.230342 3.869242 
L 130.328489 3.62871 
L 200.997831 3.553713 
L 200.997831 3.553713 
" clip-path="url(#p4845d2250b)" style="fill: none; stroke-dasharray: 9.6,2.4,1.5,2.4; stroke-dashoffset: 0; stroke: #d62728; stroke-width: 1.5"/>
   </g>
   <g id="line2d_21">
    <path d="M 47.969197 74.625992 
L 48.081815 73.882049 
L 48.108515 72.967949 
L 48.225227 67.916655 
L 48.260128 67.788047 
L 48.368209 67.342869 
L 48.500183 67.20239 
L 48.708511 66.982769 
L 51.402801 64.555061 
L 51.515551 64.43239 
L 51.712542 64.222661 
L 52.10561 63.765611 
L 52.338278 63.480697 
L 52.58968 63.081025 
L 52.702888 62.926696 
L 52.863366 62.669482 
L 52.982222 62.509218 
L 53.066606 62.350932 
L 53.259225 62.083825 
L 53.368349 61.909711 
L 53.515734 61.644582 
L 53.650488 61.419025 
L 53.822162 61.169725 
L 53.9605 60.975825 
L 54.081801 60.754225 
L 54.209152 60.528667 
L 54.446262 60.063703 
L 54.513939 59.925203 
L 54.824359 59.325696 
L 55.092343 58.805331 
L 55.347072 58.227588 
L 58.989913 49.339844 
L 59.105821 49.005465 
L 59.428925 48.130936 
L 59.524281 47.875701 
L 59.696305 47.394908 
L 60.077783 46.306693 
L 60.23846 45.859536 
L 60.437026 45.339171 
L 60.621767 44.824743 
L 60.690931 44.642714 
L 60.885106 44.09465 
L 60.959211 43.906685 
L 61.159268 43.324985 
L 61.303043 42.919378 
L 61.413564 42.581042 
L 61.530621 42.278321 
L 61.842153 41.447321 
L 62.163121 40.517392 
L 62.276046 40.188949 
L 62.343845 39.97922 
L 62.504746 39.581527 
L 62.770397 38.80197 
L 62.851751 38.572456 
L 63.058821 38.022413 
L 63.139576 37.824556 
L 63.253969 37.468413 
L 63.466018 36.955963 
L 63.752036 36.21202 
L 63.804767 36.075498 
L 63.937135 35.701548 
L 64.312061 34.698412 
L 64.450432 34.308633 
L 64.569511 33.988105 
L 64.773006 33.459826 
L 64.96805 33.036412 
L 65.971412 30.565176 
L 66.576529 29.20194 
L 66.663329 29.029804 
L 66.81553 28.681575 
L 67.104306 28.097896 
L 67.247525 27.765496 
L 67.832862 26.560546 
L 67.912041 26.386432 
L 68.143815 25.998632 
L 68.239615 25.816603 
L 68.528693 25.254689 
L 68.767818 24.902503 
L 68.885973 24.669031 
L 69.290122 23.980488 
L 69.655619 23.361196 
L 69.75425 23.18906 
L 70.034692 22.830938 
L 70.431393 22.249238 
L 70.655617 21.962345 
L 71.430202 20.943381 
L 71.582343 20.743545 
L 71.729056 20.567452 
L 72.029266 20.256816 
L 72.275883 19.999602 
L 72.886762 19.269509 
L 73.078315 19.03208 
L 73.239244 18.89358 
L 73.370377 18.759037 
L 75.690817 16.639987 
L 76.125758 16.349137 
L 76.241412 16.26208 
L 76.493507 16.05433 
L 76.744475 15.872301 
L 77.024372 15.704123 
L 77.283867 15.539901 
L 77.669195 15.270815 
L 77.781569 15.193651 
L 78.074609 14.991837 
L 78.327239 14.849379 
L 78.443984 14.782108 
L 79.836508 13.982765 
L 79.960403 13.915494 
L 80.572811 13.616729 
L 80.699181 13.553415 
L 81.657094 13.120108 
L 81.769486 13.056793 
L 82.111563 12.886636 
L 82.531068 12.706586 
L 82.74808 12.611615 
L 83.537457 12.283172 
L 83.83106 12.134779 
L 83.943812 12.089272 
L 84.594814 11.792486 
L 84.704487 11.735107 
L 86.537384 10.999079 
L 86.947268 10.846729 
L 87.730196 10.545986 
L 88.375541 10.348129 
L 92.018958 9.15505 
L 92.125937 9.123393 
L 92.890641 8.925535 
L 93.202529 8.82265 
L 93.951753 8.632707 
L 94.095906 8.583242 
L 94.764332 8.422978 
L 96.99957 7.896678 
L 97.117586 7.876892 
L 99.175323 7.402035 
L 99.84815 7.267492 
L 100.389769 7.166585 
L 101.215176 6.984556 
L 101.362017 6.952899 
L 102.104435 6.796592 
L 102.548053 6.719428 
L 104.209818 6.398899 
L 104.520531 6.349435 
L 105.599472 6.155535 
L 105.712511 6.131792 
L 106.822903 5.973506 
L 106.961373 5.951742 
L 108.145553 5.77367 
L 108.246436 5.761799 
L 109.583935 5.599556 
L 113.223098 5.231542 
L 113.500355 5.213735 
L 116.760285 4.922885 
L 116.952386 4.905077 
L 119.231847 4.723049 
L 122.137033 4.52717 
L 123.170797 4.467813 
L 143.149753 3.814884 
L 190.005134 3.553713 
L 190.005134 3.553713 
" clip-path="url(#p4845d2250b)" style="fill: none; stroke: #9467bd; stroke-width: 1.5; stroke-linecap: square"/>
   </g>
   <g id="line2d_22">
    <path d="M 47.969849 74.624955 
L 48.081384 73.717303 
L 48.135795 69.51376 
L 48.248181 68.289485 
L 48.288674 67.972863 
L 48.401709 67.629101 
L 48.569684 67.173767 
L 48.730642 66.745573 
L 48.962443 66.175652 
L 49.034914 66.018848 
L 49.501509 64.975501 
L 49.61664 64.695064 
L 49.718167 64.447797 
L 50.252032 63.292878 
L 50.404006 62.961178 
L 50.473772 62.798343 
L 50.5905 62.529968 
L 50.849827 62.056541 
L 51.040466 61.670563 
L 51.212531 61.311724 
L 51.348011 61.04938 
L 51.713042 60.274408 
L 51.798544 60.08745 
L 51.955931 59.683379 
L 52.043964 59.493405 
L 52.371189 58.839052 
L 52.550727 58.401811 
L 52.97815 57.406711 
L 53.173823 56.894084 
L 53.313957 56.529214 
L 53.396637 56.263854 
L 53.538799 55.9412 
L 53.798562 55.313986 
L 53.94549 54.982286 
L 54.116172 54.554091 
L 54.291082 54.119866 
L 54.411089 53.863552 
L 54.554437 53.501698 
L 54.685466 53.124766 
L 54.964242 52.331701 
L 55.272874 51.547683 
L 55.387762 51.246138 
L 55.740188 50.371656 
L 55.82234 50.148512 
L 55.948939 49.76555 
L 56.031981 49.536375 
L 56.144887 49.213722 
L 56.248669 48.912176 
L 56.743136 47.645685 
L 56.825039 47.380325 
L 56.934173 47.096873 
L 57.021425 46.903884 
L 57.275687 46.201283 
L 57.437272 45.776104 
L 57.572854 45.338863 
L 59.051871 41.669055 
L 59.270527 41.108181 
L 59.346238 40.948361 
L 59.838846 39.64267 
L 59.969302 39.341124 
L 60.145977 38.831513 
L 60.241778 38.58123 
L 61.375567 35.752734 
L 61.556817 35.339616 
L 61.650967 35.086318 
L 62.072709 34.058048 
L 63.594755 30.520921 
L 63.858522 29.929891 
L 64.02203 29.543913 
L 64.143045 29.284584 
L 64.337462 28.886544 
L 64.429629 28.630231 
L 64.673263 28.135696 
L 65.313133 26.706371 
L 65.666016 25.976631 
L 65.751031 25.810781 
L 66.006187 25.180551 
L 66.203565 24.782511 
L 66.320473 24.562383 
L 66.401869 24.414626 
L 66.53148 24.158312 
L 66.598393 23.992462 
L 66.742149 23.68187 
L 66.891749 23.353186 
L 67.823123 21.465511 
L 67.917326 21.281569 
L 68.708858 19.816058 
L 68.842241 19.607991 
L 68.983815 19.345647 
L 69.078346 19.161704 
L 69.796844 17.849982 
L 69.916321 17.693178 
L 70.293694 17.105164 
L 70.746857 16.396533 
L 70.873516 16.248775 
L 71.011067 16.070864 
L 71.17771 15.805504 
L 71.303141 15.609499 
L 71.412133 15.443649 
L 71.53574 15.280815 
L 71.713487 15.027516 
L 71.987925 14.632492 
L 72.099566 14.48775 
L 72.239665 14.318885 
L 72.406827 14.080664 
L 74.434936 11.529589 
L 74.547842 11.415002 
L 74.68843 11.288353 
L 74.830367 11.140596 
L 75.0996 10.929514 
L 75.247979 10.778741 
L 75.52706 10.492273 
L 75.643898 10.377686 
L 75.850448 10.196759 
L 76.3944 9.623822 
L 76.507808 9.545421 
L 76.676522 9.391632 
L 76.80801 9.286091 
L 77.092624 9.081041 
L 77.279914 8.963438 
L 77.688968 8.646815 
L 77.869612 8.499058 
L 79.42927 7.540143 
L 79.540457 7.488881 
L 79.846716 7.329062 
L 80.200057 7.114964 
L 80.518108 6.958161 
L 80.701312 6.894836 
L 80.969357 6.762156 
L 81.162552 6.659631 
L 81.534701 6.514889 
L 81.719152 6.436487 
L 85.082782 5.287599 
L 85.723166 5.121749 
L 85.899393 5.085564 
L 91.278488 4.26536 
L 94.679843 4.051263 
L 101.043879 3.843196 
L 101.632781 3.819073 
L 143.355465 3.574821 
L 255.998504 3.553713 
L 255.998504 3.553713 
" clip-path="url(#p4845d2250b)" style="fill: none; stroke-dasharray: 1.5,2.475; stroke-dashoffset: 0; stroke: #8c564b; stroke-width: 1.5"/>
   </g>
   <g id="line2d_23">
    <path d="M 47.968789 74.627155 
L 47.970056 74.448572 
L 48.228436 65.449312 
L 49.490505 60.943974 
L 49.548601 60.782516 
L 50.419719 57.985537 
L 51.641076 53.718309 
L 51.808031 52.986854 
L 52.518167 49.917516 
L 52.66193 49.308378 
L 52.811115 48.630742 
L 52.872603 48.34289 
L 53.323627 46.363803 
L 53.636178 44.873168 
L 53.756626 44.291755 
L 54.443588 41.312116 
L 54.555118 40.890531 
L 54.687723 40.39637 
L 54.79543 39.995171 
L 56.437447 34.415075 
L 56.498009 34.237308 
L 56.645547 33.815723 
L 58.661587 28.831718 
L 58.795443 28.584638 
L 60.678003 24.941226 
L 60.833127 24.681099 
L 60.966359 24.429941 
L 61.213676 24.008356 
L 61.339741 23.789816 
L 61.510132 23.48647 
L 61.832137 22.946645 
L 61.997579 22.659608 
L 62.136199 22.423945 
L 62.311721 22.148324 
L 62.858048 21.259488 
L 63.216587 20.67889 
L 63.34119 20.479922 
L 63.464403 20.295631 
L 63.613848 20.074645 
L 63.75 19.856106 
L 64.034433 19.435336 
L 64.228915 19.163792 
L 64.632032 18.596242 
L 64.768156 18.403797 
L 64.92922 18.148562 
L 65.465856 17.377966 
L 65.578969 17.204276 
L 66.185668 16.334195 
L 66.296241 16.1972 
L 66.499706 15.928103 
L 66.598564 15.788662 
L 69.755005 12.031903 
L 69.925437 11.872891 
L 70.069539 11.721218 
L 70.600247 11.156114 
L 70.92162 10.840537 
L 71.119488 10.6538 
L 71.252686 10.53556 
L 71.538344 10.249338 
L 71.669436 10.118867 
L 72.035018 9.795951 
L 72.48421 9.385781 
L 72.911481 9.022093 
L 73.297442 8.7163 
L 73.413581 8.613554 
L 73.847607 8.269436 
L 73.988331 8.174844 
L 74.999693 7.44502 
L 75.128877 7.365107 
L 75.888965 6.906826 
L 76.443559 6.580648 
L 76.679642 6.430606 
L 76.887872 6.323782 
L 77.570626 5.998419 
L 77.740436 5.897304 
L 78.5734 5.557263 
L 78.689887 5.516491 
L 79.009766 5.399882 
L 79.440284 5.261256 
L 80.162963 5.027223 
L 80.350838 4.973404 
L 81.61138 4.626024 
L 81.96137 4.550188 
L 83.314917 4.274567 
L 83.447815 4.254181 
L 84.525357 4.095169 
L 85.308586 4.000577 
L 91.874143 3.640966 
L 105.78734 3.565129 
L 148.068635 3.554528 
L 186.955457 3.553713 
L 186.955457 3.553713 
" clip-path="url(#p4845d2250b)" style="fill: none; stroke-dasharray: 5.55,2.4; stroke-dashoffset: 0; stroke: #e377c2; stroke-width: 1.5"/>
   </g>
   <g id="patch_3">
    <path d="M 37.567091 78.181683 
L 37.567091 0 
" style="fill: none; stroke: #000000; stroke-width: 0.8; stroke-linejoin: miter; stroke-linecap: square"/>
   </g>
   <g id="patch_4">
    <path d="M 266.4 78.181683 
L 266.4 0 
" style="fill: none; stroke: #000000; stroke-width: 0.8; stroke-linejoin: miter; stroke-linecap: square"/>
   </g>
   <g id="patch_5">
    <path d="M 37.567091 78.181683 
L 266.4 78.181683 
" style="fill: none; stroke: #000000; stroke-width: 0.8; stroke-linejoin: miter; stroke-linecap: square"/>
   </g>
   <g id="patch_6">
    <path d="M 37.567091 0 
L 266.4 0 
" style="fill: none; stroke: #000000; stroke-width: 0.8; stroke-linejoin: miter; stroke-linecap: square"/>
   </g>
   <g id="legend_1">
    <g id="patch_7">
     <path d="M 144.156082 74.016683 
L 262.235 74.016683 
L 262.235 36.074606 
L 144.156082 36.074606 
z
" style="fill: #ffffff; opacity: 0.8; stroke: #000000; stroke-linejoin: miter"/>
    </g>
    <g id="line2d_24">
     <path d="M 147.488082 42.322106 
L 151.653082 42.322106 
L 155.818082 42.322106 
" style="fill: none; stroke: #9467bd; stroke-width: 1.5; stroke-linecap: square"/>
    </g>
    <g id="text_14">
     <!-- Dublin -->
     <g transform="translate(158.317082 45.237606) scale(0.0833 -0.0833)">
      <defs>
       <path id="CMR17-44" d="M 333 4352 
L 333 4186 
C 774 4186 845 4186 845 3900 
L 845 452 
C 845 166 774 166 333 166 
L 333 0 
L 2368 0 
C 3398 0 4224 943 4224 2141 
C 4224 3346 3411 4352 2368 4352 
L 333 4352 
z
M 1523 166 
C 1267 166 1254 197 1254 414 
L 1254 3938 
C 1254 4155 1267 4186 1523 4186 
L 2240 4186 
C 2771 4186 3750 3874 3750 2141 
C 3750 1242 3488 879 3366 707 
C 3213 510 2848 166 2240 166 
L 1523 166 
z
" transform="scale(0.015625)"/>
      </defs>
      <use xlink:href="#CMR17-44" transform="scale(0.996264)"/>
      <use xlink:href="#CMR17-75" transform="translate(70.393556 0) scale(0.996264)"/>
      <use xlink:href="#CMR17-62" transform="translate(121.288926 0) scale(0.996264)"/>
      <use xlink:href="#CMR17-6c" transform="translate(172.184295 0) scale(0.996264)"/>
      <use xlink:href="#CMR17-69" transform="translate(197.055354 0) scale(0.996264)"/>
      <use xlink:href="#CMR17-6e" transform="translate(221.926412 0) scale(0.996264)"/>
     </g>
    </g>
    <g id="line2d_25">
     <path d="M 147.488082 50.266576 
L 151.653082 50.266576 
L 155.818082 50.266576 
" style="fill: none; stroke-dasharray: 1.5,2.475; stroke-dashoffset: 0; stroke: #8c564b; stroke-width: 1.5"/>
    </g>
    <g id="text_15">
     <!-- Lagos -->
     <g transform="translate(158.317082 53.182076) scale(0.0833 -0.0833)">
      <defs>
       <path id="CMR17-4c" d="M 3469 1615 
L 3354 1615 
C 3302 983 3219 166 2125 166 
L 1530 166 
C 1274 166 1261 197 1261 414 
L 1261 3898 
C 1261 4129 1274 4192 1760 4192 
L 1901 4192 
L 1901 4352 
C 1638 4352 1331 4352 1069 4352 
C 870 4352 512 4352 326 4352 
L 326 4192 
C 768 4192 838 4192 838 3905 
L 838 452 
C 838 166 768 166 326 166 
L 326 0 
L 3315 0 
L 3469 1615 
z
" transform="scale(0.015625)"/>
      </defs>
      <use xlink:href="#CMR17-4c" transform="scale(0.996264)"/>
      <use xlink:href="#CMR17-61" transform="translate(57.381408 0) scale(0.996264)"/>
      <use xlink:href="#CMR17-67" transform="translate(103.071885 0) scale(0.996264)"/>
      <use xlink:href="#CMR17-6f" transform="translate(148.762362 0) scale(0.996264)"/>
      <use xlink:href="#CMR17-73" transform="translate(194.452839 0) scale(0.996264)"/>
     </g>
    </g>
    <g id="line2d_26">
     <path d="M 147.488082 58.211045 
L 151.653082 58.211045 
L 155.818082 58.211045 
" style="fill: none; stroke-dasharray: 5.55,2.4; stroke-dashoffset: 0; stroke: #e377c2; stroke-width: 1.5"/>
    </g>
    <g id="text_16">
     <!-- Manila -->
     <g transform="translate(158.317082 61.126545) scale(0.0833 -0.0833)">
      <use xlink:href="#CMR17-4d" transform="scale(0.996264)"/>
      <use xlink:href="#CMR17-61" transform="translate(84.686941 0) scale(0.996264)"/>
      <use xlink:href="#CMR17-6e" transform="translate(130.377418 0) scale(0.996264)"/>
      <use xlink:href="#CMR17-69" transform="translate(181.272787 0) scale(0.996264)"/>
      <use xlink:href="#CMR17-6c" transform="translate(206.143846 0) scale(0.996264)"/>
      <use xlink:href="#CMR17-61" transform="translate(231.014904 0) scale(0.996264)"/>
     </g>
    </g>
    <g id="line2d_27">
     <path d="M 147.488082 66.155514 
L 151.653082 66.155514 
L 155.818082 66.155514 
" style="fill: none; stroke: #1f77b4; stroke-width: 1.5; stroke-linecap: square"/>
    </g>
    <g id="text_17">
     <!-- Mexico City -->
     <g transform="translate(158.317082 69.071014) scale(0.0833 -0.0833)">
      <defs>
       <path id="CMR17-78" d="M 1664 1477 
C 1856 1726 2074 2006 2253 2216 
C 2464 2458 2707 2560 2989 2560 
L 2989 2726 
C 2880 2726 2656 2726 2541 2726 
C 2368 2726 2170 2726 2022 2732 
L 2022 2566 
C 2112 2553 2163 2489 2163 2400 
C 2163 2285 2099 2215 2067 2171 
L 1594 1573 
L 1030 2306 
C 973 2376 973 2388 973 2420 
C 973 2497 1037 2560 1146 2560 
L 1146 2732 
C 992 2726 717 2726 557 2726 
C 384 2726 179 2726 38 2732 
L 38 2560 
C 384 2560 461 2534 614 2343 
L 1350 1395 
C 1363 1382 1395 1344 1395 1325 
C 1395 1299 838 619 768 530 
C 480 185 179 160 6 160 
L 6 0 
C 115 0 339 0 454 0 
C 582 0 864 0 979 -6 
L 979 160 
C 941 166 838 179 838 325 
C 838 440 890 510 947 586 
L 1478 1236 
L 2035 512 
C 2086 442 2163 346 2163 301 
C 2163 211 2086 160 1984 160 
L 1984 -6 
C 2138 0 2413 0 2573 0 
C 2746 0 2950 0 3091 -6 
L 3091 160 
C 2771 160 2675 172 2522 370 
L 1664 1477 
z
" transform="scale(0.015625)"/>
       <path id="CMR17-43" d="M 3974 4289 
C 3974 4403 3968 4410 3930 4410 
C 3904 4410 3898 4403 3853 4327 
L 3571 3792 
C 3258 4187 2874 4416 2381 4416 
C 1286 4416 294 3456 294 2148 
C 294 826 1286 -128 2387 -128 
C 3366 -128 3974 730 3974 1461 
C 3974 1524 3974 1550 3917 1550 
C 3866 1550 3866 1531 3859 1474 
C 3808 585 3168 38 2477 38 
C 1824 38 781 495 781 2147 
C 781 3805 1843 4250 2464 4250 
C 3187 4250 3712 3628 3834 2745 
C 3846 2668 3846 2655 3904 2655 
C 3974 2655 3974 2668 3974 2783 
L 3974 4289 
z
" transform="scale(0.015625)"/>
       <path id="CMR17-79" d="M 2496 2197 
C 2656 2586 2944 2586 3034 2586 
L 3034 2752 
C 2912 2752 2752 2752 2630 2752 
C 2496 2752 2285 2752 2157 2758 
L 2157 2592 
C 2400 2573 2406 2394 2406 2343 
C 2406 2280 2394 2248 2362 2171 
L 1664 449 
L 902 2306 
C 870 2382 870 2426 870 2433 
C 870 2573 1018 2586 1171 2586 
L 1171 2758 
C 1018 2752 742 2752 582 2752 
C 410 2752 205 2752 64 2758 
L 64 2586 
C 410 2586 448 2554 531 2350 
L 1485 15 
C 1197 -738 1030 -1178 627 -1178 
C 557 -1178 397 -1159 282 -1044 
C 429 -1031 493 -942 493 -833 
C 493 -725 416 -629 288 -629 
C 147 -629 77 -725 77 -840 
C 77 -1095 339 -1280 627 -1280 
C 998 -1280 1229 -922 1357 -604 
L 2496 2197 
z
" transform="scale(0.015625)"/>
      </defs>
      <use xlink:href="#CMR17-4d" transform="scale(0.996264)"/>
      <use xlink:href="#CMR17-65" transform="translate(84.686941 0) scale(0.996264)"/>
      <use xlink:href="#CMR17-78" transform="translate(125.172601 0) scale(0.996264)"/>
      <use xlink:href="#CMR17-69" transform="translate(173.465517 0) scale(0.996264)"/>
      <use xlink:href="#CMR17-63" transform="translate(198.336575 0) scale(0.996264)"/>
      <use xlink:href="#CMR17-6f" transform="translate(238.822236 0) scale(0.996264)"/>
      <use xlink:href="#CMR17-43" transform="translate(314.588679 0) scale(0.996264)"/>
      <use xlink:href="#CMR17-69" transform="translate(381.09856 0) scale(0.996264)"/>
      <use xlink:href="#CMR17-74" transform="translate(405.969618 0) scale(0.996264)"/>
      <use xlink:href="#CMR17-79" transform="translate(438.647932 0) scale(0.996264)"/>
     </g>
    </g>
    <g id="line2d_28">
     <path d="M 209.500997 42.322106 
L 213.665997 42.322106 
L 217.830997 42.322106 
" style="fill: none; stroke-dasharray: 5.55,2.4; stroke-dashoffset: 0; stroke: #2ca02c; stroke-width: 1.5"/>
    </g>
    <g id="text_18">
     <!-- Seattle -->
     <g transform="translate(220.329997 45.237606) scale(0.0833 -0.0833)">
      <defs>
       <path id="CMR17-53" d="M 2803 4290 
C 2803 4404 2797 4411 2758 4411 
C 2720 4411 2707 4385 2682 4328 
L 2490 3907 
C 2246 4257 1875 4416 1472 4416 
C 819 4416 294 3901 294 3253 
C 294 3056 339 2776 557 2510 
C 794 2218 1018 2167 1530 2033 
C 1722 1982 2042 1899 2106 1874 
C 2470 1722 2662 1341 2662 985 
C 2662 527 2336 38 1779 38 
C 1094 38 454 419 410 1311 
C 403 1413 397 1419 352 1419 
C 301 1419 294 1413 294 1285 
L 294 -1 
C 294 -115 301 -122 339 -122 
C 384 -122 397 -90 486 108 
C 493 127 493 140 614 381 
C 934 -39 1472 -128 1779 -128 
C 2477 -128 2970 451 2970 1124 
C 2970 1454 2848 1708 2778 1823 
C 2509 2230 2221 2306 1914 2382 
C 1869 2402 1856 2402 1498 2490 
C 1152 2579 1005 2624 845 2796 
C 666 2992 602 3196 602 3399 
C 602 3812 934 4263 1478 4263 
C 2157 4263 2579 3786 2675 2993 
C 2694 2878 2701 2872 2746 2872 
C 2803 2872 2803 2891 2803 2999 
L 2803 4290 
z
" transform="scale(0.015625)"/>
      </defs>
      <use xlink:href="#CMR17-53" transform="scale(0.996264)"/>
      <use xlink:href="#CMR17-65" transform="translate(50.89537 0) scale(0.996264)"/>
      <use xlink:href="#CMR17-61" transform="translate(91.38103 0) scale(0.996264)"/>
      <use xlink:href="#CMR17-74" transform="translate(137.071507 0) scale(0.996264)"/>
      <use xlink:href="#CMR17-74" transform="translate(172.352275 0) scale(0.996264)"/>
      <use xlink:href="#CMR17-6c" transform="translate(207.633043 0) scale(0.996264)"/>
      <use xlink:href="#CMR17-65" transform="translate(232.504101 0) scale(0.996264)"/>
     </g>
    </g>
    <g id="line2d_29">
     <path d="M 209.500997 50.266576 
L 213.665997 50.266576 
L 217.830997 50.266576 
" style="fill: none; stroke-dasharray: 9.6,2.4,1.5,2.4; stroke-dashoffset: 0; stroke: #d62728; stroke-width: 1.5"/>
    </g>
    <g id="text_19">
     <!-- Sydney -->
     <g transform="translate(220.329997 53.182076) scale(0.0833 -0.0833)">
      <use xlink:href="#CMR17-53" transform="scale(0.996264)"/>
      <use xlink:href="#CMR17-79" transform="translate(50.89537 0) scale(0.996264)"/>
      <use xlink:href="#CMR17-64" transform="translate(99.188286 0) scale(0.996264)"/>
      <use xlink:href="#CMR17-6e" transform="translate(150.083655 0) scale(0.996264)"/>
      <use xlink:href="#CMR17-65" transform="translate(200.979025 0) scale(0.996264)"/>
      <use xlink:href="#CMR17-79" transform="translate(241.464686 0) scale(0.996264)"/>
     </g>
    </g>
    <g id="line2d_30">
     <path d="M 209.500997 58.211045 
L 213.665997 58.211045 
L 217.830997 58.211045 
" style="fill: none; stroke-dasharray: 1.5,2.475; stroke-dashoffset: 0; stroke: #ff7f0e; stroke-width: 1.5"/>
    </g>
    <g id="text_20">
     <!-- So Paulo -->
     <g transform="translate(220.329997 61.126545) scale(0.0833 -0.0833)">
      <defs>
       <path id="CMR17-7e" d="M 2400 4184 
C 2182 3980 2061 3865 1862 3865 
C 1722 3865 1626 3932 1491 4024 
C 1363 4111 1261 4184 1120 4184 
C 890 4184 730 4004 461 3718 
L 531 3648 
C 749 3850 870 3968 1069 3968 
C 1210 3968 1306 3900 1440 3808 
C 1568 3722 1670 3648 1811 3648 
C 2042 3648 2202 3828 2470 4114 
L 2400 4184 
z
" transform="scale(0.015625)"/>
      </defs>
      <use xlink:href="#CMR17-53" transform="scale(0.996264)"/>
      <use xlink:href="#CMR17-7e" transform="translate(50.89537 0) scale(0.996264)"/>
      <use xlink:href="#CMR17-61" transform="translate(50.89537 0) scale(0.996264)"/>
      <use xlink:href="#CMR17-6f" transform="translate(96.585847 0) scale(0.996264)"/>
      <use xlink:href="#CMR17-50" transform="translate(172.35229 0) scale(0.996264)"/>
      <use xlink:href="#CMR17-61" transform="translate(232.336137 0) scale(0.996264)"/>
      <use xlink:href="#CMR17-75" transform="translate(278.026614 0) scale(0.996264)"/>
      <use xlink:href="#CMR17-6c" transform="translate(328.921984 0) scale(0.996264)"/>
      <use xlink:href="#CMR17-6f" transform="translate(353.793042 0) scale(0.996264)"/>
     </g>
    </g>
   </g>
  </g>
 </g>
 <defs>
  <clipPath id="p4845d2250b">
   <rect x="37.567091" y="0" width="228.832909" height="78.181683"/>
  </clipPath>
 </defs>
</svg>
