<?xml version="1.0" encoding="utf-8" standalone="no"?>
<!DOCTYPE svg PUBLIC "-//W3C//DTD SVG 1.1//EN"
  "http://www.w3.org/Graphics/SVG/1.1/DTD/svg11.dtd">
<svg xmlns:xlink="http://www.w3.org/1999/xlink" width="218.16pt" height="164.16pt" viewBox="0 0 218.16 164.16" xmlns="http://www.w3.org/2000/svg" version="1.1">
 <metadata>
  <rdf:RDF xmlns:dc="http://purl.org/dc/elements/1.1/" xmlns:cc="http://creativecommons.org/ns#" xmlns:rdf="http://www.w3.org/1999/02/22-rdf-syntax-ns#">
   <cc:Work>
    <dc:type rdf:resource="http://purl.org/dc/dcmitype/StillImage"/>
    <dc:date>2023-10-11T12:27:36.898585</dc:date>
    <dc:format>image/svg+xml</dc:format>
    <dc:creator>
     <cc:Agent>
      <dc:title>Matplotlib v3.7.0, https://matplotlib.org/</dc:title>
     </cc:Agent>
    </dc:creator>
   </cc:Work>
  </rdf:RDF>
 </metadata>
 <defs>
  <style type="text/css">*{stroke-linejoin: round; stroke-linecap: butt}</style>
 </defs>
 <g id="figure_1">
  <g id="patch_1">
   <path d="M 0 164.16 
L 218.16 164.16 
L 218.16 0 
L 0 0 
z
" style="fill: #ffffff"/>
  </g>
  <g id="axes_1">
   <g id="patch_2">
    <path d="M 3.5 126.814399 
L 218.16 126.814399 
L 218.16 0 
L 3.5 0 
z
" style="fill: #ffffff"/>
   </g>
   <g id="matplotlib.axis_1">
    <g id="xtick_1">
     <g id="line2d_1">
      <defs>
       <path id="mfed43b2e85" d="M 0 0 
L 0 3.5 
" style="stroke: #000000; stroke-width: 0.8"/>
      </defs>
      <g>
       <use xlink:href="#mfed43b2e85" x="18.304138" y="126.814399" style="stroke: #000000; stroke-width: 0.8"/>
      </g>
     </g>
     <g id="text_1">
      <!-- 25 -->
      <g transform="translate(11.475649 143.500275) scale(0.14 -0.14)">
       <defs>
        <path id="CMR17-32" d="M 2669 989 
L 2554 989 
C 2490 536 2438 459 2413 420 
C 2381 369 1920 369 1830 369 
L 602 369 
C 832 619 1280 1072 1824 1597 
C 2214 1967 2669 2402 2669 3035 
C 2669 3790 2067 4224 1395 4224 
C 691 4224 262 3604 262 3030 
C 262 2780 448 2748 525 2748 
C 589 2748 781 2787 781 3010 
C 781 3207 614 3264 525 3264 
C 486 3264 448 3258 422 3245 
C 544 3790 915 4058 1306 4058 
C 1862 4058 2227 3617 2227 3035 
C 2227 2479 1901 2000 1536 1584 
L 262 146 
L 262 0 
L 2515 0 
L 2669 989 
z
" transform="scale(0.015625)"/>
        <path id="CMR17-35" d="M 730 3692 
C 794 3666 1056 3584 1325 3584 
C 1920 3584 2246 3911 2432 4100 
C 2432 4157 2432 4192 2394 4192 
C 2387 4192 2374 4192 2323 4163 
C 2099 4058 1837 3973 1517 3973 
C 1325 3973 1037 3999 723 4139 
C 653 4171 640 4171 634 4171 
C 602 4171 595 4164 595 4037 
L 595 2203 
C 595 2089 595 2057 659 2057 
C 691 2057 704 2070 736 2114 
C 941 2401 1222 2522 1542 2522 
C 1766 2522 2246 2382 2246 1289 
C 2246 1085 2246 715 2054 421 
C 1894 159 1645 25 1370 25 
C 947 25 518 320 403 814 
C 429 807 480 795 506 795 
C 589 795 749 840 749 1038 
C 749 1210 627 1280 506 1280 
C 358 1280 262 1190 262 1011 
C 262 454 704 -128 1382 -128 
C 2042 -128 2669 440 2669 1264 
C 2669 2030 2170 2624 1549 2624 
C 1222 2624 947 2503 730 2274 
L 730 3692 
z
" transform="scale(0.015625)"/>
       </defs>
       <use xlink:href="#CMR17-32" transform="scale(0.996264)"/>
       <use xlink:href="#CMR17-35" transform="translate(45.690477 0) scale(0.996264)"/>
      </g>
     </g>
    </g>
    <g id="xtick_2">
     <g id="line2d_2">
      <g>
       <use xlink:href="#mfed43b2e85" x="55.314483" y="126.814399" style="stroke: #000000; stroke-width: 0.8"/>
      </g>
     </g>
     <g id="text_2">
      <!-- 50 -->
      <g transform="translate(48.485994 143.500275) scale(0.14 -0.14)">
       <defs>
        <path id="CMR17-30" d="M 2688 2025 
C 2688 2416 2682 3080 2413 3591 
C 2176 4039 1798 4198 1466 4198 
C 1158 4198 768 4058 525 3597 
C 269 3118 243 2524 243 2025 
C 243 1661 250 1106 448 619 
C 723 -39 1216 -128 1466 -128 
C 1760 -128 2208 -7 2470 600 
C 2662 1042 2688 1559 2688 2025 
z
M 1466 -26 
C 1056 -26 813 325 723 812 
C 653 1188 653 1738 653 2096 
C 653 2588 653 2997 736 3387 
C 858 3929 1216 4096 1466 4096 
C 1728 4096 2067 3923 2189 3400 
C 2272 3036 2278 2607 2278 2096 
C 2278 1680 2278 1169 2202 792 
C 2067 95 1690 -26 1466 -26 
z
" transform="scale(0.015625)"/>
       </defs>
       <use xlink:href="#CMR17-35" transform="scale(0.996264)"/>
       <use xlink:href="#CMR17-30" transform="translate(45.690477 0) scale(0.996264)"/>
      </g>
     </g>
    </g>
    <g id="xtick_3">
     <g id="line2d_3">
      <g>
       <use xlink:href="#mfed43b2e85" x="92.324828" y="126.814399" style="stroke: #000000; stroke-width: 0.8"/>
      </g>
     </g>
     <g id="text_3">
      <!-- 75 -->
      <g transform="translate(85.496339 143.500275) scale(0.14 -0.14)">
       <defs>
        <path id="CMR17-37" d="M 2886 3941 
L 2886 4081 
L 1382 4081 
C 634 4081 621 4165 595 4288 
L 480 4288 
L 294 3094 
L 410 3094 
C 429 3215 474 3540 550 3661 
C 589 3712 1062 3712 1171 3712 
L 2579 3712 
L 1869 2661 
C 1395 1954 1069 999 1069 165 
C 1069 89 1069 -128 1299 -128 
C 1530 -128 1530 89 1530 171 
L 1530 465 
C 1530 1508 1709 2196 2003 2636 
L 2886 3941 
z
" transform="scale(0.015625)"/>
       </defs>
       <use xlink:href="#CMR17-37" transform="scale(0.996264)"/>
       <use xlink:href="#CMR17-35" transform="translate(45.690477 0) scale(0.996264)"/>
      </g>
     </g>
    </g>
    <g id="xtick_4">
     <g id="line2d_4">
      <g>
       <use xlink:href="#mfed43b2e85" x="129.335172" y="126.814399" style="stroke: #000000; stroke-width: 0.8"/>
      </g>
     </g>
     <g id="text_4">
      <!-- 100 -->
      <g transform="translate(119.092439 143.500275) scale(0.14 -0.14)">
       <defs>
        <path id="CMR17-31" d="M 1702 4058 
C 1702 4192 1696 4192 1606 4192 
C 1357 3916 979 3827 621 3827 
C 602 3827 570 3827 563 3808 
C 557 3795 557 3782 557 3648 
C 755 3648 1088 3686 1344 3839 
L 1344 461 
C 1344 236 1331 160 781 160 
L 589 160 
L 589 0 
C 896 0 1216 0 1523 0 
C 1830 0 2150 0 2458 0 
L 2458 160 
L 2266 160 
C 1715 160 1702 230 1702 458 
L 1702 4058 
z
" transform="scale(0.015625)"/>
       </defs>
       <use xlink:href="#CMR17-31" transform="scale(0.996264)"/>
       <use xlink:href="#CMR17-30" transform="translate(45.690477 0) scale(0.996264)"/>
       <use xlink:href="#CMR17-30" transform="translate(91.380954 0) scale(0.996264)"/>
      </g>
     </g>
    </g>
    <g id="xtick_5">
     <g id="line2d_5">
      <g>
       <use xlink:href="#mfed43b2e85" x="166.345517" y="126.814399" style="stroke: #000000; stroke-width: 0.8"/>
      </g>
     </g>
     <g id="text_5">
      <!-- 125 -->
      <g transform="translate(156.102784 143.500275) scale(0.14 -0.14)">
       <use xlink:href="#CMR17-31" transform="scale(0.996264)"/>
       <use xlink:href="#CMR17-32" transform="translate(45.690477 0) scale(0.996264)"/>
       <use xlink:href="#CMR17-35" transform="translate(91.380954 0) scale(0.996264)"/>
      </g>
     </g>
    </g>
    <g id="xtick_6">
     <g id="line2d_6">
      <g>
       <use xlink:href="#mfed43b2e85" x="203.355862" y="126.814399" style="stroke: #000000; stroke-width: 0.8"/>
      </g>
     </g>
     <g id="text_6">
      <!-- 150 -->
      <g transform="translate(193.113129 143.500275) scale(0.14 -0.14)">
       <use xlink:href="#CMR17-31" transform="scale(0.996264)"/>
       <use xlink:href="#CMR17-35" transform="translate(45.690477 0) scale(0.996264)"/>
       <use xlink:href="#CMR17-30" transform="translate(91.380954 0) scale(0.996264)"/>
      </g>
     </g>
    </g>
    <g id="text_7">
     <!-- RTT [ms] -->
     <g transform="translate(82.056712 160.673076) scale(0.14 -0.14)">
      <defs>
       <path id="CMR17-52" d="M 2509 2146 
C 3117 2268 3629 2676 3629 3186 
C 3629 3785 2950 4326 2054 4326 
L 333 4326 
L 333 4160 
C 774 4160 845 4160 845 3873 
L 845 415 
C 845 128 774 128 333 128 
L 333 -26 
C 518 -26 851 -26 1050 -26 
C 1248 -26 1581 -26 1766 -26 
L 1766 128 
C 1325 128 1254 128 1254 417 
L 1254 2112 
L 2003 2112 
C 2368 2112 2573 1964 2662 1881 
C 2918 1632 2918 1459 2918 1024 
C 2918 595 2918 377 3110 160 
C 3354 -102 3680 -128 3821 -128 
C 4294 -128 4365 396 4365 503 
C 4365 540 4365 585 4307 585 
C 4256 585 4250 547 4250 522 
C 4218 112 4032 -26 3834 -26 
C 3482 -26 3443 375 3405 764 
C 3386 898 3373 993 3360 1133 
C 3322 1452 3270 1917 2509 2146 
z
M 1984 2214 
L 1254 2214 
L 1254 3913 
C 1254 4129 1267 4160 1523 4160 
L 1990 4160 
C 2522 4160 3142 3977 3142 3190 
C 3142 2372 2464 2214 1984 2214 
z
" transform="scale(0.015625)"/>
       <path id="CMR17-54" d="M 3981 4326 
L 288 4326 
L 179 2918 
L 294 2918 
C 378 3976 467 4160 1453 4160 
C 1568 4160 1754 4160 1805 4154 
C 1926 4135 1926 4058 1926 3912 
L 1926 459 
C 1926 230 1907 160 1376 160 
L 1197 160 
L 1197 0 
C 1504 0 1824 0 2138 0 
C 2451 0 2771 0 3078 0 
L 3078 160 
L 2899 160 
C 2368 160 2349 230 2349 459 
L 2349 3912 
C 2349 4052 2349 4129 2464 4154 
C 2515 4160 2701 4160 2816 4160 
C 3795 4160 3891 3976 3974 2918 
L 4090 2918 
L 3981 4326 
z
" transform="scale(0.015625)"/>
       <path id="CMR17-5b" d="M 1504 -1600 
L 1504 -1377 
L 902 -1377 
L 902 4544 
L 1504 4544 
L 1504 4767 
L 678 4767 
L 678 -1600 
L 1504 -1600 
z
" transform="scale(0.015625)"/>
       <path id="CMR17-6d" d="M 4326 1933 
C 4326 2252 4269 2790 3507 2790 
C 3072 2790 2771 2496 2656 2151 
L 2650 2151 
C 2573 2676 2195 2790 1837 2790 
C 1331 2790 1069 2400 973 2144 
L 966 2144 
L 966 2790 
L 211 2720 
L 211 2554 
C 589 2554 646 2515 646 2208 
L 646 428 
C 646 184 621 153 211 153 
L 211 -13 
C 365 0 646 0 813 0 
C 979 0 1267 0 1421 -13 
L 1421 153 
C 1011 153 986 178 986 428 
L 986 1658 
C 986 2247 1344 2688 1792 2688 
C 2266 2688 2317 2266 2317 1958 
L 2317 428 
C 2317 184 2291 153 1882 153 
L 1882 -13 
C 2035 0 2317 0 2483 0 
C 2650 0 2938 0 3091 -13 
L 3091 153 
C 2682 153 2656 178 2656 428 
L 2656 1658 
C 2656 2247 3014 2688 3462 2688 
C 3936 2688 3987 2266 3987 1958 
L 3987 428 
C 3987 184 3962 153 3552 153 
L 3552 -13 
C 3706 0 3987 0 4154 0 
C 4320 0 4608 0 4762 -13 
L 4762 153 
C 4352 153 4326 178 4326 428 
L 4326 1933 
z
" transform="scale(0.015625)"/>
       <path id="CMR17-73" d="M 1978 2697 
C 1978 2813 1971 2819 1933 2819 
C 1907 2819 1901 2813 1824 2717 
C 1805 2691 1747 2626 1728 2601 
C 1523 2819 1235 2819 1126 2819 
C 416 2819 160 2447 160 2076 
C 160 1498 813 1365 998 1325 
C 1402 1243 1542 1217 1677 1101 
C 1760 1025 1901 884 1901 654 
C 1901 384 1747 38 1158 38 
C 602 38 403 460 288 1021 
C 269 1110 269 1117 218 1117 
C 166 1117 160 1110 160 983 
L 160 63 
C 160 -51 166 -58 205 -58 
C 237 -58 243 -51 275 0 
C 314 57 410 211 448 276 
C 576 103 800 -64 1158 -64 
C 1792 -64 2131 283 2131 784 
C 2131 1112 1958 1285 1875 1362 
C 1683 1561 1459 1606 1190 1657 
C 838 1735 390 1825 390 2217 
C 390 2383 480 2737 1126 2737 
C 1811 2737 1850 2094 1862 1888 
C 1869 1856 1901 1849 1920 1849 
C 1978 1849 1978 1869 1978 1978 
L 1978 2697 
z
" transform="scale(0.015625)"/>
       <path id="CMR17-5d" d="M 915 4767 
L 90 4767 
L 90 4544 
L 691 4544 
L 691 -1377 
L 90 -1377 
L 90 -1600 
L 915 -1600 
L 915 4767 
z
" transform="scale(0.015625)"/>
      </defs>
      <use xlink:href="#CMR17-52" transform="scale(0.996264)"/>
      <use xlink:href="#CMR17-54" transform="translate(59.983847 0) scale(0.996264)"/>
      <use xlink:href="#CMR17-54" transform="translate(126.493727 0) scale(0.996264)"/>
      <use xlink:href="#CMR17-5b" transform="translate(223.079574 0) scale(0.996264)"/>
      <use xlink:href="#CMR17-6d" transform="translate(247.950633 0) scale(0.996264)"/>
      <use xlink:href="#CMR17-73" transform="translate(324.870222 0) scale(0.996264)"/>
      <use xlink:href="#CMR17-5d" transform="translate(360.67156 0) scale(0.996264)"/>
     </g>
    </g>
   </g>
   <g id="matplotlib.axis_2">
    <g id="ytick_1">
     <g id="line2d_7">
      <path d="M 3.5 121.050108 
L 218.16 121.050108 
" clip-path="url(#p37088a6d49)" style="fill: none; stroke: #b0b0b0; stroke-opacity: 0.7; stroke-width: 0.5; stroke-linecap: square"/>
     </g>
     <g id="line2d_8">
      <defs>
       <path id="mf931ed47bd" d="M 0 0 
L -3.5 0 
" style="stroke: #000000; stroke-width: 0.8"/>
      </defs>
      <g>
       <use xlink:href="#mf931ed47bd" x="3.5" y="121.050108" style="stroke: #000000; stroke-width: 0.8"/>
      </g>
     </g>
    </g>
    <g id="ytick_2">
     <g id="line2d_9">
      <path d="M 3.5 92.228654 
L 218.16 92.228654 
" clip-path="url(#p37088a6d49)" style="fill: none; stroke: #b0b0b0; stroke-opacity: 0.7; stroke-width: 0.5; stroke-linecap: square"/>
     </g>
     <g id="line2d_10">
      <g>
       <use xlink:href="#mf931ed47bd" x="3.5" y="92.228654" style="stroke: #000000; stroke-width: 0.8"/>
      </g>
     </g>
    </g>
    <g id="ytick_3">
     <g id="line2d_11">
      <path d="M 3.5 63.4072 
L 218.16 63.4072 
" clip-path="url(#p37088a6d49)" style="fill: none; stroke: #b0b0b0; stroke-opacity: 0.7; stroke-width: 0.5; stroke-linecap: square"/>
     </g>
     <g id="line2d_12">
      <g>
       <use xlink:href="#mf931ed47bd" x="3.5" y="63.4072" style="stroke: #000000; stroke-width: 0.8"/>
      </g>
     </g>
    </g>
    <g id="ytick_4">
     <g id="line2d_13">
      <path d="M 3.5 34.585745 
L 218.16 34.585745 
" clip-path="url(#p37088a6d49)" style="fill: none; stroke: #b0b0b0; stroke-opacity: 0.7; stroke-width: 0.5; stroke-linecap: square"/>
     </g>
     <g id="line2d_14">
      <g>
       <use xlink:href="#mf931ed47bd" x="3.5" y="34.585745" style="stroke: #000000; stroke-width: 0.8"/>
      </g>
     </g>
    </g>
    <g id="ytick_5">
     <g id="line2d_15">
      <path d="M 3.5 5.764291 
L 218.16 5.764291 
" clip-path="url(#p37088a6d49)" style="fill: none; stroke: #b0b0b0; stroke-opacity: 0.7; stroke-width: 0.5; stroke-linecap: square"/>
     </g>
     <g id="line2d_16">
      <g>
       <use xlink:href="#mf931ed47bd" x="3.5" y="5.764291" style="stroke: #000000; stroke-width: 0.8"/>
      </g>
     </g>
    </g>
   </g>
   <g id="line2d_17">
    <path d="M 3.442264 121.049669 
L 7.776915 120.937761 
L 9.51048 120.482804 
L 9.793239 120.299269 
L 10.059714 120.075013 
L 11.063434 118.711607 
L 13.181906 114.273509 
L 13.861416 112.461739 
L 13.978369 112.042815 
L 14.26705 111.187099 
L 16.16642 104.013108 
L 16.609064 101.988214 
L 16.819283 100.892129 
L 19.688325 88.350646 
L 20.039183 86.600835 
L 20.505513 84.499187 
L 22.428571 76.980977 
L 22.743899 75.798763 
L 22.859371 75.212417 
L 25.485625 65.271628 
L 25.830562 63.855638 
L 29.47534 49.88381 
L 30.098595 48.333793 
L 31.031255 45.831092 
L 31.459095 44.894081 
L 31.805512 44.051254 
L 32.307372 42.986807 
L 32.507228 42.548988 
L 33.955073 39.529957 
L 36.835958 34.074285 
L 37.183855 33.531442 
L 38.021769 32.118967 
L 38.268998 31.719525 
L 38.793065 30.844766 
L 39.047696 30.303096 
L 39.497742 29.555039 
L 39.851561 28.919037 
L 40.920419 26.85767 
L 43.811668 23.597099 
L 44.386068 23.064656 
L 44.707318 22.763939 
L 45.235826 22.308836 
L 45.829472 21.877755 
L 46.43052 21.416353 
L 46.545992 21.284524 
L 48.61413 19.717223 
L 48.93686 19.482421 
L 49.198893 19.289365 
L 52.007238 16.925231 
L 52.310723 16.631691 
L 53.12347 15.983092 
L 53.413631 15.813472 
L 53.786696 15.600495 
L 55.085019 14.835887 
L 55.347052 14.670954 
L 56.12575 14.265653 
L 56.62761 14.001409 
L 57.09394 13.773784 
L 57.957021 13.402026 
L 58.59656 13.0934 
L 58.95482 12.946777 
L 59.674301 12.648696 
L 60.328644 12.338752 
L 60.772768 12.165909 
L 62.715071 11.494314 
L 62.829063 11.428838 
L 63.726194 11.138522 
L 64.155514 10.976225 
L 65.53674 10.548953 
L 66.078571 10.384166 
L 66.630766 10.234467 
L 71.183038 9.222753 
L 71.902519 9.088287 
L 82.135139 7.681525 
L 85.067839 7.497843 
L 97.467785 6.995574 
L 123.135199 6.461227 
L 127.508342 6.35591 
L 197.136644 5.974338 
L 218.23254 5.939038 
L 218.23254 5.939038 
" clip-path="url(#p37088a6d49)" style="fill: none; stroke: #1f77b4; stroke-width: 1.5; stroke-linecap: square"/>
   </g>
   <g id="line2d_18">
    <path d="M 6.819088 121.049809 
L 10.813244 120.937169 
L 11.929476 120.674742 
L 12.961325 120.137906 
L 13.861416 119.10288 
L 13.979849 118.904861 
L 14.925834 117.373441 
L 15.611265 115.999297 
L 15.703051 115.81416 
L 16.053909 115.053842 
L 16.352953 114.359131 
L 19.109483 106.795796 
L 20.518837 101.550262 
L 25.048903 82.753814 
L 26.000809 77.998682 
L 28.270284 65.947434 
L 28.911303 62.197971 
L 31.009049 54.170596 
L 32.834399 48.289067 
L 37.287484 36.006548 
L 37.585047 35.233948 
L 39.719804 31.164839 
L 40.417079 29.984519 
L 41.222424 28.891674 
L 41.696156 28.474967 
L 41.978915 28.228418 
L 42.873085 27.481282 
L 43.280199 27.196687 
L 43.565919 26.943547 
L 43.795383 26.784473 
L 45.078902 25.888149 
L 45.663665 25.531657 
L 52.349214 21.343617 
L 52.753367 21.027567 
L 54.273752 20.234296 
L 56.105024 19.373322 
L 57.113186 18.890109 
L 57.478848 18.74182 
L 58.522539 18.237938 
L 60.025159 17.509974 
L 60.225015 17.418604 
L 60.686904 17.211898 
L 65.187362 15.50972 
L 65.674418 15.359035 
L 65.794332 15.296424 
L 66.325801 15.131059 
L 67.391698 14.819203 
L 69.097135 14.361155 
L 69.43615 14.285064 
L 72.234132 13.605631 
L 72.553901 13.540323 
L 73.19196 13.396828 
L 86.259572 10.865431 
L 87.882106 10.59192 
L 87.990176 10.565857 
L 88.993897 10.414273 
L 89.535728 10.314814 
L 91.936959 9.941546 
L 92.715657 9.813028 
L 94.578017 9.513155 
L 95.439618 9.395722 
L 97.149496 9.161755 
L 98.246483 9.023652 
L 98.514438 8.989201 
L 99.725416 8.830427 
L 99.837928 8.812453 
L 101.355352 8.62462 
L 102.658116 8.473934 
L 105.192584 8.191736 
L 106.659674 8.007798 
L 107.857329 7.87958 
L 108.856608 7.790607 
L 122.178852 7.003028 
L 171.846735 6.107303 
L 218.269551 5.945233 
L 218.269551 5.945233 
" clip-path="url(#p37088a6d49)" style="fill: none; stroke-dasharray: 1.5,2.475; stroke-dashoffset: 0; stroke: #ff7f0e; stroke-width: 1.5"/>
   </g>
   <g id="line2d_19">
    <path d="M 3.49852 121.016792 
L 6.462308 120.559521 
L 7.386086 119.893035 
L 9.162583 117.434232 
L 9.812484 116.263521 
L 10.034546 115.871155 
L 12.712615 109.344211 
L 15.051669 102.754433 
L 16.822244 95.052462 
L 16.937716 94.290862 
L 17.663119 91.651498 
L 18.302658 89.556406 
L 18.41813 89.01973 
L 19.783071 84.109201 
L 19.898544 83.499679 
L 20.231637 82.237998 
L 21.56697 77.111694 
L 22.560328 73.489776 
L 27.020814 55.886135 
L 28.098556 50.935904 
L 28.560445 48.650585 
L 29.031216 46.351973 
L 29.592293 44.475418 
L 30.788467 40.567123 
L 31.115639 39.672433 
L 32.564964 35.830424 
L 33.053501 34.658505 
L 33.16009 34.31827 
L 35.648666 28.79563 
L 36.067623 27.96947 
L 36.183095 27.644081 
L 37.052098 26.078242 
L 37.548037 25.317677 
L 37.663509 25.088265 
L 38.184615 24.380695 
L 39.66947 22.494128 
L 40.283842 21.689545 
L 40.695397 21.082612 
L 43.188413 19.190522 
L 43.444525 19.0488 
L 43.702117 18.874972 
L 44.488217 18.460338 
L 47.25363 17.292217 
L 47.774735 17.119769 
L 48.195173 16.961131 
L 48.714798 16.786267 
L 49.315846 16.604325 
L 50.210016 16.308799 
L 50.637856 16.172774 
L 52.010199 15.73898 
L 52.62161 15.511121 
L 56.714954 14.67046 
L 58.139112 14.392542 
L 58.497372 14.311755 
L 59.794215 14.048855 
L 60.63657 13.871746 
L 62.134749 13.585542 
L 62.592197 13.494053 
L 63.224334 13.358374 
L 64.195485 13.141217 
L 64.307997 13.099961 
L 65.033399 12.946502 
L 65.49973 12.851043 
L 80.049236 10.194244 
L 80.257975 10.149191 
L 81.449708 9.898373 
L 84.124816 9.387245 
L 85.097447 9.230678 
L 86.081923 9.062201 
L 88.36324 8.644115 
L 90.57942 8.368958 
L 91.962126 8.217915 
L 92.429937 8.171308 
L 94.973288 7.986604 
L 98.233159 7.800692 
L 98.891943 7.760989 
L 107.123044 7.33082 
L 107.405803 7.314421 
L 115.238672 6.96849 
L 119.872367 6.838852 
L 131.477331 6.611338 
L 145.863992 6.440444 
L 146.888439 6.429051 
L 184.803316 6.141121 
L 194.923425 6.083466 
L 218.170363 6.011828 
L 218.170363 6.011828 
" clip-path="url(#p37088a6d49)" style="fill: none; stroke-dasharray: 5.55,2.4; stroke-dashoffset: 0; stroke: #2ca02c; stroke-width: 1.5"/>
   </g>
   <g id="line2d_20">
    <path d="M 4.416376 121.049909 
L 8.515642 120.934886 
L 8.811725 120.900459 
L 9.568216 120.738273 
L 10.252167 120.43977 
L 10.574898 120.222659 
L 10.851735 119.99142 
L 11.258849 119.630033 
L 13.110846 117.735935 
L 13.51796 117.247784 
L 14.6638 115.521445 
L 15.115327 114.656186 
L 16.148655 112.019017 
L 17.445498 107.568743 
L 17.77563 106.596024 
L 19.158337 101.995106 
L 19.783071 99.793551 
L 19.897063 99.131274 
L 20.770507 95.659094 
L 21.642471 92.501535 
L 21.823082 91.887814 
L 22.305696 90.151127 
L 25.974162 74.89626 
L 28.643348 62.17727 
L 29.287328 59.175729 
L 29.624862 57.950078 
L 30.145968 56.087223 
L 30.25996 55.502358 
L 33.904738 44.118868 
L 37.278602 35.36618 
L 39.028451 31.699973 
L 39.142442 31.36963 
L 41.13804 27.849889 
L 41.462251 27.499447 
L 41.844198 27.093881 
L 42.002602 26.854284 
L 42.304606 26.549413 
L 44.717681 24.117215 
L 52.239663 17.907768 
L 52.993194 17.260216 
L 53.600164 16.895844 
L 53.90809 16.667789 
L 54.618688 16.23695 
L 54.888124 16.088694 
L 55.313002 15.859842 
L 55.426994 15.753575 
L 57.517338 14.504044 
L 57.91557 14.281162 
L 58.439636 13.950023 
L 62.991909 11.627874 
L 63.366453 11.466085 
L 63.631447 11.343898 
L 64.195485 11.078629 
L 64.309477 10.990869 
L 64.78469 10.815151 
L 65.042282 10.724406 
L 65.431631 10.587493 
L 65.897961 10.407795 
L 71.372531 9.051002 
L 81.480797 7.803858 
L 83.141821 7.648438 
L 83.56966 7.595703 
L 88.209277 7.083871 
L 91.325548 6.889048 
L 95.404088 6.725867 
L 99.624748 6.590148 
L 100.653636 6.562685 
L 110.482103 6.402688 
L 176.714335 6.042495 
L 218.294718 5.963292 
L 218.294718 5.963292 
" clip-path="url(#p37088a6d49)" style="fill: none; stroke-dasharray: 9.6,2.4,1.5,2.4; stroke-dashoffset: 0; stroke: #d62728; stroke-width: 1.5"/>
   </g>
   <g id="line2d_21">
    <path d="M 3.35788 121.048451 
L 7.349076 120.93513 
L 8.345394 120.737933 
L 8.705135 120.563553 
L 9.227721 120.169414 
L 9.729581 119.631615 
L 10.358757 118.882725 
L 12.831048 114.404428 
L 13.461704 112.720796 
L 15.439537 105.510932 
L 16.616466 100.06373 
L 17.464743 95.754586 
L 18.302658 92.310841 
L 18.41813 91.629765 
L 19.783071 85.548143 
L 19.897063 84.723408 
L 20.437414 82.075716 
L 21.618784 76.001614 
L 22.213911 73.191015 
L 23.581813 66.81519 
L 24.252441 63.973743 
L 25.559646 58.62992 
L 26.270245 55.643794 
L 27.069668 52.573154 
L 27.308015 51.532994 
L 27.851326 49.646302 
L 28.665554 46.524674 
L 28.779546 45.901215 
L 29.121522 44.977563 
L 29.540479 44.035046 
L 30.754418 41.301693 
L 32.520552 38.039083 
L 35.604254 32.692711 
L 36.067623 32.03611 
L 36.183095 31.795191 
L 36.402197 31.485182 
L 36.961793 30.702385 
L 37.465134 30.073063 
L 41.269797 25.02051 
L 41.819031 24.571941 
L 42.279439 24.165183 
L 42.85532 23.687295 
L 43.884208 22.843822 
L 45.68143 21.442665 
L 46.090024 21.185047 
L 46.585963 20.867645 
L 47.552673 20.417292 
L 48.916134 19.83781 
L 49.779216 19.500523 
L 50.075298 19.391918 
L 50.649699 19.175218 
L 51.151559 18.976109 
L 52.125671 18.610396 
L 52.552031 18.389362 
L 53.332209 18.174319 
L 53.973228 18.00797 
L 54.686787 17.821735 
L 56.409989 17.34525 
L 56.897045 17.191903 
L 57.847471 16.915547 
L 59.968904 16.253337 
L 60.364174 16.115286 
L 61.31608 15.83893 
L 61.78093 15.723442 
L 62.8187 15.432044 
L 71.927686 13.19366 
L 73.384414 12.957075 
L 73.972138 12.871669 
L 75.37409 12.639673 
L 76.758277 12.396331 
L 77.998863 12.231894 
L 78.397095 12.181034 
L 81.122536 11.834951 
L 82.998221 11.624624 
L 98.779432 10.37707 
L 102.686244 10.154761 
L 102.806157 10.144053 
L 125.441684 9.280568 
L 132.293039 9.039776 
L 132.47365 9.030215 
L 135.391545 8.891272 
L 153.625802 8.217208 
L 218.174804 7.580365 
L 218.174804 7.580365 
" clip-path="url(#p37088a6d49)" style="fill: none; stroke: #9467bd; stroke-width: 1.5; stroke-linecap: square"/>
   </g>
   <g id="patch_3">
    <path d="M 3.5 126.814399 
L 3.5 0 
" style="fill: none; stroke: #000000; stroke-width: 0.8; stroke-linejoin: miter; stroke-linecap: square"/>
   </g>
   <g id="patch_4">
    <path d="M 218.16 126.814399 
L 218.16 0 
" style="fill: none; stroke: #000000; stroke-width: 0.8; stroke-linejoin: miter; stroke-linecap: square"/>
   </g>
   <g id="patch_5">
    <path d="M 3.5 126.814399 
L 218.16 126.814399 
" style="fill: none; stroke: #000000; stroke-width: 0.8; stroke-linejoin: miter; stroke-linecap: square"/>
   </g>
   <g id="patch_6">
    <path d="M 3.5 0 
L 218.16 0 
" style="fill: none; stroke: #000000; stroke-width: 0.8; stroke-linejoin: miter; stroke-linecap: square"/>
   </g>
   <g id="legend_1">
    <g id="patch_7">
     <path d="M 55.82644 120.983399 
L 212.329 120.983399 
L 212.329 78.986748 
L 55.82644 78.986748 
z
" style="fill: #ffffff; opacity: 0.8; stroke: #000000; stroke-linejoin: miter"/>
    </g>
    <g id="line2d_22">
     <path d="M 60.49124 87.733248 
L 66.32224 87.733248 
L 72.15324 87.733248 
" style="fill: none; stroke: #1f77b4; stroke-width: 1.5; stroke-linecap: square"/>
    </g>
    <g id="text_8">
     <!-- Dallas -->
     <g transform="translate(75.65184 91.814948) scale(0.11662 -0.11662)">
      <defs>
       <path id="CMR17-44" d="M 333 4352 
L 333 4186 
C 774 4186 845 4186 845 3900 
L 845 452 
C 845 166 774 166 333 166 
L 333 0 
L 2368 0 
C 3398 0 4224 943 4224 2141 
C 4224 3346 3411 4352 2368 4352 
L 333 4352 
z
M 1523 166 
C 1267 166 1254 197 1254 414 
L 1254 3938 
C 1254 4155 1267 4186 1523 4186 
L 2240 4186 
C 2771 4186 3750 3874 3750 2141 
C 3750 1242 3488 879 3366 707 
C 3213 510 2848 166 2240 166 
L 1523 166 
z
" transform="scale(0.015625)"/>
       <path id="CMR17-61" d="M 2304 1653 
C 2304 2072 2304 2294 2035 2543 
C 1798 2752 1523 2816 1306 2816 
C 800 2816 435 2407 435 1971 
C 435 1728 627 1728 666 1728 
C 749 1728 896 1778 896 1954 
C 896 2112 774 2181 666 2181 
C 640 2181 608 2174 589 2168 
C 723 2592 1069 2714 1293 2714 
C 1613 2714 1965 2429 1965 1885 
L 1965 1600 
C 1587 1600 1133 1549 774 1357 
C 371 1133 256 813 256 570 
C 256 77 832 -64 1171 -64 
C 1523 -64 1850 139 1990 511 
C 2003 233 2182 -18 2464 -18 
C 2598 -18 2938 70 2938 567 
L 2938 920 
L 2822 920 
L 2822 562 
C 2822 178 2650 128 2566 128 
C 2304 128 2304 458 2304 738 
L 2304 1653 
z
M 1965 870 
C 1965 317 1568 38 1216 38 
C 896 38 646 275 646 570 
C 646 761 730 1100 1101 1305 
C 1408 1478 1760 1504 1965 1504 
L 1965 870 
z
" transform="scale(0.015625)"/>
       <path id="CMR17-6c" d="M 979 4396 
L 218 4326 
L 218 4160 
C 595 4160 653 4122 653 3817 
L 653 426 
C 653 184 627 153 218 153 
L 218 -13 
C 371 0 653 0 813 0 
C 979 0 1261 0 1414 -13 
L 1414 153 
C 1005 153 979 178 979 426 
L 979 4396 
z
" transform="scale(0.015625)"/>
      </defs>
      <use xlink:href="#CMR17-44" transform="scale(0.996264)"/>
      <use xlink:href="#CMR17-61" transform="translate(70.393556 0) scale(0.996264)"/>
      <use xlink:href="#CMR17-6c" transform="translate(116.084033 0) scale(0.996264)"/>
      <use xlink:href="#CMR17-6c" transform="translate(140.955092 0) scale(0.996264)"/>
      <use xlink:href="#CMR17-61" transform="translate(165.82615 0) scale(0.996264)"/>
      <use xlink:href="#CMR17-73" transform="translate(211.516627 0) scale(0.996264)"/>
     </g>
    </g>
    <g id="line2d_23">
     <path d="M 60.49124 98.855505 
L 66.32224 98.855505 
L 72.15324 98.855505 
" style="fill: none; stroke-dasharray: 1.5,2.475; stroke-dashoffset: 0; stroke: #ff7f0e; stroke-width: 1.5"/>
    </g>
    <g id="text_9">
     <!-- Denver -->
     <g transform="translate(75.65184 102.937205) scale(0.11662 -0.11662)">
      <defs>
       <path id="CMR17-65" d="M 2438 1472 
C 2464 1498 2464 1511 2464 1576 
C 2464 2238 2118 2816 1389 2816 
C 710 2816 173 2169 173 1383 
C 173 551 781 -64 1459 -64 
C 2176 -64 2458 607 2458 740 
C 2458 784 2419 784 2406 784 
C 2362 784 2355 771 2330 696 
C 2189 265 1837 51 1504 51 
C 1229 51 954 203 781 480 
C 582 803 582 1176 582 1472 
L 2438 1472 
z
M 589 1568 
C 634 2505 1126 2714 1382 2714 
C 1818 2714 2112 2297 2118 1568 
L 589 1568 
z
" transform="scale(0.015625)"/>
       <path id="CMR17-6e" d="M 2656 1933 
C 2656 2259 2592 2790 1837 2790 
C 1331 2790 1069 2400 973 2144 
L 966 2144 
L 966 2790 
L 211 2720 
L 211 2554 
C 589 2554 646 2515 646 2208 
L 646 428 
C 646 184 621 153 211 153 
L 211 -13 
C 365 0 646 0 813 0 
C 979 0 1267 0 1421 -13 
L 1421 153 
C 1011 153 986 178 986 428 
L 986 1658 
C 986 2247 1344 2688 1792 2688 
C 2266 2688 2317 2266 2317 1958 
L 2317 428 
C 2317 184 2291 153 1882 153 
L 1882 -13 
C 2035 0 2317 0 2483 0 
C 2650 0 2938 0 3091 -13 
L 3091 153 
C 2682 153 2656 178 2656 428 
L 2656 1933 
z
" transform="scale(0.015625)"/>
       <path id="CMR17-76" d="M 2502 2163 
C 2560 2304 2662 2560 3034 2560 
L 3034 2726 
C 2912 2726 2752 2726 2630 2726 
C 2496 2726 2285 2726 2157 2732 
L 2157 2566 
C 2317 2553 2406 2477 2406 2311 
C 2406 2253 2406 2240 2368 2151 
L 1664 377 
L 902 2286 
C 864 2369 864 2381 864 2407 
C 864 2560 1075 2560 1171 2560 
L 1171 2732 
C 1018 2726 736 2726 576 2726 
C 403 2726 205 2726 64 2732 
L 64 2560 
C 307 2560 442 2560 518 2362 
L 1446 44 
C 1485 -51 1491 -64 1549 -64 
C 1606 -64 1613 -51 1651 44 
L 2502 2163 
z
" transform="scale(0.015625)"/>
       <path id="CMR17-72" d="M 960 1497 
C 960 2112 1222 2688 1702 2688 
C 1747 2688 1792 2682 1837 2662 
C 1837 2662 1696 2617 1696 2452 
C 1696 2298 1818 2234 1914 2234 
C 1990 2234 2131 2279 2131 2458 
C 2131 2663 1926 2790 1709 2790 
C 1222 2790 1011 2317 947 2093 
L 941 2093 
L 941 2790 
L 198 2720 
L 198 2554 
C 576 2554 634 2515 634 2208 
L 634 428 
C 634 184 608 153 198 153 
L 198 -13 
C 352 0 646 0 813 0 
C 998 0 1325 0 1498 -13 
L 1498 153 
C 1037 153 960 153 960 440 
L 960 1497 
z
" transform="scale(0.015625)"/>
      </defs>
      <use xlink:href="#CMR17-44" transform="scale(0.996264)"/>
      <use xlink:href="#CMR17-65" transform="translate(70.393556 0) scale(0.996264)"/>
      <use xlink:href="#CMR17-6e" transform="translate(110.879216 0) scale(0.996264)"/>
      <use xlink:href="#CMR17-76" transform="translate(159.172132 0) scale(0.996264)"/>
      <use xlink:href="#CMR17-65" transform="translate(204.862594 0) scale(0.996264)"/>
      <use xlink:href="#CMR17-72" transform="translate(245.348255 0) scale(0.996264)"/>
     </g>
    </g>
    <g id="line2d_24">
     <path d="M 60.49124 109.977762 
L 66.32224 109.977762 
L 72.15324 109.977762 
" style="fill: none; stroke-dasharray: 5.55,2.4; stroke-dashoffset: 0; stroke: #2ca02c; stroke-width: 1.5"/>
    </g>
    <g id="text_10">
     <!-- Los Angeles -->
     <g transform="translate(75.65184 114.059462) scale(0.11662 -0.11662)">
      <defs>
       <path id="CMR17-4c" d="M 3469 1615 
L 3354 1615 
C 3302 983 3219 166 2125 166 
L 1530 166 
C 1274 166 1261 197 1261 414 
L 1261 3898 
C 1261 4129 1274 4192 1760 4192 
L 1901 4192 
L 1901 4352 
C 1638 4352 1331 4352 1069 4352 
C 870 4352 512 4352 326 4352 
L 326 4192 
C 768 4192 838 4192 838 3905 
L 838 452 
C 838 166 768 166 326 166 
L 326 0 
L 3315 0 
L 3469 1615 
z
" transform="scale(0.015625)"/>
       <path id="CMR17-6f" d="M 2758 1356 
C 2758 2176 2163 2816 1466 2816 
C 768 2816 173 2176 173 1356 
C 173 551 768 -64 1466 -64 
C 2163 -64 2758 551 2758 1356 
z
M 1466 51 
C 1165 51 909 230 762 480 
C 602 767 582 1126 582 1408 
C 582 1677 595 2010 762 2298 
C 890 2509 1139 2714 1466 2714 
C 1754 2714 1997 2554 2150 2330 
C 2349 2029 2349 1607 2349 1408 
C 2349 1158 2336 775 2163 467 
C 1984 173 1709 51 1466 51 
z
" transform="scale(0.015625)"/>
       <path id="CMR17-41" d="M 2323 4378 
C 2291 4461 2278 4480 2214 4480 
C 2150 4480 2138 4461 2106 4378 
L 749 566 
C 627 223 371 153 147 153 
L 147 -13 
C 262 0 518 0 640 0 
C 800 0 1056 0 1210 -13 
L 1210 153 
C 909 153 864 361 864 439 
C 864 497 877 530 890 569 
L 1229 1536 
L 2906 1536 
L 3290 442 
C 3322 365 3322 352 3322 327 
C 3322 153 3046 153 2925 153 
L 2925 0 
C 3110 0 3443 0 3642 0 
C 3808 0 4128 0 4282 -13 
L 4282 153 
C 3942 153 3827 153 3744 387 
L 2323 4378 
z
M 2067 3893 
L 2848 1702 
L 1286 1702 
L 2067 3893 
z
" transform="scale(0.015625)"/>
       <path id="CMR17-67" d="M 710 1164 
C 832 1068 1043 960 1299 960 
C 1805 960 2240 1357 2240 1888 
C 2240 2054 2189 2310 1997 2509 
C 2176 2692 2438 2752 2586 2752 
C 2611 2752 2650 2752 2682 2734 
C 2656 2728 2598 2703 2598 2605 
C 2598 2527 2656 2471 2739 2471 
C 2835 2471 2886 2533 2886 2614 
C 2886 2731 2790 2854 2586 2854 
C 2330 2854 2106 2738 1926 2580 
C 1734 2753 1504 2816 1299 2816 
C 794 2816 358 2419 358 1888 
C 358 1522 570 1292 634 1228 
C 442 1004 442 743 442 711 
C 442 545 506 302 723 168 
C 390 85 128 -169 128 -486 
C 128 -943 736 -1280 1466 -1280 
C 2170 -1280 2803 -956 2803 -479 
C 2803 384 1856 384 1363 384 
C 1216 384 954 384 922 391 
C 723 423 589 602 589 826 
C 589 883 589 1024 710 1164 
z
M 1299 1068 
C 736 1068 736 1760 736 1889 
C 736 2016 736 2708 1299 2708 
C 1862 2708 1862 2016 1862 1889 
C 1862 1760 1862 1068 1299 1068 
z
M 1466 -1171 
C 826 -1171 384 -835 384 -486 
C 384 -289 493 -105 634 -4 
C 794 104 858 104 1293 104 
C 1818 104 2547 104 2547 -486 
C 2547 -835 2106 -1171 1466 -1171 
z
" transform="scale(0.015625)"/>
      </defs>
      <use xlink:href="#CMR17-4c" transform="scale(0.996264)"/>
      <use xlink:href="#CMR17-6f" transform="translate(57.381408 0) scale(0.996264)"/>
      <use xlink:href="#CMR17-73" transform="translate(103.071885 0) scale(0.996264)"/>
      <use xlink:href="#CMR17-41" transform="translate(168.949189 0) scale(0.996264)"/>
      <use xlink:href="#CMR17-6e" transform="translate(238.021619 0) scale(0.996264)"/>
      <use xlink:href="#CMR17-67" transform="translate(288.916989 0) scale(0.996264)"/>
      <use xlink:href="#CMR17-65" transform="translate(334.607466 0) scale(0.996264)"/>
      <use xlink:href="#CMR17-6c" transform="translate(375.093126 0) scale(0.996264)"/>
      <use xlink:href="#CMR17-65" transform="translate(399.964185 0) scale(0.996264)"/>
      <use xlink:href="#CMR17-73" transform="translate(440.449845 0) scale(0.996264)"/>
     </g>
    </g>
    <g id="line2d_25">
     <path d="M 142.124696 87.733248 
L 147.955696 87.733248 
L 153.786696 87.733248 
" style="fill: none; stroke-dasharray: 9.6,2.4,1.5,2.4; stroke-dashoffset: 0; stroke: #d62728; stroke-width: 1.5"/>
    </g>
    <g id="text_11">
     <!-- New York -->
     <g transform="translate(157.285296 91.814948) scale(0.11662 -0.11662)">
      <defs>
       <path id="CMR17-4e" d="M 1312 4250 
C 1267 4320 1261 4320 1139 4320 
L 326 4320 
L 326 4160 
L 448 4160 
C 704 4160 819 4129 838 4122 
L 838 610 
C 838 451 838 153 326 153 
L 326 -13 
C 474 0 742 0 902 0 
C 1062 0 1331 0 1478 -13 
L 1478 153 
C 966 153 966 451 966 610 
L 966 4033 
C 1011 3995 1011 3982 1056 3919 
L 3430 76 
C 3475 0 3494 0 3526 0 
C 3590 0 3590 19 3590 139 
L 3590 3705 
C 3590 3863 3590 4160 4102 4160 
L 4102 4326 
C 3955 4320 3686 4320 3526 4320 
C 3366 4320 3098 4320 2950 4326 
L 2950 4160 
C 3462 4160 3462 3862 3462 3703 
L 3462 763 
L 1312 4250 
z
" transform="scale(0.015625)"/>
       <path id="CMR17-77" d="M 3725 2183 
C 3853 2560 4109 2560 4205 2560 
L 4205 2732 
C 4077 2732 3949 2732 3821 2732 
C 3699 2732 3424 2732 3315 2738 
L 3315 2560 
C 3514 2560 3622 2445 3622 2286 
C 3622 2241 3610 2184 3597 2140 
L 2995 407 
L 2342 2275 
C 2330 2319 2310 2370 2310 2395 
C 2310 2560 2528 2560 2630 2560 
L 2630 2738 
C 2483 2732 2214 2732 2061 2732 
C 1901 2732 1734 2732 1587 2738 
L 1587 2560 
C 1939 2560 1939 2547 2074 2149 
L 1485 451 
L 851 2281 
C 819 2363 819 2376 819 2395 
C 819 2560 1037 2560 1139 2560 
L 1139 2738 
C 986 2732 717 2732 557 2732 
C 416 2732 198 2732 64 2738 
L 64 2560 
C 346 2560 416 2541 486 2331 
L 1274 49 
C 1299 -33 1318 -52 1370 -52 
C 1414 -52 1440 -39 1472 56 
L 2131 1980 
L 2797 56 
C 2829 -39 2854 -52 2899 -52 
C 2950 -52 2970 -33 2995 50 
L 3725 2183 
z
" transform="scale(0.015625)"/>
       <path id="CMR17-59" d="M 3706 3766 
C 3955 4160 4301 4160 4416 4160 
L 4416 4332 
C 4269 4319 4102 4319 3942 4319 
C 3782 4319 3526 4319 3373 4332 
L 3373 4160 
C 3533 4160 3616 4077 3616 3957 
C 3616 3881 3584 3830 3533 3747 
L 2381 1912 
L 1120 3912 
C 1075 3988 1069 3994 1069 4039 
C 1069 4160 1293 4160 1382 4160 
L 1382 4319 
C 1178 4319 864 4319 653 4319 
C 486 4319 166 4319 13 4332 
L 13 4160 
C 378 4160 480 4141 595 3958 
L 2010 1728 
L 2010 445 
C 2010 160 1939 160 1498 160 
L 1498 0 
C 1683 0 2016 0 2214 0 
C 2413 0 2752 0 2938 0 
L 2938 160 
C 2477 160 2419 160 2419 471 
L 2419 1728 
L 3706 3766 
z
" transform="scale(0.015625)"/>
       <path id="CMR17-6b" d="M 1670 1673 
C 1664 1686 1632 1724 1632 1743 
C 1632 1756 2086 2171 2144 2222 
C 2509 2528 2739 2560 2906 2560 
L 2906 2733 
C 2867 2733 2854 2733 2848 2720 
L 2534 2720 
C 2355 2720 2080 2720 1907 2733 
L 1907 2566 
C 1997 2559 2061 2508 2061 2419 
C 2061 2291 1933 2170 1926 2170 
L 960 1289 
L 960 4396 
L 198 4326 
L 198 4160 
C 576 4160 634 4122 634 3817 
L 634 426 
C 634 184 608 153 198 153 
L 198 -13 
C 352 0 634 0 794 0 
C 954 0 1235 0 1389 -13 
L 1389 153 
C 979 153 954 178 954 428 
L 954 1130 
L 1395 1532 
L 2042 574 
C 2118 459 2182 369 2182 286 
C 2182 172 2067 153 1990 153 
L 1990 -13 
C 2144 0 2419 0 2579 0 
C 2694 0 2931 0 3040 0 
L 3040 153 
C 2739 153 2669 210 2477 491 
L 1670 1673 
z
" transform="scale(0.015625)"/>
      </defs>
      <use xlink:href="#CMR17-4e" transform="scale(0.996264)"/>
      <use xlink:href="#CMR17-65" transform="translate(69.07243 0) scale(0.996264)"/>
      <use xlink:href="#CMR17-77" transform="translate(109.55809 0) scale(0.996264)"/>
      <use xlink:href="#CMR17-59" transform="translate(206.143937 0) scale(0.996264)"/>
      <use xlink:href="#CMR17-6f" transform="translate(267.409112 0) scale(0.996264)"/>
      <use xlink:href="#CMR17-72" transform="translate(313.099589 0) scale(0.996264)"/>
      <use xlink:href="#CMR17-6b" transform="translate(348.380357 0) scale(0.996264)"/>
     </g>
    </g>
    <g id="line2d_26">
     <path d="M 142.124696 98.855505 
L 147.955696 98.855505 
L 153.786696 98.855505 
" style="fill: none; stroke: #9467bd; stroke-width: 1.5; stroke-linecap: square"/>
    </g>
    <g id="text_12">
     <!-- Seattle -->
     <g transform="translate(157.285296 102.937205) scale(0.11662 -0.11662)">
      <defs>
       <path id="CMR17-53" d="M 2803 4290 
C 2803 4404 2797 4411 2758 4411 
C 2720 4411 2707 4385 2682 4328 
L 2490 3907 
C 2246 4257 1875 4416 1472 4416 
C 819 4416 294 3901 294 3253 
C 294 3056 339 2776 557 2510 
C 794 2218 1018 2167 1530 2033 
C 1722 1982 2042 1899 2106 1874 
C 2470 1722 2662 1341 2662 985 
C 2662 527 2336 38 1779 38 
C 1094 38 454 419 410 1311 
C 403 1413 397 1419 352 1419 
C 301 1419 294 1413 294 1285 
L 294 -1 
C 294 -115 301 -122 339 -122 
C 384 -122 397 -90 486 108 
C 493 127 493 140 614 381 
C 934 -39 1472 -128 1779 -128 
C 2477 -128 2970 451 2970 1124 
C 2970 1454 2848 1708 2778 1823 
C 2509 2230 2221 2306 1914 2382 
C 1869 2402 1856 2402 1498 2490 
C 1152 2579 1005 2624 845 2796 
C 666 2992 602 3196 602 3399 
C 602 3812 934 4263 1478 4263 
C 2157 4263 2579 3786 2675 2993 
C 2694 2878 2701 2872 2746 2872 
C 2803 2872 2803 2891 2803 2999 
L 2803 4290 
z
" transform="scale(0.015625)"/>
       <path id="CMR17-74" d="M 966 2560 
L 1862 2560 
L 1862 2725 
L 966 2725 
L 966 3904 
L 851 3904 
C 838 3245 614 2668 70 2668 
L 70 2560 
L 627 2560 
L 627 771 
C 627 650 627 -64 1370 -64 
C 1747 -64 1965 306 1965 777 
L 1965 1140 
L 1850 1140 
L 1850 783 
C 1850 344 1677 51 1408 51 
C 1222 51 966 178 966 758 
L 966 2560 
z
" transform="scale(0.015625)"/>
      </defs>
      <use xlink:href="#CMR17-53" transform="scale(0.996264)"/>
      <use xlink:href="#CMR17-65" transform="translate(50.89537 0) scale(0.996264)"/>
      <use xlink:href="#CMR17-61" transform="translate(91.38103 0) scale(0.996264)"/>
      <use xlink:href="#CMR17-74" transform="translate(137.071507 0) scale(0.996264)"/>
      <use xlink:href="#CMR17-74" transform="translate(172.352275 0) scale(0.996264)"/>
      <use xlink:href="#CMR17-6c" transform="translate(207.633043 0) scale(0.996264)"/>
      <use xlink:href="#CMR17-65" transform="translate(232.504101 0) scale(0.996264)"/>
     </g>
    </g>
   </g>
  </g>
 </g>
 <defs>
  <clipPath id="p37088a6d49">
   <rect x="3.5" y="0" width="214.66" height="126.814399"/>
  </clipPath>
 </defs>
</svg>
