<?xml version="1.0" encoding="utf-8" standalone="no"?>
<!DOCTYPE svg PUBLIC "-//W3C//DTD SVG 1.1//EN"
  "http://www.w3.org/Graphics/SVG/1.1/DTD/svg11.dtd">
<svg xmlns:xlink="http://www.w3.org/1999/xlink" width="262.08pt" height="103.68pt" viewBox="0 0 262.08 103.68" xmlns="http://www.w3.org/2000/svg" version="1.1">
 <metadata>
  <rdf:RDF xmlns:dc="http://purl.org/dc/elements/1.1/" xmlns:cc="http://creativecommons.org/ns#" xmlns:rdf="http://www.w3.org/1999/02/22-rdf-syntax-ns#">
   <cc:Work>
    <dc:type rdf:resource="http://purl.org/dc/dcmitype/StillImage"/>
    <dc:date>2023-10-12T10:31:48.973028</dc:date>
    <dc:format>image/svg+xml</dc:format>
    <dc:creator>
     <cc:Agent>
      <dc:title>Matplotlib v3.7.0, https://matplotlib.org/</dc:title>
     </cc:Agent>
    </dc:creator>
   </cc:Work>
  </rdf:RDF>
 </metadata>
 <defs>
  <style type="text/css">*{stroke-linejoin: round; stroke-linecap: butt}</style>
 </defs>
 <g id="figure_1">
  <g id="patch_1">
   <path d="M 0 103.68 
L 262.08 103.68 
L 262.08 -0 
L 0 -0 
z
" style="fill: #ffffff"/>
  </g>
  <g id="axes_1">
   <g id="patch_2">
    <path d="M 3.5 70.098056 
L 253.300515 70.098056 
L 253.300515 -0 
L 3.5 -0 
z
" style="fill: #ffffff"/>
   </g>
   <g id="matplotlib.axis_1">
    <g id="xtick_1">
     <g id="line2d_1">
      <defs>
       <path id="mf7c8089fae" d="M 0 0 
L 0 3.5 
" style="stroke: #000000; stroke-width: 0.8"/>
      </defs>
      <g>
       <use xlink:href="#mf7c8089fae" x="10.438903" y="70.098056" style="stroke: #000000; stroke-width: 0.8"/>
      </g>
     </g>
     <g id="text_1">
      <!-- 25 -->
      <g transform="translate(4.585913 85.400236) scale(0.12 -0.12)">
       <defs>
        <path id="CMR17-32" d="M 2669 989 
L 2554 989 
C 2490 536 2438 459 2413 420 
C 2381 369 1920 369 1830 369 
L 602 369 
C 832 619 1280 1072 1824 1597 
C 2214 1967 2669 2402 2669 3035 
C 2669 3790 2067 4224 1395 4224 
C 691 4224 262 3604 262 3030 
C 262 2780 448 2748 525 2748 
C 589 2748 781 2787 781 3010 
C 781 3207 614 3264 525 3264 
C 486 3264 448 3258 422 3245 
C 544 3790 915 4058 1306 4058 
C 1862 4058 2227 3617 2227 3035 
C 2227 2479 1901 2000 1536 1584 
L 262 146 
L 262 0 
L 2515 0 
L 2669 989 
z
" transform="scale(0.015625)"/>
        <path id="CMR17-35" d="M 730 3692 
C 794 3666 1056 3584 1325 3584 
C 1920 3584 2246 3911 2432 4100 
C 2432 4157 2432 4192 2394 4192 
C 2387 4192 2374 4192 2323 4163 
C 2099 4058 1837 3973 1517 3973 
C 1325 3973 1037 3999 723 4139 
C 653 4171 640 4171 634 4171 
C 602 4171 595 4164 595 4037 
L 595 2203 
C 595 2089 595 2057 659 2057 
C 691 2057 704 2070 736 2114 
C 941 2401 1222 2522 1542 2522 
C 1766 2522 2246 2382 2246 1289 
C 2246 1085 2246 715 2054 421 
C 1894 159 1645 25 1370 25 
C 947 25 518 320 403 814 
C 429 807 480 795 506 795 
C 589 795 749 840 749 1038 
C 749 1210 627 1280 506 1280 
C 358 1280 262 1190 262 1011 
C 262 454 704 -128 1382 -128 
C 2042 -128 2669 440 2669 1264 
C 2669 2030 2170 2624 1549 2624 
C 1222 2624 947 2503 730 2274 
L 730 3692 
z
" transform="scale(0.015625)"/>
       </defs>
       <use xlink:href="#CMR17-32" transform="scale(0.996264)"/>
       <use xlink:href="#CMR17-35" transform="translate(45.690477 0) scale(0.996264)"/>
      </g>
     </g>
    </g>
    <g id="xtick_2">
     <g id="line2d_2">
      <g>
       <use xlink:href="#mf7c8089fae" x="45.133419" y="70.098056" style="stroke: #000000; stroke-width: 0.8"/>
      </g>
     </g>
     <g id="text_2">
      <!-- 50 -->
      <g transform="translate(39.280429 85.400236) scale(0.12 -0.12)">
       <defs>
        <path id="CMR17-30" d="M 2688 2025 
C 2688 2416 2682 3080 2413 3591 
C 2176 4039 1798 4198 1466 4198 
C 1158 4198 768 4058 525 3597 
C 269 3118 243 2524 243 2025 
C 243 1661 250 1106 448 619 
C 723 -39 1216 -128 1466 -128 
C 1760 -128 2208 -7 2470 600 
C 2662 1042 2688 1559 2688 2025 
z
M 1466 -26 
C 1056 -26 813 325 723 812 
C 653 1188 653 1738 653 2096 
C 653 2588 653 2997 736 3387 
C 858 3929 1216 4096 1466 4096 
C 1728 4096 2067 3923 2189 3400 
C 2272 3036 2278 2607 2278 2096 
C 2278 1680 2278 1169 2202 792 
C 2067 95 1690 -26 1466 -26 
z
" transform="scale(0.015625)"/>
       </defs>
       <use xlink:href="#CMR17-35" transform="scale(0.996264)"/>
       <use xlink:href="#CMR17-30" transform="translate(45.690477 0) scale(0.996264)"/>
      </g>
     </g>
    </g>
    <g id="xtick_3">
     <g id="line2d_3">
      <g>
       <use xlink:href="#mf7c8089fae" x="79.827935" y="70.098056" style="stroke: #000000; stroke-width: 0.8"/>
      </g>
     </g>
     <g id="text_3">
      <!-- 75 -->
      <g transform="translate(73.974945 85.400236) scale(0.12 -0.12)">
       <defs>
        <path id="CMR17-37" d="M 2886 3941 
L 2886 4081 
L 1382 4081 
C 634 4081 621 4165 595 4288 
L 480 4288 
L 294 3094 
L 410 3094 
C 429 3215 474 3540 550 3661 
C 589 3712 1062 3712 1171 3712 
L 2579 3712 
L 1869 2661 
C 1395 1954 1069 999 1069 165 
C 1069 89 1069 -128 1299 -128 
C 1530 -128 1530 89 1530 171 
L 1530 465 
C 1530 1508 1709 2196 2003 2636 
L 2886 3941 
z
" transform="scale(0.015625)"/>
       </defs>
       <use xlink:href="#CMR17-37" transform="scale(0.996264)"/>
       <use xlink:href="#CMR17-35" transform="translate(45.690477 0) scale(0.996264)"/>
      </g>
     </g>
    </g>
    <g id="xtick_4">
     <g id="line2d_4">
      <g>
       <use xlink:href="#mf7c8089fae" x="114.522451" y="70.098056" style="stroke: #000000; stroke-width: 0.8"/>
      </g>
     </g>
     <g id="text_4">
      <!-- 100 -->
      <g transform="translate(105.742966 85.400236) scale(0.12 -0.12)">
       <defs>
        <path id="CMR17-31" d="M 1702 4058 
C 1702 4192 1696 4192 1606 4192 
C 1357 3916 979 3827 621 3827 
C 602 3827 570 3827 563 3808 
C 557 3795 557 3782 557 3648 
C 755 3648 1088 3686 1344 3839 
L 1344 461 
C 1344 236 1331 160 781 160 
L 589 160 
L 589 0 
C 896 0 1216 0 1523 0 
C 1830 0 2150 0 2458 0 
L 2458 160 
L 2266 160 
C 1715 160 1702 230 1702 458 
L 1702 4058 
z
" transform="scale(0.015625)"/>
       </defs>
       <use xlink:href="#CMR17-31" transform="scale(0.996264)"/>
       <use xlink:href="#CMR17-30" transform="translate(45.690477 0) scale(0.996264)"/>
       <use xlink:href="#CMR17-30" transform="translate(91.380954 0) scale(0.996264)"/>
      </g>
     </g>
    </g>
    <g id="xtick_5">
     <g id="line2d_5">
      <g>
       <use xlink:href="#mf7c8089fae" x="149.216967" y="70.098056" style="stroke: #000000; stroke-width: 0.8"/>
      </g>
     </g>
     <g id="text_5">
      <!-- 125 -->
      <g transform="translate(140.437481 85.400236) scale(0.12 -0.12)">
       <use xlink:href="#CMR17-31" transform="scale(0.996264)"/>
       <use xlink:href="#CMR17-32" transform="translate(45.690477 0) scale(0.996264)"/>
       <use xlink:href="#CMR17-35" transform="translate(91.380954 0) scale(0.996264)"/>
      </g>
     </g>
    </g>
    <g id="xtick_6">
     <g id="line2d_6">
      <g>
       <use xlink:href="#mf7c8089fae" x="183.911483" y="70.098056" style="stroke: #000000; stroke-width: 0.8"/>
      </g>
     </g>
     <g id="text_6">
      <!-- 150 -->
      <g transform="translate(175.131997 85.400236) scale(0.12 -0.12)">
       <use xlink:href="#CMR17-31" transform="scale(0.996264)"/>
       <use xlink:href="#CMR17-35" transform="translate(45.690477 0) scale(0.996264)"/>
       <use xlink:href="#CMR17-30" transform="translate(91.380954 0) scale(0.996264)"/>
      </g>
     </g>
    </g>
    <g id="xtick_7">
     <g id="line2d_7">
      <g>
       <use xlink:href="#mf7c8089fae" x="218.605999" y="70.098056" style="stroke: #000000; stroke-width: 0.8"/>
      </g>
     </g>
     <g id="text_7">
      <!-- 175 -->
      <g transform="translate(209.826513 85.400236) scale(0.12 -0.12)">
       <use xlink:href="#CMR17-31" transform="scale(0.996264)"/>
       <use xlink:href="#CMR17-37" transform="translate(45.690477 0) scale(0.996264)"/>
       <use xlink:href="#CMR17-35" transform="translate(91.380954 0) scale(0.996264)"/>
      </g>
     </g>
    </g>
    <g id="xtick_8">
     <g id="line2d_8">
      <g>
       <use xlink:href="#mf7c8089fae" x="253.300515" y="70.098056" style="stroke: #000000; stroke-width: 0.8"/>
      </g>
     </g>
     <g id="text_8">
      <!-- 200 -->
      <g transform="translate(244.521029 85.400236) scale(0.12 -0.12)">
       <use xlink:href="#CMR17-32" transform="scale(0.996264)"/>
       <use xlink:href="#CMR17-30" transform="translate(45.690477 0) scale(0.996264)"/>
       <use xlink:href="#CMR17-30" transform="translate(91.380954 0) scale(0.996264)"/>
      </g>
     </g>
    </g>
    <g id="text_9">
     <!-- RTT [ms] -->
     <g transform="translate(103.73744 100.691208) scale(0.12 -0.12)">
      <defs>
       <path id="CMR17-52" d="M 2509 2146 
C 3117 2268 3629 2676 3629 3186 
C 3629 3785 2950 4326 2054 4326 
L 333 4326 
L 333 4160 
C 774 4160 845 4160 845 3873 
L 845 415 
C 845 128 774 128 333 128 
L 333 -26 
C 518 -26 851 -26 1050 -26 
C 1248 -26 1581 -26 1766 -26 
L 1766 128 
C 1325 128 1254 128 1254 417 
L 1254 2112 
L 2003 2112 
C 2368 2112 2573 1964 2662 1881 
C 2918 1632 2918 1459 2918 1024 
C 2918 595 2918 377 3110 160 
C 3354 -102 3680 -128 3821 -128 
C 4294 -128 4365 396 4365 503 
C 4365 540 4365 585 4307 585 
C 4256 585 4250 547 4250 522 
C 4218 112 4032 -26 3834 -26 
C 3482 -26 3443 375 3405 764 
C 3386 898 3373 993 3360 1133 
C 3322 1452 3270 1917 2509 2146 
z
M 1984 2214 
L 1254 2214 
L 1254 3913 
C 1254 4129 1267 4160 1523 4160 
L 1990 4160 
C 2522 4160 3142 3977 3142 3190 
C 3142 2372 2464 2214 1984 2214 
z
" transform="scale(0.015625)"/>
       <path id="CMR17-54" d="M 3981 4326 
L 288 4326 
L 179 2918 
L 294 2918 
C 378 3976 467 4160 1453 4160 
C 1568 4160 1754 4160 1805 4154 
C 1926 4135 1926 4058 1926 3912 
L 1926 459 
C 1926 230 1907 160 1376 160 
L 1197 160 
L 1197 0 
C 1504 0 1824 0 2138 0 
C 2451 0 2771 0 3078 0 
L 3078 160 
L 2899 160 
C 2368 160 2349 230 2349 459 
L 2349 3912 
C 2349 4052 2349 4129 2464 4154 
C 2515 4160 2701 4160 2816 4160 
C 3795 4160 3891 3976 3974 2918 
L 4090 2918 
L 3981 4326 
z
" transform="scale(0.015625)"/>
       <path id="CMR17-5b" d="M 1504 -1600 
L 1504 -1377 
L 902 -1377 
L 902 4544 
L 1504 4544 
L 1504 4767 
L 678 4767 
L 678 -1600 
L 1504 -1600 
z
" transform="scale(0.015625)"/>
       <path id="CMR17-6d" d="M 4326 1933 
C 4326 2252 4269 2790 3507 2790 
C 3072 2790 2771 2496 2656 2151 
L 2650 2151 
C 2573 2676 2195 2790 1837 2790 
C 1331 2790 1069 2400 973 2144 
L 966 2144 
L 966 2790 
L 211 2720 
L 211 2554 
C 589 2554 646 2515 646 2208 
L 646 428 
C 646 184 621 153 211 153 
L 211 -13 
C 365 0 646 0 813 0 
C 979 0 1267 0 1421 -13 
L 1421 153 
C 1011 153 986 178 986 428 
L 986 1658 
C 986 2247 1344 2688 1792 2688 
C 2266 2688 2317 2266 2317 1958 
L 2317 428 
C 2317 184 2291 153 1882 153 
L 1882 -13 
C 2035 0 2317 0 2483 0 
C 2650 0 2938 0 3091 -13 
L 3091 153 
C 2682 153 2656 178 2656 428 
L 2656 1658 
C 2656 2247 3014 2688 3462 2688 
C 3936 2688 3987 2266 3987 1958 
L 3987 428 
C 3987 184 3962 153 3552 153 
L 3552 -13 
C 3706 0 3987 0 4154 0 
C 4320 0 4608 0 4762 -13 
L 4762 153 
C 4352 153 4326 178 4326 428 
L 4326 1933 
z
" transform="scale(0.015625)"/>
       <path id="CMR17-73" d="M 1978 2697 
C 1978 2813 1971 2819 1933 2819 
C 1907 2819 1901 2813 1824 2717 
C 1805 2691 1747 2626 1728 2601 
C 1523 2819 1235 2819 1126 2819 
C 416 2819 160 2447 160 2076 
C 160 1498 813 1365 998 1325 
C 1402 1243 1542 1217 1677 1101 
C 1760 1025 1901 884 1901 654 
C 1901 384 1747 38 1158 38 
C 602 38 403 460 288 1021 
C 269 1110 269 1117 218 1117 
C 166 1117 160 1110 160 983 
L 160 63 
C 160 -51 166 -58 205 -58 
C 237 -58 243 -51 275 0 
C 314 57 410 211 448 276 
C 576 103 800 -64 1158 -64 
C 1792 -64 2131 283 2131 784 
C 2131 1112 1958 1285 1875 1362 
C 1683 1561 1459 1606 1190 1657 
C 838 1735 390 1825 390 2217 
C 390 2383 480 2737 1126 2737 
C 1811 2737 1850 2094 1862 1888 
C 1869 1856 1901 1849 1920 1849 
C 1978 1849 1978 1869 1978 1978 
L 1978 2697 
z
" transform="scale(0.015625)"/>
       <path id="CMR17-5d" d="M 915 4767 
L 90 4767 
L 90 4544 
L 691 4544 
L 691 -1377 
L 90 -1377 
L 90 -1600 
L 915 -1600 
L 915 4767 
z
" transform="scale(0.015625)"/>
      </defs>
      <use xlink:href="#CMR17-52" transform="scale(0.996264)"/>
      <use xlink:href="#CMR17-54" transform="translate(59.983847 0) scale(0.996264)"/>
      <use xlink:href="#CMR17-54" transform="translate(126.493727 0) scale(0.996264)"/>
      <use xlink:href="#CMR17-5b" transform="translate(223.079574 0) scale(0.996264)"/>
      <use xlink:href="#CMR17-6d" transform="translate(247.950633 0) scale(0.996264)"/>
      <use xlink:href="#CMR17-73" transform="translate(324.870222 0) scale(0.996264)"/>
      <use xlink:href="#CMR17-5d" transform="translate(360.67156 0) scale(0.996264)"/>
     </g>
    </g>
   </g>
   <g id="matplotlib.axis_2">
    <g id="ytick_1">
     <g id="line2d_9">
      <path d="M 3.5 66.911781 
L 253.300515 66.911781 
" clip-path="url(#p12776c5116)" style="fill: none; stroke: #b0b0b0; stroke-opacity: 0.7; stroke-width: 0.5; stroke-linecap: square"/>
     </g>
     <g id="line2d_10">
      <defs>
       <path id="m680a512268" d="M 0 0 
L -3.5 0 
" style="stroke: #000000; stroke-width: 0.8"/>
      </defs>
      <g>
       <use xlink:href="#m680a512268" x="3.5" y="66.911781" style="stroke: #000000; stroke-width: 0.8"/>
      </g>
     </g>
    </g>
    <g id="ytick_2">
     <g id="line2d_11">
      <path d="M 3.5 50.980405 
L 253.300515 50.980405 
" clip-path="url(#p12776c5116)" style="fill: none; stroke: #b0b0b0; stroke-opacity: 0.7; stroke-width: 0.5; stroke-linecap: square"/>
     </g>
     <g id="line2d_12">
      <g>
       <use xlink:href="#m680a512268" x="3.5" y="50.980405" style="stroke: #000000; stroke-width: 0.8"/>
      </g>
     </g>
    </g>
    <g id="ytick_3">
     <g id="line2d_13">
      <path d="M 3.5 35.049028 
L 253.300515 35.049028 
" clip-path="url(#p12776c5116)" style="fill: none; stroke: #b0b0b0; stroke-opacity: 0.7; stroke-width: 0.5; stroke-linecap: square"/>
     </g>
     <g id="line2d_14">
      <g>
       <use xlink:href="#m680a512268" x="3.5" y="35.049028" style="stroke: #000000; stroke-width: 0.8"/>
      </g>
     </g>
    </g>
    <g id="ytick_4">
     <g id="line2d_15">
      <path d="M 3.5 19.117652 
L 253.300515 19.117652 
" clip-path="url(#p12776c5116)" style="fill: none; stroke: #b0b0b0; stroke-opacity: 0.7; stroke-width: 0.5; stroke-linecap: square"/>
     </g>
     <g id="line2d_16">
      <g>
       <use xlink:href="#m680a512268" x="3.5" y="19.117652" style="stroke: #000000; stroke-width: 0.8"/>
      </g>
     </g>
    </g>
    <g id="ytick_5">
     <g id="line2d_17">
      <path d="M 3.5 3.186275 
L 253.300515 3.186275 
" clip-path="url(#p12776c5116)" style="fill: none; stroke: #b0b0b0; stroke-opacity: 0.7; stroke-width: 0.5; stroke-linecap: square"/>
     </g>
     <g id="line2d_18">
      <g>
       <use xlink:href="#m680a512268" x="3.5" y="3.186275" style="stroke: #000000; stroke-width: 0.8"/>
      </g>
     </g>
    </g>
   </g>
   <g id="line2d_19">
    <path d="M 3.495837 66.544552 
L 3.642941 66.526269 
L 7.784079 66.15695 
L 7.929796 66.131354 
L 8.633401 65.967328 
L 8.931773 65.881136 
L 10.008691 65.357717 
L 10.350085 65.137275 
L 10.448618 65.014517 
L 10.667887 64.79303 
L 10.970423 64.428413 
L 11.164712 64.192822 
L 11.531087 63.779624 
L 11.714274 63.579032 
L 12.19167 62.916661 
L 12.397062 62.623087 
L 12.841151 61.893852 
L 13.51145 61.083127 
L 13.675208 60.941041 
L 14.017989 60.625527 
L 14.424609 60.180986 
L 14.682736 59.751594 
L 14.83678 59.599583 
L 15.336381 59.202579 
L 16.299501 58.339094 
L 16.651997 58.008431 
L 17.322295 57.365388 
L 17.673404 56.94122 
L 18.46999 55.874531 
L 19.218003 54.702323 
L 19.309597 54.551879 
L 19.669032 53.917716 
L 20.154755 52.552229 
L 20.32684 52.14321 
L 20.569702 51.822995 
L 20.831992 51.503824 
L 20.95828 51.338231 
L 21.840909 49.810808 
L 22.160098 49.120751 
L 25.063336 43.421124 
L 25.871024 41.340506 
L 25.987597 41.113796 
L 26.215193 40.689105 
L 26.292909 40.544408 
L 26.602384 39.964572 
L 27.090883 39.03579 
L 27.207457 38.758409 
L 27.602974 37.963355 
L 27.922164 37.432623 
L 28.029023 37.274866 
L 28.593849 36.271384 
L 28.682667 36.120418 
L 29.398762 34.841645 
L 29.626358 34.461879 
L 29.866444 34.105097 
L 29.980242 33.794807 
L 30.378535 33.057737 
L 30.772665 32.26425 
L 31.259776 30.669441 
L 31.477658 30.156991 
L 31.660845 29.897371 
L 32.456043 28.833294 
L 32.728048 28.365247 
L 33.023645 27.864812 
L 33.574594 27.064534 
L 36.611058 22.293166 
L 37.14119 21.209239 
L 37.499238 20.674328 
L 37.826754 20.137849 
L 38.052962 19.762262 
L 38.255578 19.366302 
L 38.842609 18.498116 
L 39.093798 18.170064 
L 39.365803 17.829999 
L 39.580909 17.543215 
L 39.694707 17.329042 
L 39.819607 17.165538 
L 40.102714 16.800399 
L 40.968689 15.717516 
L 41.082487 15.520059 
L 41.344778 15.24529 
L 41.842991 14.694707 
L 41.988708 14.523891 
L 42.266264 14.105469 
L 42.359246 13.833834 
L 42.606271 13.549662 
L 42.879663 13.338623 
L 43.20718 13.135942 
L 43.608248 12.866919 
L 44.017643 12.571255 
L 44.39512 12.31059 
L 45.463711 11.645085 
L 45.991068 11.328004 
L 46.199235 11.215171 
L 46.519812 11.030773 
L 46.636386 10.947715 
L 47.459339 10.520413 
L 47.668894 10.402879 
L 47.907593 10.262882 
L 48.021391 10.17669 
L 49.525745 9.492902 
L 49.713095 9.411412 
L 49.967059 9.291788 
L 50.312616 9.16903 
L 50.791401 8.984632 
L 52.880011 8.317037 
L 53.315774 8.172862 
L 53.576676 8.038089 
L 54.233097 7.902272 
L 55.31279 7.656756 
L 55.522345 7.609742 
L 58.818324 7.084234 
L 61.394045 6.709691 
L 62.787377 6.558202 
L 65.750288 6.167989 
L 67.26852 5.995083 
L 71.856523 5.529647 
L 74.01591 5.370845 
L 75.074786 5.284131 
L 90.363966 4.571612 
L 178.361748 3.573355 
L 253.815381 3.39627 
L 253.815381 3.39627 
" clip-path="url(#p12776c5116)" style="fill: none; stroke: #1f77b4; stroke-width: 1.5; stroke-linecap: square"/>
   </g>
   <g id="line2d_20">
    <path d="M 13.654391 66.910402 
L 18.816935 66.790465 
L 20.000712 66.521639 
L 21.567516 65.621417 
L 21.767357 65.47115 
L 21.964421 65.251954 
L 22.173976 64.967964 
L 22.333571 64.798396 
L 22.927541 64.257988 
L 23.039951 63.866467 
L 23.546491 62.613325 
L 23.778251 61.578001 
L 24.158503 59.714142 
L 24.315322 59.064824 
L 24.42912 58.11773 
L 24.470753 57.924727 
L 25.703102 51.246818 
L 25.8169 50.269395 
L 26.169397 49.079668 
L 26.365074 48.449651 
L 26.584343 47.699696 
L 26.743938 47.139986 
L 27.292111 44.542715 
L 27.504442 43.561157 
L 27.781998 42.411409 
L 28.478664 40.02782 
L 28.592462 39.385395 
L 28.753444 38.820172 
L 31.154305 28.832259 
L 31.441575 26.727146 
L 31.762153 25.908261 
L 31.867624 25.649085 
L 32.329755 24.620654 
L 32.642006 23.844506 
L 32.755804 23.464014 
L 32.884867 23.180023 
L 34.285138 20.152631 
L 34.736167 18.815395 
L 34.892986 18.258443 
L 35.095602 17.537438 
L 35.416179 16.764047 
L 35.53414 16.38907 
L 35.671531 16.099565 
L 35.885249 15.70253 
L 35.969904 15.537099 
L 37.375725 12.988078 
L 37.599158 12.755096 
L 37.836469 12.526249 
L 37.996063 12.356682 
L 38.144556 12.159543 
L 38.413785 11.864524 
L 38.652484 11.624649 
L 38.95502 11.372366 
L 39.374129 11.041504 
L 39.558704 10.909159 
L 39.684992 10.776814 
L 39.850138 10.632061 
L 40.101327 10.45698 
L 40.281738 10.339799 
L 40.538477 10.161961 
L 40.929832 9.9276 
L 41.154652 9.773197 
L 41.276777 9.719432 
L 41.6376 9.5347 
L 41.94985 9.380298 
L 42.210753 9.216245 
L 42.696476 8.881247 
L 43.58188 8.682729 
L 44.17585 8.497998 
L 44.832271 8.357381 
L 47.224805 7.84868 
L 50.877443 7.232449 
L 52.052893 7.098725 
L 52.379022 7.05461 
L 53.623861 6.891936 
L 56.937881 6.591402 
L 58.950163 6.374963 
L 59.76479 6.27984 
L 61.570293 6.125438 
L 62.548678 6.042722 
L 64.562348 5.806982 
L 66.78696 5.641551 
L 70.076 5.358939 
L 70.331352 5.325853 
L 72.107711 5.182479 
L 72.673926 5.156286 
L 73.755007 5.088735 
L 83.012892 4.621392 
L 89.343947 4.43666 
L 97.252909 4.254686 
L 109.153128 4.058925 
L 110.071838 4.050654 
L 142.945586 3.532302 
L 228.317688 3.337921 
L 254.688295 3.325513 
L 254.688295 3.325513 
" clip-path="url(#p12776c5116)" style="fill: none; stroke-dasharray: 1.5,2.475; stroke-dashoffset: 0; stroke: #ff7f0e; stroke-width: 1.5"/>
   </g>
   <g id="line2d_21">
    <path d="M 3.498612 66.177796 
L 3.615186 66.043854 
L 5.57612 64.124192 
L 6.19507 63.330065 
L 6.496218 62.771745 
L 6.90145 61.967344 
L 7.364969 60.799959 
L 8.988672 56.23755 
L 9.353659 55.0317 
L 10.119714 53.106649 
L 11.825296 46.876047 
L 11.940482 46.23666 
L 12.719027 43.008906 
L 13.565573 39.765865 
L 14.009663 38.193273 
L 14.600857 35.899726 
L 14.716043 35.334014 
L 15.509854 33.193705 
L 16.894859 29.526161 
L 17.69422 27.117593 
L 19.577439 22.01641 
L 19.913282 21.219777 
L 20.382351 19.942132 
L 20.915259 19.130589 
L 21.16506 18.726759 
L 22.419613 16.794191 
L 22.852601 16.344754 
L 23.270323 15.906718 
L 23.971152 15.255053 
L 26.621813 13.4771 
L 27.039535 13.288905 
L 29.866444 12.16337 
L 29.980242 12.104982 
L 33.292875 11.026558 
L 34.029786 10.848762 
L 34.144972 10.809795 
L 37.206416 10.095607 
L 42.228794 9.075947 
L 43.003176 8.91419 
L 46.042415 8.477908 
L 47.129048 8.334068 
L 49.006715 8.107658 
L 51.204959 7.897536 
L 52.360981 7.801685 
L 57.520749 7.447347 
L 63.034402 7.211791 
L 70.919771 6.966335 
L 78.112638 6.808838 
L 85.02101 6.711984 
L 102.136509 6.319932 
L 105.21877 6.069591 
L 125.862007 4.316447 
L 130.211311 4.161706 
L 131.979344 4.111086 
L 204.726805 3.727054 
L 204.894726 3.722668 
L 221.349641 3.476587 
L 222.802647 3.456664 
L 241.081106 3.330491 
L 253.419864 3.311446 
L 253.419864 3.311446 
" clip-path="url(#p12776c5116)" style="fill: none; stroke-dasharray: 5.55,2.4; stroke-dashoffset: 0; stroke: #2ca02c; stroke-width: 1.5"/>
   </g>
   <g id="line2d_22">
    <path d="M 7.867346 66.911322 
L 11.778111 66.779627 
L 12.830049 66.552027 
L 14.606408 65.847663 
L 15.172623 65.606297 
L 15.645856 65.388334 
L 18.764199 63.233024 
L 18.877997 63.077467 
L 19.112532 62.858586 
L 19.467804 62.491032 
L 19.835566 62.007842 
L 19.966017 61.788962 
L 20.461455 60.921698 
L 20.969383 60.452734 
L 21.757642 59.514345 
L 22.27806 58.868257 
L 22.767946 58.411223 
L 23.800455 57.231011 
L 24.053031 56.876763 
L 24.467978 56.299047 
L 24.670594 56.033361 
L 24.996722 55.558431 
L 28.36209 50.20893 
L 28.478664 50.055668 
L 28.592462 49.829904 
L 29.143411 49.128751 
L 29.371007 48.800201 
L 29.486192 48.646479 
L 29.752646 48.309669 
L 29.912241 47.995344 
L 30.182858 47.648897 
L 30.361882 47.398354 
L 31.266715 45.688606 
L 31.454065 45.398601 
L 31.930074 44.953039 
L 33.162423 43.574595 
L 33.366427 43.346536 
L 33.770271 42.94732 
L 34.119992 42.499463 
L 34.28375 42.328764 
L 35.223278 41.240784 
L 35.729818 40.616722 
L 36.154478 40.122978 
L 36.49726 39.688429 
L 36.788694 39.243784 
L 37.132864 38.80694 
L 37.329929 38.624769 
L 37.861449 38.14112 
L 38.061289 37.956655 
L 38.345784 37.636364 
L 38.605299 37.367466 
L 38.753792 37.202273 
L 39.296414 36.668149 
L 39.580909 36.366672 
L 39.696095 36.162016 
L 42.35647 32.480506 
L 42.471656 32.192795 
L 43.018441 31.653623 
L 43.461143 31.227792 
L 44.747616 29.795201 
L 45.105663 29.416634 
L 45.233339 29.229415 
L 46.336625 27.978996 
L 46.901452 27.257653 
L 47.083251 27.045196 
L 47.413543 26.636344 
L 47.807672 26.089371 
L 48.230945 25.495135 
L 49.456356 24.124492 
L 49.71032 23.764279 
L 49.961508 23.466473 
L 50.209921 23.219601 
L 50.839973 22.570301 
L 51.016221 22.39593 
L 51.671254 21.712674 
L 51.84889 21.537844 
L 52.044567 21.363474 
L 52.319347 21.050525 
L 52.515024 20.877072 
L 53.458715 19.821672 
L 53.573901 19.62757 
L 53.823701 19.427962 
L 54.07489 19.226977 
L 54.278894 19.082892 
L 54.484285 18.92137 
L 55.461283 18.108253 
L 55.741614 17.89855 
L 55.980313 17.716838 
L 56.234276 17.525948 
L 56.348074 17.412148 
L 57.622057 16.451734 
L 57.735855 16.349407 
L 58.091127 16.114924 
L 58.657341 15.709742 
L 60.149206 14.855327 
L 60.480885 14.668567 
L 61.08457 14.351948 
L 61.759031 14.03854 
L 62.326633 13.73385 
L 63.463226 13.114835 
L 64.097442 12.78812 
L 64.541531 12.50408 
L 65.236809 12.173235 
L 65.72392 12.008042 
L 69.711014 10.574075 
L 69.87616 10.514881 
L 73.795253 9.336045 
L 75.319036 8.97262 
L 75.543856 8.906084 
L 75.99766 8.7698 
L 76.801185 8.621126 
L 78.165374 8.359111 
L 78.880081 8.239347 
L 79.827935 8.076448 
L 80.083287 8.035608 
L 80.985344 7.894736 
L 83.791437 7.543241 
L 91.229941 6.833829 
L 93.646067 6.690203 
L 93.858397 6.676896 
L 97.016986 6.513997 
L 99.344294 6.405245 
L 105.11191 6.236381 
L 122.04561 5.83074 
L 122.409208 5.821563 
L 127.012477 5.677019 
L 127.832655 5.650864 
L 132.928586 5.490259 
L 139.502502 5.309923 
L 144.340306 5.162626 
L 149.22113 4.987338 
L 150.09682 4.951546 
L 155.04287 4.749644 
L 184.06969 4.059504 
L 195.793661 3.908995 
L 237.342425 3.546029 
L 253.351863 3.468021 
L 253.351863 3.468021 
" clip-path="url(#p12776c5116)" style="fill: none; stroke-dasharray: 9.6,2.4,1.5,2.4; stroke-dashoffset: 0; stroke: #d62728; stroke-width: 1.5"/>
   </g>
   <g id="line2d_23">
    <path d="M 8.22123 66.91115 
L 12.853641 66.796977 
L 13.514225 66.711821 
L 14.618898 66.516907 
L 19.952139 65.596585 
L 20.283819 65.407348 
L 20.881952 65.254066 
L 21.491188 65.112139 
L 22.479288 64.77782 
L 22.92199 64.671217 
L 23.056605 64.60183 
L 24.315322 63.926254 
L 24.42912 63.767926 
L 24.799657 63.448747 
L 24.964803 63.297357 
L 25.286768 62.942223 
L 26.18605 61.90142 
L 26.378952 61.744354 
L 28.298252 60.149718 
L 28.477276 59.997067 
L 28.595237 59.846939 
L 30.904504 57.597544 
L 31.394391 56.756701 
L 32.235386 56.141682 
L 32.535146 55.883689 
L 33.187403 55.180989 
L 33.421938 54.953274 
L 33.766108 54.668788 
L 33.92709 54.532538 
L 34.869394 53.527059 
L 35.076173 53.284836 
L 35.316259 53.055229 
L 35.649326 52.679278 
L 35.904678 52.441471 
L 36.462566 51.867452 
L 36.645753 51.662446 
L 36.944126 51.260002 
L 37.239723 51.003901 
L 39.579521 48.732429 
L 39.696095 48.516068 
L 40.401087 47.725689 
L 40.698072 47.324507 
L 40.910403 47.106253 
L 42.228794 45.123682 
L 42.488309 44.528217 
L 42.717293 44.302394 
L 47.670282 39.649691 
L 48.541808 38.647997 
L 48.831855 38.395051 
L 49.842159 37.201597 
L 50.041999 37.025607 
L 53.268589 33.942308 
L 54.108196 32.98477 
L 54.33718 32.818872 
L 54.562001 32.640359 
L 54.709105 32.507262 
L 55.260054 31.942075 
L 55.984476 31.31507 
L 56.210684 31.13151 
L 56.671427 30.684911 
L 56.879594 30.486213 
L 57.086374 30.271113 
L 57.390298 29.94878 
L 57.622057 29.721696 
L 57.735855 29.543813 
L 57.952349 29.3817 
L 58.741996 28.513734 
L 59.748137 27.329111 
L 60.078429 27.057872 
L 60.304637 26.876835 
L 62.845663 24.416756 
L 63.477104 23.743073 
L 64.47353 22.687132 
L 64.884313 22.169884 
L 65.667021 21.607851 
L 65.948741 21.401583 
L 66.062539 21.261547 
L 66.480261 20.878027 
L 67.036761 20.5046 
L 67.237989 20.36898 
L 67.48779 20.133696 
L 67.76257 19.945721 
L 68.126169 19.658711 
L 68.303805 19.495968 
L 69.362681 18.683511 
L 69.735994 18.392717 
L 70.271678 17.849607 
L 70.735196 17.577106 
L 71.344432 17.178447 
L 72.385267 16.382391 
L 73.122179 15.92633 
L 73.353938 15.797018 
L 74.275425 15.26274 
L 74.389223 15.170014 
L 75.325975 14.622488 
L 76.035131 14.127319 
L 76.577753 13.890773 
L 77.428462 13.442281 
L 77.746264 13.296569 
L 77.890593 13.243583 
L 80.335863 12.251981 
L 80.778565 12.100592 
L 82.15108 11.598484 
L 82.603496 11.43574 
L 83.327918 11.226318 
L 83.987114 11.071144 
L 84.110626 11.027619 
L 86.76545 10.323027 
L 86.879248 10.275087 
L 90.921853 9.552203 
L 91.109204 9.519402 
L 100.938854 8.5114 
L 103.676945 8.363795 
L 104.609534 8.330994 
L 132.119509 7.873672 
L 163.035099 7.597386 
L 175.559819 7.187373 
L 179.566342 6.994351 
L 182.604193 6.818992 
L 182.748523 6.807638 
L 186.299853 6.595692 
L 189.457054 6.407717 
L 189.613873 6.394471 
L 192.969527 6.174956 
L 194.72507 6.086645 
L 203.178041 5.626169 
L 203.470863 5.602199 
L 206.115973 5.455856 
L 208.432179 5.354299 
L 211.923835 5.199124 
L 215.378021 5.048366 
L 228.702103 4.607444 
L 253.354638 4.322327 
L 253.354638 4.322327 
" clip-path="url(#p12776c5116)" style="fill: none; stroke: #9467bd; stroke-width: 1.5; stroke-linecap: square"/>
   </g>
   <g id="patch_3">
    <path d="M 3.5 70.098056 
L 3.5 -0 
" style="fill: none; stroke: #000000; stroke-width: 0.8; stroke-linejoin: miter; stroke-linecap: square"/>
   </g>
   <g id="patch_4">
    <path d="M 253.300515 70.098056 
L 253.300515 -0 
" style="fill: none; stroke: #000000; stroke-width: 0.8; stroke-linejoin: miter; stroke-linecap: square"/>
   </g>
   <g id="patch_5">
    <path d="M 3.5 70.098056 
L 253.300515 70.098056 
" style="fill: none; stroke: #000000; stroke-width: 0.8; stroke-linejoin: miter; stroke-linecap: square"/>
   </g>
   <g id="patch_6">
    <path d="M 3.5 -0 
L 253.300515 -0 
" style="fill: none; stroke: #000000; stroke-width: 0.8; stroke-linejoin: miter; stroke-linecap: square"/>
   </g>
   <g id="legend_1">
    <g id="patch_7">
     <path d="M 149.894727 65.100056 
L 248.302515 65.100056 
L 248.302515 29.102927 
L 149.894727 29.102927 
z
" style="fill: #ffffff; opacity: 0.8; stroke: #000000; stroke-linejoin: miter"/>
    </g>
    <g id="line2d_24">
     <path d="M 153.893127 36.599927 
L 158.891127 36.599927 
L 163.889127 36.599927 
" style="fill: none; stroke: #1f77b4; stroke-width: 1.5; stroke-linecap: square"/>
    </g>
    <g id="text_10">
     <!-- Berlin -->
     <g transform="translate(166.887927 40.098527) scale(0.09996 -0.09996)">
      <defs>
       <path id="CMR17-42" d="M 333 4352 
L 333 4186 
C 774 4186 845 4186 845 3900 
L 845 452 
C 845 166 774 166 333 166 
L 333 0 
L 2534 0 
C 3354 0 3885 583 3885 1164 
C 3885 1741 3360 2233 2675 2233 
C 3290 2356 3718 2771 3718 3264 
C 3718 3802 3194 4352 2368 4352 
L 333 4352 
z
M 1248 2304 
L 1248 3937 
C 1248 4155 1261 4186 1517 4186 
L 2336 4186 
C 2970 4186 3251 3674 3251 3277 
C 3251 2791 2861 2304 2170 2304 
L 1248 2304 
z
M 1517 166 
C 1261 166 1248 197 1248 413 
L 1248 2202 
L 2432 2202 
C 3091 2202 3411 1625 3411 1162 
C 3411 699 3046 166 2349 166 
L 1517 166 
z
" transform="scale(0.015625)"/>
       <path id="CMR17-65" d="M 2438 1472 
C 2464 1498 2464 1511 2464 1576 
C 2464 2238 2118 2816 1389 2816 
C 710 2816 173 2169 173 1383 
C 173 551 781 -64 1459 -64 
C 2176 -64 2458 607 2458 740 
C 2458 784 2419 784 2406 784 
C 2362 784 2355 771 2330 696 
C 2189 265 1837 51 1504 51 
C 1229 51 954 203 781 480 
C 582 803 582 1176 582 1472 
L 2438 1472 
z
M 589 1568 
C 634 2505 1126 2714 1382 2714 
C 1818 2714 2112 2297 2118 1568 
L 589 1568 
z
" transform="scale(0.015625)"/>
       <path id="CMR17-72" d="M 960 1497 
C 960 2112 1222 2688 1702 2688 
C 1747 2688 1792 2682 1837 2662 
C 1837 2662 1696 2617 1696 2452 
C 1696 2298 1818 2234 1914 2234 
C 1990 2234 2131 2279 2131 2458 
C 2131 2663 1926 2790 1709 2790 
C 1222 2790 1011 2317 947 2093 
L 941 2093 
L 941 2790 
L 198 2720 
L 198 2554 
C 576 2554 634 2515 634 2208 
L 634 428 
C 634 184 608 153 198 153 
L 198 -13 
C 352 0 646 0 813 0 
C 998 0 1325 0 1498 -13 
L 1498 153 
C 1037 153 960 153 960 440 
L 960 1497 
z
" transform="scale(0.015625)"/>
       <path id="CMR17-6c" d="M 979 4396 
L 218 4326 
L 218 4160 
C 595 4160 653 4122 653 3817 
L 653 426 
C 653 184 627 153 218 153 
L 218 -13 
C 371 0 653 0 813 0 
C 979 0 1261 0 1414 -13 
L 1414 153 
C 1005 153 979 178 979 426 
L 979 4396 
z
" transform="scale(0.015625)"/>
       <path id="CMR17-69" d="M 992 3909 
C 992 4049 877 4170 730 4170 
C 589 4170 467 4056 467 3909 
C 467 3769 582 3648 730 3648 
C 870 3648 992 3763 992 3909 
z
M 243 2706 
L 243 2541 
C 602 2541 653 2502 653 2197 
L 653 427 
C 653 184 627 153 218 153 
L 218 -13 
C 371 0 646 0 806 0 
C 960 0 1222 0 1370 -13 
L 1370 153 
C 992 153 979 191 979 420 
L 979 2776 
L 243 2706 
z
" transform="scale(0.015625)"/>
       <path id="CMR17-6e" d="M 2656 1933 
C 2656 2259 2592 2790 1837 2790 
C 1331 2790 1069 2400 973 2144 
L 966 2144 
L 966 2790 
L 211 2720 
L 211 2554 
C 589 2554 646 2515 646 2208 
L 646 428 
C 646 184 621 153 211 153 
L 211 -13 
C 365 0 646 0 813 0 
C 979 0 1267 0 1421 -13 
L 1421 153 
C 1011 153 986 178 986 428 
L 986 1658 
C 986 2247 1344 2688 1792 2688 
C 2266 2688 2317 2266 2317 1958 
L 2317 428 
C 2317 184 2291 153 1882 153 
L 1882 -13 
C 2035 0 2317 0 2483 0 
C 2650 0 2938 0 3091 -13 
L 3091 153 
C 2682 153 2656 178 2656 428 
L 2656 1933 
z
" transform="scale(0.015625)"/>
      </defs>
      <use xlink:href="#CMR17-42" transform="scale(0.996264)"/>
      <use xlink:href="#CMR17-65" transform="translate(65.188754 0) scale(0.996264)"/>
      <use xlink:href="#CMR17-72" transform="translate(105.674415 0) scale(0.996264)"/>
      <use xlink:href="#CMR17-6c" transform="translate(140.955183 0) scale(0.996264)"/>
      <use xlink:href="#CMR17-69" transform="translate(165.826241 0) scale(0.996264)"/>
      <use xlink:href="#CMR17-6e" transform="translate(190.6973 0) scale(0.996264)"/>
     </g>
    </g>
    <g id="line2d_25">
     <path d="M 153.893127 46.13329 
L 158.891127 46.13329 
L 163.889127 46.13329 
" style="fill: none; stroke-dasharray: 1.5,2.475; stroke-dashoffset: 0; stroke: #ff7f0e; stroke-width: 1.5"/>
    </g>
    <g id="text_11">
     <!-- Dublin -->
     <g transform="translate(166.887927 49.63189) scale(0.09996 -0.09996)">
      <defs>
       <path id="CMR17-44" d="M 333 4352 
L 333 4186 
C 774 4186 845 4186 845 3900 
L 845 452 
C 845 166 774 166 333 166 
L 333 0 
L 2368 0 
C 3398 0 4224 943 4224 2141 
C 4224 3346 3411 4352 2368 4352 
L 333 4352 
z
M 1523 166 
C 1267 166 1254 197 1254 414 
L 1254 3938 
C 1254 4155 1267 4186 1523 4186 
L 2240 4186 
C 2771 4186 3750 3874 3750 2141 
C 3750 1242 3488 879 3366 707 
C 3213 510 2848 166 2240 166 
L 1523 166 
z
" transform="scale(0.015625)"/>
       <path id="CMR17-75" d="M 1882 2693 
L 1882 2528 
C 2259 2528 2317 2489 2317 2186 
L 2317 1032 
C 2317 500 2029 38 1555 38 
C 1030 38 986 348 986 678 
L 986 2763 
L 211 2693 
L 211 2528 
C 467 2528 640 2528 646 2274 
L 646 1058 
C 646 633 646 361 813 183 
C 896 101 1056 -64 1517 -64 
C 2061 -64 2272 377 2323 506 
L 2330 506 
L 2330 -63 
L 3091 -63 
L 3091 128 
C 2714 128 2656 166 2656 473 
L 2656 2763 
L 1882 2693 
z
" transform="scale(0.015625)"/>
       <path id="CMR17-62" d="M 960 4396 
L 198 4326 
L 198 4160 
C 576 4160 634 4122 634 3817 
L 634 -13 
L 749 -13 
L 934 441 
C 1120 141 1395 -64 1766 -64 
C 2406 -64 3053 500 3053 1370 
C 3053 2188 2477 2790 1830 2790 
C 1434 2790 1152 2579 960 2330 
L 960 4396 
z
M 973 2004 
C 973 2118 973 2138 1062 2272 
C 1312 2657 1670 2688 1792 2688 
C 1984 2688 2643 2585 2643 1376 
C 2643 108 1888 38 1734 38 
C 1536 38 1248 114 1043 486 
C 973 608 973 621 973 735 
L 973 2004 
z
" transform="scale(0.015625)"/>
      </defs>
      <use xlink:href="#CMR17-44" transform="scale(0.996264)"/>
      <use xlink:href="#CMR17-75" transform="translate(70.393556 0) scale(0.996264)"/>
      <use xlink:href="#CMR17-62" transform="translate(121.288926 0) scale(0.996264)"/>
      <use xlink:href="#CMR17-6c" transform="translate(172.184295 0) scale(0.996264)"/>
      <use xlink:href="#CMR17-69" transform="translate(197.055354 0) scale(0.996264)"/>
      <use xlink:href="#CMR17-6e" transform="translate(221.926412 0) scale(0.996264)"/>
     </g>
    </g>
    <g id="line2d_26">
     <path d="M 153.893127 55.666653 
L 158.891127 55.666653 
L 163.889127 55.666653 
" style="fill: none; stroke-dasharray: 5.55,2.4; stroke-dashoffset: 0; stroke: #2ca02c; stroke-width: 1.5"/>
    </g>
    <g id="text_12">
     <!-- London -->
     <g transform="translate(166.887927 59.165253) scale(0.09996 -0.09996)">
      <defs>
       <path id="CMR17-4c" d="M 3469 1615 
L 3354 1615 
C 3302 983 3219 166 2125 166 
L 1530 166 
C 1274 166 1261 197 1261 414 
L 1261 3898 
C 1261 4129 1274 4192 1760 4192 
L 1901 4192 
L 1901 4352 
C 1638 4352 1331 4352 1069 4352 
C 870 4352 512 4352 326 4352 
L 326 4192 
C 768 4192 838 4192 838 3905 
L 838 452 
C 838 166 768 166 326 166 
L 326 0 
L 3315 0 
L 3469 1615 
z
" transform="scale(0.015625)"/>
       <path id="CMR17-6f" d="M 2758 1356 
C 2758 2176 2163 2816 1466 2816 
C 768 2816 173 2176 173 1356 
C 173 551 768 -64 1466 -64 
C 2163 -64 2758 551 2758 1356 
z
M 1466 51 
C 1165 51 909 230 762 480 
C 602 767 582 1126 582 1408 
C 582 1677 595 2010 762 2298 
C 890 2509 1139 2714 1466 2714 
C 1754 2714 1997 2554 2150 2330 
C 2349 2029 2349 1607 2349 1408 
C 2349 1158 2336 775 2163 467 
C 1984 173 1709 51 1466 51 
z
" transform="scale(0.015625)"/>
       <path id="CMR17-64" d="M 1869 4326 
L 1869 4160 
C 2246 4160 2304 4122 2304 3820 
L 2304 2345 
C 2278 2377 2016 2790 1498 2790 
C 845 2790 211 2208 211 1364 
C 211 525 806 -64 1434 -64 
C 1978 -64 2259 337 2291 380 
L 2291 -63 
L 3066 -63 
L 3066 128 
C 2688 128 2630 166 2630 473 
L 2630 4396 
L 1869 4326 
z
M 2291 755 
C 2291 563 2176 390 2029 262 
C 1811 70 1594 38 1472 38 
C 1286 38 621 134 621 1356 
C 621 2612 1363 2688 1530 2688 
C 1824 2688 2061 2522 2208 2291 
C 2291 2157 2291 2138 2291 2023 
L 2291 755 
z
" transform="scale(0.015625)"/>
      </defs>
      <use xlink:href="#CMR17-4c" transform="scale(0.996264)"/>
      <use xlink:href="#CMR17-6f" transform="translate(57.381408 0) scale(0.996264)"/>
      <use xlink:href="#CMR17-6e" transform="translate(103.071885 0) scale(0.996264)"/>
      <use xlink:href="#CMR17-64" transform="translate(153.967255 0) scale(0.996264)"/>
      <use xlink:href="#CMR17-6f" transform="translate(204.862625 0) scale(0.996264)"/>
      <use xlink:href="#CMR17-6e" transform="translate(250.553102 0) scale(0.996264)"/>
     </g>
    </g>
    <g id="line2d_27">
     <path d="M 205.576057 36.599927 
L 210.574057 36.599927 
L 215.572057 36.599927 
" style="fill: none; stroke-dasharray: 9.6,2.4,1.5,2.4; stroke-dashoffset: 0; stroke: #d62728; stroke-width: 1.5"/>
    </g>
    <g id="text_13">
     <!-- Paris -->
     <g transform="translate(218.570857 40.098527) scale(0.09996 -0.09996)">
      <defs>
       <path id="CMR17-50" d="M 1267 2042 
L 2291 2042 
C 3117 2042 3718 2578 3718 3184 
C 3718 3791 3130 4352 2291 4352 
L 333 4352 
L 333 4186 
C 774 4186 845 4186 845 3899 
L 845 446 
C 845 160 774 160 333 160 
L 333 0 
C 518 0 858 0 1056 0 
C 1254 0 1594 0 1779 0 
L 1779 160 
C 1338 160 1267 160 1267 446 
L 1267 2042 
z
M 1254 2176 
L 1254 3938 
C 1254 4155 1267 4186 1523 4186 
L 2170 4186 
C 2995 4186 3232 3714 3232 3184 
C 3232 2604 2950 2176 2170 2176 
L 1254 2176 
z
" transform="scale(0.015625)"/>
       <path id="CMR17-61" d="M 2304 1653 
C 2304 2072 2304 2294 2035 2543 
C 1798 2752 1523 2816 1306 2816 
C 800 2816 435 2407 435 1971 
C 435 1728 627 1728 666 1728 
C 749 1728 896 1778 896 1954 
C 896 2112 774 2181 666 2181 
C 640 2181 608 2174 589 2168 
C 723 2592 1069 2714 1293 2714 
C 1613 2714 1965 2429 1965 1885 
L 1965 1600 
C 1587 1600 1133 1549 774 1357 
C 371 1133 256 813 256 570 
C 256 77 832 -64 1171 -64 
C 1523 -64 1850 139 1990 511 
C 2003 233 2182 -18 2464 -18 
C 2598 -18 2938 70 2938 567 
L 2938 920 
L 2822 920 
L 2822 562 
C 2822 178 2650 128 2566 128 
C 2304 128 2304 458 2304 738 
L 2304 1653 
z
M 1965 870 
C 1965 317 1568 38 1216 38 
C 896 38 646 275 646 570 
C 646 761 730 1100 1101 1305 
C 1408 1478 1760 1504 1965 1504 
L 1965 870 
z
" transform="scale(0.015625)"/>
      </defs>
      <use xlink:href="#CMR17-50" transform="scale(0.996264)"/>
      <use xlink:href="#CMR17-61" transform="translate(59.983847 0) scale(0.996264)"/>
      <use xlink:href="#CMR17-72" transform="translate(105.674324 0) scale(0.996264)"/>
      <use xlink:href="#CMR17-69" transform="translate(140.955092 0) scale(0.996264)"/>
      <use xlink:href="#CMR17-73" transform="translate(165.82615 0) scale(0.996264)"/>
     </g>
    </g>
    <g id="line2d_28">
     <path d="M 205.576057 46.13329 
L 210.574057 46.13329 
L 215.572057 46.13329 
" style="fill: none; stroke: #9467bd; stroke-width: 1.5; stroke-linecap: square"/>
    </g>
    <g id="text_14">
     <!-- Rome -->
     <g transform="translate(218.570857 49.63189) scale(0.09996 -0.09996)">
      <use xlink:href="#CMR17-52" transform="scale(0.996264)"/>
      <use xlink:href="#CMR17-6f" transform="translate(67.791102 0) scale(0.996264)"/>
      <use xlink:href="#CMR17-6d" transform="translate(113.481579 0) scale(0.996264)"/>
      <use xlink:href="#CMR17-65" transform="translate(190.401169 0) scale(0.996264)"/>
     </g>
    </g>
   </g>
  </g>
 </g>
 <defs>
  <clipPath id="p12776c5116">
   <rect x="3.5" y="-0" width="249.800515" height="70.098056"/>
  </clipPath>
 </defs>
</svg>
