<?xml version="1.0" encoding="utf-8" standalone="no"?>
<!DOCTYPE svg PUBLIC "-//W3C//DTD SVG 1.1//EN"
  "http://www.w3.org/Graphics/SVG/1.1/DTD/svg11.dtd">
<svg xmlns:xlink="http://www.w3.org/1999/xlink" width="262.08pt" height="104.644815pt" viewBox="0 0 262.08 104.644815" xmlns="http://www.w3.org/2000/svg" version="1.1">
 <metadata>
  <rdf:RDF xmlns:dc="http://purl.org/dc/elements/1.1/" xmlns:cc="http://creativecommons.org/ns#" xmlns:rdf="http://www.w3.org/1999/02/22-rdf-syntax-ns#">
   <cc:Work>
    <dc:type rdf:resource="http://purl.org/dc/dcmitype/StillImage"/>
    <dc:date>2023-10-12T10:31:45.737802</dc:date>
    <dc:format>image/svg+xml</dc:format>
    <dc:creator>
     <cc:Agent>
      <dc:title>Matplotlib v3.7.0, https://matplotlib.org/</dc:title>
     </cc:Agent>
    </dc:creator>
   </cc:Work>
  </rdf:RDF>
 </metadata>
 <defs>
  <style type="text/css">*{stroke-linejoin: round; stroke-linecap: butt}</style>
 </defs>
 <g id="figure_1">
  <g id="patch_1">
   <path d="M 0 104.644815 
L 262.08 104.644815 
L 262.08 0 
L 0 0 
z
" style="fill: #ffffff"/>
  </g>
  <g id="axes_1">
   <g id="patch_2">
    <path d="M 42.437408 71.062871 
L 253.300515 71.062871 
L 253.300515 0.964815 
L 42.437408 0.964815 
z
" style="fill: #ffffff"/>
   </g>
   <g id="matplotlib.axis_1">
    <g id="xtick_1">
     <g id="line2d_1">
      <defs>
       <path id="m9bc5e04a80" d="M 0 0 
L 0 3.5 
" style="stroke: #000000; stroke-width: 0.8"/>
      </defs>
      <g>
       <use xlink:href="#m9bc5e04a80" x="48.294716" y="71.062871" style="stroke: #000000; stroke-width: 0.8"/>
      </g>
     </g>
     <g id="text_1">
      <!-- 25 -->
      <g transform="translate(42.441726 86.365051) scale(0.12 -0.12)">
       <defs>
        <path id="CMR17-32" d="M 2669 989 
L 2554 989 
C 2490 536 2438 459 2413 420 
C 2381 369 1920 369 1830 369 
L 602 369 
C 832 619 1280 1072 1824 1597 
C 2214 1967 2669 2402 2669 3035 
C 2669 3790 2067 4224 1395 4224 
C 691 4224 262 3604 262 3030 
C 262 2780 448 2748 525 2748 
C 589 2748 781 2787 781 3010 
C 781 3207 614 3264 525 3264 
C 486 3264 448 3258 422 3245 
C 544 3790 915 4058 1306 4058 
C 1862 4058 2227 3617 2227 3035 
C 2227 2479 1901 2000 1536 1584 
L 262 146 
L 262 0 
L 2515 0 
L 2669 989 
z
" transform="scale(0.015625)"/>
        <path id="CMR17-35" d="M 730 3692 
C 794 3666 1056 3584 1325 3584 
C 1920 3584 2246 3911 2432 4100 
C 2432 4157 2432 4192 2394 4192 
C 2387 4192 2374 4192 2323 4163 
C 2099 4058 1837 3973 1517 3973 
C 1325 3973 1037 3999 723 4139 
C 653 4171 640 4171 634 4171 
C 602 4171 595 4164 595 4037 
L 595 2203 
C 595 2089 595 2057 659 2057 
C 691 2057 704 2070 736 2114 
C 941 2401 1222 2522 1542 2522 
C 1766 2522 2246 2382 2246 1289 
C 2246 1085 2246 715 2054 421 
C 1894 159 1645 25 1370 25 
C 947 25 518 320 403 814 
C 429 807 480 795 506 795 
C 589 795 749 840 749 1038 
C 749 1210 627 1280 506 1280 
C 358 1280 262 1190 262 1011 
C 262 454 704 -128 1382 -128 
C 2042 -128 2669 440 2669 1264 
C 2669 2030 2170 2624 1549 2624 
C 1222 2624 947 2503 730 2274 
L 730 3692 
z
" transform="scale(0.015625)"/>
       </defs>
       <use xlink:href="#CMR17-32" transform="scale(0.996264)"/>
       <use xlink:href="#CMR17-35" transform="translate(45.690477 0) scale(0.996264)"/>
      </g>
     </g>
    </g>
    <g id="xtick_2">
     <g id="line2d_2">
      <g>
       <use xlink:href="#m9bc5e04a80" x="77.581259" y="71.062871" style="stroke: #000000; stroke-width: 0.8"/>
      </g>
     </g>
     <g id="text_2">
      <!-- 50 -->
      <g transform="translate(71.728268 86.365051) scale(0.12 -0.12)">
       <defs>
        <path id="CMR17-30" d="M 2688 2025 
C 2688 2416 2682 3080 2413 3591 
C 2176 4039 1798 4198 1466 4198 
C 1158 4198 768 4058 525 3597 
C 269 3118 243 2524 243 2025 
C 243 1661 250 1106 448 619 
C 723 -39 1216 -128 1466 -128 
C 1760 -128 2208 -7 2470 600 
C 2662 1042 2688 1559 2688 2025 
z
M 1466 -26 
C 1056 -26 813 325 723 812 
C 653 1188 653 1738 653 2096 
C 653 2588 653 2997 736 3387 
C 858 3929 1216 4096 1466 4096 
C 1728 4096 2067 3923 2189 3400 
C 2272 3036 2278 2607 2278 2096 
C 2278 1680 2278 1169 2202 792 
C 2067 95 1690 -26 1466 -26 
z
" transform="scale(0.015625)"/>
       </defs>
       <use xlink:href="#CMR17-35" transform="scale(0.996264)"/>
       <use xlink:href="#CMR17-30" transform="translate(45.690477 0) scale(0.996264)"/>
      </g>
     </g>
    </g>
    <g id="xtick_3">
     <g id="line2d_3">
      <g>
       <use xlink:href="#m9bc5e04a80" x="106.867801" y="71.062871" style="stroke: #000000; stroke-width: 0.8"/>
      </g>
     </g>
     <g id="text_3">
      <!-- 75 -->
      <g transform="translate(101.014811 86.365051) scale(0.12 -0.12)">
       <defs>
        <path id="CMR17-37" d="M 2886 3941 
L 2886 4081 
L 1382 4081 
C 634 4081 621 4165 595 4288 
L 480 4288 
L 294 3094 
L 410 3094 
C 429 3215 474 3540 550 3661 
C 589 3712 1062 3712 1171 3712 
L 2579 3712 
L 1869 2661 
C 1395 1954 1069 999 1069 165 
C 1069 89 1069 -128 1299 -128 
C 1530 -128 1530 89 1530 171 
L 1530 465 
C 1530 1508 1709 2196 2003 2636 
L 2886 3941 
z
" transform="scale(0.015625)"/>
       </defs>
       <use xlink:href="#CMR17-37" transform="scale(0.996264)"/>
       <use xlink:href="#CMR17-35" transform="translate(45.690477 0) scale(0.996264)"/>
      </g>
     </g>
    </g>
    <g id="xtick_4">
     <g id="line2d_4">
      <g>
       <use xlink:href="#m9bc5e04a80" x="136.154344" y="71.062871" style="stroke: #000000; stroke-width: 0.8"/>
      </g>
     </g>
     <g id="text_4">
      <!-- 100 -->
      <g transform="translate(127.374859 86.365051) scale(0.12 -0.12)">
       <defs>
        <path id="CMR17-31" d="M 1702 4058 
C 1702 4192 1696 4192 1606 4192 
C 1357 3916 979 3827 621 3827 
C 602 3827 570 3827 563 3808 
C 557 3795 557 3782 557 3648 
C 755 3648 1088 3686 1344 3839 
L 1344 461 
C 1344 236 1331 160 781 160 
L 589 160 
L 589 0 
C 896 0 1216 0 1523 0 
C 1830 0 2150 0 2458 0 
L 2458 160 
L 2266 160 
C 1715 160 1702 230 1702 458 
L 1702 4058 
z
" transform="scale(0.015625)"/>
       </defs>
       <use xlink:href="#CMR17-31" transform="scale(0.996264)"/>
       <use xlink:href="#CMR17-30" transform="translate(45.690477 0) scale(0.996264)"/>
       <use xlink:href="#CMR17-30" transform="translate(91.380954 0) scale(0.996264)"/>
      </g>
     </g>
    </g>
    <g id="xtick_5">
     <g id="line2d_5">
      <g>
       <use xlink:href="#m9bc5e04a80" x="165.440887" y="71.062871" style="stroke: #000000; stroke-width: 0.8"/>
      </g>
     </g>
     <g id="text_5">
      <!-- 125 -->
      <g transform="translate(156.661401 86.365051) scale(0.12 -0.12)">
       <use xlink:href="#CMR17-31" transform="scale(0.996264)"/>
       <use xlink:href="#CMR17-32" transform="translate(45.690477 0) scale(0.996264)"/>
       <use xlink:href="#CMR17-35" transform="translate(91.380954 0) scale(0.996264)"/>
      </g>
     </g>
    </g>
    <g id="xtick_6">
     <g id="line2d_6">
      <g>
       <use xlink:href="#m9bc5e04a80" x="194.727429" y="71.062871" style="stroke: #000000; stroke-width: 0.8"/>
      </g>
     </g>
     <g id="text_6">
      <!-- 150 -->
      <g transform="translate(185.947944 86.365051) scale(0.12 -0.12)">
       <use xlink:href="#CMR17-31" transform="scale(0.996264)"/>
       <use xlink:href="#CMR17-35" transform="translate(45.690477 0) scale(0.996264)"/>
       <use xlink:href="#CMR17-30" transform="translate(91.380954 0) scale(0.996264)"/>
      </g>
     </g>
    </g>
    <g id="xtick_7">
     <g id="line2d_7">
      <g>
       <use xlink:href="#m9bc5e04a80" x="224.013972" y="71.062871" style="stroke: #000000; stroke-width: 0.8"/>
      </g>
     </g>
     <g id="text_7">
      <!-- 175 -->
      <g transform="translate(215.234487 86.365051) scale(0.12 -0.12)">
       <use xlink:href="#CMR17-31" transform="scale(0.996264)"/>
       <use xlink:href="#CMR17-37" transform="translate(45.690477 0) scale(0.996264)"/>
       <use xlink:href="#CMR17-35" transform="translate(91.380954 0) scale(0.996264)"/>
      </g>
     </g>
    </g>
    <g id="xtick_8">
     <g id="line2d_8">
      <g>
       <use xlink:href="#m9bc5e04a80" x="253.300515" y="71.062871" style="stroke: #000000; stroke-width: 0.8"/>
      </g>
     </g>
     <g id="text_8">
      <!-- 200 -->
      <g transform="translate(244.521029 86.365051) scale(0.12 -0.12)">
       <use xlink:href="#CMR17-32" transform="scale(0.996264)"/>
       <use xlink:href="#CMR17-30" transform="translate(45.690477 0) scale(0.996264)"/>
       <use xlink:href="#CMR17-30" transform="translate(91.380954 0) scale(0.996264)"/>
      </g>
     </g>
    </g>
    <g id="text_9">
     <!-- RTT [ms] -->
     <g transform="translate(123.206144 101.656023) scale(0.12 -0.12)">
      <defs>
       <path id="CMR17-52" d="M 2509 2146 
C 3117 2268 3629 2676 3629 3186 
C 3629 3785 2950 4326 2054 4326 
L 333 4326 
L 333 4160 
C 774 4160 845 4160 845 3873 
L 845 415 
C 845 128 774 128 333 128 
L 333 -26 
C 518 -26 851 -26 1050 -26 
C 1248 -26 1581 -26 1766 -26 
L 1766 128 
C 1325 128 1254 128 1254 417 
L 1254 2112 
L 2003 2112 
C 2368 2112 2573 1964 2662 1881 
C 2918 1632 2918 1459 2918 1024 
C 2918 595 2918 377 3110 160 
C 3354 -102 3680 -128 3821 -128 
C 4294 -128 4365 396 4365 503 
C 4365 540 4365 585 4307 585 
C 4256 585 4250 547 4250 522 
C 4218 112 4032 -26 3834 -26 
C 3482 -26 3443 375 3405 764 
C 3386 898 3373 993 3360 1133 
C 3322 1452 3270 1917 2509 2146 
z
M 1984 2214 
L 1254 2214 
L 1254 3913 
C 1254 4129 1267 4160 1523 4160 
L 1990 4160 
C 2522 4160 3142 3977 3142 3190 
C 3142 2372 2464 2214 1984 2214 
z
" transform="scale(0.015625)"/>
       <path id="CMR17-54" d="M 3981 4326 
L 288 4326 
L 179 2918 
L 294 2918 
C 378 3976 467 4160 1453 4160 
C 1568 4160 1754 4160 1805 4154 
C 1926 4135 1926 4058 1926 3912 
L 1926 459 
C 1926 230 1907 160 1376 160 
L 1197 160 
L 1197 0 
C 1504 0 1824 0 2138 0 
C 2451 0 2771 0 3078 0 
L 3078 160 
L 2899 160 
C 2368 160 2349 230 2349 459 
L 2349 3912 
C 2349 4052 2349 4129 2464 4154 
C 2515 4160 2701 4160 2816 4160 
C 3795 4160 3891 3976 3974 2918 
L 4090 2918 
L 3981 4326 
z
" transform="scale(0.015625)"/>
       <path id="CMR17-5b" d="M 1504 -1600 
L 1504 -1377 
L 902 -1377 
L 902 4544 
L 1504 4544 
L 1504 4767 
L 678 4767 
L 678 -1600 
L 1504 -1600 
z
" transform="scale(0.015625)"/>
       <path id="CMR17-6d" d="M 4326 1933 
C 4326 2252 4269 2790 3507 2790 
C 3072 2790 2771 2496 2656 2151 
L 2650 2151 
C 2573 2676 2195 2790 1837 2790 
C 1331 2790 1069 2400 973 2144 
L 966 2144 
L 966 2790 
L 211 2720 
L 211 2554 
C 589 2554 646 2515 646 2208 
L 646 428 
C 646 184 621 153 211 153 
L 211 -13 
C 365 0 646 0 813 0 
C 979 0 1267 0 1421 -13 
L 1421 153 
C 1011 153 986 178 986 428 
L 986 1658 
C 986 2247 1344 2688 1792 2688 
C 2266 2688 2317 2266 2317 1958 
L 2317 428 
C 2317 184 2291 153 1882 153 
L 1882 -13 
C 2035 0 2317 0 2483 0 
C 2650 0 2938 0 3091 -13 
L 3091 153 
C 2682 153 2656 178 2656 428 
L 2656 1658 
C 2656 2247 3014 2688 3462 2688 
C 3936 2688 3987 2266 3987 1958 
L 3987 428 
C 3987 184 3962 153 3552 153 
L 3552 -13 
C 3706 0 3987 0 4154 0 
C 4320 0 4608 0 4762 -13 
L 4762 153 
C 4352 153 4326 178 4326 428 
L 4326 1933 
z
" transform="scale(0.015625)"/>
       <path id="CMR17-73" d="M 1978 2697 
C 1978 2813 1971 2819 1933 2819 
C 1907 2819 1901 2813 1824 2717 
C 1805 2691 1747 2626 1728 2601 
C 1523 2819 1235 2819 1126 2819 
C 416 2819 160 2447 160 2076 
C 160 1498 813 1365 998 1325 
C 1402 1243 1542 1217 1677 1101 
C 1760 1025 1901 884 1901 654 
C 1901 384 1747 38 1158 38 
C 602 38 403 460 288 1021 
C 269 1110 269 1117 218 1117 
C 166 1117 160 1110 160 983 
L 160 63 
C 160 -51 166 -58 205 -58 
C 237 -58 243 -51 275 0 
C 314 57 410 211 448 276 
C 576 103 800 -64 1158 -64 
C 1792 -64 2131 283 2131 784 
C 2131 1112 1958 1285 1875 1362 
C 1683 1561 1459 1606 1190 1657 
C 838 1735 390 1825 390 2217 
C 390 2383 480 2737 1126 2737 
C 1811 2737 1850 2094 1862 1888 
C 1869 1856 1901 1849 1920 1849 
C 1978 1849 1978 1869 1978 1978 
L 1978 2697 
z
" transform="scale(0.015625)"/>
       <path id="CMR17-5d" d="M 915 4767 
L 90 4767 
L 90 4544 
L 691 4544 
L 691 -1377 
L 90 -1377 
L 90 -1600 
L 915 -1600 
L 915 4767 
z
" transform="scale(0.015625)"/>
      </defs>
      <use xlink:href="#CMR17-52" transform="scale(0.996264)"/>
      <use xlink:href="#CMR17-54" transform="translate(59.983847 0) scale(0.996264)"/>
      <use xlink:href="#CMR17-54" transform="translate(126.493727 0) scale(0.996264)"/>
      <use xlink:href="#CMR17-5b" transform="translate(223.079574 0) scale(0.996264)"/>
      <use xlink:href="#CMR17-6d" transform="translate(247.950633 0) scale(0.996264)"/>
      <use xlink:href="#CMR17-73" transform="translate(324.870222 0) scale(0.996264)"/>
      <use xlink:href="#CMR17-5d" transform="translate(360.67156 0) scale(0.996264)"/>
     </g>
    </g>
   </g>
   <g id="matplotlib.axis_2">
    <g id="ytick_1">
     <g id="line2d_9">
      <path d="M 42.437408 67.876596 
L 253.300515 67.876596 
" clip-path="url(#pe42014dd0a)" style="fill: none; stroke: #b0b0b0; stroke-opacity: 0.7; stroke-width: 0.5; stroke-linecap: square"/>
     </g>
     <g id="line2d_10">
      <defs>
       <path id="m786b658b2a" d="M 0 0 
L -3.5 0 
" style="stroke: #000000; stroke-width: 0.8"/>
      </defs>
      <g>
       <use xlink:href="#m786b658b2a" x="42.437408" y="67.876596" style="stroke: #000000; stroke-width: 0.8"/>
      </g>
     </g>
     <g id="text_10">
      <!-- 0.00 -->
      <g transform="translate(14.626776 72.027686) scale(0.12 -0.12)">
       <defs>
        <path id="CMR17-2e" d="M 1062 261 
C 1062 420 934 522 800 522 
C 672 522 538 420 538 261 
C 538 102 666 0 800 0 
C 928 0 1062 102 1062 261 
z
" transform="scale(0.015625)"/>
       </defs>
       <use xlink:href="#CMR17-30" transform="scale(0.996264)"/>
       <use xlink:href="#CMR17-2e" transform="translate(45.690477 0) scale(0.996264)"/>
       <use xlink:href="#CMR17-30" transform="translate(70.561536 0) scale(0.996264)"/>
       <use xlink:href="#CMR17-30" transform="translate(116.252013 0) scale(0.996264)"/>
      </g>
     </g>
    </g>
    <g id="ytick_2">
     <g id="line2d_11">
      <path d="M 42.437408 51.945219 
L 253.300515 51.945219 
" clip-path="url(#pe42014dd0a)" style="fill: none; stroke: #b0b0b0; stroke-opacity: 0.7; stroke-width: 0.5; stroke-linecap: square"/>
     </g>
     <g id="line2d_12">
      <g>
       <use xlink:href="#m786b658b2a" x="42.437408" y="51.945219" style="stroke: #000000; stroke-width: 0.8"/>
      </g>
     </g>
     <g id="text_11">
      <!-- 0.25 -->
      <g transform="translate(14.626776 56.096309) scale(0.12 -0.12)">
       <use xlink:href="#CMR17-30" transform="scale(0.996264)"/>
       <use xlink:href="#CMR17-2e" transform="translate(45.690477 0) scale(0.996264)"/>
       <use xlink:href="#CMR17-32" transform="translate(70.561536 0) scale(0.996264)"/>
       <use xlink:href="#CMR17-35" transform="translate(116.252013 0) scale(0.996264)"/>
      </g>
     </g>
    </g>
    <g id="ytick_3">
     <g id="line2d_13">
      <path d="M 42.437408 36.013843 
L 253.300515 36.013843 
" clip-path="url(#pe42014dd0a)" style="fill: none; stroke: #b0b0b0; stroke-opacity: 0.7; stroke-width: 0.5; stroke-linecap: square"/>
     </g>
     <g id="line2d_14">
      <g>
       <use xlink:href="#m786b658b2a" x="42.437408" y="36.013843" style="stroke: #000000; stroke-width: 0.8"/>
      </g>
     </g>
     <g id="text_12">
      <!-- 0.50 -->
      <g transform="translate(14.626776 40.164933) scale(0.12 -0.12)">
       <use xlink:href="#CMR17-30" transform="scale(0.996264)"/>
       <use xlink:href="#CMR17-2e" transform="translate(45.690477 0) scale(0.996264)"/>
       <use xlink:href="#CMR17-35" transform="translate(70.561536 0) scale(0.996264)"/>
       <use xlink:href="#CMR17-30" transform="translate(116.252013 0) scale(0.996264)"/>
      </g>
     </g>
    </g>
    <g id="ytick_4">
     <g id="line2d_15">
      <path d="M 42.437408 20.082466 
L 253.300515 20.082466 
" clip-path="url(#pe42014dd0a)" style="fill: none; stroke: #b0b0b0; stroke-opacity: 0.7; stroke-width: 0.5; stroke-linecap: square"/>
     </g>
     <g id="line2d_16">
      <g>
       <use xlink:href="#m786b658b2a" x="42.437408" y="20.082466" style="stroke: #000000; stroke-width: 0.8"/>
      </g>
     </g>
     <g id="text_13">
      <!-- 0.75 -->
      <g transform="translate(14.626776 24.233556) scale(0.12 -0.12)">
       <use xlink:href="#CMR17-30" transform="scale(0.996264)"/>
       <use xlink:href="#CMR17-2e" transform="translate(45.690477 0) scale(0.996264)"/>
       <use xlink:href="#CMR17-37" transform="translate(70.561536 0) scale(0.996264)"/>
       <use xlink:href="#CMR17-35" transform="translate(116.252013 0) scale(0.996264)"/>
      </g>
     </g>
    </g>
    <g id="ytick_5">
     <g id="line2d_17">
      <path d="M 42.437408 4.15109 
L 253.300515 4.15109 
" clip-path="url(#pe42014dd0a)" style="fill: none; stroke: #b0b0b0; stroke-opacity: 0.7; stroke-width: 0.5; stroke-linecap: square"/>
     </g>
     <g id="line2d_18">
      <g>
       <use xlink:href="#m786b658b2a" x="42.437408" y="4.15109" style="stroke: #000000; stroke-width: 0.8"/>
      </g>
     </g>
     <g id="text_14">
      <!-- 1.00 -->
      <g transform="translate(14.626776 8.30218) scale(0.12 -0.12)">
       <use xlink:href="#CMR17-31" transform="scale(0.996264)"/>
       <use xlink:href="#CMR17-2e" transform="translate(45.690477 0) scale(0.996264)"/>
       <use xlink:href="#CMR17-30" transform="translate(70.561536 0) scale(0.996264)"/>
       <use xlink:href="#CMR17-30" transform="translate(116.252013 0) scale(0.996264)"/>
      </g>
     </g>
    </g>
    <g id="text_15">
     <!-- Percentile -->
     <g transform="translate(8.30218 61.131892) rotate(-90) scale(0.12 -0.12)">
      <defs>
       <path id="CMR17-50" d="M 1267 2042 
L 2291 2042 
C 3117 2042 3718 2578 3718 3184 
C 3718 3791 3130 4352 2291 4352 
L 333 4352 
L 333 4186 
C 774 4186 845 4186 845 3899 
L 845 446 
C 845 160 774 160 333 160 
L 333 0 
C 518 0 858 0 1056 0 
C 1254 0 1594 0 1779 0 
L 1779 160 
C 1338 160 1267 160 1267 446 
L 1267 2042 
z
M 1254 2176 
L 1254 3938 
C 1254 4155 1267 4186 1523 4186 
L 2170 4186 
C 2995 4186 3232 3714 3232 3184 
C 3232 2604 2950 2176 2170 2176 
L 1254 2176 
z
" transform="scale(0.015625)"/>
       <path id="CMR17-65" d="M 2438 1472 
C 2464 1498 2464 1511 2464 1576 
C 2464 2238 2118 2816 1389 2816 
C 710 2816 173 2169 173 1383 
C 173 551 781 -64 1459 -64 
C 2176 -64 2458 607 2458 740 
C 2458 784 2419 784 2406 784 
C 2362 784 2355 771 2330 696 
C 2189 265 1837 51 1504 51 
C 1229 51 954 203 781 480 
C 582 803 582 1176 582 1472 
L 2438 1472 
z
M 589 1568 
C 634 2505 1126 2714 1382 2714 
C 1818 2714 2112 2297 2118 1568 
L 589 1568 
z
" transform="scale(0.015625)"/>
       <path id="CMR17-72" d="M 960 1497 
C 960 2112 1222 2688 1702 2688 
C 1747 2688 1792 2682 1837 2662 
C 1837 2662 1696 2617 1696 2452 
C 1696 2298 1818 2234 1914 2234 
C 1990 2234 2131 2279 2131 2458 
C 2131 2663 1926 2790 1709 2790 
C 1222 2790 1011 2317 947 2093 
L 941 2093 
L 941 2790 
L 198 2720 
L 198 2554 
C 576 2554 634 2515 634 2208 
L 634 428 
C 634 184 608 153 198 153 
L 198 -13 
C 352 0 646 0 813 0 
C 998 0 1325 0 1498 -13 
L 1498 153 
C 1037 153 960 153 960 440 
L 960 1497 
z
" transform="scale(0.015625)"/>
       <path id="CMR17-63" d="M 2234 2240 
C 2112 2240 1933 2240 1933 2017 
C 1933 1838 2080 1787 2163 1787 
C 2208 1787 2394 1807 2394 2024 
C 2394 2467 1958 2803 1466 2803 
C 787 2803 211 2178 211 1363 
C 211 516 813 -64 1466 -64 
C 2259 -64 2458 677 2458 748 
C 2458 774 2451 793 2406 793 
C 2362 793 2355 787 2330 703 
C 2163 180 1798 51 1523 51 
C 1114 51 621 427 621 1369 
C 621 2338 1094 2688 1472 2688 
C 1722 2688 2093 2573 2234 2240 
z
" transform="scale(0.015625)"/>
       <path id="CMR17-6e" d="M 2656 1933 
C 2656 2259 2592 2790 1837 2790 
C 1331 2790 1069 2400 973 2144 
L 966 2144 
L 966 2790 
L 211 2720 
L 211 2554 
C 589 2554 646 2515 646 2208 
L 646 428 
C 646 184 621 153 211 153 
L 211 -13 
C 365 0 646 0 813 0 
C 979 0 1267 0 1421 -13 
L 1421 153 
C 1011 153 986 178 986 428 
L 986 1658 
C 986 2247 1344 2688 1792 2688 
C 2266 2688 2317 2266 2317 1958 
L 2317 428 
C 2317 184 2291 153 1882 153 
L 1882 -13 
C 2035 0 2317 0 2483 0 
C 2650 0 2938 0 3091 -13 
L 3091 153 
C 2682 153 2656 178 2656 428 
L 2656 1933 
z
" transform="scale(0.015625)"/>
       <path id="CMR17-74" d="M 966 2560 
L 1862 2560 
L 1862 2725 
L 966 2725 
L 966 3904 
L 851 3904 
C 838 3245 614 2668 70 2668 
L 70 2560 
L 627 2560 
L 627 771 
C 627 650 627 -64 1370 -64 
C 1747 -64 1965 306 1965 777 
L 1965 1140 
L 1850 1140 
L 1850 783 
C 1850 344 1677 51 1408 51 
C 1222 51 966 178 966 758 
L 966 2560 
z
" transform="scale(0.015625)"/>
       <path id="CMR17-69" d="M 992 3909 
C 992 4049 877 4170 730 4170 
C 589 4170 467 4056 467 3909 
C 467 3769 582 3648 730 3648 
C 870 3648 992 3763 992 3909 
z
M 243 2706 
L 243 2541 
C 602 2541 653 2502 653 2197 
L 653 427 
C 653 184 627 153 218 153 
L 218 -13 
C 371 0 646 0 806 0 
C 960 0 1222 0 1370 -13 
L 1370 153 
C 992 153 979 191 979 420 
L 979 2776 
L 243 2706 
z
" transform="scale(0.015625)"/>
       <path id="CMR17-6c" d="M 979 4396 
L 218 4326 
L 218 4160 
C 595 4160 653 4122 653 3817 
L 653 426 
C 653 184 627 153 218 153 
L 218 -13 
C 371 0 653 0 813 0 
C 979 0 1261 0 1414 -13 
L 1414 153 
C 1005 153 979 178 979 426 
L 979 4396 
z
" transform="scale(0.015625)"/>
      </defs>
      <use xlink:href="#CMR17-50" transform="scale(0.996264)"/>
      <use xlink:href="#CMR17-65" transform="translate(59.983847 0) scale(0.996264)"/>
      <use xlink:href="#CMR17-72" transform="translate(100.469507 0) scale(0.996264)"/>
      <use xlink:href="#CMR17-63" transform="translate(135.750275 0) scale(0.996264)"/>
      <use xlink:href="#CMR17-65" transform="translate(176.235935 0) scale(0.996264)"/>
      <use xlink:href="#CMR17-6e" transform="translate(216.721596 0) scale(0.996264)"/>
      <use xlink:href="#CMR17-74" transform="translate(265.014512 0) scale(0.996264)"/>
      <use xlink:href="#CMR17-69" transform="translate(300.295279 0) scale(0.996264)"/>
      <use xlink:href="#CMR17-6c" transform="translate(325.166338 0) scale(0.996264)"/>
      <use xlink:href="#CMR17-65" transform="translate(350.037396 0) scale(0.996264)"/>
     </g>
    </g>
   </g>
   <g id="line2d_19">
    <path d="M 42.433893 67.509366 
L 42.570954 67.489516 
L 44.225058 67.332281 
L 46.449664 67.022513 
L 47.083425 66.816175 
L 47.513351 66.581107 
L 48.127197 66.186192 
L 48.596953 65.619938 
L 48.831246 65.250097 
L 48.962449 65.071445 
L 49.244772 64.711006 
L 49.640726 64.104007 
L 50.306116 62.890531 
L 50.388118 62.732774 
L 50.747757 62.201519 
L 51.419004 61.455046 
L 51.749357 60.989088 
L 52.700584 59.901505 
L 52.982906 59.579722 
L 53.293343 59.250626 
L 53.607295 58.907426 
L 53.93179 58.554301 
L 54.085251 58.364679 
L 55.021249 56.928149 
L 56.457461 53.800693 
L 56.726897 52.959148 
L 56.996334 52.571546 
L 57.22594 52.217899 
L 57.633609 51.488142 
L 58.013162 50.544211 
L 58.153738 50.173847 
L 58.316571 49.834826 
L 58.611779 49.275363 
L 58.738297 49.013654 
L 60.008162 45.969255 
L 60.122965 45.62919 
L 60.227225 45.388375 
L 60.586864 44.517054 
L 60.735639 44.133109 
L 60.972275 43.469171 
L 61.815727 41.198932 
L 62.040648 40.713123 
L 62.409658 39.806804 
L 62.519776 39.559721 
L 63.183994 38.151399 
L 63.3726 37.78208 
L 64.081334 36.291224 
L 64.581548 35.268414 
L 64.694009 35.069912 
L 64.80764 34.720444 
L 65.747153 32.35461 
L 65.86547 31.790968 
L 65.980273 31.274339 
L 70.496258 22.992614 
L 70.72235 22.381959 
L 70.807867 22.224724 
L 71.163992 21.587427 
L 71.302224 21.31527 
L 72.21245 19.556435 
L 72.443228 19.202788 
L 72.835667 18.598923 
L 73.980185 16.783672 
L 74.089131 16.578378 
L 74.364425 16.235701 
L 75.220763 14.904691 
L 75.689348 14.295602 
L 77.188819 13.1072 
L 77.585945 12.808924 
L 78.412997 12.220208 
L 78.62386 12.076555 
L 79.197876 11.712983 
L 79.455597 11.542166 
L 79.65826 11.406871 
L 80.130359 11.075163 
L 80.493513 10.899123 
L 80.880095 10.699576 
L 81.041757 10.608161 
L 85.189903 8.879624 
L 87.092356 8.429337 
L 88.1455 8.224044 
L 90.691087 7.769055 
L 92.00781 7.584657 
L 93.349133 7.398692 
L 94.155099 7.242502 
L 95.572568 7.039821 
L 105.382388 6.057234 
L 108.101351 5.865523 
L 108.407102 5.849852 
L 122.971885 5.368222 
L 137.626871 5.169198 
L 142.836362 5.122706 
L 153.853959 4.967561 
L 162.460688 4.804058 
L 177.901725 4.624884 
L 191.865548 4.53399 
L 253.735127 4.361084 
L 253.735127 4.361084 
" clip-path="url(#pe42014dd0a)" style="fill: none; stroke: #1f77b4; stroke-width: 1.5; stroke-linecap: square"/>
   </g>
   <g id="line2d_20">
    <path d="M 51.008993 67.875217 
L 55.36683 67.755279 
L 56.366087 67.486454 
L 57.719126 66.561417 
L 58.8367 65.222802 
L 58.94916 64.795438 
L 59.136594 64.355667 
L 59.579407 62.388413 
L 59.80667 61.023605 
L 60.152251 58.821991 
L 60.183881 58.678617 
L 60.428716 57.422718 
L 60.810613 55.09703 
L 61.062477 53.270393 
L 61.111679 52.878872 
L 61.368229 50.828903 
L 62.192938 47.514763 
L 62.51509 45.530966 
L 62.614664 45.015372 
L 63.137136 42.602833 
L 63.295283 41.948 
L 63.813069 39.561654 
L 63.863442 39.332808 
L 64.273454 37.479977 
L 64.554605 36.283358 
L 64.677608 35.842208 
L 65.683894 30.573222 
L 66.21808 27.092272 
L 66.432458 26.491205 
L 67.036932 24.80932 
L 67.150564 24.392985 
L 67.253652 24.100723 
L 68.461429 20.975451 
L 68.728523 20.066957 
L 68.898385 19.383175 
L 69.340026 17.830878 
L 69.378684 17.728862 
L 69.49583 17.327691 
L 71.060903 13.915671 
L 71.200307 13.752997 
L 71.522459 13.365612 
L 71.629062 13.207074 
L 71.793066 12.967198 
L 71.954728 12.786602 
L 72.178477 12.526048 
L 72.301481 12.39646 
L 72.4854 12.243436 
L 72.644719 12.08352 
L 72.930556 11.802286 
L 73.062931 11.657534 
L 73.400312 11.376301 
L 73.859525 11.006838 
L 74.178162 10.762827 
L 74.312881 10.688382 
L 74.626832 10.500894 
L 75.103617 10.194846 
L 75.282851 9.952213 
L 76.552715 9.542771 
L 76.714377 9.489006 
L 78.546543 9.016148 
L 79.780092 8.722507 
L 84.266791 7.953252 
L 86.032183 7.727163 
L 86.178616 7.707862 
L 87.797576 7.517616 
L 91.697372 7.055787 
L 93.940721 6.789719 
L 96.535509 6.556736 
L 97.7222 6.432663 
L 99.642226 6.217602 
L 102.032007 6.024599 
L 104.357359 5.861925 
L 109.222439 5.604128 
L 117.141521 5.324273 
L 130.885109 5.049933 
L 131.576272 5.025118 
L 147.700271 4.648762 
L 171.220879 4.43508 
L 232.211861 4.302735 
L 254.471976 4.290328 
L 254.471976 4.290328 
" clip-path="url(#pe42014dd0a)" style="fill: none; stroke-dasharray: 1.5,2.475; stroke-dashoffset: 0; stroke: #ff7f0e; stroke-width: 1.5"/>
   </g>
   <g id="line2d_21">
    <path d="M 42.436236 67.142611 
L 42.552211 66.992005 
L 42.997366 66.574518 
L 44.039967 65.297123 
L 44.496837 64.657612 
L 44.75573 64.218825 
L 45.333261 62.866127 
L 48.293545 53.087012 
L 48.409519 52.511777 
L 49.893761 45.673739 
L 52.56118 34.200619 
L 53.078966 32.56588 
L 54.567894 27.586235 
L 55.170025 25.497046 
L 56.302828 22.151012 
L 56.806557 20.695572 
L 58.897616 17.123879 
L 60.264712 15.686858 
L 61.410401 14.737864 
L 64.51126 13.205242 
L 64.817012 13.061026 
L 66.375056 12.353729 
L 67.032246 12.171924 
L 70.798495 11.080093 
L 71.810638 10.860199 
L 73.250365 10.514882 
L 80.130359 9.156672 
L 88.325906 8.390987 
L 91.055411 8.243388 
L 95.866605 8.046548 
L 97.394191 7.9948 
L 111.637993 7.670659 
L 123.455699 7.433474 
L 124.540473 7.371828 
L 127.746763 7.089285 
L 128.270407 7.037914 
L 130.294693 6.824158 
L 130.42121 6.805364 
L 131.675846 6.650373 
L 133.810249 6.427847 
L 133.926224 6.407674 
L 145.203886 5.312961 
L 157.752584 4.976666 
L 174.341653 4.865654 
L 211.115007 4.70515 
L 214.265068 4.66305 
L 253.40126 4.276261 
L 253.40126 4.276261 
" clip-path="url(#pe42014dd0a)" style="fill: none; stroke-dasharray: 5.55,2.4; stroke-dashoffset: 0; stroke: #2ca02c; stroke-width: 1.5"/>
   </g>
   <g id="line2d_22">
    <path d="M 46.123998 67.876137 
L 49.425177 67.744441 
L 50.314316 67.516383 
L 51.82433 66.805594 
L 52.091423 66.662427 
L 52.979391 66.205393 
L 53.094195 66.107654 
L 55.200483 64.316686 
L 55.526149 63.922976 
L 57.493033 61.047699 
L 57.665238 60.806334 
L 57.780042 60.581029 
L 59.154166 58.795109 
L 59.438831 58.4092 
L 59.539577 58.25089 
L 60.005819 57.5323 
L 60.340857 56.935769 
L 60.497833 56.673296 
L 61.488889 54.626279 
L 61.647037 54.363347 
L 61.963331 53.819128 
L 62.236282 53.328137 
L 62.943845 51.94694 
L 63.031704 51.793219 
L 63.818927 50.495536 
L 64.009875 50.205071 
L 64.668236 49.159766 
L 65.48826 47.669817 
L 65.735438 47.149459 
L 66.223938 46.132145 
L 66.70658 45.613164 
L 66.968987 45.279566 
L 68.004559 43.891944 
L 68.193165 43.633601 
L 68.265795 43.486304 
L 68.639492 42.998525 
L 69.379855 41.989012 
L 69.493487 41.780686 
L 69.905842 41.217194 
L 71.249508 39.317933 
L 71.677092 38.842085 
L 72.350682 37.992259 
L 72.707978 37.571475 
L 72.946956 37.187402 
L 73.058245 37.026338 
L 73.271451 36.723026 
L 73.395626 36.555079 
L 74.065702 35.599254 
L 74.179334 35.345499 
L 74.505 34.863686 
L 74.599889 34.709047 
L 75.443341 33.009395 
L 75.597974 32.830435 
L 75.869753 32.540889 
L 76.030243 32.358718 
L 77.418426 30.557196 
L 77.725349 30.118058 
L 78.026414 29.742243 
L 78.490313 29.076883 
L 78.625031 28.905265 
L 79.140474 28.138953 
L 79.34548 27.838394 
L 80.135045 26.535663 
L 81.257306 25.046173 
L 81.50097 24.647415 
L 81.770406 24.296839 
L 81.989469 24.039872 
L 84.601829 20.798876 
L 84.946238 20.367998 
L 85.595228 19.775138 
L 85.767433 19.6283 
L 86.674145 18.733964 
L 86.91898 18.519671 
L 87.17553 18.259951 
L 87.427394 18.042447 
L 88.044755 17.487674 
L 88.272018 17.280265 
L 88.547312 17.055419 
L 89.05104 16.633718 
L 89.294704 16.391435 
L 89.409508 16.264328 
L 90.302161 15.795363 
L 91.179586 15.247014 
L 91.579055 15.028133 
L 92.051154 14.721149 
L 92.572454 14.397646 
L 93.536567 13.782761 
L 93.765002 13.62491 
L 93.984066 13.419796 
L 94.207815 13.274334 
L 98.290359 11.555867 
L 98.532851 11.44115 
L 98.805802 11.275039 
L 99.008465 11.208044 
L 101.255328 10.447239 
L 101.968749 10.242124 
L 103.183554 9.891089 
L 104.220298 9.603837 
L 104.856402 9.443232 
L 105.109437 9.385873 
L 106.325415 9.155521 
L 106.988462 9.014648 
L 107.999433 8.824217 
L 108.555878 8.72556 
L 110.691452 8.447026 
L 110.912859 8.413988 
L 111.384958 8.347452 
L 121.539188 7.464587 
L 191.887806 5.069747 
L 206.138638 4.855455 
L 206.443218 4.848572 
L 253.343859 4.432836 
L 253.343859 4.432836 
" clip-path="url(#pe42014dd0a)" style="fill: none; stroke-dasharray: 9.6,2.4,1.5,2.4; stroke-dashoffset: 0; stroke: #d62728; stroke-width: 1.5"/>
   </g>
   <g id="line2d_23">
    <path d="M 46.42272 67.875965 
L 50.333059 67.761792 
L 50.897704 67.676005 
L 51.766929 67.506322 
L 56.270027 66.586 
L 56.878016 66.285745 
L 59.671952 65.165463 
L 59.840643 65.023535 
L 60.292827 64.562428 
L 61.050763 63.583443 
L 61.669294 62.794325 
L 62.004332 62.489023 
L 62.232767 62.260046 
L 62.486975 61.997638 
L 62.894643 61.549777 
L 63.114878 61.342878 
L 63.323398 61.156795 
L 63.482717 60.999729 
L 63.916158 60.509605 
L 64.136393 60.266121 
L 64.341399 60.031467 
L 65.598377 58.51568 
L 66.172393 57.542372 
L 67.036932 56.7501 
L 67.150564 56.557709 
L 67.623834 56.003876 
L 69.017874 54.340485 
L 69.281453 54.036444 
L 69.379855 53.914702 
L 69.493487 53.725465 
L 69.74418 53.464949 
L 70.285395 52.801358 
L 70.597004 52.303035 
L 70.9625 51.922668 
L 71.206164 51.665306 
L 71.596261 51.245201 
L 71.722779 51.115889 
L 71.836411 50.912144 
L 72.044931 50.673705 
L 72.498286 50.151412 
L 72.693921 49.920543 
L 73.505743 48.819815 
L 73.613518 48.636886 
L 73.973157 48.125947 
L 74.065702 48.00105 
L 74.179334 47.736119 
L 75.206706 45.866459 
L 75.548773 45.26027 
L 75.722149 45.10005 
L 76.029072 44.814302 
L 76.29968 44.542432 
L 76.96507 43.677619 
L 77.406711 43.224713 
L 77.687862 42.880302 
L 77.978384 42.598969 
L 78.219705 42.339715 
L 78.377853 42.164986 
L 79.84218 40.4259 
L 80.219391 39.875851 
L 80.448997 39.626059 
L 81.353365 38.489376 
L 81.612258 38.110272 
L 84.467111 34.874952 
L 84.74709 34.345089 
L 88.908122 29.70374 
L 89.077984 29.460886 
L 89.199816 29.269757 
L 89.489167 28.708355 
L 92.809089 25.044099 
L 92.922721 24.851708 
L 93.1699 24.592453 
L 93.449879 24.252458 
L 93.958293 23.542189 
L 94.422192 23.003495 
L 95.830289 21.64982 
L 96.315274 21.263147 
L 96.640941 20.947752 
L 97.792488 19.869733 
L 97.969378 19.70762 
L 98.116982 19.576415 
L 98.256386 19.440165 
L 98.641797 19.028259 
L 99.369275 18.406301 
L 99.59771 18.230311 
L 100.541908 17.376222 
L 101.20027 16.896191 
L 101.420504 16.748586 
L 101.670026 16.59152 
L 101.933605 16.375159 
L 102.180783 16.227554 
L 102.294415 16.127259 
L 102.66694 15.886928 
L 102.87546 15.7368 
L 103.122638 15.547563 
L 103.352245 15.326156 
L 103.467048 15.195583 
L 107.605822 13.093161 
L 113.452588 11.111852 
L 114.721281 10.829258 
L 115.102006 10.750409 
L 116.232466 10.517017 
L 116.405843 10.482324 
L 124.688077 9.476215 
L 126.999371 9.32861 
L 127.812365 9.295178 
L 131.468497 9.137481 
L 131.715676 9.12928 
L 134.86105 9.051062 
L 161.270483 8.766576 
L 175.272965 8.603833 
L 183.001098 8.370441 
L 183.481397 8.347732 
L 186.563513 8.214005 
L 191.85852 7.899241 
L 192.87652 7.827331 
L 195.385791 7.657649 
L 200.05758 7.318284 
L 200.330531 7.297468 
L 204.964833 6.978919 
L 205.366645 6.952426 
L 207.103922 6.824376 
L 209.545248 6.686864 
L 210.733111 6.614954 
L 212.692966 6.475549 
L 212.957716 6.455364 
L 215.566562 6.310913 
L 219.104376 6.120415 
L 221.03143 6.022642 
L 224.934741 5.846021 
L 228.201948 5.705986 
L 246.043309 5.335082 
L 253.346202 5.287142 
L 253.346202 5.287142 
" clip-path="url(#pe42014dd0a)" style="fill: none; stroke: #9467bd; stroke-width: 1.5; stroke-linecap: square"/>
   </g>
   <g id="patch_3">
    <path d="M 42.437408 71.062871 
L 42.437408 0.964815 
" style="fill: none; stroke: #000000; stroke-width: 0.8; stroke-linejoin: miter; stroke-linecap: square"/>
   </g>
   <g id="patch_4">
    <path d="M 253.300515 71.062871 
L 253.300515 0.964815 
" style="fill: none; stroke: #000000; stroke-width: 0.8; stroke-linejoin: miter; stroke-linecap: square"/>
   </g>
   <g id="patch_5">
    <path d="M 42.437408 71.062871 
L 253.300515 71.062871 
" style="fill: none; stroke: #000000; stroke-width: 0.8; stroke-linejoin: miter; stroke-linecap: square"/>
   </g>
   <g id="patch_6">
    <path d="M 42.437408 0.964815 
L 253.300515 0.964815 
" style="fill: none; stroke: #000000; stroke-width: 0.8; stroke-linejoin: miter; stroke-linecap: square"/>
   </g>
   <g id="legend_1">
    <g id="patch_7">
     <path d="M 149.894727 66.064871 
L 248.302515 66.064871 
L 248.302515 30.067742 
L 149.894727 30.067742 
z
" style="fill: #ffffff; opacity: 0.8; stroke: #000000; stroke-linejoin: miter"/>
    </g>
    <g id="line2d_24">
     <path d="M 153.893127 37.564742 
L 158.891127 37.564742 
L 163.889127 37.564742 
" style="fill: none; stroke: #1f77b4; stroke-width: 1.5; stroke-linecap: square"/>
    </g>
    <g id="text_16">
     <!-- Berlin -->
     <g transform="translate(166.887927 41.063342) scale(0.09996 -0.09996)">
      <defs>
       <path id="CMR17-42" d="M 333 4352 
L 333 4186 
C 774 4186 845 4186 845 3900 
L 845 452 
C 845 166 774 166 333 166 
L 333 0 
L 2534 0 
C 3354 0 3885 583 3885 1164 
C 3885 1741 3360 2233 2675 2233 
C 3290 2356 3718 2771 3718 3264 
C 3718 3802 3194 4352 2368 4352 
L 333 4352 
z
M 1248 2304 
L 1248 3937 
C 1248 4155 1261 4186 1517 4186 
L 2336 4186 
C 2970 4186 3251 3674 3251 3277 
C 3251 2791 2861 2304 2170 2304 
L 1248 2304 
z
M 1517 166 
C 1261 166 1248 197 1248 413 
L 1248 2202 
L 2432 2202 
C 3091 2202 3411 1625 3411 1162 
C 3411 699 3046 166 2349 166 
L 1517 166 
z
" transform="scale(0.015625)"/>
      </defs>
      <use xlink:href="#CMR17-42" transform="scale(0.996264)"/>
      <use xlink:href="#CMR17-65" transform="translate(65.188754 0) scale(0.996264)"/>
      <use xlink:href="#CMR17-72" transform="translate(105.674415 0) scale(0.996264)"/>
      <use xlink:href="#CMR17-6c" transform="translate(140.955183 0) scale(0.996264)"/>
      <use xlink:href="#CMR17-69" transform="translate(165.826241 0) scale(0.996264)"/>
      <use xlink:href="#CMR17-6e" transform="translate(190.6973 0) scale(0.996264)"/>
     </g>
    </g>
    <g id="line2d_25">
     <path d="M 153.893127 47.098105 
L 158.891127 47.098105 
L 163.889127 47.098105 
" style="fill: none; stroke-dasharray: 1.5,2.475; stroke-dashoffset: 0; stroke: #ff7f0e; stroke-width: 1.5"/>
    </g>
    <g id="text_17">
     <!-- Dublin -->
     <g transform="translate(166.887927 50.596705) scale(0.09996 -0.09996)">
      <defs>
       <path id="CMR17-44" d="M 333 4352 
L 333 4186 
C 774 4186 845 4186 845 3900 
L 845 452 
C 845 166 774 166 333 166 
L 333 0 
L 2368 0 
C 3398 0 4224 943 4224 2141 
C 4224 3346 3411 4352 2368 4352 
L 333 4352 
z
M 1523 166 
C 1267 166 1254 197 1254 414 
L 1254 3938 
C 1254 4155 1267 4186 1523 4186 
L 2240 4186 
C 2771 4186 3750 3874 3750 2141 
C 3750 1242 3488 879 3366 707 
C 3213 510 2848 166 2240 166 
L 1523 166 
z
" transform="scale(0.015625)"/>
       <path id="CMR17-75" d="M 1882 2693 
L 1882 2528 
C 2259 2528 2317 2489 2317 2186 
L 2317 1032 
C 2317 500 2029 38 1555 38 
C 1030 38 986 348 986 678 
L 986 2763 
L 211 2693 
L 211 2528 
C 467 2528 640 2528 646 2274 
L 646 1058 
C 646 633 646 361 813 183 
C 896 101 1056 -64 1517 -64 
C 2061 -64 2272 377 2323 506 
L 2330 506 
L 2330 -63 
L 3091 -63 
L 3091 128 
C 2714 128 2656 166 2656 473 
L 2656 2763 
L 1882 2693 
z
" transform="scale(0.015625)"/>
       <path id="CMR17-62" d="M 960 4396 
L 198 4326 
L 198 4160 
C 576 4160 634 4122 634 3817 
L 634 -13 
L 749 -13 
L 934 441 
C 1120 141 1395 -64 1766 -64 
C 2406 -64 3053 500 3053 1370 
C 3053 2188 2477 2790 1830 2790 
C 1434 2790 1152 2579 960 2330 
L 960 4396 
z
M 973 2004 
C 973 2118 973 2138 1062 2272 
C 1312 2657 1670 2688 1792 2688 
C 1984 2688 2643 2585 2643 1376 
C 2643 108 1888 38 1734 38 
C 1536 38 1248 114 1043 486 
C 973 608 973 621 973 735 
L 973 2004 
z
" transform="scale(0.015625)"/>
      </defs>
      <use xlink:href="#CMR17-44" transform="scale(0.996264)"/>
      <use xlink:href="#CMR17-75" transform="translate(70.393556 0) scale(0.996264)"/>
      <use xlink:href="#CMR17-62" transform="translate(121.288926 0) scale(0.996264)"/>
      <use xlink:href="#CMR17-6c" transform="translate(172.184295 0) scale(0.996264)"/>
      <use xlink:href="#CMR17-69" transform="translate(197.055354 0) scale(0.996264)"/>
      <use xlink:href="#CMR17-6e" transform="translate(221.926412 0) scale(0.996264)"/>
     </g>
    </g>
    <g id="line2d_26">
     <path d="M 153.893127 56.631468 
L 158.891127 56.631468 
L 163.889127 56.631468 
" style="fill: none; stroke-dasharray: 5.55,2.4; stroke-dashoffset: 0; stroke: #2ca02c; stroke-width: 1.5"/>
    </g>
    <g id="text_18">
     <!-- London -->
     <g transform="translate(166.887927 60.130068) scale(0.09996 -0.09996)">
      <defs>
       <path id="CMR17-4c" d="M 3469 1615 
L 3354 1615 
C 3302 983 3219 166 2125 166 
L 1530 166 
C 1274 166 1261 197 1261 414 
L 1261 3898 
C 1261 4129 1274 4192 1760 4192 
L 1901 4192 
L 1901 4352 
C 1638 4352 1331 4352 1069 4352 
C 870 4352 512 4352 326 4352 
L 326 4192 
C 768 4192 838 4192 838 3905 
L 838 452 
C 838 166 768 166 326 166 
L 326 0 
L 3315 0 
L 3469 1615 
z
" transform="scale(0.015625)"/>
       <path id="CMR17-6f" d="M 2758 1356 
C 2758 2176 2163 2816 1466 2816 
C 768 2816 173 2176 173 1356 
C 173 551 768 -64 1466 -64 
C 2163 -64 2758 551 2758 1356 
z
M 1466 51 
C 1165 51 909 230 762 480 
C 602 767 582 1126 582 1408 
C 582 1677 595 2010 762 2298 
C 890 2509 1139 2714 1466 2714 
C 1754 2714 1997 2554 2150 2330 
C 2349 2029 2349 1607 2349 1408 
C 2349 1158 2336 775 2163 467 
C 1984 173 1709 51 1466 51 
z
" transform="scale(0.015625)"/>
       <path id="CMR17-64" d="M 1869 4326 
L 1869 4160 
C 2246 4160 2304 4122 2304 3820 
L 2304 2345 
C 2278 2377 2016 2790 1498 2790 
C 845 2790 211 2208 211 1364 
C 211 525 806 -64 1434 -64 
C 1978 -64 2259 337 2291 380 
L 2291 -63 
L 3066 -63 
L 3066 128 
C 2688 128 2630 166 2630 473 
L 2630 4396 
L 1869 4326 
z
M 2291 755 
C 2291 563 2176 390 2029 262 
C 1811 70 1594 38 1472 38 
C 1286 38 621 134 621 1356 
C 621 2612 1363 2688 1530 2688 
C 1824 2688 2061 2522 2208 2291 
C 2291 2157 2291 2138 2291 2023 
L 2291 755 
z
" transform="scale(0.015625)"/>
      </defs>
      <use xlink:href="#CMR17-4c" transform="scale(0.996264)"/>
      <use xlink:href="#CMR17-6f" transform="translate(57.381408 0) scale(0.996264)"/>
      <use xlink:href="#CMR17-6e" transform="translate(103.071885 0) scale(0.996264)"/>
      <use xlink:href="#CMR17-64" transform="translate(153.967255 0) scale(0.996264)"/>
      <use xlink:href="#CMR17-6f" transform="translate(204.862625 0) scale(0.996264)"/>
      <use xlink:href="#CMR17-6e" transform="translate(250.553102 0) scale(0.996264)"/>
     </g>
    </g>
    <g id="line2d_27">
     <path d="M 205.576057 37.564742 
L 210.574057 37.564742 
L 215.572057 37.564742 
" style="fill: none; stroke-dasharray: 9.6,2.4,1.5,2.4; stroke-dashoffset: 0; stroke: #d62728; stroke-width: 1.5"/>
    </g>
    <g id="text_19">
     <!-- Paris -->
     <g transform="translate(218.570857 41.063342) scale(0.09996 -0.09996)">
      <defs>
       <path id="CMR17-61" d="M 2304 1653 
C 2304 2072 2304 2294 2035 2543 
C 1798 2752 1523 2816 1306 2816 
C 800 2816 435 2407 435 1971 
C 435 1728 627 1728 666 1728 
C 749 1728 896 1778 896 1954 
C 896 2112 774 2181 666 2181 
C 640 2181 608 2174 589 2168 
C 723 2592 1069 2714 1293 2714 
C 1613 2714 1965 2429 1965 1885 
L 1965 1600 
C 1587 1600 1133 1549 774 1357 
C 371 1133 256 813 256 570 
C 256 77 832 -64 1171 -64 
C 1523 -64 1850 139 1990 511 
C 2003 233 2182 -18 2464 -18 
C 2598 -18 2938 70 2938 567 
L 2938 920 
L 2822 920 
L 2822 562 
C 2822 178 2650 128 2566 128 
C 2304 128 2304 458 2304 738 
L 2304 1653 
z
M 1965 870 
C 1965 317 1568 38 1216 38 
C 896 38 646 275 646 570 
C 646 761 730 1100 1101 1305 
C 1408 1478 1760 1504 1965 1504 
L 1965 870 
z
" transform="scale(0.015625)"/>
      </defs>
      <use xlink:href="#CMR17-50" transform="scale(0.996264)"/>
      <use xlink:href="#CMR17-61" transform="translate(59.983847 0) scale(0.996264)"/>
      <use xlink:href="#CMR17-72" transform="translate(105.674324 0) scale(0.996264)"/>
      <use xlink:href="#CMR17-69" transform="translate(140.955092 0) scale(0.996264)"/>
      <use xlink:href="#CMR17-73" transform="translate(165.82615 0) scale(0.996264)"/>
     </g>
    </g>
    <g id="line2d_28">
     <path d="M 205.576057 47.098105 
L 210.574057 47.098105 
L 215.572057 47.098105 
" style="fill: none; stroke: #9467bd; stroke-width: 1.5; stroke-linecap: square"/>
    </g>
    <g id="text_20">
     <!-- Rome -->
     <g transform="translate(218.570857 50.596705) scale(0.09996 -0.09996)">
      <use xlink:href="#CMR17-52" transform="scale(0.996264)"/>
      <use xlink:href="#CMR17-6f" transform="translate(67.791102 0) scale(0.996264)"/>
      <use xlink:href="#CMR17-6d" transform="translate(113.481579 0) scale(0.996264)"/>
      <use xlink:href="#CMR17-65" transform="translate(190.401169 0) scale(0.996264)"/>
     </g>
    </g>
   </g>
  </g>
 </g>
 <defs>
  <clipPath id="pe42014dd0a">
   <rect x="42.437408" y="0.964815" width="210.863107" height="70.098056"/>
  </clipPath>
 </defs>
</svg>
