<?xml version="1.0" encoding="utf-8" standalone="no"?>
<!DOCTYPE svg PUBLIC "-//W3C//DTD SVG 1.1//EN"
  "http://www.w3.org/Graphics/SVG/1.1/DTD/svg11.dtd">
<svg xmlns:xlink="http://www.w3.org/1999/xlink" width="240.48pt" height="104.644815pt" viewBox="0 0 240.48 104.644815" xmlns="http://www.w3.org/2000/svg" version="1.1">
 <metadata>
  <rdf:RDF xmlns:dc="http://purl.org/dc/elements/1.1/" xmlns:cc="http://creativecommons.org/ns#" xmlns:rdf="http://www.w3.org/1999/02/22-rdf-syntax-ns#">
   <cc:Work>
    <dc:type rdf:resource="http://purl.org/dc/dcmitype/StillImage"/>
    <dc:date>2023-10-12T13:59:48.163026</dc:date>
    <dc:format>image/svg+xml</dc:format>
    <dc:creator>
     <cc:Agent>
      <dc:title>Matplotlib v3.7.0, https://matplotlib.org/</dc:title>
     </cc:Agent>
    </dc:creator>
   </cc:Work>
  </rdf:RDF>
 </metadata>
 <defs>
  <style type="text/css">*{stroke-linejoin: round; stroke-linecap: butt}</style>
 </defs>
 <g id="figure_1">
  <g id="patch_1">
   <path d="M 0 104.644815 
L 240.48 104.644815 
L 240.48 0 
L 0 0 
z
" style="fill: #ffffff"/>
  </g>
  <g id="axes_1">
   <g id="patch_2">
    <path d="M 42.437408 71.062871 
L 231.700515 71.062871 
L 231.700515 0.964815 
L 42.437408 0.964815 
z
" style="fill: #ffffff"/>
   </g>
   <g id="matplotlib.axis_1">
    <g id="xtick_1">
     <g id="line2d_1">
      <defs>
       <path id="m8f94603134" d="M 0 0 
L 0 3.5 
" style="stroke: #000000; stroke-width: 0.8"/>
      </defs>
      <g>
       <use xlink:href="#m8f94603134" x="73.981259" y="71.062871" style="stroke: #000000; stroke-width: 0.8"/>
      </g>
     </g>
     <g id="text_1">
      <!-- 50 -->
      <g transform="translate(68.128268 86.365051) scale(0.12 -0.12)">
       <defs>
        <path id="CMR17-35" d="M 730 3692 
C 794 3666 1056 3584 1325 3584 
C 1920 3584 2246 3911 2432 4100 
C 2432 4157 2432 4192 2394 4192 
C 2387 4192 2374 4192 2323 4163 
C 2099 4058 1837 3973 1517 3973 
C 1325 3973 1037 3999 723 4139 
C 653 4171 640 4171 634 4171 
C 602 4171 595 4164 595 4037 
L 595 2203 
C 595 2089 595 2057 659 2057 
C 691 2057 704 2070 736 2114 
C 941 2401 1222 2522 1542 2522 
C 1766 2522 2246 2382 2246 1289 
C 2246 1085 2246 715 2054 421 
C 1894 159 1645 25 1370 25 
C 947 25 518 320 403 814 
C 429 807 480 795 506 795 
C 589 795 749 840 749 1038 
C 749 1210 627 1280 506 1280 
C 358 1280 262 1190 262 1011 
C 262 454 704 -128 1382 -128 
C 2042 -128 2669 440 2669 1264 
C 2669 2030 2170 2624 1549 2624 
C 1222 2624 947 2503 730 2274 
L 730 3692 
z
" transform="scale(0.015625)"/>
        <path id="CMR17-30" d="M 2688 2025 
C 2688 2416 2682 3080 2413 3591 
C 2176 4039 1798 4198 1466 4198 
C 1158 4198 768 4058 525 3597 
C 269 3118 243 2524 243 2025 
C 243 1661 250 1106 448 619 
C 723 -39 1216 -128 1466 -128 
C 1760 -128 2208 -7 2470 600 
C 2662 1042 2688 1559 2688 2025 
z
M 1466 -26 
C 1056 -26 813 325 723 812 
C 653 1188 653 1738 653 2096 
C 653 2588 653 2997 736 3387 
C 858 3929 1216 4096 1466 4096 
C 1728 4096 2067 3923 2189 3400 
C 2272 3036 2278 2607 2278 2096 
C 2278 1680 2278 1169 2202 792 
C 2067 95 1690 -26 1466 -26 
z
" transform="scale(0.015625)"/>
       </defs>
       <use xlink:href="#CMR17-35" transform="scale(0.996264)"/>
       <use xlink:href="#CMR17-30" transform="translate(45.690477 0) scale(0.996264)"/>
      </g>
     </g>
    </g>
    <g id="xtick_2">
     <g id="line2d_2">
      <g>
       <use xlink:href="#m8f94603134" x="113.411073" y="71.062871" style="stroke: #000000; stroke-width: 0.8"/>
      </g>
     </g>
     <g id="text_2">
      <!-- 100 -->
      <g transform="translate(104.631587 86.365051) scale(0.12 -0.12)">
       <defs>
        <path id="CMR17-31" d="M 1702 4058 
C 1702 4192 1696 4192 1606 4192 
C 1357 3916 979 3827 621 3827 
C 602 3827 570 3827 563 3808 
C 557 3795 557 3782 557 3648 
C 755 3648 1088 3686 1344 3839 
L 1344 461 
C 1344 236 1331 160 781 160 
L 589 160 
L 589 0 
C 896 0 1216 0 1523 0 
C 1830 0 2150 0 2458 0 
L 2458 160 
L 2266 160 
C 1715 160 1702 230 1702 458 
L 1702 4058 
z
" transform="scale(0.015625)"/>
       </defs>
       <use xlink:href="#CMR17-31" transform="scale(0.996264)"/>
       <use xlink:href="#CMR17-30" transform="translate(45.690477 0) scale(0.996264)"/>
       <use xlink:href="#CMR17-30" transform="translate(91.380954 0) scale(0.996264)"/>
      </g>
     </g>
    </g>
    <g id="xtick_3">
     <g id="line2d_3">
      <g>
       <use xlink:href="#m8f94603134" x="152.840887" y="71.062871" style="stroke: #000000; stroke-width: 0.8"/>
      </g>
     </g>
     <g id="text_3">
      <!-- 150 -->
      <g transform="translate(144.061401 86.365051) scale(0.12 -0.12)">
       <use xlink:href="#CMR17-31" transform="scale(0.996264)"/>
       <use xlink:href="#CMR17-35" transform="translate(45.690477 0) scale(0.996264)"/>
       <use xlink:href="#CMR17-30" transform="translate(91.380954 0) scale(0.996264)"/>
      </g>
     </g>
    </g>
    <g id="xtick_4">
     <g id="line2d_4">
      <g>
       <use xlink:href="#m8f94603134" x="192.270701" y="71.062871" style="stroke: #000000; stroke-width: 0.8"/>
      </g>
     </g>
     <g id="text_4">
      <!-- 200 -->
      <g transform="translate(183.491215 86.365051) scale(0.12 -0.12)">
       <defs>
        <path id="CMR17-32" d="M 2669 989 
L 2554 989 
C 2490 536 2438 459 2413 420 
C 2381 369 1920 369 1830 369 
L 602 369 
C 832 619 1280 1072 1824 1597 
C 2214 1967 2669 2402 2669 3035 
C 2669 3790 2067 4224 1395 4224 
C 691 4224 262 3604 262 3030 
C 262 2780 448 2748 525 2748 
C 589 2748 781 2787 781 3010 
C 781 3207 614 3264 525 3264 
C 486 3264 448 3258 422 3245 
C 544 3790 915 4058 1306 4058 
C 1862 4058 2227 3617 2227 3035 
C 2227 2479 1901 2000 1536 1584 
L 262 146 
L 262 0 
L 2515 0 
L 2669 989 
z
" transform="scale(0.015625)"/>
       </defs>
       <use xlink:href="#CMR17-32" transform="scale(0.996264)"/>
       <use xlink:href="#CMR17-30" transform="translate(45.690477 0) scale(0.996264)"/>
       <use xlink:href="#CMR17-30" transform="translate(91.380954 0) scale(0.996264)"/>
      </g>
     </g>
    </g>
    <g id="xtick_5">
     <g id="line2d_5">
      <g>
       <use xlink:href="#m8f94603134" x="231.700515" y="71.062871" style="stroke: #000000; stroke-width: 0.8"/>
      </g>
     </g>
     <g id="text_5">
      <!-- 250 -->
      <g transform="translate(222.921029 86.365051) scale(0.12 -0.12)">
       <use xlink:href="#CMR17-32" transform="scale(0.996264)"/>
       <use xlink:href="#CMR17-35" transform="translate(45.690477 0) scale(0.996264)"/>
       <use xlink:href="#CMR17-30" transform="translate(91.380954 0) scale(0.996264)"/>
      </g>
     </g>
    </g>
    <g id="text_6">
     <!-- RTT [ms] -->
     <g transform="translate(112.406144 101.656023) scale(0.12 -0.12)">
      <defs>
       <path id="CMR17-52" d="M 2509 2146 
C 3117 2268 3629 2676 3629 3186 
C 3629 3785 2950 4326 2054 4326 
L 333 4326 
L 333 4160 
C 774 4160 845 4160 845 3873 
L 845 415 
C 845 128 774 128 333 128 
L 333 -26 
C 518 -26 851 -26 1050 -26 
C 1248 -26 1581 -26 1766 -26 
L 1766 128 
C 1325 128 1254 128 1254 417 
L 1254 2112 
L 2003 2112 
C 2368 2112 2573 1964 2662 1881 
C 2918 1632 2918 1459 2918 1024 
C 2918 595 2918 377 3110 160 
C 3354 -102 3680 -128 3821 -128 
C 4294 -128 4365 396 4365 503 
C 4365 540 4365 585 4307 585 
C 4256 585 4250 547 4250 522 
C 4218 112 4032 -26 3834 -26 
C 3482 -26 3443 375 3405 764 
C 3386 898 3373 993 3360 1133 
C 3322 1452 3270 1917 2509 2146 
z
M 1984 2214 
L 1254 2214 
L 1254 3913 
C 1254 4129 1267 4160 1523 4160 
L 1990 4160 
C 2522 4160 3142 3977 3142 3190 
C 3142 2372 2464 2214 1984 2214 
z
" transform="scale(0.015625)"/>
       <path id="CMR17-54" d="M 3981 4326 
L 288 4326 
L 179 2918 
L 294 2918 
C 378 3976 467 4160 1453 4160 
C 1568 4160 1754 4160 1805 4154 
C 1926 4135 1926 4058 1926 3912 
L 1926 459 
C 1926 230 1907 160 1376 160 
L 1197 160 
L 1197 0 
C 1504 0 1824 0 2138 0 
C 2451 0 2771 0 3078 0 
L 3078 160 
L 2899 160 
C 2368 160 2349 230 2349 459 
L 2349 3912 
C 2349 4052 2349 4129 2464 4154 
C 2515 4160 2701 4160 2816 4160 
C 3795 4160 3891 3976 3974 2918 
L 4090 2918 
L 3981 4326 
z
" transform="scale(0.015625)"/>
       <path id="CMR17-5b" d="M 1504 -1600 
L 1504 -1377 
L 902 -1377 
L 902 4544 
L 1504 4544 
L 1504 4767 
L 678 4767 
L 678 -1600 
L 1504 -1600 
z
" transform="scale(0.015625)"/>
       <path id="CMR17-6d" d="M 4326 1933 
C 4326 2252 4269 2790 3507 2790 
C 3072 2790 2771 2496 2656 2151 
L 2650 2151 
C 2573 2676 2195 2790 1837 2790 
C 1331 2790 1069 2400 973 2144 
L 966 2144 
L 966 2790 
L 211 2720 
L 211 2554 
C 589 2554 646 2515 646 2208 
L 646 428 
C 646 184 621 153 211 153 
L 211 -13 
C 365 0 646 0 813 0 
C 979 0 1267 0 1421 -13 
L 1421 153 
C 1011 153 986 178 986 428 
L 986 1658 
C 986 2247 1344 2688 1792 2688 
C 2266 2688 2317 2266 2317 1958 
L 2317 428 
C 2317 184 2291 153 1882 153 
L 1882 -13 
C 2035 0 2317 0 2483 0 
C 2650 0 2938 0 3091 -13 
L 3091 153 
C 2682 153 2656 178 2656 428 
L 2656 1658 
C 2656 2247 3014 2688 3462 2688 
C 3936 2688 3987 2266 3987 1958 
L 3987 428 
C 3987 184 3962 153 3552 153 
L 3552 -13 
C 3706 0 3987 0 4154 0 
C 4320 0 4608 0 4762 -13 
L 4762 153 
C 4352 153 4326 178 4326 428 
L 4326 1933 
z
" transform="scale(0.015625)"/>
       <path id="CMR17-73" d="M 1978 2697 
C 1978 2813 1971 2819 1933 2819 
C 1907 2819 1901 2813 1824 2717 
C 1805 2691 1747 2626 1728 2601 
C 1523 2819 1235 2819 1126 2819 
C 416 2819 160 2447 160 2076 
C 160 1498 813 1365 998 1325 
C 1402 1243 1542 1217 1677 1101 
C 1760 1025 1901 884 1901 654 
C 1901 384 1747 38 1158 38 
C 602 38 403 460 288 1021 
C 269 1110 269 1117 218 1117 
C 166 1117 160 1110 160 983 
L 160 63 
C 160 -51 166 -58 205 -58 
C 237 -58 243 -51 275 0 
C 314 57 410 211 448 276 
C 576 103 800 -64 1158 -64 
C 1792 -64 2131 283 2131 784 
C 2131 1112 1958 1285 1875 1362 
C 1683 1561 1459 1606 1190 1657 
C 838 1735 390 1825 390 2217 
C 390 2383 480 2737 1126 2737 
C 1811 2737 1850 2094 1862 1888 
C 1869 1856 1901 1849 1920 1849 
C 1978 1849 1978 1869 1978 1978 
L 1978 2697 
z
" transform="scale(0.015625)"/>
       <path id="CMR17-5d" d="M 915 4767 
L 90 4767 
L 90 4544 
L 691 4544 
L 691 -1377 
L 90 -1377 
L 90 -1600 
L 915 -1600 
L 915 4767 
z
" transform="scale(0.015625)"/>
      </defs>
      <use xlink:href="#CMR17-52" transform="scale(0.996264)"/>
      <use xlink:href="#CMR17-54" transform="translate(59.983847 0) scale(0.996264)"/>
      <use xlink:href="#CMR17-54" transform="translate(126.493727 0) scale(0.996264)"/>
      <use xlink:href="#CMR17-5b" transform="translate(223.079574 0) scale(0.996264)"/>
      <use xlink:href="#CMR17-6d" transform="translate(247.950633 0) scale(0.996264)"/>
      <use xlink:href="#CMR17-73" transform="translate(324.870222 0) scale(0.996264)"/>
      <use xlink:href="#CMR17-5d" transform="translate(360.67156 0) scale(0.996264)"/>
     </g>
    </g>
   </g>
   <g id="matplotlib.axis_2">
    <g id="ytick_1">
     <g id="line2d_6">
      <path d="M 42.437408 67.876596 
L 231.700515 67.876596 
" clip-path="url(#p6aea4637d5)" style="fill: none; stroke: #b0b0b0; stroke-opacity: 0.7; stroke-width: 0.5; stroke-linecap: square"/>
     </g>
     <g id="line2d_7">
      <defs>
       <path id="m11df0ab8aa" d="M 0 0 
L -3.5 0 
" style="stroke: #000000; stroke-width: 0.8"/>
      </defs>
      <g>
       <use xlink:href="#m11df0ab8aa" x="42.437408" y="67.876596" style="stroke: #000000; stroke-width: 0.8"/>
      </g>
     </g>
     <g id="text_7">
      <!-- 0.00 -->
      <g transform="translate(14.626776 72.027686) scale(0.12 -0.12)">
       <defs>
        <path id="CMR17-2e" d="M 1062 261 
C 1062 420 934 522 800 522 
C 672 522 538 420 538 261 
C 538 102 666 0 800 0 
C 928 0 1062 102 1062 261 
z
" transform="scale(0.015625)"/>
       </defs>
       <use xlink:href="#CMR17-30" transform="scale(0.996264)"/>
       <use xlink:href="#CMR17-2e" transform="translate(45.690477 0) scale(0.996264)"/>
       <use xlink:href="#CMR17-30" transform="translate(70.561536 0) scale(0.996264)"/>
       <use xlink:href="#CMR17-30" transform="translate(116.252013 0) scale(0.996264)"/>
      </g>
     </g>
    </g>
    <g id="ytick_2">
     <g id="line2d_8">
      <path d="M 42.437408 51.945219 
L 231.700515 51.945219 
" clip-path="url(#p6aea4637d5)" style="fill: none; stroke: #b0b0b0; stroke-opacity: 0.7; stroke-width: 0.5; stroke-linecap: square"/>
     </g>
     <g id="line2d_9">
      <g>
       <use xlink:href="#m11df0ab8aa" x="42.437408" y="51.945219" style="stroke: #000000; stroke-width: 0.8"/>
      </g>
     </g>
     <g id="text_8">
      <!-- 0.25 -->
      <g transform="translate(14.626776 56.096309) scale(0.12 -0.12)">
       <use xlink:href="#CMR17-30" transform="scale(0.996264)"/>
       <use xlink:href="#CMR17-2e" transform="translate(45.690477 0) scale(0.996264)"/>
       <use xlink:href="#CMR17-32" transform="translate(70.561536 0) scale(0.996264)"/>
       <use xlink:href="#CMR17-35" transform="translate(116.252013 0) scale(0.996264)"/>
      </g>
     </g>
    </g>
    <g id="ytick_3">
     <g id="line2d_10">
      <path d="M 42.437408 36.013843 
L 231.700515 36.013843 
" clip-path="url(#p6aea4637d5)" style="fill: none; stroke: #b0b0b0; stroke-opacity: 0.7; stroke-width: 0.5; stroke-linecap: square"/>
     </g>
     <g id="line2d_11">
      <g>
       <use xlink:href="#m11df0ab8aa" x="42.437408" y="36.013843" style="stroke: #000000; stroke-width: 0.8"/>
      </g>
     </g>
     <g id="text_9">
      <!-- 0.50 -->
      <g transform="translate(14.626776 40.164933) scale(0.12 -0.12)">
       <use xlink:href="#CMR17-30" transform="scale(0.996264)"/>
       <use xlink:href="#CMR17-2e" transform="translate(45.690477 0) scale(0.996264)"/>
       <use xlink:href="#CMR17-35" transform="translate(70.561536 0) scale(0.996264)"/>
       <use xlink:href="#CMR17-30" transform="translate(116.252013 0) scale(0.996264)"/>
      </g>
     </g>
    </g>
    <g id="ytick_4">
     <g id="line2d_12">
      <path d="M 42.437408 20.082466 
L 231.700515 20.082466 
" clip-path="url(#p6aea4637d5)" style="fill: none; stroke: #b0b0b0; stroke-opacity: 0.7; stroke-width: 0.5; stroke-linecap: square"/>
     </g>
     <g id="line2d_13">
      <g>
       <use xlink:href="#m11df0ab8aa" x="42.437408" y="20.082466" style="stroke: #000000; stroke-width: 0.8"/>
      </g>
     </g>
     <g id="text_10">
      <!-- 0.75 -->
      <g transform="translate(14.626776 24.233556) scale(0.12 -0.12)">
       <defs>
        <path id="CMR17-37" d="M 2886 3941 
L 2886 4081 
L 1382 4081 
C 634 4081 621 4165 595 4288 
L 480 4288 
L 294 3094 
L 410 3094 
C 429 3215 474 3540 550 3661 
C 589 3712 1062 3712 1171 3712 
L 2579 3712 
L 1869 2661 
C 1395 1954 1069 999 1069 165 
C 1069 89 1069 -128 1299 -128 
C 1530 -128 1530 89 1530 171 
L 1530 465 
C 1530 1508 1709 2196 2003 2636 
L 2886 3941 
z
" transform="scale(0.015625)"/>
       </defs>
       <use xlink:href="#CMR17-30" transform="scale(0.996264)"/>
       <use xlink:href="#CMR17-2e" transform="translate(45.690477 0) scale(0.996264)"/>
       <use xlink:href="#CMR17-37" transform="translate(70.561536 0) scale(0.996264)"/>
       <use xlink:href="#CMR17-35" transform="translate(116.252013 0) scale(0.996264)"/>
      </g>
     </g>
    </g>
    <g id="ytick_5">
     <g id="line2d_14">
      <path d="M 42.437408 4.15109 
L 231.700515 4.15109 
" clip-path="url(#p6aea4637d5)" style="fill: none; stroke: #b0b0b0; stroke-opacity: 0.7; stroke-width: 0.5; stroke-linecap: square"/>
     </g>
     <g id="line2d_15">
      <g>
       <use xlink:href="#m11df0ab8aa" x="42.437408" y="4.15109" style="stroke: #000000; stroke-width: 0.8"/>
      </g>
     </g>
     <g id="text_11">
      <!-- 1.00 -->
      <g transform="translate(14.626776 8.30218) scale(0.12 -0.12)">
       <use xlink:href="#CMR17-31" transform="scale(0.996264)"/>
       <use xlink:href="#CMR17-2e" transform="translate(45.690477 0) scale(0.996264)"/>
       <use xlink:href="#CMR17-30" transform="translate(70.561536 0) scale(0.996264)"/>
       <use xlink:href="#CMR17-30" transform="translate(116.252013 0) scale(0.996264)"/>
      </g>
     </g>
    </g>
    <g id="text_12">
     <!-- Percentile -->
     <g transform="translate(8.30218 61.131892) rotate(-90) scale(0.12 -0.12)">
      <defs>
       <path id="CMR17-50" d="M 1267 2042 
L 2291 2042 
C 3117 2042 3718 2578 3718 3184 
C 3718 3791 3130 4352 2291 4352 
L 333 4352 
L 333 4186 
C 774 4186 845 4186 845 3899 
L 845 446 
C 845 160 774 160 333 160 
L 333 0 
C 518 0 858 0 1056 0 
C 1254 0 1594 0 1779 0 
L 1779 160 
C 1338 160 1267 160 1267 446 
L 1267 2042 
z
M 1254 2176 
L 1254 3938 
C 1254 4155 1267 4186 1523 4186 
L 2170 4186 
C 2995 4186 3232 3714 3232 3184 
C 3232 2604 2950 2176 2170 2176 
L 1254 2176 
z
" transform="scale(0.015625)"/>
       <path id="CMR17-65" d="M 2438 1472 
C 2464 1498 2464 1511 2464 1576 
C 2464 2238 2118 2816 1389 2816 
C 710 2816 173 2169 173 1383 
C 173 551 781 -64 1459 -64 
C 2176 -64 2458 607 2458 740 
C 2458 784 2419 784 2406 784 
C 2362 784 2355 771 2330 696 
C 2189 265 1837 51 1504 51 
C 1229 51 954 203 781 480 
C 582 803 582 1176 582 1472 
L 2438 1472 
z
M 589 1568 
C 634 2505 1126 2714 1382 2714 
C 1818 2714 2112 2297 2118 1568 
L 589 1568 
z
" transform="scale(0.015625)"/>
       <path id="CMR17-72" d="M 960 1497 
C 960 2112 1222 2688 1702 2688 
C 1747 2688 1792 2682 1837 2662 
C 1837 2662 1696 2617 1696 2452 
C 1696 2298 1818 2234 1914 2234 
C 1990 2234 2131 2279 2131 2458 
C 2131 2663 1926 2790 1709 2790 
C 1222 2790 1011 2317 947 2093 
L 941 2093 
L 941 2790 
L 198 2720 
L 198 2554 
C 576 2554 634 2515 634 2208 
L 634 428 
C 634 184 608 153 198 153 
L 198 -13 
C 352 0 646 0 813 0 
C 998 0 1325 0 1498 -13 
L 1498 153 
C 1037 153 960 153 960 440 
L 960 1497 
z
" transform="scale(0.015625)"/>
       <path id="CMR17-63" d="M 2234 2240 
C 2112 2240 1933 2240 1933 2017 
C 1933 1838 2080 1787 2163 1787 
C 2208 1787 2394 1807 2394 2024 
C 2394 2467 1958 2803 1466 2803 
C 787 2803 211 2178 211 1363 
C 211 516 813 -64 1466 -64 
C 2259 -64 2458 677 2458 748 
C 2458 774 2451 793 2406 793 
C 2362 793 2355 787 2330 703 
C 2163 180 1798 51 1523 51 
C 1114 51 621 427 621 1369 
C 621 2338 1094 2688 1472 2688 
C 1722 2688 2093 2573 2234 2240 
z
" transform="scale(0.015625)"/>
       <path id="CMR17-6e" d="M 2656 1933 
C 2656 2259 2592 2790 1837 2790 
C 1331 2790 1069 2400 973 2144 
L 966 2144 
L 966 2790 
L 211 2720 
L 211 2554 
C 589 2554 646 2515 646 2208 
L 646 428 
C 646 184 621 153 211 153 
L 211 -13 
C 365 0 646 0 813 0 
C 979 0 1267 0 1421 -13 
L 1421 153 
C 1011 153 986 178 986 428 
L 986 1658 
C 986 2247 1344 2688 1792 2688 
C 2266 2688 2317 2266 2317 1958 
L 2317 428 
C 2317 184 2291 153 1882 153 
L 1882 -13 
C 2035 0 2317 0 2483 0 
C 2650 0 2938 0 3091 -13 
L 3091 153 
C 2682 153 2656 178 2656 428 
L 2656 1933 
z
" transform="scale(0.015625)"/>
       <path id="CMR17-74" d="M 966 2560 
L 1862 2560 
L 1862 2725 
L 966 2725 
L 966 3904 
L 851 3904 
C 838 3245 614 2668 70 2668 
L 70 2560 
L 627 2560 
L 627 771 
C 627 650 627 -64 1370 -64 
C 1747 -64 1965 306 1965 777 
L 1965 1140 
L 1850 1140 
L 1850 783 
C 1850 344 1677 51 1408 51 
C 1222 51 966 178 966 758 
L 966 2560 
z
" transform="scale(0.015625)"/>
       <path id="CMR17-69" d="M 992 3909 
C 992 4049 877 4170 730 4170 
C 589 4170 467 4056 467 3909 
C 467 3769 582 3648 730 3648 
C 870 3648 992 3763 992 3909 
z
M 243 2706 
L 243 2541 
C 602 2541 653 2502 653 2197 
L 653 427 
C 653 184 627 153 218 153 
L 218 -13 
C 371 0 646 0 806 0 
C 960 0 1222 0 1370 -13 
L 1370 153 
C 992 153 979 191 979 420 
L 979 2776 
L 243 2706 
z
" transform="scale(0.015625)"/>
       <path id="CMR17-6c" d="M 979 4396 
L 218 4326 
L 218 4160 
C 595 4160 653 4122 653 3817 
L 653 426 
C 653 184 627 153 218 153 
L 218 -13 
C 371 0 653 0 813 0 
C 979 0 1261 0 1414 -13 
L 1414 153 
C 1005 153 979 178 979 426 
L 979 4396 
z
" transform="scale(0.015625)"/>
      </defs>
      <use xlink:href="#CMR17-50" transform="scale(0.996264)"/>
      <use xlink:href="#CMR17-65" transform="translate(59.983847 0) scale(0.996264)"/>
      <use xlink:href="#CMR17-72" transform="translate(100.469507 0) scale(0.996264)"/>
      <use xlink:href="#CMR17-63" transform="translate(135.750275 0) scale(0.996264)"/>
      <use xlink:href="#CMR17-65" transform="translate(176.235935 0) scale(0.996264)"/>
      <use xlink:href="#CMR17-6e" transform="translate(216.721596 0) scale(0.996264)"/>
      <use xlink:href="#CMR17-74" transform="translate(265.014512 0) scale(0.996264)"/>
      <use xlink:href="#CMR17-69" transform="translate(300.295279 0) scale(0.996264)"/>
      <use xlink:href="#CMR17-6c" transform="translate(325.166338 0) scale(0.996264)"/>
      <use xlink:href="#CMR17-65" transform="translate(350.037396 0) scale(0.996264)"/>
     </g>
    </g>
   </g>
   <g id="line2d_16">
    <path d="M 45.42461 67.875819 
L 48.113724 67.760819 
L 48.511965 67.686224 
L 48.880239 67.539366 
L 49.604959 66.669873 
L 49.780028 66.300009 
L 50.108084 65.408759 
L 50.39671 64.368321 
L 50.482667 64.131327 
L 50.640386 63.724165 
L 50.935321 63.010855 
L 51.251548 62.14447 
L 51.522037 61.368998 
L 51.872173 60.435789 
L 52.150548 59.622242 
L 53.123676 56.399913 
L 53.427285 55.078967 
L 53.468292 54.886265 
L 53.723009 53.900995 
L 54.17724 52.761874 
L 54.490313 51.977077 
L 54.882245 50.959949 
L 55.080972 50.449443 
L 56.226802 47.406607 
L 56.285947 47.270627 
L 56.372692 47.031303 
L 56.555647 46.542553 
L 56.770934 45.87431 
L 57.085583 45.084851 
L 57.484613 44.053737 
L 57.766931 43.218433 
L 57.859985 42.971339 
L 58.234568 41.946441 
L 58.370995 41.548603 
L 58.632021 40.818198 
L 58.707726 40.588198 
L 59.200599 39.096307 
L 59.306271 38.741983 
L 59.77864 37.001444 
L 59.994715 36.281917 
L 60.120891 36.002964 
L 60.482856 35.277999 
L 60.554618 35.120262 
L 60.966266 34.246884 
L 61.05932 34.077492 
L 61.238331 33.745702 
L 64.346978 27.864388 
L 64.453439 27.689557 
L 65.800361 25.50145 
L 66.032208 25.038342 
L 66.128417 24.790471 
L 66.279039 24.523173 
L 66.48644 24.256653 
L 66.816073 23.849491 
L 66.931997 23.707295 
L 67.158324 23.384052 
L 67.506095 22.886755 
L 67.737942 22.547972 
L 68.207945 21.929459 
L 68.548619 21.50054 
L 68.702395 21.333479 
L 68.917682 21.042871 
L 71.165181 18.983751 
L 71.34025 18.836116 
L 73.00892 17.346556 
L 73.359056 17.164731 
L 73.534913 17.061387 
L 74.042769 16.878009 
L 74.991451 16.533786 
L 75.767429 16.228414 
L 75.998488 16.152266 
L 76.630942 15.978989 
L 76.776044 15.933921 
L 78.022815 15.668955 
L 78.321693 15.605239 
L 82.178717 15.079192 
L 84.186483 14.943989 
L 87.94099 14.550037 
L 88.063223 14.511186 
L 88.451212 14.361996 
L 88.623914 14.264091 
L 88.889671 14.123449 
L 89.473233 13.712402 
L 89.690097 13.528247 
L 90.205839 13.056592 
L 91.10957 12.011491 
L 91.306719 11.772944 
L 91.495194 11.557707 
L 91.652124 11.437268 
L 91.835079 11.288856 
L 92.318488 10.965613 
L 92.488036 10.825748 
L 95.076209 9.256155 
L 95.495742 9.103857 
L 96.850551 8.556831 
L 97.270873 8.396763 
L 98.19905 8.061088 
L 100.780915 7.631392 
L 100.98595 7.58477 
L 102.3171 7.327575 
L 102.834419 7.19548 
L 103.70503 6.940615 
L 104.007062 6.79842 
L 107.838063 5.968555 
L 110.186503 5.567609 
L 110.829208 5.472812 
L 118.324028 5.091292 
L 127.211508 4.910245 
L 192.710737 4.50386 
L 231.773854 4.406732 
L 231.773854 4.406732 
" clip-path="url(#p6aea4637d5)" style="fill: none; stroke: #1f77b4; stroke-width: 1.5; stroke-linecap: square"/>
   </g>
   <g id="line2d_17">
    <path d="M 51.758616 67.528369 
L 51.801988 67.180142 
L 52.260951 66.831915 
L 52.781425 65.787235 
L 53.376027 65.439008 
L 53.574753 65.090781 
L 55.098321 64.742554 
L 55.818309 64.394328 
L 57.464898 64.046101 
L 57.669933 63.697874 
L 58.281884 63.349647 
L 58.301599 63.00142 
L 58.68328 62.304967 
L 58.712458 61.95674 
L 59.376456 61.260286 
L 59.691894 60.912059 
L 59.732113 60.563833 
L 60.23366 60.215606 
L 60.736784 58.822699 
L 61.1437 58.126245 
L 61.360564 57.778018 
L 61.417343 57.081565 
L 61.584525 56.733338 
L 61.612915 56.385111 
L 61.843185 56.036884 
L 62.152315 53.947523 
L 62.386528 53.599297 
L 62.479582 52.902843 
L 62.692503 52.554616 
L 62.698023 52.206389 
L 62.940911 51.509936 
L 62.981129 50.465255 
L 63.17197 50.117028 
L 63.179856 49.768802 
L 63.384891 49.420575 
L 63.449555 48.724121 
L 63.664842 48.375894 
L 63.795749 47.679441 
L 63.960566 46.286534 
L 64.205819 45.938307 
L 64.305971 45.241853 
L 64.634816 44.893626 
L 64.770454 44.197173 
L 65.044886 43.848946 
L 65.185256 43.152492 
L 65.498329 42.804266 
L 65.989624 41.411358 
L 66.071638 40.018451 
L 66.468302 39.670224 
L 66.648102 39.321997 
L 66.665451 38.973771 
L 67.034514 37.92909 
L 67.796298 34.795049 
L 68.008431 34.446822 
L 68.130663 33.750369 
L 68.718956 33.402142 
L 68.946072 33.053915 
L 69.292265 31.661008 
L 69.419229 31.312781 
L 69.692872 30.964554 
L 71.355233 29.919874 
L 71.443556 29.22342 
L 71.631242 28.875193 
L 72.391449 28.17874 
L 72.404066 27.830513 
L 72.735277 27.482286 
L 72.830697 27.134059 
L 73.981259 26.089379 
L 74.008071 25.741152 
L 77.00316 24.696472 
L 78.372951 24.348245 
L 78.548808 24.000018 
L 81.534434 23.651791 
L 82.694459 23.303564 
L 85.266072 22.955338 
L 85.276323 22.607111 
L 85.766042 22.258884 
L 85.839381 21.910657 
L 87.765133 21.56243 
L 87.94651 20.865977 
L 94.01397 20.51775 
L 105.640245 20.169523 
L 135.807996 19.821296 
L 138.739208 19.473069 
L 140.499355 19.124843 
L 143.578035 18.776616 
L 144.570878 18.428389 
L 144.622136 18.080162 
L 145.051133 17.731935 
L 146.368877 17.383709 
L 146.786833 17.035482 
L 148.440519 16.687255 
L 151.407219 16.339028 
L 151.879588 15.990801 
L 162.632098 15.642575 
L 166.325883 14.946121 
L 170.09143 14.597894 
L 170.167136 14.249667 
L 191.258932 13.901441 
L 199.107042 13.204987 
L 200.700006 12.85676 
L 201.412897 12.508533 
L 202.408106 12.160306 
L 204.465554 11.81208 
L 204.746294 11.115626 
L 205.878718 10.070946 
L 206.149995 9.722719 
L 206.221757 9.374492 
L 206.834497 9.026265 
L 206.866829 8.678038 
L 207.397554 7.633358 
L 207.403075 7.285131 
L 207.653848 6.936904 
L 208.267376 6.588678 
L 211.848392 6.240451 
L 212.744237 5.892224 
L 216.301595 5.543997 
L 216.362317 5.19577 
L 219.429957 4.847544 
L 235.037854 4.15109 
L 235.037854 4.15109 
" clip-path="url(#p6aea4637d5)" style="fill: none; stroke-dasharray: 1.5,2.475; stroke-dashoffset: 0; stroke: #ff7f0e; stroke-width: 1.5"/>
   </g>
   <g id="line2d_18">
    <path d="M 48.72804 67.661307 
L 51.374569 67.446018 
L 52.624494 66.800151 
L 53.383124 65.723707 
L 54.684308 65.293129 
L 54.815215 65.07784 
L 56.483885 63.786107 
L 56.516217 63.570818 
L 56.9807 63.355529 
L 57.110819 62.924952 
L 57.55953 62.063796 
L 58.196716 61.633218 
L 58.263746 61.41793 
L 58.764505 60.987352 
L 58.997929 60.556774 
L 59.09887 60.341485 
L 59.46951 60.126196 
L 59.698203 59.48033 
L 59.786526 58.619174 
L 60.351949 57.758019 
L 60.600357 57.112152 
L 61.022256 56.681574 
L 61.032508 56.466285 
L 61.399994 56.035708 
L 61.657865 54.528686 
L 62.075821 54.098108 
L 62.310822 53.452241 
L 62.473273 52.591086 
L 62.558442 52.160508 
L 62.821044 50.438197 
L 63.195627 48.715886 
L 63.554439 48.07002 
L 63.824927 47.424153 
L 63.906941 46.993575 
L 64.208185 46.347709 
L 64.988107 43.548953 
L 65.295659 43.118376 
L 65.428144 42.472509 
L 65.470728 41.826642 
L 65.6939 41.396065 
L 65.77828 40.534909 
L 65.977795 40.104331 
L 66.204122 38.597309 
L 66.428872 38.38202 
L 67.080253 36.444421 
L 67.338124 36.013843 
L 67.842037 33.215087 
L 68.010796 31.708065 
L 68.13224 30.631621 
L 68.30652 30.201043 
L 69.105368 29.985754 
L 69.374279 29.339888 
L 69.796178 28.90931 
L 70.371854 27.832866 
L 70.575311 27.617577 
L 70.620261 27.402288 
L 70.965667 27.186999 
L 71.206977 26.541132 
L 71.625722 26.110555 
L 71.848106 25.249399 
L 72.404066 25.03411 
L 72.898516 24.603533 
L 73.988356 24.172955 
L 75.713016 23.742377 
L 76.039495 23.527088 
L 77.91872 22.881222 
L 78.954147 22.665933 
L 79.118175 22.235355 
L 84.585513 22.020066 
L 84.831555 21.804777 
L 85.958459 21.589488 
L 86.161917 21.3742 
L 87.709143 21.158911 
L 89.58127 20.513044 
L 89.759493 20.297755 
L 91.573265 20.082466 
L 91.8682 19.651889 
L 126.741504 19.4366 
L 131.062223 19.221311 
L 131.264892 19.006022 
L 134.537567 18.575444 
L 134.788341 18.360155 
L 134.864046 18.144867 
L 136.689646 17.929578 
L 137.900142 17.499 
L 137.99635 17.283711 
L 140.247004 16.853133 
L 142.906939 16.637844 
L 143.115129 16.422556 
L 143.48498 16.207267 
L 148.087228 15.991978 
L 151.377252 15.346111 
L 151.904034 15.130822 
L 183.167145 14.915533 
L 193.01829 14.700245 
L 193.444921 14.484956 
L 193.582925 14.269667 
L 195.063909 14.054378 
L 195.077315 13.839089 
L 196.998335 13.6238 
L 197.142648 13.408511 
L 198.19779 12.977934 
L 201.515415 12.332067 
L 201.889998 12.116778 
L 202.717236 11.901489 
L 202.7543 11.6862 
L 203.867798 11.470912 
L 203.989241 11.255623 
L 205.039652 10.609756 
L 205.083024 10.394467 
L 206.384997 9.963889 
L 207.157033 9.748601 
L 207.813145 9.102734 
L 208.006351 8.672156 
L 208.089153 8.456867 
L 208.573352 8.02629 
L 208.736591 7.811001 
L 209.807505 7.595712 
L 210.177356 7.165134 
L 210.339807 6.949845 
L 213.381423 6.734556 
L 214.412118 6.08869 
L 222.243668 5.227534 
L 223.797203 4.796957 
L 231.214739 4.581668 
L 231.754928 4.366379 
L 237.107919 4.15109 
L 237.107919 4.15109 
" clip-path="url(#p6aea4637d5)" style="fill: none; stroke-dasharray: 5.55,2.4; stroke-dashoffset: 0; stroke: #2ca02c; stroke-width: 1.5"/>
   </g>
   <g id="line2d_19">
    <path d="M 46.745509 67.87425 
L 48.469381 67.72178 
L 48.803745 67.646718 
L 49.181483 67.510667 
L 49.535563 67.262023 
L 49.700379 67.118936 
L 50.17748 66.213498 
L 50.604111 64.33225 
L 50.656158 64.156323 
L 51.055976 62.446311 
L 51.111178 62.167173 
L 51.226313 61.472847 
L 51.275206 61.207784 
L 51.493647 59.934071 
L 52.688371 52.334018 
L 52.801928 51.222159 
L 53.582639 45.250018 
L 53.807389 44.234332 
L 55.461075 36.35045 
L 55.653493 35.144763 
L 55.884551 34.079817 
L 55.951582 33.856976 
L 56.263078 32.670054 
L 56.553281 31.464367 
L 56.729927 30.680904 
L 56.934173 30.181271 
L 57.117127 29.752009 
L 57.232262 29.449414 
L 57.455435 28.780891 
L 57.535083 28.604964 
L 57.791377 28.025577 
L 58.204602 27.14125 
L 58.318948 26.871495 
L 59.91349 23.951104 
L 60.198173 23.709498 
L 60.362201 23.56641 
L 60.560927 23.392829 
L 61.325077 22.78764 
L 61.67758 22.58591 
L 62.41334 22.105042 
L 62.621529 21.959609 
L 62.766631 21.870473 
L 62.976398 21.685163 
L 63.203513 21.544421 
L 64.746796 20.751576 
L 65.305122 20.531081 
L 65.421046 20.458364 
L 65.62135 20.383302 
L 65.932845 20.254289 
L 66.22226 20.10651 
L 66.809764 19.942311 
L 66.915436 19.893051 
L 67.693781 19.733544 
L 67.816013 19.705396 
L 75.724845 18.347238 
L 77.387995 18.16662 
L 79.9186 17.767851 
L 80.046353 17.74674 
L 80.755301 17.547356 
L 85.020029 15.849073 
L 85.129644 15.769319 
L 85.550755 15.584009 
L 85.685605 15.511293 
L 85.95215 15.325983 
L 86.100406 15.227463 
L 86.936318 14.467458 
L 87.425248 13.827083 
L 87.593219 13.674613 
L 88.367621 12.712878 
L 88.621549 12.522877 
L 88.787154 12.372752 
L 88.952759 12.220282 
L 89.088398 12.077195 
L 89.430648 11.762871 
L 89.677479 11.554104 
L 90.994435 10.289775 
L 91.408448 9.862858 
L 91.738081 9.675202 
L 91.87372 9.611869 
L 94.256858 8.321736 
L 99.138269 7.219259 
L 100.635024 7.059752 
L 109.073005 6.407649 
L 114.060087 6.135548 
L 114.259602 6.12382 
L 118.08666 5.924436 
L 118.953327 5.851719 
L 123.198341 5.626532 
L 125.961583 5.556161 
L 171.957249 4.927515 
L 207.35497 4.765662 
L 231.717864 4.660106 
L 231.717864 4.660106 
" clip-path="url(#p6aea4637d5)" style="fill: none; stroke-dasharray: 9.6,2.4,1.5,2.4; stroke-dashoffset: 0; stroke: #d62728; stroke-width: 1.5"/>
   </g>
   <g id="line2d_20">
    <path d="M 47.185546 67.876477 
L 50.268169 67.763474 
L 51.008661 67.539842 
L 52.096923 66.926634 
L 52.688371 66.35058 
L 52.801928 66.181907 
L 53.113424 65.808949 
L 53.558192 65.130456 
L 54.70008 63.949979 
L 55.285218 63.122398 
L 55.465018 62.84903 
L 55.834081 62.289594 
L 56.286735 61.651578 
L 57.058771 60.485938 
L 57.349763 60.073928 
L 58.783431 57.485304 
L 59.46399 55.792752 
L 60.277821 53.375057 
L 61.472545 50.208481 
L 62.928293 45.475174 
L 63.246098 44.427641 
L 63.719255 43.02448 
L 64.623775 40.101596 
L 64.964449 39.041837 
L 66.71671 33.871237 
L 69.12114 29.410348 
L 69.785138 28.525079 
L 69.978344 28.316284 
L 71.085533 27.156698 
L 71.273219 26.984701 
L 71.599698 26.693765 
L 72.895362 25.67294 
L 73.38508 25.409662 
L 73.892147 25.167038 
L 74.280925 24.996465 
L 74.713865 24.809274 
L 75.135764 24.633597 
L 77.041801 23.894686 
L 77.802008 23.667967 
L 78.507801 23.471043 
L 79.23331 23.249548 
L 79.887056 23.076126 
L 81.043927 22.78982 
L 82.888454 22.350153 
L 83.658124 22.210205 
L 85.471107 21.78039 
L 85.95767 21.594861 
L 88.667287 20.4932 
L 90.768108 19.744911 
L 91.257826 19.57968 
L 94.715821 18.653696 
L 95.845879 18.508526 
L 103.570968 18.037759 
L 108.491809 17.897099 
L 112.646923 17.799764 
L 134.450821 17.219911 
L 137.641482 16.851939 
L 139.42923 16.606229 
L 139.879518 16.524682 
L 141.872301 16.112672 
L 142.07497 16.078486 
L 144.165539 15.660066 
L 144.278308 15.630747 
L 144.9289 15.487001 
L 146.211946 15.216601 
L 147.208732 15.030241 
L 151.543646 14.490034 
L 155.337583 14.315663 
L 162.949902 14.140936 
L 172.180422 13.903653 
L 173.088096 13.879319 
L 195.256326 13.609394 
L 195.981046 13.55954 
L 198.277439 13.333178 
L 198.703281 13.262432 
L 199.846745 13.116905 
L 200.944471 12.928646 
L 201.058029 12.896478 
L 201.556422 12.79309 
L 202.678594 12.511888 
L 213.044692 9.506863 
L 213.709479 9.355638 
L 215.024069 9.075742 
L 215.96171 8.893774 
L 228.414434 7.131307 
L 229.650953 6.982931 
L 231.493902 6.8177 
L 231.701303 6.796215 
L 231.701303 6.796215 
" clip-path="url(#p6aea4637d5)" style="fill: none; stroke: #9467bd; stroke-width: 1.5; stroke-linecap: square"/>
   </g>
   <g id="patch_3">
    <path d="M 42.437408 71.062871 
L 42.437408 0.964815 
" style="fill: none; stroke: #000000; stroke-width: 0.8; stroke-linejoin: miter; stroke-linecap: square"/>
   </g>
   <g id="patch_4">
    <path d="M 231.700515 71.062871 
L 231.700515 0.964815 
" style="fill: none; stroke: #000000; stroke-width: 0.8; stroke-linejoin: miter; stroke-linecap: square"/>
   </g>
   <g id="patch_5">
    <path d="M 42.437408 71.062871 
L 231.700515 71.062871 
" style="fill: none; stroke: #000000; stroke-width: 0.8; stroke-linejoin: miter; stroke-linecap: square"/>
   </g>
   <g id="patch_6">
    <path d="M 42.437408 0.964815 
L 231.700515 0.964815 
" style="fill: none; stroke: #000000; stroke-width: 0.8; stroke-linejoin: miter; stroke-linecap: square"/>
   </g>
   <g id="legend_1">
    <g id="patch_7">
     <path d="M 112.941961 66.064871 
L 226.702515 66.064871 
L 226.702515 30.067742 
L 112.941961 30.067742 
z
" style="fill: #ffffff; opacity: 0.8; stroke: #000000; stroke-linejoin: miter"/>
    </g>
    <g id="line2d_21">
     <path d="M 116.940361 37.564742 
L 121.938361 37.564742 
L 126.936361 37.564742 
" style="fill: none; stroke: #1f77b4; stroke-width: 1.5; stroke-linecap: square"/>
    </g>
    <g id="text_13">
     <!-- Auckland -->
     <g transform="translate(129.935161 41.063342) scale(0.09996 -0.09996)">
      <defs>
       <path id="CMR17-41" d="M 2323 4378 
C 2291 4461 2278 4480 2214 4480 
C 2150 4480 2138 4461 2106 4378 
L 749 566 
C 627 223 371 153 147 153 
L 147 -13 
C 262 0 518 0 640 0 
C 800 0 1056 0 1210 -13 
L 1210 153 
C 909 153 864 361 864 439 
C 864 497 877 530 890 569 
L 1229 1536 
L 2906 1536 
L 3290 442 
C 3322 365 3322 352 3322 327 
C 3322 153 3046 153 2925 153 
L 2925 0 
C 3110 0 3443 0 3642 0 
C 3808 0 4128 0 4282 -13 
L 4282 153 
C 3942 153 3827 153 3744 387 
L 2323 4378 
z
M 2067 3893 
L 2848 1702 
L 1286 1702 
L 2067 3893 
z
" transform="scale(0.015625)"/>
       <path id="CMR17-75" d="M 1882 2693 
L 1882 2528 
C 2259 2528 2317 2489 2317 2186 
L 2317 1032 
C 2317 500 2029 38 1555 38 
C 1030 38 986 348 986 678 
L 986 2763 
L 211 2693 
L 211 2528 
C 467 2528 640 2528 646 2274 
L 646 1058 
C 646 633 646 361 813 183 
C 896 101 1056 -64 1517 -64 
C 2061 -64 2272 377 2323 506 
L 2330 506 
L 2330 -63 
L 3091 -63 
L 3091 128 
C 2714 128 2656 166 2656 473 
L 2656 2763 
L 1882 2693 
z
" transform="scale(0.015625)"/>
       <path id="CMR17-6b" d="M 1670 1673 
C 1664 1686 1632 1724 1632 1743 
C 1632 1756 2086 2171 2144 2222 
C 2509 2528 2739 2560 2906 2560 
L 2906 2733 
C 2867 2733 2854 2733 2848 2720 
L 2534 2720 
C 2355 2720 2080 2720 1907 2733 
L 1907 2566 
C 1997 2559 2061 2508 2061 2419 
C 2061 2291 1933 2170 1926 2170 
L 960 1289 
L 960 4396 
L 198 4326 
L 198 4160 
C 576 4160 634 4122 634 3817 
L 634 426 
C 634 184 608 153 198 153 
L 198 -13 
C 352 0 634 0 794 0 
C 954 0 1235 0 1389 -13 
L 1389 153 
C 979 153 954 178 954 428 
L 954 1130 
L 1395 1532 
L 2042 574 
C 2118 459 2182 369 2182 286 
C 2182 172 2067 153 1990 153 
L 1990 -13 
C 2144 0 2419 0 2579 0 
C 2694 0 2931 0 3040 0 
L 3040 153 
C 2739 153 2669 210 2477 491 
L 1670 1673 
z
" transform="scale(0.015625)"/>
       <path id="CMR17-61" d="M 2304 1653 
C 2304 2072 2304 2294 2035 2543 
C 1798 2752 1523 2816 1306 2816 
C 800 2816 435 2407 435 1971 
C 435 1728 627 1728 666 1728 
C 749 1728 896 1778 896 1954 
C 896 2112 774 2181 666 2181 
C 640 2181 608 2174 589 2168 
C 723 2592 1069 2714 1293 2714 
C 1613 2714 1965 2429 1965 1885 
L 1965 1600 
C 1587 1600 1133 1549 774 1357 
C 371 1133 256 813 256 570 
C 256 77 832 -64 1171 -64 
C 1523 -64 1850 139 1990 511 
C 2003 233 2182 -18 2464 -18 
C 2598 -18 2938 70 2938 567 
L 2938 920 
L 2822 920 
L 2822 562 
C 2822 178 2650 128 2566 128 
C 2304 128 2304 458 2304 738 
L 2304 1653 
z
M 1965 870 
C 1965 317 1568 38 1216 38 
C 896 38 646 275 646 570 
C 646 761 730 1100 1101 1305 
C 1408 1478 1760 1504 1965 1504 
L 1965 870 
z
" transform="scale(0.015625)"/>
       <path id="CMR17-64" d="M 1869 4326 
L 1869 4160 
C 2246 4160 2304 4122 2304 3820 
L 2304 2345 
C 2278 2377 2016 2790 1498 2790 
C 845 2790 211 2208 211 1364 
C 211 525 806 -64 1434 -64 
C 1978 -64 2259 337 2291 380 
L 2291 -63 
L 3066 -63 
L 3066 128 
C 2688 128 2630 166 2630 473 
L 2630 4396 
L 1869 4326 
z
M 2291 755 
C 2291 563 2176 390 2029 262 
C 1811 70 1594 38 1472 38 
C 1286 38 621 134 621 1356 
C 621 2612 1363 2688 1530 2688 
C 1824 2688 2061 2522 2208 2291 
C 2291 2157 2291 2138 2291 2023 
L 2291 755 
z
" transform="scale(0.015625)"/>
      </defs>
      <use xlink:href="#CMR17-41" transform="scale(0.996264)"/>
      <use xlink:href="#CMR17-75" transform="translate(69.07243 0) scale(0.996264)"/>
      <use xlink:href="#CMR17-63" transform="translate(119.9678 0) scale(0.996264)"/>
      <use xlink:href="#CMR17-6b" transform="translate(157.851006 0) scale(0.996264)"/>
      <use xlink:href="#CMR17-6c" transform="translate(206.143922 0) scale(0.996264)"/>
      <use xlink:href="#CMR17-61" transform="translate(231.01498 0) scale(0.996264)"/>
      <use xlink:href="#CMR17-6e" transform="translate(276.705458 0) scale(0.996264)"/>
      <use xlink:href="#CMR17-64" transform="translate(327.600827 0) scale(0.996264)"/>
     </g>
    </g>
    <g id="line2d_22">
     <path d="M 116.940361 47.098105 
L 121.938361 47.098105 
L 126.936361 47.098105 
" style="fill: none; stroke-dasharray: 1.5,2.475; stroke-dashoffset: 0; stroke: #ff7f0e; stroke-width: 1.5"/>
    </g>
    <g id="text_14">
     <!-- Kellevie -->
     <g transform="translate(129.935161 50.596705) scale(0.09996 -0.09996)">
      <defs>
       <path id="CMR17-4b" d="M 2362 2675 
L 3469 3782 
C 3699 4006 3942 4186 4301 4186 
L 4301 4352 
C 4173 4352 4013 4352 3885 4352 
C 3712 4352 3411 4352 3245 4358 
L 3245 4192 
C 3411 4180 3437 4065 3437 4019 
C 3437 3975 3411 3905 3386 3867 
L 1261 1738 
L 1261 3900 
C 1261 4186 1331 4186 1773 4186 
L 1773 4352 
C 1587 4352 1248 4352 1050 4352 
C 851 4352 512 4352 326 4352 
L 326 4186 
C 768 4186 838 4186 838 3899 
L 838 446 
C 838 160 768 160 326 160 
L 326 0 
C 512 0 851 0 1050 0 
C 1248 0 1587 0 1773 0 
L 1773 160 
C 1331 160 1261 160 1261 447 
L 1261 1579 
L 2080 2390 
L 3290 537 
C 3328 473 3373 390 3373 326 
C 3373 160 3194 160 3110 160 
L 3110 0 
C 3315 0 3610 0 3821 0 
C 3974 0 4237 0 4384 -6 
L 4384 160 
C 4077 160 3981 198 3789 493 
L 2362 2675 
z
" transform="scale(0.015625)"/>
       <path id="CMR17-76" d="M 2502 2163 
C 2560 2304 2662 2560 3034 2560 
L 3034 2726 
C 2912 2726 2752 2726 2630 2726 
C 2496 2726 2285 2726 2157 2732 
L 2157 2566 
C 2317 2553 2406 2477 2406 2311 
C 2406 2253 2406 2240 2368 2151 
L 1664 377 
L 902 2286 
C 864 2369 864 2381 864 2407 
C 864 2560 1075 2560 1171 2560 
L 1171 2732 
C 1018 2726 736 2726 576 2726 
C 403 2726 205 2726 64 2732 
L 64 2560 
C 307 2560 442 2560 518 2362 
L 1446 44 
C 1485 -51 1491 -64 1549 -64 
C 1606 -64 1613 -51 1651 44 
L 2502 2163 
z
" transform="scale(0.015625)"/>
      </defs>
      <use xlink:href="#CMR17-4b" transform="scale(0.996264)"/>
      <use xlink:href="#CMR17-65" transform="translate(71.674777 0) scale(0.996264)"/>
      <use xlink:href="#CMR17-6c" transform="translate(112.160438 0) scale(0.996264)"/>
      <use xlink:href="#CMR17-6c" transform="translate(137.031496 0) scale(0.996264)"/>
      <use xlink:href="#CMR17-65" transform="translate(161.902555 0) scale(0.996264)"/>
      <use xlink:href="#CMR17-76" transform="translate(202.388215 0) scale(0.996264)"/>
      <use xlink:href="#CMR17-69" transform="translate(250.681131 0) scale(0.996264)"/>
      <use xlink:href="#CMR17-65" transform="translate(275.55219 0) scale(0.996264)"/>
     </g>
    </g>
    <g id="line2d_23">
     <path d="M 116.940361 56.631468 
L 121.938361 56.631468 
L 126.936361 56.631468 
" style="fill: none; stroke-dasharray: 5.55,2.4; stroke-dashoffset: 0; stroke: #2ca02c; stroke-width: 1.5"/>
    </g>
    <g id="text_15">
     <!-- Noojee -->
     <g transform="translate(129.935161 60.130068) scale(0.09996 -0.09996)">
      <defs>
       <path id="CMR17-4e" d="M 1312 4250 
C 1267 4320 1261 4320 1139 4320 
L 326 4320 
L 326 4160 
L 448 4160 
C 704 4160 819 4129 838 4122 
L 838 610 
C 838 451 838 153 326 153 
L 326 -13 
C 474 0 742 0 902 0 
C 1062 0 1331 0 1478 -13 
L 1478 153 
C 966 153 966 451 966 610 
L 966 4033 
C 1011 3995 1011 3982 1056 3919 
L 3430 76 
C 3475 0 3494 0 3526 0 
C 3590 0 3590 19 3590 139 
L 3590 3705 
C 3590 3863 3590 4160 4102 4160 
L 4102 4326 
C 3955 4320 3686 4320 3526 4320 
C 3366 4320 3098 4320 2950 4326 
L 2950 4160 
C 3462 4160 3462 3862 3462 3703 
L 3462 763 
L 1312 4250 
z
" transform="scale(0.015625)"/>
       <path id="CMR17-6f" d="M 2758 1356 
C 2758 2176 2163 2816 1466 2816 
C 768 2816 173 2176 173 1356 
C 173 551 768 -64 1466 -64 
C 2163 -64 2758 551 2758 1356 
z
M 1466 51 
C 1165 51 909 230 762 480 
C 602 767 582 1126 582 1408 
C 582 1677 595 2010 762 2298 
C 890 2509 1139 2714 1466 2714 
C 1754 2714 1997 2554 2150 2330 
C 2349 2029 2349 1607 2349 1408 
C 2349 1158 2336 775 2163 467 
C 1984 173 1709 51 1466 51 
z
" transform="scale(0.015625)"/>
       <path id="CMR17-6a" d="M 1165 3963 
C 1165 4103 1050 4224 902 4224 
C 762 4224 640 4110 640 3963 
C 640 3823 755 3702 902 3702 
C 1043 3702 1165 3817 1165 3963 
z
M 365 2754 
L 365 2588 
C 787 2588 838 2543 838 2235 
L 838 -359 
C 838 -678 781 -1178 403 -1178 
C 358 -1178 186 -1178 45 -1082 
C 90 -1075 250 -1031 250 -851 
C 250 -729 166 -621 19 -621 
C -122 -621 -211 -717 -211 -858 
C -211 -1114 70 -1280 397 -1280 
C 838 -1280 1165 -877 1165 -332 
L 1165 2825 
L 365 2754 
z
" transform="scale(0.015625)"/>
      </defs>
      <use xlink:href="#CMR17-4e" transform="scale(0.996264)"/>
      <use xlink:href="#CMR17-6f" transform="translate(69.07243 0) scale(0.996264)"/>
      <use xlink:href="#CMR17-6f" transform="translate(117.365346 0) scale(0.996264)"/>
      <use xlink:href="#CMR17-6a" transform="translate(168.260624 0) scale(0.996264)"/>
      <use xlink:href="#CMR17-65" transform="translate(195.734137 0) scale(0.996264)"/>
      <use xlink:href="#CMR17-65" transform="translate(236.219797 0) scale(0.996264)"/>
     </g>
    </g>
    <g id="line2d_24">
     <path d="M 177.293992 37.564742 
L 182.291992 37.564742 
L 187.289992 37.564742 
" style="fill: none; stroke-dasharray: 9.6,2.4,1.5,2.4; stroke-dashoffset: 0; stroke: #d62728; stroke-width: 1.5"/>
    </g>
    <g id="text_16">
     <!-- Perth -->
     <g transform="translate(190.288792 41.063342) scale(0.09996 -0.09996)">
      <defs>
       <path id="CMR17-68" d="M 2656 1933 
C 2656 2259 2592 2790 1837 2790 
C 1312 2790 1056 2368 979 2157 
L 973 2157 
L 973 4396 
L 211 4326 
L 211 4160 
C 589 4160 646 4122 646 3817 
L 646 426 
C 646 184 621 153 211 153 
L 211 -13 
C 365 0 646 0 813 0 
C 979 0 1267 0 1421 -13 
L 1421 153 
C 1011 153 986 178 986 428 
L 986 1658 
C 986 2247 1344 2688 1792 2688 
C 2266 2688 2317 2266 2317 1958 
L 2317 428 
C 2317 184 2291 153 1882 153 
L 1882 -13 
C 2035 0 2317 0 2483 0 
C 2650 0 2938 0 3091 -13 
L 3091 153 
C 2682 153 2656 178 2656 428 
L 2656 1933 
z
" transform="scale(0.015625)"/>
      </defs>
      <use xlink:href="#CMR17-50" transform="scale(0.996264)"/>
      <use xlink:href="#CMR17-65" transform="translate(59.983847 0) scale(0.996264)"/>
      <use xlink:href="#CMR17-72" transform="translate(100.469507 0) scale(0.996264)"/>
      <use xlink:href="#CMR17-74" transform="translate(135.750275 0) scale(0.996264)"/>
      <use xlink:href="#CMR17-68" transform="translate(171.031043 0) scale(0.996264)"/>
     </g>
    </g>
    <g id="line2d_25">
     <path d="M 177.293992 47.098105 
L 182.291992 47.098105 
L 187.289992 47.098105 
" style="fill: none; stroke: #9467bd; stroke-width: 1.5; stroke-linecap: square"/>
    </g>
    <g id="text_17">
     <!-- Sydney -->
     <g transform="translate(190.288792 50.596705) scale(0.09996 -0.09996)">
      <defs>
       <path id="CMR17-53" d="M 2803 4290 
C 2803 4404 2797 4411 2758 4411 
C 2720 4411 2707 4385 2682 4328 
L 2490 3907 
C 2246 4257 1875 4416 1472 4416 
C 819 4416 294 3901 294 3253 
C 294 3056 339 2776 557 2510 
C 794 2218 1018 2167 1530 2033 
C 1722 1982 2042 1899 2106 1874 
C 2470 1722 2662 1341 2662 985 
C 2662 527 2336 38 1779 38 
C 1094 38 454 419 410 1311 
C 403 1413 397 1419 352 1419 
C 301 1419 294 1413 294 1285 
L 294 -1 
C 294 -115 301 -122 339 -122 
C 384 -122 397 -90 486 108 
C 493 127 493 140 614 381 
C 934 -39 1472 -128 1779 -128 
C 2477 -128 2970 451 2970 1124 
C 2970 1454 2848 1708 2778 1823 
C 2509 2230 2221 2306 1914 2382 
C 1869 2402 1856 2402 1498 2490 
C 1152 2579 1005 2624 845 2796 
C 666 2992 602 3196 602 3399 
C 602 3812 934 4263 1478 4263 
C 2157 4263 2579 3786 2675 2993 
C 2694 2878 2701 2872 2746 2872 
C 2803 2872 2803 2891 2803 2999 
L 2803 4290 
z
" transform="scale(0.015625)"/>
       <path id="CMR17-79" d="M 2496 2197 
C 2656 2586 2944 2586 3034 2586 
L 3034 2752 
C 2912 2752 2752 2752 2630 2752 
C 2496 2752 2285 2752 2157 2758 
L 2157 2592 
C 2400 2573 2406 2394 2406 2343 
C 2406 2280 2394 2248 2362 2171 
L 1664 449 
L 902 2306 
C 870 2382 870 2426 870 2433 
C 870 2573 1018 2586 1171 2586 
L 1171 2758 
C 1018 2752 742 2752 582 2752 
C 410 2752 205 2752 64 2758 
L 64 2586 
C 410 2586 448 2554 531 2350 
L 1485 15 
C 1197 -738 1030 -1178 627 -1178 
C 557 -1178 397 -1159 282 -1044 
C 429 -1031 493 -942 493 -833 
C 493 -725 416 -629 288 -629 
C 147 -629 77 -725 77 -840 
C 77 -1095 339 -1280 627 -1280 
C 998 -1280 1229 -922 1357 -604 
L 2496 2197 
z
" transform="scale(0.015625)"/>
      </defs>
      <use xlink:href="#CMR17-53" transform="scale(0.996264)"/>
      <use xlink:href="#CMR17-79" transform="translate(50.89537 0) scale(0.996264)"/>
      <use xlink:href="#CMR17-64" transform="translate(99.188286 0) scale(0.996264)"/>
      <use xlink:href="#CMR17-6e" transform="translate(150.083655 0) scale(0.996264)"/>
      <use xlink:href="#CMR17-65" transform="translate(200.979025 0) scale(0.996264)"/>
      <use xlink:href="#CMR17-79" transform="translate(241.464686 0) scale(0.996264)"/>
     </g>
    </g>
   </g>
  </g>
 </g>
 <defs>
  <clipPath id="p6aea4637d5">
   <rect x="42.437408" y="0.964815" width="189.263107" height="70.098056"/>
  </clipPath>
 </defs>
</svg>
