<?xml version="1.0" encoding="utf-8" standalone="no"?>
<!DOCTYPE svg PUBLIC "-//W3C//DTD SVG 1.1//EN"
  "http://www.w3.org/Graphics/SVG/1.1/DTD/svg11.dtd">
<svg xmlns:xlink="http://www.w3.org/1999/xlink" width="262.08pt" height="103.68pt" viewBox="0 0 262.08 103.68" xmlns="http://www.w3.org/2000/svg" version="1.1">
 <metadata>
  <rdf:RDF xmlns:dc="http://purl.org/dc/elements/1.1/" xmlns:cc="http://creativecommons.org/ns#" xmlns:rdf="http://www.w3.org/1999/02/22-rdf-syntax-ns#">
   <cc:Work>
    <dc:type rdf:resource="http://purl.org/dc/dcmitype/StillImage"/>
    <dc:date>2023-10-12T10:30:55.526117</dc:date>
    <dc:format>image/svg+xml</dc:format>
    <dc:creator>
     <cc:Agent>
      <dc:title>Matplotlib v3.7.0, https://matplotlib.org/</dc:title>
     </cc:Agent>
    </dc:creator>
   </cc:Work>
  </rdf:RDF>
 </metadata>
 <defs>
  <style type="text/css">*{stroke-linejoin: round; stroke-linecap: butt}</style>
 </defs>
 <g id="figure_1">
  <g id="patch_1">
   <path d="M 0 103.68 
L 262.08 103.68 
L 262.08 -0 
L 0 -0 
z
" style="fill: #ffffff"/>
  </g>
  <g id="axes_1">
   <g id="patch_2">
    <path d="M 3.5 70.098056 
L 253.300515 70.098056 
L 253.300515 -0 
L 3.5 -0 
z
" style="fill: #ffffff"/>
   </g>
   <g id="matplotlib.axis_1">
    <g id="xtick_1">
     <g id="line2d_1">
      <defs>
       <path id="m317169651c" d="M 0 0 
L 0 3.5 
" style="stroke: #000000; stroke-width: 0.8"/>
      </defs>
      <g>
       <use xlink:href="#m317169651c" x="23.221093" y="70.098056" style="stroke: #000000; stroke-width: 0.8"/>
      </g>
     </g>
     <g id="text_1">
      <!-- 25 -->
      <g transform="translate(17.368103 85.400236) scale(0.12 -0.12)">
       <defs>
        <path id="CMR17-32" d="M 2669 989 
L 2554 989 
C 2490 536 2438 459 2413 420 
C 2381 369 1920 369 1830 369 
L 602 369 
C 832 619 1280 1072 1824 1597 
C 2214 1967 2669 2402 2669 3035 
C 2669 3790 2067 4224 1395 4224 
C 691 4224 262 3604 262 3030 
C 262 2780 448 2748 525 2748 
C 589 2748 781 2787 781 3010 
C 781 3207 614 3264 525 3264 
C 486 3264 448 3258 422 3245 
C 544 3790 915 4058 1306 4058 
C 1862 4058 2227 3617 2227 3035 
C 2227 2479 1901 2000 1536 1584 
L 262 146 
L 262 0 
L 2515 0 
L 2669 989 
z
" transform="scale(0.015625)"/>
        <path id="CMR17-35" d="M 730 3692 
C 794 3666 1056 3584 1325 3584 
C 1920 3584 2246 3911 2432 4100 
C 2432 4157 2432 4192 2394 4192 
C 2387 4192 2374 4192 2323 4163 
C 2099 4058 1837 3973 1517 3973 
C 1325 3973 1037 3999 723 4139 
C 653 4171 640 4171 634 4171 
C 602 4171 595 4164 595 4037 
L 595 2203 
C 595 2089 595 2057 659 2057 
C 691 2057 704 2070 736 2114 
C 941 2401 1222 2522 1542 2522 
C 1766 2522 2246 2382 2246 1289 
C 2246 1085 2246 715 2054 421 
C 1894 159 1645 25 1370 25 
C 947 25 518 320 403 814 
C 429 807 480 795 506 795 
C 589 795 749 840 749 1038 
C 749 1210 627 1280 506 1280 
C 358 1280 262 1190 262 1011 
C 262 454 704 -128 1382 -128 
C 2042 -128 2669 440 2669 1264 
C 2669 2030 2170 2624 1549 2624 
C 1222 2624 947 2503 730 2274 
L 730 3692 
z
" transform="scale(0.015625)"/>
       </defs>
       <use xlink:href="#CMR17-32" transform="scale(0.996264)"/>
       <use xlink:href="#CMR17-35" transform="translate(45.690477 0) scale(0.996264)"/>
      </g>
     </g>
    </g>
    <g id="xtick_2">
     <g id="line2d_2">
      <g>
       <use xlink:href="#m317169651c" x="56.089582" y="70.098056" style="stroke: #000000; stroke-width: 0.8"/>
      </g>
     </g>
     <g id="text_2">
      <!-- 50 -->
      <g transform="translate(50.236592 85.400236) scale(0.12 -0.12)">
       <defs>
        <path id="CMR17-30" d="M 2688 2025 
C 2688 2416 2682 3080 2413 3591 
C 2176 4039 1798 4198 1466 4198 
C 1158 4198 768 4058 525 3597 
C 269 3118 243 2524 243 2025 
C 243 1661 250 1106 448 619 
C 723 -39 1216 -128 1466 -128 
C 1760 -128 2208 -7 2470 600 
C 2662 1042 2688 1559 2688 2025 
z
M 1466 -26 
C 1056 -26 813 325 723 812 
C 653 1188 653 1738 653 2096 
C 653 2588 653 2997 736 3387 
C 858 3929 1216 4096 1466 4096 
C 1728 4096 2067 3923 2189 3400 
C 2272 3036 2278 2607 2278 2096 
C 2278 1680 2278 1169 2202 792 
C 2067 95 1690 -26 1466 -26 
z
" transform="scale(0.015625)"/>
       </defs>
       <use xlink:href="#CMR17-35" transform="scale(0.996264)"/>
       <use xlink:href="#CMR17-30" transform="translate(45.690477 0) scale(0.996264)"/>
      </g>
     </g>
    </g>
    <g id="xtick_3">
     <g id="line2d_3">
      <g>
       <use xlink:href="#m317169651c" x="88.958071" y="70.098056" style="stroke: #000000; stroke-width: 0.8"/>
      </g>
     </g>
     <g id="text_3">
      <!-- 75 -->
      <g transform="translate(83.105081 85.400236) scale(0.12 -0.12)">
       <defs>
        <path id="CMR17-37" d="M 2886 3941 
L 2886 4081 
L 1382 4081 
C 634 4081 621 4165 595 4288 
L 480 4288 
L 294 3094 
L 410 3094 
C 429 3215 474 3540 550 3661 
C 589 3712 1062 3712 1171 3712 
L 2579 3712 
L 1869 2661 
C 1395 1954 1069 999 1069 165 
C 1069 89 1069 -128 1299 -128 
C 1530 -128 1530 89 1530 171 
L 1530 465 
C 1530 1508 1709 2196 2003 2636 
L 2886 3941 
z
" transform="scale(0.015625)"/>
       </defs>
       <use xlink:href="#CMR17-37" transform="scale(0.996264)"/>
       <use xlink:href="#CMR17-35" transform="translate(45.690477 0) scale(0.996264)"/>
      </g>
     </g>
    </g>
    <g id="xtick_4">
     <g id="line2d_4">
      <g>
       <use xlink:href="#m317169651c" x="121.82656" y="70.098056" style="stroke: #000000; stroke-width: 0.8"/>
      </g>
     </g>
     <g id="text_4">
      <!-- 100 -->
      <g transform="translate(113.047074 85.400236) scale(0.12 -0.12)">
       <defs>
        <path id="CMR17-31" d="M 1702 4058 
C 1702 4192 1696 4192 1606 4192 
C 1357 3916 979 3827 621 3827 
C 602 3827 570 3827 563 3808 
C 557 3795 557 3782 557 3648 
C 755 3648 1088 3686 1344 3839 
L 1344 461 
C 1344 236 1331 160 781 160 
L 589 160 
L 589 0 
C 896 0 1216 0 1523 0 
C 1830 0 2150 0 2458 0 
L 2458 160 
L 2266 160 
C 1715 160 1702 230 1702 458 
L 1702 4058 
z
" transform="scale(0.015625)"/>
       </defs>
       <use xlink:href="#CMR17-31" transform="scale(0.996264)"/>
       <use xlink:href="#CMR17-30" transform="translate(45.690477 0) scale(0.996264)"/>
       <use xlink:href="#CMR17-30" transform="translate(91.380954 0) scale(0.996264)"/>
      </g>
     </g>
    </g>
    <g id="xtick_5">
     <g id="line2d_5">
      <g>
       <use xlink:href="#m317169651c" x="154.695048" y="70.098056" style="stroke: #000000; stroke-width: 0.8"/>
      </g>
     </g>
     <g id="text_5">
      <!-- 125 -->
      <g transform="translate(145.915563 85.400236) scale(0.12 -0.12)">
       <use xlink:href="#CMR17-31" transform="scale(0.996264)"/>
       <use xlink:href="#CMR17-32" transform="translate(45.690477 0) scale(0.996264)"/>
       <use xlink:href="#CMR17-35" transform="translate(91.380954 0) scale(0.996264)"/>
      </g>
     </g>
    </g>
    <g id="xtick_6">
     <g id="line2d_6">
      <g>
       <use xlink:href="#m317169651c" x="187.563537" y="70.098056" style="stroke: #000000; stroke-width: 0.8"/>
      </g>
     </g>
     <g id="text_6">
      <!-- 150 -->
      <g transform="translate(178.784052 85.400236) scale(0.12 -0.12)">
       <use xlink:href="#CMR17-31" transform="scale(0.996264)"/>
       <use xlink:href="#CMR17-35" transform="translate(45.690477 0) scale(0.996264)"/>
       <use xlink:href="#CMR17-30" transform="translate(91.380954 0) scale(0.996264)"/>
      </g>
     </g>
    </g>
    <g id="xtick_7">
     <g id="line2d_7">
      <g>
       <use xlink:href="#m317169651c" x="220.432026" y="70.098056" style="stroke: #000000; stroke-width: 0.8"/>
      </g>
     </g>
     <g id="text_7">
      <!-- 175 -->
      <g transform="translate(211.65254 85.400236) scale(0.12 -0.12)">
       <use xlink:href="#CMR17-31" transform="scale(0.996264)"/>
       <use xlink:href="#CMR17-37" transform="translate(45.690477 0) scale(0.996264)"/>
       <use xlink:href="#CMR17-35" transform="translate(91.380954 0) scale(0.996264)"/>
      </g>
     </g>
    </g>
    <g id="xtick_8">
     <g id="line2d_8">
      <g>
       <use xlink:href="#m317169651c" x="253.300515" y="70.098056" style="stroke: #000000; stroke-width: 0.8"/>
      </g>
     </g>
     <g id="text_8">
      <!-- 200 -->
      <g transform="translate(244.521029 85.400236) scale(0.12 -0.12)">
       <use xlink:href="#CMR17-32" transform="scale(0.996264)"/>
       <use xlink:href="#CMR17-30" transform="translate(45.690477 0) scale(0.996264)"/>
       <use xlink:href="#CMR17-30" transform="translate(91.380954 0) scale(0.996264)"/>
      </g>
     </g>
    </g>
    <g id="text_9">
     <!-- RTT [ms] -->
     <g transform="translate(103.73744 100.691208) scale(0.12 -0.12)">
      <defs>
       <path id="CMR17-52" d="M 2509 2146 
C 3117 2268 3629 2676 3629 3186 
C 3629 3785 2950 4326 2054 4326 
L 333 4326 
L 333 4160 
C 774 4160 845 4160 845 3873 
L 845 415 
C 845 128 774 128 333 128 
L 333 -26 
C 518 -26 851 -26 1050 -26 
C 1248 -26 1581 -26 1766 -26 
L 1766 128 
C 1325 128 1254 128 1254 417 
L 1254 2112 
L 2003 2112 
C 2368 2112 2573 1964 2662 1881 
C 2918 1632 2918 1459 2918 1024 
C 2918 595 2918 377 3110 160 
C 3354 -102 3680 -128 3821 -128 
C 4294 -128 4365 396 4365 503 
C 4365 540 4365 585 4307 585 
C 4256 585 4250 547 4250 522 
C 4218 112 4032 -26 3834 -26 
C 3482 -26 3443 375 3405 764 
C 3386 898 3373 993 3360 1133 
C 3322 1452 3270 1917 2509 2146 
z
M 1984 2214 
L 1254 2214 
L 1254 3913 
C 1254 4129 1267 4160 1523 4160 
L 1990 4160 
C 2522 4160 3142 3977 3142 3190 
C 3142 2372 2464 2214 1984 2214 
z
" transform="scale(0.015625)"/>
       <path id="CMR17-54" d="M 3981 4326 
L 288 4326 
L 179 2918 
L 294 2918 
C 378 3976 467 4160 1453 4160 
C 1568 4160 1754 4160 1805 4154 
C 1926 4135 1926 4058 1926 3912 
L 1926 459 
C 1926 230 1907 160 1376 160 
L 1197 160 
L 1197 0 
C 1504 0 1824 0 2138 0 
C 2451 0 2771 0 3078 0 
L 3078 160 
L 2899 160 
C 2368 160 2349 230 2349 459 
L 2349 3912 
C 2349 4052 2349 4129 2464 4154 
C 2515 4160 2701 4160 2816 4160 
C 3795 4160 3891 3976 3974 2918 
L 4090 2918 
L 3981 4326 
z
" transform="scale(0.015625)"/>
       <path id="CMR17-5b" d="M 1504 -1600 
L 1504 -1377 
L 902 -1377 
L 902 4544 
L 1504 4544 
L 1504 4767 
L 678 4767 
L 678 -1600 
L 1504 -1600 
z
" transform="scale(0.015625)"/>
       <path id="CMR17-6d" d="M 4326 1933 
C 4326 2252 4269 2790 3507 2790 
C 3072 2790 2771 2496 2656 2151 
L 2650 2151 
C 2573 2676 2195 2790 1837 2790 
C 1331 2790 1069 2400 973 2144 
L 966 2144 
L 966 2790 
L 211 2720 
L 211 2554 
C 589 2554 646 2515 646 2208 
L 646 428 
C 646 184 621 153 211 153 
L 211 -13 
C 365 0 646 0 813 0 
C 979 0 1267 0 1421 -13 
L 1421 153 
C 1011 153 986 178 986 428 
L 986 1658 
C 986 2247 1344 2688 1792 2688 
C 2266 2688 2317 2266 2317 1958 
L 2317 428 
C 2317 184 2291 153 1882 153 
L 1882 -13 
C 2035 0 2317 0 2483 0 
C 2650 0 2938 0 3091 -13 
L 3091 153 
C 2682 153 2656 178 2656 428 
L 2656 1658 
C 2656 2247 3014 2688 3462 2688 
C 3936 2688 3987 2266 3987 1958 
L 3987 428 
C 3987 184 3962 153 3552 153 
L 3552 -13 
C 3706 0 3987 0 4154 0 
C 4320 0 4608 0 4762 -13 
L 4762 153 
C 4352 153 4326 178 4326 428 
L 4326 1933 
z
" transform="scale(0.015625)"/>
       <path id="CMR17-73" d="M 1978 2697 
C 1978 2813 1971 2819 1933 2819 
C 1907 2819 1901 2813 1824 2717 
C 1805 2691 1747 2626 1728 2601 
C 1523 2819 1235 2819 1126 2819 
C 416 2819 160 2447 160 2076 
C 160 1498 813 1365 998 1325 
C 1402 1243 1542 1217 1677 1101 
C 1760 1025 1901 884 1901 654 
C 1901 384 1747 38 1158 38 
C 602 38 403 460 288 1021 
C 269 1110 269 1117 218 1117 
C 166 1117 160 1110 160 983 
L 160 63 
C 160 -51 166 -58 205 -58 
C 237 -58 243 -51 275 0 
C 314 57 410 211 448 276 
C 576 103 800 -64 1158 -64 
C 1792 -64 2131 283 2131 784 
C 2131 1112 1958 1285 1875 1362 
C 1683 1561 1459 1606 1190 1657 
C 838 1735 390 1825 390 2217 
C 390 2383 480 2737 1126 2737 
C 1811 2737 1850 2094 1862 1888 
C 1869 1856 1901 1849 1920 1849 
C 1978 1849 1978 1869 1978 1978 
L 1978 2697 
z
" transform="scale(0.015625)"/>
       <path id="CMR17-5d" d="M 915 4767 
L 90 4767 
L 90 4544 
L 691 4544 
L 691 -1377 
L 90 -1377 
L 90 -1600 
L 915 -1600 
L 915 4767 
z
" transform="scale(0.015625)"/>
      </defs>
      <use xlink:href="#CMR17-52" transform="scale(0.996264)"/>
      <use xlink:href="#CMR17-54" transform="translate(59.983847 0) scale(0.996264)"/>
      <use xlink:href="#CMR17-54" transform="translate(126.493727 0) scale(0.996264)"/>
      <use xlink:href="#CMR17-5b" transform="translate(223.079574 0) scale(0.996264)"/>
      <use xlink:href="#CMR17-6d" transform="translate(247.950633 0) scale(0.996264)"/>
      <use xlink:href="#CMR17-73" transform="translate(324.870222 0) scale(0.996264)"/>
      <use xlink:href="#CMR17-5d" transform="translate(360.67156 0) scale(0.996264)"/>
     </g>
    </g>
   </g>
   <g id="matplotlib.axis_2">
    <g id="ytick_1">
     <g id="line2d_9">
      <path d="M 3.5 66.911781 
L 253.300515 66.911781 
" clip-path="url(#p7b6a48d557)" style="fill: none; stroke: #b0b0b0; stroke-opacity: 0.7; stroke-width: 0.5; stroke-linecap: square"/>
     </g>
     <g id="line2d_10">
      <defs>
       <path id="mb0037bd1af" d="M 0 0 
L -3.5 0 
" style="stroke: #000000; stroke-width: 0.8"/>
      </defs>
      <g>
       <use xlink:href="#mb0037bd1af" x="3.5" y="66.911781" style="stroke: #000000; stroke-width: 0.8"/>
      </g>
     </g>
    </g>
    <g id="ytick_2">
     <g id="line2d_11">
      <path d="M 3.5 50.980405 
L 253.300515 50.980405 
" clip-path="url(#p7b6a48d557)" style="fill: none; stroke: #b0b0b0; stroke-opacity: 0.7; stroke-width: 0.5; stroke-linecap: square"/>
     </g>
     <g id="line2d_12">
      <g>
       <use xlink:href="#mb0037bd1af" x="3.5" y="50.980405" style="stroke: #000000; stroke-width: 0.8"/>
      </g>
     </g>
    </g>
    <g id="ytick_3">
     <g id="line2d_13">
      <path d="M 3.5 35.049028 
L 253.300515 35.049028 
" clip-path="url(#p7b6a48d557)" style="fill: none; stroke: #b0b0b0; stroke-opacity: 0.7; stroke-width: 0.5; stroke-linecap: square"/>
     </g>
     <g id="line2d_14">
      <g>
       <use xlink:href="#mb0037bd1af" x="3.5" y="35.049028" style="stroke: #000000; stroke-width: 0.8"/>
      </g>
     </g>
    </g>
    <g id="ytick_4">
     <g id="line2d_15">
      <path d="M 3.5 19.117652 
L 253.300515 19.117652 
" clip-path="url(#p7b6a48d557)" style="fill: none; stroke: #b0b0b0; stroke-opacity: 0.7; stroke-width: 0.5; stroke-linecap: square"/>
     </g>
     <g id="line2d_16">
      <g>
       <use xlink:href="#mb0037bd1af" x="3.5" y="19.117652" style="stroke: #000000; stroke-width: 0.8"/>
      </g>
     </g>
    </g>
    <g id="ytick_5">
     <g id="line2d_17">
      <path d="M 3.5 3.186275 
L 253.300515 3.186275 
" clip-path="url(#p7b6a48d557)" style="fill: none; stroke: #b0b0b0; stroke-opacity: 0.7; stroke-width: 0.5; stroke-linecap: square"/>
     </g>
     <g id="line2d_18">
      <g>
       <use xlink:href="#mb0037bd1af" x="3.5" y="3.186275" style="stroke: #000000; stroke-width: 0.8"/>
      </g>
     </g>
    </g>
   </g>
   <g id="line2d_19">
    <path d="M 8.44605 66.910097 
L 13.148874 66.790534 
L 13.523574 66.740014 
L 14.003454 66.628871 
L 14.158594 66.564879 
L 14.620067 66.428476 
L 14.838314 66.325753 
L 15.245883 66.13883 
L 16.301619 65.332199 
L 16.509348 65.104861 
L 17.286359 64.284758 
L 17.444128 64.153407 
L 17.800422 63.880601 
L 18.017354 63.629687 
L 19.07046 62.457631 
L 19.238747 62.30102 
L 20.784881 60.140462 
L 21.062291 59.727885 
L 21.171414 59.576326 
L 21.273964 59.380983 
L 21.62237 58.791587 
L 21.719661 58.599612 
L 22.448026 57.035186 
L 23.645754 55.324254 
L 23.798264 55.06492 
L 24.431968 54.07305 
L 24.823761 53.374195 
L 24.982844 53.143488 
L 25.182685 52.811742 
L 25.393043 52.363801 
L 25.615234 51.946172 
L 25.783521 51.754197 
L 26.051728 51.370248 
L 26.833998 50.556881 
L 27.284953 49.80077 
L 27.454555 49.588588 
L 27.651766 49.386509 
L 28.194753 48.867841 
L 28.351207 48.721334 
L 29.213676 47.796824 
L 29.435867 47.581273 
L 29.99989 47.039029 
L 30.206304 46.830214 
L 30.571802 46.464789 
L 31.461881 45.504915 
L 31.688016 45.28768 
L 31.89443 45.053606 
L 32.054828 44.888575 
L 32.223115 44.67976 
L 32.422955 44.263815 
L 32.537338 44.007849 
L 32.863393 43.768722 
L 33.272277 43.52286 
L 33.435305 43.410033 
L 34.071639 42.871156 
L 34.280682 42.64045 
L 34.547574 42.473735 
L 34.781598 42.337332 
L 35.452115 41.909599 
L 35.918848 41.589641 
L 37.428169 40.493364 
L 37.626695 40.287917 
L 39.136016 39.189957 
L 39.508087 38.890207 
L 40.181233 38.560145 
L 40.362668 38.44395 
L 41.632706 37.782142 
L 41.778642 37.708047 
L 43.535134 36.714493 
L 44.251667 36.503995 
L 44.379197 36.453475 
L 47.288715 35.638424 
L 48.194571 35.434662 
L 48.372061 35.38751 
L 48.858514 35.296575 
L 49.96684 35.075972 
L 52.526638 34.641503 
L 61.456349 33.481235 
L 63.730848 33.287576 
L 64.300131 33.211796 
L 66.607498 33.011402 
L 68.910922 32.782379 
L 71.404983 32.602192 
L 74.192231 32.422006 
L 74.572191 32.378222 
L 75.879042 32.299074 
L 80.197961 32.043108 
L 81.609991 31.969013 
L 85.038832 31.777038 
L 86.481101 31.613691 
L 87.287037 31.521072 
L 88.948868 31.248265 
L 89.075083 31.209534 
L 90.161057 31.025979 
L 92.095039 30.559514 
L 94.100017 30.030741 
L 94.682447 29.862343 
L 95.087387 29.734359 
L 97.527543 29.069184 
L 99.006625 28.720598 
L 99.176227 28.681866 
L 101.728136 28.141306 
L 102.53933 27.979643 
L 102.877218 27.925755 
L 103.647656 27.770828 
L 105.101758 27.511494 
L 106.195621 27.284156 
L 106.441477 27.250476 
L 108.662072 26.942306 
L 108.90004 26.891786 
L 111.231074 26.482577 
L 111.412508 26.423637 
L 112.977048 26.238399 
L 116.563657 25.773618 
L 116.657004 25.741622 
L 118.291225 25.571539 
L 119.582299 25.4705 
L 121.499189 25.303785 
L 123.34114 25.118546 
L 125.326396 24.943411 
L 127.235398 24.748068 
L 132.039456 24.343911 
L 132.414157 24.303495 
L 133.293718 24.224348 
L 136.087539 23.986905 
L 137.228733 23.889234 
L 139.074628 23.735991 
L 145.453744 23.333518 
L 148.790553 23.139859 
L 149.019318 23.123019 
L 149.647763 23.101127 
L 157.544089 22.717178 
L 160.545639 22.38038 
L 160.932173 22.32986 
L 161.486993 22.193457 
L 161.782809 22.117678 
L 162.211414 21.984643 
L 163.204043 21.661317 
L 163.398624 21.590589 
L 165.815115 20.438741 
L 166.025474 20.337702 
L 166.501409 20.101943 
L 167.998898 19.271737 
L 168.255272 19.126914 
L 173.594429 15.834715 
L 173.903393 15.683156 
L 175.278611 14.933781 
L 175.815024 14.682867 
L 176.028012 14.590248 
L 176.347494 14.452161 
L 176.551279 14.362909 
L 176.931238 14.221454 
L 177.558369 13.94528 
L 177.88311 13.813929 
L 178.5155 13.537755 
L 178.99275 13.349148 
L 181.230437 12.513889 
L 182.57673 12.1131 
L 182.755535 12.052477 
L 183.236729 11.875658 
L 183.804697 11.639899 
L 184.383182 11.466448 
L 184.564616 11.414245 
L 185.30087 11.158278 
L 186.126527 10.942728 
L 186.252742 10.875368 
L 186.652423 10.744017 
L 186.845689 10.67329 
L 187.97768 10.417323 
L 188.599552 10.282604 
L 189.522499 10.105785 
L 190.052339 9.999694 
L 191.268473 9.768988 
L 191.426242 9.747096 
L 199.607866 8.809114 
L 200.710933 8.684499 
L 206.059293 8.268554 
L 228.845044 7.24974 
L 232.628865 7.116705 
L 238.808141 6.879263 
L 239.23806 6.850635 
L 244.629807 6.609825 
L 245.238532 6.584565 
L 249.473308 6.377434 
L 249.968965 6.360594 
L 253.317606 6.219139 
L 253.317606 6.219139 
" clip-path="url(#p7b6a48d557)" style="fill: none; stroke: #1f77b4; stroke-width: 1.5; stroke-linecap: square"/>
   </g>
   <g id="line2d_20">
    <path d="M 9.05083 66.908151 
L 13.091025 66.788352 
L 13.911423 66.646772 
L 14.358434 66.501562 
L 16.216161 65.350771 
L 16.334487 65.205561 
L 16.488312 65.042199 
L 16.639507 64.755409 
L 16.790702 64.533964 
L 17.011578 64.356081 
L 17.377076 64.065661 
L 17.772813 63.702635 
L 17.918749 63.553795 
L 20.590299 59.771068 
L 20.696793 59.487908 
L 20.81512 59.331807 
L 21.832728 57.22989 
L 22.066752 56.209788 
L 23.219779 54.499937 
L 23.334161 54.282122 
L 23.518224 54.024374 
L 25.372007 50.379597 
L 25.61129 49.664437 
L 25.83874 49.305042 
L 26.134556 48.811327 
L 27.12324 47.264838 
L 27.283638 46.836468 
L 27.449296 46.640434 
L 27.612323 46.506115 
L 27.927861 46.15398 
L 28.473478 45.511425 
L 28.601008 45.289979 
L 28.746944 45.122987 
L 29.208417 44.549407 
L 29.346465 44.393306 
L 29.757978 43.979457 
L 29.907859 43.754381 
L 30.25232 43.384095 
L 30.481085 43.075523 
L 30.615188 42.904901 
L 31.642 41.670614 
L 31.805028 41.489101 
L 32.028534 41.18779 
L 32.245466 40.90463 
L 32.484748 40.196731 
L 33.026421 39.833705 
L 33.265703 39.692125 
L 33.478691 39.586848 
L 33.779767 39.350881 
L 33.942794 39.220192 
L 34.08873 39.0532 
L 34.271479 38.846275 
L 34.59622 38.650242 
L 34.757933 38.588527 
L 35.339048 38.294477 
L 35.571757 38.149266 
L 35.876776 37.960493 
L 36.016139 37.844325 
L 36.430282 37.622879 
L 36.804982 37.426846 
L 37.677969 36.907719 
L 37.768686 36.798811 
L 38.219642 36.646341 
L 39.11498 36.308727 
L 39.254342 36.247012 
L 40.737368 35.684323 
L 41.781271 35.379381 
L 42.359757 35.266843 
L 42.934298 35.059919 
L 43.10127 34.943751 
L 44.429157 34.638809 
L 45.342901 34.475448 
L 45.444136 34.446406 
L 46.054175 34.312086 
L 46.662899 34.155985 
L 46.886405 34.116052 
L 48.130149 33.887346 
L 52.577913 33.270203 
L 53.745401 33.106841 
L 53.888708 33.08869 
L 55.534762 32.928959 
L 55.934443 32.889026 
L 59.363284 32.620387 
L 59.535514 32.609496 
L 60.759537 32.442505 
L 60.926509 32.424353 
L 63.24308 32.264622 
L 63.609892 32.224689 
L 82.734094 30.761696 
L 82.936564 30.736285 
L 84.518195 30.587444 
L 88.767434 30.046536 
L 90.359583 29.861393 
L 91.343008 29.806939 
L 93.267787 29.661729 
L 108.040201 28.532719 
L 108.211117 28.507308 
L 109.791434 28.318534 
L 120.762935 25.875372 
L 121.188911 25.810028 
L 121.793691 25.661187 
L 122.441858 25.519607 
L 124.271975 25.12754 
L 128.058425 24.361556 
L 129.270615 24.180043 
L 130.311889 24.027572 
L 133.978697 23.581051 
L 134.212721 23.548379 
L 135.739133 23.42132 
L 137.625785 23.261588 
L 137.913713 23.232546 
L 147.853144 22.419369 
L 147.930713 22.408478 
L 149.359835 22.216075 
L 151.834175 21.678797 
L 152.016924 21.613452 
L 153.772101 20.989048 
L 154.211224 20.811166 
L 154.721343 20.622393 
L 154.850188 20.567939 
L 155.110506 20.419098 
L 155.281422 20.313821 
L 155.612737 20.16135 
L 158.340821 18.534996 
L 158.486757 18.393416 
L 158.636637 18.204642 
L 158.752335 18.02676 
L 160.01317 17.329751 
L 160.131496 17.278927 
L 160.54038 16.926793 
L 160.911137 16.734389 
L 161.676315 16.189851 
L 161.859064 16.080943 
L 162.480936 15.652573 
L 162.676832 15.503732 
L 162.860896 15.394825 
L 163.136991 15.224203 
L 163.678664 14.857547 
L 163.828544 14.741379 
L 163.940297 14.610689 
L 164.450416 14.287597 
L 164.718623 14.127865 
L 164.951332 13.986286 
L 165.210335 13.844706 
L 165.323403 13.743058 
L 165.69153 13.409075 
L 165.947904 13.245713 
L 166.09647 13.125915 
L 166.388342 12.987965 
L 167.574237 12.301847 
L 168.682562 11.804502 
L 168.824554 11.724636 
L 170.208975 11.074821 
L 170.506106 10.958652 
L 170.636265 10.886047 
L 171.137181 10.682753 
L 171.413276 10.624669 
L 172.692518 10.116433 
L 172.877896 10.043828 
L 173.745624 9.771559 
L 174.032238 9.695323 
L 174.47662 9.542853 
L 174.600205 9.49929 
L 180.694023 8.210549 
L 182.837048 7.956431 
L 183.257765 7.891086 
L 185.12601 7.673271 
L 185.929316 7.615187 
L 189.511981 7.324767 
L 191.574807 7.150514 
L 194.393609 6.94359 
L 196.944204 6.772968 
L 198.286553 6.696732 
L 200.658343 6.558783 
L 202.078262 6.468026 
L 206.883635 6.199387 
L 225.233455 5.353538 
L 231.354882 5.157504 
L 241.183875 4.888865 
L 253.619996 4.620226 
L 253.619996 4.620226 
" clip-path="url(#p7b6a48d557)" style="fill: none; stroke-dasharray: 1.5,2.475; stroke-dashoffset: 0; stroke: #ff7f0e; stroke-width: 1.5"/>
   </g>
   <g id="line2d_21">
    <path d="M 9.898837 66.910597 
L 14.612179 66.738942 
L 16.646081 66.260675 
L 16.759148 66.207403 
L 17.959506 65.944593 
L 18.077832 65.887769 
L 18.728628 65.658106 
L 19.969742 64.978589 
L 20.18273 64.818772 
L 20.418069 64.632911 
L 21.237151 63.746223 
L 21.590816 63.331883 
L 21.745955 63.159044 
L 21.884003 62.885579 
L 22.15221 62.477158 
L 24.451689 60.259847 
L 24.644956 59.895228 
L 25.105115 59.331725 
L 25.452206 58.713766 
L 26.134556 57.706328 
L 26.255512 57.565452 
L 27.821367 54.974051 
L 28.430091 54.276776 
L 29.224194 53.074006 
L 29.631763 52.55904 
L 29.978855 51.939898 
L 30.193157 51.601323 
L 30.369332 51.318388 
L 30.763754 50.566656 
L 30.861045 50.403288 
L 31.108216 49.980661 
L 31.219969 49.595917 
L 31.331722 49.425445 
L 31.827378 48.570721 
L 32.065346 48.127969 
L 32.198135 47.85924 
L 32.692477 46.493101 
L 32.988293 46.18649 
L 33.247297 45.94854 
L 33.737695 45.441861 
L 33.850763 45.224037 
L 34.292515 44.655799 
L 34.494985 44.443894 
L 34.793431 44.134914 
L 35.22598 43.59864 
L 35.395581 43.402124 
L 35.754505 42.981865 
L 35.895183 42.798372 
L 36.289604 42.314186 
L 36.365859 42.247891 
L 36.481556 42.028883 
L 37.282233 41.158769 
L 38.010598 40.067279 
L 38.224901 39.916932 
L 38.811275 39.436298 
L 39.600119 38.662074 
L 39.848604 38.492786 
L 40.061592 38.337705 
L 40.42709 38.053586 
L 40.5796 37.956512 
L 41.038444 37.628591 
L 41.953502 36.952625 
L 42.267725 36.793992 
L 42.472824 36.651932 
L 42.940872 36.245879 
L 43.052625 36.10382 
L 43.992663 35.780634 
L 44.116249 35.732097 
L 44.408121 35.594773 
L 44.643459 35.530846 
L 49.247677 34.261782 
L 50.189031 34.080656 
L 50.39413 34.045141 
L 52.124328 33.789434 
L 52.31628 33.751552 
L 53.349665 33.62725 
L 53.579744 33.545566 
L 55.651774 33.388116 
L 56.903406 33.301697 
L 58.711173 33.171476 
L 59.777426 33.092159 
L 62.047982 32.940629 
L 63.381128 32.868415 
L 66.176264 32.728724 
L 69.594587 32.553517 
L 75.067847 32.29781 
L 77.350235 32.06578 
L 79.368361 31.727204 
L 80.17824 31.482152 
L 81.017044 31.263144 
L 81.273418 31.181459 
L 82.078039 30.939958 
L 83.242898 30.474714 
L 85.020426 29.554879 
L 85.140067 29.488584 
L 85.825046 29.221039 
L 86.169508 29.060038 
L 86.53895 28.835111 
L 88.044327 27.951974 
L 88.33357 27.773216 
L 89.207871 27.133949 
L 89.437951 26.980051 
L 90.673806 26.014047 
L 91.035359 25.862516 
L 91.449502 25.635221 
L 91.700617 25.478956 
L 92.26727 25.11552 
L 92.808943 24.80299 
L 93.390058 24.4289 
L 93.752926 24.233568 
L 94.213085 23.986148 
L 94.332726 23.884338 
L 94.643005 23.700845 
L 95.191251 23.352799 
L 95.402924 23.198902 
L 95.692167 22.905312 
L 96.676907 22.494523 
L 97.79838 22.013889 
L 98.146786 21.871829 
L 98.311128 21.788961 
L 99.009255 21.464592 
L 99.306386 21.345026 
L 100.396305 20.902274 
L 100.706583 20.770869 
L 101.246941 20.561331 
L 101.490168 20.490301 
L 102.676063 20.110292 
L 102.79176 20.079513 
L 103.421521 19.92088 
L 105.605303 19.415385 
L 105.749924 19.381054 
L 107.013389 19.114692 
L 108.096734 18.946588 
L 114.07617 18.380718 
L 117.950707 18.155791 
L 118.232062 18.143953 
L 129.5993 17.685811 
L 149.988281 16.982616 
L 154.195447 16.672453 
L 155.941421 16.50435 
L 158.995561 16.000039 
L 159.288748 15.951502 
L 161.213527 15.592801 
L 161.42783 15.549 
L 162.119383 15.390367 
L 162.324482 15.345381 
L 163.197469 15.155969 
L 163.727309 15.037586 
L 164.293962 14.880136 
L 165.696789 14.515517 
L 165.921609 14.462245 
L 166.431728 14.350965 
L 166.890572 14.21956 
L 167.108819 14.166288 
L 167.762245 13.997 
L 168.133001 13.903478 
L 169.046745 13.689205 
L 169.287343 13.602785 
L 170.073557 13.459542 
L 170.28523 13.414556 
L 171.179253 13.222776 
L 171.390926 13.177791 
L 172.666223 12.901958 
L 173.173713 12.791862 
L 174.493711 12.532604 
L 174.906539 12.463942 
L 175.926777 12.29939 
L 180.771593 11.683799 
L 183.796808 11.436378 
L 187.85015 11.181855 
L 190.190387 10.990075 
L 190.348155 10.967582 
L 192.389946 10.817236 
L 192.57138 10.80303 
L 194.969465 10.652684 
L 197.021773 10.49997 
L 204.844474 10.0146 
L 207.550208 9.883195 
L 208.475784 9.848864 
L 211.09606 9.709172 
L 211.813908 9.657084 
L 215.113904 9.484245 
L 217.860395 9.293648 
L 221.34577 8.868654 
L 221.552184 8.831955 
L 227.001779 7.908568 
L 227.117476 7.870686 
L 228.135085 7.694295 
L 228.462455 7.626817 
L 231.407472 7.077521 
L 232.206833 6.915336 
L 239.419494 5.942229 
L 241.834671 5.758735 
L 251.712309 5.375175 
L 253.395176 5.332557 
L 253.395176 5.332557 
" clip-path="url(#p7b6a48d557)" style="fill: none; stroke-dasharray: 5.55,2.4; stroke-dashoffset: 0; stroke: #2ca02c; stroke-width: 1.5"/>
   </g>
   <g id="line2d_22">
    <path d="M 9.793658 66.911631 
L 14.015287 66.795974 
L 14.136243 66.775396 
L 14.869868 66.643366 
L 16.483053 65.973155 
L 17.062853 65.593589 
L 17.536159 65.427913 
L 18.276358 65.055106 
L 18.574804 64.87366 
L 18.985002 64.687857 
L 21.31998 63.227121 
L 22.224521 62.081813 
L 22.955516 61.354975 
L 25.298382 57.956754 
L 25.592883 57.342719 
L 27.02595 55.883484 
L 27.446666 55.308953 
L 28.554992 54.280354 
L 29.266266 53.493434 
L 30.040647 52.635167 
L 30.882081 51.498872 
L 32.27439 49.402171 
L 32.65435 48.463695 
L 33.100046 48.000615 
L 33.737695 47.28339 
L 33.850763 47.030145 
L 34.801319 45.817096 
L 35.569127 45.060817 
L 36.298808 44.248813 
L 37.304583 43.26813 
L 37.554384 42.998513 
L 38.240678 42.245539 
L 38.43263 42.088576 
L 39.852549 40.634899 
L 40.311393 40.274108 
L 40.425775 40.129011 
L 41.077886 39.548171 
L 41.41183 39.196243 
L 42.178323 38.48863 
L 42.422864 38.254913 
L 42.809398 37.80445 
L 43.269557 37.111558 
L 43.854616 36.727185 
L 44.158321 36.506085 
L 47.821185 33.719045 
L 48.153814 33.488331 
L 48.628435 33.159684 
L 49.335765 32.800696 
L 49.699948 32.585153 
L 49.947119 32.445913 
L 50.44409 32.190566 
L 51.018632 31.876639 
L 52.289985 31.139587 
L 52.898709 30.887244 
L 53.176119 30.760922 
L 53.37596 30.628893 
L 53.582374 30.444292 
L 61.965153 27.687893 
L 62.543638 27.544298 
L 62.832881 27.455077 
L 63.655908 27.249297 
L 65.042958 26.89121 
L 65.926463 26.678521 
L 66.937498 26.449309 
L 67.675067 26.253292 
L 75.355775 24.612161 
L 77.122785 24.305444 
L 77.241112 24.271648 
L 80.162463 23.717845 
L 81.102502 23.55292 
L 83.228436 23.198438 
L 83.5374 23.149772 
L 84.235526 23.027806 
L 86.006481 22.713879 
L 86.4364 22.639528 
L 87.309387 22.495182 
L 89.355122 22.141451 
L 90.271496 21.973673 
L 90.385878 21.935972 
L 91.91755 21.69955 
L 92.99958 21.526515 
L 94.895435 21.198319 
L 111.763543 17.457331 
L 112.765375 17.308028 
L 114.107724 17.115166 
L 115.264694 16.938075 
L 115.808997 16.86793 
L 116.566287 16.737402 
L 116.680669 16.702405 
L 117.671983 16.589752 
L 134.714951 14.754406 
L 137.790127 14.467516 
L 138.485624 14.421704 
L 140.816658 14.25738 
L 151.438438 13.539404 
L 152.193099 13.480824 
L 154.45971 13.332873 
L 156.129429 13.204448 
L 160.114405 12.860631 
L 161.869582 12.699462 
L 162.929262 12.571037 
L 164.341292 12.379226 
L 165.762526 12.168039 
L 167.796428 11.901727 
L 169.416187 11.645478 
L 170.855827 11.452015 
L 173.013314 11.093778 
L 173.640445 10.996145 
L 176.147654 10.597954 
L 176.697215 10.526757 
L 179.57255 10.086508 
L 180.920158 9.892445 
L 181.974579 9.741189 
L 186.247483 9.146981 
L 186.36055 9.121296 
L 188.85987 8.805717 
L 190.190387 8.625922 
L 190.311343 8.601439 
L 192.562177 8.370575 
L 193.966319 8.219319 
L 198.429859 7.820677 
L 200.195555 7.676031 
L 203.056428 7.460788 
L 211.032953 6.985091 
L 212.86307 6.887608 
L 215.773904 6.743262 
L 221.57322 6.466586 
L 224.520866 6.353332 
L 228.274447 6.199373 
L 229.806119 6.135836 
L 239.295909 5.753717 
L 240.746067 5.69769 
L 243.492558 5.567013 
L 247.666856 5.396381 
L 248.305819 5.364237 
L 253.301829 5.18234 
L 253.301829 5.18234 
" clip-path="url(#p7b6a48d557)" style="fill: none; stroke-dasharray: 9.6,2.4,1.5,2.4; stroke-dashoffset: 0; stroke: #d62728; stroke-width: 1.5"/>
   </g>
   <g id="patch_3">
    <path d="M 3.5 70.098056 
L 3.5 -0 
" style="fill: none; stroke: #000000; stroke-width: 0.8; stroke-linejoin: miter; stroke-linecap: square"/>
   </g>
   <g id="patch_4">
    <path d="M 253.300515 70.098056 
L 253.300515 -0 
" style="fill: none; stroke: #000000; stroke-width: 0.8; stroke-linejoin: miter; stroke-linecap: square"/>
   </g>
   <g id="patch_5">
    <path d="M 3.5 70.098056 
L 253.300515 70.098056 
" style="fill: none; stroke: #000000; stroke-width: 0.8; stroke-linejoin: miter; stroke-linecap: square"/>
   </g>
   <g id="patch_6">
    <path d="M 3.5 -0 
L 253.300515 -0 
" style="fill: none; stroke: #000000; stroke-width: 0.8; stroke-linejoin: miter; stroke-linecap: square"/>
   </g>
   <g id="legend_1">
    <g id="patch_7">
     <path d="M 132.839909 65.100056 
L 248.302515 65.100056 
L 248.302515 38.63629 
L 132.839909 38.63629 
z
" style="fill: #ffffff; opacity: 0.8; stroke: #000000; stroke-linejoin: miter"/>
    </g>
    <g id="line2d_23">
     <path d="M 136.838309 46.13329 
L 141.836309 46.13329 
L 146.834309 46.13329 
" style="fill: none; stroke: #1f77b4; stroke-width: 1.5; stroke-linecap: square"/>
    </g>
    <g id="text_10">
     <!-- Bogotá -->
     <g transform="translate(149.833109 49.63189) scale(0.09996 -0.09996)">
      <defs>
       <path id="CMR17-42" d="M 333 4352 
L 333 4186 
C 774 4186 845 4186 845 3900 
L 845 452 
C 845 166 774 166 333 166 
L 333 0 
L 2534 0 
C 3354 0 3885 583 3885 1164 
C 3885 1741 3360 2233 2675 2233 
C 3290 2356 3718 2771 3718 3264 
C 3718 3802 3194 4352 2368 4352 
L 333 4352 
z
M 1248 2304 
L 1248 3937 
C 1248 4155 1261 4186 1517 4186 
L 2336 4186 
C 2970 4186 3251 3674 3251 3277 
C 3251 2791 2861 2304 2170 2304 
L 1248 2304 
z
M 1517 166 
C 1261 166 1248 197 1248 413 
L 1248 2202 
L 2432 2202 
C 3091 2202 3411 1625 3411 1162 
C 3411 699 3046 166 2349 166 
L 1517 166 
z
" transform="scale(0.015625)"/>
       <path id="CMR17-6f" d="M 2758 1356 
C 2758 2176 2163 2816 1466 2816 
C 768 2816 173 2176 173 1356 
C 173 551 768 -64 1466 -64 
C 2163 -64 2758 551 2758 1356 
z
M 1466 51 
C 1165 51 909 230 762 480 
C 602 767 582 1126 582 1408 
C 582 1677 595 2010 762 2298 
C 890 2509 1139 2714 1466 2714 
C 1754 2714 1997 2554 2150 2330 
C 2349 2029 2349 1607 2349 1408 
C 2349 1158 2336 775 2163 467 
C 1984 173 1709 51 1466 51 
z
" transform="scale(0.015625)"/>
       <path id="CMR17-67" d="M 710 1164 
C 832 1068 1043 960 1299 960 
C 1805 960 2240 1357 2240 1888 
C 2240 2054 2189 2310 1997 2509 
C 2176 2692 2438 2752 2586 2752 
C 2611 2752 2650 2752 2682 2734 
C 2656 2728 2598 2703 2598 2605 
C 2598 2527 2656 2471 2739 2471 
C 2835 2471 2886 2533 2886 2614 
C 2886 2731 2790 2854 2586 2854 
C 2330 2854 2106 2738 1926 2580 
C 1734 2753 1504 2816 1299 2816 
C 794 2816 358 2419 358 1888 
C 358 1522 570 1292 634 1228 
C 442 1004 442 743 442 711 
C 442 545 506 302 723 168 
C 390 85 128 -169 128 -486 
C 128 -943 736 -1280 1466 -1280 
C 2170 -1280 2803 -956 2803 -479 
C 2803 384 1856 384 1363 384 
C 1216 384 954 384 922 391 
C 723 423 589 602 589 826 
C 589 883 589 1024 710 1164 
z
M 1299 1068 
C 736 1068 736 1760 736 1889 
C 736 2016 736 2708 1299 2708 
C 1862 2708 1862 2016 1862 1889 
C 1862 1760 1862 1068 1299 1068 
z
M 1466 -1171 
C 826 -1171 384 -835 384 -486 
C 384 -289 493 -105 634 -4 
C 794 104 858 104 1293 104 
C 1818 104 2547 104 2547 -486 
C 2547 -835 2106 -1171 1466 -1171 
z
" transform="scale(0.015625)"/>
       <path id="CMR17-74" d="M 966 2560 
L 1862 2560 
L 1862 2725 
L 966 2725 
L 966 3904 
L 851 3904 
C 838 3245 614 2668 70 2668 
L 70 2560 
L 627 2560 
L 627 771 
C 627 650 627 -64 1370 -64 
C 1747 -64 1965 306 1965 777 
L 1965 1140 
L 1850 1140 
L 1850 783 
C 1850 344 1677 51 1408 51 
C 1222 51 966 178 966 758 
L 966 2560 
z
" transform="scale(0.015625)"/>
       <path id="CMR17-13" d="M 2221 4091 
C 2298 4161 2317 4174 2317 4244 
C 2317 4339 2234 4416 2144 4416 
C 2067 4416 2042 4384 1978 4308 
L 1254 3390 
C 1210 3333 1210 3327 1210 3320 
C 1210 3314 1267 3256 1280 3244 
L 2221 4091 
z
" transform="scale(0.015625)"/>
       <path id="CMR17-61" d="M 2304 1653 
C 2304 2072 2304 2294 2035 2543 
C 1798 2752 1523 2816 1306 2816 
C 800 2816 435 2407 435 1971 
C 435 1728 627 1728 666 1728 
C 749 1728 896 1778 896 1954 
C 896 2112 774 2181 666 2181 
C 640 2181 608 2174 589 2168 
C 723 2592 1069 2714 1293 2714 
C 1613 2714 1965 2429 1965 1885 
L 1965 1600 
C 1587 1600 1133 1549 774 1357 
C 371 1133 256 813 256 570 
C 256 77 832 -64 1171 -64 
C 1523 -64 1850 139 1990 511 
C 2003 233 2182 -18 2464 -18 
C 2598 -18 2938 70 2938 567 
L 2938 920 
L 2822 920 
L 2822 562 
C 2822 178 2650 128 2566 128 
C 2304 128 2304 458 2304 738 
L 2304 1653 
z
M 1965 870 
C 1965 317 1568 38 1216 38 
C 896 38 646 275 646 570 
C 646 761 730 1100 1101 1305 
C 1408 1478 1760 1504 1965 1504 
L 1965 870 
z
" transform="scale(0.015625)"/>
      </defs>
      <use xlink:href="#CMR17-42" transform="scale(0.996264)"/>
      <use xlink:href="#CMR17-6f" transform="translate(65.188754 0) scale(0.996264)"/>
      <use xlink:href="#CMR17-67" transform="translate(110.879232 0) scale(0.996264)"/>
      <use xlink:href="#CMR17-6f" transform="translate(156.569709 0) scale(0.996264)"/>
      <use xlink:href="#CMR17-74" transform="translate(202.260186 0) scale(0.996264)"/>
      <use xlink:href="#CMR17-13" transform="translate(237.540954 0) scale(0.996264)"/>
      <use xlink:href="#CMR17-61" transform="translate(237.540954 0) scale(0.996264)"/>
     </g>
    </g>
    <g id="line2d_24">
     <path d="M 136.838309 55.666653 
L 141.836309 55.666653 
L 146.834309 55.666653 
" style="fill: none; stroke-dasharray: 1.5,2.475; stroke-dashoffset: 0; stroke: #ff7f0e; stroke-width: 1.5"/>
    </g>
    <g id="text_11">
     <!-- Lima -->
     <g transform="translate(149.833109 59.165253) scale(0.09996 -0.09996)">
      <defs>
       <path id="CMR17-4c" d="M 3469 1615 
L 3354 1615 
C 3302 983 3219 166 2125 166 
L 1530 166 
C 1274 166 1261 197 1261 414 
L 1261 3898 
C 1261 4129 1274 4192 1760 4192 
L 1901 4192 
L 1901 4352 
C 1638 4352 1331 4352 1069 4352 
C 870 4352 512 4352 326 4352 
L 326 4192 
C 768 4192 838 4192 838 3905 
L 838 452 
C 838 166 768 166 326 166 
L 326 0 
L 3315 0 
L 3469 1615 
z
" transform="scale(0.015625)"/>
       <path id="CMR17-69" d="M 992 3909 
C 992 4049 877 4170 730 4170 
C 589 4170 467 4056 467 3909 
C 467 3769 582 3648 730 3648 
C 870 3648 992 3763 992 3909 
z
M 243 2706 
L 243 2541 
C 602 2541 653 2502 653 2197 
L 653 427 
C 653 184 627 153 218 153 
L 218 -13 
C 371 0 646 0 806 0 
C 960 0 1222 0 1370 -13 
L 1370 153 
C 992 153 979 191 979 420 
L 979 2776 
L 243 2706 
z
" transform="scale(0.015625)"/>
      </defs>
      <use xlink:href="#CMR17-4c" transform="scale(0.996264)"/>
      <use xlink:href="#CMR17-69" transform="translate(57.381408 0) scale(0.996264)"/>
      <use xlink:href="#CMR17-6d" transform="translate(82.252466 0) scale(0.996264)"/>
      <use xlink:href="#CMR17-61" transform="translate(159.172056 0) scale(0.996264)"/>
     </g>
    </g>
    <g id="line2d_25">
     <path d="M 186.531051 46.13329 
L 191.529051 46.13329 
L 196.527051 46.13329 
" style="fill: none; stroke-dasharray: 5.55,2.4; stroke-dashoffset: 0; stroke: #2ca02c; stroke-width: 1.5"/>
    </g>
    <g id="text_12">
     <!-- Santiago -->
     <g transform="translate(199.525851 49.63189) scale(0.09996 -0.09996)">
      <defs>
       <path id="CMR17-53" d="M 2803 4290 
C 2803 4404 2797 4411 2758 4411 
C 2720 4411 2707 4385 2682 4328 
L 2490 3907 
C 2246 4257 1875 4416 1472 4416 
C 819 4416 294 3901 294 3253 
C 294 3056 339 2776 557 2510 
C 794 2218 1018 2167 1530 2033 
C 1722 1982 2042 1899 2106 1874 
C 2470 1722 2662 1341 2662 985 
C 2662 527 2336 38 1779 38 
C 1094 38 454 419 410 1311 
C 403 1413 397 1419 352 1419 
C 301 1419 294 1413 294 1285 
L 294 -1 
C 294 -115 301 -122 339 -122 
C 384 -122 397 -90 486 108 
C 493 127 493 140 614 381 
C 934 -39 1472 -128 1779 -128 
C 2477 -128 2970 451 2970 1124 
C 2970 1454 2848 1708 2778 1823 
C 2509 2230 2221 2306 1914 2382 
C 1869 2402 1856 2402 1498 2490 
C 1152 2579 1005 2624 845 2796 
C 666 2992 602 3196 602 3399 
C 602 3812 934 4263 1478 4263 
C 2157 4263 2579 3786 2675 2993 
C 2694 2878 2701 2872 2746 2872 
C 2803 2872 2803 2891 2803 2999 
L 2803 4290 
z
" transform="scale(0.015625)"/>
       <path id="CMR17-6e" d="M 2656 1933 
C 2656 2259 2592 2790 1837 2790 
C 1331 2790 1069 2400 973 2144 
L 966 2144 
L 966 2790 
L 211 2720 
L 211 2554 
C 589 2554 646 2515 646 2208 
L 646 428 
C 646 184 621 153 211 153 
L 211 -13 
C 365 0 646 0 813 0 
C 979 0 1267 0 1421 -13 
L 1421 153 
C 1011 153 986 178 986 428 
L 986 1658 
C 986 2247 1344 2688 1792 2688 
C 2266 2688 2317 2266 2317 1958 
L 2317 428 
C 2317 184 2291 153 1882 153 
L 1882 -13 
C 2035 0 2317 0 2483 0 
C 2650 0 2938 0 3091 -13 
L 3091 153 
C 2682 153 2656 178 2656 428 
L 2656 1933 
z
" transform="scale(0.015625)"/>
      </defs>
      <use xlink:href="#CMR17-53" transform="scale(0.996264)"/>
      <use xlink:href="#CMR17-61" transform="translate(50.89537 0) scale(0.996264)"/>
      <use xlink:href="#CMR17-6e" transform="translate(96.585847 0) scale(0.996264)"/>
      <use xlink:href="#CMR17-74" transform="translate(144.878763 0) scale(0.996264)"/>
      <use xlink:href="#CMR17-69" transform="translate(180.159531 0) scale(0.996264)"/>
      <use xlink:href="#CMR17-61" transform="translate(205.030589 0) scale(0.996264)"/>
      <use xlink:href="#CMR17-67" transform="translate(250.721066 0) scale(0.996264)"/>
      <use xlink:href="#CMR17-6f" transform="translate(296.411543 0) scale(0.996264)"/>
     </g>
    </g>
    <g id="line2d_26">
     <path d="M 186.531051 55.666653 
L 191.529051 55.666653 
L 196.527051 55.666653 
" style="fill: none; stroke-dasharray: 9.6,2.4,1.5,2.4; stroke-dashoffset: 0; stroke: #d62728; stroke-width: 1.5"/>
    </g>
    <g id="text_13">
     <!-- São Paulo -->
     <g transform="translate(199.525851 59.165253) scale(0.09996 -0.09996)">
      <defs>
       <path id="CMR17-7e" d="M 2400 4184 
C 2182 3980 2061 3865 1862 3865 
C 1722 3865 1626 3932 1491 4024 
C 1363 4111 1261 4184 1120 4184 
C 890 4184 730 4004 461 3718 
L 531 3648 
C 749 3850 870 3968 1069 3968 
C 1210 3968 1306 3900 1440 3808 
C 1568 3722 1670 3648 1811 3648 
C 2042 3648 2202 3828 2470 4114 
L 2400 4184 
z
" transform="scale(0.015625)"/>
       <path id="CMR17-50" d="M 1267 2042 
L 2291 2042 
C 3117 2042 3718 2578 3718 3184 
C 3718 3791 3130 4352 2291 4352 
L 333 4352 
L 333 4186 
C 774 4186 845 4186 845 3899 
L 845 446 
C 845 160 774 160 333 160 
L 333 0 
C 518 0 858 0 1056 0 
C 1254 0 1594 0 1779 0 
L 1779 160 
C 1338 160 1267 160 1267 446 
L 1267 2042 
z
M 1254 2176 
L 1254 3938 
C 1254 4155 1267 4186 1523 4186 
L 2170 4186 
C 2995 4186 3232 3714 3232 3184 
C 3232 2604 2950 2176 2170 2176 
L 1254 2176 
z
" transform="scale(0.015625)"/>
       <path id="CMR17-75" d="M 1882 2693 
L 1882 2528 
C 2259 2528 2317 2489 2317 2186 
L 2317 1032 
C 2317 500 2029 38 1555 38 
C 1030 38 986 348 986 678 
L 986 2763 
L 211 2693 
L 211 2528 
C 467 2528 640 2528 646 2274 
L 646 1058 
C 646 633 646 361 813 183 
C 896 101 1056 -64 1517 -64 
C 2061 -64 2272 377 2323 506 
L 2330 506 
L 2330 -63 
L 3091 -63 
L 3091 128 
C 2714 128 2656 166 2656 473 
L 2656 2763 
L 1882 2693 
z
" transform="scale(0.015625)"/>
       <path id="CMR17-6c" d="M 979 4396 
L 218 4326 
L 218 4160 
C 595 4160 653 4122 653 3817 
L 653 426 
C 653 184 627 153 218 153 
L 218 -13 
C 371 0 653 0 813 0 
C 979 0 1261 0 1414 -13 
L 1414 153 
C 1005 153 979 178 979 426 
L 979 4396 
z
" transform="scale(0.015625)"/>
      </defs>
      <use xlink:href="#CMR17-53" transform="scale(0.996264)"/>
      <use xlink:href="#CMR17-7e" transform="translate(50.89537 0) scale(0.996264)"/>
      <use xlink:href="#CMR17-61" transform="translate(50.89537 0) scale(0.996264)"/>
      <use xlink:href="#CMR17-6f" transform="translate(96.585847 0) scale(0.996264)"/>
      <use xlink:href="#CMR17-50" transform="translate(172.35229 0) scale(0.996264)"/>
      <use xlink:href="#CMR17-61" transform="translate(232.336137 0) scale(0.996264)"/>
      <use xlink:href="#CMR17-75" transform="translate(278.026614 0) scale(0.996264)"/>
      <use xlink:href="#CMR17-6c" transform="translate(328.921984 0) scale(0.996264)"/>
      <use xlink:href="#CMR17-6f" transform="translate(353.793042 0) scale(0.996264)"/>
     </g>
    </g>
   </g>
  </g>
 </g>
 <defs>
  <clipPath id="p7b6a48d557">
   <rect x="3.5" y="-0" width="249.800515" height="70.098056"/>
  </clipPath>
 </defs>
</svg>
