<?xml version="1.0" encoding="utf-8" standalone="no"?>
<!DOCTYPE svg PUBLIC "-//W3C//DTD SVG 1.1//EN"
  "http://www.w3.org/Graphics/SVG/1.1/DTD/svg11.dtd">
<svg xmlns:xlink="http://www.w3.org/1999/xlink" width="218.16pt" height="164.16pt" viewBox="0 0 218.16 164.16" xmlns="http://www.w3.org/2000/svg" version="1.1">
 <metadata>
  <rdf:RDF xmlns:dc="http://purl.org/dc/elements/1.1/" xmlns:cc="http://creativecommons.org/ns#" xmlns:rdf="http://www.w3.org/1999/02/22-rdf-syntax-ns#">
   <cc:Work>
    <dc:type rdf:resource="http://purl.org/dc/dcmitype/StillImage"/>
    <dc:date>2023-10-10T20:52:52.663295</dc:date>
    <dc:format>image/svg+xml</dc:format>
    <dc:creator>
     <cc:Agent>
      <dc:title>Matplotlib v3.7.0, https://matplotlib.org/</dc:title>
     </cc:Agent>
    </dc:creator>
   </cc:Work>
  </rdf:RDF>
 </metadata>
 <defs>
  <style type="text/css">*{stroke-linejoin: round; stroke-linecap: butt}</style>
 </defs>
 <g id="figure_1">
  <g id="patch_1">
   <path d="M 0 164.16 
L 218.16 164.16 
L 218.16 0 
L 0 0 
z
" style="fill: #ffffff"/>
  </g>
  <g id="axes_1">
   <g id="patch_2">
    <path d="M 47.676976 126.814399 
L 207.917267 126.814399 
L 207.917267 0 
L 47.676976 0 
z
" style="fill: #ffffff"/>
   </g>
   <g id="matplotlib.axis_1">
    <g id="xtick_1">
     <g id="line2d_1">
      <defs>
       <path id="m17e3a4c161" d="M 0 0 
L 0 3.5 
" style="stroke: #000000; stroke-width: 0.8"/>
      </defs>
      <g>
       <use xlink:href="#m17e3a4c161" x="74.383691" y="126.814399" style="stroke: #000000; stroke-width: 0.8"/>
      </g>
     </g>
     <g id="text_1">
      <!-- 50 -->
      <g transform="translate(67.555202 143.500275) scale(0.14 -0.14)">
       <defs>
        <path id="CMR17-35" d="M 730 3692 
C 794 3666 1056 3584 1325 3584 
C 1920 3584 2246 3911 2432 4100 
C 2432 4157 2432 4192 2394 4192 
C 2387 4192 2374 4192 2323 4163 
C 2099 4058 1837 3973 1517 3973 
C 1325 3973 1037 3999 723 4139 
C 653 4171 640 4171 634 4171 
C 602 4171 595 4164 595 4037 
L 595 2203 
C 595 2089 595 2057 659 2057 
C 691 2057 704 2070 736 2114 
C 941 2401 1222 2522 1542 2522 
C 1766 2522 2246 2382 2246 1289 
C 2246 1085 2246 715 2054 421 
C 1894 159 1645 25 1370 25 
C 947 25 518 320 403 814 
C 429 807 480 795 506 795 
C 589 795 749 840 749 1038 
C 749 1210 627 1280 506 1280 
C 358 1280 262 1190 262 1011 
C 262 454 704 -128 1382 -128 
C 2042 -128 2669 440 2669 1264 
C 2669 2030 2170 2624 1549 2624 
C 1222 2624 947 2503 730 2274 
L 730 3692 
z
" transform="scale(0.015625)"/>
        <path id="CMR17-30" d="M 2688 2025 
C 2688 2416 2682 3080 2413 3591 
C 2176 4039 1798 4198 1466 4198 
C 1158 4198 768 4058 525 3597 
C 269 3118 243 2524 243 2025 
C 243 1661 250 1106 448 619 
C 723 -39 1216 -128 1466 -128 
C 1760 -128 2208 -7 2470 600 
C 2662 1042 2688 1559 2688 2025 
z
M 1466 -26 
C 1056 -26 813 325 723 812 
C 653 1188 653 1738 653 2096 
C 653 2588 653 2997 736 3387 
C 858 3929 1216 4096 1466 4096 
C 1728 4096 2067 3923 2189 3400 
C 2272 3036 2278 2607 2278 2096 
C 2278 1680 2278 1169 2202 792 
C 2067 95 1690 -26 1466 -26 
z
" transform="scale(0.015625)"/>
       </defs>
       <use xlink:href="#CMR17-35" transform="scale(0.996264)"/>
       <use xlink:href="#CMR17-30" transform="translate(45.690477 0) scale(0.996264)"/>
      </g>
     </g>
    </g>
    <g id="xtick_2">
     <g id="line2d_2">
      <g>
       <use xlink:href="#m17e3a4c161" x="107.767085" y="126.814399" style="stroke: #000000; stroke-width: 0.8"/>
      </g>
     </g>
     <g id="text_2">
      <!-- 100 -->
      <g transform="translate(97.524352 143.500275) scale(0.14 -0.14)">
       <defs>
        <path id="CMR17-31" d="M 1702 4058 
C 1702 4192 1696 4192 1606 4192 
C 1357 3916 979 3827 621 3827 
C 602 3827 570 3827 563 3808 
C 557 3795 557 3782 557 3648 
C 755 3648 1088 3686 1344 3839 
L 1344 461 
C 1344 236 1331 160 781 160 
L 589 160 
L 589 0 
C 896 0 1216 0 1523 0 
C 1830 0 2150 0 2458 0 
L 2458 160 
L 2266 160 
C 1715 160 1702 230 1702 458 
L 1702 4058 
z
" transform="scale(0.015625)"/>
       </defs>
       <use xlink:href="#CMR17-31" transform="scale(0.996264)"/>
       <use xlink:href="#CMR17-30" transform="translate(45.690477 0) scale(0.996264)"/>
       <use xlink:href="#CMR17-30" transform="translate(91.380954 0) scale(0.996264)"/>
      </g>
     </g>
    </g>
    <g id="xtick_3">
     <g id="line2d_3">
      <g>
       <use xlink:href="#m17e3a4c161" x="141.150479" y="126.814399" style="stroke: #000000; stroke-width: 0.8"/>
      </g>
     </g>
     <g id="text_3">
      <!-- 150 -->
      <g transform="translate(130.907746 143.500275) scale(0.14 -0.14)">
       <use xlink:href="#CMR17-31" transform="scale(0.996264)"/>
       <use xlink:href="#CMR17-35" transform="translate(45.690477 0) scale(0.996264)"/>
       <use xlink:href="#CMR17-30" transform="translate(91.380954 0) scale(0.996264)"/>
      </g>
     </g>
    </g>
    <g id="xtick_4">
     <g id="line2d_4">
      <g>
       <use xlink:href="#m17e3a4c161" x="174.533873" y="126.814399" style="stroke: #000000; stroke-width: 0.8"/>
      </g>
     </g>
     <g id="text_4">
      <!-- 200 -->
      <g transform="translate(164.29114 143.500275) scale(0.14 -0.14)">
       <defs>
        <path id="CMR17-32" d="M 2669 989 
L 2554 989 
C 2490 536 2438 459 2413 420 
C 2381 369 1920 369 1830 369 
L 602 369 
C 832 619 1280 1072 1824 1597 
C 2214 1967 2669 2402 2669 3035 
C 2669 3790 2067 4224 1395 4224 
C 691 4224 262 3604 262 3030 
C 262 2780 448 2748 525 2748 
C 589 2748 781 2787 781 3010 
C 781 3207 614 3264 525 3264 
C 486 3264 448 3258 422 3245 
C 544 3790 915 4058 1306 4058 
C 1862 4058 2227 3617 2227 3035 
C 2227 2479 1901 2000 1536 1584 
L 262 146 
L 262 0 
L 2515 0 
L 2669 989 
z
" transform="scale(0.015625)"/>
       </defs>
       <use xlink:href="#CMR17-32" transform="scale(0.996264)"/>
       <use xlink:href="#CMR17-30" transform="translate(45.690477 0) scale(0.996264)"/>
       <use xlink:href="#CMR17-30" transform="translate(91.380954 0) scale(0.996264)"/>
      </g>
     </g>
    </g>
    <g id="xtick_5">
     <g id="line2d_5">
      <g>
       <use xlink:href="#m17e3a4c161" x="207.917267" y="126.814399" style="stroke: #000000; stroke-width: 0.8"/>
      </g>
     </g>
     <g id="text_5">
      <!-- 250 -->
      <g transform="translate(197.674534 143.500275) scale(0.14 -0.14)">
       <use xlink:href="#CMR17-32" transform="scale(0.996264)"/>
       <use xlink:href="#CMR17-35" transform="translate(45.690477 0) scale(0.996264)"/>
       <use xlink:href="#CMR17-30" transform="translate(91.380954 0) scale(0.996264)"/>
      </g>
     </g>
    </g>
    <g id="text_6">
     <!-- RTT [ms] -->
     <g transform="translate(99.023834 160.673076) scale(0.14 -0.14)">
      <defs>
       <path id="CMR17-52" d="M 2509 2146 
C 3117 2268 3629 2676 3629 3186 
C 3629 3785 2950 4326 2054 4326 
L 333 4326 
L 333 4160 
C 774 4160 845 4160 845 3873 
L 845 415 
C 845 128 774 128 333 128 
L 333 -26 
C 518 -26 851 -26 1050 -26 
C 1248 -26 1581 -26 1766 -26 
L 1766 128 
C 1325 128 1254 128 1254 417 
L 1254 2112 
L 2003 2112 
C 2368 2112 2573 1964 2662 1881 
C 2918 1632 2918 1459 2918 1024 
C 2918 595 2918 377 3110 160 
C 3354 -102 3680 -128 3821 -128 
C 4294 -128 4365 396 4365 503 
C 4365 540 4365 585 4307 585 
C 4256 585 4250 547 4250 522 
C 4218 112 4032 -26 3834 -26 
C 3482 -26 3443 375 3405 764 
C 3386 898 3373 993 3360 1133 
C 3322 1452 3270 1917 2509 2146 
z
M 1984 2214 
L 1254 2214 
L 1254 3913 
C 1254 4129 1267 4160 1523 4160 
L 1990 4160 
C 2522 4160 3142 3977 3142 3190 
C 3142 2372 2464 2214 1984 2214 
z
" transform="scale(0.015625)"/>
       <path id="CMR17-54" d="M 3981 4326 
L 288 4326 
L 179 2918 
L 294 2918 
C 378 3976 467 4160 1453 4160 
C 1568 4160 1754 4160 1805 4154 
C 1926 4135 1926 4058 1926 3912 
L 1926 459 
C 1926 230 1907 160 1376 160 
L 1197 160 
L 1197 0 
C 1504 0 1824 0 2138 0 
C 2451 0 2771 0 3078 0 
L 3078 160 
L 2899 160 
C 2368 160 2349 230 2349 459 
L 2349 3912 
C 2349 4052 2349 4129 2464 4154 
C 2515 4160 2701 4160 2816 4160 
C 3795 4160 3891 3976 3974 2918 
L 4090 2918 
L 3981 4326 
z
" transform="scale(0.015625)"/>
       <path id="CMR17-5b" d="M 1504 -1600 
L 1504 -1377 
L 902 -1377 
L 902 4544 
L 1504 4544 
L 1504 4767 
L 678 4767 
L 678 -1600 
L 1504 -1600 
z
" transform="scale(0.015625)"/>
       <path id="CMR17-6d" d="M 4326 1933 
C 4326 2252 4269 2790 3507 2790 
C 3072 2790 2771 2496 2656 2151 
L 2650 2151 
C 2573 2676 2195 2790 1837 2790 
C 1331 2790 1069 2400 973 2144 
L 966 2144 
L 966 2790 
L 211 2720 
L 211 2554 
C 589 2554 646 2515 646 2208 
L 646 428 
C 646 184 621 153 211 153 
L 211 -13 
C 365 0 646 0 813 0 
C 979 0 1267 0 1421 -13 
L 1421 153 
C 1011 153 986 178 986 428 
L 986 1658 
C 986 2247 1344 2688 1792 2688 
C 2266 2688 2317 2266 2317 1958 
L 2317 428 
C 2317 184 2291 153 1882 153 
L 1882 -13 
C 2035 0 2317 0 2483 0 
C 2650 0 2938 0 3091 -13 
L 3091 153 
C 2682 153 2656 178 2656 428 
L 2656 1658 
C 2656 2247 3014 2688 3462 2688 
C 3936 2688 3987 2266 3987 1958 
L 3987 428 
C 3987 184 3962 153 3552 153 
L 3552 -13 
C 3706 0 3987 0 4154 0 
C 4320 0 4608 0 4762 -13 
L 4762 153 
C 4352 153 4326 178 4326 428 
L 4326 1933 
z
" transform="scale(0.015625)"/>
       <path id="CMR17-73" d="M 1978 2697 
C 1978 2813 1971 2819 1933 2819 
C 1907 2819 1901 2813 1824 2717 
C 1805 2691 1747 2626 1728 2601 
C 1523 2819 1235 2819 1126 2819 
C 416 2819 160 2447 160 2076 
C 160 1498 813 1365 998 1325 
C 1402 1243 1542 1217 1677 1101 
C 1760 1025 1901 884 1901 654 
C 1901 384 1747 38 1158 38 
C 602 38 403 460 288 1021 
C 269 1110 269 1117 218 1117 
C 166 1117 160 1110 160 983 
L 160 63 
C 160 -51 166 -58 205 -58 
C 237 -58 243 -51 275 0 
C 314 57 410 211 448 276 
C 576 103 800 -64 1158 -64 
C 1792 -64 2131 283 2131 784 
C 2131 1112 1958 1285 1875 1362 
C 1683 1561 1459 1606 1190 1657 
C 838 1735 390 1825 390 2217 
C 390 2383 480 2737 1126 2737 
C 1811 2737 1850 2094 1862 1888 
C 1869 1856 1901 1849 1920 1849 
C 1978 1849 1978 1869 1978 1978 
L 1978 2697 
z
" transform="scale(0.015625)"/>
       <path id="CMR17-5d" d="M 915 4767 
L 90 4767 
L 90 4544 
L 691 4544 
L 691 -1377 
L 90 -1377 
L 90 -1600 
L 915 -1600 
L 915 4767 
z
" transform="scale(0.015625)"/>
      </defs>
      <use xlink:href="#CMR17-52" transform="scale(0.996264)"/>
      <use xlink:href="#CMR17-54" transform="translate(59.983847 0) scale(0.996264)"/>
      <use xlink:href="#CMR17-54" transform="translate(126.493727 0) scale(0.996264)"/>
      <use xlink:href="#CMR17-5b" transform="translate(223.079574 0) scale(0.996264)"/>
      <use xlink:href="#CMR17-6d" transform="translate(247.950633 0) scale(0.996264)"/>
      <use xlink:href="#CMR17-73" transform="translate(324.870222 0) scale(0.996264)"/>
      <use xlink:href="#CMR17-5d" transform="translate(360.67156 0) scale(0.996264)"/>
     </g>
    </g>
   </g>
   <g id="matplotlib.axis_2">
    <g id="ytick_1">
     <g id="line2d_6">
      <path d="M 47.676976 121.050108 
L 207.917267 121.050108 
" clip-path="url(#p6c65c00252)" style="fill: none; stroke: #b0b0b0; stroke-opacity: 0.7; stroke-width: 0.5; stroke-linecap: square"/>
     </g>
     <g id="line2d_7">
      <defs>
       <path id="m8b4e0f3d02" d="M 0 0 
L -3.5 0 
" style="stroke: #000000; stroke-width: 0.8"/>
      </defs>
      <g>
       <use xlink:href="#m8b4e0f3d02" x="47.676976" y="121.050108" style="stroke: #000000; stroke-width: 0.8"/>
      </g>
     </g>
     <g id="text_7">
      <!-- 0.00 -->
      <g transform="translate(16.397905 125.893046) scale(0.14 -0.14)">
       <defs>
        <path id="CMR17-2e" d="M 1062 261 
C 1062 420 934 522 800 522 
C 672 522 538 420 538 261 
C 538 102 666 0 800 0 
C 928 0 1062 102 1062 261 
z
" transform="scale(0.015625)"/>
       </defs>
       <use xlink:href="#CMR17-30" transform="scale(0.996264)"/>
       <use xlink:href="#CMR17-2e" transform="translate(45.690477 0) scale(0.996264)"/>
       <use xlink:href="#CMR17-30" transform="translate(70.561536 0) scale(0.996264)"/>
       <use xlink:href="#CMR17-30" transform="translate(116.252013 0) scale(0.996264)"/>
      </g>
     </g>
    </g>
    <g id="ytick_2">
     <g id="line2d_8">
      <path d="M 47.676976 92.228654 
L 207.917267 92.228654 
" clip-path="url(#p6c65c00252)" style="fill: none; stroke: #b0b0b0; stroke-opacity: 0.7; stroke-width: 0.5; stroke-linecap: square"/>
     </g>
     <g id="line2d_9">
      <g>
       <use xlink:href="#m8b4e0f3d02" x="47.676976" y="92.228654" style="stroke: #000000; stroke-width: 0.8"/>
      </g>
     </g>
     <g id="text_8">
      <!-- 0.25 -->
      <g transform="translate(16.397905 97.071592) scale(0.14 -0.14)">
       <use xlink:href="#CMR17-30" transform="scale(0.996264)"/>
       <use xlink:href="#CMR17-2e" transform="translate(45.690477 0) scale(0.996264)"/>
       <use xlink:href="#CMR17-32" transform="translate(70.561536 0) scale(0.996264)"/>
       <use xlink:href="#CMR17-35" transform="translate(116.252013 0) scale(0.996264)"/>
      </g>
     </g>
    </g>
    <g id="ytick_3">
     <g id="line2d_10">
      <path d="M 47.676976 63.4072 
L 207.917267 63.4072 
" clip-path="url(#p6c65c00252)" style="fill: none; stroke: #b0b0b0; stroke-opacity: 0.7; stroke-width: 0.5; stroke-linecap: square"/>
     </g>
     <g id="line2d_11">
      <g>
       <use xlink:href="#m8b4e0f3d02" x="47.676976" y="63.4072" style="stroke: #000000; stroke-width: 0.8"/>
      </g>
     </g>
     <g id="text_9">
      <!-- 0.50 -->
      <g transform="translate(16.397905 68.250138) scale(0.14 -0.14)">
       <use xlink:href="#CMR17-30" transform="scale(0.996264)"/>
       <use xlink:href="#CMR17-2e" transform="translate(45.690477 0) scale(0.996264)"/>
       <use xlink:href="#CMR17-35" transform="translate(70.561536 0) scale(0.996264)"/>
       <use xlink:href="#CMR17-30" transform="translate(116.252013 0) scale(0.996264)"/>
      </g>
     </g>
    </g>
    <g id="ytick_4">
     <g id="line2d_12">
      <path d="M 47.676976 34.585745 
L 207.917267 34.585745 
" clip-path="url(#p6c65c00252)" style="fill: none; stroke: #b0b0b0; stroke-opacity: 0.7; stroke-width: 0.5; stroke-linecap: square"/>
     </g>
     <g id="line2d_13">
      <g>
       <use xlink:href="#m8b4e0f3d02" x="47.676976" y="34.585745" style="stroke: #000000; stroke-width: 0.8"/>
      </g>
     </g>
     <g id="text_10">
      <!-- 0.75 -->
      <g transform="translate(16.397905 39.428683) scale(0.14 -0.14)">
       <defs>
        <path id="CMR17-37" d="M 2886 3941 
L 2886 4081 
L 1382 4081 
C 634 4081 621 4165 595 4288 
L 480 4288 
L 294 3094 
L 410 3094 
C 429 3215 474 3540 550 3661 
C 589 3712 1062 3712 1171 3712 
L 2579 3712 
L 1869 2661 
C 1395 1954 1069 999 1069 165 
C 1069 89 1069 -128 1299 -128 
C 1530 -128 1530 89 1530 171 
L 1530 465 
C 1530 1508 1709 2196 2003 2636 
L 2886 3941 
z
" transform="scale(0.015625)"/>
       </defs>
       <use xlink:href="#CMR17-30" transform="scale(0.996264)"/>
       <use xlink:href="#CMR17-2e" transform="translate(45.690477 0) scale(0.996264)"/>
       <use xlink:href="#CMR17-37" transform="translate(70.561536 0) scale(0.996264)"/>
       <use xlink:href="#CMR17-35" transform="translate(116.252013 0) scale(0.996264)"/>
      </g>
     </g>
    </g>
    <g id="ytick_5">
     <g id="line2d_14">
      <path d="M 47.676976 5.764291 
L 207.917267 5.764291 
" clip-path="url(#p6c65c00252)" style="fill: none; stroke: #b0b0b0; stroke-opacity: 0.7; stroke-width: 0.5; stroke-linecap: square"/>
     </g>
     <g id="line2d_15">
      <g>
       <use xlink:href="#m8b4e0f3d02" x="47.676976" y="5.764291" style="stroke: #000000; stroke-width: 0.8"/>
      </g>
     </g>
     <g id="text_11">
      <!-- 1.00 -->
      <g transform="translate(16.397905 10.607229) scale(0.14 -0.14)">
       <use xlink:href="#CMR17-31" transform="scale(0.996264)"/>
       <use xlink:href="#CMR17-2e" transform="translate(45.690477 0) scale(0.996264)"/>
       <use xlink:href="#CMR17-30" transform="translate(70.561536 0) scale(0.996264)"/>
       <use xlink:href="#CMR17-30" transform="translate(116.252013 0) scale(0.996264)"/>
      </g>
     </g>
    </g>
    <g id="text_12">
     <!-- Percentile -->
     <g transform="translate(9.685876 92.711592) rotate(-90) scale(0.14 -0.14)">
      <defs>
       <path id="CMR17-50" d="M 1267 2042 
L 2291 2042 
C 3117 2042 3718 2578 3718 3184 
C 3718 3791 3130 4352 2291 4352 
L 333 4352 
L 333 4186 
C 774 4186 845 4186 845 3899 
L 845 446 
C 845 160 774 160 333 160 
L 333 0 
C 518 0 858 0 1056 0 
C 1254 0 1594 0 1779 0 
L 1779 160 
C 1338 160 1267 160 1267 446 
L 1267 2042 
z
M 1254 2176 
L 1254 3938 
C 1254 4155 1267 4186 1523 4186 
L 2170 4186 
C 2995 4186 3232 3714 3232 3184 
C 3232 2604 2950 2176 2170 2176 
L 1254 2176 
z
" transform="scale(0.015625)"/>
       <path id="CMR17-65" d="M 2438 1472 
C 2464 1498 2464 1511 2464 1576 
C 2464 2238 2118 2816 1389 2816 
C 710 2816 173 2169 173 1383 
C 173 551 781 -64 1459 -64 
C 2176 -64 2458 607 2458 740 
C 2458 784 2419 784 2406 784 
C 2362 784 2355 771 2330 696 
C 2189 265 1837 51 1504 51 
C 1229 51 954 203 781 480 
C 582 803 582 1176 582 1472 
L 2438 1472 
z
M 589 1568 
C 634 2505 1126 2714 1382 2714 
C 1818 2714 2112 2297 2118 1568 
L 589 1568 
z
" transform="scale(0.015625)"/>
       <path id="CMR17-72" d="M 960 1497 
C 960 2112 1222 2688 1702 2688 
C 1747 2688 1792 2682 1837 2662 
C 1837 2662 1696 2617 1696 2452 
C 1696 2298 1818 2234 1914 2234 
C 1990 2234 2131 2279 2131 2458 
C 2131 2663 1926 2790 1709 2790 
C 1222 2790 1011 2317 947 2093 
L 941 2093 
L 941 2790 
L 198 2720 
L 198 2554 
C 576 2554 634 2515 634 2208 
L 634 428 
C 634 184 608 153 198 153 
L 198 -13 
C 352 0 646 0 813 0 
C 998 0 1325 0 1498 -13 
L 1498 153 
C 1037 153 960 153 960 440 
L 960 1497 
z
" transform="scale(0.015625)"/>
       <path id="CMR17-63" d="M 2234 2240 
C 2112 2240 1933 2240 1933 2017 
C 1933 1838 2080 1787 2163 1787 
C 2208 1787 2394 1807 2394 2024 
C 2394 2467 1958 2803 1466 2803 
C 787 2803 211 2178 211 1363 
C 211 516 813 -64 1466 -64 
C 2259 -64 2458 677 2458 748 
C 2458 774 2451 793 2406 793 
C 2362 793 2355 787 2330 703 
C 2163 180 1798 51 1523 51 
C 1114 51 621 427 621 1369 
C 621 2338 1094 2688 1472 2688 
C 1722 2688 2093 2573 2234 2240 
z
" transform="scale(0.015625)"/>
       <path id="CMR17-6e" d="M 2656 1933 
C 2656 2259 2592 2790 1837 2790 
C 1331 2790 1069 2400 973 2144 
L 966 2144 
L 966 2790 
L 211 2720 
L 211 2554 
C 589 2554 646 2515 646 2208 
L 646 428 
C 646 184 621 153 211 153 
L 211 -13 
C 365 0 646 0 813 0 
C 979 0 1267 0 1421 -13 
L 1421 153 
C 1011 153 986 178 986 428 
L 986 1658 
C 986 2247 1344 2688 1792 2688 
C 2266 2688 2317 2266 2317 1958 
L 2317 428 
C 2317 184 2291 153 1882 153 
L 1882 -13 
C 2035 0 2317 0 2483 0 
C 2650 0 2938 0 3091 -13 
L 3091 153 
C 2682 153 2656 178 2656 428 
L 2656 1933 
z
" transform="scale(0.015625)"/>
       <path id="CMR17-74" d="M 966 2560 
L 1862 2560 
L 1862 2725 
L 966 2725 
L 966 3904 
L 851 3904 
C 838 3245 614 2668 70 2668 
L 70 2560 
L 627 2560 
L 627 771 
C 627 650 627 -64 1370 -64 
C 1747 -64 1965 306 1965 777 
L 1965 1140 
L 1850 1140 
L 1850 783 
C 1850 344 1677 51 1408 51 
C 1222 51 966 178 966 758 
L 966 2560 
z
" transform="scale(0.015625)"/>
       <path id="CMR17-69" d="M 992 3909 
C 992 4049 877 4170 730 4170 
C 589 4170 467 4056 467 3909 
C 467 3769 582 3648 730 3648 
C 870 3648 992 3763 992 3909 
z
M 243 2706 
L 243 2541 
C 602 2541 653 2502 653 2197 
L 653 427 
C 653 184 627 153 218 153 
L 218 -13 
C 371 0 646 0 806 0 
C 960 0 1222 0 1370 -13 
L 1370 153 
C 992 153 979 191 979 420 
L 979 2776 
L 243 2706 
z
" transform="scale(0.015625)"/>
       <path id="CMR17-6c" d="M 979 4396 
L 218 4326 
L 218 4160 
C 595 4160 653 4122 653 3817 
L 653 426 
C 653 184 627 153 218 153 
L 218 -13 
C 371 0 653 0 813 0 
C 979 0 1261 0 1414 -13 
L 1414 153 
C 1005 153 979 178 979 426 
L 979 4396 
z
" transform="scale(0.015625)"/>
      </defs>
      <use xlink:href="#CMR17-50" transform="scale(0.996264)"/>
      <use xlink:href="#CMR17-65" transform="translate(59.983847 0) scale(0.996264)"/>
      <use xlink:href="#CMR17-72" transform="translate(100.469507 0) scale(0.996264)"/>
      <use xlink:href="#CMR17-63" transform="translate(135.750275 0) scale(0.996264)"/>
      <use xlink:href="#CMR17-65" transform="translate(176.235935 0) scale(0.996264)"/>
      <use xlink:href="#CMR17-6e" transform="translate(216.721596 0) scale(0.996264)"/>
      <use xlink:href="#CMR17-74" transform="translate(265.014512 0) scale(0.996264)"/>
      <use xlink:href="#CMR17-69" transform="translate(300.295279 0) scale(0.996264)"/>
      <use xlink:href="#CMR17-6c" transform="translate(325.166338 0) scale(0.996264)"/>
      <use xlink:href="#CMR17-65" transform="translate(350.037396 0) scale(0.996264)"/>
     </g>
    </g>
   </g>
   <g id="line2d_16">
    <path d="M 51.697004 121.049893 
L 54.041853 120.935651 
L 54.381029 120.796928 
L 54.79298 120.547828 
L 55.249665 120.122855 
L 55.494031 119.845195 
L 55.622891 119.687145 
L 56.089591 118.906775 
L 56.490859 117.895558 
L 57.299405 115.66912 
L 59.026662 110.925699 
L 59.140833 110.549257 
L 59.523407 109.415637 
L 59.911989 108.087248 
L 60.30124 106.937737 
L 61.533755 102.169406 
L 63.570809 90.407379 
L 63.700337 89.728152 
L 63.815176 88.9699 
L 64.838711 82.027743 
L 67.952046 60.791113 
L 68.165032 59.836373 
L 68.643082 57.60156 
L 69.382191 54.579935 
L 69.682641 53.370512 
L 69.829528 52.846758 
L 70.145335 51.86947 
L 70.312252 51.306203 
L 70.843716 49.834366 
L 71.371173 48.575338 
L 72.01347 47.229124 
L 72.951543 45.510549 
L 73.203922 44.978635 
L 73.350809 44.815217 
L 74.254831 43.832775 
L 74.415739 43.664633 
L 76.325269 41.976337 
L 76.54827 41.788223 
L 76.800648 41.592164 
L 79.882603 39.741524 
L 80.182386 39.581112 
L 80.556948 39.373886 
L 81.019642 39.108681 
L 81.368832 38.926151 
L 81.980416 38.66481 
L 82.477161 38.472832 
L 82.75224 38.361596 
L 83.6369 37.960674 
L 83.882602 37.775781 
L 84.275858 37.532694 
L 84.916819 36.98854 
L 85.18856 36.761558 
L 86.88043 35.283493 
L 88.098924 34.367622 
L 88.824012 33.822179 
L 91.796469 32.041544 
L 92.410056 31.865885 
L 92.524227 31.829594 
L 93.151835 31.677986 
L 94.041169 31.508556 
L 102.948526 30.664622 
L 106.473812 30.486816 
L 112.047504 30.261767 
L 119.187544 30.015674 
L 120.687126 29.966498 
L 123.568113 29.816823 
L 125.946346 29.322059 
L 126.16267 29.26773 
L 126.608005 29.127933 
L 126.904449 29.06845 
L 127.607504 28.912548 
L 127.873235 28.840609 
L 128.940169 28.556506 
L 129.975722 28.220866 
L 130.224762 28.133896 
L 130.666758 27.974987 
L 130.937163 27.867616 
L 131.301042 27.696682 
L 132.084217 27.32475 
L 132.476138 27.17164 
L 132.672432 27.098842 
L 133.127782 26.913091 
L 133.805465 26.585181 
L 133.918968 26.524624 
L 134.136628 26.425628 
L 134.461114 26.266934 
L 135.196217 25.925925 
L 135.640884 25.741892 
L 136.19438 25.517702 
L 136.682445 25.326797 
L 136.940165 25.232311 
L 139.235607 24.610634 
L 142.41571 24.211645 
L 144.730514 24.073781 
L 147.708313 23.922818 
L 149.373477 23.855819 
L 153.32607 23.659975 
L 161.395504 23.252181 
L 177.13711 22.859848 
L 178.973197 22.55148 
L 179.321719 22.459141 
L 179.814458 22.308178 
L 182.54522 21.313496 
L 182.658056 21.234686 
L 182.964515 21.090595 
L 183.309032 20.911071 
L 183.641531 20.745076 
L 184.018095 20.535918 
L 184.321884 20.374647 
L 189.221899 17.094044 
L 189.33607 17.004496 
L 189.681922 16.776871 
L 190.24076 16.391195 
L 190.467767 16.242594 
L 190.666732 16.099791 
L 194.338905 14.451007 
L 195.023933 14.190526 
L 195.52001 14.003057 
L 196.059485 13.803777 
L 198.196023 13.232994 
L 198.654711 13.103505 
L 198.960502 13.038868 
L 199.642191 12.854405 
L 199.865192 12.791916 
L 200.253107 12.665218 
L 200.856679 12.455846 
L 201.365442 12.260431 
L 205.463588 11.058953 
L 206.343574 10.853016 
L 207.307019 10.659534 
L 207.917935 10.549587 
L 207.917935 10.549587 
" clip-path="url(#p6c65c00252)" style="fill: none; stroke: #1f77b4; stroke-width: 1.5; stroke-linecap: square"/>
   </g>
   <g id="line2d_17">
    <path d="M 51.324445 121.045865 
L 52.384034 120.880364 
L 53.170547 120.574825 
L 53.598522 120.095299 
L 53.857577 119.632747 
L 53.951051 119.441785 
L 54.06856 119.04713 
L 54.352987 116.590087 
L 54.469161 115.427341 
L 54.712192 113.742633 
L 54.91316 111.756629 
L 55.183565 108.71397 
L 55.28238 107.38148 
L 55.48869 104.962629 
L 55.809838 100.956673 
L 56.35599 92.93203 
L 56.468826 90.632 
L 56.563635 89.316485 
L 56.962233 82.836511 
L 57.221956 79.059709 
L 57.424927 77.298616 
L 57.625895 75.316856 
L 57.811506 73.402994 
L 57.972414 71.671606 
L 58.197418 69.498884 
L 58.358994 67.954214 
L 58.473165 66.409545 
L 58.654103 64.56358 
L 58.823691 62.32296 
L 58.867089 61.822216 
L 59.08742 59.713148 
L 59.225627 58.652248 
L 60.121637 52.006774 
L 60.808667 48.353037 
L 60.876102 48.039011 
L 61.269358 46.248212 
L 61.472329 45.429198 
L 61.918331 43.642643 
L 62.162698 42.793924 
L 62.237477 42.522334 
L 62.504544 41.529332 
L 62.643419 41.253498 
L 63.43327 39.84038 
L 63.798484 39.292956 
L 64.050195 39.017122 
L 64.28922 38.652173 
L 64.42943 38.469698 
L 64.797315 37.939248 
L 64.922169 37.769504 
L 65.109784 37.413042 
L 65.921 36.394579 
L 66.05854 36.271514 
L 66.211436 36.127232 
L 66.373679 35.957488 
L 66.606695 35.758039 
L 67.384528 35.07482 
L 67.761093 34.658947 
L 68.012136 34.493447 
L 68.360659 34.293998 
L 68.541597 34.170934 
L 69.19925 33.882369 
L 69.570473 33.648971 
L 71.971407 32.672944 
L 72.373343 32.524418 
L 72.499532 32.473494 
L 76.914152 31.183441 
L 78.336952 30.873658 
L 78.465812 30.822735 
L 78.841042 30.678453 
L 79.095423 30.568119 
L 80.630391 29.553899 
L 80.921495 29.290796 
L 81.065043 29.121052 
L 81.194571 29.006475 
L 81.792134 28.565141 
L 81.963057 28.391154 
L 82.31425 28.170486 
L 82.544595 27.941332 
L 83.06137 27.483024 
L 83.179547 27.381177 
L 84.435431 26.091124 
L 84.998942 25.195724 
L 85.171868 24.809557 
L 85.435597 24.185748 
L 85.573804 23.820799 
L 85.739386 23.354003 
L 85.908306 22.993297 
L 86.592666 21.185525 
L 86.995937 20.493818 
L 87.439269 19.581445 
L 87.723695 19.046752 
L 89.381514 15.791912 
L 89.645243 15.511835 
L 91.345126 13.525831 
L 91.486004 13.373061 
L 91.791128 13.037817 
L 92.371331 12.749253 
L 92.484167 12.672868 
L 93.159179 12.341867 
L 93.59984 12.049059 
L 94.232122 11.7902 
L 94.479159 11.650161 
L 95.576137 11.323404 
L 96.164352 11.187609 
L 97.695315 10.860852 
L 97.941017 10.780223 
L 99.07672 10.546825 
L 99.186217 10.504389 
L 99.980074 10.364351 
L 107.624204 9.439246 
L 110.192055 9.146438 
L 115.397861 8.505655 
L 133.11977 7.686641 
L 137.322071 7.538115 
L 137.857541 7.512653 
L 157.335416 7.168922 
L 181.770725 6.982203 
L 203.754358 6.7191 
L 207.931956 6.685152 
L 207.931956 6.685152 
" clip-path="url(#p6c65c00252)" style="fill: none; stroke-dasharray: 1.5,2.475; stroke-dashoffset: 0; stroke: #ff7f0e; stroke-width: 1.5"/>
   </g>
   <g id="line2d_18">
    <path d="M 53.002962 120.660629 
L 55.243656 120.27115 
L 56.301909 119.102713 
L 56.944206 117.155317 
L 58.045858 116.376359 
L 58.156691 115.98688 
L 59.569476 113.650005 
L 59.59685 113.260526 
L 59.990107 112.871047 
L 60.100272 112.092089 
L 60.480175 110.534172 
L 61.01965 109.755214 
L 61.076402 109.365735 
L 61.378856 108.976256 
L 62.29089 105.860423 
L 62.365669 104.302506 
L 62.732219 103.134069 
L 62.893127 102.355111 
L 62.902474 101.965632 
L 63.731717 99.628757 
L 63.950045 96.902403 
L 64.303909 96.123445 
L 64.502874 94.955008 
L 64.729881 92.228654 
L 64.79598 91.449696 
L 64.934855 89.5023 
L 65.251997 86.386467 
L 65.555786 85.21803 
L 65.784796 84.049592 
L 65.854234 83.270634 
L 66.109283 82.102197 
L 66.769606 77.038968 
L 66.967904 76.649489 
L 67.142165 75.091573 
L 67.178219 73.923136 
L 67.333786 73.533656 
L 67.79915 68.080949 
L 67.989435 67.69147 
L 68.540929 64.186158 
L 68.759257 63.4072 
L 69.193241 57.954492 
L 69.349475 54.838659 
L 69.579153 52.891263 
L 70.2555 52.501784 
L 70.483175 51.333347 
L 70.840377 50.554389 
L 71.327775 48.606993 
L 71.500033 48.217514 
L 71.53809 47.828035 
L 71.830529 47.438556 
L 72.034835 46.270119 
L 72.389367 45.49116 
L 72.577649 43.933244 
L 73.048355 43.543765 
L 73.466983 42.764807 
L 74.3897 41.985848 
L 75.849889 41.20689 
L 76.126304 40.817411 
L 76.662441 40.427932 
L 77.005623 40.038453 
L 78.594004 39.259495 
L 78.732879 38.480536 
L 83.361821 38.091057 
L 83.570133 37.701578 
L 84.524231 37.312099 
L 84.696489 36.92262 
L 86.006453 36.533141 
L 86.541255 36.143662 
L 87.340454 35.754183 
L 87.74239 34.975224 
L 89.278026 34.585745 
L 89.527734 33.806787 
L 119.053343 33.417308 
L 122.711495 33.027829 
L 122.883086 32.63835 
L 125.653907 31.859391 
L 125.866226 31.469912 
L 125.930322 31.080433 
L 127.475973 30.690954 
L 128.500843 29.911996 
L 128.582299 29.522517 
L 130.487823 28.743559 
L 132.739867 28.354079 
L 132.916131 27.9646 
L 133.229267 27.575121 
L 137.125777 27.185642 
L 138.19271 26.796163 
L 138.869058 26.406684 
L 139.911287 26.017205 
L 140.357289 25.627726 
L 166.826315 25.238246 
L 175.166822 24.848767 
L 175.52803 24.459288 
L 175.644872 24.069809 
L 176.898753 23.68033 
L 176.910103 23.290851 
L 178.536542 22.901372 
L 178.658725 22.511893 
L 179.552065 21.732934 
L 180.506162 21.343455 
L 181.945654 20.953976 
L 182.678086 20.175018 
L 183.378469 19.785539 
L 183.40985 19.39606 
L 184.352597 19.006581 
L 184.455418 18.617102 
L 185.344751 17.448664 
L 185.381473 17.059185 
L 186.129929 16.669706 
L 186.483793 16.280227 
L 187.13744 15.890748 
L 187.636187 15.11179 
L 187.926623 13.553873 
L 188.336571 12.774915 
L 188.474778 12.385436 
L 189.381471 11.995957 
L 189.694608 11.216998 
L 189.832147 10.827519 
L 192.407342 10.43804 
L 192.751191 10.048561 
L 193.269969 9.659082 
L 193.279984 9.269603 
L 194.957833 8.880124 
L 196.065494 8.490645 
L 198.621995 8.101166 
L 199.910594 7.711686 
L 200.452072 7.322207 
L 201.2259 6.932728 
L 207.505984 6.543249 
L 207.963336 6.15377 
L 212.495466 5.764291 
L 212.495466 5.764291 
" clip-path="url(#p6c65c00252)" style="fill: none; stroke-dasharray: 5.55,2.4; stroke-dashoffset: 0; stroke: #2ca02c; stroke-width: 1.5"/>
   </g>
   <g id="line2d_19">
    <path d="M 55.56881 120.420131 
L 55.605532 119.790154 
L 55.994114 119.160177 
L 56.434775 117.270245 
L 56.938197 116.640268 
L 57.106449 116.010291 
L 58.396383 115.380314 
L 59.005964 114.750337 
L 60.400055 114.12036 
L 60.573648 113.490382 
L 61.091759 112.860405 
L 61.10845 112.230428 
L 61.431602 110.970474 
L 61.456305 110.340497 
L 62.018482 109.080542 
L 62.285549 108.450565 
L 62.3196 107.820588 
L 62.744237 107.190611 
L 63.170209 104.670702 
L 63.514725 103.410748 
L 63.698334 102.780771 
L 63.746406 101.520817 
L 63.887952 100.89084 
L 63.911988 100.260862 
L 64.106947 99.630885 
L 64.368673 95.851022 
L 64.56697 95.221045 
L 64.645755 93.961091 
L 64.826025 93.331114 
L 64.830699 92.701137 
L 65.038343 90.811205 
L 65.070391 89.551251 
L 65.231967 88.921274 
L 65.238644 88.291297 
L 65.412237 87.66132 
L 65.466986 86.401365 
L 65.64926 85.771388 
L 65.797482 83.881457 
L 65.899635 81.991525 
L 66.10728 81.361548 
L 66.192074 80.101594 
L 66.470491 79.471617 
L 66.936523 76.321731 
L 67.201587 75.691754 
L 67.617544 73.171845 
L 67.686982 70.651937 
L 68.022819 70.02196 
L 68.175047 69.391982 
L 68.313254 68.132028 
L 68.47483 67.502051 
L 68.593007 65.61212 
L 68.795311 64.352165 
L 68.808664 63.722188 
L 69.004291 63.092211 
L 69.430263 59.312348 
L 69.928343 58.682371 
L 70.120631 58.052394 
L 70.413738 55.532485 
L 70.521232 54.902508 
L 70.752913 54.272531 
L 72.160357 52.3826 
L 72.235136 51.122645 
L 72.39404 50.492668 
L 72.791971 49.862691 
L 73.037672 49.232714 
L 73.048355 48.602737 
L 73.328776 47.972759 
L 73.409563 47.342782 
L 74.383691 45.452851 
L 74.406391 44.822874 
L 75.256333 44.192897 
L 76.334616 43.562919 
L 76.942194 42.932942 
L 78.101933 42.302965 
L 78.250823 41.672988 
L 80.778614 41.043011 
L 81.760753 40.413034 
L 83.938018 39.783057 
L 83.946698 39.153079 
L 84.36132 38.523102 
L 84.423413 37.893125 
L 86.053858 37.263148 
L 86.207421 36.003194 
L 91.344458 35.373217 
L 101.187886 34.743239 
L 126.72952 34.113262 
L 129.211242 33.483285 
L 130.701477 32.853308 
L 133.308052 32.223331 
L 134.148646 31.593354 
L 134.192044 30.963377 
L 134.555256 30.333399 
L 135.670929 29.703422 
L 136.024793 29.073445 
L 137.424892 28.443468 
L 139.936659 27.813491 
L 140.336592 27.183514 
L 149.440243 26.553537 
L 151.192872 25.923559 
L 152.5676 25.293582 
L 155.755714 24.663605 
L 155.81981 24.033628 
L 173.677255 23.403651 
L 180.321886 22.143697 
L 181.670575 21.513719 
L 182.274147 20.883742 
L 183.116744 20.253765 
L 184.858689 19.623788 
L 185.096379 18.363834 
L 186.05515 16.473902 
L 186.284828 15.843925 
L 186.345585 15.213948 
L 186.864363 14.583971 
L 186.891738 13.953994 
L 187.341078 12.064062 
L 187.345752 11.434085 
L 187.55807 10.804108 
L 188.077516 10.174131 
L 191.109396 9.544154 
L 191.867867 8.914177 
L 194.879716 8.284199 
L 194.931127 7.654222 
L 197.528355 7.024245 
L 204.782566 6.394268 
L 210.742838 5.764291 
L 210.742838 5.764291 
" clip-path="url(#p6c65c00252)" style="fill: none; stroke-dasharray: 9.6,2.4,1.5,2.4; stroke-dashoffset: 0; stroke: #d62728; stroke-width: 1.5"/>
   </g>
   <g id="line2d_20">
    <path d="M 50.206101 121.048702 
L 52.03017 120.932028 
L 52.70585 120.766153 
L 53.426931 119.848219 
L 53.597187 119.354811 
L 53.981096 117.774783 
L 56.919502 98.505189 
L 57.260013 95.602379 
L 57.703344 93.254829 
L 57.948378 91.84911 
L 58.033172 91.413337 
L 59.198252 84.760069 
L 59.234974 84.561863 
L 60.20376 79.152657 
L 60.282545 78.729535 
L 60.468824 77.62464 
L 60.68782 76.262499 
L 60.755922 75.860463 
L 61.055037 74.120183 
L 61.460979 71.637684 
L 61.569809 70.92639 
L 62.254168 66.103368 
L 62.406397 64.708895 
L 62.707515 63.113404 
L 62.827695 62.601723 
L 66.357655 48.218407 
L 66.553282 47.549285 
L 66.784295 46.798631 
L 66.996613 46.09296 
L 67.543433 43.998439 
L 67.884612 42.54352 
L 67.962061 42.353748 
L 68.416075 41.139207 
L 68.838041 39.843134 
L 69.112453 39.008137 
L 69.307412 38.485209 
L 69.400218 38.226557 
L 69.615207 37.571492 
L 69.690653 37.385937 
L 69.870256 36.958599 
L 69.982424 36.681672 
L 70.151344 36.19951 
L 70.491855 35.246433 
L 70.711517 34.854237 
L 70.915824 34.464853 
L 71.067384 34.19355 
L 71.220948 33.932086 
L 71.34914 33.679057 
L 71.940694 32.686619 
L 72.04485 32.533396 
L 72.259839 32.104651 
L 72.359322 31.899416 
L 73.554447 29.641832 
L 73.873593 29.283374 
L 74.027156 29.102036 
L 74.24081 28.941784 
L 74.395709 28.815269 
L 74.87643 28.437131 
L 75.064712 28.295153 
L 75.426588 28.022444 
L 77.403553 26.768542 
L 77.826186 26.592828 
L 78.081235 26.48037 
L 78.879766 26.169706 
L 79.146166 26.088175 
L 81.324098 25.534321 
L 82.299561 25.397967 
L 83.108775 25.270046 
L 85.066377 24.929862 
L 86.5713 24.284637 
L 87.370499 23.28236 
L 89.094417 19.394141 
L 89.25666 19.07926 
L 89.731372 18.334229 
L 89.816834 18.197874 
L 90.236129 17.570924 
L 90.368995 17.395209 
L 90.682799 16.990362 
L 90.789626 16.842761 
L 90.977241 16.533503 
L 91.273017 16.166611 
L 91.389192 16.00917 
L 92.243807 14.999864 
L 92.463469 14.841018 
L 93.269344 14.149404 
L 93.430252 14.008832 
L 93.639232 13.826089 
L 94.089908 13.466225 
L 94.345625 13.186487 
L 95.870579 12.504713 
L 96.287871 12.372575 
L 97.08106 12.050666 
L 97.429583 11.898848 
L 97.835525 11.758276 
L 98.238796 11.585373 
L 99.177538 11.06104 
L 99.451949 10.883919 
L 99.777771 10.588718 
L 99.929332 10.473449 
L 100.54826 10.196523 
L 101.07772 9.95755 
L 101.460962 9.763561 
L 101.616528 9.689058 
L 102.310903 9.365743 
L 102.444436 9.284211 
L 103.492007 8.848438 
L 103.947357 8.714895 
L 104.619698 8.485763 
L 105.103758 8.270688 
L 105.324756 8.198996 
L 106.431749 8.014847 
L 111.65625 7.475051 
L 114.9572 7.324639 
L 120.251139 7.112375 
L 128.755225 6.898706 
L 129.288691 6.884649 
L 143.112087 6.689254 
L 160.291182 6.519162 
L 164.146964 6.485425 
L 190.59863 6.322361 
L 190.599965 6.320956 
L 207.97936 6.226772 
L 207.97936 6.226772 
" clip-path="url(#p6c65c00252)" style="fill: none; stroke: #9467bd; stroke-width: 1.5; stroke-linecap: square"/>
   </g>
   <g id="patch_3">
    <path d="M 47.676976 126.814399 
L 47.676976 0 
" style="fill: none; stroke: #000000; stroke-width: 0.8; stroke-linejoin: miter; stroke-linecap: square"/>
   </g>
   <g id="patch_4">
    <path d="M 207.917267 126.814399 
L 207.917267 0 
" style="fill: none; stroke: #000000; stroke-width: 0.8; stroke-linejoin: miter; stroke-linecap: square"/>
   </g>
   <g id="patch_5">
    <path d="M 47.676976 126.814399 
L 207.917267 126.814399 
" style="fill: none; stroke: #000000; stroke-width: 0.8; stroke-linejoin: miter; stroke-linecap: square"/>
   </g>
   <g id="patch_6">
    <path d="M 47.676976 0 
L 207.917267 0 
" style="fill: none; stroke: #000000; stroke-width: 0.8; stroke-linejoin: miter; stroke-linecap: square"/>
   </g>
   <g id="legend_1">
    <g id="patch_7">
     <path d="M 71.725224 120.983399 
L 202.086267 120.983399 
L 202.086267 78.986748 
L 71.725224 78.986748 
z
" style="fill: #ffffff; opacity: 0.8; stroke: #000000; stroke-linejoin: miter"/>
    </g>
    <g id="line2d_21">
     <path d="M 76.390024 87.733248 
L 82.221024 87.733248 
L 88.052024 87.733248 
" style="fill: none; stroke: #9467bd; stroke-width: 1.5; stroke-linecap: square"/>
    </g>
    <g id="text_13">
     <!-- Auckland -->
     <g transform="translate(91.550624 91.814948) scale(0.11662 -0.11662)">
      <defs>
       <path id="CMR17-41" d="M 2323 4378 
C 2291 4461 2278 4480 2214 4480 
C 2150 4480 2138 4461 2106 4378 
L 749 566 
C 627 223 371 153 147 153 
L 147 -13 
C 262 0 518 0 640 0 
C 800 0 1056 0 1210 -13 
L 1210 153 
C 909 153 864 361 864 439 
C 864 497 877 530 890 569 
L 1229 1536 
L 2906 1536 
L 3290 442 
C 3322 365 3322 352 3322 327 
C 3322 153 3046 153 2925 153 
L 2925 0 
C 3110 0 3443 0 3642 0 
C 3808 0 4128 0 4282 -13 
L 4282 153 
C 3942 153 3827 153 3744 387 
L 2323 4378 
z
M 2067 3893 
L 2848 1702 
L 1286 1702 
L 2067 3893 
z
" transform="scale(0.015625)"/>
       <path id="CMR17-75" d="M 1882 2693 
L 1882 2528 
C 2259 2528 2317 2489 2317 2186 
L 2317 1032 
C 2317 500 2029 38 1555 38 
C 1030 38 986 348 986 678 
L 986 2763 
L 211 2693 
L 211 2528 
C 467 2528 640 2528 646 2274 
L 646 1058 
C 646 633 646 361 813 183 
C 896 101 1056 -64 1517 -64 
C 2061 -64 2272 377 2323 506 
L 2330 506 
L 2330 -63 
L 3091 -63 
L 3091 128 
C 2714 128 2656 166 2656 473 
L 2656 2763 
L 1882 2693 
z
" transform="scale(0.015625)"/>
       <path id="CMR17-6b" d="M 1670 1673 
C 1664 1686 1632 1724 1632 1743 
C 1632 1756 2086 2171 2144 2222 
C 2509 2528 2739 2560 2906 2560 
L 2906 2733 
C 2867 2733 2854 2733 2848 2720 
L 2534 2720 
C 2355 2720 2080 2720 1907 2733 
L 1907 2566 
C 1997 2559 2061 2508 2061 2419 
C 2061 2291 1933 2170 1926 2170 
L 960 1289 
L 960 4396 
L 198 4326 
L 198 4160 
C 576 4160 634 4122 634 3817 
L 634 426 
C 634 184 608 153 198 153 
L 198 -13 
C 352 0 634 0 794 0 
C 954 0 1235 0 1389 -13 
L 1389 153 
C 979 153 954 178 954 428 
L 954 1130 
L 1395 1532 
L 2042 574 
C 2118 459 2182 369 2182 286 
C 2182 172 2067 153 1990 153 
L 1990 -13 
C 2144 0 2419 0 2579 0 
C 2694 0 2931 0 3040 0 
L 3040 153 
C 2739 153 2669 210 2477 491 
L 1670 1673 
z
" transform="scale(0.015625)"/>
       <path id="CMR17-61" d="M 2304 1653 
C 2304 2072 2304 2294 2035 2543 
C 1798 2752 1523 2816 1306 2816 
C 800 2816 435 2407 435 1971 
C 435 1728 627 1728 666 1728 
C 749 1728 896 1778 896 1954 
C 896 2112 774 2181 666 2181 
C 640 2181 608 2174 589 2168 
C 723 2592 1069 2714 1293 2714 
C 1613 2714 1965 2429 1965 1885 
L 1965 1600 
C 1587 1600 1133 1549 774 1357 
C 371 1133 256 813 256 570 
C 256 77 832 -64 1171 -64 
C 1523 -64 1850 139 1990 511 
C 2003 233 2182 -18 2464 -18 
C 2598 -18 2938 70 2938 567 
L 2938 920 
L 2822 920 
L 2822 562 
C 2822 178 2650 128 2566 128 
C 2304 128 2304 458 2304 738 
L 2304 1653 
z
M 1965 870 
C 1965 317 1568 38 1216 38 
C 896 38 646 275 646 570 
C 646 761 730 1100 1101 1305 
C 1408 1478 1760 1504 1965 1504 
L 1965 870 
z
" transform="scale(0.015625)"/>
       <path id="CMR17-64" d="M 1869 4326 
L 1869 4160 
C 2246 4160 2304 4122 2304 3820 
L 2304 2345 
C 2278 2377 2016 2790 1498 2790 
C 845 2790 211 2208 211 1364 
C 211 525 806 -64 1434 -64 
C 1978 -64 2259 337 2291 380 
L 2291 -63 
L 3066 -63 
L 3066 128 
C 2688 128 2630 166 2630 473 
L 2630 4396 
L 1869 4326 
z
M 2291 755 
C 2291 563 2176 390 2029 262 
C 1811 70 1594 38 1472 38 
C 1286 38 621 134 621 1356 
C 621 2612 1363 2688 1530 2688 
C 1824 2688 2061 2522 2208 2291 
C 2291 2157 2291 2138 2291 2023 
L 2291 755 
z
" transform="scale(0.015625)"/>
      </defs>
      <use xlink:href="#CMR17-41" transform="scale(0.996264)"/>
      <use xlink:href="#CMR17-75" transform="translate(69.07243 0) scale(0.996264)"/>
      <use xlink:href="#CMR17-63" transform="translate(119.9678 0) scale(0.996264)"/>
      <use xlink:href="#CMR17-6b" transform="translate(157.851006 0) scale(0.996264)"/>
      <use xlink:href="#CMR17-6c" transform="translate(206.143922 0) scale(0.996264)"/>
      <use xlink:href="#CMR17-61" transform="translate(231.01498 0) scale(0.996264)"/>
      <use xlink:href="#CMR17-6e" transform="translate(276.705458 0) scale(0.996264)"/>
      <use xlink:href="#CMR17-64" transform="translate(327.600827 0) scale(0.996264)"/>
     </g>
    </g>
    <g id="line2d_22">
     <path d="M 76.390024 98.855505 
L 82.221024 98.855505 
L 88.052024 98.855505 
" style="fill: none; stroke-dasharray: 9.6,2.4,1.5,2.4; stroke-dashoffset: 0; stroke: #d62728; stroke-width: 1.5"/>
    </g>
    <g id="text_14">
     <!-- Kellevie -->
     <g transform="translate(91.550624 102.937205) scale(0.11662 -0.11662)">
      <defs>
       <path id="CMR17-4b" d="M 2362 2675 
L 3469 3782 
C 3699 4006 3942 4186 4301 4186 
L 4301 4352 
C 4173 4352 4013 4352 3885 4352 
C 3712 4352 3411 4352 3245 4358 
L 3245 4192 
C 3411 4180 3437 4065 3437 4019 
C 3437 3975 3411 3905 3386 3867 
L 1261 1738 
L 1261 3900 
C 1261 4186 1331 4186 1773 4186 
L 1773 4352 
C 1587 4352 1248 4352 1050 4352 
C 851 4352 512 4352 326 4352 
L 326 4186 
C 768 4186 838 4186 838 3899 
L 838 446 
C 838 160 768 160 326 160 
L 326 0 
C 512 0 851 0 1050 0 
C 1248 0 1587 0 1773 0 
L 1773 160 
C 1331 160 1261 160 1261 447 
L 1261 1579 
L 2080 2390 
L 3290 537 
C 3328 473 3373 390 3373 326 
C 3373 160 3194 160 3110 160 
L 3110 0 
C 3315 0 3610 0 3821 0 
C 3974 0 4237 0 4384 -6 
L 4384 160 
C 4077 160 3981 198 3789 493 
L 2362 2675 
z
" transform="scale(0.015625)"/>
       <path id="CMR17-76" d="M 2502 2163 
C 2560 2304 2662 2560 3034 2560 
L 3034 2726 
C 2912 2726 2752 2726 2630 2726 
C 2496 2726 2285 2726 2157 2732 
L 2157 2566 
C 2317 2553 2406 2477 2406 2311 
C 2406 2253 2406 2240 2368 2151 
L 1664 377 
L 902 2286 
C 864 2369 864 2381 864 2407 
C 864 2560 1075 2560 1171 2560 
L 1171 2732 
C 1018 2726 736 2726 576 2726 
C 403 2726 205 2726 64 2732 
L 64 2560 
C 307 2560 442 2560 518 2362 
L 1446 44 
C 1485 -51 1491 -64 1549 -64 
C 1606 -64 1613 -51 1651 44 
L 2502 2163 
z
" transform="scale(0.015625)"/>
      </defs>
      <use xlink:href="#CMR17-4b" transform="scale(0.996264)"/>
      <use xlink:href="#CMR17-65" transform="translate(71.674777 0) scale(0.996264)"/>
      <use xlink:href="#CMR17-6c" transform="translate(112.160438 0) scale(0.996264)"/>
      <use xlink:href="#CMR17-6c" transform="translate(137.031496 0) scale(0.996264)"/>
      <use xlink:href="#CMR17-65" transform="translate(161.902555 0) scale(0.996264)"/>
      <use xlink:href="#CMR17-76" transform="translate(202.388215 0) scale(0.996264)"/>
      <use xlink:href="#CMR17-69" transform="translate(250.681131 0) scale(0.996264)"/>
      <use xlink:href="#CMR17-65" transform="translate(275.55219 0) scale(0.996264)"/>
     </g>
    </g>
    <g id="line2d_23">
     <path d="M 76.390024 109.977762 
L 82.221024 109.977762 
L 88.052024 109.977762 
" style="fill: none; stroke-dasharray: 5.55,2.4; stroke-dashoffset: 0; stroke: #2ca02c; stroke-width: 1.5"/>
    </g>
    <g id="text_15">
     <!-- Noojee -->
     <g transform="translate(91.550624 114.059462) scale(0.11662 -0.11662)">
      <defs>
       <path id="CMR17-4e" d="M 1312 4250 
C 1267 4320 1261 4320 1139 4320 
L 326 4320 
L 326 4160 
L 448 4160 
C 704 4160 819 4129 838 4122 
L 838 610 
C 838 451 838 153 326 153 
L 326 -13 
C 474 0 742 0 902 0 
C 1062 0 1331 0 1478 -13 
L 1478 153 
C 966 153 966 451 966 610 
L 966 4033 
C 1011 3995 1011 3982 1056 3919 
L 3430 76 
C 3475 0 3494 0 3526 0 
C 3590 0 3590 19 3590 139 
L 3590 3705 
C 3590 3863 3590 4160 4102 4160 
L 4102 4326 
C 3955 4320 3686 4320 3526 4320 
C 3366 4320 3098 4320 2950 4326 
L 2950 4160 
C 3462 4160 3462 3862 3462 3703 
L 3462 763 
L 1312 4250 
z
" transform="scale(0.015625)"/>
       <path id="CMR17-6f" d="M 2758 1356 
C 2758 2176 2163 2816 1466 2816 
C 768 2816 173 2176 173 1356 
C 173 551 768 -64 1466 -64 
C 2163 -64 2758 551 2758 1356 
z
M 1466 51 
C 1165 51 909 230 762 480 
C 602 767 582 1126 582 1408 
C 582 1677 595 2010 762 2298 
C 890 2509 1139 2714 1466 2714 
C 1754 2714 1997 2554 2150 2330 
C 2349 2029 2349 1607 2349 1408 
C 2349 1158 2336 775 2163 467 
C 1984 173 1709 51 1466 51 
z
" transform="scale(0.015625)"/>
       <path id="CMR17-6a" d="M 1165 3963 
C 1165 4103 1050 4224 902 4224 
C 762 4224 640 4110 640 3963 
C 640 3823 755 3702 902 3702 
C 1043 3702 1165 3817 1165 3963 
z
M 365 2754 
L 365 2588 
C 787 2588 838 2543 838 2235 
L 838 -359 
C 838 -678 781 -1178 403 -1178 
C 358 -1178 186 -1178 45 -1082 
C 90 -1075 250 -1031 250 -851 
C 250 -729 166 -621 19 -621 
C -122 -621 -211 -717 -211 -858 
C -211 -1114 70 -1280 397 -1280 
C 838 -1280 1165 -877 1165 -332 
L 1165 2825 
L 365 2754 
z
" transform="scale(0.015625)"/>
      </defs>
      <use xlink:href="#CMR17-4e" transform="scale(0.996264)"/>
      <use xlink:href="#CMR17-6f" transform="translate(69.07243 0) scale(0.996264)"/>
      <use xlink:href="#CMR17-6f" transform="translate(117.365346 0) scale(0.996264)"/>
      <use xlink:href="#CMR17-6a" transform="translate(168.260624 0) scale(0.996264)"/>
      <use xlink:href="#CMR17-65" transform="translate(195.734137 0) scale(0.996264)"/>
      <use xlink:href="#CMR17-65" transform="translate(236.219797 0) scale(0.996264)"/>
     </g>
    </g>
    <g id="line2d_24">
     <path d="M 145.469088 87.733248 
L 151.300088 87.733248 
L 157.131088 87.733248 
" style="fill: none; stroke-dasharray: 1.5,2.475; stroke-dashoffset: 0; stroke: #ff7f0e; stroke-width: 1.5"/>
    </g>
    <g id="text_16">
     <!-- Perth -->
     <g transform="translate(160.629688 91.814948) scale(0.11662 -0.11662)">
      <defs>
       <path id="CMR17-68" d="M 2656 1933 
C 2656 2259 2592 2790 1837 2790 
C 1312 2790 1056 2368 979 2157 
L 973 2157 
L 973 4396 
L 211 4326 
L 211 4160 
C 589 4160 646 4122 646 3817 
L 646 426 
C 646 184 621 153 211 153 
L 211 -13 
C 365 0 646 0 813 0 
C 979 0 1267 0 1421 -13 
L 1421 153 
C 1011 153 986 178 986 428 
L 986 1658 
C 986 2247 1344 2688 1792 2688 
C 2266 2688 2317 2266 2317 1958 
L 2317 428 
C 2317 184 2291 153 1882 153 
L 1882 -13 
C 2035 0 2317 0 2483 0 
C 2650 0 2938 0 3091 -13 
L 3091 153 
C 2682 153 2656 178 2656 428 
L 2656 1933 
z
" transform="scale(0.015625)"/>
      </defs>
      <use xlink:href="#CMR17-50" transform="scale(0.996264)"/>
      <use xlink:href="#CMR17-65" transform="translate(59.983847 0) scale(0.996264)"/>
      <use xlink:href="#CMR17-72" transform="translate(100.469507 0) scale(0.996264)"/>
      <use xlink:href="#CMR17-74" transform="translate(135.750275 0) scale(0.996264)"/>
      <use xlink:href="#CMR17-68" transform="translate(171.031043 0) scale(0.996264)"/>
     </g>
    </g>
    <g id="line2d_25">
     <path d="M 145.469088 98.855505 
L 151.300088 98.855505 
L 157.131088 98.855505 
" style="fill: none; stroke: #1f77b4; stroke-width: 1.5; stroke-linecap: square"/>
    </g>
    <g id="text_17">
     <!-- Sydney -->
     <g transform="translate(160.629688 102.937205) scale(0.11662 -0.11662)">
      <defs>
       <path id="CMR17-53" d="M 2803 4290 
C 2803 4404 2797 4411 2758 4411 
C 2720 4411 2707 4385 2682 4328 
L 2490 3907 
C 2246 4257 1875 4416 1472 4416 
C 819 4416 294 3901 294 3253 
C 294 3056 339 2776 557 2510 
C 794 2218 1018 2167 1530 2033 
C 1722 1982 2042 1899 2106 1874 
C 2470 1722 2662 1341 2662 985 
C 2662 527 2336 38 1779 38 
C 1094 38 454 419 410 1311 
C 403 1413 397 1419 352 1419 
C 301 1419 294 1413 294 1285 
L 294 -1 
C 294 -115 301 -122 339 -122 
C 384 -122 397 -90 486 108 
C 493 127 493 140 614 381 
C 934 -39 1472 -128 1779 -128 
C 2477 -128 2970 451 2970 1124 
C 2970 1454 2848 1708 2778 1823 
C 2509 2230 2221 2306 1914 2382 
C 1869 2402 1856 2402 1498 2490 
C 1152 2579 1005 2624 845 2796 
C 666 2992 602 3196 602 3399 
C 602 3812 934 4263 1478 4263 
C 2157 4263 2579 3786 2675 2993 
C 2694 2878 2701 2872 2746 2872 
C 2803 2872 2803 2891 2803 2999 
L 2803 4290 
z
" transform="scale(0.015625)"/>
       <path id="CMR17-79" d="M 2496 2197 
C 2656 2586 2944 2586 3034 2586 
L 3034 2752 
C 2912 2752 2752 2752 2630 2752 
C 2496 2752 2285 2752 2157 2758 
L 2157 2592 
C 2400 2573 2406 2394 2406 2343 
C 2406 2280 2394 2248 2362 2171 
L 1664 449 
L 902 2306 
C 870 2382 870 2426 870 2433 
C 870 2573 1018 2586 1171 2586 
L 1171 2758 
C 1018 2752 742 2752 582 2752 
C 410 2752 205 2752 64 2758 
L 64 2586 
C 410 2586 448 2554 531 2350 
L 1485 15 
C 1197 -738 1030 -1178 627 -1178 
C 557 -1178 397 -1159 282 -1044 
C 429 -1031 493 -942 493 -833 
C 493 -725 416 -629 288 -629 
C 147 -629 77 -725 77 -840 
C 77 -1095 339 -1280 627 -1280 
C 998 -1280 1229 -922 1357 -604 
L 2496 2197 
z
" transform="scale(0.015625)"/>
      </defs>
      <use xlink:href="#CMR17-53" transform="scale(0.996264)"/>
      <use xlink:href="#CMR17-79" transform="translate(50.89537 0) scale(0.996264)"/>
      <use xlink:href="#CMR17-64" transform="translate(99.188286 0) scale(0.996264)"/>
      <use xlink:href="#CMR17-6e" transform="translate(150.083655 0) scale(0.996264)"/>
      <use xlink:href="#CMR17-65" transform="translate(200.979025 0) scale(0.996264)"/>
      <use xlink:href="#CMR17-79" transform="translate(241.464686 0) scale(0.996264)"/>
     </g>
    </g>
   </g>
  </g>
 </g>
 <defs>
  <clipPath id="p6c65c00252">
   <rect x="47.676976" y="0" width="160.240292" height="126.814399"/>
  </clipPath>
 </defs>
</svg>
