<?xml version="1.0" encoding="utf-8" standalone="no"?>
<!DOCTYPE svg PUBLIC "-//W3C//DTD SVG 1.1//EN"
  "http://www.w3.org/Graphics/SVG/1.1/DTD/svg11.dtd">
<svg xmlns:xlink="http://www.w3.org/1999/xlink" width="262.08pt" height="104.644815pt" viewBox="0 0 262.08 104.644815" xmlns="http://www.w3.org/2000/svg" version="1.1">
 <metadata>
  <rdf:RDF xmlns:dc="http://purl.org/dc/elements/1.1/" xmlns:cc="http://creativecommons.org/ns#" xmlns:rdf="http://www.w3.org/1999/02/22-rdf-syntax-ns#">
   <cc:Work>
    <dc:type rdf:resource="http://purl.org/dc/dcmitype/StillImage"/>
    <dc:date>2023-10-12T10:29:05.504751</dc:date>
    <dc:format>image/svg+xml</dc:format>
    <dc:creator>
     <cc:Agent>
      <dc:title>Matplotlib v3.7.0, https://matplotlib.org/</dc:title>
     </cc:Agent>
    </dc:creator>
   </cc:Work>
  </rdf:RDF>
 </metadata>
 <defs>
  <style type="text/css">*{stroke-linejoin: round; stroke-linecap: butt}</style>
 </defs>
 <g id="figure_1">
  <g id="patch_1">
   <path d="M 0 104.644815 
L 262.08 104.644815 
L 262.08 0 
L 0 0 
z
" style="fill: #ffffff"/>
  </g>
  <g id="axes_1">
   <g id="patch_2">
    <path d="M 42.437408 71.062871 
L 262.08 71.062871 
L 262.08 0.964815 
L 42.437408 0.964815 
z
" style="fill: #ffffff"/>
   </g>
   <g id="matplotlib.axis_1">
    <g id="xtick_1">
     <g id="line2d_1">
      <defs>
       <path id="mfc382ee635" d="M 0 0 
L 0 3.5 
" style="stroke: #000000; stroke-width: 0.8"/>
      </defs>
      <g>
       <use xlink:href="#mfc382ee635" x="57.585173" y="71.062871" style="stroke: #000000; stroke-width: 0.8"/>
      </g>
     </g>
     <g id="text_1">
      <!-- 25 -->
      <g transform="translate(51.732182 86.365051) scale(0.12 -0.12)">
       <defs>
        <path id="CMR17-32" d="M 2669 989 
L 2554 989 
C 2490 536 2438 459 2413 420 
C 2381 369 1920 369 1830 369 
L 602 369 
C 832 619 1280 1072 1824 1597 
C 2214 1967 2669 2402 2669 3035 
C 2669 3790 2067 4224 1395 4224 
C 691 4224 262 3604 262 3030 
C 262 2780 448 2748 525 2748 
C 589 2748 781 2787 781 3010 
C 781 3207 614 3264 525 3264 
C 486 3264 448 3258 422 3245 
C 544 3790 915 4058 1306 4058 
C 1862 4058 2227 3617 2227 3035 
C 2227 2479 1901 2000 1536 1584 
L 262 146 
L 262 0 
L 2515 0 
L 2669 989 
z
" transform="scale(0.015625)"/>
        <path id="CMR17-35" d="M 730 3692 
C 794 3666 1056 3584 1325 3584 
C 1920 3584 2246 3911 2432 4100 
C 2432 4157 2432 4192 2394 4192 
C 2387 4192 2374 4192 2323 4163 
C 2099 4058 1837 3973 1517 3973 
C 1325 3973 1037 3999 723 4139 
C 653 4171 640 4171 634 4171 
C 602 4171 595 4164 595 4037 
L 595 2203 
C 595 2089 595 2057 659 2057 
C 691 2057 704 2070 736 2114 
C 941 2401 1222 2522 1542 2522 
C 1766 2522 2246 2382 2246 1289 
C 2246 1085 2246 715 2054 421 
C 1894 159 1645 25 1370 25 
C 947 25 518 320 403 814 
C 429 807 480 795 506 795 
C 589 795 749 840 749 1038 
C 749 1210 627 1280 506 1280 
C 358 1280 262 1190 262 1011 
C 262 454 704 -128 1382 -128 
C 2042 -128 2669 440 2669 1264 
C 2669 2030 2170 2624 1549 2624 
C 1222 2624 947 2503 730 2274 
L 730 3692 
z
" transform="scale(0.015625)"/>
       </defs>
       <use xlink:href="#CMR17-32" transform="scale(0.996264)"/>
       <use xlink:href="#CMR17-35" transform="translate(45.690477 0) scale(0.996264)"/>
      </g>
     </g>
    </g>
    <g id="xtick_2">
     <g id="line2d_2">
      <g>
       <use xlink:href="#mfc382ee635" x="95.454585" y="71.062871" style="stroke: #000000; stroke-width: 0.8"/>
      </g>
     </g>
     <g id="text_2">
      <!-- 50 -->
      <g transform="translate(89.601595 86.365051) scale(0.12 -0.12)">
       <defs>
        <path id="CMR17-30" d="M 2688 2025 
C 2688 2416 2682 3080 2413 3591 
C 2176 4039 1798 4198 1466 4198 
C 1158 4198 768 4058 525 3597 
C 269 3118 243 2524 243 2025 
C 243 1661 250 1106 448 619 
C 723 -39 1216 -128 1466 -128 
C 1760 -128 2208 -7 2470 600 
C 2662 1042 2688 1559 2688 2025 
z
M 1466 -26 
C 1056 -26 813 325 723 812 
C 653 1188 653 1738 653 2096 
C 653 2588 653 2997 736 3387 
C 858 3929 1216 4096 1466 4096 
C 1728 4096 2067 3923 2189 3400 
C 2272 3036 2278 2607 2278 2096 
C 2278 1680 2278 1169 2202 792 
C 2067 95 1690 -26 1466 -26 
z
" transform="scale(0.015625)"/>
       </defs>
       <use xlink:href="#CMR17-35" transform="scale(0.996264)"/>
       <use xlink:href="#CMR17-30" transform="translate(45.690477 0) scale(0.996264)"/>
      </g>
     </g>
    </g>
    <g id="xtick_3">
     <g id="line2d_3">
      <g>
       <use xlink:href="#mfc382ee635" x="133.323998" y="71.062871" style="stroke: #000000; stroke-width: 0.8"/>
      </g>
     </g>
     <g id="text_3">
      <!-- 75 -->
      <g transform="translate(127.471007 86.365051) scale(0.12 -0.12)">
       <defs>
        <path id="CMR17-37" d="M 2886 3941 
L 2886 4081 
L 1382 4081 
C 634 4081 621 4165 595 4288 
L 480 4288 
L 294 3094 
L 410 3094 
C 429 3215 474 3540 550 3661 
C 589 3712 1062 3712 1171 3712 
L 2579 3712 
L 1869 2661 
C 1395 1954 1069 999 1069 165 
C 1069 89 1069 -128 1299 -128 
C 1530 -128 1530 89 1530 171 
L 1530 465 
C 1530 1508 1709 2196 2003 2636 
L 2886 3941 
z
" transform="scale(0.015625)"/>
       </defs>
       <use xlink:href="#CMR17-37" transform="scale(0.996264)"/>
       <use xlink:href="#CMR17-35" transform="translate(45.690477 0) scale(0.996264)"/>
      </g>
     </g>
    </g>
    <g id="xtick_4">
     <g id="line2d_4">
      <g>
       <use xlink:href="#mfc382ee635" x="171.19341" y="71.062871" style="stroke: #000000; stroke-width: 0.8"/>
      </g>
     </g>
     <g id="text_4">
      <!-- 100 -->
      <g transform="translate(162.413925 86.365051) scale(0.12 -0.12)">
       <defs>
        <path id="CMR17-31" d="M 1702 4058 
C 1702 4192 1696 4192 1606 4192 
C 1357 3916 979 3827 621 3827 
C 602 3827 570 3827 563 3808 
C 557 3795 557 3782 557 3648 
C 755 3648 1088 3686 1344 3839 
L 1344 461 
C 1344 236 1331 160 781 160 
L 589 160 
L 589 0 
C 896 0 1216 0 1523 0 
C 1830 0 2150 0 2458 0 
L 2458 160 
L 2266 160 
C 1715 160 1702 230 1702 458 
L 1702 4058 
z
" transform="scale(0.015625)"/>
       </defs>
       <use xlink:href="#CMR17-31" transform="scale(0.996264)"/>
       <use xlink:href="#CMR17-30" transform="translate(45.690477 0) scale(0.996264)"/>
       <use xlink:href="#CMR17-30" transform="translate(91.380954 0) scale(0.996264)"/>
      </g>
     </g>
    </g>
    <g id="xtick_5">
     <g id="line2d_5">
      <g>
       <use xlink:href="#mfc382ee635" x="209.062823" y="71.062871" style="stroke: #000000; stroke-width: 0.8"/>
      </g>
     </g>
     <g id="text_5">
      <!-- 125 -->
      <g transform="translate(200.283337 86.365051) scale(0.12 -0.12)">
       <use xlink:href="#CMR17-31" transform="scale(0.996264)"/>
       <use xlink:href="#CMR17-32" transform="translate(45.690477 0) scale(0.996264)"/>
       <use xlink:href="#CMR17-35" transform="translate(91.380954 0) scale(0.996264)"/>
      </g>
     </g>
    </g>
    <g id="xtick_6">
     <g id="line2d_6">
      <g>
       <use xlink:href="#mfc382ee635" x="246.932235" y="71.062871" style="stroke: #000000; stroke-width: 0.8"/>
      </g>
     </g>
     <g id="text_6">
      <!-- 150 -->
      <g transform="translate(238.15275 86.365051) scale(0.12 -0.12)">
       <use xlink:href="#CMR17-31" transform="scale(0.996264)"/>
       <use xlink:href="#CMR17-35" transform="translate(45.690477 0) scale(0.996264)"/>
       <use xlink:href="#CMR17-30" transform="translate(91.380954 0) scale(0.996264)"/>
      </g>
     </g>
    </g>
    <g id="text_7">
     <!-- RTT [ms] -->
     <g transform="translate(127.595887 101.656023) scale(0.12 -0.12)">
      <defs>
       <path id="CMR17-52" d="M 2509 2146 
C 3117 2268 3629 2676 3629 3186 
C 3629 3785 2950 4326 2054 4326 
L 333 4326 
L 333 4160 
C 774 4160 845 4160 845 3873 
L 845 415 
C 845 128 774 128 333 128 
L 333 -26 
C 518 -26 851 -26 1050 -26 
C 1248 -26 1581 -26 1766 -26 
L 1766 128 
C 1325 128 1254 128 1254 417 
L 1254 2112 
L 2003 2112 
C 2368 2112 2573 1964 2662 1881 
C 2918 1632 2918 1459 2918 1024 
C 2918 595 2918 377 3110 160 
C 3354 -102 3680 -128 3821 -128 
C 4294 -128 4365 396 4365 503 
C 4365 540 4365 585 4307 585 
C 4256 585 4250 547 4250 522 
C 4218 112 4032 -26 3834 -26 
C 3482 -26 3443 375 3405 764 
C 3386 898 3373 993 3360 1133 
C 3322 1452 3270 1917 2509 2146 
z
M 1984 2214 
L 1254 2214 
L 1254 3913 
C 1254 4129 1267 4160 1523 4160 
L 1990 4160 
C 2522 4160 3142 3977 3142 3190 
C 3142 2372 2464 2214 1984 2214 
z
" transform="scale(0.015625)"/>
       <path id="CMR17-54" d="M 3981 4326 
L 288 4326 
L 179 2918 
L 294 2918 
C 378 3976 467 4160 1453 4160 
C 1568 4160 1754 4160 1805 4154 
C 1926 4135 1926 4058 1926 3912 
L 1926 459 
C 1926 230 1907 160 1376 160 
L 1197 160 
L 1197 0 
C 1504 0 1824 0 2138 0 
C 2451 0 2771 0 3078 0 
L 3078 160 
L 2899 160 
C 2368 160 2349 230 2349 459 
L 2349 3912 
C 2349 4052 2349 4129 2464 4154 
C 2515 4160 2701 4160 2816 4160 
C 3795 4160 3891 3976 3974 2918 
L 4090 2918 
L 3981 4326 
z
" transform="scale(0.015625)"/>
       <path id="CMR17-5b" d="M 1504 -1600 
L 1504 -1377 
L 902 -1377 
L 902 4544 
L 1504 4544 
L 1504 4767 
L 678 4767 
L 678 -1600 
L 1504 -1600 
z
" transform="scale(0.015625)"/>
       <path id="CMR17-6d" d="M 4326 1933 
C 4326 2252 4269 2790 3507 2790 
C 3072 2790 2771 2496 2656 2151 
L 2650 2151 
C 2573 2676 2195 2790 1837 2790 
C 1331 2790 1069 2400 973 2144 
L 966 2144 
L 966 2790 
L 211 2720 
L 211 2554 
C 589 2554 646 2515 646 2208 
L 646 428 
C 646 184 621 153 211 153 
L 211 -13 
C 365 0 646 0 813 0 
C 979 0 1267 0 1421 -13 
L 1421 153 
C 1011 153 986 178 986 428 
L 986 1658 
C 986 2247 1344 2688 1792 2688 
C 2266 2688 2317 2266 2317 1958 
L 2317 428 
C 2317 184 2291 153 1882 153 
L 1882 -13 
C 2035 0 2317 0 2483 0 
C 2650 0 2938 0 3091 -13 
L 3091 153 
C 2682 153 2656 178 2656 428 
L 2656 1658 
C 2656 2247 3014 2688 3462 2688 
C 3936 2688 3987 2266 3987 1958 
L 3987 428 
C 3987 184 3962 153 3552 153 
L 3552 -13 
C 3706 0 3987 0 4154 0 
C 4320 0 4608 0 4762 -13 
L 4762 153 
C 4352 153 4326 178 4326 428 
L 4326 1933 
z
" transform="scale(0.015625)"/>
       <path id="CMR17-73" d="M 1978 2697 
C 1978 2813 1971 2819 1933 2819 
C 1907 2819 1901 2813 1824 2717 
C 1805 2691 1747 2626 1728 2601 
C 1523 2819 1235 2819 1126 2819 
C 416 2819 160 2447 160 2076 
C 160 1498 813 1365 998 1325 
C 1402 1243 1542 1217 1677 1101 
C 1760 1025 1901 884 1901 654 
C 1901 384 1747 38 1158 38 
C 602 38 403 460 288 1021 
C 269 1110 269 1117 218 1117 
C 166 1117 160 1110 160 983 
L 160 63 
C 160 -51 166 -58 205 -58 
C 237 -58 243 -51 275 0 
C 314 57 410 211 448 276 
C 576 103 800 -64 1158 -64 
C 1792 -64 2131 283 2131 784 
C 2131 1112 1958 1285 1875 1362 
C 1683 1561 1459 1606 1190 1657 
C 838 1735 390 1825 390 2217 
C 390 2383 480 2737 1126 2737 
C 1811 2737 1850 2094 1862 1888 
C 1869 1856 1901 1849 1920 1849 
C 1978 1849 1978 1869 1978 1978 
L 1978 2697 
z
" transform="scale(0.015625)"/>
       <path id="CMR17-5d" d="M 915 4767 
L 90 4767 
L 90 4544 
L 691 4544 
L 691 -1377 
L 90 -1377 
L 90 -1600 
L 915 -1600 
L 915 4767 
z
" transform="scale(0.015625)"/>
      </defs>
      <use xlink:href="#CMR17-52" transform="scale(0.996264)"/>
      <use xlink:href="#CMR17-54" transform="translate(59.983847 0) scale(0.996264)"/>
      <use xlink:href="#CMR17-54" transform="translate(126.493727 0) scale(0.996264)"/>
      <use xlink:href="#CMR17-5b" transform="translate(223.079574 0) scale(0.996264)"/>
      <use xlink:href="#CMR17-6d" transform="translate(247.950633 0) scale(0.996264)"/>
      <use xlink:href="#CMR17-73" transform="translate(324.870222 0) scale(0.996264)"/>
      <use xlink:href="#CMR17-5d" transform="translate(360.67156 0) scale(0.996264)"/>
     </g>
    </g>
   </g>
   <g id="matplotlib.axis_2">
    <g id="ytick_1">
     <g id="line2d_7">
      <path d="M 42.437408 67.876596 
L 262.08 67.876596 
" clip-path="url(#p0f2c078c8c)" style="fill: none; stroke: #b0b0b0; stroke-opacity: 0.7; stroke-width: 0.5; stroke-linecap: square"/>
     </g>
     <g id="line2d_8">
      <defs>
       <path id="mbea4c27a0f" d="M 0 0 
L -3.5 0 
" style="stroke: #000000; stroke-width: 0.8"/>
      </defs>
      <g>
       <use xlink:href="#mbea4c27a0f" x="42.437408" y="67.876596" style="stroke: #000000; stroke-width: 0.8"/>
      </g>
     </g>
     <g id="text_8">
      <!-- 0.00 -->
      <g transform="translate(14.626776 72.027686) scale(0.12 -0.12)">
       <defs>
        <path id="CMR17-2e" d="M 1062 261 
C 1062 420 934 522 800 522 
C 672 522 538 420 538 261 
C 538 102 666 0 800 0 
C 928 0 1062 102 1062 261 
z
" transform="scale(0.015625)"/>
       </defs>
       <use xlink:href="#CMR17-30" transform="scale(0.996264)"/>
       <use xlink:href="#CMR17-2e" transform="translate(45.690477 0) scale(0.996264)"/>
       <use xlink:href="#CMR17-30" transform="translate(70.561536 0) scale(0.996264)"/>
       <use xlink:href="#CMR17-30" transform="translate(116.252013 0) scale(0.996264)"/>
      </g>
     </g>
    </g>
    <g id="ytick_2">
     <g id="line2d_9">
      <path d="M 42.437408 51.945219 
L 262.08 51.945219 
" clip-path="url(#p0f2c078c8c)" style="fill: none; stroke: #b0b0b0; stroke-opacity: 0.7; stroke-width: 0.5; stroke-linecap: square"/>
     </g>
     <g id="line2d_10">
      <g>
       <use xlink:href="#mbea4c27a0f" x="42.437408" y="51.945219" style="stroke: #000000; stroke-width: 0.8"/>
      </g>
     </g>
     <g id="text_9">
      <!-- 0.25 -->
      <g transform="translate(14.626776 56.096309) scale(0.12 -0.12)">
       <use xlink:href="#CMR17-30" transform="scale(0.996264)"/>
       <use xlink:href="#CMR17-2e" transform="translate(45.690477 0) scale(0.996264)"/>
       <use xlink:href="#CMR17-32" transform="translate(70.561536 0) scale(0.996264)"/>
       <use xlink:href="#CMR17-35" transform="translate(116.252013 0) scale(0.996264)"/>
      </g>
     </g>
    </g>
    <g id="ytick_3">
     <g id="line2d_11">
      <path d="M 42.437408 36.013843 
L 262.08 36.013843 
" clip-path="url(#p0f2c078c8c)" style="fill: none; stroke: #b0b0b0; stroke-opacity: 0.7; stroke-width: 0.5; stroke-linecap: square"/>
     </g>
     <g id="line2d_12">
      <g>
       <use xlink:href="#mbea4c27a0f" x="42.437408" y="36.013843" style="stroke: #000000; stroke-width: 0.8"/>
      </g>
     </g>
     <g id="text_10">
      <!-- 0.50 -->
      <g transform="translate(14.626776 40.164933) scale(0.12 -0.12)">
       <use xlink:href="#CMR17-30" transform="scale(0.996264)"/>
       <use xlink:href="#CMR17-2e" transform="translate(45.690477 0) scale(0.996264)"/>
       <use xlink:href="#CMR17-35" transform="translate(70.561536 0) scale(0.996264)"/>
       <use xlink:href="#CMR17-30" transform="translate(116.252013 0) scale(0.996264)"/>
      </g>
     </g>
    </g>
    <g id="ytick_4">
     <g id="line2d_13">
      <path d="M 42.437408 20.082466 
L 262.08 20.082466 
" clip-path="url(#p0f2c078c8c)" style="fill: none; stroke: #b0b0b0; stroke-opacity: 0.7; stroke-width: 0.5; stroke-linecap: square"/>
     </g>
     <g id="line2d_14">
      <g>
       <use xlink:href="#mbea4c27a0f" x="42.437408" y="20.082466" style="stroke: #000000; stroke-width: 0.8"/>
      </g>
     </g>
     <g id="text_11">
      <!-- 0.75 -->
      <g transform="translate(14.626776 24.233556) scale(0.12 -0.12)">
       <use xlink:href="#CMR17-30" transform="scale(0.996264)"/>
       <use xlink:href="#CMR17-2e" transform="translate(45.690477 0) scale(0.996264)"/>
       <use xlink:href="#CMR17-37" transform="translate(70.561536 0) scale(0.996264)"/>
       <use xlink:href="#CMR17-35" transform="translate(116.252013 0) scale(0.996264)"/>
      </g>
     </g>
    </g>
    <g id="ytick_5">
     <g id="line2d_15">
      <path d="M 42.437408 4.15109 
L 262.08 4.15109 
" clip-path="url(#p0f2c078c8c)" style="fill: none; stroke: #b0b0b0; stroke-opacity: 0.7; stroke-width: 0.5; stroke-linecap: square"/>
     </g>
     <g id="line2d_16">
      <g>
       <use xlink:href="#mbea4c27a0f" x="42.437408" y="4.15109" style="stroke: #000000; stroke-width: 0.8"/>
      </g>
     </g>
     <g id="text_12">
      <!-- 1.00 -->
      <g transform="translate(14.626776 8.30218) scale(0.12 -0.12)">
       <use xlink:href="#CMR17-31" transform="scale(0.996264)"/>
       <use xlink:href="#CMR17-2e" transform="translate(45.690477 0) scale(0.996264)"/>
       <use xlink:href="#CMR17-30" transform="translate(70.561536 0) scale(0.996264)"/>
       <use xlink:href="#CMR17-30" transform="translate(116.252013 0) scale(0.996264)"/>
      </g>
     </g>
    </g>
    <g id="text_13">
     <!-- Percentile -->
     <g transform="translate(8.30218 61.131892) rotate(-90) scale(0.12 -0.12)">
      <defs>
       <path id="CMR17-50" d="M 1267 2042 
L 2291 2042 
C 3117 2042 3718 2578 3718 3184 
C 3718 3791 3130 4352 2291 4352 
L 333 4352 
L 333 4186 
C 774 4186 845 4186 845 3899 
L 845 446 
C 845 160 774 160 333 160 
L 333 0 
C 518 0 858 0 1056 0 
C 1254 0 1594 0 1779 0 
L 1779 160 
C 1338 160 1267 160 1267 446 
L 1267 2042 
z
M 1254 2176 
L 1254 3938 
C 1254 4155 1267 4186 1523 4186 
L 2170 4186 
C 2995 4186 3232 3714 3232 3184 
C 3232 2604 2950 2176 2170 2176 
L 1254 2176 
z
" transform="scale(0.015625)"/>
       <path id="CMR17-65" d="M 2438 1472 
C 2464 1498 2464 1511 2464 1576 
C 2464 2238 2118 2816 1389 2816 
C 710 2816 173 2169 173 1383 
C 173 551 781 -64 1459 -64 
C 2176 -64 2458 607 2458 740 
C 2458 784 2419 784 2406 784 
C 2362 784 2355 771 2330 696 
C 2189 265 1837 51 1504 51 
C 1229 51 954 203 781 480 
C 582 803 582 1176 582 1472 
L 2438 1472 
z
M 589 1568 
C 634 2505 1126 2714 1382 2714 
C 1818 2714 2112 2297 2118 1568 
L 589 1568 
z
" transform="scale(0.015625)"/>
       <path id="CMR17-72" d="M 960 1497 
C 960 2112 1222 2688 1702 2688 
C 1747 2688 1792 2682 1837 2662 
C 1837 2662 1696 2617 1696 2452 
C 1696 2298 1818 2234 1914 2234 
C 1990 2234 2131 2279 2131 2458 
C 2131 2663 1926 2790 1709 2790 
C 1222 2790 1011 2317 947 2093 
L 941 2093 
L 941 2790 
L 198 2720 
L 198 2554 
C 576 2554 634 2515 634 2208 
L 634 428 
C 634 184 608 153 198 153 
L 198 -13 
C 352 0 646 0 813 0 
C 998 0 1325 0 1498 -13 
L 1498 153 
C 1037 153 960 153 960 440 
L 960 1497 
z
" transform="scale(0.015625)"/>
       <path id="CMR17-63" d="M 2234 2240 
C 2112 2240 1933 2240 1933 2017 
C 1933 1838 2080 1787 2163 1787 
C 2208 1787 2394 1807 2394 2024 
C 2394 2467 1958 2803 1466 2803 
C 787 2803 211 2178 211 1363 
C 211 516 813 -64 1466 -64 
C 2259 -64 2458 677 2458 748 
C 2458 774 2451 793 2406 793 
C 2362 793 2355 787 2330 703 
C 2163 180 1798 51 1523 51 
C 1114 51 621 427 621 1369 
C 621 2338 1094 2688 1472 2688 
C 1722 2688 2093 2573 2234 2240 
z
" transform="scale(0.015625)"/>
       <path id="CMR17-6e" d="M 2656 1933 
C 2656 2259 2592 2790 1837 2790 
C 1331 2790 1069 2400 973 2144 
L 966 2144 
L 966 2790 
L 211 2720 
L 211 2554 
C 589 2554 646 2515 646 2208 
L 646 428 
C 646 184 621 153 211 153 
L 211 -13 
C 365 0 646 0 813 0 
C 979 0 1267 0 1421 -13 
L 1421 153 
C 1011 153 986 178 986 428 
L 986 1658 
C 986 2247 1344 2688 1792 2688 
C 2266 2688 2317 2266 2317 1958 
L 2317 428 
C 2317 184 2291 153 1882 153 
L 1882 -13 
C 2035 0 2317 0 2483 0 
C 2650 0 2938 0 3091 -13 
L 3091 153 
C 2682 153 2656 178 2656 428 
L 2656 1933 
z
" transform="scale(0.015625)"/>
       <path id="CMR17-74" d="M 966 2560 
L 1862 2560 
L 1862 2725 
L 966 2725 
L 966 3904 
L 851 3904 
C 838 3245 614 2668 70 2668 
L 70 2560 
L 627 2560 
L 627 771 
C 627 650 627 -64 1370 -64 
C 1747 -64 1965 306 1965 777 
L 1965 1140 
L 1850 1140 
L 1850 783 
C 1850 344 1677 51 1408 51 
C 1222 51 966 178 966 758 
L 966 2560 
z
" transform="scale(0.015625)"/>
       <path id="CMR17-69" d="M 992 3909 
C 992 4049 877 4170 730 4170 
C 589 4170 467 4056 467 3909 
C 467 3769 582 3648 730 3648 
C 870 3648 992 3763 992 3909 
z
M 243 2706 
L 243 2541 
C 602 2541 653 2502 653 2197 
L 653 427 
C 653 184 627 153 218 153 
L 218 -13 
C 371 0 646 0 806 0 
C 960 0 1222 0 1370 -13 
L 1370 153 
C 992 153 979 191 979 420 
L 979 2776 
L 243 2706 
z
" transform="scale(0.015625)"/>
       <path id="CMR17-6c" d="M 979 4396 
L 218 4326 
L 218 4160 
C 595 4160 653 4122 653 3817 
L 653 426 
C 653 184 627 153 218 153 
L 218 -13 
C 371 0 653 0 813 0 
C 979 0 1261 0 1414 -13 
L 1414 153 
C 1005 153 979 178 979 426 
L 979 4396 
z
" transform="scale(0.015625)"/>
      </defs>
      <use xlink:href="#CMR17-50" transform="scale(0.996264)"/>
      <use xlink:href="#CMR17-65" transform="translate(59.983847 0) scale(0.996264)"/>
      <use xlink:href="#CMR17-72" transform="translate(100.469507 0) scale(0.996264)"/>
      <use xlink:href="#CMR17-63" transform="translate(135.750275 0) scale(0.996264)"/>
      <use xlink:href="#CMR17-65" transform="translate(176.235935 0) scale(0.996264)"/>
      <use xlink:href="#CMR17-6e" transform="translate(216.721596 0) scale(0.996264)"/>
      <use xlink:href="#CMR17-74" transform="translate(265.014512 0) scale(0.996264)"/>
      <use xlink:href="#CMR17-69" transform="translate(300.295279 0) scale(0.996264)"/>
      <use xlink:href="#CMR17-6c" transform="translate(325.166338 0) scale(0.996264)"/>
      <use xlink:href="#CMR17-65" transform="translate(350.037396 0) scale(0.996264)"/>
     </g>
    </g>
   </g>
   <g id="line2d_17">
    <path d="M 42.378331 67.876353 
L 47.427081 67.764781 
L 47.990578 67.700493 
L 48.75554 67.506983 
L 49.932522 66.817633 
L 51.33369 65.473425 
L 53.348343 62.596601 
L 55.962847 57.035732 
L 56.668733 55.208963 
L 57.583658 53.22771 
L 57.698781 52.859393 
L 58.827289 50.214861 
L 59.33171 48.906603 
L 60.961609 45.112183 
L 63.642764 39.767981 
L 63.757887 39.441281 
L 65.15754 36.60664 
L 65.272663 36.288684 
L 65.964916 34.912009 
L 66.599608 33.606746 
L 69.065664 28.4699 
L 69.865466 27.311105 
L 70.418359 26.536579 
L 73.502444 22.92069 
L 74.246199 22.107381 
L 74.361322 21.924639 
L 75.760976 20.595167 
L 75.876099 20.431372 
L 76.88191 19.518311 
L 77.275752 19.186915 
L 77.390875 19.035021 
L 77.681712 18.790016 
L 78.113424 18.407368 
L 78.890504 17.642072 
L 80.305305 16.21795 
L 80.420428 16.043386 
L 80.896068 15.697254 
L 82.863763 14.465023 
L 83.451496 14.126582 
L 84.00136 13.85332 
L 84.245239 13.729522 
L 85.096543 13.315297 
L 86.990014 12.527491 
L 87.635309 12.275928 
L 88.315443 11.97959 
L 88.868337 11.756608 
L 89.393964 11.546662 
L 89.507573 11.472658 
L 91.070822 10.769301 
L 91.978173 10.364549 
L 92.423517 10.13347 
L 92.53864 10.045379 
L 92.867347 9.916966 
L 93.247556 9.788067 
L 93.785301 9.618928 
L 96.967847 8.664331 
L 97.08297 8.621014 
L 97.914582 8.428475 
L 99.311206 8.09214 
L 99.79139 7.984373 
L 105.814142 6.810277 
L 106.877515 6.642271 
L 110.152461 6.229584 
L 112.174688 6.010245 
L 118.444348 5.451495 
L 121.161857 5.291991 
L 127.486049 5.065203 
L 141.991549 4.788135 
L 156.489475 4.636242 
L 173.285316 4.44759 
L 262.154224 4.247683 
L 262.154224 4.247683 
" clip-path="url(#p0f2c078c8c)" style="fill: none; stroke: #1f77b4; stroke-width: 1.5; stroke-linecap: square"/>
   </g>
   <g id="line2d_18">
    <path d="M 45.833536 67.87643 
L 50.3506 67.764489 
L 52.460684 67.190049 
L 53.681594 66.256437 
L 54.694979 65.223139 
L 55.372084 64.453299 
L 55.820458 63.856504 
L 58.465258 59.905132 
L 60.195132 56.25663 
L 60.599578 55.407968 
L 60.723789 55.085394 
L 61.010082 54.54639 
L 61.826547 52.872083 
L 62.127987 52.184542 
L 62.244625 51.853357 
L 62.961114 50.284863 
L 64.544056 46.557373 
L 66.672317 40.686121 
L 66.78744 40.204081 
L 67.550887 38.079859 
L 68.541551 35.114261 
L 69.361045 33.457838 
L 70.61225 30.863664 
L 70.807657 30.515919 
L 71.489306 29.291693 
L 71.768025 28.822569 
L 72.24518 28.005038 
L 72.426953 27.699686 
L 72.813221 27.028042 
L 74.246199 24.820692 
L 74.361322 24.580914 
L 76.438081 21.604884 
L 76.936442 20.959072 
L 77.233339 20.597584 
L 77.440863 20.299517 
L 78.049803 19.62688 
L 78.790529 18.872771 
L 78.904137 18.713802 
L 81.203568 16.849891 
L 81.656486 16.63727 
L 82.856189 16.107705 
L 83.360609 15.883824 
L 91.978173 12.940912 
L 92.873406 12.577271 
L 93.920116 12.293445 
L 94.765362 12.045056 
L 95.495484 11.854293 
L 96.311949 11.660715 
L 96.999657 11.473927 
L 97.564669 11.347745 
L 98.390222 11.146219 
L 98.858288 11.016394 
L 99.652031 10.81818 
L 101.178925 10.434336 
L 102.422557 10.187272 
L 102.795192 10.109775 
L 107.265297 9.245713 
L 108.399865 9.072503 
L 113.171411 8.439276 
L 114.263565 8.314088 
L 129.687019 6.739634 
L 133.196756 6.436599 
L 137.285138 6.101274 
L 139.91479 5.918294 
L 140.676723 5.864642 
L 144.225844 5.624533 
L 144.666644 5.596879 
L 158.464743 4.953386 
L 169.077267 4.759477 
L 176.169451 4.676515 
L 224.483247 4.306416 
L 262.192093 4.251108 
L 262.192093 4.251108 
" clip-path="url(#p0f2c078c8c)" style="fill: none; stroke-dasharray: 1.5,2.475; stroke-dashoffset: 0; stroke: #ff7f0e; stroke-width: 1.5"/>
   </g>
   <g id="line2d_19">
    <path d="M 42.435893 67.85818 
L 45.729017 67.539771 
L 46.775727 67.025469 
L 47.533116 66.468611 
L 49.596241 64.501575 
L 51.524552 61.93789 
L 51.64119 61.730739 
L 52.654575 60.275332 
L 54.023933 58.188068 
L 54.628329 56.941149 
L 56.068881 53.50611 
L 56.184004 53.092474 
L 56.771738 51.912157 
L 57.257981 51.049103 
L 59.352917 46.852822 
L 61.623567 42.25216 
L 62.127987 41.17289 
L 62.244625 40.856961 
L 63.39434 38.604912 
L 63.860892 37.616193 
L 64.165362 37.00447 
L 65.110582 35.046593 
L 68.099236 27.799806 
L 68.770282 26.195643 
L 69.277732 25.294231 
L 69.660971 24.633941 
L 70.269911 23.527953 
L 71.560501 21.626946 
L 76.425963 15.676027 
L 78.220973 14.240944 
L 78.790529 13.873968 
L 78.904137 13.752501 
L 80.808211 12.452243 
L 84.799647 11.062197 
L 85.305583 10.935483 
L 86.056912 10.770124 
L 87.39143 10.490073 
L 93.565659 9.436279 
L 95.82722 9.182659 
L 97.195063 9.037242 
L 99.874703 8.757286 
L 101.374332 8.586966 
L 109.440516 7.682596 
L 113.347125 7.325257 
L 114.540769 7.212759 
L 118.174718 6.875267 
L 118.29287 6.863053 
L 119.566797 6.735384 
L 121.732928 6.48768 
L 123.290118 6.3061 
L 125.830398 6.074903 
L 133.084663 5.500869 
L 138.292464 5.307744 
L 152.673753 4.89468 
L 155.277653 4.841819 
L 190.332611 4.511196 
L 262.090603 4.287919 
L 262.090603 4.287919 
" clip-path="url(#p0f2c078c8c)" style="fill: none; stroke-dasharray: 5.55,2.4; stroke-dashoffset: 0; stroke: #2ca02c; stroke-width: 1.5"/>
   </g>
   <g id="line2d_20">
    <path d="M 43.375054 67.876486 
L 48.246575 67.762415 
L 49.203914 67.581685 
L 50.671733 66.960183 
L 51.000439 66.800242 
L 51.489712 66.542842 
L 52.344046 66.00252 
L 53.67402 65.000637 
L 54.334462 64.331065 
L 55.026715 63.413002 
L 55.694731 62.357219 
L 56.124928 61.384266 
L 57.367045 59.358939 
L 57.57154 59.013868 
L 59.664961 54.825276 
L 60.122423 53.810742 
L 60.613211 52.88124 
L 60.728334 52.589299 
L 61.593271 50.970864 
L 61.959847 50.209441 
L 64.633428 44.320243 
L 65.733155 41.683315 
L 67.05404 38.436215 
L 67.996231 35.891137 
L 68.741501 33.834351 
L 70.915206 29.665998 
L 71.242397 29.055496 
L 72.431497 27.12653 
L 74.246199 24.350012 
L 74.361322 24.113841 
L 77.889237 19.435197 
L 81.235378 16.190957 
L 81.830685 15.810466 
L 84.842061 14.189281 
L 86.203845 13.576909 
L 86.993044 13.246798 
L 87.358105 13.108967 
L 92.423517 10.7961 
L 92.537126 10.70436 
L 93.82923 10.262379 
L 96.581579 9.347616 
L 97.116295 9.165455 
L 99.186994 8.531633 
L 99.712622 8.382143 
L 101.415231 7.881861 
L 102.364995 7.631831 
L 102.987569 7.48146 
L 108.848239 6.318317 
L 112.270119 5.933315 
L 124.767025 5.136803 
L 127.055852 4.992482 
L 128.252526 4.930772 
L 131.677435 4.793382 
L 139.034705 4.636191 
L 155.512444 4.477241 
L 211.14867 4.31807 
L 262.217845 4.26109 
L 262.217845 4.26109 
" clip-path="url(#p0f2c078c8c)" style="fill: none; stroke-dasharray: 9.6,2.4,1.5,2.4; stroke-dashoffset: 0; stroke: #d62728; stroke-width: 1.5"/>
   </g>
   <g id="line2d_21">
    <path d="M 42.291989 67.87568 
L 46.999914 67.763154 
L 47.88 67.569809 
L 48.567708 67.229343 
L 50.067337 66.120713 
L 50.494504 65.777358 
L 50.771708 65.556111 
L 51.526067 64.780478 
L 54.084524 60.650349 
L 55.459941 57.377657 
L 56.333967 54.765888 
L 56.768708 53.797263 
L 57.236774 52.768254 
L 57.583658 51.990649 
L 57.698781 51.621223 
L 58.616735 49.442294 
L 60.975242 42.978997 
L 61.888653 40.620815 
L 62.630893 38.670743 
L 64.678871 34.09812 
L 68.892979 25.533682 
L 71.763481 22.365131 
L 72.010389 22.114362 
L 73.188885 20.914133 
L 76.904632 17.778275 
L 78.046774 16.958042 
L 78.439101 16.672182 
L 78.840516 16.342073 
L 81.127829 14.778055 
L 82.448714 14.168288 
L 82.878911 13.986499 
L 84.760263 13.148579 
L 87.45808 12.263099 
L 88.647179 11.985131 
L 89.359124 11.838713 
L 90.908741 11.522063 
L 91.023864 11.485 
L 97.201122 10.448593 
L 98.591687 10.207758 
L 102.555857 9.583123 
L 104.411458 9.298955 
L 106.869941 8.954472 
L 109.220874 8.624222 
L 113.030537 8.204628 
L 114.893712 8.050319 
L 117.34462 7.820476 
L 122.484257 7.470215 
L 125.680435 7.284129 
L 128.728166 7.125874 
L 129.956649 7.065841 
L 172.00836 6.003011 
L 178.223488 5.863005 
L 189.969065 5.595818 
L 190.896108 5.578343 
L 200.889089 5.456728 
L 229.335076 5.290511 
L 235.145759 5.265991 
L 262.095148 5.154945 
L 262.095148 5.154945 
" clip-path="url(#p0f2c078c8c)" style="fill: none; stroke: #9467bd; stroke-width: 1.5; stroke-linecap: square"/>
   </g>
   <g id="patch_3">
    <path d="M 42.437408 71.062871 
L 42.437408 0.964815 
" style="fill: none; stroke: #000000; stroke-width: 0.8; stroke-linejoin: miter; stroke-linecap: square"/>
   </g>
   <g id="patch_4">
    <path d="M 262.08 71.062871 
L 262.08 0.964815 
" style="fill: none; stroke: #000000; stroke-width: 0.8; stroke-linejoin: miter; stroke-linecap: square"/>
   </g>
   <g id="patch_5">
    <path d="M 42.437408 71.062871 
L 262.08 71.062871 
" style="fill: none; stroke: #000000; stroke-width: 0.8; stroke-linejoin: miter; stroke-linecap: square"/>
   </g>
   <g id="patch_6">
    <path d="M 42.437408 0.964815 
L 262.08 0.964815 
" style="fill: none; stroke: #000000; stroke-width: 0.8; stroke-linejoin: miter; stroke-linecap: square"/>
   </g>
   <g id="legend_1">
    <g id="patch_7">
     <path d="M 120.293725 66.064871 
L 257.082 66.064871 
L 257.082 30.067742 
L 120.293725 30.067742 
z
" style="fill: #ffffff; opacity: 0.8; stroke: #000000; stroke-linejoin: miter"/>
    </g>
    <g id="line2d_22">
     <path d="M 124.292125 37.564742 
L 129.290125 37.564742 
L 134.288125 37.564742 
" style="fill: none; stroke: #1f77b4; stroke-width: 1.5; stroke-linecap: square"/>
    </g>
    <g id="text_14">
     <!-- Dallas -->
     <g transform="translate(137.286925 41.063342) scale(0.09996 -0.09996)">
      <defs>
       <path id="CMR17-44" d="M 333 4352 
L 333 4186 
C 774 4186 845 4186 845 3900 
L 845 452 
C 845 166 774 166 333 166 
L 333 0 
L 2368 0 
C 3398 0 4224 943 4224 2141 
C 4224 3346 3411 4352 2368 4352 
L 333 4352 
z
M 1523 166 
C 1267 166 1254 197 1254 414 
L 1254 3938 
C 1254 4155 1267 4186 1523 4186 
L 2240 4186 
C 2771 4186 3750 3874 3750 2141 
C 3750 1242 3488 879 3366 707 
C 3213 510 2848 166 2240 166 
L 1523 166 
z
" transform="scale(0.015625)"/>
       <path id="CMR17-61" d="M 2304 1653 
C 2304 2072 2304 2294 2035 2543 
C 1798 2752 1523 2816 1306 2816 
C 800 2816 435 2407 435 1971 
C 435 1728 627 1728 666 1728 
C 749 1728 896 1778 896 1954 
C 896 2112 774 2181 666 2181 
C 640 2181 608 2174 589 2168 
C 723 2592 1069 2714 1293 2714 
C 1613 2714 1965 2429 1965 1885 
L 1965 1600 
C 1587 1600 1133 1549 774 1357 
C 371 1133 256 813 256 570 
C 256 77 832 -64 1171 -64 
C 1523 -64 1850 139 1990 511 
C 2003 233 2182 -18 2464 -18 
C 2598 -18 2938 70 2938 567 
L 2938 920 
L 2822 920 
L 2822 562 
C 2822 178 2650 128 2566 128 
C 2304 128 2304 458 2304 738 
L 2304 1653 
z
M 1965 870 
C 1965 317 1568 38 1216 38 
C 896 38 646 275 646 570 
C 646 761 730 1100 1101 1305 
C 1408 1478 1760 1504 1965 1504 
L 1965 870 
z
" transform="scale(0.015625)"/>
      </defs>
      <use xlink:href="#CMR17-44" transform="scale(0.996264)"/>
      <use xlink:href="#CMR17-61" transform="translate(70.393556 0) scale(0.996264)"/>
      <use xlink:href="#CMR17-6c" transform="translate(116.084033 0) scale(0.996264)"/>
      <use xlink:href="#CMR17-6c" transform="translate(140.955092 0) scale(0.996264)"/>
      <use xlink:href="#CMR17-61" transform="translate(165.82615 0) scale(0.996264)"/>
      <use xlink:href="#CMR17-73" transform="translate(211.516627 0) scale(0.996264)"/>
     </g>
    </g>
    <g id="line2d_23">
     <path d="M 124.292125 47.098105 
L 129.290125 47.098105 
L 134.288125 47.098105 
" style="fill: none; stroke-dasharray: 1.5,2.475; stroke-dashoffset: 0; stroke: #ff7f0e; stroke-width: 1.5"/>
    </g>
    <g id="text_15">
     <!-- Denver -->
     <g transform="translate(137.286925 50.596705) scale(0.09996 -0.09996)">
      <defs>
       <path id="CMR17-76" d="M 2502 2163 
C 2560 2304 2662 2560 3034 2560 
L 3034 2726 
C 2912 2726 2752 2726 2630 2726 
C 2496 2726 2285 2726 2157 2732 
L 2157 2566 
C 2317 2553 2406 2477 2406 2311 
C 2406 2253 2406 2240 2368 2151 
L 1664 377 
L 902 2286 
C 864 2369 864 2381 864 2407 
C 864 2560 1075 2560 1171 2560 
L 1171 2732 
C 1018 2726 736 2726 576 2726 
C 403 2726 205 2726 64 2732 
L 64 2560 
C 307 2560 442 2560 518 2362 
L 1446 44 
C 1485 -51 1491 -64 1549 -64 
C 1606 -64 1613 -51 1651 44 
L 2502 2163 
z
" transform="scale(0.015625)"/>
      </defs>
      <use xlink:href="#CMR17-44" transform="scale(0.996264)"/>
      <use xlink:href="#CMR17-65" transform="translate(70.393556 0) scale(0.996264)"/>
      <use xlink:href="#CMR17-6e" transform="translate(110.879216 0) scale(0.996264)"/>
      <use xlink:href="#CMR17-76" transform="translate(159.172132 0) scale(0.996264)"/>
      <use xlink:href="#CMR17-65" transform="translate(204.862594 0) scale(0.996264)"/>
      <use xlink:href="#CMR17-72" transform="translate(245.348255 0) scale(0.996264)"/>
     </g>
    </g>
    <g id="line2d_24">
     <path d="M 124.292125 56.631468 
L 129.290125 56.631468 
L 134.288125 56.631468 
" style="fill: none; stroke-dasharray: 5.55,2.4; stroke-dashoffset: 0; stroke: #2ca02c; stroke-width: 1.5"/>
    </g>
    <g id="text_16">
     <!-- Los Angeles -->
     <g transform="translate(137.286925 60.130068) scale(0.09996 -0.09996)">
      <defs>
       <path id="CMR17-4c" d="M 3469 1615 
L 3354 1615 
C 3302 983 3219 166 2125 166 
L 1530 166 
C 1274 166 1261 197 1261 414 
L 1261 3898 
C 1261 4129 1274 4192 1760 4192 
L 1901 4192 
L 1901 4352 
C 1638 4352 1331 4352 1069 4352 
C 870 4352 512 4352 326 4352 
L 326 4192 
C 768 4192 838 4192 838 3905 
L 838 452 
C 838 166 768 166 326 166 
L 326 0 
L 3315 0 
L 3469 1615 
z
" transform="scale(0.015625)"/>
       <path id="CMR17-6f" d="M 2758 1356 
C 2758 2176 2163 2816 1466 2816 
C 768 2816 173 2176 173 1356 
C 173 551 768 -64 1466 -64 
C 2163 -64 2758 551 2758 1356 
z
M 1466 51 
C 1165 51 909 230 762 480 
C 602 767 582 1126 582 1408 
C 582 1677 595 2010 762 2298 
C 890 2509 1139 2714 1466 2714 
C 1754 2714 1997 2554 2150 2330 
C 2349 2029 2349 1607 2349 1408 
C 2349 1158 2336 775 2163 467 
C 1984 173 1709 51 1466 51 
z
" transform="scale(0.015625)"/>
       <path id="CMR17-41" d="M 2323 4378 
C 2291 4461 2278 4480 2214 4480 
C 2150 4480 2138 4461 2106 4378 
L 749 566 
C 627 223 371 153 147 153 
L 147 -13 
C 262 0 518 0 640 0 
C 800 0 1056 0 1210 -13 
L 1210 153 
C 909 153 864 361 864 439 
C 864 497 877 530 890 569 
L 1229 1536 
L 2906 1536 
L 3290 442 
C 3322 365 3322 352 3322 327 
C 3322 153 3046 153 2925 153 
L 2925 0 
C 3110 0 3443 0 3642 0 
C 3808 0 4128 0 4282 -13 
L 4282 153 
C 3942 153 3827 153 3744 387 
L 2323 4378 
z
M 2067 3893 
L 2848 1702 
L 1286 1702 
L 2067 3893 
z
" transform="scale(0.015625)"/>
       <path id="CMR17-67" d="M 710 1164 
C 832 1068 1043 960 1299 960 
C 1805 960 2240 1357 2240 1888 
C 2240 2054 2189 2310 1997 2509 
C 2176 2692 2438 2752 2586 2752 
C 2611 2752 2650 2752 2682 2734 
C 2656 2728 2598 2703 2598 2605 
C 2598 2527 2656 2471 2739 2471 
C 2835 2471 2886 2533 2886 2614 
C 2886 2731 2790 2854 2586 2854 
C 2330 2854 2106 2738 1926 2580 
C 1734 2753 1504 2816 1299 2816 
C 794 2816 358 2419 358 1888 
C 358 1522 570 1292 634 1228 
C 442 1004 442 743 442 711 
C 442 545 506 302 723 168 
C 390 85 128 -169 128 -486 
C 128 -943 736 -1280 1466 -1280 
C 2170 -1280 2803 -956 2803 -479 
C 2803 384 1856 384 1363 384 
C 1216 384 954 384 922 391 
C 723 423 589 602 589 826 
C 589 883 589 1024 710 1164 
z
M 1299 1068 
C 736 1068 736 1760 736 1889 
C 736 2016 736 2708 1299 2708 
C 1862 2708 1862 2016 1862 1889 
C 1862 1760 1862 1068 1299 1068 
z
M 1466 -1171 
C 826 -1171 384 -835 384 -486 
C 384 -289 493 -105 634 -4 
C 794 104 858 104 1293 104 
C 1818 104 2547 104 2547 -486 
C 2547 -835 2106 -1171 1466 -1171 
z
" transform="scale(0.015625)"/>
      </defs>
      <use xlink:href="#CMR17-4c" transform="scale(0.996264)"/>
      <use xlink:href="#CMR17-6f" transform="translate(57.381408 0) scale(0.996264)"/>
      <use xlink:href="#CMR17-73" transform="translate(103.071885 0) scale(0.996264)"/>
      <use xlink:href="#CMR17-41" transform="translate(168.949189 0) scale(0.996264)"/>
      <use xlink:href="#CMR17-6e" transform="translate(238.021619 0) scale(0.996264)"/>
      <use xlink:href="#CMR17-67" transform="translate(288.916989 0) scale(0.996264)"/>
      <use xlink:href="#CMR17-65" transform="translate(334.607466 0) scale(0.996264)"/>
      <use xlink:href="#CMR17-6c" transform="translate(375.093126 0) scale(0.996264)"/>
      <use xlink:href="#CMR17-65" transform="translate(399.964185 0) scale(0.996264)"/>
      <use xlink:href="#CMR17-73" transform="translate(440.449845 0) scale(0.996264)"/>
     </g>
    </g>
    <g id="line2d_25">
     <path d="M 195.712426 37.564742 
L 200.710426 37.564742 
L 205.708426 37.564742 
" style="fill: none; stroke-dasharray: 9.6,2.4,1.5,2.4; stroke-dashoffset: 0; stroke: #d62728; stroke-width: 1.5"/>
    </g>
    <g id="text_17">
     <!-- New York -->
     <g transform="translate(208.707226 41.063342) scale(0.09996 -0.09996)">
      <defs>
       <path id="CMR17-4e" d="M 1312 4250 
C 1267 4320 1261 4320 1139 4320 
L 326 4320 
L 326 4160 
L 448 4160 
C 704 4160 819 4129 838 4122 
L 838 610 
C 838 451 838 153 326 153 
L 326 -13 
C 474 0 742 0 902 0 
C 1062 0 1331 0 1478 -13 
L 1478 153 
C 966 153 966 451 966 610 
L 966 4033 
C 1011 3995 1011 3982 1056 3919 
L 3430 76 
C 3475 0 3494 0 3526 0 
C 3590 0 3590 19 3590 139 
L 3590 3705 
C 3590 3863 3590 4160 4102 4160 
L 4102 4326 
C 3955 4320 3686 4320 3526 4320 
C 3366 4320 3098 4320 2950 4326 
L 2950 4160 
C 3462 4160 3462 3862 3462 3703 
L 3462 763 
L 1312 4250 
z
" transform="scale(0.015625)"/>
       <path id="CMR17-77" d="M 3725 2183 
C 3853 2560 4109 2560 4205 2560 
L 4205 2732 
C 4077 2732 3949 2732 3821 2732 
C 3699 2732 3424 2732 3315 2738 
L 3315 2560 
C 3514 2560 3622 2445 3622 2286 
C 3622 2241 3610 2184 3597 2140 
L 2995 407 
L 2342 2275 
C 2330 2319 2310 2370 2310 2395 
C 2310 2560 2528 2560 2630 2560 
L 2630 2738 
C 2483 2732 2214 2732 2061 2732 
C 1901 2732 1734 2732 1587 2738 
L 1587 2560 
C 1939 2560 1939 2547 2074 2149 
L 1485 451 
L 851 2281 
C 819 2363 819 2376 819 2395 
C 819 2560 1037 2560 1139 2560 
L 1139 2738 
C 986 2732 717 2732 557 2732 
C 416 2732 198 2732 64 2738 
L 64 2560 
C 346 2560 416 2541 486 2331 
L 1274 49 
C 1299 -33 1318 -52 1370 -52 
C 1414 -52 1440 -39 1472 56 
L 2131 1980 
L 2797 56 
C 2829 -39 2854 -52 2899 -52 
C 2950 -52 2970 -33 2995 50 
L 3725 2183 
z
" transform="scale(0.015625)"/>
       <path id="CMR17-59" d="M 3706 3766 
C 3955 4160 4301 4160 4416 4160 
L 4416 4332 
C 4269 4319 4102 4319 3942 4319 
C 3782 4319 3526 4319 3373 4332 
L 3373 4160 
C 3533 4160 3616 4077 3616 3957 
C 3616 3881 3584 3830 3533 3747 
L 2381 1912 
L 1120 3912 
C 1075 3988 1069 3994 1069 4039 
C 1069 4160 1293 4160 1382 4160 
L 1382 4319 
C 1178 4319 864 4319 653 4319 
C 486 4319 166 4319 13 4332 
L 13 4160 
C 378 4160 480 4141 595 3958 
L 2010 1728 
L 2010 445 
C 2010 160 1939 160 1498 160 
L 1498 0 
C 1683 0 2016 0 2214 0 
C 2413 0 2752 0 2938 0 
L 2938 160 
C 2477 160 2419 160 2419 471 
L 2419 1728 
L 3706 3766 
z
" transform="scale(0.015625)"/>
       <path id="CMR17-6b" d="M 1670 1673 
C 1664 1686 1632 1724 1632 1743 
C 1632 1756 2086 2171 2144 2222 
C 2509 2528 2739 2560 2906 2560 
L 2906 2733 
C 2867 2733 2854 2733 2848 2720 
L 2534 2720 
C 2355 2720 2080 2720 1907 2733 
L 1907 2566 
C 1997 2559 2061 2508 2061 2419 
C 2061 2291 1933 2170 1926 2170 
L 960 1289 
L 960 4396 
L 198 4326 
L 198 4160 
C 576 4160 634 4122 634 3817 
L 634 426 
C 634 184 608 153 198 153 
L 198 -13 
C 352 0 634 0 794 0 
C 954 0 1235 0 1389 -13 
L 1389 153 
C 979 153 954 178 954 428 
L 954 1130 
L 1395 1532 
L 2042 574 
C 2118 459 2182 369 2182 286 
C 2182 172 2067 153 1990 153 
L 1990 -13 
C 2144 0 2419 0 2579 0 
C 2694 0 2931 0 3040 0 
L 3040 153 
C 2739 153 2669 210 2477 491 
L 1670 1673 
z
" transform="scale(0.015625)"/>
      </defs>
      <use xlink:href="#CMR17-4e" transform="scale(0.996264)"/>
      <use xlink:href="#CMR17-65" transform="translate(69.07243 0) scale(0.996264)"/>
      <use xlink:href="#CMR17-77" transform="translate(109.55809 0) scale(0.996264)"/>
      <use xlink:href="#CMR17-59" transform="translate(206.143937 0) scale(0.996264)"/>
      <use xlink:href="#CMR17-6f" transform="translate(267.409112 0) scale(0.996264)"/>
      <use xlink:href="#CMR17-72" transform="translate(313.099589 0) scale(0.996264)"/>
      <use xlink:href="#CMR17-6b" transform="translate(348.380357 0) scale(0.996264)"/>
     </g>
    </g>
    <g id="line2d_26">
     <path d="M 195.712426 47.098105 
L 200.710426 47.098105 
L 205.708426 47.098105 
" style="fill: none; stroke: #9467bd; stroke-width: 1.5; stroke-linecap: square"/>
    </g>
    <g id="text_18">
     <!-- Seattle -->
     <g transform="translate(208.707226 50.596705) scale(0.09996 -0.09996)">
      <defs>
       <path id="CMR17-53" d="M 2803 4290 
C 2803 4404 2797 4411 2758 4411 
C 2720 4411 2707 4385 2682 4328 
L 2490 3907 
C 2246 4257 1875 4416 1472 4416 
C 819 4416 294 3901 294 3253 
C 294 3056 339 2776 557 2510 
C 794 2218 1018 2167 1530 2033 
C 1722 1982 2042 1899 2106 1874 
C 2470 1722 2662 1341 2662 985 
C 2662 527 2336 38 1779 38 
C 1094 38 454 419 410 1311 
C 403 1413 397 1419 352 1419 
C 301 1419 294 1413 294 1285 
L 294 -1 
C 294 -115 301 -122 339 -122 
C 384 -122 397 -90 486 108 
C 493 127 493 140 614 381 
C 934 -39 1472 -128 1779 -128 
C 2477 -128 2970 451 2970 1124 
C 2970 1454 2848 1708 2778 1823 
C 2509 2230 2221 2306 1914 2382 
C 1869 2402 1856 2402 1498 2490 
C 1152 2579 1005 2624 845 2796 
C 666 2992 602 3196 602 3399 
C 602 3812 934 4263 1478 4263 
C 2157 4263 2579 3786 2675 2993 
C 2694 2878 2701 2872 2746 2872 
C 2803 2872 2803 2891 2803 2999 
L 2803 4290 
z
" transform="scale(0.015625)"/>
      </defs>
      <use xlink:href="#CMR17-53" transform="scale(0.996264)"/>
      <use xlink:href="#CMR17-65" transform="translate(50.89537 0) scale(0.996264)"/>
      <use xlink:href="#CMR17-61" transform="translate(91.38103 0) scale(0.996264)"/>
      <use xlink:href="#CMR17-74" transform="translate(137.071507 0) scale(0.996264)"/>
      <use xlink:href="#CMR17-74" transform="translate(172.352275 0) scale(0.996264)"/>
      <use xlink:href="#CMR17-6c" transform="translate(207.633043 0) scale(0.996264)"/>
      <use xlink:href="#CMR17-65" transform="translate(232.504101 0) scale(0.996264)"/>
     </g>
    </g>
   </g>
  </g>
 </g>
 <defs>
  <clipPath id="p0f2c078c8c">
   <rect x="42.437408" y="0.964815" width="219.642592" height="70.098056"/>
  </clipPath>
 </defs>
</svg>
