<?xml version="1.0" encoding="utf-8" standalone="no"?>
<!DOCTYPE svg PUBLIC "-//W3C//DTD SVG 1.1//EN"
  "http://www.w3.org/Graphics/SVG/1.1/DTD/svg11.dtd">
<svg xmlns:xlink="http://www.w3.org/1999/xlink" width="266.4pt" height="108pt" viewBox="0 0 266.4 108" xmlns="http://www.w3.org/2000/svg" version="1.1">
 <metadata>
  <rdf:RDF xmlns:dc="http://purl.org/dc/elements/1.1/" xmlns:cc="http://creativecommons.org/ns#" xmlns:rdf="http://www.w3.org/1999/02/22-rdf-syntax-ns#">
   <cc:Work>
    <dc:type rdf:resource="http://purl.org/dc/dcmitype/StillImage"/>
    <dc:date>2023-10-11T12:34:58.593459</dc:date>
    <dc:format>image/svg+xml</dc:format>
    <dc:creator>
     <cc:Agent>
      <dc:title>Matplotlib v3.7.0, https://matplotlib.org/</dc:title>
     </cc:Agent>
    </dc:creator>
   </cc:Work>
  </rdf:RDF>
 </metadata>
 <defs>
  <style type="text/css">*{stroke-linejoin: round; stroke-linecap: butt}</style>
 </defs>
 <g id="figure_1">
  <g id="patch_1">
   <path d="M 0 108 
L 266.4 108 
L 266.4 0 
L 0 0 
z
" style="fill: #ffffff"/>
  </g>
  <g id="axes_1">
   <g id="patch_2">
    <path d="M 37.567091 78.181683 
L 258.927997 78.181683 
L 258.927997 0 
L 37.567091 0 
z
" style="fill: #ffffff"/>
   </g>
   <g id="matplotlib.axis_1">
    <g id="xtick_1">
     <g id="line2d_1">
      <defs>
       <path id="m4b791c3c1c" d="M 0 0 
L 0 3.5 
" style="stroke: #000000; stroke-width: 0.8"/>
      </defs>
      <g>
       <use xlink:href="#m4b791c3c1c" x="37.567091" y="78.181683" style="stroke: #000000; stroke-width: 0.8"/>
      </g>
     </g>
     <g id="text_1">
      <!-- 0 -->
      <g transform="translate(35.076423 92.100182) scale(0.1 -0.1)">
       <defs>
        <path id="CMR17-30" d="M 2688 2025 
C 2688 2416 2682 3080 2413 3591 
C 2176 4039 1798 4198 1466 4198 
C 1158 4198 768 4058 525 3597 
C 269 3118 243 2524 243 2025 
C 243 1661 250 1106 448 619 
C 723 -39 1216 -128 1466 -128 
C 1760 -128 2208 -7 2470 600 
C 2662 1042 2688 1559 2688 2025 
z
M 1466 -26 
C 1056 -26 813 325 723 812 
C 653 1188 653 1738 653 2096 
C 653 2588 653 2997 736 3387 
C 858 3929 1216 4096 1466 4096 
C 1728 4096 2067 3923 2189 3400 
C 2272 3036 2278 2607 2278 2096 
C 2278 1680 2278 1169 2202 792 
C 2067 95 1690 -26 1466 -26 
z
" transform="scale(0.015625)"/>
       </defs>
       <use xlink:href="#CMR17-30" transform="scale(0.996264)"/>
      </g>
     </g>
    </g>
    <g id="xtick_2">
     <g id="line2d_2">
      <g>
       <use xlink:href="#m4b791c3c1c" x="74.460575" y="78.181683" style="stroke: #000000; stroke-width: 0.8"/>
      </g>
     </g>
     <g id="text_2">
      <!-- 50 -->
      <g transform="translate(69.47924 92.100182) scale(0.1 -0.1)">
       <defs>
        <path id="CMR17-35" d="M 730 3692 
C 794 3666 1056 3584 1325 3584 
C 1920 3584 2246 3911 2432 4100 
C 2432 4157 2432 4192 2394 4192 
C 2387 4192 2374 4192 2323 4163 
C 2099 4058 1837 3973 1517 3973 
C 1325 3973 1037 3999 723 4139 
C 653 4171 640 4171 634 4171 
C 602 4171 595 4164 595 4037 
L 595 2203 
C 595 2089 595 2057 659 2057 
C 691 2057 704 2070 736 2114 
C 941 2401 1222 2522 1542 2522 
C 1766 2522 2246 2382 2246 1289 
C 2246 1085 2246 715 2054 421 
C 1894 159 1645 25 1370 25 
C 947 25 518 320 403 814 
C 429 807 480 795 506 795 
C 589 795 749 840 749 1038 
C 749 1210 627 1280 506 1280 
C 358 1280 262 1190 262 1011 
C 262 454 704 -128 1382 -128 
C 2042 -128 2669 440 2669 1264 
C 2669 2030 2170 2624 1549 2624 
C 1222 2624 947 2503 730 2274 
L 730 3692 
z
" transform="scale(0.015625)"/>
       </defs>
       <use xlink:href="#CMR17-35" transform="scale(0.996264)"/>
       <use xlink:href="#CMR17-30" transform="translate(45.690477 0) scale(0.996264)"/>
      </g>
     </g>
    </g>
    <g id="xtick_3">
     <g id="line2d_3">
      <g>
       <use xlink:href="#m4b791c3c1c" x="111.35406" y="78.181683" style="stroke: #000000; stroke-width: 0.8"/>
      </g>
     </g>
     <g id="text_3">
      <!-- 100 -->
      <g transform="translate(103.882057 92.100182) scale(0.1 -0.1)">
       <defs>
        <path id="CMR17-31" d="M 1702 4058 
C 1702 4192 1696 4192 1606 4192 
C 1357 3916 979 3827 621 3827 
C 602 3827 570 3827 563 3808 
C 557 3795 557 3782 557 3648 
C 755 3648 1088 3686 1344 3839 
L 1344 461 
C 1344 236 1331 160 781 160 
L 589 160 
L 589 0 
C 896 0 1216 0 1523 0 
C 1830 0 2150 0 2458 0 
L 2458 160 
L 2266 160 
C 1715 160 1702 230 1702 458 
L 1702 4058 
z
" transform="scale(0.015625)"/>
       </defs>
       <use xlink:href="#CMR17-31" transform="scale(0.996264)"/>
       <use xlink:href="#CMR17-30" transform="translate(45.690477 0) scale(0.996264)"/>
       <use xlink:href="#CMR17-30" transform="translate(91.380954 0) scale(0.996264)"/>
      </g>
     </g>
    </g>
    <g id="xtick_4">
     <g id="line2d_4">
      <g>
       <use xlink:href="#m4b791c3c1c" x="148.247544" y="78.181683" style="stroke: #000000; stroke-width: 0.8"/>
      </g>
     </g>
     <g id="text_4">
      <!-- 150 -->
      <g transform="translate(140.775541 92.100182) scale(0.1 -0.1)">
       <use xlink:href="#CMR17-31" transform="scale(0.996264)"/>
       <use xlink:href="#CMR17-35" transform="translate(45.690477 0) scale(0.996264)"/>
       <use xlink:href="#CMR17-30" transform="translate(91.380954 0) scale(0.996264)"/>
      </g>
     </g>
    </g>
    <g id="xtick_5">
     <g id="line2d_5">
      <g>
       <use xlink:href="#m4b791c3c1c" x="185.141028" y="78.181683" style="stroke: #000000; stroke-width: 0.8"/>
      </g>
     </g>
     <g id="text_5">
      <!-- 200 -->
      <g transform="translate(177.669026 92.100182) scale(0.1 -0.1)">
       <defs>
        <path id="CMR17-32" d="M 2669 989 
L 2554 989 
C 2490 536 2438 459 2413 420 
C 2381 369 1920 369 1830 369 
L 602 369 
C 832 619 1280 1072 1824 1597 
C 2214 1967 2669 2402 2669 3035 
C 2669 3790 2067 4224 1395 4224 
C 691 4224 262 3604 262 3030 
C 262 2780 448 2748 525 2748 
C 589 2748 781 2787 781 3010 
C 781 3207 614 3264 525 3264 
C 486 3264 448 3258 422 3245 
C 544 3790 915 4058 1306 4058 
C 1862 4058 2227 3617 2227 3035 
C 2227 2479 1901 2000 1536 1584 
L 262 146 
L 262 0 
L 2515 0 
L 2669 989 
z
" transform="scale(0.015625)"/>
       </defs>
       <use xlink:href="#CMR17-32" transform="scale(0.996264)"/>
       <use xlink:href="#CMR17-30" transform="translate(45.690477 0) scale(0.996264)"/>
       <use xlink:href="#CMR17-30" transform="translate(91.380954 0) scale(0.996264)"/>
      </g>
     </g>
    </g>
    <g id="xtick_6">
     <g id="line2d_6">
      <g>
       <use xlink:href="#m4b791c3c1c" x="222.034513" y="78.181683" style="stroke: #000000; stroke-width: 0.8"/>
      </g>
     </g>
     <g id="text_6">
      <!-- 250 -->
      <g transform="translate(214.56251 92.100182) scale(0.1 -0.1)">
       <use xlink:href="#CMR17-32" transform="scale(0.996264)"/>
       <use xlink:href="#CMR17-35" transform="translate(45.690477 0) scale(0.996264)"/>
       <use xlink:href="#CMR17-30" transform="translate(91.380954 0) scale(0.996264)"/>
      </g>
     </g>
    </g>
    <g id="xtick_7">
     <g id="line2d_7">
      <g>
       <use xlink:href="#m4b791c3c1c" x="258.927997" y="78.181683" style="stroke: #000000; stroke-width: 0.8"/>
      </g>
     </g>
     <g id="text_7">
      <!-- 300 -->
      <g transform="translate(251.455994 92.100182) scale(0.1 -0.1)">
       <defs>
        <path id="CMR17-33" d="M 1414 2157 
C 1984 2157 2234 1662 2234 1090 
C 2234 320 1824 25 1453 25 
C 1114 25 563 194 390 693 
C 422 680 454 680 486 680 
C 640 680 755 782 755 948 
C 755 1133 614 1216 486 1216 
C 378 1216 211 1165 211 926 
C 211 335 787 -128 1466 -128 
C 2176 -128 2720 430 2720 1085 
C 2720 1707 2208 2157 1600 2227 
C 2086 2328 2554 2756 2554 3329 
C 2554 3820 2048 4179 1472 4179 
C 890 4179 378 3829 378 3329 
C 378 3110 544 3072 627 3072 
C 762 3072 877 3155 877 3321 
C 877 3486 762 3569 627 3569 
C 602 3569 570 3569 544 3557 
C 730 3959 1235 4032 1459 4032 
C 1683 4032 2106 3925 2106 3320 
C 2106 3143 2080 2828 1862 2550 
C 1670 2304 1453 2304 1242 2284 
C 1210 2284 1062 2269 1037 2269 
C 992 2263 966 2257 966 2208 
C 966 2163 973 2157 1101 2157 
L 1414 2157 
z
" transform="scale(0.015625)"/>
       </defs>
       <use xlink:href="#CMR17-33" transform="scale(0.996264)"/>
       <use xlink:href="#CMR17-30" transform="translate(45.690477 0) scale(0.996264)"/>
       <use xlink:href="#CMR17-30" transform="translate(91.380954 0) scale(0.996264)"/>
      </g>
     </g>
    </g>
    <g id="text_8">
     <!-- RTT [ms] -->
     <g transform="translate(127.256794 105.50934) scale(0.1 -0.1)">
      <defs>
       <path id="CMR17-52" d="M 2509 2146 
C 3117 2268 3629 2676 3629 3186 
C 3629 3785 2950 4326 2054 4326 
L 333 4326 
L 333 4160 
C 774 4160 845 4160 845 3873 
L 845 415 
C 845 128 774 128 333 128 
L 333 -26 
C 518 -26 851 -26 1050 -26 
C 1248 -26 1581 -26 1766 -26 
L 1766 128 
C 1325 128 1254 128 1254 417 
L 1254 2112 
L 2003 2112 
C 2368 2112 2573 1964 2662 1881 
C 2918 1632 2918 1459 2918 1024 
C 2918 595 2918 377 3110 160 
C 3354 -102 3680 -128 3821 -128 
C 4294 -128 4365 396 4365 503 
C 4365 540 4365 585 4307 585 
C 4256 585 4250 547 4250 522 
C 4218 112 4032 -26 3834 -26 
C 3482 -26 3443 375 3405 764 
C 3386 898 3373 993 3360 1133 
C 3322 1452 3270 1917 2509 2146 
z
M 1984 2214 
L 1254 2214 
L 1254 3913 
C 1254 4129 1267 4160 1523 4160 
L 1990 4160 
C 2522 4160 3142 3977 3142 3190 
C 3142 2372 2464 2214 1984 2214 
z
" transform="scale(0.015625)"/>
       <path id="CMR17-54" d="M 3981 4326 
L 288 4326 
L 179 2918 
L 294 2918 
C 378 3976 467 4160 1453 4160 
C 1568 4160 1754 4160 1805 4154 
C 1926 4135 1926 4058 1926 3912 
L 1926 459 
C 1926 230 1907 160 1376 160 
L 1197 160 
L 1197 0 
C 1504 0 1824 0 2138 0 
C 2451 0 2771 0 3078 0 
L 3078 160 
L 2899 160 
C 2368 160 2349 230 2349 459 
L 2349 3912 
C 2349 4052 2349 4129 2464 4154 
C 2515 4160 2701 4160 2816 4160 
C 3795 4160 3891 3976 3974 2918 
L 4090 2918 
L 3981 4326 
z
" transform="scale(0.015625)"/>
       <path id="CMR17-5b" d="M 1504 -1600 
L 1504 -1377 
L 902 -1377 
L 902 4544 
L 1504 4544 
L 1504 4767 
L 678 4767 
L 678 -1600 
L 1504 -1600 
z
" transform="scale(0.015625)"/>
       <path id="CMR17-6d" d="M 4326 1933 
C 4326 2252 4269 2790 3507 2790 
C 3072 2790 2771 2496 2656 2151 
L 2650 2151 
C 2573 2676 2195 2790 1837 2790 
C 1331 2790 1069 2400 973 2144 
L 966 2144 
L 966 2790 
L 211 2720 
L 211 2554 
C 589 2554 646 2515 646 2208 
L 646 428 
C 646 184 621 153 211 153 
L 211 -13 
C 365 0 646 0 813 0 
C 979 0 1267 0 1421 -13 
L 1421 153 
C 1011 153 986 178 986 428 
L 986 1658 
C 986 2247 1344 2688 1792 2688 
C 2266 2688 2317 2266 2317 1958 
L 2317 428 
C 2317 184 2291 153 1882 153 
L 1882 -13 
C 2035 0 2317 0 2483 0 
C 2650 0 2938 0 3091 -13 
L 3091 153 
C 2682 153 2656 178 2656 428 
L 2656 1658 
C 2656 2247 3014 2688 3462 2688 
C 3936 2688 3987 2266 3987 1958 
L 3987 428 
C 3987 184 3962 153 3552 153 
L 3552 -13 
C 3706 0 3987 0 4154 0 
C 4320 0 4608 0 4762 -13 
L 4762 153 
C 4352 153 4326 178 4326 428 
L 4326 1933 
z
" transform="scale(0.015625)"/>
       <path id="CMR17-73" d="M 1978 2697 
C 1978 2813 1971 2819 1933 2819 
C 1907 2819 1901 2813 1824 2717 
C 1805 2691 1747 2626 1728 2601 
C 1523 2819 1235 2819 1126 2819 
C 416 2819 160 2447 160 2076 
C 160 1498 813 1365 998 1325 
C 1402 1243 1542 1217 1677 1101 
C 1760 1025 1901 884 1901 654 
C 1901 384 1747 38 1158 38 
C 602 38 403 460 288 1021 
C 269 1110 269 1117 218 1117 
C 166 1117 160 1110 160 983 
L 160 63 
C 160 -51 166 -58 205 -58 
C 237 -58 243 -51 275 0 
C 314 57 410 211 448 276 
C 576 103 800 -64 1158 -64 
C 1792 -64 2131 283 2131 784 
C 2131 1112 1958 1285 1875 1362 
C 1683 1561 1459 1606 1190 1657 
C 838 1735 390 1825 390 2217 
C 390 2383 480 2737 1126 2737 
C 1811 2737 1850 2094 1862 1888 
C 1869 1856 1901 1849 1920 1849 
C 1978 1849 1978 1869 1978 1978 
L 1978 2697 
z
" transform="scale(0.015625)"/>
       <path id="CMR17-5d" d="M 915 4767 
L 90 4767 
L 90 4544 
L 691 4544 
L 691 -1377 
L 90 -1377 
L 90 -1600 
L 915 -1600 
L 915 4767 
z
" transform="scale(0.015625)"/>
      </defs>
      <use xlink:href="#CMR17-52" transform="scale(0.996264)"/>
      <use xlink:href="#CMR17-54" transform="translate(59.983847 0) scale(0.996264)"/>
      <use xlink:href="#CMR17-54" transform="translate(126.493727 0) scale(0.996264)"/>
      <use xlink:href="#CMR17-5b" transform="translate(223.079574 0) scale(0.996264)"/>
      <use xlink:href="#CMR17-6d" transform="translate(247.950633 0) scale(0.996264)"/>
      <use xlink:href="#CMR17-73" transform="translate(324.870222 0) scale(0.996264)"/>
      <use xlink:href="#CMR17-5d" transform="translate(360.67156 0) scale(0.996264)"/>
     </g>
    </g>
   </g>
   <g id="matplotlib.axis_2">
    <g id="ytick_1">
     <g id="line2d_8">
      <path d="M 37.567091 74.62797 
L 258.927997 74.62797 
" clip-path="url(#p2bc7bb011f)" style="fill: none; stroke: #b0b0b0; stroke-opacity: 0.7; stroke-width: 0.5; stroke-linecap: square"/>
     </g>
     <g id="line2d_9">
      <defs>
       <path id="me81df0cd0a" d="M 0 0 
L -3.5 0 
" style="stroke: #000000; stroke-width: 0.8"/>
      </defs>
      <g>
       <use xlink:href="#me81df0cd0a" x="37.567091" y="74.62797" style="stroke: #000000; stroke-width: 0.8"/>
      </g>
     </g>
     <g id="text_9">
      <!-- 0.00 -->
      <g transform="translate(12.855677 78.08722) scale(0.1 -0.1)">
       <defs>
        <path id="CMR17-2e" d="M 1062 261 
C 1062 420 934 522 800 522 
C 672 522 538 420 538 261 
C 538 102 666 0 800 0 
C 928 0 1062 102 1062 261 
z
" transform="scale(0.015625)"/>
       </defs>
       <use xlink:href="#CMR17-30" transform="scale(0.996264)"/>
       <use xlink:href="#CMR17-2e" transform="translate(45.690477 0) scale(0.996264)"/>
       <use xlink:href="#CMR17-30" transform="translate(70.561536 0) scale(0.996264)"/>
       <use xlink:href="#CMR17-30" transform="translate(116.252013 0) scale(0.996264)"/>
      </g>
     </g>
    </g>
    <g id="ytick_2">
     <g id="line2d_10">
      <path d="M 37.567091 56.859406 
L 258.927997 56.859406 
" clip-path="url(#p2bc7bb011f)" style="fill: none; stroke: #b0b0b0; stroke-opacity: 0.7; stroke-width: 0.5; stroke-linecap: square"/>
     </g>
     <g id="line2d_11">
      <g>
       <use xlink:href="#me81df0cd0a" x="37.567091" y="56.859406" style="stroke: #000000; stroke-width: 0.8"/>
      </g>
     </g>
     <g id="text_10">
      <!-- 0.25 -->
      <g transform="translate(12.855677 60.318655) scale(0.1 -0.1)">
       <use xlink:href="#CMR17-30" transform="scale(0.996264)"/>
       <use xlink:href="#CMR17-2e" transform="translate(45.690477 0) scale(0.996264)"/>
       <use xlink:href="#CMR17-32" transform="translate(70.561536 0) scale(0.996264)"/>
       <use xlink:href="#CMR17-35" transform="translate(116.252013 0) scale(0.996264)"/>
      </g>
     </g>
    </g>
    <g id="ytick_3">
     <g id="line2d_12">
      <path d="M 37.567091 39.090842 
L 258.927997 39.090842 
" clip-path="url(#p2bc7bb011f)" style="fill: none; stroke: #b0b0b0; stroke-opacity: 0.7; stroke-width: 0.5; stroke-linecap: square"/>
     </g>
     <g id="line2d_13">
      <g>
       <use xlink:href="#me81df0cd0a" x="37.567091" y="39.090842" style="stroke: #000000; stroke-width: 0.8"/>
      </g>
     </g>
     <g id="text_11">
      <!-- 0.50 -->
      <g transform="translate(12.855677 42.550091) scale(0.1 -0.1)">
       <use xlink:href="#CMR17-30" transform="scale(0.996264)"/>
       <use xlink:href="#CMR17-2e" transform="translate(45.690477 0) scale(0.996264)"/>
       <use xlink:href="#CMR17-35" transform="translate(70.561536 0) scale(0.996264)"/>
       <use xlink:href="#CMR17-30" transform="translate(116.252013 0) scale(0.996264)"/>
      </g>
     </g>
    </g>
    <g id="ytick_4">
     <g id="line2d_14">
      <path d="M 37.567091 21.322277 
L 258.927997 21.322277 
" clip-path="url(#p2bc7bb011f)" style="fill: none; stroke: #b0b0b0; stroke-opacity: 0.7; stroke-width: 0.5; stroke-linecap: square"/>
     </g>
     <g id="line2d_15">
      <g>
       <use xlink:href="#me81df0cd0a" x="37.567091" y="21.322277" style="stroke: #000000; stroke-width: 0.8"/>
      </g>
     </g>
     <g id="text_12">
      <!-- 0.75 -->
      <g transform="translate(12.855677 24.781526) scale(0.1 -0.1)">
       <defs>
        <path id="CMR17-37" d="M 2886 3941 
L 2886 4081 
L 1382 4081 
C 634 4081 621 4165 595 4288 
L 480 4288 
L 294 3094 
L 410 3094 
C 429 3215 474 3540 550 3661 
C 589 3712 1062 3712 1171 3712 
L 2579 3712 
L 1869 2661 
C 1395 1954 1069 999 1069 165 
C 1069 89 1069 -128 1299 -128 
C 1530 -128 1530 89 1530 171 
L 1530 465 
C 1530 1508 1709 2196 2003 2636 
L 2886 3941 
z
" transform="scale(0.015625)"/>
       </defs>
       <use xlink:href="#CMR17-30" transform="scale(0.996264)"/>
       <use xlink:href="#CMR17-2e" transform="translate(45.690477 0) scale(0.996264)"/>
       <use xlink:href="#CMR17-37" transform="translate(70.561536 0) scale(0.996264)"/>
       <use xlink:href="#CMR17-35" transform="translate(116.252013 0) scale(0.996264)"/>
      </g>
     </g>
    </g>
    <g id="ytick_5">
     <g id="line2d_16">
      <path d="M 37.567091 3.553713 
L 258.927997 3.553713 
" clip-path="url(#p2bc7bb011f)" style="fill: none; stroke: #b0b0b0; stroke-opacity: 0.7; stroke-width: 0.5; stroke-linecap: square"/>
     </g>
     <g id="line2d_17">
      <g>
       <use xlink:href="#me81df0cd0a" x="37.567091" y="3.553713" style="stroke: #000000; stroke-width: 0.8"/>
      </g>
     </g>
     <g id="text_13">
      <!-- 1.00 -->
      <g transform="translate(12.855677 7.012962) scale(0.1 -0.1)">
       <use xlink:href="#CMR17-31" transform="scale(0.996264)"/>
       <use xlink:href="#CMR17-2e" transform="translate(45.690477 0) scale(0.996264)"/>
       <use xlink:href="#CMR17-30" transform="translate(70.561536 0) scale(0.996264)"/>
       <use xlink:href="#CMR17-30" transform="translate(116.252013 0) scale(0.996264)"/>
      </g>
     </g>
    </g>
    <g id="text_14">
     <!-- Percentile -->
     <g transform="translate(6.918498 60.482866) rotate(-90) scale(0.1 -0.1)">
      <defs>
       <path id="CMR17-50" d="M 1267 2042 
L 2291 2042 
C 3117 2042 3718 2578 3718 3184 
C 3718 3791 3130 4352 2291 4352 
L 333 4352 
L 333 4186 
C 774 4186 845 4186 845 3899 
L 845 446 
C 845 160 774 160 333 160 
L 333 0 
C 518 0 858 0 1056 0 
C 1254 0 1594 0 1779 0 
L 1779 160 
C 1338 160 1267 160 1267 446 
L 1267 2042 
z
M 1254 2176 
L 1254 3938 
C 1254 4155 1267 4186 1523 4186 
L 2170 4186 
C 2995 4186 3232 3714 3232 3184 
C 3232 2604 2950 2176 2170 2176 
L 1254 2176 
z
" transform="scale(0.015625)"/>
       <path id="CMR17-65" d="M 2438 1472 
C 2464 1498 2464 1511 2464 1576 
C 2464 2238 2118 2816 1389 2816 
C 710 2816 173 2169 173 1383 
C 173 551 781 -64 1459 -64 
C 2176 -64 2458 607 2458 740 
C 2458 784 2419 784 2406 784 
C 2362 784 2355 771 2330 696 
C 2189 265 1837 51 1504 51 
C 1229 51 954 203 781 480 
C 582 803 582 1176 582 1472 
L 2438 1472 
z
M 589 1568 
C 634 2505 1126 2714 1382 2714 
C 1818 2714 2112 2297 2118 1568 
L 589 1568 
z
" transform="scale(0.015625)"/>
       <path id="CMR17-72" d="M 960 1497 
C 960 2112 1222 2688 1702 2688 
C 1747 2688 1792 2682 1837 2662 
C 1837 2662 1696 2617 1696 2452 
C 1696 2298 1818 2234 1914 2234 
C 1990 2234 2131 2279 2131 2458 
C 2131 2663 1926 2790 1709 2790 
C 1222 2790 1011 2317 947 2093 
L 941 2093 
L 941 2790 
L 198 2720 
L 198 2554 
C 576 2554 634 2515 634 2208 
L 634 428 
C 634 184 608 153 198 153 
L 198 -13 
C 352 0 646 0 813 0 
C 998 0 1325 0 1498 -13 
L 1498 153 
C 1037 153 960 153 960 440 
L 960 1497 
z
" transform="scale(0.015625)"/>
       <path id="CMR17-63" d="M 2234 2240 
C 2112 2240 1933 2240 1933 2017 
C 1933 1838 2080 1787 2163 1787 
C 2208 1787 2394 1807 2394 2024 
C 2394 2467 1958 2803 1466 2803 
C 787 2803 211 2178 211 1363 
C 211 516 813 -64 1466 -64 
C 2259 -64 2458 677 2458 748 
C 2458 774 2451 793 2406 793 
C 2362 793 2355 787 2330 703 
C 2163 180 1798 51 1523 51 
C 1114 51 621 427 621 1369 
C 621 2338 1094 2688 1472 2688 
C 1722 2688 2093 2573 2234 2240 
z
" transform="scale(0.015625)"/>
       <path id="CMR17-6e" d="M 2656 1933 
C 2656 2259 2592 2790 1837 2790 
C 1331 2790 1069 2400 973 2144 
L 966 2144 
L 966 2790 
L 211 2720 
L 211 2554 
C 589 2554 646 2515 646 2208 
L 646 428 
C 646 184 621 153 211 153 
L 211 -13 
C 365 0 646 0 813 0 
C 979 0 1267 0 1421 -13 
L 1421 153 
C 1011 153 986 178 986 428 
L 986 1658 
C 986 2247 1344 2688 1792 2688 
C 2266 2688 2317 2266 2317 1958 
L 2317 428 
C 2317 184 2291 153 1882 153 
L 1882 -13 
C 2035 0 2317 0 2483 0 
C 2650 0 2938 0 3091 -13 
L 3091 153 
C 2682 153 2656 178 2656 428 
L 2656 1933 
z
" transform="scale(0.015625)"/>
       <path id="CMR17-74" d="M 966 2560 
L 1862 2560 
L 1862 2725 
L 966 2725 
L 966 3904 
L 851 3904 
C 838 3245 614 2668 70 2668 
L 70 2560 
L 627 2560 
L 627 771 
C 627 650 627 -64 1370 -64 
C 1747 -64 1965 306 1965 777 
L 1965 1140 
L 1850 1140 
L 1850 783 
C 1850 344 1677 51 1408 51 
C 1222 51 966 178 966 758 
L 966 2560 
z
" transform="scale(0.015625)"/>
       <path id="CMR17-69" d="M 992 3909 
C 992 4049 877 4170 730 4170 
C 589 4170 467 4056 467 3909 
C 467 3769 582 3648 730 3648 
C 870 3648 992 3763 992 3909 
z
M 243 2706 
L 243 2541 
C 602 2541 653 2502 653 2197 
L 653 427 
C 653 184 627 153 218 153 
L 218 -13 
C 371 0 646 0 806 0 
C 960 0 1222 0 1370 -13 
L 1370 153 
C 992 153 979 191 979 420 
L 979 2776 
L 243 2706 
z
" transform="scale(0.015625)"/>
       <path id="CMR17-6c" d="M 979 4396 
L 218 4326 
L 218 4160 
C 595 4160 653 4122 653 3817 
L 653 426 
C 653 184 627 153 218 153 
L 218 -13 
C 371 0 653 0 813 0 
C 979 0 1261 0 1414 -13 
L 1414 153 
C 1005 153 979 178 979 426 
L 979 4396 
z
" transform="scale(0.015625)"/>
      </defs>
      <use xlink:href="#CMR17-50" transform="scale(0.996264)"/>
      <use xlink:href="#CMR17-65" transform="translate(59.983847 0) scale(0.996264)"/>
      <use xlink:href="#CMR17-72" transform="translate(100.469507 0) scale(0.996264)"/>
      <use xlink:href="#CMR17-63" transform="translate(135.750275 0) scale(0.996264)"/>
      <use xlink:href="#CMR17-65" transform="translate(176.235935 0) scale(0.996264)"/>
      <use xlink:href="#CMR17-6e" transform="translate(216.721596 0) scale(0.996264)"/>
      <use xlink:href="#CMR17-74" transform="translate(265.014512 0) scale(0.996264)"/>
      <use xlink:href="#CMR17-69" transform="translate(300.295279 0) scale(0.996264)"/>
      <use xlink:href="#CMR17-6c" transform="translate(325.166338 0) scale(0.996264)"/>
      <use xlink:href="#CMR17-65" transform="translate(350.037396 0) scale(0.996264)"/>
     </g>
    </g>
   </g>
   <g id="line2d_18">
    <path d="M 53.195171 74.627739 
L 60.716277 74.510292 
L 69.625315 74.272155 
L 72.50891 73.934641 
L 73.721968 73.447249 
L 73.836338 73.376595 
L 74.376458 73.091434 
L 74.68046 72.887581 
L 74.917317 72.697165 
L 75.090716 72.561418 
L 75.409476 72.26699 
L 75.610914 72.087461 
L 78.525499 68.249479 
L 79.004377 67.345811 
L 79.148999 67.124353 
L 83.940725 59.808836 
L 84.052143 59.658726 
L 84.165775 59.446071 
L 84.471991 58.976979 
L 84.593002 58.769884 
L 85.349318 57.58175 
L 87.003622 55.357906 
L 87.117254 55.194593 
L 87.464053 54.777854 
L 87.741492 54.395399 
L 87.855862 54.20313 
L 91.483229 49.469819 
L 92.137719 48.473259 
L 92.180516 48.343998 
L 93.403904 46.21768 
L 93.800878 45.428447 
L 94.895138 43.603737 
L 95.120189 43.242826 
L 95.233821 43.018589 
L 96.062448 41.513325 
L 96.250605 41.16168 
L 96.543539 40.54827 
L 100.762678 34.132019 
L 101.184002 33.583008 
L 101.928512 32.620501 
L 102.182339 32.330243 
L 102.63244 31.719149 
L 103.974625 30.322066 
L 104.088257 30.170103 
L 104.575989 29.610668 
L 104.761194 29.401024 
L 105.243761 28.971776 
L 105.381742 28.845759 
L 105.921125 28.346552 
L 106.357206 27.941627 
L 106.663422 27.66689 
L 106.860433 27.524425 
L 107.174766 27.237642 
L 107.663973 26.820671 
L 107.777605 26.702993 
L 107.957645 26.562845 
L 108.173103 26.356676 
L 108.332483 26.190583 
L 108.686661 25.840791 
L 109.139713 25.518797 
L 109.252607 25.409689 
L 109.408297 25.273247 
L 110.755647 24.156693 
L 111.353322 23.660266 
L 111.466216 23.532858 
L 111.88385 23.213876 
L 112.36863 22.782311 
L 112.661565 22.574058 
L 113.28654 22.13786 
L 113.555125 21.937251 
L 114.459753 21.237667 
L 114.885504 20.987716 
L 122.100394 16.587982 
L 122.318065 16.459647 
L 123.582774 15.796664 
L 124.040991 15.537216 
L 124.350158 15.362551 
L 125.09762 15.011601 
L 125.456225 14.825123 
L 125.982326 14.543668 
L 127.190219 13.916127 
L 127.55694 13.746327 
L 128.964058 12.993927 
L 129.623713 12.670543 
L 129.980842 12.486613 
L 130.752654 12.128018 
L 131.075103 11.97536 
L 131.502329 11.772898 
L 131.871264 11.577617 
L 134.027319 10.685068 
L 135.703021 10.051736 
L 135.816653 9.994518 
L 141.918836 8.195059 
L 143.081718 7.967578 
L 143.193875 7.93422 
L 144.282232 7.708593 
L 146.033197 7.418335 
L 146.14314 7.396097 
L 147.348081 7.231162 
L 150.592494 6.833881 
L 154.579942 6.444477 
L 155.122276 6.389113 
L 156.626792 6.244331 
L 163.395271 5.778946 
L 164.163393 5.731226 
L 172.782449 5.169011 
L 173.250258 5.138433 
L 192.001003 4.268122 
L 202.931067 4.069135 
L 209.132861 4.002651 
L 258.964891 3.772622 
L 258.964891 3.772622 
" clip-path="url(#p2bc7bb011f)" style="fill: none; stroke: #1f77b4; stroke-width: 1.5; stroke-linecap: square"/>
   </g>
   <g id="line2d_19">
    <path d="M 48.47797 74.627803 
L 50.806687 74.507184 
L 51.633839 74.108306 
L 53.460804 72.299699 
L 53.671835 72.120949 
L 54.482754 71.203579 
L 54.564657 71.044597 
L 55.199963 69.992033 
L 55.593985 68.978168 
L 55.993173 68.135347 
L 56.456555 66.807706 
L 57.704293 63.211769 
L 58.226704 62.102079 
L 58.340336 61.764682 
L 58.689349 61.191912 
L 59.425743 59.624375 
L 61.178183 54.61117 
L 61.291815 54.090165 
L 61.84079 52.916313 
L 62.005335 52.3871 
L 62.168404 51.802603 
L 62.40526 51.272217 
L 62.765341 50.59424 
L 63.531987 48.978121 
L 63.704649 48.672386 
L 64.4558 47.09463 
L 64.602636 46.860262 
L 65.032814 45.968355 
L 65.732315 44.655289 
L 65.994996 44.189568 
L 66.543234 43.118577 
L 66.887081 42.463216 
L 67.390308 41.233578 
L 67.81901 40.634004 
L 67.932642 40.402819 
L 68.057342 40.184533 
L 68.359131 39.729366 
L 69.066748 38.578967 
L 69.264497 38.299702 
L 70.034833 37.257357 
L 70.446564 36.810901 
L 70.66276 36.59094 
L 71.009559 36.191392 
L 71.619039 35.547926 
L 71.830808 35.330142 
L 72.347317 34.716831 
L 72.594503 34.515633 
L 74.376458 33.047103 
L 74.614052 32.879242 
L 75.197707 32.494101 
L 75.311339 32.406485 
L 75.63674 32.204784 
L 75.869906 32.037929 
L 76.452086 31.658651 
L 76.821758 31.416241 
L 77.050498 31.230958 
L 78.879677 30.278574 
L 79.174087 30.112054 
L 85.378833 27.416567 
L 86.265015 27.108319 
L 86.38086 27.054711 
L 87.167429 26.762379 
L 87.427897 26.674931 
L 87.741492 26.545768 
L 87.854386 26.484789 
L 88.989967 26.091104 
L 90.190481 25.70479 
L 90.456852 25.612651 
L 91.43084 25.28229 
L 91.544472 25.232702 
L 92.519198 24.911891 
L 92.930191 24.753412 
L 93.563284 24.545512 
L 93.809732 24.43327 
L 95.141587 24.017136 
L 95.477318 23.921814 
L 95.858058 23.785951 
L 95.970952 23.732008 
L 96.581909 23.479379 
L 97.054145 23.291918 
L 97.715276 23.028065 
L 98.203008 22.830217 
L 98.765265 22.58898 
L 99.12018 22.416597 
L 99.888303 22.027435 
L 100.285276 21.870128 
L 100.398171 21.80496 
L 100.969282 21.561378 
L 101.638529 21.239897 
L 102.087154 21.024291 
L 102.877413 20.620052 
L 103.236755 20.47598 
L 103.349649 20.414498 
L 105.409044 19.595967 
L 105.989009 19.393932 
L 106.458294 19.247012 
L 108.251318 18.726007 
L 108.65567 18.58495 
L 109.24449 18.439538 
L 118.241335 16.510648 
L 119.267712 16.341112 
L 121.224542 16.007233 
L 121.598642 15.958818 
L 123.159237 15.730313 
L 123.273607 15.704012 
L 124.395169 15.562788 
L 125.521896 15.419721 
L 126.786604 15.246332 
L 128.324325 15.052337 
L 128.437957 15.030894 
L 129.611907 14.878278 
L 131.963498 14.500005 
L 132.133946 14.454773 
L 135.067716 13.84297 
L 135.292766 13.788356 
L 137.659852 13.137017 
L 138.46413 12.893099 
L 138.922347 12.756063 
L 139.928063 12.421347 
L 141.135956 12.033358 
L 141.461357 11.946077 
L 142.220624 11.7231 
L 143.690461 11.275472 
L 145.936536 10.62765 
L 146.535686 10.471181 
L 148.370768 9.963411 
L 149.290892 9.747303 
L 149.968994 9.560679 
L 150.682514 9.408901 
L 150.959215 9.35479 
L 153.965296 8.785706 
L 154.884682 8.6351 
L 155.012333 8.608631 
L 156.363373 8.399392 
L 156.477743 8.378619 
L 160.234975 7.922279 
L 184.571393 5.823685 
L 187.520658 5.638234 
L 189.416983 5.533866 
L 192.512347 5.385606 
L 192.90932 5.36701 
L 196.866516 5.19982 
L 208.588313 4.822552 
L 209.183036 4.797926 
L 213.696585 4.663068 
L 245.939277 4.04205 
L 258.937589 3.911045 
L 258.937589 3.911045 
" clip-path="url(#p2bc7bb011f)" style="fill: none; stroke-dasharray: 1.5,2.475; stroke-dashoffset: 0; stroke: #ff7f0e; stroke-width: 1.5"/>
   </g>
   <g id="line2d_20">
    <path d="M 47.981384 74.627893 
L 50.826609 74.515939 
L 51.175622 74.367888 
L 51.777723 73.714685 
L 52.967169 71.490639 
L 53.890244 68.419981 
L 54.856116 63.752184 
L 56.544361 54.115972 
L 57.06456 50.911033 
L 57.931556 45.57883 
L 59.193314 38.672282 
L 59.702444 36.109342 
L 59.816813 35.42572 
L 60.657247 31.436098 
L 61.178183 29.001916 
L 61.292553 28.405896 
L 61.662226 27.32721 
L 64.035952 21.622349 
L 67.47959 15.67771 
L 67.959205 15.167736 
L 68.470549 14.652394 
L 69.565548 13.552469 
L 72.147354 12.050477 
L 72.835786 11.716329 
L 73.533073 11.4063 
L 74.011951 11.244633 
L 74.253234 11.168467 
L 76.626223 10.288169 
L 76.961216 10.141129 
L 77.457064 9.958767 
L 78.32775 9.661652 
L 83.67214 8.087618 
L 84.660886 7.872037 
L 84.95382 7.793693 
L 86.740203 7.493621 
L 88.66678 7.200863 
L 98.329184 6.293646 
L 100.657163 6.147617 
L 102.806577 6.032707 
L 109.017964 5.757843 
L 110.776308 5.684167 
L 125.263641 5.031353 
L 137.371345 4.856461 
L 138.562267 4.842613 
L 161.669394 4.615517 
L 162.852937 4.602291 
L 185.218505 4.276857 
L 186.463291 4.25624 
L 194.809335 4.101186 
L 197.60291 4.06462 
L 258.677859 3.71538 
L 258.941279 3.714524 
L 258.941279 3.714524 
" clip-path="url(#p2bc7bb011f)" style="fill: none; stroke-dasharray: 5.55,2.4; stroke-dashoffset: 0; stroke: #2ca02c; stroke-width: 1.5"/>
   </g>
   <g id="line2d_21">
    <path d="M 49.388501 74.627838 
L 52.226348 74.514778 
L 53.49696 73.942063 
L 53.674048 73.823442 
L 53.928613 73.614267 
L 54.537356 72.925977 
L 54.650988 72.728584 
L 55.819036 71.053466 
L 57.223939 68.842701 
L 57.699127 68.016064 
L 59.999805 63.660596 
L 61.243116 59.512185 
L 61.569992 58.634843 
L 61.916053 57.65053 
L 62.03116 57.227017 
L 63.658163 51.597437 
L 64.351023 48.684613 
L 64.700773 47.507277 
L 65.289593 45.203178 
L 65.54342 44.330205 
L 66.285717 41.510053 
L 66.529952 40.597363 
L 67.266346 37.691291 
L 70.163222 31.215745 
L 70.79779 30.369646 
L 71.213949 29.851078 
L 71.69504 29.270949 
L 71.978382 28.95732 
L 73.417228 27.571339 
L 77.476249 25.512159 
L 77.927825 25.360441 
L 78.303401 25.227655 
L 79.082591 24.934413 
L 79.993122 24.658382 
L 80.503728 24.509577 
L 85.686525 22.99968 
L 86.220742 22.753039 
L 88.420332 21.69525 
L 89.955101 21.039527 
L 90.068733 20.985777 
L 90.594096 20.778853 
L 91.076663 20.569281 
L 93.50204 19.816914 
L 96.522879 19.387312 
L 99.536339 19.168076 
L 100.43285 19.119356 
L 104.544998 18.951487 
L 115.672811 18.663276 
L 127.584241 18.439803 
L 133.474655 17.799967 
L 134.030271 17.718548 
L 135.584224 17.467671 
L 135.986363 17.377381 
L 137.916631 16.920507 
L 138.031 16.8841 
L 138.701724 16.742973 
L 139.093533 16.657847 
L 139.770897 16.485608 
L 141.090946 16.129482 
L 141.971962 15.912231 
L 142.870688 15.707426 
L 143.611509 15.551868 
L 146.579959 15.132063 
L 150.439755 14.896675 
L 157.95422 14.689354 
L 158.664788 14.673732 
L 165.815483 14.446023 
L 166.567373 14.423781 
L 171.160611 14.328858 
L 188.353713 14.063683 
L 189.531353 13.965053 
L 190.768023 13.793345 
L 191.414396 13.67896 
L 192.386909 13.524198 
L 194.043426 13.114321 
L 194.508284 12.990008 
L 195.492602 12.700738 
L 195.806197 12.612434 
L 197.048032 12.163238 
L 197.560851 12.012977 
L 198.238215 11.778648 
L 199.246883 11.361887 
L 199.778149 11.154036 
L 200.230463 10.966044 
L 204.549953 9.533727 
L 205.062772 9.400014 
L 205.175666 9.364533 
L 206.748066 8.969882 
L 207.02034 8.911101 
L 219.279307 6.823987 
L 220.445879 6.670946 
L 221.898745 6.523067 
L 226.43074 6.14086 
L 226.822549 6.117957 
L 231.976569 5.920962 
L 258.948657 5.568807 
L 258.948657 5.568807 
" clip-path="url(#p2bc7bb011f)" style="fill: none; stroke-dasharray: 9.6,2.4,1.5,2.4; stroke-dashoffset: 0; stroke: #d62728; stroke-width: 1.5"/>
   </g>
   <g id="line2d_22">
    <path d="M 57.723477 74.626433 
L 60.4381 74.511115 
L 60.555421 74.46345 
L 61.00257 74.289705 
L 61.299932 73.920687 
L 61.529409 73.771543 
L 61.719779 73.588572 
L 61.916053 73.322572 
L 62.028947 73.033508 
L 62.175783 72.641428 
L 62.349182 72.244734 
L 62.441416 72.09559 
L 62.622932 71.746561 
L 62.657612 71.41752 
L 63.041304 69.347949 
L 63.680299 62.750228 
L 63.762203 61.93839 
L 64.115642 57.394865 
L 67.024325 32.221739 
L 67.258229 29.377232 
L 67.297336 29.177347 
L 67.568135 27.85196 
L 68.027089 25.464111 
L 68.488996 23.645164 
L 68.540647 23.434517 
L 69.094049 19.752032 
L 69.162671 19.352263 
L 70.556507 14.018427 
L 70.685634 13.726288 
L 70.872315 13.257329 
L 70.979306 13.048219 
L 71.23092 12.623849 
L 71.326105 12.450103 
L 71.895002 11.52141 
L 72.058072 11.273861 
L 72.378307 10.863329 
L 72.992215 10.063792 
L 73.192915 9.891584 
L 73.517578 9.742439 
L 73.994242 9.461064 
L 74.26135 9.342671 
L 74.783024 9.11511 
L 76.212278 8.493931 
L 76.832088 8.274058 
L 76.981876 8.211018 
L 79.350438 7.62059 
L 80.111919 7.480671 
L 80.221862 7.454533 
L 81.740398 7.131643 
L 82.652405 6.928683 
L 83.590975 6.7657 
L 84.17463 6.636544 
L 84.783372 6.485862 
L 84.946441 6.447423 
L 86.015615 6.287516 
L 86.16614 6.270602 
L 87.088477 6.11377 
L 90.07316 5.604834 
L 93.130154 5.291169 
L 104.153189 4.680753 
L 110.05172 4.474718 
L 110.314401 4.465493 
L 115.036029 4.264071 
L 115.375449 4.241007 
L 122.159423 4.004221 
L 141.60893 3.804337 
L 166.827103 3.735146 
L 267.4 3.604595 
L 267.4 3.604595 
" clip-path="url(#p2bc7bb011f)" style="fill: none; stroke: #9467bd; stroke-width: 1.5; stroke-linecap: square"/>
   </g>
   <g id="line2d_23">
    <path d="M 48.40861 74.62529 
L 50.336664 74.488593 
L 50.744706 74.282208 
L 50.84727 74.166954 
L 50.963115 73.97129 
L 51.124709 73.601405 
L 51.304749 73.046577 
L 51.448633 72.451544 
L 52.686041 64.273863 
L 52.774585 63.890576 
L 52.956839 62.85865 
L 53.065306 62.046511 
L 54.960155 51.108092 
L 55.242021 48.601985 
L 55.267109 48.328592 
L 55.65818 45.270338 
L 55.72385 44.921895 
L 55.875851 43.951616 
L 56.080241 42.587329 
L 57.828255 33.677919 
L 58.226704 31.831173 
L 58.341074 31.190575 
L 58.503405 30.635747 
L 58.582358 30.41596 
L 58.826592 29.697632 
L 58.911447 29.472485 
L 59.342363 28.322624 
L 59.46485 28.062632 
L 60.94723 25.599411 
L 61.1376 25.277771 
L 61.349369 24.921288 
L 61.68141 24.669337 
L 61.95147 24.403984 
L 62.36394 24.026058 
L 62.584563 23.846476 
L 62.877497 23.63473 
L 63.07377 23.503394 
L 63.577735 23.120107 
L 63.701697 23.028976 
L 64.027098 22.793107 
L 64.179099 22.610845 
L 64.420382 22.460747 
L 65.738956 21.412738 
L 66.194221 20.946361 
L 66.430339 20.742656 
L 66.681953 20.552353 
L 67.515008 19.71341 
L 67.699475 19.574033 
L 67.841884 19.469501 
L 68.030041 19.306 
L 68.967135 18.609115 
L 69.12135 18.464378 
L 70.031144 17.788935 
L 70.146251 17.681722 
L 70.459108 17.518222 
L 70.576429 17.467295 
L 70.892237 17.298435 
L 71.879507 16.703402 
L 72.033722 16.580107 
L 72.209335 16.486295 
L 72.435861 16.309394 
L 72.57458 16.212902 
L 72.885224 16.025279 
L 73.209886 15.757246 
L 73.618666 15.62859 
L 73.899794 15.518697 
L 74.282011 15.360558 
L 74.397119 15.306951 
L 75.189591 14.955828 
L 75.334213 14.894181 
L 75.816042 14.690476 
L 76.322958 14.451927 
L 77.074848 14.210697 
L 77.37885 14.124926 
L 78.411867 13.9105 
L 78.761618 13.819369 
L 80.057317 13.556697 
L 88.831325 11.793041 
L 89.480651 11.659025 
L 94.495213 10.694107 
L 95.40722 10.538648 
L 102.674499 9.705066 
L 105.894562 9.447754 
L 107.746615 9.300336 
L 115.138593 8.793754 
L 117.164046 8.651697 
L 117.859857 8.584689 
L 121.140425 8.330057 
L 123.395355 8.096869 
L 123.517841 8.075426 
L 130.92015 7.45627 
L 134.516527 7.231123 
L 136.177472 7.158754 
L 145.938012 6.630729 
L 145.940226 6.628049 
L 148.930811 6.480631 
L 149.794857 6.418983 
L 152.991308 6.250123 
L 154.990197 6.164352 
L 161.191254 5.880238 
L 165.376451 5.724779 
L 166.436032 5.673852 
L 172.88944 5.467467 
L 172.962489 5.459426 
L 177.419222 5.309328 
L 182.365901 5.135106 
L 188.61787 4.982328 
L 197.011876 4.75986 
L 204.276203 4.647287 
L 219.497717 4.456983 
L 219.726456 4.451623 
L 235.975823 4.296164 
L 258.99957 4.087098 
L 258.99957 4.087098 
" clip-path="url(#p2bc7bb011f)" style="fill: none; stroke-dasharray: 1.5,2.475; stroke-dashoffset: 0; stroke: #8c564b; stroke-width: 1.5"/>
   </g>
   <g id="line2d_24">
    <path d="M 48.841002 74.627304 
L 51.548246 74.508113 
L 51.919394 74.349634 
L 52.725886 73.444709 
L 52.898547 73.244946 
L 53.061617 72.985255 
L 53.175248 72.758191 
L 53.840069 71.329221 
L 54.537356 69.151807 
L 54.65025 68.567168 
L 54.78528 68.09706 
L 55.01402 67.146189 
L 55.933405 63.511173 
L 56.951665 59.420697 
L 57.431281 57.099454 
L 57.518349 56.713246 
L 58.107169 54.798853 
L 58.403055 53.640229 
L 58.964574 52.427669 
L 59.078944 52.13535 
L 59.181508 51.893637 
L 59.585122 51.120555 
L 59.681045 50.956749 
L 60.176894 49.933964 
L 60.280196 49.692917 
L 60.490489 49.165543 
L 61.647468 46.352218 
L 61.869567 46.002633 
L 62.208987 45.403345 
L 62.653922 44.862654 
L 62.768292 44.692855 
L 63.189616 44.163484 
L 63.43754 43.811236 
L 63.620532 43.607478 
L 64.397509 42.434204 
L 64.661666 42.193157 
L 66.321135 40.843427 
L 66.607428 40.664972 
L 67.388832 40.108966 
L 68.807756 39.590248 
L 69.608344 39.295931 
L 70.600041 38.970318 
L 72.509648 38.510864 
L 72.982622 38.374359 
L 73.102895 38.31776 
L 73.523481 38.24984 
L 76.673446 37.732455 
L 76.784865 37.70582 
L 85.990527 36.208931 
L 94.543912 34.392422 
L 104.083092 33.547425 
L 121.994141 32.807637 
L 131.41895 32.489348 
L 132.816475 32.387469 
L 134.0893 32.256958 
L 134.429458 32.223664 
L 139.095746 31.729584 
L 139.374661 31.690297 
L 140.015132 31.543139 
L 140.971411 31.258144 
L 141.2245 31.178905 
L 141.60229 31.047727 
L 141.73363 30.987798 
L 143.08098 30.267321 
L 143.19535 30.154122 
L 143.75318 29.780565 
L 144.395864 29.349744 
L 145.153656 28.886294 
L 145.629582 28.60596 
L 146.061236 28.332285 
L 146.368928 28.203105 
L 146.76295 28.000679 
L 147.143691 27.805578 
L 148.24533 27.371426 
L 148.364865 27.318156 
L 148.8585 27.169666 
L 149.290154 27.035159 
L 149.796333 26.888666 
L 150.990206 26.642958 
L 151.934679 26.488475 
L 152.057165 26.466501 
L 155.607056 25.999056 
L 155.970088 25.953777 
L 157.169864 25.81927 
L 163.74207 25.171373 
L 163.80774 25.160053 
L 165.181653 25.034202 
L 165.379402 25.00224 
L 166.709044 24.781835 
L 170.220565 24.035388 
L 170.372567 23.985448 
L 177.79406 22.980641 
L 180.734471 22.810843 
L 181.946791 22.765563 
L 185.066504 22.563803 
L 185.759363 22.431293 
L 186.205036 22.269486 
L 186.535602 22.120329 
L 187.084577 21.750768 
L 187.311841 21.567652 
L 187.432852 21.437141 
L 188.062992 20.929078 
L 188.328625 20.677376 
L 188.70125 20.38772 
L 188.997873 20.078088 
L 189.225137 19.853688 
L 190.305378 18.741009 
L 190.417535 18.559225 
L 191.043248 17.863385 
L 191.156142 17.700245 
L 191.521388 17.414585 
L 191.697738 17.256772 
L 191.93976 17.026379 
L 192.205393 16.77601 
L 192.478405 16.5596 
L 195.165726 14.281639 
L 195.392252 14.138476 
L 195.970004 13.766251 
L 196.945468 13.063086 
L 197.061313 12.957212 
L 197.337276 12.803394 
L 197.850096 12.489767 
L 199.158339 11.795258 
L 199.27566 11.727339 
L 199.552361 11.626792 
L 203.918336 9.777655 
L 204.617099 9.587214 
L 205.568951 9.276916 
L 205.867788 9.153063 
L 206.154081 9.089139 
L 206.788649 8.925999 
L 206.99968 8.884049 
L 209.059812 8.46255 
L 209.845643 8.296081 
L 210.427823 8.14759 
L 211.123634 7.954486 
L 211.795095 7.741406 
L 213.853014 7.236006 
L 214.28024 7.103497 
L 215.503628 6.748585 
L 216.628879 6.510202 
L 216.763172 6.488894 
L 219.078607 6.080046 
L 219.254958 6.053411 
L 220.550657 5.898262 
L 220.800795 5.874956 
L 223.489592 5.649224 
L 224.372822 5.588629 
L 229.714998 5.316952 
L 230.536985 5.279663 
L 235.270419 5.142493 
L 235.421682 5.133836 
L 258.41075 4.634429 
L 258.948657 4.623775 
L 258.948657 4.623775 
" clip-path="url(#p2bc7bb011f)" style="fill: none; stroke-dasharray: 5.55,2.4; stroke-dashoffset: 0; stroke: #e377c2; stroke-width: 1.5"/>
   </g>
   <g id="patch_3">
    <path d="M 37.567091 78.181683 
L 37.567091 0 
" style="fill: none; stroke: #000000; stroke-width: 0.8; stroke-linejoin: miter; stroke-linecap: square"/>
   </g>
   <g id="patch_4">
    <path d="M 258.927997 78.181683 
L 258.927997 0 
" style="fill: none; stroke: #000000; stroke-width: 0.8; stroke-linejoin: miter; stroke-linecap: square"/>
   </g>
   <g id="patch_5">
    <path d="M 37.567091 78.181683 
L 258.927997 78.181683 
" style="fill: none; stroke: #000000; stroke-width: 0.8; stroke-linejoin: miter; stroke-linecap: square"/>
   </g>
   <g id="patch_6">
    <path d="M 37.567091 0 
L 258.927997 0 
" style="fill: none; stroke: #000000; stroke-width: 0.8; stroke-linejoin: miter; stroke-linecap: square"/>
   </g>
   <g id="legend_1">
    <g id="patch_7">
     <path d="M 136.684079 74.016683 
L 254.762997 74.016683 
L 254.762997 36.074606 
L 136.684079 36.074606 
z
" style="fill: #ffffff; opacity: 0.8; stroke: #000000; stroke-linejoin: miter"/>
    </g>
    <g id="line2d_25">
     <path d="M 140.016079 42.322106 
L 144.181079 42.322106 
L 148.346079 42.322106 
" style="fill: none; stroke: #9467bd; stroke-width: 1.5; stroke-linecap: square"/>
    </g>
    <g id="text_15">
     <!-- Dublin -->
     <g transform="translate(150.845079 45.237606) scale(0.0833 -0.0833)">
      <defs>
       <path id="CMR17-44" d="M 333 4352 
L 333 4186 
C 774 4186 845 4186 845 3900 
L 845 452 
C 845 166 774 166 333 166 
L 333 0 
L 2368 0 
C 3398 0 4224 943 4224 2141 
C 4224 3346 3411 4352 2368 4352 
L 333 4352 
z
M 1523 166 
C 1267 166 1254 197 1254 414 
L 1254 3938 
C 1254 4155 1267 4186 1523 4186 
L 2240 4186 
C 2771 4186 3750 3874 3750 2141 
C 3750 1242 3488 879 3366 707 
C 3213 510 2848 166 2240 166 
L 1523 166 
z
" transform="scale(0.015625)"/>
       <path id="CMR17-75" d="M 1882 2693 
L 1882 2528 
C 2259 2528 2317 2489 2317 2186 
L 2317 1032 
C 2317 500 2029 38 1555 38 
C 1030 38 986 348 986 678 
L 986 2763 
L 211 2693 
L 211 2528 
C 467 2528 640 2528 646 2274 
L 646 1058 
C 646 633 646 361 813 183 
C 896 101 1056 -64 1517 -64 
C 2061 -64 2272 377 2323 506 
L 2330 506 
L 2330 -63 
L 3091 -63 
L 3091 128 
C 2714 128 2656 166 2656 473 
L 2656 2763 
L 1882 2693 
z
" transform="scale(0.015625)"/>
       <path id="CMR17-62" d="M 960 4396 
L 198 4326 
L 198 4160 
C 576 4160 634 4122 634 3817 
L 634 -13 
L 749 -13 
L 934 441 
C 1120 141 1395 -64 1766 -64 
C 2406 -64 3053 500 3053 1370 
C 3053 2188 2477 2790 1830 2790 
C 1434 2790 1152 2579 960 2330 
L 960 4396 
z
M 973 2004 
C 973 2118 973 2138 1062 2272 
C 1312 2657 1670 2688 1792 2688 
C 1984 2688 2643 2585 2643 1376 
C 2643 108 1888 38 1734 38 
C 1536 38 1248 114 1043 486 
C 973 608 973 621 973 735 
L 973 2004 
z
" transform="scale(0.015625)"/>
      </defs>
      <use xlink:href="#CMR17-44" transform="scale(0.996264)"/>
      <use xlink:href="#CMR17-75" transform="translate(70.393556 0) scale(0.996264)"/>
      <use xlink:href="#CMR17-62" transform="translate(121.288926 0) scale(0.996264)"/>
      <use xlink:href="#CMR17-6c" transform="translate(172.184295 0) scale(0.996264)"/>
      <use xlink:href="#CMR17-69" transform="translate(197.055354 0) scale(0.996264)"/>
      <use xlink:href="#CMR17-6e" transform="translate(221.926412 0) scale(0.996264)"/>
     </g>
    </g>
    <g id="line2d_26">
     <path d="M 140.016079 50.266576 
L 144.181079 50.266576 
L 148.346079 50.266576 
" style="fill: none; stroke-dasharray: 1.5,2.475; stroke-dashoffset: 0; stroke: #8c564b; stroke-width: 1.5"/>
    </g>
    <g id="text_16">
     <!-- Lagos -->
     <g transform="translate(150.845079 53.182076) scale(0.0833 -0.0833)">
      <defs>
       <path id="CMR17-4c" d="M 3469 1615 
L 3354 1615 
C 3302 983 3219 166 2125 166 
L 1530 166 
C 1274 166 1261 197 1261 414 
L 1261 3898 
C 1261 4129 1274 4192 1760 4192 
L 1901 4192 
L 1901 4352 
C 1638 4352 1331 4352 1069 4352 
C 870 4352 512 4352 326 4352 
L 326 4192 
C 768 4192 838 4192 838 3905 
L 838 452 
C 838 166 768 166 326 166 
L 326 0 
L 3315 0 
L 3469 1615 
z
" transform="scale(0.015625)"/>
       <path id="CMR17-61" d="M 2304 1653 
C 2304 2072 2304 2294 2035 2543 
C 1798 2752 1523 2816 1306 2816 
C 800 2816 435 2407 435 1971 
C 435 1728 627 1728 666 1728 
C 749 1728 896 1778 896 1954 
C 896 2112 774 2181 666 2181 
C 640 2181 608 2174 589 2168 
C 723 2592 1069 2714 1293 2714 
C 1613 2714 1965 2429 1965 1885 
L 1965 1600 
C 1587 1600 1133 1549 774 1357 
C 371 1133 256 813 256 570 
C 256 77 832 -64 1171 -64 
C 1523 -64 1850 139 1990 511 
C 2003 233 2182 -18 2464 -18 
C 2598 -18 2938 70 2938 567 
L 2938 920 
L 2822 920 
L 2822 562 
C 2822 178 2650 128 2566 128 
C 2304 128 2304 458 2304 738 
L 2304 1653 
z
M 1965 870 
C 1965 317 1568 38 1216 38 
C 896 38 646 275 646 570 
C 646 761 730 1100 1101 1305 
C 1408 1478 1760 1504 1965 1504 
L 1965 870 
z
" transform="scale(0.015625)"/>
       <path id="CMR17-67" d="M 710 1164 
C 832 1068 1043 960 1299 960 
C 1805 960 2240 1357 2240 1888 
C 2240 2054 2189 2310 1997 2509 
C 2176 2692 2438 2752 2586 2752 
C 2611 2752 2650 2752 2682 2734 
C 2656 2728 2598 2703 2598 2605 
C 2598 2527 2656 2471 2739 2471 
C 2835 2471 2886 2533 2886 2614 
C 2886 2731 2790 2854 2586 2854 
C 2330 2854 2106 2738 1926 2580 
C 1734 2753 1504 2816 1299 2816 
C 794 2816 358 2419 358 1888 
C 358 1522 570 1292 634 1228 
C 442 1004 442 743 442 711 
C 442 545 506 302 723 168 
C 390 85 128 -169 128 -486 
C 128 -943 736 -1280 1466 -1280 
C 2170 -1280 2803 -956 2803 -479 
C 2803 384 1856 384 1363 384 
C 1216 384 954 384 922 391 
C 723 423 589 602 589 826 
C 589 883 589 1024 710 1164 
z
M 1299 1068 
C 736 1068 736 1760 736 1889 
C 736 2016 736 2708 1299 2708 
C 1862 2708 1862 2016 1862 1889 
C 1862 1760 1862 1068 1299 1068 
z
M 1466 -1171 
C 826 -1171 384 -835 384 -486 
C 384 -289 493 -105 634 -4 
C 794 104 858 104 1293 104 
C 1818 104 2547 104 2547 -486 
C 2547 -835 2106 -1171 1466 -1171 
z
" transform="scale(0.015625)"/>
       <path id="CMR17-6f" d="M 2758 1356 
C 2758 2176 2163 2816 1466 2816 
C 768 2816 173 2176 173 1356 
C 173 551 768 -64 1466 -64 
C 2163 -64 2758 551 2758 1356 
z
M 1466 51 
C 1165 51 909 230 762 480 
C 602 767 582 1126 582 1408 
C 582 1677 595 2010 762 2298 
C 890 2509 1139 2714 1466 2714 
C 1754 2714 1997 2554 2150 2330 
C 2349 2029 2349 1607 2349 1408 
C 2349 1158 2336 775 2163 467 
C 1984 173 1709 51 1466 51 
z
" transform="scale(0.015625)"/>
      </defs>
      <use xlink:href="#CMR17-4c" transform="scale(0.996264)"/>
      <use xlink:href="#CMR17-61" transform="translate(57.381408 0) scale(0.996264)"/>
      <use xlink:href="#CMR17-67" transform="translate(103.071885 0) scale(0.996264)"/>
      <use xlink:href="#CMR17-6f" transform="translate(148.762362 0) scale(0.996264)"/>
      <use xlink:href="#CMR17-73" transform="translate(194.452839 0) scale(0.996264)"/>
     </g>
    </g>
    <g id="line2d_27">
     <path d="M 140.016079 58.211045 
L 144.181079 58.211045 
L 148.346079 58.211045 
" style="fill: none; stroke-dasharray: 5.55,2.4; stroke-dashoffset: 0; stroke: #e377c2; stroke-width: 1.5"/>
    </g>
    <g id="text_17">
     <!-- Manila -->
     <g transform="translate(150.845079 61.126545) scale(0.0833 -0.0833)">
      <defs>
       <path id="CMR17-4d" d="M 1338 4224 
C 1299 4320 1293 4320 1158 4320 
L 339 4320 
L 339 4160 
C 781 4160 851 4160 851 3875 
L 851 610 
C 851 451 851 153 339 153 
L 339 -13 
C 486 0 755 0 915 0 
C 1075 0 1344 0 1491 -13 
L 1491 153 
C 979 153 979 451 979 610 
L 979 4135 
L 986 4135 
L 2490 89 
C 2515 25 2528 -13 2579 -13 
C 2630 -13 2643 25 2669 89 
L 4186 4166 
L 4192 4166 
L 4192 438 
C 4192 153 4122 153 3680 153 
L 3680 -13 
C 3853 0 4198 0 4384 0 
C 4570 0 4922 0 5094 -13 
L 5094 153 
C 4653 153 4582 153 4582 438 
L 4582 3875 
C 4582 4160 4653 4160 5094 4160 
L 5094 4320 
L 4282 4320 
C 4147 4320 4141 4314 4102 4218 
L 2720 502 
L 1338 4224 
z
" transform="scale(0.015625)"/>
      </defs>
      <use xlink:href="#CMR17-4d" transform="scale(0.996264)"/>
      <use xlink:href="#CMR17-61" transform="translate(84.686941 0) scale(0.996264)"/>
      <use xlink:href="#CMR17-6e" transform="translate(130.377418 0) scale(0.996264)"/>
      <use xlink:href="#CMR17-69" transform="translate(181.272787 0) scale(0.996264)"/>
      <use xlink:href="#CMR17-6c" transform="translate(206.143846 0) scale(0.996264)"/>
      <use xlink:href="#CMR17-61" transform="translate(231.014904 0) scale(0.996264)"/>
     </g>
    </g>
    <g id="line2d_28">
     <path d="M 140.016079 66.155514 
L 144.181079 66.155514 
L 148.346079 66.155514 
" style="fill: none; stroke: #1f77b4; stroke-width: 1.5; stroke-linecap: square"/>
    </g>
    <g id="text_18">
     <!-- Mexico City -->
     <g transform="translate(150.845079 69.071014) scale(0.0833 -0.0833)">
      <defs>
       <path id="CMR17-78" d="M 1664 1477 
C 1856 1726 2074 2006 2253 2216 
C 2464 2458 2707 2560 2989 2560 
L 2989 2726 
C 2880 2726 2656 2726 2541 2726 
C 2368 2726 2170 2726 2022 2732 
L 2022 2566 
C 2112 2553 2163 2489 2163 2400 
C 2163 2285 2099 2215 2067 2171 
L 1594 1573 
L 1030 2306 
C 973 2376 973 2388 973 2420 
C 973 2497 1037 2560 1146 2560 
L 1146 2732 
C 992 2726 717 2726 557 2726 
C 384 2726 179 2726 38 2732 
L 38 2560 
C 384 2560 461 2534 614 2343 
L 1350 1395 
C 1363 1382 1395 1344 1395 1325 
C 1395 1299 838 619 768 530 
C 480 185 179 160 6 160 
L 6 0 
C 115 0 339 0 454 0 
C 582 0 864 0 979 -6 
L 979 160 
C 941 166 838 179 838 325 
C 838 440 890 510 947 586 
L 1478 1236 
L 2035 512 
C 2086 442 2163 346 2163 301 
C 2163 211 2086 160 1984 160 
L 1984 -6 
C 2138 0 2413 0 2573 0 
C 2746 0 2950 0 3091 -6 
L 3091 160 
C 2771 160 2675 172 2522 370 
L 1664 1477 
z
" transform="scale(0.015625)"/>
       <path id="CMR17-43" d="M 3974 4289 
C 3974 4403 3968 4410 3930 4410 
C 3904 4410 3898 4403 3853 4327 
L 3571 3792 
C 3258 4187 2874 4416 2381 4416 
C 1286 4416 294 3456 294 2148 
C 294 826 1286 -128 2387 -128 
C 3366 -128 3974 730 3974 1461 
C 3974 1524 3974 1550 3917 1550 
C 3866 1550 3866 1531 3859 1474 
C 3808 585 3168 38 2477 38 
C 1824 38 781 495 781 2147 
C 781 3805 1843 4250 2464 4250 
C 3187 4250 3712 3628 3834 2745 
C 3846 2668 3846 2655 3904 2655 
C 3974 2655 3974 2668 3974 2783 
L 3974 4289 
z
" transform="scale(0.015625)"/>
       <path id="CMR17-79" d="M 2496 2197 
C 2656 2586 2944 2586 3034 2586 
L 3034 2752 
C 2912 2752 2752 2752 2630 2752 
C 2496 2752 2285 2752 2157 2758 
L 2157 2592 
C 2400 2573 2406 2394 2406 2343 
C 2406 2280 2394 2248 2362 2171 
L 1664 449 
L 902 2306 
C 870 2382 870 2426 870 2433 
C 870 2573 1018 2586 1171 2586 
L 1171 2758 
C 1018 2752 742 2752 582 2752 
C 410 2752 205 2752 64 2758 
L 64 2586 
C 410 2586 448 2554 531 2350 
L 1485 15 
C 1197 -738 1030 -1178 627 -1178 
C 557 -1178 397 -1159 282 -1044 
C 429 -1031 493 -942 493 -833 
C 493 -725 416 -629 288 -629 
C 147 -629 77 -725 77 -840 
C 77 -1095 339 -1280 627 -1280 
C 998 -1280 1229 -922 1357 -604 
L 2496 2197 
z
" transform="scale(0.015625)"/>
      </defs>
      <use xlink:href="#CMR17-4d" transform="scale(0.996264)"/>
      <use xlink:href="#CMR17-65" transform="translate(84.686941 0) scale(0.996264)"/>
      <use xlink:href="#CMR17-78" transform="translate(125.172601 0) scale(0.996264)"/>
      <use xlink:href="#CMR17-69" transform="translate(173.465517 0) scale(0.996264)"/>
      <use xlink:href="#CMR17-63" transform="translate(198.336575 0) scale(0.996264)"/>
      <use xlink:href="#CMR17-6f" transform="translate(238.822236 0) scale(0.996264)"/>
      <use xlink:href="#CMR17-43" transform="translate(314.588679 0) scale(0.996264)"/>
      <use xlink:href="#CMR17-69" transform="translate(381.09856 0) scale(0.996264)"/>
      <use xlink:href="#CMR17-74" transform="translate(405.969618 0) scale(0.996264)"/>
      <use xlink:href="#CMR17-79" transform="translate(438.647932 0) scale(0.996264)"/>
     </g>
    </g>
    <g id="line2d_29">
     <path d="M 202.028995 42.322106 
L 206.193995 42.322106 
L 210.358995 42.322106 
" style="fill: none; stroke-dasharray: 5.55,2.4; stroke-dashoffset: 0; stroke: #2ca02c; stroke-width: 1.5"/>
    </g>
    <g id="text_19">
     <!-- Seattle -->
     <g transform="translate(212.857995 45.237606) scale(0.0833 -0.0833)">
      <defs>
       <path id="CMR17-53" d="M 2803 4290 
C 2803 4404 2797 4411 2758 4411 
C 2720 4411 2707 4385 2682 4328 
L 2490 3907 
C 2246 4257 1875 4416 1472 4416 
C 819 4416 294 3901 294 3253 
C 294 3056 339 2776 557 2510 
C 794 2218 1018 2167 1530 2033 
C 1722 1982 2042 1899 2106 1874 
C 2470 1722 2662 1341 2662 985 
C 2662 527 2336 38 1779 38 
C 1094 38 454 419 410 1311 
C 403 1413 397 1419 352 1419 
C 301 1419 294 1413 294 1285 
L 294 -1 
C 294 -115 301 -122 339 -122 
C 384 -122 397 -90 486 108 
C 493 127 493 140 614 381 
C 934 -39 1472 -128 1779 -128 
C 2477 -128 2970 451 2970 1124 
C 2970 1454 2848 1708 2778 1823 
C 2509 2230 2221 2306 1914 2382 
C 1869 2402 1856 2402 1498 2490 
C 1152 2579 1005 2624 845 2796 
C 666 2992 602 3196 602 3399 
C 602 3812 934 4263 1478 4263 
C 2157 4263 2579 3786 2675 2993 
C 2694 2878 2701 2872 2746 2872 
C 2803 2872 2803 2891 2803 2999 
L 2803 4290 
z
" transform="scale(0.015625)"/>
      </defs>
      <use xlink:href="#CMR17-53" transform="scale(0.996264)"/>
      <use xlink:href="#CMR17-65" transform="translate(50.89537 0) scale(0.996264)"/>
      <use xlink:href="#CMR17-61" transform="translate(91.38103 0) scale(0.996264)"/>
      <use xlink:href="#CMR17-74" transform="translate(137.071507 0) scale(0.996264)"/>
      <use xlink:href="#CMR17-74" transform="translate(172.352275 0) scale(0.996264)"/>
      <use xlink:href="#CMR17-6c" transform="translate(207.633043 0) scale(0.996264)"/>
      <use xlink:href="#CMR17-65" transform="translate(232.504101 0) scale(0.996264)"/>
     </g>
    </g>
    <g id="line2d_30">
     <path d="M 202.028995 50.266576 
L 206.193995 50.266576 
L 210.358995 50.266576 
" style="fill: none; stroke-dasharray: 9.6,2.4,1.5,2.4; stroke-dashoffset: 0; stroke: #d62728; stroke-width: 1.5"/>
    </g>
    <g id="text_20">
     <!-- Sydney -->
     <g transform="translate(212.857995 53.182076) scale(0.0833 -0.0833)">
      <defs>
       <path id="CMR17-64" d="M 1869 4326 
L 1869 4160 
C 2246 4160 2304 4122 2304 3820 
L 2304 2345 
C 2278 2377 2016 2790 1498 2790 
C 845 2790 211 2208 211 1364 
C 211 525 806 -64 1434 -64 
C 1978 -64 2259 337 2291 380 
L 2291 -63 
L 3066 -63 
L 3066 128 
C 2688 128 2630 166 2630 473 
L 2630 4396 
L 1869 4326 
z
M 2291 755 
C 2291 563 2176 390 2029 262 
C 1811 70 1594 38 1472 38 
C 1286 38 621 134 621 1356 
C 621 2612 1363 2688 1530 2688 
C 1824 2688 2061 2522 2208 2291 
C 2291 2157 2291 2138 2291 2023 
L 2291 755 
z
" transform="scale(0.015625)"/>
      </defs>
      <use xlink:href="#CMR17-53" transform="scale(0.996264)"/>
      <use xlink:href="#CMR17-79" transform="translate(50.89537 0) scale(0.996264)"/>
      <use xlink:href="#CMR17-64" transform="translate(99.188286 0) scale(0.996264)"/>
      <use xlink:href="#CMR17-6e" transform="translate(150.083655 0) scale(0.996264)"/>
      <use xlink:href="#CMR17-65" transform="translate(200.979025 0) scale(0.996264)"/>
      <use xlink:href="#CMR17-79" transform="translate(241.464686 0) scale(0.996264)"/>
     </g>
    </g>
    <g id="line2d_31">
     <path d="M 202.028995 58.211045 
L 206.193995 58.211045 
L 210.358995 58.211045 
" style="fill: none; stroke-dasharray: 1.5,2.475; stroke-dashoffset: 0; stroke: #ff7f0e; stroke-width: 1.5"/>
    </g>
    <g id="text_21">
     <!-- So Paulo -->
     <g transform="translate(212.857995 61.126545) scale(0.0833 -0.0833)">
      <defs>
       <path id="CMR17-7e" d="M 2400 4184 
C 2182 3980 2061 3865 1862 3865 
C 1722 3865 1626 3932 1491 4024 
C 1363 4111 1261 4184 1120 4184 
C 890 4184 730 4004 461 3718 
L 531 3648 
C 749 3850 870 3968 1069 3968 
C 1210 3968 1306 3900 1440 3808 
C 1568 3722 1670 3648 1811 3648 
C 2042 3648 2202 3828 2470 4114 
L 2400 4184 
z
" transform="scale(0.015625)"/>
      </defs>
      <use xlink:href="#CMR17-53" transform="scale(0.996264)"/>
      <use xlink:href="#CMR17-7e" transform="translate(50.89537 0) scale(0.996264)"/>
      <use xlink:href="#CMR17-61" transform="translate(50.89537 0) scale(0.996264)"/>
      <use xlink:href="#CMR17-6f" transform="translate(96.585847 0) scale(0.996264)"/>
      <use xlink:href="#CMR17-50" transform="translate(172.35229 0) scale(0.996264)"/>
      <use xlink:href="#CMR17-61" transform="translate(232.336137 0) scale(0.996264)"/>
      <use xlink:href="#CMR17-75" transform="translate(278.026614 0) scale(0.996264)"/>
      <use xlink:href="#CMR17-6c" transform="translate(328.921984 0) scale(0.996264)"/>
      <use xlink:href="#CMR17-6f" transform="translate(353.793042 0) scale(0.996264)"/>
     </g>
    </g>
   </g>
  </g>
 </g>
 <defs>
  <clipPath id="p2bc7bb011f">
   <rect x="37.567091" y="0" width="221.360906" height="78.181683"/>
  </clipPath>
 </defs>
</svg>
