<?xml version="1.0" encoding="utf-8" standalone="no"?>
<!DOCTYPE svg PUBLIC "-//W3C//DTD SVG 1.1//EN"
  "http://www.w3.org/Graphics/SVG/1.1/DTD/svg11.dtd">
<svg xmlns:xlink="http://www.w3.org/1999/xlink" width="218.16pt" height="164.16pt" viewBox="0 0 218.16 164.16" xmlns="http://www.w3.org/2000/svg" version="1.1">
 <metadata>
  <rdf:RDF xmlns:dc="http://purl.org/dc/elements/1.1/" xmlns:cc="http://creativecommons.org/ns#" xmlns:rdf="http://www.w3.org/1999/02/22-rdf-syntax-ns#">
   <cc:Work>
    <dc:type rdf:resource="http://purl.org/dc/dcmitype/StillImage"/>
    <dc:date>2023-10-10T20:52:02.375740</dc:date>
    <dc:format>image/svg+xml</dc:format>
    <dc:creator>
     <cc:Agent>
      <dc:title>Matplotlib v3.7.0, https://matplotlib.org/</dc:title>
     </cc:Agent>
    </dc:creator>
   </cc:Work>
  </rdf:RDF>
 </metadata>
 <defs>
  <style type="text/css">*{stroke-linejoin: round; stroke-linecap: butt}</style>
 </defs>
 <g id="figure_1">
  <g id="patch_1">
   <path d="M 0 164.16 
L 218.16 164.16 
L 218.16 0 
L 0 0 
z
" style="fill: #ffffff"/>
  </g>
  <g id="axes_1">
   <g id="patch_2">
    <path d="M 47.676976 126.814399 
L 207.917267 126.814399 
L 207.917267 0 
L 47.676976 0 
z
" style="fill: #ffffff"/>
   </g>
   <g id="matplotlib.axis_1">
    <g id="xtick_1">
     <g id="line2d_1">
      <defs>
       <path id="m2484e8deec" d="M 0 0 
L 0 3.5 
" style="stroke: #000000; stroke-width: 0.8"/>
      </defs>
      <g>
       <use xlink:href="#m2484e8deec" x="52.128095" y="126.814399" style="stroke: #000000; stroke-width: 0.8"/>
      </g>
     </g>
     <g id="text_1">
      <!-- 25 -->
      <g transform="translate(45.299606 143.500275) scale(0.14 -0.14)">
       <defs>
        <path id="CMR17-32" d="M 2669 989 
L 2554 989 
C 2490 536 2438 459 2413 420 
C 2381 369 1920 369 1830 369 
L 602 369 
C 832 619 1280 1072 1824 1597 
C 2214 1967 2669 2402 2669 3035 
C 2669 3790 2067 4224 1395 4224 
C 691 4224 262 3604 262 3030 
C 262 2780 448 2748 525 2748 
C 589 2748 781 2787 781 3010 
C 781 3207 614 3264 525 3264 
C 486 3264 448 3258 422 3245 
C 544 3790 915 4058 1306 4058 
C 1862 4058 2227 3617 2227 3035 
C 2227 2479 1901 2000 1536 1584 
L 262 146 
L 262 0 
L 2515 0 
L 2669 989 
z
" transform="scale(0.015625)"/>
        <path id="CMR17-35" d="M 730 3692 
C 794 3666 1056 3584 1325 3584 
C 1920 3584 2246 3911 2432 4100 
C 2432 4157 2432 4192 2394 4192 
C 2387 4192 2374 4192 2323 4163 
C 2099 4058 1837 3973 1517 3973 
C 1325 3973 1037 3999 723 4139 
C 653 4171 640 4171 634 4171 
C 602 4171 595 4164 595 4037 
L 595 2203 
C 595 2089 595 2057 659 2057 
C 691 2057 704 2070 736 2114 
C 941 2401 1222 2522 1542 2522 
C 1766 2522 2246 2382 2246 1289 
C 2246 1085 2246 715 2054 421 
C 1894 159 1645 25 1370 25 
C 947 25 518 320 403 814 
C 429 807 480 795 506 795 
C 589 795 749 840 749 1038 
C 749 1210 627 1280 506 1280 
C 358 1280 262 1190 262 1011 
C 262 454 704 -128 1382 -128 
C 2042 -128 2669 440 2669 1264 
C 2669 2030 2170 2624 1549 2624 
C 1222 2624 947 2503 730 2274 
L 730 3692 
z
" transform="scale(0.015625)"/>
       </defs>
       <use xlink:href="#CMR17-32" transform="scale(0.996264)"/>
       <use xlink:href="#CMR17-35" transform="translate(45.690477 0) scale(0.996264)"/>
      </g>
     </g>
    </g>
    <g id="xtick_2">
     <g id="line2d_2">
      <g>
       <use xlink:href="#m2484e8deec" x="74.383691" y="126.814399" style="stroke: #000000; stroke-width: 0.8"/>
      </g>
     </g>
     <g id="text_2">
      <!-- 50 -->
      <g transform="translate(67.555202 143.500275) scale(0.14 -0.14)">
       <defs>
        <path id="CMR17-30" d="M 2688 2025 
C 2688 2416 2682 3080 2413 3591 
C 2176 4039 1798 4198 1466 4198 
C 1158 4198 768 4058 525 3597 
C 269 3118 243 2524 243 2025 
C 243 1661 250 1106 448 619 
C 723 -39 1216 -128 1466 -128 
C 1760 -128 2208 -7 2470 600 
C 2662 1042 2688 1559 2688 2025 
z
M 1466 -26 
C 1056 -26 813 325 723 812 
C 653 1188 653 1738 653 2096 
C 653 2588 653 2997 736 3387 
C 858 3929 1216 4096 1466 4096 
C 1728 4096 2067 3923 2189 3400 
C 2272 3036 2278 2607 2278 2096 
C 2278 1680 2278 1169 2202 792 
C 2067 95 1690 -26 1466 -26 
z
" transform="scale(0.015625)"/>
       </defs>
       <use xlink:href="#CMR17-35" transform="scale(0.996264)"/>
       <use xlink:href="#CMR17-30" transform="translate(45.690477 0) scale(0.996264)"/>
      </g>
     </g>
    </g>
    <g id="xtick_3">
     <g id="line2d_3">
      <g>
       <use xlink:href="#m2484e8deec" x="96.639287" y="126.814399" style="stroke: #000000; stroke-width: 0.8"/>
      </g>
     </g>
     <g id="text_3">
      <!-- 75 -->
      <g transform="translate(89.810798 143.500275) scale(0.14 -0.14)">
       <defs>
        <path id="CMR17-37" d="M 2886 3941 
L 2886 4081 
L 1382 4081 
C 634 4081 621 4165 595 4288 
L 480 4288 
L 294 3094 
L 410 3094 
C 429 3215 474 3540 550 3661 
C 589 3712 1062 3712 1171 3712 
L 2579 3712 
L 1869 2661 
C 1395 1954 1069 999 1069 165 
C 1069 89 1069 -128 1299 -128 
C 1530 -128 1530 89 1530 171 
L 1530 465 
C 1530 1508 1709 2196 2003 2636 
L 2886 3941 
z
" transform="scale(0.015625)"/>
       </defs>
       <use xlink:href="#CMR17-37" transform="scale(0.996264)"/>
       <use xlink:href="#CMR17-35" transform="translate(45.690477 0) scale(0.996264)"/>
      </g>
     </g>
    </g>
    <g id="xtick_4">
     <g id="line2d_4">
      <g>
       <use xlink:href="#m2484e8deec" x="118.894883" y="126.814399" style="stroke: #000000; stroke-width: 0.8"/>
      </g>
     </g>
     <g id="text_4">
      <!-- 100 -->
      <g transform="translate(108.65215 143.500275) scale(0.14 -0.14)">
       <defs>
        <path id="CMR17-31" d="M 1702 4058 
C 1702 4192 1696 4192 1606 4192 
C 1357 3916 979 3827 621 3827 
C 602 3827 570 3827 563 3808 
C 557 3795 557 3782 557 3648 
C 755 3648 1088 3686 1344 3839 
L 1344 461 
C 1344 236 1331 160 781 160 
L 589 160 
L 589 0 
C 896 0 1216 0 1523 0 
C 1830 0 2150 0 2458 0 
L 2458 160 
L 2266 160 
C 1715 160 1702 230 1702 458 
L 1702 4058 
z
" transform="scale(0.015625)"/>
       </defs>
       <use xlink:href="#CMR17-31" transform="scale(0.996264)"/>
       <use xlink:href="#CMR17-30" transform="translate(45.690477 0) scale(0.996264)"/>
       <use xlink:href="#CMR17-30" transform="translate(91.380954 0) scale(0.996264)"/>
      </g>
     </g>
    </g>
    <g id="xtick_5">
     <g id="line2d_5">
      <g>
       <use xlink:href="#m2484e8deec" x="141.150479" y="126.814399" style="stroke: #000000; stroke-width: 0.8"/>
      </g>
     </g>
     <g id="text_5">
      <!-- 125 -->
      <g transform="translate(130.907746 143.500275) scale(0.14 -0.14)">
       <use xlink:href="#CMR17-31" transform="scale(0.996264)"/>
       <use xlink:href="#CMR17-32" transform="translate(45.690477 0) scale(0.996264)"/>
       <use xlink:href="#CMR17-35" transform="translate(91.380954 0) scale(0.996264)"/>
      </g>
     </g>
    </g>
    <g id="xtick_6">
     <g id="line2d_6">
      <g>
       <use xlink:href="#m2484e8deec" x="163.406075" y="126.814399" style="stroke: #000000; stroke-width: 0.8"/>
      </g>
     </g>
     <g id="text_6">
      <!-- 150 -->
      <g transform="translate(153.163342 143.500275) scale(0.14 -0.14)">
       <use xlink:href="#CMR17-31" transform="scale(0.996264)"/>
       <use xlink:href="#CMR17-35" transform="translate(45.690477 0) scale(0.996264)"/>
       <use xlink:href="#CMR17-30" transform="translate(91.380954 0) scale(0.996264)"/>
      </g>
     </g>
    </g>
    <g id="xtick_7">
     <g id="line2d_7">
      <g>
       <use xlink:href="#m2484e8deec" x="185.661671" y="126.814399" style="stroke: #000000; stroke-width: 0.8"/>
      </g>
     </g>
     <g id="text_7">
      <!-- 175 -->
      <g transform="translate(175.418938 143.500275) scale(0.14 -0.14)">
       <use xlink:href="#CMR17-31" transform="scale(0.996264)"/>
       <use xlink:href="#CMR17-37" transform="translate(45.690477 0) scale(0.996264)"/>
       <use xlink:href="#CMR17-35" transform="translate(91.380954 0) scale(0.996264)"/>
      </g>
     </g>
    </g>
    <g id="xtick_8">
     <g id="line2d_8">
      <g>
       <use xlink:href="#m2484e8deec" x="207.917267" y="126.814399" style="stroke: #000000; stroke-width: 0.8"/>
      </g>
     </g>
     <g id="text_8">
      <!-- 200 -->
      <g transform="translate(197.674534 143.500275) scale(0.14 -0.14)">
       <use xlink:href="#CMR17-32" transform="scale(0.996264)"/>
       <use xlink:href="#CMR17-30" transform="translate(45.690477 0) scale(0.996264)"/>
       <use xlink:href="#CMR17-30" transform="translate(91.380954 0) scale(0.996264)"/>
      </g>
     </g>
    </g>
    <g id="text_9">
     <!-- RTT [ms] -->
     <g transform="translate(99.023834 160.673076) scale(0.14 -0.14)">
      <defs>
       <path id="CMR17-52" d="M 2509 2146 
C 3117 2268 3629 2676 3629 3186 
C 3629 3785 2950 4326 2054 4326 
L 333 4326 
L 333 4160 
C 774 4160 845 4160 845 3873 
L 845 415 
C 845 128 774 128 333 128 
L 333 -26 
C 518 -26 851 -26 1050 -26 
C 1248 -26 1581 -26 1766 -26 
L 1766 128 
C 1325 128 1254 128 1254 417 
L 1254 2112 
L 2003 2112 
C 2368 2112 2573 1964 2662 1881 
C 2918 1632 2918 1459 2918 1024 
C 2918 595 2918 377 3110 160 
C 3354 -102 3680 -128 3821 -128 
C 4294 -128 4365 396 4365 503 
C 4365 540 4365 585 4307 585 
C 4256 585 4250 547 4250 522 
C 4218 112 4032 -26 3834 -26 
C 3482 -26 3443 375 3405 764 
C 3386 898 3373 993 3360 1133 
C 3322 1452 3270 1917 2509 2146 
z
M 1984 2214 
L 1254 2214 
L 1254 3913 
C 1254 4129 1267 4160 1523 4160 
L 1990 4160 
C 2522 4160 3142 3977 3142 3190 
C 3142 2372 2464 2214 1984 2214 
z
" transform="scale(0.015625)"/>
       <path id="CMR17-54" d="M 3981 4326 
L 288 4326 
L 179 2918 
L 294 2918 
C 378 3976 467 4160 1453 4160 
C 1568 4160 1754 4160 1805 4154 
C 1926 4135 1926 4058 1926 3912 
L 1926 459 
C 1926 230 1907 160 1376 160 
L 1197 160 
L 1197 0 
C 1504 0 1824 0 2138 0 
C 2451 0 2771 0 3078 0 
L 3078 160 
L 2899 160 
C 2368 160 2349 230 2349 459 
L 2349 3912 
C 2349 4052 2349 4129 2464 4154 
C 2515 4160 2701 4160 2816 4160 
C 3795 4160 3891 3976 3974 2918 
L 4090 2918 
L 3981 4326 
z
" transform="scale(0.015625)"/>
       <path id="CMR17-5b" d="M 1504 -1600 
L 1504 -1377 
L 902 -1377 
L 902 4544 
L 1504 4544 
L 1504 4767 
L 678 4767 
L 678 -1600 
L 1504 -1600 
z
" transform="scale(0.015625)"/>
       <path id="CMR17-6d" d="M 4326 1933 
C 4326 2252 4269 2790 3507 2790 
C 3072 2790 2771 2496 2656 2151 
L 2650 2151 
C 2573 2676 2195 2790 1837 2790 
C 1331 2790 1069 2400 973 2144 
L 966 2144 
L 966 2790 
L 211 2720 
L 211 2554 
C 589 2554 646 2515 646 2208 
L 646 428 
C 646 184 621 153 211 153 
L 211 -13 
C 365 0 646 0 813 0 
C 979 0 1267 0 1421 -13 
L 1421 153 
C 1011 153 986 178 986 428 
L 986 1658 
C 986 2247 1344 2688 1792 2688 
C 2266 2688 2317 2266 2317 1958 
L 2317 428 
C 2317 184 2291 153 1882 153 
L 1882 -13 
C 2035 0 2317 0 2483 0 
C 2650 0 2938 0 3091 -13 
L 3091 153 
C 2682 153 2656 178 2656 428 
L 2656 1658 
C 2656 2247 3014 2688 3462 2688 
C 3936 2688 3987 2266 3987 1958 
L 3987 428 
C 3987 184 3962 153 3552 153 
L 3552 -13 
C 3706 0 3987 0 4154 0 
C 4320 0 4608 0 4762 -13 
L 4762 153 
C 4352 153 4326 178 4326 428 
L 4326 1933 
z
" transform="scale(0.015625)"/>
       <path id="CMR17-73" d="M 1978 2697 
C 1978 2813 1971 2819 1933 2819 
C 1907 2819 1901 2813 1824 2717 
C 1805 2691 1747 2626 1728 2601 
C 1523 2819 1235 2819 1126 2819 
C 416 2819 160 2447 160 2076 
C 160 1498 813 1365 998 1325 
C 1402 1243 1542 1217 1677 1101 
C 1760 1025 1901 884 1901 654 
C 1901 384 1747 38 1158 38 
C 602 38 403 460 288 1021 
C 269 1110 269 1117 218 1117 
C 166 1117 160 1110 160 983 
L 160 63 
C 160 -51 166 -58 205 -58 
C 237 -58 243 -51 275 0 
C 314 57 410 211 448 276 
C 576 103 800 -64 1158 -64 
C 1792 -64 2131 283 2131 784 
C 2131 1112 1958 1285 1875 1362 
C 1683 1561 1459 1606 1190 1657 
C 838 1735 390 1825 390 2217 
C 390 2383 480 2737 1126 2737 
C 1811 2737 1850 2094 1862 1888 
C 1869 1856 1901 1849 1920 1849 
C 1978 1849 1978 1869 1978 1978 
L 1978 2697 
z
" transform="scale(0.015625)"/>
       <path id="CMR17-5d" d="M 915 4767 
L 90 4767 
L 90 4544 
L 691 4544 
L 691 -1377 
L 90 -1377 
L 90 -1600 
L 915 -1600 
L 915 4767 
z
" transform="scale(0.015625)"/>
      </defs>
      <use xlink:href="#CMR17-52" transform="scale(0.996264)"/>
      <use xlink:href="#CMR17-54" transform="translate(59.983847 0) scale(0.996264)"/>
      <use xlink:href="#CMR17-54" transform="translate(126.493727 0) scale(0.996264)"/>
      <use xlink:href="#CMR17-5b" transform="translate(223.079574 0) scale(0.996264)"/>
      <use xlink:href="#CMR17-6d" transform="translate(247.950633 0) scale(0.996264)"/>
      <use xlink:href="#CMR17-73" transform="translate(324.870222 0) scale(0.996264)"/>
      <use xlink:href="#CMR17-5d" transform="translate(360.67156 0) scale(0.996264)"/>
     </g>
    </g>
   </g>
   <g id="matplotlib.axis_2">
    <g id="ytick_1">
     <g id="line2d_9">
      <path d="M 47.676976 121.050108 
L 207.917267 121.050108 
" clip-path="url(#p4822f04523)" style="fill: none; stroke: #b0b0b0; stroke-opacity: 0.7; stroke-width: 0.5; stroke-linecap: square"/>
     </g>
     <g id="line2d_10">
      <defs>
       <path id="m2447f15fd3" d="M 0 0 
L -3.5 0 
" style="stroke: #000000; stroke-width: 0.8"/>
      </defs>
      <g>
       <use xlink:href="#m2447f15fd3" x="47.676976" y="121.050108" style="stroke: #000000; stroke-width: 0.8"/>
      </g>
     </g>
     <g id="text_10">
      <!-- 0.00 -->
      <g transform="translate(16.397905 125.893046) scale(0.14 -0.14)">
       <defs>
        <path id="CMR17-2e" d="M 1062 261 
C 1062 420 934 522 800 522 
C 672 522 538 420 538 261 
C 538 102 666 0 800 0 
C 928 0 1062 102 1062 261 
z
" transform="scale(0.015625)"/>
       </defs>
       <use xlink:href="#CMR17-30" transform="scale(0.996264)"/>
       <use xlink:href="#CMR17-2e" transform="translate(45.690477 0) scale(0.996264)"/>
       <use xlink:href="#CMR17-30" transform="translate(70.561536 0) scale(0.996264)"/>
       <use xlink:href="#CMR17-30" transform="translate(116.252013 0) scale(0.996264)"/>
      </g>
     </g>
    </g>
    <g id="ytick_2">
     <g id="line2d_11">
      <path d="M 47.676976 92.228654 
L 207.917267 92.228654 
" clip-path="url(#p4822f04523)" style="fill: none; stroke: #b0b0b0; stroke-opacity: 0.7; stroke-width: 0.5; stroke-linecap: square"/>
     </g>
     <g id="line2d_12">
      <g>
       <use xlink:href="#m2447f15fd3" x="47.676976" y="92.228654" style="stroke: #000000; stroke-width: 0.8"/>
      </g>
     </g>
     <g id="text_11">
      <!-- 0.25 -->
      <g transform="translate(16.397905 97.071592) scale(0.14 -0.14)">
       <use xlink:href="#CMR17-30" transform="scale(0.996264)"/>
       <use xlink:href="#CMR17-2e" transform="translate(45.690477 0) scale(0.996264)"/>
       <use xlink:href="#CMR17-32" transform="translate(70.561536 0) scale(0.996264)"/>
       <use xlink:href="#CMR17-35" transform="translate(116.252013 0) scale(0.996264)"/>
      </g>
     </g>
    </g>
    <g id="ytick_3">
     <g id="line2d_13">
      <path d="M 47.676976 63.4072 
L 207.917267 63.4072 
" clip-path="url(#p4822f04523)" style="fill: none; stroke: #b0b0b0; stroke-opacity: 0.7; stroke-width: 0.5; stroke-linecap: square"/>
     </g>
     <g id="line2d_14">
      <g>
       <use xlink:href="#m2447f15fd3" x="47.676976" y="63.4072" style="stroke: #000000; stroke-width: 0.8"/>
      </g>
     </g>
     <g id="text_12">
      <!-- 0.50 -->
      <g transform="translate(16.397905 68.250138) scale(0.14 -0.14)">
       <use xlink:href="#CMR17-30" transform="scale(0.996264)"/>
       <use xlink:href="#CMR17-2e" transform="translate(45.690477 0) scale(0.996264)"/>
       <use xlink:href="#CMR17-35" transform="translate(70.561536 0) scale(0.996264)"/>
       <use xlink:href="#CMR17-30" transform="translate(116.252013 0) scale(0.996264)"/>
      </g>
     </g>
    </g>
    <g id="ytick_4">
     <g id="line2d_15">
      <path d="M 47.676976 34.585745 
L 207.917267 34.585745 
" clip-path="url(#p4822f04523)" style="fill: none; stroke: #b0b0b0; stroke-opacity: 0.7; stroke-width: 0.5; stroke-linecap: square"/>
     </g>
     <g id="line2d_16">
      <g>
       <use xlink:href="#m2447f15fd3" x="47.676976" y="34.585745" style="stroke: #000000; stroke-width: 0.8"/>
      </g>
     </g>
     <g id="text_13">
      <!-- 0.75 -->
      <g transform="translate(16.397905 39.428683) scale(0.14 -0.14)">
       <use xlink:href="#CMR17-30" transform="scale(0.996264)"/>
       <use xlink:href="#CMR17-2e" transform="translate(45.690477 0) scale(0.996264)"/>
       <use xlink:href="#CMR17-37" transform="translate(70.561536 0) scale(0.996264)"/>
       <use xlink:href="#CMR17-35" transform="translate(116.252013 0) scale(0.996264)"/>
      </g>
     </g>
    </g>
    <g id="ytick_5">
     <g id="line2d_17">
      <path d="M 47.676976 5.764291 
L 207.917267 5.764291 
" clip-path="url(#p4822f04523)" style="fill: none; stroke: #b0b0b0; stroke-opacity: 0.7; stroke-width: 0.5; stroke-linecap: square"/>
     </g>
     <g id="line2d_18">
      <g>
       <use xlink:href="#m2447f15fd3" x="47.676976" y="5.764291" style="stroke: #000000; stroke-width: 0.8"/>
      </g>
     </g>
     <g id="text_14">
      <!-- 1.00 -->
      <g transform="translate(16.397905 10.607229) scale(0.14 -0.14)">
       <use xlink:href="#CMR17-31" transform="scale(0.996264)"/>
       <use xlink:href="#CMR17-2e" transform="translate(45.690477 0) scale(0.996264)"/>
       <use xlink:href="#CMR17-30" transform="translate(70.561536 0) scale(0.996264)"/>
       <use xlink:href="#CMR17-30" transform="translate(116.252013 0) scale(0.996264)"/>
      </g>
     </g>
    </g>
    <g id="text_15">
     <!-- Percentile -->
     <g transform="translate(9.685876 92.711592) rotate(-90) scale(0.14 -0.14)">
      <defs>
       <path id="CMR17-50" d="M 1267 2042 
L 2291 2042 
C 3117 2042 3718 2578 3718 3184 
C 3718 3791 3130 4352 2291 4352 
L 333 4352 
L 333 4186 
C 774 4186 845 4186 845 3899 
L 845 446 
C 845 160 774 160 333 160 
L 333 0 
C 518 0 858 0 1056 0 
C 1254 0 1594 0 1779 0 
L 1779 160 
C 1338 160 1267 160 1267 446 
L 1267 2042 
z
M 1254 2176 
L 1254 3938 
C 1254 4155 1267 4186 1523 4186 
L 2170 4186 
C 2995 4186 3232 3714 3232 3184 
C 3232 2604 2950 2176 2170 2176 
L 1254 2176 
z
" transform="scale(0.015625)"/>
       <path id="CMR17-65" d="M 2438 1472 
C 2464 1498 2464 1511 2464 1576 
C 2464 2238 2118 2816 1389 2816 
C 710 2816 173 2169 173 1383 
C 173 551 781 -64 1459 -64 
C 2176 -64 2458 607 2458 740 
C 2458 784 2419 784 2406 784 
C 2362 784 2355 771 2330 696 
C 2189 265 1837 51 1504 51 
C 1229 51 954 203 781 480 
C 582 803 582 1176 582 1472 
L 2438 1472 
z
M 589 1568 
C 634 2505 1126 2714 1382 2714 
C 1818 2714 2112 2297 2118 1568 
L 589 1568 
z
" transform="scale(0.015625)"/>
       <path id="CMR17-72" d="M 960 1497 
C 960 2112 1222 2688 1702 2688 
C 1747 2688 1792 2682 1837 2662 
C 1837 2662 1696 2617 1696 2452 
C 1696 2298 1818 2234 1914 2234 
C 1990 2234 2131 2279 2131 2458 
C 2131 2663 1926 2790 1709 2790 
C 1222 2790 1011 2317 947 2093 
L 941 2093 
L 941 2790 
L 198 2720 
L 198 2554 
C 576 2554 634 2515 634 2208 
L 634 428 
C 634 184 608 153 198 153 
L 198 -13 
C 352 0 646 0 813 0 
C 998 0 1325 0 1498 -13 
L 1498 153 
C 1037 153 960 153 960 440 
L 960 1497 
z
" transform="scale(0.015625)"/>
       <path id="CMR17-63" d="M 2234 2240 
C 2112 2240 1933 2240 1933 2017 
C 1933 1838 2080 1787 2163 1787 
C 2208 1787 2394 1807 2394 2024 
C 2394 2467 1958 2803 1466 2803 
C 787 2803 211 2178 211 1363 
C 211 516 813 -64 1466 -64 
C 2259 -64 2458 677 2458 748 
C 2458 774 2451 793 2406 793 
C 2362 793 2355 787 2330 703 
C 2163 180 1798 51 1523 51 
C 1114 51 621 427 621 1369 
C 621 2338 1094 2688 1472 2688 
C 1722 2688 2093 2573 2234 2240 
z
" transform="scale(0.015625)"/>
       <path id="CMR17-6e" d="M 2656 1933 
C 2656 2259 2592 2790 1837 2790 
C 1331 2790 1069 2400 973 2144 
L 966 2144 
L 966 2790 
L 211 2720 
L 211 2554 
C 589 2554 646 2515 646 2208 
L 646 428 
C 646 184 621 153 211 153 
L 211 -13 
C 365 0 646 0 813 0 
C 979 0 1267 0 1421 -13 
L 1421 153 
C 1011 153 986 178 986 428 
L 986 1658 
C 986 2247 1344 2688 1792 2688 
C 2266 2688 2317 2266 2317 1958 
L 2317 428 
C 2317 184 2291 153 1882 153 
L 1882 -13 
C 2035 0 2317 0 2483 0 
C 2650 0 2938 0 3091 -13 
L 3091 153 
C 2682 153 2656 178 2656 428 
L 2656 1933 
z
" transform="scale(0.015625)"/>
       <path id="CMR17-74" d="M 966 2560 
L 1862 2560 
L 1862 2725 
L 966 2725 
L 966 3904 
L 851 3904 
C 838 3245 614 2668 70 2668 
L 70 2560 
L 627 2560 
L 627 771 
C 627 650 627 -64 1370 -64 
C 1747 -64 1965 306 1965 777 
L 1965 1140 
L 1850 1140 
L 1850 783 
C 1850 344 1677 51 1408 51 
C 1222 51 966 178 966 758 
L 966 2560 
z
" transform="scale(0.015625)"/>
       <path id="CMR17-69" d="M 992 3909 
C 992 4049 877 4170 730 4170 
C 589 4170 467 4056 467 3909 
C 467 3769 582 3648 730 3648 
C 870 3648 992 3763 992 3909 
z
M 243 2706 
L 243 2541 
C 602 2541 653 2502 653 2197 
L 653 427 
C 653 184 627 153 218 153 
L 218 -13 
C 371 0 646 0 806 0 
C 960 0 1222 0 1370 -13 
L 1370 153 
C 992 153 979 191 979 420 
L 979 2776 
L 243 2706 
z
" transform="scale(0.015625)"/>
       <path id="CMR17-6c" d="M 979 4396 
L 218 4326 
L 218 4160 
C 595 4160 653 4122 653 3817 
L 653 426 
C 653 184 627 153 218 153 
L 218 -13 
C 371 0 653 0 813 0 
C 979 0 1261 0 1414 -13 
L 1414 153 
C 1005 153 979 178 979 426 
L 979 4396 
z
" transform="scale(0.015625)"/>
      </defs>
      <use xlink:href="#CMR17-50" transform="scale(0.996264)"/>
      <use xlink:href="#CMR17-65" transform="translate(59.983847 0) scale(0.996264)"/>
      <use xlink:href="#CMR17-72" transform="translate(100.469507 0) scale(0.996264)"/>
      <use xlink:href="#CMR17-63" transform="translate(135.750275 0) scale(0.996264)"/>
      <use xlink:href="#CMR17-65" transform="translate(176.235935 0) scale(0.996264)"/>
      <use xlink:href="#CMR17-6e" transform="translate(216.721596 0) scale(0.996264)"/>
      <use xlink:href="#CMR17-74" transform="translate(265.014512 0) scale(0.996264)"/>
      <use xlink:href="#CMR17-69" transform="translate(300.295279 0) scale(0.996264)"/>
      <use xlink:href="#CMR17-6c" transform="translate(325.166338 0) scale(0.996264)"/>
      <use xlink:href="#CMR17-65" transform="translate(350.037396 0) scale(0.996264)"/>
     </g>
    </g>
   </g>
   <g id="line2d_19">
    <path d="M 54.190743 121.047614 
L 57.236199 120.920419 
L 57.456975 120.865551 
L 58.177166 120.459027 
L 58.401502 119.987658 
L 58.797652 119.64099 
L 59.013976 119.36166 
L 59.119023 119.202043 
L 59.375407 118.491249 
L 59.570366 117.790431 
L 60.139219 116.24913 
L 60.251387 115.346297 
L 60.361775 114.707829 
L 60.572758 112.902163 
L 61.253779 103.325148 
L 61.69355 97.149968 
L 62.151125 89.376125 
L 62.776952 83.176005 
L 63.299514 76.250127 
L 63.486461 74.571655 
L 65.451185 51.309982 
L 65.737837 47.359464 
L 67.038454 39.031949 
L 67.204926 38.238853 
L 67.442615 36.278557 
L 67.987432 31.415229 
L 69.628115 22.853278 
L 69.76877 22.466706 
L 71.121911 19.002519 
L 71.333784 18.598489 
L 71.665837 17.992444 
L 71.711239 17.937575 
L 71.825187 17.690668 
L 72.007683 17.428796 
L 72.875652 16.03963 
L 73.341239 15.735361 
L 73.469431 15.64807 
L 73.826411 15.336318 
L 78.068327 13.084223 
L 78.51611 12.944558 
L 78.690594 12.879714 
L 79.663608 12.57295 
L 80.095367 12.393381 
L 80.723865 12.253716 
L 82.084127 11.887096 
L 82.202527 11.837216 
L 82.997497 11.625225 
L 83.628665 11.390787 
L 84.491292 11.178796 
L 84.627497 11.163832 
L 85.478551 10.964311 
L 86.212985 10.73985 
L 86.666109 10.605173 
L 87.007955 10.463014 
L 89.320757 10.011597 
L 89.45518 9.964211 
L 94.539249 8.889291 
L 96.513765 8.637395 
L 99.384737 8.300704 
L 101.029871 8.138593 
L 112.071317 7.510101 
L 116.53579 7.29811 
L 117.995757 7.218301 
L 121.325194 7.046214 
L 122.532337 6.961418 
L 125.398858 6.794319 
L 126.167121 6.734462 
L 129.265991 6.572352 
L 130.890649 6.517483 
L 144.068633 6.293022 
L 160.490592 6.148369 
L 208.807491 6.016186 
L 208.807491 6.016186 
" clip-path="url(#p4822f04523)" style="fill: none; stroke: #1f77b4; stroke-width: 1.5; stroke-linecap: square"/>
   </g>
   <g id="line2d_20">
    <path d="M 47.676085 119.722256 
L 47.791814 119.389273 
L 48.084698 118.739854 
L 49.487691 114.095998 
L 49.909657 111.77713 
L 51.236981 101.30573 
L 51.35182 100.089401 
L 52.352431 91.874533 
L 55.351595 60.257687 
L 57.033228 47.013166 
L 57.441841 43.759951 
L 58.003572 39.74806 
L 58.373015 36.804027 
L 58.637411 35.521963 
L 59.976308 29.905905 
L 60.139219 29.429211 
L 60.254948 29.050213 
L 61.65527 25.787477 
L 61.77189 25.559217 
L 62.675467 24.17515 
L 63.149956 23.533665 
L 63.344025 23.320365 
L 65.440502 21.027565 
L 65.656826 20.75125 
L 66.369896 20.272743 
L 66.490966 20.16938 
L 66.826581 19.921172 
L 67.105221 19.735753 
L 67.631343 19.358342 
L 67.873484 19.182217 
L 68.840267 18.565893 
L 69.098432 18.374354 
L 71.658716 16.945858 
L 72.779507 16.228664 
L 73.220168 16.041205 
L 77.843991 14.393744 
L 79.441943 14.009986 
L 79.742838 13.91977 
L 81.196574 13.664082 
L 82.49185 13.442849 
L 82.826574 13.397061 
L 83.809381 13.260377 
L 85.386857 13.092186 
L 86.118621 13.019423 
L 87.809157 12.854632 
L 88.474154 12.79887 
L 90.155787 12.664 
L 92.210423 12.513489 
L 95.268342 12.331697 
L 98.052072 12.205213 
L 102.333159 12.059009 
L 104.318358 12.001887 
L 109.508363 11.670491 
L 110.604228 11.505472 
L 111.395637 11.344081 
L 111.894163 11.214424 
L 113.881142 10.764704 
L 115.196893 10.380719 
L 115.714113 10.236555 
L 125.20835 7.933554 
L 134.07498 7.292069 
L 163.14969 6.967246 
L 173.148685 6.843482 
L 176.260017 6.755987 
L 180.784135 6.587342 
L 183.678252 6.453151 
L 191.569196 6.162556 
L 200.426033 6.022698 
L 207.993826 5.990737 
L 207.993826 5.990737 
" clip-path="url(#p4822f04523)" style="fill: none; stroke-dasharray: 1.5,2.475; stroke-dashoffset: 0; stroke: #ff7f0e; stroke-width: 1.5"/>
   </g>
   <g id="line2d_21">
    <path d="M 47.674305 120.385754 
L 47.792705 120.348898 
L 48.574321 120.178793 
L 49.005189 120.072005 
L 50.298685 119.748805 
L 51.197811 119.145877 
L 51.770225 118.376625 
L 51.925124 118.152653 
L 52.34887 116.993104 
L 53.337909 113.474766 
L 53.726047 111.71607 
L 53.796374 111.480758 
L 54.038515 110.653859 
L 54.155134 110.36846 
L 54.57443 109.219307 
L 54.951885 107.814995 
L 55.789585 105.777516 
L 55.947155 105.387219 
L 56.477728 104.004644 
L 56.685151 103.295873 
L 57.00296 102.207201 
L 57.133823 101.66948 
L 57.468548 100.30675 
L 57.582496 99.710438 
L 58.227018 96.494509 
L 58.55106 94.010976 
L 58.794091 93.179352 
L 59.529416 89.580686 
L 59.716363 88.534541 
L 60.393823 85.174967 
L 60.788192 82.773652 
L 60.942201 81.912732 
L 61.49325 78.648606 
L 61.717586 77.212164 
L 61.919667 75.646253 
L 62.035396 74.748477 
L 62.195636 73.870546 
L 62.563299 71.966315 
L 62.602468 71.763134 
L 62.763599 70.880478 
L 65.468099 55.932031 
L 65.700447 54.255551 
L 66.296007 51.98843 
L 66.768716 49.692013 
L 66.840824 49.453866 
L 67.004625 48.846213 
L 67.254778 47.967337 
L 67.269912 47.790617 
L 67.969628 44.676751 
L 69.014751 39.758827 
L 69.286269 38.229772 
L 69.41001 37.707172 
L 69.795477 35.968321 
L 69.969961 35.043139 
L 70.447121 33.107722 
L 70.488071 32.960298 
L 70.924281 31.244127 
L 70.983036 31.020156 
L 71.16019 30.385097 
L 71.400551 29.430619 
L 71.940026 27.623726 
L 72.208874 26.793047 
L 72.955772 24.099718 
L 73.059038 23.919218 
L 73.30741 23.493955 
L 73.639464 22.80692 
L 73.776558 22.499786 
L 74.345411 21.549088 
L 74.397044 21.413949 
L 74.653429 20.967896 
L 75.194685 20.07768 
L 75.548994 19.542795 
L 75.711905 19.276297 
L 76.258502 18.37285 
L 76.399158 18.20558 
L 76.558508 18.009015 
L 77.300954 17.060207 
L 77.501255 16.789929 
L 77.943696 16.353326 
L 78.057645 16.217242 
L 78.268628 16.029182 
L 79.299507 15.096439 
L 79.621768 14.799701 
L 80.289436 14.25253 
L 83.906415 12.457922 
L 84.307016 12.323728 
L 84.541145 12.236785 
L 85.956601 11.746316 
L 86.46937 11.599837 
L 87.388081 11.242616 
L 87.518944 11.193475 
L 88.019249 11.005414 
L 88.536469 10.85421 
L 89.116895 10.699225 
L 89.729369 10.49888 
L 90.828796 10.193636 
L 90.953427 10.16434 
L 91.148386 10.110473 
L 91.776884 9.945093 
L 92.296775 9.82602 
L 93.015186 9.690881 
L 93.225278 9.625674 
L 95.614639 9.196631 
L 100.316802 8.558738 
L 102.410608 8.347052 
L 103.256321 8.279955 
L 109.674835 7.935964 
L 115.590372 7.709158 
L 116.384452 7.680807 
L 132.846471 7.227194 
L 156.120483 6.511808 
L 179.026833 6.303902 
L 179.773731 6.298232 
L 208.24754 6.144192 
L 208.24754 6.144192 
" clip-path="url(#p4822f04523)" style="fill: none; stroke-dasharray: 5.55,2.4; stroke-dashoffset: 0; stroke: #2ca02c; stroke-width: 1.5"/>
   </g>
   <g id="line2d_22">
    <path d="M 50.47851 121.049278 
L 52.619498 120.906494 
L 52.74502 120.879929 
L 53.528417 120.520478 
L 53.704681 120.35445 
L 54.086587 120.053939 
L 54.711524 119.319264 
L 55.187794 118.665113 
L 55.623114 118.107259 
L 55.902644 117.654832 
L 57.254004 114.899594 
L 58.222567 111.862939 
L 58.521682 110.290652 
L 58.894686 109.326028 
L 58.981038 109.093589 
L 59.183119 108.481775 
L 60.092037 105.519002 
L 60.278094 104.938734 
L 60.66 103.687711 
L 61.764768 99.14186 
L 62.0897 97.352906 
L 62.354986 96.285345 
L 62.579323 95.339814 
L 63.08675 93.022061 
L 63.32444 91.965292 
L 63.44284 91.512865 
L 63.663615 90.701817 
L 63.887952 89.744665 
L 65.264238 84.182721 
L 65.8687 81.425823 
L 66.042293 80.99415 
L 66.284434 80.265286 
L 66.415297 79.787125 
L 67.069612 77.774033 
L 67.14083 77.556536 
L 68.150343 74.217709 
L 68.165477 74.052511 
L 69.441168 69.722496 
L 71.049802 64.894397 
L 71.223396 64.314959 
L 71.712129 62.657167 
L 71.825187 62.121726 
L 72.175045 60.813424 
L 72.582768 58.866744 
L 72.846274 57.735262 
L 72.936187 57.501992 
L 73.193461 56.830408 
L 73.453407 56.110676 
L 74.316924 53.36623 
L 74.686367 52.173318 
L 74.752243 51.961632 
L 76.64842 45.317184 
L 76.729431 45.090556 
L 77.249321 43.306583 
L 77.644581 41.99247 
L 77.726481 41.764181 
L 79.724144 35.859389 
L 79.838982 35.425225 
L 79.940468 35.178673 
L 80.458578 34.058813 
L 80.593892 33.782376 
L 80.940189 32.91737 
L 81.051467 32.661686 
L 81.322095 32.09304 
L 81.555334 31.533525 
L 82.689479 29.166793 
L 82.830135 28.883715 
L 83.387415 27.654276 
L 86.806764 22.681732 
L 86.984809 22.31232 
L 87.34624 21.957019 
L 89.202357 20.07509 
L 89.345683 19.936456 
L 90.40683 18.799993 
L 90.520778 18.644757 
L 91.835639 17.568894 
L 92.045732 17.407017 
L 92.263837 17.230197 
L 92.523782 17.055867 
L 93.159402 16.615063 
L 93.381068 16.474769 
L 93.573356 16.351078 
L 94.349631 15.779111 
L 99.192449 13.643158 
L 100.014125 13.377513 
L 100.262498 13.296989 
L 106.648964 11.919786 
L 107.725244 11.77036 
L 111.230946 11.41257 
L 113.439591 11.244881 
L 114.142868 11.194242 
L 129.050556 10.090155 
L 129.22415 10.071062 
L 138.911566 9.264995 
L 143.428562 8.770231 
L 144.421161 8.642389 
L 144.998917 8.578469 
L 148.359512 8.242261 
L 153.242389 7.828021 
L 153.545065 7.804777 
L 155.621958 7.667804 
L 157.711313 7.561546 
L 195.6393 6.445837 
L 206.081625 6.301392 
L 207.950205 6.273997 
L 207.950205 6.273997 
" clip-path="url(#p4822f04523)" style="fill: none; stroke-dasharray: 9.6,2.4,1.5,2.4; stroke-dashoffset: 0; stroke: #d62728; stroke-width: 1.5"/>
   </g>
   <g id="line2d_23">
    <path d="M 50.705517 121.048967 
L 53.333458 120.932569 
L 54.795205 120.358564 
L 54.928739 120.277542 
L 55.826085 119.972852 
L 56.825806 119.581434 
L 57.163201 119.4308 
L 57.4 119.307555 
L 57.67864 119.13524 
L 58.011584 118.886466 
L 58.226128 118.67421 
L 58.397941 118.383214 
L 58.549279 118.239428 
L 59.456417 117.527343 
L 59.716363 117.267159 
L 60.429432 116.678319 
L 60.691158 116.310865 
L 60.787302 116.118009 
L 61.889399 112.99351 
L 62.062993 112.356742 
L 63.481119 109.025692 
L 63.676078 108.597756 
L 63.919109 107.930177 
L 64.054424 107.576417 
L 64.297455 106.909979 
L 65.298956 104.037676 
L 65.756532 102.267735 
L 66.033391 101.733671 
L 66.335177 101.012457 
L 66.38592 100.767108 
L 66.578208 100.252444 
L 67.804937 96.803855 
L 68.010578 96.202463 
L 68.128978 95.872667 
L 68.321266 95.254158 
L 69.023653 93.148715 
L 69.200808 92.559876 
L 70.821015 88.16184 
L 70.936744 87.655165 
L 71.363161 86.259525 
L 71.608863 85.403654 
L 71.803822 84.600276 
L 72.251605 82.882828 
L 72.435881 82.106839 
L 73.001173 79.785717 
L 73.18901 79.36691 
L 73.367055 78.940116 
L 73.449846 78.725578 
L 74.004455 77.029812 
L 74.081905 76.848368 
L 74.294668 76.334845 
L 74.382801 76.111177 
L 74.496749 75.752853 
L 74.673904 75.345458 
L 75.023762 74.439376 
L 75.200916 74.034264 
L 75.466203 73.249145 
L 75.53297 73.079112 
L 75.707454 72.596401 
L 76.415182 70.315219 
L 76.561178 69.948906 
L 76.908366 69.050813 
L 76.960889 68.889909 
L 77.207481 68.029473 
L 78.832139 63.61432 
L 78.951429 63.217196 
L 79.036001 63.031187 
L 79.258557 62.469736 
L 80.044624 59.882723 
L 80.132756 59.695572 
L 82.871085 52.370458 
L 83.203138 51.247556 
L 83.24943 51.012476 
L 83.442609 50.169158 
L 83.601959 49.784587 
L 85.95571 43.561834 
L 86.068769 43.148734 
L 86.460467 42.082889 
L 86.586879 41.741682 
L 87.192231 39.854201 
L 87.441494 39.354373 
L 87.700549 38.798627 
L 88.801756 36.277802 
L 88.880986 36.123745 
L 89.085738 35.682116 
L 89.275355 35.180005 
L 89.516606 34.722399 
L 89.629664 34.42798 
L 89.725808 34.235123 
L 89.985754 33.673672 
L 90.171811 33.254866 
L 90.977463 31.492913 
L 91.086961 31.290927 
L 91.295273 30.869839 
L 91.415453 30.571996 
L 91.582815 30.177154 
L 91.816054 29.719548 
L 92.187277 29.126144 
L 92.301226 28.871665 
L 92.771264 28.088829 
L 93.610745 26.714871 
L 93.900958 26.164831 
L 94.080783 25.707225 
L 94.22589 25.536051 
L 94.607796 25.064751 
L 94.850827 24.744085 
L 94.908692 24.61171 
L 95.0992 24.319573 
L 96.829795 22.275753 
L 96.995376 22.137673 
L 97.24731 21.893464 
L 97.987976 21.122039 
L 98.157118 20.954289 
L 98.460685 20.653022 
L 98.666326 20.486412 
L 98.995709 20.244486 
L 100.199292 19.37378 
L 100.306119 19.271076 
L 100.518882 19.125007 
L 100.810876 18.927586 
L 100.993372 18.775812 
L 101.354803 18.490521 
L 102.042946 18.15502 
L 102.321586 17.973575 
L 102.666992 17.818377 
L 102.89667 17.70312 
L 103.483328 17.438371 
L 103.665824 17.326537 
L 104.593437 16.914578 
L 104.734092 16.827849 
L 105.263775 16.67151 
L 105.397309 16.623582 
L 105.975064 16.40562 
L 106.361421 16.28808 
L 107.142148 16.076965 
L 107.332656 16.011919 
L 108.963546 15.604524 
L 110.365648 15.364881 
L 114.923594 14.826253 
L 128.969546 14.264801 
L 138.796727 14.10618 
L 148.191259 13.84143 
L 156.091996 13.249168 
L 156.284284 13.225203 
L 157.688167 13.054029 
L 160.905436 12.598706 
L 161.389718 12.511977 
L 162.838112 12.284886 
L 163.113191 12.238099 
L 166.556577 11.635566 
L 169.332295 11.155137 
L 170.537658 10.987386 
L 170.958734 10.926904 
L 175.218455 10.259325 
L 189.765603 8.506501 
L 201.460474 7.929074 
L 207.951986 7.819522 
L 207.951986 7.819522 
" clip-path="url(#p4822f04523)" style="fill: none; stroke: #9467bd; stroke-width: 1.5; stroke-linecap: square"/>
   </g>
   <g id="patch_3">
    <path d="M 47.676976 126.814399 
L 47.676976 0 
" style="fill: none; stroke: #000000; stroke-width: 0.8; stroke-linejoin: miter; stroke-linecap: square"/>
   </g>
   <g id="patch_4">
    <path d="M 207.917267 126.814399 
L 207.917267 0 
" style="fill: none; stroke: #000000; stroke-width: 0.8; stroke-linejoin: miter; stroke-linecap: square"/>
   </g>
   <g id="patch_5">
    <path d="M 47.676976 126.814399 
L 207.917267 126.814399 
" style="fill: none; stroke: #000000; stroke-width: 0.8; stroke-linejoin: miter; stroke-linecap: square"/>
   </g>
   <g id="patch_6">
    <path d="M 47.676976 0 
L 207.917267 0 
" style="fill: none; stroke: #000000; stroke-width: 0.8; stroke-linejoin: miter; stroke-linecap: square"/>
   </g>
   <g id="legend_1">
    <g id="patch_7">
     <path d="M 89.152912 120.983399 
L 202.086267 120.983399 
L 202.086267 78.986748 
L 89.152912 78.986748 
z
" style="fill: #ffffff; opacity: 0.8; stroke: #000000; stroke-linejoin: miter"/>
    </g>
    <g id="line2d_24">
     <path d="M 93.817712 87.733248 
L 99.648712 87.733248 
L 105.479712 87.733248 
" style="fill: none; stroke-dasharray: 5.55,2.4; stroke-dashoffset: 0; stroke: #2ca02c; stroke-width: 1.5"/>
    </g>
    <g id="text_16">
     <!-- Berlin -->
     <g transform="translate(108.978312 91.814948) scale(0.11662 -0.11662)">
      <defs>
       <path id="CMR17-42" d="M 333 4352 
L 333 4186 
C 774 4186 845 4186 845 3900 
L 845 452 
C 845 166 774 166 333 166 
L 333 0 
L 2534 0 
C 3354 0 3885 583 3885 1164 
C 3885 1741 3360 2233 2675 2233 
C 3290 2356 3718 2771 3718 3264 
C 3718 3802 3194 4352 2368 4352 
L 333 4352 
z
M 1248 2304 
L 1248 3937 
C 1248 4155 1261 4186 1517 4186 
L 2336 4186 
C 2970 4186 3251 3674 3251 3277 
C 3251 2791 2861 2304 2170 2304 
L 1248 2304 
z
M 1517 166 
C 1261 166 1248 197 1248 413 
L 1248 2202 
L 2432 2202 
C 3091 2202 3411 1625 3411 1162 
C 3411 699 3046 166 2349 166 
L 1517 166 
z
" transform="scale(0.015625)"/>
      </defs>
      <use xlink:href="#CMR17-42" transform="scale(0.996264)"/>
      <use xlink:href="#CMR17-65" transform="translate(65.188754 0) scale(0.996264)"/>
      <use xlink:href="#CMR17-72" transform="translate(105.674415 0) scale(0.996264)"/>
      <use xlink:href="#CMR17-6c" transform="translate(140.955183 0) scale(0.996264)"/>
      <use xlink:href="#CMR17-69" transform="translate(165.826241 0) scale(0.996264)"/>
      <use xlink:href="#CMR17-6e" transform="translate(190.6973 0) scale(0.996264)"/>
     </g>
    </g>
    <g id="line2d_25">
     <path d="M 93.817712 98.855505 
L 99.648712 98.855505 
L 105.479712 98.855505 
" style="fill: none; stroke: #1f77b4; stroke-width: 1.5; stroke-linecap: square"/>
    </g>
    <g id="text_17">
     <!-- Dublin -->
     <g transform="translate(108.978312 102.937205) scale(0.11662 -0.11662)">
      <defs>
       <path id="CMR17-44" d="M 333 4352 
L 333 4186 
C 774 4186 845 4186 845 3900 
L 845 452 
C 845 166 774 166 333 166 
L 333 0 
L 2368 0 
C 3398 0 4224 943 4224 2141 
C 4224 3346 3411 4352 2368 4352 
L 333 4352 
z
M 1523 166 
C 1267 166 1254 197 1254 414 
L 1254 3938 
C 1254 4155 1267 4186 1523 4186 
L 2240 4186 
C 2771 4186 3750 3874 3750 2141 
C 3750 1242 3488 879 3366 707 
C 3213 510 2848 166 2240 166 
L 1523 166 
z
" transform="scale(0.015625)"/>
       <path id="CMR17-75" d="M 1882 2693 
L 1882 2528 
C 2259 2528 2317 2489 2317 2186 
L 2317 1032 
C 2317 500 2029 38 1555 38 
C 1030 38 986 348 986 678 
L 986 2763 
L 211 2693 
L 211 2528 
C 467 2528 640 2528 646 2274 
L 646 1058 
C 646 633 646 361 813 183 
C 896 101 1056 -64 1517 -64 
C 2061 -64 2272 377 2323 506 
L 2330 506 
L 2330 -63 
L 3091 -63 
L 3091 128 
C 2714 128 2656 166 2656 473 
L 2656 2763 
L 1882 2693 
z
" transform="scale(0.015625)"/>
       <path id="CMR17-62" d="M 960 4396 
L 198 4326 
L 198 4160 
C 576 4160 634 4122 634 3817 
L 634 -13 
L 749 -13 
L 934 441 
C 1120 141 1395 -64 1766 -64 
C 2406 -64 3053 500 3053 1370 
C 3053 2188 2477 2790 1830 2790 
C 1434 2790 1152 2579 960 2330 
L 960 4396 
z
M 973 2004 
C 973 2118 973 2138 1062 2272 
C 1312 2657 1670 2688 1792 2688 
C 1984 2688 2643 2585 2643 1376 
C 2643 108 1888 38 1734 38 
C 1536 38 1248 114 1043 486 
C 973 608 973 621 973 735 
L 973 2004 
z
" transform="scale(0.015625)"/>
      </defs>
      <use xlink:href="#CMR17-44" transform="scale(0.996264)"/>
      <use xlink:href="#CMR17-75" transform="translate(70.393556 0) scale(0.996264)"/>
      <use xlink:href="#CMR17-62" transform="translate(121.288926 0) scale(0.996264)"/>
      <use xlink:href="#CMR17-6c" transform="translate(172.184295 0) scale(0.996264)"/>
      <use xlink:href="#CMR17-69" transform="translate(197.055354 0) scale(0.996264)"/>
      <use xlink:href="#CMR17-6e" transform="translate(221.926412 0) scale(0.996264)"/>
     </g>
    </g>
    <g id="line2d_26">
     <path d="M 93.817712 109.977762 
L 99.648712 109.977762 
L 105.479712 109.977762 
" style="fill: none; stroke-dasharray: 1.5,2.475; stroke-dashoffset: 0; stroke: #ff7f0e; stroke-width: 1.5"/>
    </g>
    <g id="text_18">
     <!-- London -->
     <g transform="translate(108.978312 114.059462) scale(0.11662 -0.11662)">
      <defs>
       <path id="CMR17-4c" d="M 3469 1615 
L 3354 1615 
C 3302 983 3219 166 2125 166 
L 1530 166 
C 1274 166 1261 197 1261 414 
L 1261 3898 
C 1261 4129 1274 4192 1760 4192 
L 1901 4192 
L 1901 4352 
C 1638 4352 1331 4352 1069 4352 
C 870 4352 512 4352 326 4352 
L 326 4192 
C 768 4192 838 4192 838 3905 
L 838 452 
C 838 166 768 166 326 166 
L 326 0 
L 3315 0 
L 3469 1615 
z
" transform="scale(0.015625)"/>
       <path id="CMR17-6f" d="M 2758 1356 
C 2758 2176 2163 2816 1466 2816 
C 768 2816 173 2176 173 1356 
C 173 551 768 -64 1466 -64 
C 2163 -64 2758 551 2758 1356 
z
M 1466 51 
C 1165 51 909 230 762 480 
C 602 767 582 1126 582 1408 
C 582 1677 595 2010 762 2298 
C 890 2509 1139 2714 1466 2714 
C 1754 2714 1997 2554 2150 2330 
C 2349 2029 2349 1607 2349 1408 
C 2349 1158 2336 775 2163 467 
C 1984 173 1709 51 1466 51 
z
" transform="scale(0.015625)"/>
       <path id="CMR17-64" d="M 1869 4326 
L 1869 4160 
C 2246 4160 2304 4122 2304 3820 
L 2304 2345 
C 2278 2377 2016 2790 1498 2790 
C 845 2790 211 2208 211 1364 
C 211 525 806 -64 1434 -64 
C 1978 -64 2259 337 2291 380 
L 2291 -63 
L 3066 -63 
L 3066 128 
C 2688 128 2630 166 2630 473 
L 2630 4396 
L 1869 4326 
z
M 2291 755 
C 2291 563 2176 390 2029 262 
C 1811 70 1594 38 1472 38 
C 1286 38 621 134 621 1356 
C 621 2612 1363 2688 1530 2688 
C 1824 2688 2061 2522 2208 2291 
C 2291 2157 2291 2138 2291 2023 
L 2291 755 
z
" transform="scale(0.015625)"/>
      </defs>
      <use xlink:href="#CMR17-4c" transform="scale(0.996264)"/>
      <use xlink:href="#CMR17-6f" transform="translate(57.381408 0) scale(0.996264)"/>
      <use xlink:href="#CMR17-6e" transform="translate(103.071885 0) scale(0.996264)"/>
      <use xlink:href="#CMR17-64" transform="translate(153.967255 0) scale(0.996264)"/>
      <use xlink:href="#CMR17-6f" transform="translate(204.862625 0) scale(0.996264)"/>
      <use xlink:href="#CMR17-6e" transform="translate(250.553102 0) scale(0.996264)"/>
     </g>
    </g>
    <g id="line2d_27">
     <path d="M 153.053379 87.733248 
L 158.884379 87.733248 
L 164.715379 87.733248 
" style="fill: none; stroke-dasharray: 9.6,2.4,1.5,2.4; stroke-dashoffset: 0; stroke: #d62728; stroke-width: 1.5"/>
    </g>
    <g id="text_19">
     <!-- Paris -->
     <g transform="translate(168.213979 91.814948) scale(0.11662 -0.11662)">
      <defs>
       <path id="CMR17-61" d="M 2304 1653 
C 2304 2072 2304 2294 2035 2543 
C 1798 2752 1523 2816 1306 2816 
C 800 2816 435 2407 435 1971 
C 435 1728 627 1728 666 1728 
C 749 1728 896 1778 896 1954 
C 896 2112 774 2181 666 2181 
C 640 2181 608 2174 589 2168 
C 723 2592 1069 2714 1293 2714 
C 1613 2714 1965 2429 1965 1885 
L 1965 1600 
C 1587 1600 1133 1549 774 1357 
C 371 1133 256 813 256 570 
C 256 77 832 -64 1171 -64 
C 1523 -64 1850 139 1990 511 
C 2003 233 2182 -18 2464 -18 
C 2598 -18 2938 70 2938 567 
L 2938 920 
L 2822 920 
L 2822 562 
C 2822 178 2650 128 2566 128 
C 2304 128 2304 458 2304 738 
L 2304 1653 
z
M 1965 870 
C 1965 317 1568 38 1216 38 
C 896 38 646 275 646 570 
C 646 761 730 1100 1101 1305 
C 1408 1478 1760 1504 1965 1504 
L 1965 870 
z
" transform="scale(0.015625)"/>
      </defs>
      <use xlink:href="#CMR17-50" transform="scale(0.996264)"/>
      <use xlink:href="#CMR17-61" transform="translate(59.983847 0) scale(0.996264)"/>
      <use xlink:href="#CMR17-72" transform="translate(105.674324 0) scale(0.996264)"/>
      <use xlink:href="#CMR17-69" transform="translate(140.955092 0) scale(0.996264)"/>
      <use xlink:href="#CMR17-73" transform="translate(165.82615 0) scale(0.996264)"/>
     </g>
    </g>
    <g id="line2d_28">
     <path d="M 153.053379 98.855505 
L 158.884379 98.855505 
L 164.715379 98.855505 
" style="fill: none; stroke: #9467bd; stroke-width: 1.5; stroke-linecap: square"/>
    </g>
    <g id="text_20">
     <!-- Rome -->
     <g transform="translate(168.213979 102.937205) scale(0.11662 -0.11662)">
      <use xlink:href="#CMR17-52" transform="scale(0.996264)"/>
      <use xlink:href="#CMR17-6f" transform="translate(67.791102 0) scale(0.996264)"/>
      <use xlink:href="#CMR17-6d" transform="translate(113.481579 0) scale(0.996264)"/>
      <use xlink:href="#CMR17-65" transform="translate(190.401169 0) scale(0.996264)"/>
     </g>
    </g>
   </g>
  </g>
 </g>
 <defs>
  <clipPath id="p4822f04523">
   <rect x="47.676976" y="0" width="160.240292" height="126.814399"/>
  </clipPath>
 </defs>
</svg>
