<?xml version="1.0" encoding="utf-8" standalone="no"?>
<!DOCTYPE svg PUBLIC "-//W3C//DTD SVG 1.1//EN"
  "http://www.w3.org/Graphics/SVG/1.1/DTD/svg11.dtd">
<svg xmlns:xlink="http://www.w3.org/1999/xlink" width="420.48pt" height="119.13pt" viewBox="0 0 420.48 119.13" xmlns="http://www.w3.org/2000/svg" version="1.1">
 <metadata>
  <rdf:RDF xmlns:dc="http://purl.org/dc/elements/1.1/" xmlns:cc="http://creativecommons.org/ns#" xmlns:rdf="http://www.w3.org/1999/02/22-rdf-syntax-ns#">
   <cc:Work>
    <dc:type rdf:resource="http://purl.org/dc/dcmitype/StillImage"/>
    <dc:date>2023-10-12T10:41:42.406359</dc:date>
    <dc:format>image/svg+xml</dc:format>
    <dc:creator>
     <cc:Agent>
      <dc:title>Matplotlib v3.7.0, https://matplotlib.org/</dc:title>
     </cc:Agent>
    </dc:creator>
   </cc:Work>
  </rdf:RDF>
 </metadata>
 <defs>
  <style type="text/css">*{stroke-linejoin: round; stroke-linecap: butt}</style>
 </defs>
 <g id="figure_1">
  <g id="patch_1">
   <path d="M 0 119.13 
L 420.48 119.13 
L 420.48 0 
L 0 0 
z
" style="fill: #ffffff"/>
  </g>
  <g id="axes_1">
   <g id="patch_2">
    <path d="M 42.437408 85.548056 
L 224.978704 85.548056 
L 224.978704 22.65 
L 42.437408 22.65 
z
" style="fill: #ffffff"/>
   </g>
   <g id="matplotlib.axis_1">
    <g id="xtick_1">
     <g id="line2d_1">
      <defs>
       <path id="mdd8d7b1de2" d="M 0 0 
L 0 3.5 
" style="stroke: #000000; stroke-width: 0.8"/>
      </defs>
      <g>
       <use xlink:href="#mdd8d7b1de2" x="45.639886" y="85.548056" style="stroke: #000000; stroke-width: 0.8"/>
      </g>
     </g>
     <g id="text_1">
      <!-- 0 -->
      <g transform="translate(42.713391 100.850236) scale(0.12 -0.12)">
       <defs>
        <path id="CMR17-30" d="M 2688 2025 
C 2688 2416 2682 3080 2413 3591 
C 2176 4039 1798 4198 1466 4198 
C 1158 4198 768 4058 525 3597 
C 269 3118 243 2524 243 2025 
C 243 1661 250 1106 448 619 
C 723 -39 1216 -128 1466 -128 
C 1760 -128 2208 -7 2470 600 
C 2662 1042 2688 1559 2688 2025 
z
M 1466 -26 
C 1056 -26 813 325 723 812 
C 653 1188 653 1738 653 2096 
C 653 2588 653 2997 736 3387 
C 858 3929 1216 4096 1466 4096 
C 1728 4096 2067 3923 2189 3400 
C 2272 3036 2278 2607 2278 2096 
C 2278 1680 2278 1169 2202 792 
C 2067 95 1690 -26 1466 -26 
z
" transform="scale(0.015625)"/>
       </defs>
       <use xlink:href="#CMR17-30" transform="scale(0.996264)"/>
      </g>
     </g>
    </g>
    <g id="xtick_2">
     <g id="line2d_2">
      <g>
       <use xlink:href="#mdd8d7b1de2" x="109.689464" y="85.548056" style="stroke: #000000; stroke-width: 0.8"/>
      </g>
     </g>
     <g id="text_2">
      <!-- 100 -->
      <g transform="translate(100.909979 100.850236) scale(0.12 -0.12)">
       <defs>
        <path id="CMR17-31" d="M 1702 4058 
C 1702 4192 1696 4192 1606 4192 
C 1357 3916 979 3827 621 3827 
C 602 3827 570 3827 563 3808 
C 557 3795 557 3782 557 3648 
C 755 3648 1088 3686 1344 3839 
L 1344 461 
C 1344 236 1331 160 781 160 
L 589 160 
L 589 0 
C 896 0 1216 0 1523 0 
C 1830 0 2150 0 2458 0 
L 2458 160 
L 2266 160 
C 1715 160 1702 230 1702 458 
L 1702 4058 
z
" transform="scale(0.015625)"/>
       </defs>
       <use xlink:href="#CMR17-31" transform="scale(0.996264)"/>
       <use xlink:href="#CMR17-30" transform="translate(45.690477 0) scale(0.996264)"/>
       <use xlink:href="#CMR17-30" transform="translate(91.380954 0) scale(0.996264)"/>
      </g>
     </g>
    </g>
    <g id="xtick_3">
     <g id="line2d_3">
      <g>
       <use xlink:href="#mdd8d7b1de2" x="173.739042" y="85.548056" style="stroke: #000000; stroke-width: 0.8"/>
      </g>
     </g>
     <g id="text_3">
      <!-- 200 -->
      <g transform="translate(164.959556 100.850236) scale(0.12 -0.12)">
       <defs>
        <path id="CMR17-32" d="M 2669 989 
L 2554 989 
C 2490 536 2438 459 2413 420 
C 2381 369 1920 369 1830 369 
L 602 369 
C 832 619 1280 1072 1824 1597 
C 2214 1967 2669 2402 2669 3035 
C 2669 3790 2067 4224 1395 4224 
C 691 4224 262 3604 262 3030 
C 262 2780 448 2748 525 2748 
C 589 2748 781 2787 781 3010 
C 781 3207 614 3264 525 3264 
C 486 3264 448 3258 422 3245 
C 544 3790 915 4058 1306 4058 
C 1862 4058 2227 3617 2227 3035 
C 2227 2479 1901 2000 1536 1584 
L 262 146 
L 262 0 
L 2515 0 
L 2669 989 
z
" transform="scale(0.015625)"/>
       </defs>
       <use xlink:href="#CMR17-32" transform="scale(0.996264)"/>
       <use xlink:href="#CMR17-30" transform="translate(45.690477 0) scale(0.996264)"/>
       <use xlink:href="#CMR17-30" transform="translate(91.380954 0) scale(0.996264)"/>
      </g>
     </g>
    </g>
    <g id="text_4">
     <!-- (a) Download [Mbps] -->
     <g transform="translate(79.457196 116.141208) scale(0.12 -0.12)">
      <defs>
       <path id="CMR17-28" d="M 1958 -1561 
C 1958 -1555 1958 -1542 1939 -1523 
C 1645 -1224 858 -407 858 1581 
C 858 3569 1632 4379 1946 4697 
C 1946 4704 1958 4717 1958 4736 
C 1958 4755 1939 4768 1914 4768 
C 1843 4768 1299 4296 986 3594 
C 666 2887 576 2199 576 1588 
C 576 1128 621 351 1005 -471 
C 1312 -1135 1837 -1600 1914 -1600 
C 1946 -1600 1958 -1587 1958 -1561 
z
" transform="scale(0.015625)"/>
       <path id="CMR17-61" d="M 2304 1653 
C 2304 2072 2304 2294 2035 2543 
C 1798 2752 1523 2816 1306 2816 
C 800 2816 435 2407 435 1971 
C 435 1728 627 1728 666 1728 
C 749 1728 896 1778 896 1954 
C 896 2112 774 2181 666 2181 
C 640 2181 608 2174 589 2168 
C 723 2592 1069 2714 1293 2714 
C 1613 2714 1965 2429 1965 1885 
L 1965 1600 
C 1587 1600 1133 1549 774 1357 
C 371 1133 256 813 256 570 
C 256 77 832 -64 1171 -64 
C 1523 -64 1850 139 1990 511 
C 2003 233 2182 -18 2464 -18 
C 2598 -18 2938 70 2938 567 
L 2938 920 
L 2822 920 
L 2822 562 
C 2822 178 2650 128 2566 128 
C 2304 128 2304 458 2304 738 
L 2304 1653 
z
M 1965 870 
C 1965 317 1568 38 1216 38 
C 896 38 646 275 646 570 
C 646 761 730 1100 1101 1305 
C 1408 1478 1760 1504 1965 1504 
L 1965 870 
z
" transform="scale(0.015625)"/>
       <path id="CMR17-29" d="M 1683 1581 
C 1683 2040 1638 2817 1254 3639 
C 947 4303 422 4768 346 4768 
C 326 4768 301 4761 301 4729 
C 301 4717 307 4710 314 4697 
C 621 4378 1402 3568 1402 1584 
C 1402 -407 627 -1217 314 -1537 
C 307 -1549 301 -1556 301 -1568 
C 301 -1600 326 -1600 346 -1600 
C 416 -1600 960 -1128 1274 -426 
C 1594 281 1683 969 1683 1581 
z
" transform="scale(0.015625)"/>
       <path id="CMR17-44" d="M 333 4352 
L 333 4186 
C 774 4186 845 4186 845 3900 
L 845 452 
C 845 166 774 166 333 166 
L 333 0 
L 2368 0 
C 3398 0 4224 943 4224 2141 
C 4224 3346 3411 4352 2368 4352 
L 333 4352 
z
M 1523 166 
C 1267 166 1254 197 1254 414 
L 1254 3938 
C 1254 4155 1267 4186 1523 4186 
L 2240 4186 
C 2771 4186 3750 3874 3750 2141 
C 3750 1242 3488 879 3366 707 
C 3213 510 2848 166 2240 166 
L 1523 166 
z
" transform="scale(0.015625)"/>
       <path id="CMR17-6f" d="M 2758 1356 
C 2758 2176 2163 2816 1466 2816 
C 768 2816 173 2176 173 1356 
C 173 551 768 -64 1466 -64 
C 2163 -64 2758 551 2758 1356 
z
M 1466 51 
C 1165 51 909 230 762 480 
C 602 767 582 1126 582 1408 
C 582 1677 595 2010 762 2298 
C 890 2509 1139 2714 1466 2714 
C 1754 2714 1997 2554 2150 2330 
C 2349 2029 2349 1607 2349 1408 
C 2349 1158 2336 775 2163 467 
C 1984 173 1709 51 1466 51 
z
" transform="scale(0.015625)"/>
       <path id="CMR17-77" d="M 3725 2183 
C 3853 2560 4109 2560 4205 2560 
L 4205 2732 
C 4077 2732 3949 2732 3821 2732 
C 3699 2732 3424 2732 3315 2738 
L 3315 2560 
C 3514 2560 3622 2445 3622 2286 
C 3622 2241 3610 2184 3597 2140 
L 2995 407 
L 2342 2275 
C 2330 2319 2310 2370 2310 2395 
C 2310 2560 2528 2560 2630 2560 
L 2630 2738 
C 2483 2732 2214 2732 2061 2732 
C 1901 2732 1734 2732 1587 2738 
L 1587 2560 
C 1939 2560 1939 2547 2074 2149 
L 1485 451 
L 851 2281 
C 819 2363 819 2376 819 2395 
C 819 2560 1037 2560 1139 2560 
L 1139 2738 
C 986 2732 717 2732 557 2732 
C 416 2732 198 2732 64 2738 
L 64 2560 
C 346 2560 416 2541 486 2331 
L 1274 49 
C 1299 -33 1318 -52 1370 -52 
C 1414 -52 1440 -39 1472 56 
L 2131 1980 
L 2797 56 
C 2829 -39 2854 -52 2899 -52 
C 2950 -52 2970 -33 2995 50 
L 3725 2183 
z
" transform="scale(0.015625)"/>
       <path id="CMR17-6e" d="M 2656 1933 
C 2656 2259 2592 2790 1837 2790 
C 1331 2790 1069 2400 973 2144 
L 966 2144 
L 966 2790 
L 211 2720 
L 211 2554 
C 589 2554 646 2515 646 2208 
L 646 428 
C 646 184 621 153 211 153 
L 211 -13 
C 365 0 646 0 813 0 
C 979 0 1267 0 1421 -13 
L 1421 153 
C 1011 153 986 178 986 428 
L 986 1658 
C 986 2247 1344 2688 1792 2688 
C 2266 2688 2317 2266 2317 1958 
L 2317 428 
C 2317 184 2291 153 1882 153 
L 1882 -13 
C 2035 0 2317 0 2483 0 
C 2650 0 2938 0 3091 -13 
L 3091 153 
C 2682 153 2656 178 2656 428 
L 2656 1933 
z
" transform="scale(0.015625)"/>
       <path id="CMR17-6c" d="M 979 4396 
L 218 4326 
L 218 4160 
C 595 4160 653 4122 653 3817 
L 653 426 
C 653 184 627 153 218 153 
L 218 -13 
C 371 0 653 0 813 0 
C 979 0 1261 0 1414 -13 
L 1414 153 
C 1005 153 979 178 979 426 
L 979 4396 
z
" transform="scale(0.015625)"/>
       <path id="CMR17-64" d="M 1869 4326 
L 1869 4160 
C 2246 4160 2304 4122 2304 3820 
L 2304 2345 
C 2278 2377 2016 2790 1498 2790 
C 845 2790 211 2208 211 1364 
C 211 525 806 -64 1434 -64 
C 1978 -64 2259 337 2291 380 
L 2291 -63 
L 3066 -63 
L 3066 128 
C 2688 128 2630 166 2630 473 
L 2630 4396 
L 1869 4326 
z
M 2291 755 
C 2291 563 2176 390 2029 262 
C 1811 70 1594 38 1472 38 
C 1286 38 621 134 621 1356 
C 621 2612 1363 2688 1530 2688 
C 1824 2688 2061 2522 2208 2291 
C 2291 2157 2291 2138 2291 2023 
L 2291 755 
z
" transform="scale(0.015625)"/>
       <path id="CMR17-5b" d="M 1504 -1600 
L 1504 -1377 
L 902 -1377 
L 902 4544 
L 1504 4544 
L 1504 4767 
L 678 4767 
L 678 -1600 
L 1504 -1600 
z
" transform="scale(0.015625)"/>
       <path id="CMR17-4d" d="M 1338 4224 
C 1299 4320 1293 4320 1158 4320 
L 339 4320 
L 339 4160 
C 781 4160 851 4160 851 3875 
L 851 610 
C 851 451 851 153 339 153 
L 339 -13 
C 486 0 755 0 915 0 
C 1075 0 1344 0 1491 -13 
L 1491 153 
C 979 153 979 451 979 610 
L 979 4135 
L 986 4135 
L 2490 89 
C 2515 25 2528 -13 2579 -13 
C 2630 -13 2643 25 2669 89 
L 4186 4166 
L 4192 4166 
L 4192 438 
C 4192 153 4122 153 3680 153 
L 3680 -13 
C 3853 0 4198 0 4384 0 
C 4570 0 4922 0 5094 -13 
L 5094 153 
C 4653 153 4582 153 4582 438 
L 4582 3875 
C 4582 4160 4653 4160 5094 4160 
L 5094 4320 
L 4282 4320 
C 4147 4320 4141 4314 4102 4218 
L 2720 502 
L 1338 4224 
z
" transform="scale(0.015625)"/>
       <path id="CMR17-62" d="M 960 4396 
L 198 4326 
L 198 4160 
C 576 4160 634 4122 634 3817 
L 634 -13 
L 749 -13 
L 934 441 
C 1120 141 1395 -64 1766 -64 
C 2406 -64 3053 500 3053 1370 
C 3053 2188 2477 2790 1830 2790 
C 1434 2790 1152 2579 960 2330 
L 960 4396 
z
M 973 2004 
C 973 2118 973 2138 1062 2272 
C 1312 2657 1670 2688 1792 2688 
C 1984 2688 2643 2585 2643 1376 
C 2643 108 1888 38 1734 38 
C 1536 38 1248 114 1043 486 
C 973 608 973 621 973 735 
L 973 2004 
z
" transform="scale(0.015625)"/>
       <path id="CMR17-70" d="M 1408 -1063 
C 998 -1063 973 -1037 973 -789 
L 973 402 
C 1158 134 1427 -38 1766 -38 
C 2406 -38 3053 523 3053 1388 
C 3053 2191 2496 2802 1837 2802 
C 1453 2802 1139 2592 960 2338 
L 960 2802 
L 198 2732 
L 198 2567 
C 576 2567 634 2528 634 2223 
L 634 -789 
C 634 -1031 608 -1063 198 -1063 
L 198 -1228 
C 352 -1216 634 -1216 800 -1216 
C 966 -1216 1254 -1216 1408 -1228 
L 1408 -1063 
z
M 973 2012 
C 973 2102 973 2235 1222 2471 
C 1254 2497 1472 2688 1792 2688 
C 2259 2688 2643 2108 2643 1382 
C 2643 656 2234 64 1728 64 
C 1498 64 1248 172 1056 472 
C 973 612 973 650 973 752 
L 973 2012 
z
" transform="scale(0.015625)"/>
       <path id="CMR17-73" d="M 1978 2697 
C 1978 2813 1971 2819 1933 2819 
C 1907 2819 1901 2813 1824 2717 
C 1805 2691 1747 2626 1728 2601 
C 1523 2819 1235 2819 1126 2819 
C 416 2819 160 2447 160 2076 
C 160 1498 813 1365 998 1325 
C 1402 1243 1542 1217 1677 1101 
C 1760 1025 1901 884 1901 654 
C 1901 384 1747 38 1158 38 
C 602 38 403 460 288 1021 
C 269 1110 269 1117 218 1117 
C 166 1117 160 1110 160 983 
L 160 63 
C 160 -51 166 -58 205 -58 
C 237 -58 243 -51 275 0 
C 314 57 410 211 448 276 
C 576 103 800 -64 1158 -64 
C 1792 -64 2131 283 2131 784 
C 2131 1112 1958 1285 1875 1362 
C 1683 1561 1459 1606 1190 1657 
C 838 1735 390 1825 390 2217 
C 390 2383 480 2737 1126 2737 
C 1811 2737 1850 2094 1862 1888 
C 1869 1856 1901 1849 1920 1849 
C 1978 1849 1978 1869 1978 1978 
L 1978 2697 
z
" transform="scale(0.015625)"/>
       <path id="CMR17-5d" d="M 915 4767 
L 90 4767 
L 90 4544 
L 691 4544 
L 691 -1377 
L 90 -1377 
L 90 -1600 
L 915 -1600 
L 915 4767 
z
" transform="scale(0.015625)"/>
      </defs>
      <use xlink:href="#CMR17-28" transform="scale(0.996264)"/>
      <use xlink:href="#CMR17-61" transform="translate(35.280768 0) scale(0.996264)"/>
      <use xlink:href="#CMR17-29" transform="translate(80.971245 0) scale(0.996264)"/>
      <use xlink:href="#CMR17-44" transform="translate(146.327979 0) scale(0.996264)"/>
      <use xlink:href="#CMR17-6f" transform="translate(216.721535 0) scale(0.996264)"/>
      <use xlink:href="#CMR17-77" transform="translate(259.809558 0) scale(0.996264)"/>
      <use xlink:href="#CMR17-6e" transform="translate(326.319439 0) scale(0.996264)"/>
      <use xlink:href="#CMR17-6c" transform="translate(377.214808 0) scale(0.996264)"/>
      <use xlink:href="#CMR17-6f" transform="translate(402.085867 0) scale(0.996264)"/>
      <use xlink:href="#CMR17-61" transform="translate(447.776344 0) scale(0.996264)"/>
      <use xlink:href="#CMR17-64" transform="translate(493.466821 0) scale(0.996264)"/>
      <use xlink:href="#CMR17-5b" transform="translate(574.438157 0) scale(0.996264)"/>
      <use xlink:href="#CMR17-4d" transform="translate(599.309216 0) scale(0.996264)"/>
      <use xlink:href="#CMR17-62" transform="translate(683.996156 0) scale(0.996264)"/>
      <use xlink:href="#CMR17-70" transform="translate(734.891526 0) scale(0.996264)"/>
      <use xlink:href="#CMR17-73" transform="translate(785.786896 0) scale(0.996264)"/>
      <use xlink:href="#CMR17-5d" transform="translate(821.588234 0) scale(0.996264)"/>
     </g>
    </g>
   </g>
   <g id="matplotlib.axis_2">
    <g id="ytick_1">
     <g id="line2d_4">
      <path d="M 42.437408 82.689054 
L 224.978704 82.689054 
" clip-path="url(#pcaa18c2d03)" style="fill: none; stroke: #808080; stroke-opacity: 0.7; stroke-width: 0.5; stroke-linecap: square"/>
     </g>
     <g id="line2d_5">
      <defs>
       <path id="mf1c1e99b7a" d="M 0 0 
L -3.5 0 
" style="stroke: #000000; stroke-width: 0.8"/>
      </defs>
      <g>
       <use xlink:href="#mf1c1e99b7a" x="42.437408" y="82.689054" style="stroke: #000000; stroke-width: 0.8"/>
      </g>
     </g>
     <g id="text_5">
      <!-- 0.00 -->
      <g transform="translate(14.626776 86.840144) scale(0.12 -0.12)">
       <defs>
        <path id="CMR17-2e" d="M 1062 261 
C 1062 420 934 522 800 522 
C 672 522 538 420 538 261 
C 538 102 666 0 800 0 
C 928 0 1062 102 1062 261 
z
" transform="scale(0.015625)"/>
       </defs>
       <use xlink:href="#CMR17-30" transform="scale(0.996264)"/>
       <use xlink:href="#CMR17-2e" transform="translate(45.690477 0) scale(0.996264)"/>
       <use xlink:href="#CMR17-30" transform="translate(70.561536 0) scale(0.996264)"/>
       <use xlink:href="#CMR17-30" transform="translate(116.252013 0) scale(0.996264)"/>
      </g>
     </g>
    </g>
    <g id="ytick_2">
     <g id="line2d_6">
      <path d="M 42.437408 68.394041 
L 224.978704 68.394041 
" clip-path="url(#pcaa18c2d03)" style="fill: none; stroke: #808080; stroke-opacity: 0.7; stroke-width: 0.5; stroke-linecap: square"/>
     </g>
     <g id="line2d_7">
      <g>
       <use xlink:href="#mf1c1e99b7a" x="42.437408" y="68.394041" style="stroke: #000000; stroke-width: 0.8"/>
      </g>
     </g>
     <g id="text_6">
      <!-- 0.25 -->
      <g transform="translate(14.626776 72.545131) scale(0.12 -0.12)">
       <defs>
        <path id="CMR17-35" d="M 730 3692 
C 794 3666 1056 3584 1325 3584 
C 1920 3584 2246 3911 2432 4100 
C 2432 4157 2432 4192 2394 4192 
C 2387 4192 2374 4192 2323 4163 
C 2099 4058 1837 3973 1517 3973 
C 1325 3973 1037 3999 723 4139 
C 653 4171 640 4171 634 4171 
C 602 4171 595 4164 595 4037 
L 595 2203 
C 595 2089 595 2057 659 2057 
C 691 2057 704 2070 736 2114 
C 941 2401 1222 2522 1542 2522 
C 1766 2522 2246 2382 2246 1289 
C 2246 1085 2246 715 2054 421 
C 1894 159 1645 25 1370 25 
C 947 25 518 320 403 814 
C 429 807 480 795 506 795 
C 589 795 749 840 749 1038 
C 749 1210 627 1280 506 1280 
C 358 1280 262 1190 262 1011 
C 262 454 704 -128 1382 -128 
C 2042 -128 2669 440 2669 1264 
C 2669 2030 2170 2624 1549 2624 
C 1222 2624 947 2503 730 2274 
L 730 3692 
z
" transform="scale(0.015625)"/>
       </defs>
       <use xlink:href="#CMR17-30" transform="scale(0.996264)"/>
       <use xlink:href="#CMR17-2e" transform="translate(45.690477 0) scale(0.996264)"/>
       <use xlink:href="#CMR17-32" transform="translate(70.561536 0) scale(0.996264)"/>
       <use xlink:href="#CMR17-35" transform="translate(116.252013 0) scale(0.996264)"/>
      </g>
     </g>
    </g>
    <g id="ytick_3">
     <g id="line2d_8">
      <path d="M 42.437408 54.099028 
L 224.978704 54.099028 
" clip-path="url(#pcaa18c2d03)" style="fill: none; stroke: #808080; stroke-opacity: 0.7; stroke-width: 0.5; stroke-linecap: square"/>
     </g>
     <g id="line2d_9">
      <g>
       <use xlink:href="#mf1c1e99b7a" x="42.437408" y="54.099028" style="stroke: #000000; stroke-width: 0.8"/>
      </g>
     </g>
     <g id="text_7">
      <!-- 0.50 -->
      <g transform="translate(14.626776 58.250118) scale(0.12 -0.12)">
       <use xlink:href="#CMR17-30" transform="scale(0.996264)"/>
       <use xlink:href="#CMR17-2e" transform="translate(45.690477 0) scale(0.996264)"/>
       <use xlink:href="#CMR17-35" transform="translate(70.561536 0) scale(0.996264)"/>
       <use xlink:href="#CMR17-30" transform="translate(116.252013 0) scale(0.996264)"/>
      </g>
     </g>
    </g>
    <g id="ytick_4">
     <g id="line2d_10">
      <path d="M 42.437408 39.804015 
L 224.978704 39.804015 
" clip-path="url(#pcaa18c2d03)" style="fill: none; stroke: #808080; stroke-opacity: 0.7; stroke-width: 0.5; stroke-linecap: square"/>
     </g>
     <g id="line2d_11">
      <g>
       <use xlink:href="#mf1c1e99b7a" x="42.437408" y="39.804015" style="stroke: #000000; stroke-width: 0.8"/>
      </g>
     </g>
     <g id="text_8">
      <!-- 0.75 -->
      <g transform="translate(14.626776 43.955105) scale(0.12 -0.12)">
       <defs>
        <path id="CMR17-37" d="M 2886 3941 
L 2886 4081 
L 1382 4081 
C 634 4081 621 4165 595 4288 
L 480 4288 
L 294 3094 
L 410 3094 
C 429 3215 474 3540 550 3661 
C 589 3712 1062 3712 1171 3712 
L 2579 3712 
L 1869 2661 
C 1395 1954 1069 999 1069 165 
C 1069 89 1069 -128 1299 -128 
C 1530 -128 1530 89 1530 171 
L 1530 465 
C 1530 1508 1709 2196 2003 2636 
L 2886 3941 
z
" transform="scale(0.015625)"/>
       </defs>
       <use xlink:href="#CMR17-30" transform="scale(0.996264)"/>
       <use xlink:href="#CMR17-2e" transform="translate(45.690477 0) scale(0.996264)"/>
       <use xlink:href="#CMR17-37" transform="translate(70.561536 0) scale(0.996264)"/>
       <use xlink:href="#CMR17-35" transform="translate(116.252013 0) scale(0.996264)"/>
      </g>
     </g>
    </g>
    <g id="ytick_5">
     <g id="line2d_12">
      <path d="M 42.437408 25.509003 
L 224.978704 25.509003 
" clip-path="url(#pcaa18c2d03)" style="fill: none; stroke: #808080; stroke-opacity: 0.7; stroke-width: 0.5; stroke-linecap: square"/>
     </g>
     <g id="line2d_13">
      <g>
       <use xlink:href="#mf1c1e99b7a" x="42.437408" y="25.509003" style="stroke: #000000; stroke-width: 0.8"/>
      </g>
     </g>
     <g id="text_9">
      <!-- 1.00 -->
      <g transform="translate(14.626776 29.660092) scale(0.12 -0.12)">
       <use xlink:href="#CMR17-31" transform="scale(0.996264)"/>
       <use xlink:href="#CMR17-2e" transform="translate(45.690477 0) scale(0.996264)"/>
       <use xlink:href="#CMR17-30" transform="translate(70.561536 0) scale(0.996264)"/>
       <use xlink:href="#CMR17-30" transform="translate(116.252013 0) scale(0.996264)"/>
      </g>
     </g>
    </g>
    <g id="text_10">
     <!-- Percentile -->
     <g transform="translate(8.30218 79.217078) rotate(-90) scale(0.12 -0.12)">
      <defs>
       <path id="CMR17-50" d="M 1267 2042 
L 2291 2042 
C 3117 2042 3718 2578 3718 3184 
C 3718 3791 3130 4352 2291 4352 
L 333 4352 
L 333 4186 
C 774 4186 845 4186 845 3899 
L 845 446 
C 845 160 774 160 333 160 
L 333 0 
C 518 0 858 0 1056 0 
C 1254 0 1594 0 1779 0 
L 1779 160 
C 1338 160 1267 160 1267 446 
L 1267 2042 
z
M 1254 2176 
L 1254 3938 
C 1254 4155 1267 4186 1523 4186 
L 2170 4186 
C 2995 4186 3232 3714 3232 3184 
C 3232 2604 2950 2176 2170 2176 
L 1254 2176 
z
" transform="scale(0.015625)"/>
       <path id="CMR17-65" d="M 2438 1472 
C 2464 1498 2464 1511 2464 1576 
C 2464 2238 2118 2816 1389 2816 
C 710 2816 173 2169 173 1383 
C 173 551 781 -64 1459 -64 
C 2176 -64 2458 607 2458 740 
C 2458 784 2419 784 2406 784 
C 2362 784 2355 771 2330 696 
C 2189 265 1837 51 1504 51 
C 1229 51 954 203 781 480 
C 582 803 582 1176 582 1472 
L 2438 1472 
z
M 589 1568 
C 634 2505 1126 2714 1382 2714 
C 1818 2714 2112 2297 2118 1568 
L 589 1568 
z
" transform="scale(0.015625)"/>
       <path id="CMR17-72" d="M 960 1497 
C 960 2112 1222 2688 1702 2688 
C 1747 2688 1792 2682 1837 2662 
C 1837 2662 1696 2617 1696 2452 
C 1696 2298 1818 2234 1914 2234 
C 1990 2234 2131 2279 2131 2458 
C 2131 2663 1926 2790 1709 2790 
C 1222 2790 1011 2317 947 2093 
L 941 2093 
L 941 2790 
L 198 2720 
L 198 2554 
C 576 2554 634 2515 634 2208 
L 634 428 
C 634 184 608 153 198 153 
L 198 -13 
C 352 0 646 0 813 0 
C 998 0 1325 0 1498 -13 
L 1498 153 
C 1037 153 960 153 960 440 
L 960 1497 
z
" transform="scale(0.015625)"/>
       <path id="CMR17-63" d="M 2234 2240 
C 2112 2240 1933 2240 1933 2017 
C 1933 1838 2080 1787 2163 1787 
C 2208 1787 2394 1807 2394 2024 
C 2394 2467 1958 2803 1466 2803 
C 787 2803 211 2178 211 1363 
C 211 516 813 -64 1466 -64 
C 2259 -64 2458 677 2458 748 
C 2458 774 2451 793 2406 793 
C 2362 793 2355 787 2330 703 
C 2163 180 1798 51 1523 51 
C 1114 51 621 427 621 1369 
C 621 2338 1094 2688 1472 2688 
C 1722 2688 2093 2573 2234 2240 
z
" transform="scale(0.015625)"/>
       <path id="CMR17-74" d="M 966 2560 
L 1862 2560 
L 1862 2725 
L 966 2725 
L 966 3904 
L 851 3904 
C 838 3245 614 2668 70 2668 
L 70 2560 
L 627 2560 
L 627 771 
C 627 650 627 -64 1370 -64 
C 1747 -64 1965 306 1965 777 
L 1965 1140 
L 1850 1140 
L 1850 783 
C 1850 344 1677 51 1408 51 
C 1222 51 966 178 966 758 
L 966 2560 
z
" transform="scale(0.015625)"/>
       <path id="CMR17-69" d="M 992 3909 
C 992 4049 877 4170 730 4170 
C 589 4170 467 4056 467 3909 
C 467 3769 582 3648 730 3648 
C 870 3648 992 3763 992 3909 
z
M 243 2706 
L 243 2541 
C 602 2541 653 2502 653 2197 
L 653 427 
C 653 184 627 153 218 153 
L 218 -13 
C 371 0 646 0 806 0 
C 960 0 1222 0 1370 -13 
L 1370 153 
C 992 153 979 191 979 420 
L 979 2776 
L 243 2706 
z
" transform="scale(0.015625)"/>
      </defs>
      <use xlink:href="#CMR17-50" transform="scale(0.996264)"/>
      <use xlink:href="#CMR17-65" transform="translate(59.983847 0) scale(0.996264)"/>
      <use xlink:href="#CMR17-72" transform="translate(100.469507 0) scale(0.996264)"/>
      <use xlink:href="#CMR17-63" transform="translate(135.750275 0) scale(0.996264)"/>
      <use xlink:href="#CMR17-65" transform="translate(176.235935 0) scale(0.996264)"/>
      <use xlink:href="#CMR17-6e" transform="translate(216.721596 0) scale(0.996264)"/>
      <use xlink:href="#CMR17-74" transform="translate(265.014512 0) scale(0.996264)"/>
      <use xlink:href="#CMR17-69" transform="translate(300.295279 0) scale(0.996264)"/>
      <use xlink:href="#CMR17-6c" transform="translate(325.166338 0) scale(0.996264)"/>
      <use xlink:href="#CMR17-65" transform="translate(350.037396 0) scale(0.996264)"/>
     </g>
    </g>
   </g>
   <g id="line2d_14">
    <path d="M 45.732964 82.687817 
L 46.106047 82.390938 
L 46.264161 82.226418 
L 46.909722 81.57947 
L 47.026074 81.485459 
L 47.764424 80.745736 
L 47.957181 80.570083 
L 48.114844 80.429066 
L 48.336072 80.233621 
L 48.474361 80.119817 
L 49.968417 78.85932 
L 50.169507 78.681193 
L 50.569046 78.294014 
L 50.701577 78.15547 
L 51.050332 77.831378 
L 53.621467 75.212662 
L 53.802367 75.048141 
L 53.931691 74.923205 
L 54.099456 74.758685 
L 54.345823 74.521182 
L 60.506872 69.276327 
L 60.737471 69.094489 
L 60.867414 69.010373 
L 61.067953 68.854512 
L 61.200432 68.73205 
L 61.417963 68.566292 
L 61.755764 68.325079 
L 61.896228 68.239726 
L 62.164396 68.075206 
L 62.346035 67.930477 
L 62.773872 67.639784 
L 62.993191 67.48516 
L 63.15856 67.37383 
L 63.541517 67.106639 
L 63.818254 66.89635 
L 64.037675 66.76894 
L 65.72544 65.640801 
L 65.848614 65.55916 
L 66.324206 65.228882 
L 74.828486 59.537473 
L 75.16072 59.342028 
L 75.307078 59.271519 
L 75.627689 59.056282 
L 75.866685 58.902895 
L 76.191729 58.698791 
L 76.34998 58.601068 
L 76.797982 58.306664 
L 77.11396 58.122351 
L 77.528335 57.889797 
L 79.608123 56.720837 
L 79.859976 56.568687 
L 80.004677 56.496941 
L 80.439297 56.261912 
L 80.925468 56.036779 
L 81.038543 55.978641 
L 84.838148 54.121913 
L 85.250091 53.923993 
L 85.671891 53.70752 
L 86.161273 53.486098 
L 86.302697 53.4193 
L 86.712984 53.24241 
L 87.195235 53.012329 
L 87.321826 52.945531 
L 87.589292 52.830491 
L 88.667454 52.357959 
L 88.852826 52.273843 
L 89.338214 52.062317 
L 89.500491 51.99552 
L 89.902299 51.831 
L 90.014079 51.775335 
L 90.658831 51.500722 
L 90.767785 51.446294 
L 91.098593 51.273115 
L 92.186515 50.810479 
L 92.559272 50.621219 
L 93.024764 50.422063 
L 93.135941 50.371347 
L 93.495334 50.225381 
L 95.308477 49.473289 
L 95.613431 49.34093 
L 96.170113 49.094769 
L 96.549258 48.920352 
L 97.068252 48.696457 
L 98.591716 47.992607 
L 98.70084 47.933231 
L 99.016998 47.790977 
L 100.577628 47.08589 
L 100.713076 47.019093 
L 101.403737 46.714792 
L 101.517039 46.652942 
L 101.882677 46.474815 
L 102.195477 46.307821 
L 102.956973 45.970122 
L 103.714881 45.611393 
L 104.300701 45.341729 
L 104.549758 45.215555 
L 104.773157 45.072064 
L 105.191865 44.819717 
L 105.408262 44.677463 
L 106.065048 44.284099 
L 106.205242 44.211116 
L 107.12993 43.92537 
L 107.522003 43.806619 
L 108.655644 43.507266 
L 109.160213 43.366249 
L 109.691919 43.220284 
L 109.829452 43.188122 
L 126.203992 39.393024 
L 126.793499 39.22603 
L 127.06506 39.157995 
L 127.944467 38.976157 
L 128.37004 38.875961 
L 129.997335 38.513521 
L 130.134064 38.48507 
L 135.797258 37.208493 
L 137.272024 36.926458 
L 137.762134 36.807706 
L 139.830605 36.377233 
L 140.4104 36.264666 
L 142.022976 35.842851 
L 143.046437 35.631325 
L 144.346322 35.36166 
L 144.459755 35.325788 
L 144.78433 35.252805 
L 163.000316 31.675418 
L 164.913461 31.342667 
L 165.174567 31.285765 
L 165.959806 31.144748 
L 166.127676 31.111349 
L 167.589323 30.914667 
L 167.755112 30.892401 
L 169.083245 30.714274 
L 176.97913 29.677673 
L 177.262064 29.638089 
L 178.376269 29.500782 
L 178.618279 29.468621 
L 179.487926 29.362239 
L 180.789634 29.200193 
L 181.44526 29.108655 
L 182.489978 28.976297 
L 189.290425 28.227916 
L 189.830403 28.172251 
L 191.203811 28.026286 
L 194.312926 27.704667 
L 197.677858 27.40284 
L 198.058748 27.371916 
L 200.559385 27.186367 
L 214.217521 26.400875 
L 218.388069 26.241303 
L 225.07175 26.049569 
L 225.07175 26.049569 
" clip-path="url(#pcaa18c2d03)" style="fill: none; stroke: #1f77b4; stroke-width: 1.5; stroke-linecap: square"/>
   </g>
   <g id="line2d_15">
    <path d="M 45.747861 82.686897 
L 45.876146 82.559672 
L 46.019325 82.214656 
L 46.092772 82.037835 
L 46.311913 81.446994 
L 47.174399 79.413551 
L 47.302876 79.146163 
L 47.590896 78.559635 
L 47.724406 78.322436 
L 47.98938 77.85882 
L 48.332317 77.222695 
L 48.424621 77.069594 
L 48.642123 76.694388 
L 48.782481 76.465815 
L 49.581966 75.193566 
L 50.051916 74.49922 
L 50.190043 74.30946 
L 50.306649 74.141265 
L 50.459624 73.869564 
L 50.885176 73.231283 
L 51.035883 73.000553 
L 51.556199 72.267393 
L 51.691245 72.05607 
L 52.000365 71.685177 
L 52.394768 71.195684 
L 52.59741 70.943391 
L 52.787697 70.727756 
L 52.919999 70.561716 
L 53.075156 70.371957 
L 53.201602 70.231794 
L 53.464303 69.888934 
L 54.544203 68.549838 
L 54.716697 68.383798 
L 56.688703 66.246851 
L 57.028972 65.860864 
L 57.191728 65.67973 
L 58.831218 63.986992 
L 59.013048 63.799389 
L 59.172417 63.652757 
L 59.615756 63.195609 
L 60.065151 62.749244 
L 60.231531 62.596143 
L 60.794412 62.149778 
L 60.96404 61.957862 
L 61.221092 61.755165 
L 61.443992 61.530904 
L 61.945892 61.026317 
L 62.077864 60.883997 
L 62.8248 60.291 
L 63.011211 60.122804 
L 63.258114 59.894231 
L 63.378792 59.790726 
L 63.743655 59.529807 
L 63.889928 59.409051 
L 64.195197 59.165383 
L 64.471935 58.93034 
L 64.92454 58.559447 
L 65.200112 58.35675 
L 65.813082 57.903916 
L 69.023256 55.365886 
L 69.169185 55.223567 
L 72.306083 53.034867 
L 72.536794 52.875297 
L 75.923971 50.557216 
L 76.132863 50.421366 
L 76.269895 50.309235 
L 76.734899 50.041847 
L 76.867669 49.946968 
L 77.229488 49.742114 
L 77.364044 49.647234 
L 78.908332 48.771754 
L 79.172445 48.610028 
L 79.423629 48.465552 
L 79.890799 48.217571 
L 80.000807 48.148568 
L 80.340297 47.980372 
L 81.032171 47.60301 
L 81.348502 47.439127 
L 82.755262 46.688716 
L 83.152671 46.468768 
L 83.480777 46.276852 
L 83.595826 46.190598 
L 83.908206 46.020246 
L 84.037369 45.942617 
L 88.942661 43.71726 
L 89.218917 43.587878 
L 89.964462 43.240705 
L 90.248747 43.115637 
L 90.767333 42.887063 
L 92.142452 42.302691 
L 92.256436 42.248782 
L 92.563329 42.136652 
L 93.023787 41.985707 
L 93.289302 41.873577 
L 93.846809 41.655785 
L 95.453807 41.075725 
L 95.856856 40.924781 
L 98.41528 40.010486 
L 99.164894 39.740942 
L 99.293514 39.691346 
L 99.966977 39.460616 
L 103.589859 38.158178 
L 103.687242 38.123676 
L 104.116964 37.974888 
L 104.668385 37.778659 
L 105.593871 37.442268 
L 105.718443 37.386203 
L 108.355589 36.700482 
L 109.461333 36.413687 
L 110.159345 36.226084 
L 110.980428 36.049263 
L 111.071046 36.025543 
L 111.785612 35.874598 
L 111.945477 35.822846 
L 112.794771 35.63093 
L 112.976174 35.592116 
L 115.983449 34.955991 
L 116.956856 34.746825 
L 117.076129 34.712323 
L 122.888211 33.545736 
L 123.08694 33.502609 
L 124.063357 33.3301 
L 124.729143 33.202875 
L 125.615654 33.021741 
L 134.200673 31.503668 
L 135.537677 31.324691 
L 136.020847 31.240593 
L 143.65901 30.291797 
L 145.324609 30.108507 
L 147.722634 29.815242 
L 149.173217 29.651359 
L 150.077723 29.543542 
L 151.522692 29.394753 
L 153.977889 29.144616 
L 167.564063 27.945683 
L 186.649849 26.707936 
L 191.565084 26.496613 
L 192.709422 26.451329 
L 198.099717 26.244319 
L 204.694292 26.011433 
L 213.339449 25.825987 
L 214.51078 25.80011 
L 225.218093 25.666416 
L 225.218093 25.666416 
" clip-path="url(#pcaa18c2d03)" style="fill: none; stroke-dasharray: 1.5,2.475; stroke-dashoffset: 0; stroke: #ff7f0e; stroke-width: 1.5"/>
   </g>
   <g id="line2d_16">
    <path d="M 45.639886 82.688518 
L 45.943654 82.119064 
L 46.453076 79.202687 
L 46.654499 78.126992 
L 46.85607 77.066297 
L 47.697964 73.401005 
L 47.914051 72.727624 
L 48.030191 72.395487 
L 48.687069 70.496414 
L 48.874841 69.944103 
L 48.941658 69.795712 
L 49.082163 69.494111 
L 49.206192 69.211794 
L 49.369133 68.855015 
L 49.446539 68.708767 
L 49.739725 68.138778 
L 49.846355 67.95021 
L 49.973831 67.711821 
L 50.13669 67.419326 
L 51.06958 65.833105 
L 51.165906 65.686321 
L 51.269997 65.510075 
L 51.405293 65.298471 
L 51.488523 65.158117 
L 51.648563 64.896693 
L 51.743258 64.73491 
L 52.018889 64.288668 
L 52.665888 63.401005 
L 52.789021 63.252615 
L 53.218298 62.716374 
L 53.385427 62.506914 
L 53.959009 61.795498 
L 54.206734 61.513182 
L 54.327488 61.378184 
L 54.618711 61.027297 
L 54.763326 60.848908 
L 55.531851 59.936603 
L 56.01154 59.41429 
L 56.13387 59.2884 
L 56.344088 59.055904 
L 56.498783 58.87805 
L 57.020472 58.333774 
L 57.150222 58.202526 
L 57.297696 58.059493 
L 57.465075 57.873068 
L 57.577914 57.751463 
L 57.72204 57.607894 
L 57.890857 57.427897 
L 58.147575 57.163795 
L 59.049532 56.313096 
L 59.28913 56.09185 
L 59.469689 55.913996 
L 59.607762 55.784355 
L 59.75528 55.654179 
L 59.9296 55.491325 
L 60.162665 55.285614 
L 60.314496 55.151152 
L 60.55663 54.918656 
L 60.704723 54.778837 
L 60.820981 54.679196 
L 60.99986 54.527592 
L 64.138941 51.889782 
L 64.25431 51.792819 
L 64.461556 51.616572 
L 65.45559 50.814622 
L 65.566587 50.719267 
L 65.846828 50.506592 
L 66.177986 50.237133 
L 67.003913 49.653215 
L 67.149571 49.540717 
L 67.398064 49.345184 
L 67.533579 49.233758 
L 68.974021 48.16717 
L 69.11518 48.0611 
L 69.38804 47.876282 
L 69.71665 47.644322 
L 69.96543 47.469682 
L 70.604136 47.056118 
L 70.746421 46.960227 
L 71.153642 46.70041 
L 76.794641 43.267079 
L 77.126944 43.075832 
L 77.28771 42.989584 
L 78.471182 42.362273 
L 79.211005 42.016208 
L 79.347637 41.944424 
L 79.585531 41.809962 
L 79.726 41.73282 
L 80.228275 41.484253 
L 80.551857 41.338542 
L 80.71109 41.264079 
L 81.692136 40.814622 
L 81.867577 40.742838 
L 82.117626 40.63034 
L 82.432513 40.507128 
L 82.617531 40.431058 
L 83.212338 40.165884 
L 83.36518 40.099992 
L 88.14197 38.317703 
L 88.611867 38.169312 
L 89.691559 37.815212 
L 90.658009 37.519503 
L 91.195668 37.345399 
L 91.461743 37.2629 
L 93.150846 36.748088 
L 93.470461 36.650054 
L 94.897698 36.261668 
L 95.070535 36.204883 
L 95.540919 36.084885 
L 96.490062 35.820783 
L 96.740023 35.754355 
L 97.867322 35.424361 
L 98.018846 35.382041 
L 98.98841 35.160259 
L 99.248207 35.095974 
L 99.809235 34.952405 
L 99.978266 34.904728 
L 107.159895 33.343148 
L 110.131872 32.91137 
L 111.402717 32.735124 
L 111.984802 32.64459 
L 113.385437 32.453343 
L 113.519835 32.430843 
L 114.745851 32.271203 
L 115.11343 32.221383 
L 136.924418 29.59268 
L 138.493899 29.452325 
L 165.063294 27.282721 
L 170.732223 26.951655 
L 171.036873 26.935049 
L 174.02751 26.760945 
L 177.56134 26.584698 
L 207.866747 25.733463 
L 225.027853 25.572751 
L 225.027853 25.572751 
" clip-path="url(#pcaa18c2d03)" style="fill: none; stroke-dasharray: 5.55,2.4; stroke-dashoffset: 0; stroke: #2ca02c; stroke-width: 1.5"/>
   </g>
   <g id="line2d_17">
    <path d="M 45.677939 82.688867 
L 45.828864 82.548721 
L 45.92235 82.145053 
L 46.091824 81.051834 
L 47.941092 71.475266 
L 48.219662 70.429756 
L 48.431778 69.722872 
L 48.552689 69.297587 
L 49.530751 66.359537 
L 49.628444 66.133476 
L 50.855152 63.420929 
L 50.958456 63.21835 
L 51.214346 62.700254 
L 51.275418 62.570171 
L 53.15856 59.35686 
L 53.273859 59.207209 
L 54.043015 58.246123 
L 54.181556 58.072057 
L 54.449979 57.754864 
L 54.636208 57.540171 
L 54.754277 57.403379 
L 55.073666 57.031766 
L 55.424099 56.641144 
L 55.918026 56.110749 
L 56.073131 55.947306 
L 59.961814 52.304982 
L 60.123488 52.168563 
L 60.294111 52.027484 
L 60.487488 51.876528 
L 60.598855 51.788937 
L 61.744777 50.885624 
L 61.909787 50.761132 
L 62.111594 50.603467 
L 62.31822 50.454002 
L 62.613597 50.246577 
L 62.728355 50.159731 
L 62.981526 49.975416 
L 63.106857 49.875338 
L 63.364865 49.693072 
L 64.118146 49.155595 
L 64.585806 48.842501 
L 64.995728 48.578421 
L 65.207799 48.446475 
L 65.714544 48.118099 
L 66.360973 47.688899 
L 66.645879 47.522103 
L 67.72775 46.842987 
L 67.964256 46.687931 
L 68.677484 46.254818 
L 68.980018 46.073671 
L 69.21429 45.934456 
L 70.619024 45.082767 
L 71.051221 44.834714 
L 71.182921 44.759982 
L 71.702527 44.460307 
L 72.226985 44.16734 
L 72.508139 44.020671 
L 72.619647 43.956934 
L 73.087582 43.706086 
L 75.049626 42.676045 
L 75.351753 42.527139 
L 75.499852 42.445511 
L 75.783365 42.294555 
L 75.960265 42.211063 
L 76.273236 42.060294 
L 76.385501 42.005689 
L 77.043628 41.688681 
L 77.329192 41.547044 
L 79.408828 40.583349 
L 79.520737 40.532284 
L 80.337444 40.178377 
L 80.562528 40.077739 
L 81.108099 39.851306 
L 81.31444 39.762596 
L 81.730369 39.60139 
L 81.863158 39.551071 
L 82.414981 39.325569 
L 82.595364 39.255682 
L 83.11654 39.051239 
L 83.279084 38.981725 
L 83.903574 38.730691 
L 84.03791 38.677018 
L 84.566725 38.472761 
L 84.744748 38.401011 
L 86.618216 37.712204 
L 87.074718 37.546526 
L 87.218834 37.49248 
L 87.610529 37.353265 
L 88.251912 37.138013 
L 88.816931 36.94177 
L 89.598924 36.672845 
L 90.126523 36.485548 
L 90.258919 36.435415 
L 90.704161 36.277191 
L 90.817382 36.236191 
L 91.464028 36.027275 
L 93.609795 35.32151 
L 93.780924 35.266346 
L 94.482933 35.044757 
L 95.304355 34.779 
L 96.510261 34.391174 
L 97.008495 34.231459 
L 97.795688 33.986202 
L 101.135223 32.994552 
L 101.631856 32.853287 
L 102.279089 32.662263 
L 102.862034 32.491366 
L 103.01334 32.448875 
L 104.044382 32.155536 
L 104.301232 32.081921 
L 108.825757 31.052439 
L 110.139452 30.81501 
L 110.432329 30.759846 
L 116.145281 29.765214 
L 116.972546 29.628049 
L 117.091188 29.610903 
L 118.004906 29.46032 
L 118.116042 29.444479 
L 126.194133 28.311937 
L 127.649124 28.141413 
L 127.796086 28.124826 
L 129.070936 27.977598 
L 129.201823 27.962129 
L 131.118824 27.758805 
L 132.656284 27.614372 
L 135.070972 27.393529 
L 135.477324 27.353647 
L 139.593877 27.024898 
L 142.389364 26.834992 
L 143.679252 26.754482 
L 145.975216 26.618063 
L 151.974256 26.319505 
L 155.900919 26.149727 
L 159.56865 26.012562 
L 165.409812 25.864401 
L 170.000657 25.764509 
L 221.085448 25.513289 
L 225.065336 25.512171 
L 225.065336 25.512171 
" clip-path="url(#pcaa18c2d03)" style="fill: none; stroke-dasharray: 9.6,2.4,1.5,2.4; stroke-dashoffset: 0; stroke: #d62728; stroke-width: 1.5"/>
   </g>
   <g id="line2d_18">
    <path d="M 45.700354 82.688991 
L 45.905214 82.573637 
L 47.674427 79.188625 
L 47.75123 79.057185 
L 47.880099 78.842125 
L 47.987715 78.657734 
L 48.850999 77.244819 
L 48.976327 77.051164 
L 49.182221 76.74347 
L 49.300841 76.5649 
L 49.940064 75.638562 
L 50.060353 75.462371 
L 50.189275 75.283112 
L 50.68293 74.584728 
L 51.267935 73.750023 
L 51.503357 73.40684 
L 51.629952 73.209994 
L 51.968362 72.72398 
L 52.189741 72.437128 
L 52.893746 71.539958 
L 53.706336 70.544896 
L 53.835551 70.39011 
L 54.454707 69.653609 
L 54.56979 69.518665 
L 54.694683 69.377336 
L 55.199924 68.792804 
L 55.329788 68.647282 
L 55.467881 68.49187 
L 55.687983 68.252837 
L 56.443907 67.438161 
L 56.655953 67.214087 
L 57.21225 66.632999 
L 57.336832 66.497303 
L 57.77535 66.055853 
L 57.900928 65.936305 
L 58.789056 65.065423 
L 60.339575 63.582908 
L 60.466735 63.466802 
L 60.969673 63.012396 
L 61.231964 62.767918 
L 61.382684 62.632848 
L 61.784546 62.272328 
L 61.900248 62.168052 
L 62.196557 61.905361 
L 62.45141 61.682414 
L 62.613977 61.541898 
L 62.819298 61.354628 
L 62.997212 61.204599 
L 63.298081 60.947478 
L 63.802151 60.525494 
L 64.065845 60.304487 
L 64.506618 59.93752 
L 64.644263 59.823605 
L 64.853158 59.648352 
L 65.398951 59.206026 
L 65.630292 59.021197 
L 65.755753 58.922867 
L 69.640081 55.971294 
L 69.85654 55.817008 
L 70.192314 55.58098 
L 70.322956 55.490537 
L 70.615078 55.287118 
L 71.015475 55.003459 
L 71.127134 54.928851 
L 71.392918 54.746776 
L 71.687483 54.54342 
L 71.951813 54.364098 
L 72.239469 54.163684 
L 72.49386 53.985489 
L 72.612861 53.906312 
L 74.773303 52.461727 
L 74.887774 52.388058 
L 75.362052 52.092819 
L 76.158962 51.588842 
L 76.398107 51.444571 
L 76.803169 51.187763 
L 77.196913 50.942721 
L 77.508705 50.747064 
L 77.864739 50.528686 
L 78.174057 50.344295 
L 80.654165 48.890258 
L 80.777441 48.822786 
L 81.312085 48.525544 
L 81.42368 48.463267 
L 81.713585 48.302848 
L 82.483357 47.879424 
L 82.601901 47.810011 
L 82.930343 47.631566 
L 83.103081 47.539183 
L 84.006762 47.046909 
L 84.303557 46.891059 
L 85.902477 46.054477 
L 86.728248 45.632993 
L 86.847563 45.572468 
L 87.187676 45.402285 
L 88.066959 44.975544 
L 88.369284 44.832901 
L 88.493013 44.775693 
L 90.47108 43.847228 
L 90.758204 43.716476 
L 91.1022 43.563505 
L 91.242305 43.498474 
L 93.630427 42.432936 
L 94.673747 41.969392 
L 94.970765 41.841081 
L 95.51462 41.602362 
L 95.664668 41.537205 
L 96.011537 41.383483 
L 97.268175 40.844079 
L 97.618366 40.698306 
L 98.511783 40.328084 
L 98.632971 40.283082 
L 99.119412 40.085234 
L 99.615099 39.888638 
L 100.031562 39.728344 
L 100.600788 39.50233 
L 101.074887 39.317375 
L 102.132835 38.91179 
L 102.252391 38.864534 
L 102.812476 38.651289 
L 103.518713 38.375891 
L 104.294137 38.078211 
L 104.416457 38.034523 
L 112.409471 35.526903 
L 113.522643 35.218896 
L 113.641244 35.187037 
L 114.372811 34.99307 
L 114.50706 34.955829 
L 115.115494 34.794345 
L 115.271688 34.753536 
L 116.461618 34.443839 
L 116.62536 34.400902 
L 132.329003 30.930705 
L 133.207477 30.774292 
L 134.588058 30.52706 
L 135.20416 30.42197 
L 136.302104 30.239457 
L 136.943323 30.134868 
L 138.052687 29.954358 
L 138.220377 29.929697 
L 139.247043 29.762581 
L 139.508319 29.723462 
L 141.830941 29.377963 
L 144.898841 28.948969 
L 145.926602 28.811833 
L 147.34149 28.6332 
L 148.585361 28.479729 
L 149.264063 28.396797 
L 150.797784 28.220417 
L 151.626521 28.12747 
L 153.310602 27.945896 
L 155.467319 27.735655 
L 161.380422 27.231051 
L 163.564672 27.067064 
L 166.79447 26.854758 
L 169.637146 26.683448 
L 170.396539 26.640073 
L 174.468697 26.438219 
L 178.206708 26.281305 
L 182.456379 26.129649 
L 182.947317 26.113813 
L 189.662684 25.93349 
L 225.023903 25.556884 
L 225.023903 25.556884 
" clip-path="url(#pcaa18c2d03)" style="fill: none; stroke: #9467bd; stroke-width: 1.5; stroke-linecap: square"/>
   </g>
   <g id="line2d_19">
    <path d="M 45.659414 82.688947 
L 45.926175 82.551019 
L 46.13866 82.235008 
L 48.730513 78.689127 
L 48.977689 78.423814 
L 49.142053 78.25159 
L 49.324806 78.05817 
L 49.59858 77.763461 
L 49.760384 77.598267 
L 50.281818 77.061251 
L 50.445412 76.896908 
L 50.590073 76.752483 
L 51.489291 75.825006 
L 51.700928 75.569919 
L 51.927991 75.343908 
L 52.079264 75.20534 
L 52.360486 74.939708 
L 55.182617 72.50013 
L 55.368521 72.343137 
L 56.554931 71.392122 
L 57.251306 70.834444 
L 57.513871 70.630267 
L 70.363251 61.728392 
L 70.712625 61.505257 
L 71.126073 61.248785 
L 71.371838 61.103294 
L 71.625095 60.948644 
L 72.126711 60.636041 
L 72.264955 60.54945 
L 72.58746 60.334196 
L 72.755446 60.22364 
L 73.036266 60.03938 
L 73.375671 59.822955 
L 73.816548 59.540814 
L 74.206391 59.287643 
L 74.527352 59.085703 
L 74.801288 58.907195 
L 75.062521 58.740616 
L 75.178796 58.670853 
L 75.81318 58.258026 
L 75.931645 58.17676 
L 77.181598 57.390727 
L 77.431312 57.243745 
L 78.289661 56.721853 
L 78.560443 56.557191 
L 78.676628 56.479866 
L 78.938271 56.32479 
L 79.256229 56.135418 
L 79.366735 56.067146 
L 79.611513 55.921122 
L 80.855471 55.181101 
L 81.10704 55.023895 
L 81.800174 54.621825 
L 82.055061 54.469092 
L 88.219806 51.146985 
L 88.522332 50.998619 
L 88.686297 50.91927 
L 89.099727 50.718927 
L 89.489637 50.52881 
L 90.019306 50.275852 
L 90.202361 50.190219 
L 91.884854 49.416754 
L 92.010447 49.357003 
L 92.350949 49.208104 
L 92.468984 49.157087 
L 92.829203 48.981561 
L 93.393303 48.718911 
L 93.537582 48.653834 
L 93.809706 48.526237 
L 96.302385 47.387022 
L 97.014692 47.062277 
L 97.394829 46.892183 
L 97.938808 46.639119 
L 98.050879 46.589699 
L 98.384202 46.436966 
L 101.060154 45.24897 
L 101.508209 45.056296 
L 102.842212 44.473695 
L 103.006127 44.405849 
L 103.483469 44.197092 
L 103.609011 44.140323 
L 104.560852 43.717271 
L 104.920865 43.556443 
L 105.310659 43.373142 
L 105.623971 43.234788 
L 106.227637 42.992907 
L 108.611815 42.25214 
L 109.231274 42.069797 
L 109.387373 42.023573 
L 110.56471 41.690734 
L 110.720705 41.644296 
L 111.388539 41.457587 
L 112.468359 41.150203 
L 113.027523 40.997044 
L 113.202725 40.947091 
L 113.76594 40.789672 
L 114.303543 40.635554 
L 114.80484 40.497945 
L 115.106898 40.416679 
L 115.806714 40.220703 
L 139.32007 34.055778 
L 139.907395 33.927009 
L 141.856825 33.49778 
L 141.98625 33.467212 
L 142.674846 33.313307 
L 143.531425 33.119994 
L 146.244674 32.542611 
L 147.804138 32.226601 
L 148.330306 32.118708 
L 149.262934 31.924436 
L 164.047213 29.329889 
L 165.24788 29.161605 
L 165.620974 29.106753 
L 166.790926 28.948801 
L 167.101073 28.908541 
L 168.091936 28.779027 
L 168.224181 28.762518 
L 171.875293 28.301975 
L 174.314093 28.029313 
L 184.656595 27.083624 
L 186.712742 26.926524 
L 187.605561 26.866667 
L 190.931343 26.64875 
L 191.567784 26.612431 
L 194.679685 26.446597 
L 195.14218 26.423804 
L 212.116135 25.849297 
L 223.235012 25.673345 
L 224.314963 25.660245 
L 224.983062 25.654813 
L 224.983062 25.654813 
" clip-path="url(#pcaa18c2d03)" style="fill: none; stroke-dasharray: 1.5,2.475; stroke-dashoffset: 0; stroke: #8c564b; stroke-width: 1.5"/>
   </g>
   <g id="line2d_20">
    <path d="M 45.653989 82.688919 
L 45.834553 82.577055 
L 45.942245 82.223941 
L 46.112541 81.497631 
L 46.219879 81.054487 
L 46.732468 79.08244 
L 46.792402 78.866933 
L 46.924881 78.396968 
L 47.053392 78.002613 
L 47.19281 77.590602 
L 47.49764 76.701617 
L 47.621041 76.360633 
L 47.677789 76.207797 
L 47.945252 75.515721 
L 48.035522 75.279997 
L 48.2205 74.808011 
L 48.286376 74.635766 
L 48.612607 73.813631 
L 50.954489 69.219782 
L 51.062901 69.036486 
L 51.242364 68.723131 
L 51.334236 68.560591 
L 51.451215 68.345623 
L 51.529731 68.19036 
L 51.698985 67.841964 
L 52.079983 67.266873 
L 52.267333 67.008911 
L 52.410103 66.814699 
L 52.968522 66.061704 
L 53.081396 65.909946 
L 53.202261 65.761287 
L 53.687778 65.149807 
L 53.984528 64.782542 
L 54.266406 64.453957 
L 54.574252 64.092487 
L 54.792785 63.825361 
L 54.983581 63.599206 
L 55.117881 63.451491 
L 55.298446 63.248249 
L 55.423917 63.109025 
L 55.573451 62.938802 
L 56.04519 62.422879 
L 56.181326 62.278129 
L 58.891964 59.629775 
L 59.089575 59.458474 
L 63.166757 56.278158 
L 63.457011 56.073164 
L 63.589365 55.97316 
L 63.806242 55.802803 
L 64.490596 55.295909 
L 64.682026 55.15992 
L 64.891802 55.015305 
L 65.914002 54.282796 
L 66.197322 54.082518 
L 66.447988 53.911891 
L 66.681765 53.753664 
L 67.634554 53.104447 
L 67.759165 53.021963 
L 68.207223 52.728421 
L 69.898242 51.635116 
L 70.041514 51.541042 
L 71.493112 50.634941 
L 71.754441 50.468222 
L 72.119928 50.238429 
L 72.662548 49.89421 
L 73.66699 49.263053 
L 74.043113 49.039594 
L 74.42651 48.817617 
L 74.713296 48.65063 
L 75.169728 48.380538 
L 75.494768 48.192929 
L 77.508484 47.029136 
L 77.762069 46.887217 
L 79.431758 45.990146 
L 79.800495 45.797416 
L 80.245109 45.583526 
L 80.671939 45.377453 
L 81.38975 45.051159 
L 81.744965 44.883498 
L 83.523595 44.121607 
L 83.695203 44.046672 
L 84.072172 43.881975 
L 84.25943 43.805961 
L 85.946623 43.145557 
L 86.582286 42.916842 
L 86.735543 42.863875 
L 87.192237 42.716295 
L 88.234566 42.372885 
L 88.741149 42.212636 
L 89.852587 41.867744 
L 89.964133 41.832163 
L 90.457693 41.673666 
L 90.701099 41.598865 
L 91.126908 41.471771 
L 91.352202 41.399935 
L 92.00405 41.206127 
L 93.244597 40.834009 
L 93.941816 40.628476 
L 94.156354 40.561627 
L 94.730793 40.383183 
L 95.881797 40.050824 
L 97.541725 39.582342 
L 98.063418 39.439614 
L 98.468935 39.323841 
L 100.18885 38.840129 
L 100.309261 38.808322 
L 101.260976 38.530144 
L 101.39231 38.492406 
L 101.981041 38.314232 
L 102.756891 38.073791 
L 103.077795 37.972574 
L 103.520545 37.840763 
L 104.317397 37.579297 
L 104.957597 37.344517 
L 105.536329 37.128335 
L 105.675488 37.07456 
L 106.098457 36.937762 
L 106.274333 36.887086 
L 107.384774 36.645567 
L 107.535115 36.614568 
L 109.509085 36.237464 
L 109.651456 36.207544 
L 110.397775 36.066703 
L 112.509455 35.66763 
L 113.077603 35.561426 
L 114.614236 35.287831 
L 114.827445 35.249689 
L 115.641969 35.102244 
L 117.948225 34.676755 
L 118.719586 34.536588 
L 119.270511 34.434158 
L 120.452233 34.231589 
L 122.501991 33.877397 
L 122.796552 33.82699 
L 123.821805 33.657711 
L 123.993655 33.631295 
L 127.722516 33.007955 
L 127.921301 32.976417 
L 128.932484 32.814955 
L 129.20142 32.774253 
L 129.551364 32.720342 
L 131.150829 32.470871 
L 131.266986 32.454833 
L 132.099206 32.319113 
L 132.322898 32.282319 
L 133.190313 32.141748 
L 134.828036 31.889581 
L 136.257026 31.672322 
L 138.876279 31.271363 
L 138.988599 31.254381 
L 140.789153 31.001001 
L 141.991303 30.828353 
L 143.586311 30.603546 
L 143.979698 30.547883 
L 145.678273 30.315664 
L 166.027299 27.894812 
L 167.525593 27.750467 
L 168.704714 27.643455 
L 171.230874 27.427408 
L 176.047428 27.061625 
L 178.478506 26.908519 
L 196.134523 26.063472 
L 214.229222 25.670599 
L 224.989327 25.578008 
L 224.989327 25.578008 
" clip-path="url(#pcaa18c2d03)" style="fill: none; stroke-dasharray: 5.55,2.4; stroke-dashoffset: 0; stroke: #1f77b4; stroke-width: 1.5"/>
   </g>
   <g id="patch_3">
    <path d="M 42.437408 85.548056 
L 42.437408 22.65 
" style="fill: none; stroke: #000000; stroke-width: 0.8; stroke-linejoin: miter; stroke-linecap: square"/>
   </g>
   <g id="patch_4">
    <path d="M 224.978704 85.548056 
L 224.978704 22.65 
" style="fill: none; stroke: #000000; stroke-width: 0.8; stroke-linejoin: miter; stroke-linecap: square"/>
   </g>
   <g id="patch_5">
    <path d="M 42.437408 85.548056 
L 224.978704 85.548056 
" style="fill: none; stroke: #000000; stroke-width: 0.8; stroke-linejoin: miter; stroke-linecap: square"/>
   </g>
   <g id="patch_6">
    <path d="M 42.437408 22.65 
L 224.978704 22.65 
" style="fill: none; stroke: #000000; stroke-width: 0.8; stroke-linejoin: miter; stroke-linecap: square"/>
   </g>
  </g>
  <g id="axes_2">
   <g id="patch_7">
    <path d="M 237.938704 85.548056 
L 420.48 85.548056 
L 420.48 22.65 
L 237.938704 22.65 
z
" style="fill: #ffffff"/>
   </g>
   <g id="matplotlib.axis_3">
    <g id="xtick_4">
     <g id="line2d_21">
      <g>
       <use xlink:href="#mdd8d7b1de2" x="244.233231" y="85.548056" style="stroke: #000000; stroke-width: 0.8"/>
      </g>
     </g>
     <g id="text_11">
      <!-- 0 -->
      <g transform="translate(241.306736 100.850236) scale(0.12 -0.12)">
       <use xlink:href="#CMR17-30" transform="scale(0.996264)"/>
      </g>
     </g>
    </g>
    <g id="xtick_5">
     <g id="line2d_22">
      <g>
       <use xlink:href="#mdd8d7b1de2" x="307.178506" y="85.548056" style="stroke: #000000; stroke-width: 0.8"/>
      </g>
     </g>
     <g id="text_12">
      <!-- 10 -->
      <g transform="translate(301.325516 100.850236) scale(0.12 -0.12)">
       <use xlink:href="#CMR17-31" transform="scale(0.996264)"/>
       <use xlink:href="#CMR17-30" transform="translate(45.690477 0) scale(0.996264)"/>
      </g>
     </g>
    </g>
    <g id="xtick_6">
     <g id="line2d_23">
      <g>
       <use xlink:href="#mdd8d7b1de2" x="370.12378" y="85.548056" style="stroke: #000000; stroke-width: 0.8"/>
      </g>
     </g>
     <g id="text_13">
      <!-- 20 -->
      <g transform="translate(364.27079 100.850236) scale(0.12 -0.12)">
       <use xlink:href="#CMR17-32" transform="scale(0.996264)"/>
       <use xlink:href="#CMR17-30" transform="translate(45.690477 0) scale(0.996264)"/>
      </g>
     </g>
    </g>
    <g id="text_14">
     <!-- (b) Upload [Mbps] -->
     <g transform="translate(281.706731 116.141208) scale(0.12 -0.12)">
      <defs>
       <path id="CMR17-55" d="M 3456 1433 
C 3456 579 2899 38 2291 38 
C 1965 38 1670 210 1491 477 
C 1286 783 1261 1178 1261 1401 
L 1261 3874 
C 1261 4160 1331 4160 1773 4160 
L 1773 4320 
C 1587 4320 1248 4320 1050 4320 
C 851 4320 512 4320 326 4320 
L 326 4160 
C 768 4160 838 4160 838 3874 
L 838 1433 
C 838 516 1536 -128 2278 -128 
C 3110 -128 3590 719 3590 1344 
L 3590 3766 
C 3590 4122 3917 4160 4102 4160 
L 4102 4326 
C 3955 4320 3686 4320 3526 4320 
C 3366 4320 3091 4320 2944 4326 
L 2944 4160 
C 3456 4160 3456 3861 3456 3702 
L 3456 1433 
z
" transform="scale(0.015625)"/>
      </defs>
      <use xlink:href="#CMR17-28" transform="scale(0.996264)"/>
      <use xlink:href="#CMR17-62" transform="translate(35.280768 0) scale(0.996264)"/>
      <use xlink:href="#CMR17-29" transform="translate(86.176138 0) scale(0.996264)"/>
      <use xlink:href="#CMR17-55" transform="translate(151.532872 0) scale(0.996264)"/>
      <use xlink:href="#CMR17-70" transform="translate(220.605302 0) scale(0.996264)"/>
      <use xlink:href="#CMR17-6c" transform="translate(271.500671 0) scale(0.996264)"/>
      <use xlink:href="#CMR17-6f" transform="translate(296.37173 0) scale(0.996264)"/>
      <use xlink:href="#CMR17-61" transform="translate(342.062207 0) scale(0.996264)"/>
      <use xlink:href="#CMR17-64" transform="translate(387.752684 0) scale(0.996264)"/>
      <use xlink:href="#CMR17-5b" transform="translate(468.72402 0) scale(0.996264)"/>
      <use xlink:href="#CMR17-4d" transform="translate(493.595079 0) scale(0.996264)"/>
      <use xlink:href="#CMR17-62" transform="translate(578.282019 0) scale(0.996264)"/>
      <use xlink:href="#CMR17-70" transform="translate(629.177389 0) scale(0.996264)"/>
      <use xlink:href="#CMR17-73" transform="translate(680.072759 0) scale(0.996264)"/>
      <use xlink:href="#CMR17-5d" transform="translate(715.874096 0) scale(0.996264)"/>
     </g>
    </g>
   </g>
   <g id="matplotlib.axis_4"/>
   <g id="line2d_24">
    <path d="M 244.233231 80.705691 
L 244.240796 80.554472 
L 244.350381 75.385951 
L 244.913869 75.210854 
L 245.332458 75.083512 
L 245.930195 74.938659 
L 246.038484 74.908415 
L 246.984963 74.668056 
L 247.111496 74.625078 
L 249.006586 74.144359 
L 249.273716 74.095014 
L 249.853302 73.918326 
L 250.008118 73.87694 
L 250.861992 73.673191 
L 252.285185 73.249777 
L 252.51755 73.186106 
L 252.943483 73.049212 
L 253.952288 72.738814 
L 254.482532 72.558943 
L 255.007495 72.364745 
L 256.274553 71.893577 
L 257.060916 71.564078 
L 257.43949 71.384206 
L 257.610464 71.293475 
L 258.302259 71.018096 
L 258.932001 70.706107 
L 259.072524 70.644027 
L 259.512347 70.430728 
L 259.624662 70.386158 
L 259.777619 70.309753 
L 260.129163 70.12033 
L 260.482709 69.921357 
L 260.912493 69.698508 
L 261.022992 69.630061 
L 261.552324 69.333989 
L 261.754184 69.197096 
L 261.963048 69.057019 
L 262.169844 68.921717 
L 262.443721 68.768906 
L 262.676196 68.649522 
L 262.983429 68.506262 
L 263.263111 68.3439 
L 263.701445 68.073297 
L 264.518453 67.552783 
L 265.855892 66.750524 
L 265.995759 66.656609 
L 266.318597 66.451269 
L 267.889479 65.37204 
L 268.131177 65.208086 
L 268.305041 65.091886 
L 268.57843 64.921565 
L 268.82905 64.763978 
L 269.226555 64.475866 
L 269.624262 64.190936 
L 269.837991 64.038125 
L 270.476689 63.582875 
L 270.599237 63.512836 
L 271.005271 63.237458 
L 271.241123 63.098973 
L 271.538615 62.876123 
L 271.866488 62.656457 
L 272.131605 62.511605 
L 272.565591 62.188473 
L 273.74947 61.38303 
L 273.886471 61.277972 
L 274.088438 61.139487 
L 274.341031 60.958024 
L 274.554467 60.82113 
L 274.704063 60.719256 
L 275.024954 60.469346 
L 275.235896 60.299025 
L 275.488912 60.127113 
L 275.624209 60.030014 
L 277.608025 58.719976 
L 278.609583 57.989347 
L 278.853381 57.796742 
L 279.596316 57.234842 
L 280.078941 56.930811 
L 281.212708 56.11741 
L 282.07478 55.488655 
L 282.249749 55.353354 
L 282.598618 55.128912 
L 282.706511 55.047731 
L 282.964315 54.866268 
L 283.553223 54.476281 
L 283.847552 54.26139 
L 284.121969 54.095845 
L 284.55472 53.756795 
L 284.800882 53.588066 
L 285.031345 53.420928 
L 285.209849 53.303136 
L 285.389345 53.177385 
L 285.859274 52.825601 
L 286.071756 52.683933 
L 286.390703 52.454716 
L 286.653061 52.274844 
L 287.083923 51.962855 
L 287.422112 51.71772 
L 287.662574 51.552174 
L 288.308394 51.138311 
L 288.450296 51.050763 
L 289.014571 50.703754 
L 289.132847 50.625756 
L 289.426489 50.428375 
L 289.559251 50.336052 
L 298.787239 44.77436 
L 298.99505 44.643833 
L 299.629821 44.300008 
L 299.929846 44.144013 
L 300.058054 44.083526 
L 300.635088 43.80178 
L 300.768433 43.723783 
L 301.123263 43.539136 
L 301.38227 43.383141 
L 301.73687 43.198494 
L 302.348061 42.902422 
L 302.746816 42.713 
L 302.892282 42.644553 
L 303.283045 42.461498 
L 303.415458 42.399419 
L 303.822499 42.219547 
L 304.125135 42.058777 
L 304.569893 41.855029 
L 304.739708 41.778623 
L 305.335054 41.495285 
L 305.748253 41.26766 
L 306.133753 41.110074 
L 307.419793 40.572051 
L 307.569852 40.50838 
L 308.797928 40.011743 
L 309.156963 39.878033 
L 309.300909 39.833463 
L 310.282092 39.480087 
L 310.802228 39.284298 
L 311.323392 39.096468 
L 319.449779 36.804299 
L 320.919443 36.454107 
L 321.130121 36.407945 
L 321.755069 36.261501 
L 321.922887 36.226482 
L 325.129111 35.460834 
L 325.938248 35.319165 
L 327.401967 35.066071 
L 328.142196 34.921219 
L 328.232084 34.894159 
L 329.180679 34.733389 
L 329.454826 34.687227 
L 330.311427 34.551925 
L 336.260059 33.676444 
L 338.484753 33.401066 
L 339.122035 33.329435 
L 340.877431 33.116136 
L 350.21143 32.124455 
L 351.691303 31.979603 
L 352.637482 31.892055 
L 361.283515 31.159834 
L 361.407237 31.145508 
L 363.080622 30.987922 
L 365.315116 30.804867 
L 367.446243 30.640913 
L 368.796644 30.559732 
L 370.676509 30.408513 
L 371.147289 30.378269 
L 373.772355 30.16497 
L 374.288258 30.114033 
L 376.564531 29.964405 
L 376.9136 29.927794 
L 380.946536 29.636497 
L 383.918781 29.453442 
L 386.715594 29.265612 
L 389.114738 29.138269 
L 394.412447 28.845381 
L 406.02388 28.337602 
L 408.19625 28.2023 
L 409.861489 28.125895 
L 414.181109 27.955574 
L 415.474043 27.89827 
L 418.673185 27.761376 
L 420.522507 27.691338 
L 420.522507 27.691338 
" clip-path="url(#p8a5530005d)" style="fill: none; stroke: #1f77b4; stroke-width: 1.5; stroke-linecap: square"/>
   </g>
   <g id="line2d_25">
    <path d="M 244.233231 79.387312 
L 244.240455 79.198087 
L 244.389697 74.908976 
L 244.898783 74.477154 
L 245.045728 74.326744 
L 245.260616 74.161778 
L 245.576846 73.892496 
L 245.863525 73.703271 
L 246.461539 73.302986 
L 247.098027 72.890571 
L 247.215529 72.786255 
L 247.657044 72.470879 
L 248.11541 72.162781 
L 248.5235 71.927462 
L 248.771711 71.772201 
L 249.40433 71.420435 
L 249.542264 71.34523 
L 249.828213 71.185116 
L 249.969392 71.06867 
L 250.10863 70.971631 
L 250.476424 70.77998 
L 254.164518 68.654832 
L 254.517216 68.470459 
L 254.619869 68.414662 
L 254.87135 68.278808 
L 255.023318 68.196325 
L 255.281659 68.050767 
L 255.728798 67.749947 
L 256.007082 67.594685 
L 256.230067 67.47096 
L 256.454025 67.335106 
L 257.180019 66.915414 
L 257.290961 66.849913 
L 257.549818 66.701929 
L 258.887147 65.860118 
L 259.093087 65.71456 
L 262.078564 63.953308 
L 262.197907 63.868399 
L 262.489872 63.669469 
L 262.630913 63.586987 
L 262.975245 63.412317 
L 263.209861 63.269185 
L 263.531182 63.070256 
L 263.680571 62.965939 
L 263.992088 62.776713 
L 264.315724 62.589914 
L 264.619118 62.407966 
L 264.988327 62.194481 
L 265.124017 62.114424 
L 266.097901 61.546748 
L 266.347223 61.386634 
L 267.027195 60.928126 
L 267.528253 60.620028 
L 267.903744 60.362876 
L 268.099025 60.239152 
L 268.387979 60.040222 
L 268.542187 59.960165 
L 268.776821 59.7952 
L 271.380882 58.150394 
L 271.612194 58.007262 
L 271.92441 57.820462 
L 272.385992 57.543902 
L 272.506652 57.473549 
L 273.627317 56.714221 
L 273.814203 56.609904 
L 274.439359 56.238731 
L 275.412919 55.60798 
L 275.549545 55.510941 
L 275.957292 55.239233 
L 276.330697 55.037878 
L 276.569921 54.860782 
L 276.748485 54.751613 
L 277.387427 54.375588 
L 277.532357 54.295532 
L 278.055918 53.946192 
L 278.378307 53.747263 
L 278.60444 53.616261 
L 278.891495 53.451295 
L 279.984725 52.784154 
L 280.096784 52.716227 
L 280.979803 52.14855 
L 281.231679 51.993288 
L 282.581332 51.250942 
L 282.733401 51.153904 
L 283.020443 51.003494 
L 283.134855 50.930715 
L 283.969087 50.443095 
L 284.178984 50.324223 
L 284.876432 49.865715 
L 285.115483 49.720157 
L 285.233851 49.642526 
L 285.564659 49.460579 
L 286.320722 49.048164 
L 287.585368 48.364041 
L 288.125892 48.053517 
L 288.361084 47.903107 
L 288.892665 47.609565 
L 289.088346 47.490693 
L 289.431458 47.306319 
L 292.469017 45.622698 
L 292.718389 45.481992 
L 293.108287 45.234543 
L 293.305607 45.132653 
L 296.318841 43.497551 
L 296.437431 43.427198 
L 296.766467 43.237972 
L 297.541136 42.84254 
L 297.651037 42.791594 
L 297.995633 42.616925 
L 298.151125 42.534442 
L 298.93924 42.170547 
L 299.060099 42.102619 
L 299.435705 41.884282 
L 299.820565 41.673223 
L 300.2228 41.483998 
L 300.331063 41.423349 
L 300.671581 41.251105 
L 300.783902 41.197734 
L 301.353883 40.947859 
L 301.863492 40.664021 
L 302.382812 40.455388 
L 302.656693 40.302552 
L 302.974043 40.164272 
L 303.093375 40.120604 
L 305.25404 39.09442 
L 305.420931 38.985251 
L 305.758159 38.796026 
L 306.426703 38.536447 
L 306.778562 38.376334 
L 307.410045 38.068236 
L 307.849997 37.886288 
L 308.069865 37.784398 
L 308.615952 37.573338 
L 308.788542 37.495707 
L 309.167123 37.350149 
L 309.270195 37.306482 
L 309.567672 37.153646 
L 310.025226 36.952291 
L 310.621958 36.646619 
L 311.362412 36.367633 
L 312.647844 35.889717 
L 313.010541 35.741733 
L 313.269659 35.620435 
L 314.370896 35.285651 
L 314.502299 35.205594 
L 315.07923 34.982405 
L 316.459026 34.485082 
L 316.943196 34.327394 
L 317.062733 34.29343 
L 317.252285 34.223077 
L 318.208576 33.893146 
L 318.49902 33.815515 
L 318.939346 33.657827 
L 319.216126 33.55351 
L 320.172989 33.262394 
L 320.586145 33.141096 
L 321.777209 32.823294 
L 323.07216 32.425436 
L 323.494214 32.277452 
L 323.747334 32.228932 
L 331.960226 30.266325 
L 332.902201 30.062543 
L 334.147763 29.802965 
L 334.309971 29.761723 
L 344.183618 28.206678 
L 346.300539 27.998045 
L 347.089618 27.893728 
L 348.807721 27.74817 
L 350.930074 27.534685 
L 352.653771 27.36972 
L 352.859771 27.347886 
L 367.766998 26.428444 
L 378.559661 26.064549 
L 420.877225 25.700654 
L 420.877225 25.700654 
" clip-path="url(#p8a5530005d)" style="fill: none; stroke-dasharray: 1.5,2.475; stroke-dashoffset: 0; stroke: #ff7f0e; stroke-width: 1.5"/>
   </g>
   <g id="line2d_26">
    <path d="M 244.233231 77.377791 
L 244.237233 77.259048 
L 244.37974 72.122947 
L 244.602865 71.799521 
L 246.419793 69.74285 
L 246.556829 69.60377 
L 247.02943 69.094031 
L 247.238829 68.811936 
L 248.256087 67.766871 
L 248.402681 67.615327 
L 248.689175 67.306334 
L 248.932884 67.053104 
L 249.117685 66.872039 
L 249.384849 66.593224 
L 249.506678 66.462017 
L 249.643984 66.320969 
L 249.761015 66.198946 
L 250.043063 65.839439 
L 250.152274 65.714136 
L 251.271823 64.648078 
L 251.477455 64.470949 
L 251.723262 64.226904 
L 252.03573 63.934312 
L 252.160865 63.808353 
L 252.343611 63.633848 
L 252.459114 63.519697 
L 252.735471 63.210705 
L 253.101272 62.811835 
L 253.258562 62.649794 
L 254.849176 60.94279 
L 254.988411 60.805679 
L 255.156539 60.622645 
L 255.720556 59.90691 
L 255.874305 59.683858 
L 255.993285 59.516569 
L 256.161307 59.275148 
L 256.893165 58.371131 
L 257.147564 58.122494 
L 257.293114 57.978822 
L 257.917507 57.31229 
L 258.405322 56.754004 
L 258.550448 56.593275 
L 258.892679 56.221303 
L 259.026737 56.088784 
L 259.412073 55.71878 
L 259.522947 55.615126 
L 259.871516 55.266115 
L 260.291814 54.833788 
L 260.497463 54.617952 
L 264.217014 51.196071 
L 264.422439 51.036655 
L 265.220433 50.416701 
L 265.341139 50.339289 
L 266.129867 49.790843 
L 266.304283 49.660948 
L 266.524917 49.512684 
L 266.641932 49.43396 
L 266.938311 49.214844 
L 267.129378 49.093478 
L 267.401332 48.909788 
L 267.51503 48.824503 
L 267.738706 48.66443 
L 267.882652 48.565369 
L 268.293173 48.276057 
L 268.554672 48.085151 
L 269.01373 47.785343 
L 269.206662 47.646919 
L 269.519085 47.453389 
L 269.937748 47.21984 
L 270.477722 46.902975 
L 271.75436 46.20889 
L 272.059166 46.054065 
L 272.176137 45.985182 
L 272.533998 45.796243 
L 272.810557 45.602057 
L 273.366363 45.300937 
L 273.58823 45.174978 
L 273.96578 44.952582 
L 274.167299 44.842368 
L 275.529108 44.145002 
L 275.787962 44.028884 
L 276.139953 43.873403 
L 287.279636 39.386777 
L 287.654529 39.247041 
L 287.773194 39.198495 
L 289.068861 38.731397 
L 289.245252 38.667106 
L 290.018512 38.393539 
L 291.184476 37.996638 
L 291.907294 37.736848 
L 292.024199 37.689613 
L 292.507366 37.527572 
L 293.865079 37.092621 
L 294.046753 37.026361 
L 294.501896 36.864976 
L 295.94311 36.364421 
L 296.373572 36.214189 
L 296.867894 36.039684 
L 297.906967 35.681488 
L 298.136192 35.602108 
L 298.588532 35.445316 
L 298.758765 35.386273 
L 300.488639 34.810929 
L 300.959216 34.645608 
L 304.185301 33.652371 
L 304.777019 33.484426 
L 304.905815 33.439815 
L 306.119094 33.115734 
L 307.437059 32.756882 
L 308.321677 32.512181 
L 308.55569 32.445922 
L 309.344998 32.228774 
L 309.761196 32.132337 
L 310.334537 31.97292 
L 310.471538 31.933558 
L 311.087204 31.784638 
L 311.238817 31.741339 
L 321.418846 29.48589 
L 322.285013 29.303512 
L 322.860641 29.189362 
L 323.820115 29.019448 
L 323.971925 28.991895 
L 325.372049 28.764907 
L 327.165562 28.46313 
L 329.509199 28.09247 
L 329.843188 28.043268 
L 332.212596 27.719842 
L 332.683023 27.652926 
L 334.174563 27.479733 
L 349.217126 26.234578 
L 352.986121 26.065977 
L 353.600451 26.037111 
L 357.552006 25.895407 
L 357.758284 25.887535 
L 395.521011 25.529996 
L 421.48 25.518906 
L 421.48 25.518906 
" clip-path="url(#p8a5530005d)" style="fill: none; stroke-dasharray: 5.55,2.4; stroke-dashoffset: 0; stroke: #2ca02c; stroke-width: 1.5"/>
   </g>
   <g id="line2d_27">
    <path d="M 244.233231 76.532948 
L 244.239234 76.252516 
L 244.394687 70.942624 
L 244.633541 70.513372 
L 244.755671 70.288803 
L 244.858554 70.103785 
L 244.977312 69.892176 
L 246.288925 67.807367 
L 246.389032 67.651621 
L 246.512688 67.4742 
L 247.907152 65.408609 
L 248.136129 65.128177 
L 248.340794 64.879475 
L 248.441964 64.747861 
L 248.63717 64.51279 
L 248.802889 64.305873 
L 249.490162 63.431952 
L 249.653321 63.22146 
L 249.796333 63.018342 
L 250.354038 62.095932 
L 250.830833 61.55272 
L 250.963076 61.395186 
L 251.126634 61.212179 
L 251.342291 60.97599 
L 251.513689 60.791865 
L 251.798866 60.465625 
L 251.929865 60.314348 
L 252.068805 60.155027 
L 258.638914 52.075669 
L 258.991502 51.651557 
L 259.13589 51.483074 
L 259.277213 51.321072 
L 259.501031 51.069688 
L 259.937856 50.592171 
L 260.176747 50.315314 
L 260.972786 49.373463 
L 261.118767 49.191573 
L 261.298304 48.969238 
L 261.422606 48.814609 
L 261.566121 48.634731 
L 261.802159 48.35117 
L 261.94607 48.178441 
L 262.100037 48.000127 
L 263.662474 46.324683 
L 263.780466 46.191058 
L 263.91042 46.052518 
L 264.162272 45.77298 
L 264.516744 45.394452 
L 264.727925 45.164743 
L 265.019386 44.854368 
L 265.300566 44.586449 
L 266.3468 43.563485 
L 266.478843 43.431872 
L 266.665352 43.254674 
L 266.793012 43.119709 
L 267.352567 42.583424 
L 267.565532 42.385669 
L 267.699103 42.254056 
L 267.856104 42.099204 
L 269.041664 41.054565 
L 269.24016 40.877814 
L 269.489437 40.663077 
L 269.926262 40.280527 
L 270.079278 40.152042 
L 272.513729 38.182535 
L 272.686968 38.050475 
L 272.901347 37.88512 
L 273.272404 37.612509 
L 273.446075 37.482907 
L 273.671955 37.330289 
L 273.983151 37.1122 
L 274.101371 37.031533 
L 274.422833 36.816573 
L 274.749732 36.606304 
L 274.978086 36.45391 
L 275.414069 36.1594 
L 275.729429 35.966784 
L 276.050923 35.773722 
L 276.162738 35.711155 
L 276.49354 35.508037 
L 276.811968 35.320114 
L 277.114853 35.152525 
L 277.73771 34.7988 
L 278.044466 34.626072 
L 278.16296 34.561494 
L 278.478122 34.39681 
L 278.598245 34.336925 
L 279.042117 34.113249 
L 279.169708 34.057386 
L 279.511754 33.891808 
L 280.042366 33.64467 
L 280.163688 33.589924 
L 280.746584 33.328262 
L 281.003386 33.214525 
L 283.555158 32.202063 
L 284.137732 31.996711 
L 287.366478 30.982238 
L 287.97343 30.819342 
L 288.084945 30.792304 
L 289.018866 30.57131 
L 289.153429 30.541144 
L 290.246365 30.289537 
L 297.020267 29.131161 
L 298.155147 28.99128 
L 298.376157 28.966477 
L 300.619941 28.718222 
L 301.964972 28.58348 
L 303.691101 28.419913 
L 304.153028 28.379021 
L 306.106271 28.23199 
L 306.476946 28.204505 
L 319.67049 27.561187 
L 324.452842 27.399184 
L 327.771686 27.290139 
L 345.111662 26.824018 
L 354.810045 26.605929 
L 367.17651 26.372198 
L 368.403695 26.349629 
L 420.5163 25.782284 
L 420.5163 25.782284 
" clip-path="url(#p8a5530005d)" style="fill: none; stroke-dasharray: 9.6,2.4,1.5,2.4; stroke-dashoffset: 0; stroke: #d62728; stroke-width: 1.5"/>
   </g>
   <g id="line2d_28">
    <path d="M 244.233231 80.124486 
L 244.240818 80.010419 
L 244.371771 76.700896 
L 244.932114 76.36424 
L 245.213312 76.210249 
L 245.496856 76.060164 
L 245.622889 75.990161 
L 245.958678 75.812809 
L 246.553984 75.497483 
L 247.396628 74.983007 
L 247.714843 74.811202 
L 248.244471 74.527049 
L 248.843204 74.194222 
L 249.171246 74.001479 
L 249.385025 73.871707 
L 249.836075 73.589663 
L 249.950428 73.4938 
L 250.188372 73.315901 
L 250.399049 73.173004 
L 250.674918 72.997449 
L 250.997515 72.800566 
L 251.254335 72.632199 
L 251.507067 72.467426 
L 251.999664 72.148193 
L 252.125692 72.062095 
L 252.346752 71.907323 
L 255.298604 69.61097 
L 255.45665 69.468698 
L 257.336325 67.772685 
L 257.516241 67.60635 
L 257.829376 67.31618 
L 258.248735 66.903115 
L 258.495558 66.6399 
L 258.618932 66.509191 
L 258.794857 66.328168 
L 259.026673 66.094251 
L 259.398258 65.729391 
L 259.510839 65.612276 
L 260.341111 64.78388 
L 260.758558 64.356908 
L 260.885089 64.221277 
L 261.06463 64.019315 
L 261.357156 63.680784 
L 261.788497 63.201856 
L 261.947361 63.034583 
L 262.064248 62.914265 
L 262.417945 62.535733 
L 262.537752 62.40979 
L 262.853558 62.076572 
L 262.981857 61.942269 
L 263.230097 61.675694 
L 264.384188 60.353213 
L 264.506178 60.209145 
L 264.643902 60.044762 
L 264.943343 59.70631 
L 265.093555 59.544037 
L 265.224695 59.400905 
L 266.12573 58.393673 
L 266.257965 58.238666 
L 266.476184 57.988108 
L 266.595334 57.846305 
L 266.990915 57.37308 
L 267.11068 57.22534 
L 267.256157 57.051269 
L 267.803894 56.409209 
L 267.985464 56.204513 
L 268.206767 55.95747 
L 272.714808 50.898573 
L 272.880075 50.714424 
L 273.305722 50.247294 
L 273.453127 50.087287 
L 279.738927 44.002718 
L 280.14384 43.667235 
L 280.392303 43.455585 
L 285.211533 39.685573 
L 285.541487 39.461188 
L 285.663651 39.375481 
L 288.645136 37.445941 
L 288.921274 37.284919 
L 289.168521 37.136865 
L 289.899881 36.7188 
L 290.03485 36.643171 
L 290.294427 36.499024 
L 290.652816 36.30214 
L 290.787789 36.22659 
L 291.146917 36.031894 
L 291.260974 35.970797 
L 291.614097 35.792743 
L 291.880798 35.659221 
L 292.124066 35.533903 
L 292.517449 35.339519 
L 292.669247 35.268969 
L 292.963467 35.122713 
L 295.076521 34.152123 
L 295.468086 33.978365 
L 295.644061 33.904846 
L 296.101566 33.708509 
L 296.233134 33.654288 
L 296.663955 33.482718 
L 296.879512 33.396698 
L 297.214932 33.273021 
L 298.163059 32.918864 
L 298.438564 32.819797 
L 298.845884 32.674557 
L 300.803086 32.022887 
L 300.935588 31.979994 
L 301.105969 31.923898 
L 301.919532 31.659043 
L 302.367306 31.519349 
L 303.242362 31.267619 
L 303.438137 31.211913 
L 304.15227 31.015654 
L 304.290152 30.979168 
L 305.428844 30.680405 
L 308.072903 30.065456 
L 309.816816 29.702158 
L 309.983111 29.668876 
L 311.013629 29.479258 
L 311.316773 29.417927 
L 313.58902 29.024706 
L 314.194147 28.928765 
L 315.176514 28.777664 
L 316.959181 28.510777 
L 317.074607 28.492651 
L 318.034654 28.363583 
L 318.816786 28.259672 
L 331.88835 27.074385 
L 337.685123 26.739214 
L 338.325332 26.709056 
L 342.558364 26.520376 
L 343.205054 26.495531 
L 351.489114 26.216456 
L 352.511969 26.188017 
L 378.543632 25.765889 
L 420.496219 25.57213 
L 420.496219 25.57213 
" clip-path="url(#p8a5530005d)" style="fill: none; stroke: #9467bd; stroke-width: 1.5; stroke-linecap: square"/>
   </g>
   <g id="line2d_29">
    <path d="M 244.233231 79.964822 
L 244.23977 79.842519 
L 244.418422 76.337587 
L 245.405275 75.47603 
L 245.668411 75.256836 
L 250.947806 70.998789 
L 251.16327 70.834767 
L 251.381934 70.674414 
L 251.575732 70.528602 
L 251.79536 70.37219 
L 252.001793 70.215506 
L 252.182993 70.077304 
L 252.552764 69.801579 
L 252.720556 69.657669 
L 253.173876 69.277578 
L 253.343698 69.147122 
L 253.509094 69.017616 
L 253.710045 68.857128 
L 253.826368 68.764042 
L 266.259467 58.815372 
L 266.384096 58.709919 
L 266.585519 58.534482 
L 266.732688 58.400493 
L 266.991524 58.175999 
L 267.121431 58.056821 
L 267.283946 57.913319 
L 267.405747 57.80678 
L 268.581867 56.816941 
L 268.720039 56.694366 
L 270.86128 54.835904 
L 271.368477 54.421161 
L 271.528149 54.285676 
L 278.800439 48.20545 
L 278.984364 48.062356 
L 279.407671 47.727925 
L 279.565359 47.605078 
L 279.904272 47.352862 
L 280.545488 46.863922 
L 280.800837 46.657774 
L 280.962984 46.531938 
L 281.194955 46.356637 
L 281.311198 46.269666 
L 281.853965 45.861173 
L 282.206991 45.596727 
L 282.933911 45.074901 
L 283.1383 44.931127 
L 283.637995 44.569518 
L 283.751473 44.48839 
L 284.575517 43.891144 
L 284.688302 43.813006 
L 284.91216 43.664612 
L 285.134281 43.507112 
L 285.380799 43.339014 
L 285.627723 43.171051 
L 286.180575 42.80455 
L 286.507882 42.585763 
L 286.679561 42.466857 
L 287.006112 42.258535 
L 287.12919 42.182299 
L 287.352507 42.028605 
L 289.861042 40.453206 
L 290.087168 40.314461 
L 290.545258 40.042404 
L 290.956566 39.802147 
L 291.255462 39.627118 
L 293.65809 38.290482 
L 294.219966 38.003749 
L 294.339921 37.944636 
L 295.070609 37.575009 
L 296.694906 36.81279 
L 297.093685 36.6186 
L 297.243063 36.550925 
L 303.650242 33.979301 
L 304.015887 33.843273 
L 309.145946 32.276843 
L 310.052454 32.045962 
L 310.173334 32.011174 
L 321.335456 29.810535 
L 322.77332 29.603707 
L 324.73534 29.332874 
L 326.125646 29.166406 
L 326.278808 29.149963 
L 327.565581 29.013391 
L 328.4287 28.918674 
L 330.658927 28.690919 
L 331.448775 28.619168 
L 333.200319 28.459766 
L 333.597397 28.428511 
L 335.081516 28.307567 
L 337.520879 28.130635 
L 337.72934 28.115823 
L 340.53651 27.94025 
L 343.188138 27.787643 
L 349.773102 27.462725 
L 353.643435 27.30278 
L 365.182841 26.909644 
L 365.303512 26.905839 
L 397.285906 26.239016 
L 420.524468 25.957039 
L 420.524468 25.957039 
" clip-path="url(#p8a5530005d)" style="fill: none; stroke-dasharray: 1.5,2.475; stroke-dashoffset: 0; stroke: #8c564b; stroke-width: 1.5"/>
   </g>
   <g id="line2d_30">
    <path d="M 244.233231 77.948868 
L 244.238179 77.83302 
L 244.481932 73.148355 
L 244.611375 72.981129 
L 244.959025 72.561156 
L 248.111162 69.566989 
L 248.367644 69.371256 
L 248.505057 69.267174 
L 248.752215 69.086689 
L 249.160201 68.765163 
L 249.32931 68.632409 
L 249.774686 68.268455 
L 249.892024 68.160065 
L 253.577217 65.542447 
L 253.793713 65.398092 
L 253.963394 65.281248 
L 254.189819 65.120651 
L 254.436542 64.943149 
L 254.70862 64.757692 
L 257.334787 62.805002 
L 257.635463 62.594353 
L 258.209908 62.181673 
L 258.465729 62.000525 
L 259.359915 61.367252 
L 259.608444 61.191407 
L 259.734611 61.09959 
L 259.990006 60.919602 
L 260.494642 60.552664 
L 260.673511 60.421237 
L 260.97084 60.188048 
L 261.395153 59.850611 
L 264.421277 57.599102 
L 264.543845 57.512091 
L 264.787025 57.334092 
L 266.683783 55.977551 
L 266.810525 55.882916 
L 266.990944 55.74834 
L 267.143942 55.631165 
L 267.463197 55.402451 
L 267.703738 55.237379 
L 268.206966 54.872596 
L 268.374969 54.741665 
L 268.824657 54.433896 
L 270.302499 53.385788 
L 270.417115 53.307892 
L 271.12636 52.826101 
L 271.347488 52.672133 
L 271.734542 52.405797 
L 272.209466 52.084105 
L 272.361479 51.975715 
L 272.562877 51.840641 
L 273.083512 51.483316 
L 273.252965 51.368462 
L 274.305495 50.664254 
L 274.597387 50.469516 
L 274.91537 50.254723 
L 275.033809 50.177491 
L 286.888855 43.146351 
L 287.299413 42.921117 
L 287.564207 42.782894 
L 288.171037 42.458053 
L 288.30418 42.385627 
L 288.824948 42.116639 
L 288.96235 42.043882 
L 289.55202 41.732466 
L 289.86781 41.571537 
L 290.179754 41.403979 
L 290.637392 41.158194 
L 291.400921 40.772695 
L 291.515851 40.718499 
L 291.930539 40.506193 
L 292.089724 40.432441 
L 292.4059 40.267535 
L 294.925481 39.073746 
L 295.045259 39.023694 
L 303.327275 35.439344 
L 303.742852 35.274272 
L 304.089186 35.144833 
L 304.495967 34.995837 
L 304.646011 34.941145 
L 305.202496 34.741765 
L 306.739799 34.210088 
L 307.45367 33.987008 
L 307.619198 33.931322 
L 318.307151 31.032286 
L 318.988424 30.881301 
L 319.355869 30.805229 
L 321.545913 30.367689 
L 322.23297 30.235598 
L 322.534985 30.178088 
L 323.579501 29.99926 
L 328.696184 29.193788 
L 330.098591 29.004519 
L 334.90239 28.464885 
L 336.170829 28.328486 
L 336.96403 28.254236 
L 338.917287 28.074082 
L 343.831258 27.718084 
L 344.219981 27.696372 
L 351.2358 27.325292 
L 352.533791 27.27176 
L 362.195837 26.938301 
L 420.486762 26.076811 
L 420.486762 26.076811 
" clip-path="url(#p8a5530005d)" style="fill: none; stroke-dasharray: 5.55,2.4; stroke-dashoffset: 0; stroke: #1f77b4; stroke-width: 1.5"/>
   </g>
   <g id="line2d_31">
    <path d="M 237.938704 82.689054 
L 420.48 82.689054 
" clip-path="url(#p8a5530005d)" style="fill: none; stroke: #808080; stroke-opacity: 0.7; stroke-width: 0.5; stroke-linecap: square"/>
   </g>
   <g id="line2d_32">
    <path d="M 237.938704 68.394041 
L 420.48 68.394041 
" clip-path="url(#p8a5530005d)" style="fill: none; stroke: #808080; stroke-opacity: 0.7; stroke-width: 0.5; stroke-linecap: square"/>
   </g>
   <g id="line2d_33">
    <path d="M 237.938704 54.099028 
L 420.48 54.099028 
" clip-path="url(#p8a5530005d)" style="fill: none; stroke: #808080; stroke-opacity: 0.7; stroke-width: 0.5; stroke-linecap: square"/>
   </g>
   <g id="line2d_34">
    <path d="M 237.938704 39.804015 
L 420.48 39.804015 
" clip-path="url(#p8a5530005d)" style="fill: none; stroke: #808080; stroke-opacity: 0.7; stroke-width: 0.5; stroke-linecap: square"/>
   </g>
   <g id="line2d_35">
    <path d="M 237.938704 25.509003 
L 420.48 25.509003 
" clip-path="url(#p8a5530005d)" style="fill: none; stroke: #808080; stroke-opacity: 0.7; stroke-width: 0.5; stroke-linecap: square"/>
   </g>
   <g id="patch_8">
    <path d="M 237.938704 85.548056 
L 237.938704 22.65 
" style="fill: none; stroke: #000000; stroke-width: 0.8; stroke-linejoin: miter; stroke-linecap: square"/>
   </g>
   <g id="patch_9">
    <path d="M 420.48 85.548056 
L 420.48 22.65 
" style="fill: none; stroke: #000000; stroke-width: 0.8; stroke-linejoin: miter; stroke-linecap: square"/>
   </g>
   <g id="patch_10">
    <path d="M 237.938704 85.548056 
L 420.48 85.548056 
" style="fill: none; stroke: #000000; stroke-width: 0.8; stroke-linejoin: miter; stroke-linecap: square"/>
   </g>
   <g id="patch_11">
    <path d="M 237.938704 22.65 
L 420.48 22.65 
" style="fill: none; stroke: #000000; stroke-width: 0.8; stroke-linejoin: miter; stroke-linecap: square"/>
   </g>
  </g>
  <g id="legend_1">
   <g id="patch_12">
    <path d="M 29.776635 16.930403 
L 408.559365 16.930403 
L 408.559365 0 
L 29.776635 0 
z
" style="fill: #ffffff; opacity: 0.8; stroke: #000000; stroke-linejoin: miter"/>
   </g>
   <g id="line2d_36">
    <path d="M 33.775035 7.497 
L 38.773035 7.497 
L 43.771035 7.497 
" style="fill: none; stroke: #1f77b4; stroke-width: 1.5; stroke-linecap: square"/>
   </g>
   <g id="text_15">
    <!-- Dublin -->
    <g transform="translate(46.769835 10.9956) scale(0.09996 -0.09996)">
     <defs>
      <path id="CMR17-75" d="M 1882 2693 
L 1882 2528 
C 2259 2528 2317 2489 2317 2186 
L 2317 1032 
C 2317 500 2029 38 1555 38 
C 1030 38 986 348 986 678 
L 986 2763 
L 211 2693 
L 211 2528 
C 467 2528 640 2528 646 2274 
L 646 1058 
C 646 633 646 361 813 183 
C 896 101 1056 -64 1517 -64 
C 2061 -64 2272 377 2323 506 
L 2330 506 
L 2330 -63 
L 3091 -63 
L 3091 128 
C 2714 128 2656 166 2656 473 
L 2656 2763 
L 1882 2693 
z
" transform="scale(0.015625)"/>
     </defs>
     <use xlink:href="#CMR17-44" transform="scale(0.996264)"/>
     <use xlink:href="#CMR17-75" transform="translate(70.393556 0) scale(0.996264)"/>
     <use xlink:href="#CMR17-62" transform="translate(121.288926 0) scale(0.996264)"/>
     <use xlink:href="#CMR17-6c" transform="translate(172.184295 0) scale(0.996264)"/>
     <use xlink:href="#CMR17-69" transform="translate(197.055354 0) scale(0.996264)"/>
     <use xlink:href="#CMR17-6e" transform="translate(221.926412 0) scale(0.996264)"/>
    </g>
   </g>
   <g id="line2d_37">
    <path d="M 82.330532 7.497 
L 87.328532 7.497 
L 92.326532 7.497 
" style="fill: none; stroke-dasharray: 1.5,2.475; stroke-dashoffset: 0; stroke: #ff7f0e; stroke-width: 1.5"/>
   </g>
   <g id="text_16">
    <!-- Lagos -->
    <g transform="translate(95.325332 10.9956) scale(0.09996 -0.09996)">
     <defs>
      <path id="CMR17-4c" d="M 3469 1615 
L 3354 1615 
C 3302 983 3219 166 2125 166 
L 1530 166 
C 1274 166 1261 197 1261 414 
L 1261 3898 
C 1261 4129 1274 4192 1760 4192 
L 1901 4192 
L 1901 4352 
C 1638 4352 1331 4352 1069 4352 
C 870 4352 512 4352 326 4352 
L 326 4192 
C 768 4192 838 4192 838 3905 
L 838 452 
C 838 166 768 166 326 166 
L 326 0 
L 3315 0 
L 3469 1615 
z
" transform="scale(0.015625)"/>
      <path id="CMR17-67" d="M 710 1164 
C 832 1068 1043 960 1299 960 
C 1805 960 2240 1357 2240 1888 
C 2240 2054 2189 2310 1997 2509 
C 2176 2692 2438 2752 2586 2752 
C 2611 2752 2650 2752 2682 2734 
C 2656 2728 2598 2703 2598 2605 
C 2598 2527 2656 2471 2739 2471 
C 2835 2471 2886 2533 2886 2614 
C 2886 2731 2790 2854 2586 2854 
C 2330 2854 2106 2738 1926 2580 
C 1734 2753 1504 2816 1299 2816 
C 794 2816 358 2419 358 1888 
C 358 1522 570 1292 634 1228 
C 442 1004 442 743 442 711 
C 442 545 506 302 723 168 
C 390 85 128 -169 128 -486 
C 128 -943 736 -1280 1466 -1280 
C 2170 -1280 2803 -956 2803 -479 
C 2803 384 1856 384 1363 384 
C 1216 384 954 384 922 391 
C 723 423 589 602 589 826 
C 589 883 589 1024 710 1164 
z
M 1299 1068 
C 736 1068 736 1760 736 1889 
C 736 2016 736 2708 1299 2708 
C 1862 2708 1862 2016 1862 1889 
C 1862 1760 1862 1068 1299 1068 
z
M 1466 -1171 
C 826 -1171 384 -835 384 -486 
C 384 -289 493 -105 634 -4 
C 794 104 858 104 1293 104 
C 1818 104 2547 104 2547 -486 
C 2547 -835 2106 -1171 1466 -1171 
z
" transform="scale(0.015625)"/>
     </defs>
     <use xlink:href="#CMR17-4c" transform="scale(0.996264)"/>
     <use xlink:href="#CMR17-61" transform="translate(57.381408 0) scale(0.996264)"/>
     <use xlink:href="#CMR17-67" transform="translate(103.071885 0) scale(0.996264)"/>
     <use xlink:href="#CMR17-6f" transform="translate(148.762362 0) scale(0.996264)"/>
     <use xlink:href="#CMR17-73" transform="translate(194.452839 0) scale(0.996264)"/>
    </g>
   </g>
   <g id="line2d_38">
    <path d="M 126.109613 7.497 
L 131.107613 7.497 
L 136.105613 7.497 
" style="fill: none; stroke-dasharray: 5.55,2.4; stroke-dashoffset: 0; stroke: #2ca02c; stroke-width: 1.5"/>
   </g>
   <g id="text_17">
    <!-- Manila -->
    <g transform="translate(139.104413 10.9956) scale(0.09996 -0.09996)">
     <use xlink:href="#CMR17-4d" transform="scale(0.996264)"/>
     <use xlink:href="#CMR17-61" transform="translate(84.686941 0) scale(0.996264)"/>
     <use xlink:href="#CMR17-6e" transform="translate(130.377418 0) scale(0.996264)"/>
     <use xlink:href="#CMR17-69" transform="translate(181.272787 0) scale(0.996264)"/>
     <use xlink:href="#CMR17-6c" transform="translate(206.143846 0) scale(0.996264)"/>
     <use xlink:href="#CMR17-61" transform="translate(231.014904 0) scale(0.996264)"/>
    </g>
   </g>
   <g id="line2d_39">
    <path d="M 175.090806 7.497 
L 180.088806 7.497 
L 185.086806 7.497 
" style="fill: none; stroke-dasharray: 9.6,2.4,1.5,2.4; stroke-dashoffset: 0; stroke: #d62728; stroke-width: 1.5"/>
   </g>
   <g id="text_18">
    <!-- Mexico City -->
    <g transform="translate(188.085606 10.9956) scale(0.09996 -0.09996)">
     <defs>
      <path id="CMR17-78" d="M 1664 1477 
C 1856 1726 2074 2006 2253 2216 
C 2464 2458 2707 2560 2989 2560 
L 2989 2726 
C 2880 2726 2656 2726 2541 2726 
C 2368 2726 2170 2726 2022 2732 
L 2022 2566 
C 2112 2553 2163 2489 2163 2400 
C 2163 2285 2099 2215 2067 2171 
L 1594 1573 
L 1030 2306 
C 973 2376 973 2388 973 2420 
C 973 2497 1037 2560 1146 2560 
L 1146 2732 
C 992 2726 717 2726 557 2726 
C 384 2726 179 2726 38 2732 
L 38 2560 
C 384 2560 461 2534 614 2343 
L 1350 1395 
C 1363 1382 1395 1344 1395 1325 
C 1395 1299 838 619 768 530 
C 480 185 179 160 6 160 
L 6 0 
C 115 0 339 0 454 0 
C 582 0 864 0 979 -6 
L 979 160 
C 941 166 838 179 838 325 
C 838 440 890 510 947 586 
L 1478 1236 
L 2035 512 
C 2086 442 2163 346 2163 301 
C 2163 211 2086 160 1984 160 
L 1984 -6 
C 2138 0 2413 0 2573 0 
C 2746 0 2950 0 3091 -6 
L 3091 160 
C 2771 160 2675 172 2522 370 
L 1664 1477 
z
" transform="scale(0.015625)"/>
      <path id="CMR17-43" d="M 3974 4289 
C 3974 4403 3968 4410 3930 4410 
C 3904 4410 3898 4403 3853 4327 
L 3571 3792 
C 3258 4187 2874 4416 2381 4416 
C 1286 4416 294 3456 294 2148 
C 294 826 1286 -128 2387 -128 
C 3366 -128 3974 730 3974 1461 
C 3974 1524 3974 1550 3917 1550 
C 3866 1550 3866 1531 3859 1474 
C 3808 585 3168 38 2477 38 
C 1824 38 781 495 781 2147 
C 781 3805 1843 4250 2464 4250 
C 3187 4250 3712 3628 3834 2745 
C 3846 2668 3846 2655 3904 2655 
C 3974 2655 3974 2668 3974 2783 
L 3974 4289 
z
" transform="scale(0.015625)"/>
      <path id="CMR17-79" d="M 2496 2197 
C 2656 2586 2944 2586 3034 2586 
L 3034 2752 
C 2912 2752 2752 2752 2630 2752 
C 2496 2752 2285 2752 2157 2758 
L 2157 2592 
C 2400 2573 2406 2394 2406 2343 
C 2406 2280 2394 2248 2362 2171 
L 1664 449 
L 902 2306 
C 870 2382 870 2426 870 2433 
C 870 2573 1018 2586 1171 2586 
L 1171 2758 
C 1018 2752 742 2752 582 2752 
C 410 2752 205 2752 64 2758 
L 64 2586 
C 410 2586 448 2554 531 2350 
L 1485 15 
C 1197 -738 1030 -1178 627 -1178 
C 557 -1178 397 -1159 282 -1044 
C 429 -1031 493 -942 493 -833 
C 493 -725 416 -629 288 -629 
C 147 -629 77 -725 77 -840 
C 77 -1095 339 -1280 627 -1280 
C 998 -1280 1229 -922 1357 -604 
L 2496 2197 
z
" transform="scale(0.015625)"/>
     </defs>
     <use xlink:href="#CMR17-4d" transform="scale(0.996264)"/>
     <use xlink:href="#CMR17-65" transform="translate(84.686941 0) scale(0.996264)"/>
     <use xlink:href="#CMR17-78" transform="translate(125.172601 0) scale(0.996264)"/>
     <use xlink:href="#CMR17-69" transform="translate(173.465517 0) scale(0.996264)"/>
     <use xlink:href="#CMR17-63" transform="translate(198.336575 0) scale(0.996264)"/>
     <use xlink:href="#CMR17-6f" transform="translate(238.822236 0) scale(0.996264)"/>
     <use xlink:href="#CMR17-43" transform="translate(314.588679 0) scale(0.996264)"/>
     <use xlink:href="#CMR17-69" transform="translate(381.09856 0) scale(0.996264)"/>
     <use xlink:href="#CMR17-74" transform="translate(405.969618 0) scale(0.996264)"/>
     <use xlink:href="#CMR17-79" transform="translate(438.647932 0) scale(0.996264)"/>
    </g>
   </g>
   <g id="line2d_40">
    <path d="M 247.673662 7.497 
L 252.671662 7.497 
L 257.669662 7.497 
" style="fill: none; stroke: #9467bd; stroke-width: 1.5; stroke-linecap: square"/>
   </g>
   <g id="text_19">
    <!-- Seattle -->
    <g transform="translate(260.668462 10.9956) scale(0.09996 -0.09996)">
     <defs>
      <path id="CMR17-53" d="M 2803 4290 
C 2803 4404 2797 4411 2758 4411 
C 2720 4411 2707 4385 2682 4328 
L 2490 3907 
C 2246 4257 1875 4416 1472 4416 
C 819 4416 294 3901 294 3253 
C 294 3056 339 2776 557 2510 
C 794 2218 1018 2167 1530 2033 
C 1722 1982 2042 1899 2106 1874 
C 2470 1722 2662 1341 2662 985 
C 2662 527 2336 38 1779 38 
C 1094 38 454 419 410 1311 
C 403 1413 397 1419 352 1419 
C 301 1419 294 1413 294 1285 
L 294 -1 
C 294 -115 301 -122 339 -122 
C 384 -122 397 -90 486 108 
C 493 127 493 140 614 381 
C 934 -39 1472 -128 1779 -128 
C 2477 -128 2970 451 2970 1124 
C 2970 1454 2848 1708 2778 1823 
C 2509 2230 2221 2306 1914 2382 
C 1869 2402 1856 2402 1498 2490 
C 1152 2579 1005 2624 845 2796 
C 666 2992 602 3196 602 3399 
C 602 3812 934 4263 1478 4263 
C 2157 4263 2579 3786 2675 2993 
C 2694 2878 2701 2872 2746 2872 
C 2803 2872 2803 2891 2803 2999 
L 2803 4290 
z
" transform="scale(0.015625)"/>
     </defs>
     <use xlink:href="#CMR17-53" transform="scale(0.996264)"/>
     <use xlink:href="#CMR17-65" transform="translate(50.89537 0) scale(0.996264)"/>
     <use xlink:href="#CMR17-61" transform="translate(91.38103 0) scale(0.996264)"/>
     <use xlink:href="#CMR17-74" transform="translate(137.071507 0) scale(0.996264)"/>
     <use xlink:href="#CMR17-74" transform="translate(172.352275 0) scale(0.996264)"/>
     <use xlink:href="#CMR17-6c" transform="translate(207.633043 0) scale(0.996264)"/>
     <use xlink:href="#CMR17-65" transform="translate(232.504101 0) scale(0.996264)"/>
    </g>
   </g>
   <g id="line2d_41">
    <path d="M 296.379779 7.497 
L 301.377779 7.497 
L 306.375779 7.497 
" style="fill: none; stroke-dasharray: 1.5,2.475; stroke-dashoffset: 0; stroke: #8c564b; stroke-width: 1.5"/>
   </g>
   <g id="text_20">
    <!-- Sydney -->
    <g transform="translate(309.374579 10.9956) scale(0.09996 -0.09996)">
     <use xlink:href="#CMR17-53" transform="scale(0.996264)"/>
     <use xlink:href="#CMR17-79" transform="translate(50.89537 0) scale(0.996264)"/>
     <use xlink:href="#CMR17-64" transform="translate(99.188286 0) scale(0.996264)"/>
     <use xlink:href="#CMR17-6e" transform="translate(150.083655 0) scale(0.996264)"/>
     <use xlink:href="#CMR17-65" transform="translate(200.979025 0) scale(0.996264)"/>
     <use xlink:href="#CMR17-79" transform="translate(241.464686 0) scale(0.996264)"/>
    </g>
   </g>
   <g id="line2d_42">
    <path d="M 346.787902 7.497 
L 351.785902 7.497 
L 356.783902 7.497 
" style="fill: none; stroke-dasharray: 5.55,2.4; stroke-dashoffset: 0; stroke: #1f77b4; stroke-width: 1.5"/>
   </g>
   <g id="text_21">
    <!-- So Paulo -->
    <g transform="translate(359.782702 10.9956) scale(0.09996 -0.09996)">
     <defs>
      <path id="CMR17-7e" d="M 2400 4184 
C 2182 3980 2061 3865 1862 3865 
C 1722 3865 1626 3932 1491 4024 
C 1363 4111 1261 4184 1120 4184 
C 890 4184 730 4004 461 3718 
L 531 3648 
C 749 3850 870 3968 1069 3968 
C 1210 3968 1306 3900 1440 3808 
C 1568 3722 1670 3648 1811 3648 
C 2042 3648 2202 3828 2470 4114 
L 2400 4184 
z
" transform="scale(0.015625)"/>
     </defs>
     <use xlink:href="#CMR17-53" transform="scale(0.996264)"/>
     <use xlink:href="#CMR17-7e" transform="translate(50.89537 0) scale(0.996264)"/>
     <use xlink:href="#CMR17-61" transform="translate(50.89537 0) scale(0.996264)"/>
     <use xlink:href="#CMR17-6f" transform="translate(96.585847 0) scale(0.996264)"/>
     <use xlink:href="#CMR17-50" transform="translate(172.35229 0) scale(0.996264)"/>
     <use xlink:href="#CMR17-61" transform="translate(232.336137 0) scale(0.996264)"/>
     <use xlink:href="#CMR17-75" transform="translate(278.026614 0) scale(0.996264)"/>
     <use xlink:href="#CMR17-6c" transform="translate(328.921984 0) scale(0.996264)"/>
     <use xlink:href="#CMR17-6f" transform="translate(353.793042 0) scale(0.996264)"/>
    </g>
   </g>
  </g>
 </g>
 <defs>
  <clipPath id="pcaa18c2d03">
   <rect x="42.437408" y="22.65" width="182.541296" height="62.898056"/>
  </clipPath>
  <clipPath id="p8a5530005d">
   <rect x="237.938704" y="22.65" width="182.541296" height="62.898056"/>
  </clipPath>
 </defs>
</svg>
