<?xml version="1.0" encoding="utf-8" standalone="no"?>
<!DOCTYPE svg PUBLIC "-//W3C//DTD SVG 1.1//EN"
  "http://www.w3.org/Graphics/SVG/1.1/DTD/svg11.dtd">
<svg xmlns:xlink="http://www.w3.org/1999/xlink" width="323.109735pt" height="132.779pt" viewBox="0 0 323.109735 132.779" xmlns="http://www.w3.org/2000/svg" version="1.1">
 <metadata>
  <rdf:RDF xmlns:dc="http://purl.org/dc/elements/1.1/" xmlns:cc="http://creativecommons.org/ns#" xmlns:rdf="http://www.w3.org/1999/02/22-rdf-syntax-ns#">
   <cc:Work>
    <dc:type rdf:resource="http://purl.org/dc/dcmitype/StillImage"/>
    <dc:date>2023-10-11T12:57:59.082215</dc:date>
    <dc:format>image/svg+xml</dc:format>
    <dc:creator>
     <cc:Agent>
      <dc:title>Matplotlib v3.7.0, https://matplotlib.org/</dc:title>
     </cc:Agent>
    </dc:creator>
   </cc:Work>
  </rdf:RDF>
 </metadata>
 <defs>
  <style type="text/css">*{stroke-linejoin: round; stroke-linecap: butt}</style>
 </defs>
 <g id="figure_1">
  <g id="patch_1">
   <path d="M -0 132.779 
L 323.109735 132.779 
L 323.109735 -0 
L -0 -0 
z
" style="fill: #ffffff"/>
  </g>
  <g id="axes_1">
   <g id="patch_2">
    <path d="M 43.876826 102.960683 
L 178.093281 102.960683 
L 178.093281 17.579 
L 43.876826 17.579 
z
" style="fill: #ffffff"/>
   </g>
   <g id="matplotlib.axis_1">
    <g id="xtick_1">
     <g id="line2d_1">
      <defs>
       <path id="mb0d035204d" d="M 0 0 
L 0 3.5 
" style="stroke: #000000; stroke-width: 0.8"/>
      </defs>
      <g>
       <use xlink:href="#mb0d035204d" x="46.231501" y="102.960683" style="stroke: #000000; stroke-width: 0.8"/>
      </g>
     </g>
     <g id="text_1">
      <!-- 0 -->
      <g transform="translate(43.740833 116.879182) scale(0.1 -0.1)">
       <defs>
        <path id="CMR17-30" d="M 2688 2025 
C 2688 2416 2682 3080 2413 3591 
C 2176 4039 1798 4198 1466 4198 
C 1158 4198 768 4058 525 3597 
C 269 3118 243 2524 243 2025 
C 243 1661 250 1106 448 619 
C 723 -39 1216 -128 1466 -128 
C 1760 -128 2208 -7 2470 600 
C 2662 1042 2688 1559 2688 2025 
z
M 1466 -26 
C 1056 -26 813 325 723 812 
C 653 1188 653 1738 653 2096 
C 653 2588 653 2997 736 3387 
C 858 3929 1216 4096 1466 4096 
C 1728 4096 2067 3923 2189 3400 
C 2272 3036 2278 2607 2278 2096 
C 2278 1680 2278 1169 2202 792 
C 2067 95 1690 -26 1466 -26 
z
" transform="scale(0.015625)"/>
       </defs>
       <use xlink:href="#CMR17-30" transform="scale(0.996264)"/>
      </g>
     </g>
    </g>
    <g id="xtick_2">
     <g id="line2d_2">
      <g>
       <use xlink:href="#mb0d035204d" x="93.324994" y="102.960683" style="stroke: #000000; stroke-width: 0.8"/>
      </g>
     </g>
     <g id="text_2">
      <!-- 100 -->
      <g transform="translate(85.852991 116.879182) scale(0.1 -0.1)">
       <defs>
        <path id="CMR17-31" d="M 1702 4058 
C 1702 4192 1696 4192 1606 4192 
C 1357 3916 979 3827 621 3827 
C 602 3827 570 3827 563 3808 
C 557 3795 557 3782 557 3648 
C 755 3648 1088 3686 1344 3839 
L 1344 461 
C 1344 236 1331 160 781 160 
L 589 160 
L 589 0 
C 896 0 1216 0 1523 0 
C 1830 0 2150 0 2458 0 
L 2458 160 
L 2266 160 
C 1715 160 1702 230 1702 458 
L 1702 4058 
z
" transform="scale(0.015625)"/>
       </defs>
       <use xlink:href="#CMR17-31" transform="scale(0.996264)"/>
       <use xlink:href="#CMR17-30" transform="translate(45.690477 0) scale(0.996264)"/>
       <use xlink:href="#CMR17-30" transform="translate(91.380954 0) scale(0.996264)"/>
      </g>
     </g>
    </g>
    <g id="xtick_3">
     <g id="line2d_3">
      <g>
       <use xlink:href="#mb0d035204d" x="140.418486" y="102.960683" style="stroke: #000000; stroke-width: 0.8"/>
      </g>
     </g>
     <g id="text_3">
      <!-- 200 -->
      <g transform="translate(132.946483 116.879182) scale(0.1 -0.1)">
       <defs>
        <path id="CMR17-32" d="M 2669 989 
L 2554 989 
C 2490 536 2438 459 2413 420 
C 2381 369 1920 369 1830 369 
L 602 369 
C 832 619 1280 1072 1824 1597 
C 2214 1967 2669 2402 2669 3035 
C 2669 3790 2067 4224 1395 4224 
C 691 4224 262 3604 262 3030 
C 262 2780 448 2748 525 2748 
C 589 2748 781 2787 781 3010 
C 781 3207 614 3264 525 3264 
C 486 3264 448 3258 422 3245 
C 544 3790 915 4058 1306 4058 
C 1862 4058 2227 3617 2227 3035 
C 2227 2479 1901 2000 1536 1584 
L 262 146 
L 262 0 
L 2515 0 
L 2669 989 
z
" transform="scale(0.015625)"/>
       </defs>
       <use xlink:href="#CMR17-32" transform="scale(0.996264)"/>
       <use xlink:href="#CMR17-30" transform="translate(45.690477 0) scale(0.996264)"/>
       <use xlink:href="#CMR17-30" transform="translate(91.380954 0) scale(0.996264)"/>
      </g>
     </g>
    </g>
    <g id="text_4">
     <!-- (a) Download [Mbps] -->
     <g transform="translate(64.810886 130.28834) scale(0.1 -0.1)">
      <defs>
       <path id="CMR17-28" d="M 1958 -1561 
C 1958 -1555 1958 -1542 1939 -1523 
C 1645 -1224 858 -407 858 1581 
C 858 3569 1632 4379 1946 4697 
C 1946 4704 1958 4717 1958 4736 
C 1958 4755 1939 4768 1914 4768 
C 1843 4768 1299 4296 986 3594 
C 666 2887 576 2199 576 1588 
C 576 1128 621 351 1005 -471 
C 1312 -1135 1837 -1600 1914 -1600 
C 1946 -1600 1958 -1587 1958 -1561 
z
" transform="scale(0.015625)"/>
       <path id="CMR17-61" d="M 2304 1653 
C 2304 2072 2304 2294 2035 2543 
C 1798 2752 1523 2816 1306 2816 
C 800 2816 435 2407 435 1971 
C 435 1728 627 1728 666 1728 
C 749 1728 896 1778 896 1954 
C 896 2112 774 2181 666 2181 
C 640 2181 608 2174 589 2168 
C 723 2592 1069 2714 1293 2714 
C 1613 2714 1965 2429 1965 1885 
L 1965 1600 
C 1587 1600 1133 1549 774 1357 
C 371 1133 256 813 256 570 
C 256 77 832 -64 1171 -64 
C 1523 -64 1850 139 1990 511 
C 2003 233 2182 -18 2464 -18 
C 2598 -18 2938 70 2938 567 
L 2938 920 
L 2822 920 
L 2822 562 
C 2822 178 2650 128 2566 128 
C 2304 128 2304 458 2304 738 
L 2304 1653 
z
M 1965 870 
C 1965 317 1568 38 1216 38 
C 896 38 646 275 646 570 
C 646 761 730 1100 1101 1305 
C 1408 1478 1760 1504 1965 1504 
L 1965 870 
z
" transform="scale(0.015625)"/>
       <path id="CMR17-29" d="M 1683 1581 
C 1683 2040 1638 2817 1254 3639 
C 947 4303 422 4768 346 4768 
C 326 4768 301 4761 301 4729 
C 301 4717 307 4710 314 4697 
C 621 4378 1402 3568 1402 1584 
C 1402 -407 627 -1217 314 -1537 
C 307 -1549 301 -1556 301 -1568 
C 301 -1600 326 -1600 346 -1600 
C 416 -1600 960 -1128 1274 -426 
C 1594 281 1683 969 1683 1581 
z
" transform="scale(0.015625)"/>
       <path id="CMR17-44" d="M 333 4352 
L 333 4186 
C 774 4186 845 4186 845 3900 
L 845 452 
C 845 166 774 166 333 166 
L 333 0 
L 2368 0 
C 3398 0 4224 943 4224 2141 
C 4224 3346 3411 4352 2368 4352 
L 333 4352 
z
M 1523 166 
C 1267 166 1254 197 1254 414 
L 1254 3938 
C 1254 4155 1267 4186 1523 4186 
L 2240 4186 
C 2771 4186 3750 3874 3750 2141 
C 3750 1242 3488 879 3366 707 
C 3213 510 2848 166 2240 166 
L 1523 166 
z
" transform="scale(0.015625)"/>
       <path id="CMR17-6f" d="M 2758 1356 
C 2758 2176 2163 2816 1466 2816 
C 768 2816 173 2176 173 1356 
C 173 551 768 -64 1466 -64 
C 2163 -64 2758 551 2758 1356 
z
M 1466 51 
C 1165 51 909 230 762 480 
C 602 767 582 1126 582 1408 
C 582 1677 595 2010 762 2298 
C 890 2509 1139 2714 1466 2714 
C 1754 2714 1997 2554 2150 2330 
C 2349 2029 2349 1607 2349 1408 
C 2349 1158 2336 775 2163 467 
C 1984 173 1709 51 1466 51 
z
" transform="scale(0.015625)"/>
       <path id="CMR17-77" d="M 3725 2183 
C 3853 2560 4109 2560 4205 2560 
L 4205 2732 
C 4077 2732 3949 2732 3821 2732 
C 3699 2732 3424 2732 3315 2738 
L 3315 2560 
C 3514 2560 3622 2445 3622 2286 
C 3622 2241 3610 2184 3597 2140 
L 2995 407 
L 2342 2275 
C 2330 2319 2310 2370 2310 2395 
C 2310 2560 2528 2560 2630 2560 
L 2630 2738 
C 2483 2732 2214 2732 2061 2732 
C 1901 2732 1734 2732 1587 2738 
L 1587 2560 
C 1939 2560 1939 2547 2074 2149 
L 1485 451 
L 851 2281 
C 819 2363 819 2376 819 2395 
C 819 2560 1037 2560 1139 2560 
L 1139 2738 
C 986 2732 717 2732 557 2732 
C 416 2732 198 2732 64 2738 
L 64 2560 
C 346 2560 416 2541 486 2331 
L 1274 49 
C 1299 -33 1318 -52 1370 -52 
C 1414 -52 1440 -39 1472 56 
L 2131 1980 
L 2797 56 
C 2829 -39 2854 -52 2899 -52 
C 2950 -52 2970 -33 2995 50 
L 3725 2183 
z
" transform="scale(0.015625)"/>
       <path id="CMR17-6e" d="M 2656 1933 
C 2656 2259 2592 2790 1837 2790 
C 1331 2790 1069 2400 973 2144 
L 966 2144 
L 966 2790 
L 211 2720 
L 211 2554 
C 589 2554 646 2515 646 2208 
L 646 428 
C 646 184 621 153 211 153 
L 211 -13 
C 365 0 646 0 813 0 
C 979 0 1267 0 1421 -13 
L 1421 153 
C 1011 153 986 178 986 428 
L 986 1658 
C 986 2247 1344 2688 1792 2688 
C 2266 2688 2317 2266 2317 1958 
L 2317 428 
C 2317 184 2291 153 1882 153 
L 1882 -13 
C 2035 0 2317 0 2483 0 
C 2650 0 2938 0 3091 -13 
L 3091 153 
C 2682 153 2656 178 2656 428 
L 2656 1933 
z
" transform="scale(0.015625)"/>
       <path id="CMR17-6c" d="M 979 4396 
L 218 4326 
L 218 4160 
C 595 4160 653 4122 653 3817 
L 653 426 
C 653 184 627 153 218 153 
L 218 -13 
C 371 0 653 0 813 0 
C 979 0 1261 0 1414 -13 
L 1414 153 
C 1005 153 979 178 979 426 
L 979 4396 
z
" transform="scale(0.015625)"/>
       <path id="CMR17-64" d="M 1869 4326 
L 1869 4160 
C 2246 4160 2304 4122 2304 3820 
L 2304 2345 
C 2278 2377 2016 2790 1498 2790 
C 845 2790 211 2208 211 1364 
C 211 525 806 -64 1434 -64 
C 1978 -64 2259 337 2291 380 
L 2291 -63 
L 3066 -63 
L 3066 128 
C 2688 128 2630 166 2630 473 
L 2630 4396 
L 1869 4326 
z
M 2291 755 
C 2291 563 2176 390 2029 262 
C 1811 70 1594 38 1472 38 
C 1286 38 621 134 621 1356 
C 621 2612 1363 2688 1530 2688 
C 1824 2688 2061 2522 2208 2291 
C 2291 2157 2291 2138 2291 2023 
L 2291 755 
z
" transform="scale(0.015625)"/>
       <path id="CMR17-5b" d="M 1504 -1600 
L 1504 -1377 
L 902 -1377 
L 902 4544 
L 1504 4544 
L 1504 4767 
L 678 4767 
L 678 -1600 
L 1504 -1600 
z
" transform="scale(0.015625)"/>
       <path id="CMR17-4d" d="M 1338 4224 
C 1299 4320 1293 4320 1158 4320 
L 339 4320 
L 339 4160 
C 781 4160 851 4160 851 3875 
L 851 610 
C 851 451 851 153 339 153 
L 339 -13 
C 486 0 755 0 915 0 
C 1075 0 1344 0 1491 -13 
L 1491 153 
C 979 153 979 451 979 610 
L 979 4135 
L 986 4135 
L 2490 89 
C 2515 25 2528 -13 2579 -13 
C 2630 -13 2643 25 2669 89 
L 4186 4166 
L 4192 4166 
L 4192 438 
C 4192 153 4122 153 3680 153 
L 3680 -13 
C 3853 0 4198 0 4384 0 
C 4570 0 4922 0 5094 -13 
L 5094 153 
C 4653 153 4582 153 4582 438 
L 4582 3875 
C 4582 4160 4653 4160 5094 4160 
L 5094 4320 
L 4282 4320 
C 4147 4320 4141 4314 4102 4218 
L 2720 502 
L 1338 4224 
z
" transform="scale(0.015625)"/>
       <path id="CMR17-62" d="M 960 4396 
L 198 4326 
L 198 4160 
C 576 4160 634 4122 634 3817 
L 634 -13 
L 749 -13 
L 934 441 
C 1120 141 1395 -64 1766 -64 
C 2406 -64 3053 500 3053 1370 
C 3053 2188 2477 2790 1830 2790 
C 1434 2790 1152 2579 960 2330 
L 960 4396 
z
M 973 2004 
C 973 2118 973 2138 1062 2272 
C 1312 2657 1670 2688 1792 2688 
C 1984 2688 2643 2585 2643 1376 
C 2643 108 1888 38 1734 38 
C 1536 38 1248 114 1043 486 
C 973 608 973 621 973 735 
L 973 2004 
z
" transform="scale(0.015625)"/>
       <path id="CMR17-70" d="M 1408 -1063 
C 998 -1063 973 -1037 973 -789 
L 973 402 
C 1158 134 1427 -38 1766 -38 
C 2406 -38 3053 523 3053 1388 
C 3053 2191 2496 2802 1837 2802 
C 1453 2802 1139 2592 960 2338 
L 960 2802 
L 198 2732 
L 198 2567 
C 576 2567 634 2528 634 2223 
L 634 -789 
C 634 -1031 608 -1063 198 -1063 
L 198 -1228 
C 352 -1216 634 -1216 800 -1216 
C 966 -1216 1254 -1216 1408 -1228 
L 1408 -1063 
z
M 973 2012 
C 973 2102 973 2235 1222 2471 
C 1254 2497 1472 2688 1792 2688 
C 2259 2688 2643 2108 2643 1382 
C 2643 656 2234 64 1728 64 
C 1498 64 1248 172 1056 472 
C 973 612 973 650 973 752 
L 973 2012 
z
" transform="scale(0.015625)"/>
       <path id="CMR17-73" d="M 1978 2697 
C 1978 2813 1971 2819 1933 2819 
C 1907 2819 1901 2813 1824 2717 
C 1805 2691 1747 2626 1728 2601 
C 1523 2819 1235 2819 1126 2819 
C 416 2819 160 2447 160 2076 
C 160 1498 813 1365 998 1325 
C 1402 1243 1542 1217 1677 1101 
C 1760 1025 1901 884 1901 654 
C 1901 384 1747 38 1158 38 
C 602 38 403 460 288 1021 
C 269 1110 269 1117 218 1117 
C 166 1117 160 1110 160 983 
L 160 63 
C 160 -51 166 -58 205 -58 
C 237 -58 243 -51 275 0 
C 314 57 410 211 448 276 
C 576 103 800 -64 1158 -64 
C 1792 -64 2131 283 2131 784 
C 2131 1112 1958 1285 1875 1362 
C 1683 1561 1459 1606 1190 1657 
C 838 1735 390 1825 390 2217 
C 390 2383 480 2737 1126 2737 
C 1811 2737 1850 2094 1862 1888 
C 1869 1856 1901 1849 1920 1849 
C 1978 1849 1978 1869 1978 1978 
L 1978 2697 
z
" transform="scale(0.015625)"/>
       <path id="CMR17-5d" d="M 915 4767 
L 90 4767 
L 90 4544 
L 691 4544 
L 691 -1377 
L 90 -1377 
L 90 -1600 
L 915 -1600 
L 915 4767 
z
" transform="scale(0.015625)"/>
      </defs>
      <use xlink:href="#CMR17-28" transform="scale(0.996264)"/>
      <use xlink:href="#CMR17-61" transform="translate(35.280768 0) scale(0.996264)"/>
      <use xlink:href="#CMR17-29" transform="translate(80.971245 0) scale(0.996264)"/>
      <use xlink:href="#CMR17-44" transform="translate(146.327979 0) scale(0.996264)"/>
      <use xlink:href="#CMR17-6f" transform="translate(216.721535 0) scale(0.996264)"/>
      <use xlink:href="#CMR17-77" transform="translate(259.809558 0) scale(0.996264)"/>
      <use xlink:href="#CMR17-6e" transform="translate(326.319439 0) scale(0.996264)"/>
      <use xlink:href="#CMR17-6c" transform="translate(377.214808 0) scale(0.996264)"/>
      <use xlink:href="#CMR17-6f" transform="translate(402.085867 0) scale(0.996264)"/>
      <use xlink:href="#CMR17-61" transform="translate(447.776344 0) scale(0.996264)"/>
      <use xlink:href="#CMR17-64" transform="translate(493.466821 0) scale(0.996264)"/>
      <use xlink:href="#CMR17-5b" transform="translate(574.438157 0) scale(0.996264)"/>
      <use xlink:href="#CMR17-4d" transform="translate(599.309216 0) scale(0.996264)"/>
      <use xlink:href="#CMR17-62" transform="translate(683.996156 0) scale(0.996264)"/>
      <use xlink:href="#CMR17-70" transform="translate(734.891526 0) scale(0.996264)"/>
      <use xlink:href="#CMR17-73" transform="translate(785.786896 0) scale(0.996264)"/>
      <use xlink:href="#CMR17-5d" transform="translate(821.588234 0) scale(0.996264)"/>
     </g>
    </g>
   </g>
   <g id="matplotlib.axis_2">
    <g id="ytick_1">
     <g id="line2d_4">
      <path d="M 43.876826 99.079698 
L 178.093281 99.079698 
" clip-path="url(#p974284d2b5)" style="fill: none; stroke: #808080; stroke-opacity: 0.7; stroke-width: 0.5; stroke-linecap: square"/>
     </g>
     <g id="line2d_5">
      <defs>
       <path id="m4da0f2bb0f" d="M 0 0 
L -3.5 0 
" style="stroke: #000000; stroke-width: 0.8"/>
      </defs>
      <g>
       <use xlink:href="#m4da0f2bb0f" x="43.876826" y="99.079698" style="stroke: #000000; stroke-width: 0.8"/>
      </g>
     </g>
     <g id="text_5">
      <!-- 0.00 -->
      <g transform="translate(19.165412 102.538947) scale(0.1 -0.1)">
       <defs>
        <path id="CMR17-2e" d="M 1062 261 
C 1062 420 934 522 800 522 
C 672 522 538 420 538 261 
C 538 102 666 0 800 0 
C 928 0 1062 102 1062 261 
z
" transform="scale(0.015625)"/>
       </defs>
       <use xlink:href="#CMR17-30" transform="scale(0.996264)"/>
       <use xlink:href="#CMR17-2e" transform="translate(45.690477 0) scale(0.996264)"/>
       <use xlink:href="#CMR17-30" transform="translate(70.561536 0) scale(0.996264)"/>
       <use xlink:href="#CMR17-30" transform="translate(116.252013 0) scale(0.996264)"/>
      </g>
     </g>
    </g>
    <g id="ytick_2">
     <g id="line2d_6">
      <path d="M 43.876826 79.67477 
L 178.093281 79.67477 
" clip-path="url(#p974284d2b5)" style="fill: none; stroke: #808080; stroke-opacity: 0.7; stroke-width: 0.5; stroke-linecap: square"/>
     </g>
     <g id="line2d_7">
      <g>
       <use xlink:href="#m4da0f2bb0f" x="43.876826" y="79.67477" style="stroke: #000000; stroke-width: 0.8"/>
      </g>
     </g>
     <g id="text_6">
      <!-- 0.25 -->
      <g transform="translate(19.165412 83.134019) scale(0.1 -0.1)">
       <defs>
        <path id="CMR17-35" d="M 730 3692 
C 794 3666 1056 3584 1325 3584 
C 1920 3584 2246 3911 2432 4100 
C 2432 4157 2432 4192 2394 4192 
C 2387 4192 2374 4192 2323 4163 
C 2099 4058 1837 3973 1517 3973 
C 1325 3973 1037 3999 723 4139 
C 653 4171 640 4171 634 4171 
C 602 4171 595 4164 595 4037 
L 595 2203 
C 595 2089 595 2057 659 2057 
C 691 2057 704 2070 736 2114 
C 941 2401 1222 2522 1542 2522 
C 1766 2522 2246 2382 2246 1289 
C 2246 1085 2246 715 2054 421 
C 1894 159 1645 25 1370 25 
C 947 25 518 320 403 814 
C 429 807 480 795 506 795 
C 589 795 749 840 749 1038 
C 749 1210 627 1280 506 1280 
C 358 1280 262 1190 262 1011 
C 262 454 704 -128 1382 -128 
C 2042 -128 2669 440 2669 1264 
C 2669 2030 2170 2624 1549 2624 
C 1222 2624 947 2503 730 2274 
L 730 3692 
z
" transform="scale(0.015625)"/>
       </defs>
       <use xlink:href="#CMR17-30" transform="scale(0.996264)"/>
       <use xlink:href="#CMR17-2e" transform="translate(45.690477 0) scale(0.996264)"/>
       <use xlink:href="#CMR17-32" transform="translate(70.561536 0) scale(0.996264)"/>
       <use xlink:href="#CMR17-35" transform="translate(116.252013 0) scale(0.996264)"/>
      </g>
     </g>
    </g>
    <g id="ytick_3">
     <g id="line2d_8">
      <path d="M 43.876826 60.269842 
L 178.093281 60.269842 
" clip-path="url(#p974284d2b5)" style="fill: none; stroke: #808080; stroke-opacity: 0.7; stroke-width: 0.5; stroke-linecap: square"/>
     </g>
     <g id="line2d_9">
      <g>
       <use xlink:href="#m4da0f2bb0f" x="43.876826" y="60.269842" style="stroke: #000000; stroke-width: 0.8"/>
      </g>
     </g>
     <g id="text_7">
      <!-- 0.50 -->
      <g transform="translate(19.165412 63.729091) scale(0.1 -0.1)">
       <use xlink:href="#CMR17-30" transform="scale(0.996264)"/>
       <use xlink:href="#CMR17-2e" transform="translate(45.690477 0) scale(0.996264)"/>
       <use xlink:href="#CMR17-35" transform="translate(70.561536 0) scale(0.996264)"/>
       <use xlink:href="#CMR17-30" transform="translate(116.252013 0) scale(0.996264)"/>
      </g>
     </g>
    </g>
    <g id="ytick_4">
     <g id="line2d_10">
      <path d="M 43.876826 40.864914 
L 178.093281 40.864914 
" clip-path="url(#p974284d2b5)" style="fill: none; stroke: #808080; stroke-opacity: 0.7; stroke-width: 0.5; stroke-linecap: square"/>
     </g>
     <g id="line2d_11">
      <g>
       <use xlink:href="#m4da0f2bb0f" x="43.876826" y="40.864914" style="stroke: #000000; stroke-width: 0.8"/>
      </g>
     </g>
     <g id="text_8">
      <!-- 0.75 -->
      <g transform="translate(19.165412 44.324163) scale(0.1 -0.1)">
       <defs>
        <path id="CMR17-37" d="M 2886 3941 
L 2886 4081 
L 1382 4081 
C 634 4081 621 4165 595 4288 
L 480 4288 
L 294 3094 
L 410 3094 
C 429 3215 474 3540 550 3661 
C 589 3712 1062 3712 1171 3712 
L 2579 3712 
L 1869 2661 
C 1395 1954 1069 999 1069 165 
C 1069 89 1069 -128 1299 -128 
C 1530 -128 1530 89 1530 171 
L 1530 465 
C 1530 1508 1709 2196 2003 2636 
L 2886 3941 
z
" transform="scale(0.015625)"/>
       </defs>
       <use xlink:href="#CMR17-30" transform="scale(0.996264)"/>
       <use xlink:href="#CMR17-2e" transform="translate(45.690477 0) scale(0.996264)"/>
       <use xlink:href="#CMR17-37" transform="translate(70.561536 0) scale(0.996264)"/>
       <use xlink:href="#CMR17-35" transform="translate(116.252013 0) scale(0.996264)"/>
      </g>
     </g>
    </g>
    <g id="ytick_5">
     <g id="line2d_12">
      <path d="M 43.876826 21.459986 
L 178.093281 21.459986 
" clip-path="url(#p974284d2b5)" style="fill: none; stroke: #808080; stroke-opacity: 0.7; stroke-width: 0.5; stroke-linecap: square"/>
     </g>
     <g id="line2d_13">
      <g>
       <use xlink:href="#m4da0f2bb0f" x="43.876826" y="21.459986" style="stroke: #000000; stroke-width: 0.8"/>
      </g>
     </g>
     <g id="text_9">
      <!-- 1.00 -->
      <g transform="translate(19.165412 24.919235) scale(0.1 -0.1)">
       <use xlink:href="#CMR17-31" transform="scale(0.996264)"/>
       <use xlink:href="#CMR17-2e" transform="translate(45.690477 0) scale(0.996264)"/>
       <use xlink:href="#CMR17-30" transform="translate(70.561536 0) scale(0.996264)"/>
       <use xlink:href="#CMR17-30" transform="translate(116.252013 0) scale(0.996264)"/>
      </g>
     </g>
    </g>
    <g id="text_10">
     <!-- Percentile -->
     <g transform="translate(13.228234 81.661866) rotate(-90) scale(0.1 -0.1)">
      <defs>
       <path id="CMR17-50" d="M 1267 2042 
L 2291 2042 
C 3117 2042 3718 2578 3718 3184 
C 3718 3791 3130 4352 2291 4352 
L 333 4352 
L 333 4186 
C 774 4186 845 4186 845 3899 
L 845 446 
C 845 160 774 160 333 160 
L 333 0 
C 518 0 858 0 1056 0 
C 1254 0 1594 0 1779 0 
L 1779 160 
C 1338 160 1267 160 1267 446 
L 1267 2042 
z
M 1254 2176 
L 1254 3938 
C 1254 4155 1267 4186 1523 4186 
L 2170 4186 
C 2995 4186 3232 3714 3232 3184 
C 3232 2604 2950 2176 2170 2176 
L 1254 2176 
z
" transform="scale(0.015625)"/>
       <path id="CMR17-65" d="M 2438 1472 
C 2464 1498 2464 1511 2464 1576 
C 2464 2238 2118 2816 1389 2816 
C 710 2816 173 2169 173 1383 
C 173 551 781 -64 1459 -64 
C 2176 -64 2458 607 2458 740 
C 2458 784 2419 784 2406 784 
C 2362 784 2355 771 2330 696 
C 2189 265 1837 51 1504 51 
C 1229 51 954 203 781 480 
C 582 803 582 1176 582 1472 
L 2438 1472 
z
M 589 1568 
C 634 2505 1126 2714 1382 2714 
C 1818 2714 2112 2297 2118 1568 
L 589 1568 
z
" transform="scale(0.015625)"/>
       <path id="CMR17-72" d="M 960 1497 
C 960 2112 1222 2688 1702 2688 
C 1747 2688 1792 2682 1837 2662 
C 1837 2662 1696 2617 1696 2452 
C 1696 2298 1818 2234 1914 2234 
C 1990 2234 2131 2279 2131 2458 
C 2131 2663 1926 2790 1709 2790 
C 1222 2790 1011 2317 947 2093 
L 941 2093 
L 941 2790 
L 198 2720 
L 198 2554 
C 576 2554 634 2515 634 2208 
L 634 428 
C 634 184 608 153 198 153 
L 198 -13 
C 352 0 646 0 813 0 
C 998 0 1325 0 1498 -13 
L 1498 153 
C 1037 153 960 153 960 440 
L 960 1497 
z
" transform="scale(0.015625)"/>
       <path id="CMR17-63" d="M 2234 2240 
C 2112 2240 1933 2240 1933 2017 
C 1933 1838 2080 1787 2163 1787 
C 2208 1787 2394 1807 2394 2024 
C 2394 2467 1958 2803 1466 2803 
C 787 2803 211 2178 211 1363 
C 211 516 813 -64 1466 -64 
C 2259 -64 2458 677 2458 748 
C 2458 774 2451 793 2406 793 
C 2362 793 2355 787 2330 703 
C 2163 180 1798 51 1523 51 
C 1114 51 621 427 621 1369 
C 621 2338 1094 2688 1472 2688 
C 1722 2688 2093 2573 2234 2240 
z
" transform="scale(0.015625)"/>
       <path id="CMR17-74" d="M 966 2560 
L 1862 2560 
L 1862 2725 
L 966 2725 
L 966 3904 
L 851 3904 
C 838 3245 614 2668 70 2668 
L 70 2560 
L 627 2560 
L 627 771 
C 627 650 627 -64 1370 -64 
C 1747 -64 1965 306 1965 777 
L 1965 1140 
L 1850 1140 
L 1850 783 
C 1850 344 1677 51 1408 51 
C 1222 51 966 178 966 758 
L 966 2560 
z
" transform="scale(0.015625)"/>
       <path id="CMR17-69" d="M 992 3909 
C 992 4049 877 4170 730 4170 
C 589 4170 467 4056 467 3909 
C 467 3769 582 3648 730 3648 
C 870 3648 992 3763 992 3909 
z
M 243 2706 
L 243 2541 
C 602 2541 653 2502 653 2197 
L 653 427 
C 653 184 627 153 218 153 
L 218 -13 
C 371 0 646 0 806 0 
C 960 0 1222 0 1370 -13 
L 1370 153 
C 992 153 979 191 979 420 
L 979 2776 
L 243 2706 
z
" transform="scale(0.015625)"/>
      </defs>
      <use xlink:href="#CMR17-50" transform="scale(0.996264)"/>
      <use xlink:href="#CMR17-65" transform="translate(59.983847 0) scale(0.996264)"/>
      <use xlink:href="#CMR17-72" transform="translate(100.469507 0) scale(0.996264)"/>
      <use xlink:href="#CMR17-63" transform="translate(135.750275 0) scale(0.996264)"/>
      <use xlink:href="#CMR17-65" transform="translate(176.235935 0) scale(0.996264)"/>
      <use xlink:href="#CMR17-6e" transform="translate(216.721596 0) scale(0.996264)"/>
      <use xlink:href="#CMR17-74" transform="translate(265.014512 0) scale(0.996264)"/>
      <use xlink:href="#CMR17-69" transform="translate(300.295279 0) scale(0.996264)"/>
      <use xlink:href="#CMR17-6c" transform="translate(325.166338 0) scale(0.996264)"/>
      <use xlink:href="#CMR17-65" transform="translate(350.037396 0) scale(0.996264)"/>
     </g>
    </g>
   </g>
   <g id="line2d_14">
    <path d="M 46.299938 99.078018 
L 46.561297 98.705242 
L 46.710006 98.414746 
L 46.919194 98.015103 
L 47.046212 97.785056 
L 47.239201 97.477768 
L 47.355082 97.294738 
L 47.498298 96.968979 
L 47.572071 96.797703 
L 47.730413 96.535752 
L 47.82644 96.389665 
L 48.45586 95.360332 
L 48.623997 95.120211 
L 49.289978 94.095916 
L 49.959563 92.9121 
L 50.052772 92.752579 
L 50.226566 92.46544 
L 50.354071 92.22196 
L 50.574569 91.788734 
L 50.705038 91.521746 
L 50.842845 91.237966 
L 50.987188 90.942432 
L 51.084193 90.751006 
L 51.25864 90.428605 
L 51.453326 90.055829 
L 51.548411 89.906383 
L 52.262539 88.645325 
L 52.358844 88.487482 
L 52.506125 88.218815 
L 52.909116 87.537071 
L 53.025206 87.3574 
L 53.133866 87.179408 
L 54.167739 85.456578 
L 54.700135 84.615313 
L 54.854821 84.39702 
L 54.970487 84.225745 
L 55.311265 83.664901 
L 55.442835 83.451647 
L 55.570904 83.273654 
L 55.735376 83.025137 
L 56.176479 82.340035 
L 56.38385 82.041142 
L 56.613526 81.688516 
L 56.730404 81.513882 
L 57.665233 80.143678 
L 57.867891 79.861577 
L 58.202452 79.45018 
L 58.342465 79.294017 
L 60.111613 76.986835 
L 60.217936 76.844106 
L 60.354288 76.696339 
L 60.499603 76.530101 
L 60.75616 76.239604 
L 60.889199 76.088479 
L 61.093067 75.82149 
L 62.877556 73.539496 
L 63.028029 73.381654 
L 63.335084 72.995444 
L 63.581109 72.676402 
L 64.384543 71.613486 
L 65.528167 70.20634 
L 65.637921 70.056894 
L 65.881838 69.763039 
L 66.024959 69.568255 
L 66.551716 68.906661 
L 66.729617 68.696765 
L 66.883472 68.537243 
L 67.019402 68.364289 
L 67.134806 68.231634 
L 67.729658 67.608662 
L 67.898307 67.430669 
L 69.088348 66.043673 
L 69.22303 65.892548 
L 69.700446 65.390476 
L 69.846202 65.251104 
L 70.002657 65.071433 
L 70.150505 64.947174 
L 70.30042 64.801086 
L 71.314758 63.702908 
L 71.472521 63.553462 
L 71.676903 63.33517 
L 71.844826 63.184044 
L 73.594619 61.629131 
L 73.758722 61.481364 
L 74.149935 61.106909 
L 74.318968 60.965858 
L 74.589281 60.712303 
L 75.363847 60.023843 
L 75.620948 59.778684 
L 75.920821 59.520091 
L 76.396823 59.127165 
L 76.65767 58.908873 
L 76.811305 58.764464 
L 77.548233 58.163321 
L 77.704562 58.039062 
L 77.893923 57.884578 
L 78.288559 57.553781 
L 78.534848 57.382506 
L 78.933124 57.060105 
L 79.084539 56.934167 
L 79.349136 56.722591 
L 79.470521 56.616804 
L 79.719838 56.391795 
L 79.974012 56.195331 
L 80.089426 56.101298 
L 80.303873 55.924985 
L 80.505563 55.748672 
L 80.702254 55.574038 
L 84.245198 52.747992 
L 84.403243 52.593508 
L 85.04386 52.074644 
L 85.465088 51.716981 
L 85.578129 51.619589 
L 86.677712 50.701082 
L 86.822978 50.585219 
L 87.232778 50.246026 
L 87.345755 50.120088 
L 87.801786 49.708691 
L 87.998622 49.559245 
L 88.275723 49.315765 
L 90.695412 46.902795 
L 90.864313 46.768462 
L 91.119564 46.613978 
L 91.256641 46.54849 
L 95.455772 44.58218 
L 95.813459 44.44113 
L 95.942799 44.362208 
L 97.193772 43.829911 
L 97.624633 43.663673 
L 99.171515 42.928196 
L 99.613333 42.719979 
L 99.738347 42.652812 
L 101.014085 42.142343 
L 101.184088 42.070139 
L 102.230516 41.620121 
L 102.451573 41.549596 
L 102.90582 41.368245 
L 103.07658 41.304437 
L 103.823605 40.987073 
L 104.022564 40.874569 
L 104.415397 40.731839 
L 105.242793 40.401042 
L 105.850615 40.112225 
L 115.843296 36.083892 
L 116.220647 35.927729 
L 116.555663 35.761491 
L 116.881685 35.607007 
L 117.107272 35.477711 
L 119.744397 34.478604 
L 120.096606 34.32412 
L 120.307952 34.240161 
L 134.225575 29.274851 
L 134.687677 29.118688 
L 135.007383 29.011221 
L 136.417899 28.666991 
L 136.520697 28.643482 
L 137.190474 28.467169 
L 137.473865 28.383211 
L 138.396786 28.144768 
L 138.51887 28.12126 
L 139.998305 27.746804 
L 149.406278 25.629369 
L 150.264928 25.481602 
L 150.856649 25.359022 
L 152.099536 25.108826 
L 152.210834 25.083638 
L 153.383145 24.851912 
L 153.641915 24.804896 
L 154.507347 24.636978 
L 155.183724 24.519436 
L 157.141651 24.185281 
L 158.678471 23.935085 
L 160.250183 23.723509 
L 161.716576 23.550554 
L 162.304294 23.453162 
L 163.537772 23.307074 
L 165.550033 23.110611 
L 165.975415 23.068632 
L 178.161694 22.193784 
L 178.161694 22.193784 
" clip-path="url(#p974284d2b5)" style="fill: none; stroke: #1f77b4; stroke-width: 1.5; stroke-linecap: square"/>
   </g>
   <g id="line2d_15">
    <path d="M 46.310891 99.07677 
L 46.397258 98.942121 
L 46.59031 98.055189 
L 46.721166 97.408285 
L 46.786722 97.059952 
L 46.898947 96.497935 
L 47.135563 95.432446 
L 47.314209 94.765052 
L 47.482699 94.159128 
L 47.604365 93.717126 
L 47.846272 92.900446 
L 47.956316 92.528696 
L 48.028066 92.282814 
L 48.252134 91.545167 
L 48.444768 90.915826 
L 48.850566 89.715687 
L 49.016083 89.223923 
L 49.152813 88.846319 
L 49.269114 88.480423 
L 49.601983 87.634471 
L 49.87339 86.84999 
L 49.947931 86.612889 
L 51.861394 81.996746 
L 51.943079 81.788917 
L 52.312812 80.890276 
L 52.446158 80.547797 
L 54.315303 76.836148 
L 54.446951 76.593194 
L 54.658479 76.118992 
L 54.762313 75.919945 
L 54.946007 75.527704 
L 55.023709 75.381346 
L 55.134386 75.135464 
L 55.328454 74.740296 
L 55.644743 74.181207 
L 55.748567 74.008504 
L 57.139654 71.526266 
L 57.342236 71.254039 
L 57.53501 70.911561 
L 60.020675 66.921831 
L 60.1032 66.781327 
L 60.289727 66.491537 
L 60.405158 66.33347 
L 61.375192 64.94892 
L 61.527486 64.741091 
L 61.61349 64.591805 
L 61.92012 64.155657 
L 62.036821 63.988808 
L 62.274302 63.567296 
L 62.369225 63.432647 
L 62.494893 63.230672 
L 63.08164 62.460827 
L 63.34051 62.071513 
L 63.479072 61.895883 
L 68.405867 55.558565 
L 68.590045 55.353663 
L 68.734791 55.157543 
L 68.939037 54.932151 
L 69.080641 54.774084 
L 69.245839 54.560401 
L 69.374571 54.428678 
L 69.543403 54.261829 
L 69.730764 54.027656 
L 69.929268 53.8169 
L 70.05721 53.664687 
L 70.213538 53.515402 
L 70.524721 53.19634 
L 70.871431 52.833371 
L 71.006742 52.698722 
L 71.176383 52.511383 
L 71.357517 52.329899 
L 71.511855 52.18354 
L 71.822035 51.882042 
L 72.416654 51.30539 
L 72.541947 51.173667 
L 72.664535 51.03609 
L 72.866749 50.831189 
L 73.246121 50.477001 
L 73.386846 50.345279 
L 73.591869 50.13745 
L 73.806761 49.920839 
L 74.05463 49.65154 
L 74.171307 49.499327 
L 74.471868 49.191975 
L 74.581799 49.060252 
L 77.575196 46.528252 
L 77.812889 46.355549 
L 78.573724 45.720353 
L 78.784077 45.568141 
L 78.912905 45.459835 
L 79.819944 44.701699 
L 80.157879 44.470453 
L 80.363285 44.312386 
L 80.649071 44.072358 
L 81.034759 43.85282 
L 81.221908 43.709389 
L 81.481185 43.519123 
L 81.591248 43.425454 
L 81.803139 43.293731 
L 82.303158 42.936617 
L 82.540106 42.781477 
L 82.791499 42.632191 
L 83.102883 42.418508 
L 83.241106 42.304348 
L 83.667451 42.055539 
L 84.039102 41.797948 
L 84.564111 41.402781 
L 84.881582 41.221296 
L 85.016649 41.156899 
L 85.448194 40.887599 
L 85.696922 40.706115 
L 86.316627 40.290457 
L 86.461804 40.190933 
L 87.698494 39.371326 
L 88.014192 39.175206 
L 88.123582 39.11959 
L 88.469328 38.902979 
L 88.587852 38.818091 
L 88.808232 38.65417 
L 91.289505 37.117407 
L 91.58786 36.971048 
L 91.942852 36.830544 
L 92.53919 36.561245 
L 92.800614 36.438304 
L 95.321343 35.314271 
L 95.56052 35.226456 
L 96.022581 35.050826 
L 96.162899 34.983501 
L 96.687585 34.755182 
L 96.869827 34.679076 
L 97.656685 34.403922 
L 97.774721 34.35416 
L 98.214348 34.15804 
L 108.984032 30.332232 
L 109.7203 30.109767 
L 112.516004 29.296014 
L 113.03804 29.126238 
L 118.460552 27.914391 
L 119.333337 27.747542 
L 119.535847 27.700708 
L 121.070211 27.352375 
L 121.189091 27.323103 
L 122.796293 26.965988 
L 122.905421 26.945498 
L 123.918977 26.766941 
L 124.065501 26.740597 
L 136.023236 24.755977 
L 137.543382 24.542293 
L 146.371613 23.435824 
L 147.736921 23.298247 
L 149.911367 23.087491 
L 152.702078 22.870881 
L 155.883312 22.610363 
L 175.133026 21.743921 
L 178.269296 21.673669 
L 178.269296 21.673669 
" clip-path="url(#p974284d2b5)" style="fill: none; stroke-dasharray: 1.5,2.475; stroke-dashoffset: 0; stroke: #ff7f0e; stroke-width: 1.5"/>
   </g>
   <g id="line2d_16">
    <path d="M 46.231501 99.07897 
L 46.460928 98.251419 
L 46.593167 96.949733 
L 46.63606 96.472691 
L 47.114056 91.576464 
L 47.247833 90.276233 
L 47.28842 89.949721 
L 47.957131 85.268744 
L 47.997571 85.061492 
L 48.124114 84.331385 
L 48.222292 83.844162 
L 48.338171 83.304581 
L 48.382263 83.084967 
L 48.601588 81.815278 
L 48.770998 81.127349 
L 48.983603 80.263437 
L 49.096247 79.849661 
L 49.63053 78.033846 
L 49.80664 77.473903 
L 50.062593 76.674712 
L 50.140841 76.443463 
L 50.322311 75.908972 
L 50.449624 75.526466 
L 50.725271 74.68437 
L 50.857317 74.255323 
L 51.290951 73.149254 
L 51.403676 72.871464 
L 51.563041 72.523863 
L 53.857427 67.485105 
L 53.92509 67.357118 
L 54.043494 67.114961 
L 54.211194 66.766633 
L 54.341797 66.532475 
L 54.477082 66.262684 
L 54.543118 66.126698 
L 54.948318 65.356595 
L 55.031713 65.190794 
L 55.44431 64.401783 
L 55.529491 64.25998 
L 58.545213 59.27867 
L 58.816561 58.861258 
L 58.944455 58.638008 
L 59.072308 58.432938 
L 59.339016 58.031525 
L 59.579508 57.691196 
L 59.861534 57.228698 
L 59.943288 57.096347 
L 60.152144 56.788015 
L 60.285566 56.570583 
L 60.47505 56.298611 
L 60.633366 56.068089 
L 60.880234 55.687037 
L 61.328676 55.033285 
L 61.483404 54.828215 
L 61.744637 54.489341 
L 61.955487 54.208642 
L 62.06072 54.061748 
L 62.197667 53.85886 
L 62.509431 53.428358 
L 62.785601 53.03858 
L 62.9148 52.864779 
L 65.781983 49.277509 
L 65.951794 49.093528 
L 66.06728 48.951724 
L 66.250391 48.734292 
L 66.655871 48.277611 
L 66.8153 48.104538 
L 66.940294 47.959826 
L 67.080079 47.788207 
L 67.325851 47.497327 
L 67.653594 47.133728 
L 67.800595 46.975199 
L 67.989365 46.765766 
L 68.184285 46.568695 
L 72.926081 42.091334 
L 73.109839 41.94953 
L 73.39453 41.733552 
L 74.067117 41.193244 
L 74.17776 41.11107 
L 74.663222 40.757652 
L 75.035132 40.468227 
L 75.364722 40.252976 
L 75.671784 40.034817 
L 76.085564 39.749755 
L 76.206149 39.673399 
L 77.759517 38.688045 
L 78.052705 38.512063 
L 78.372203 38.322991 
L 78.606923 38.176097 
L 78.731157 38.090288 
L 79.060178 37.923759 
L 79.223658 37.824133 
L 80.476562 37.092571 
L 80.790414 36.919498 
L 81.101816 36.754424 
L 81.975635 36.294108 
L 82.373209 36.099946 
L 82.749041 35.89633 
L 83.214491 35.658536 
L 83.419171 35.555274 
L 83.828314 35.351658 
L 87.343273 33.678375 
L 87.743057 33.490757 
L 88.092725 33.338773 
L 89.115693 32.925724 
L 90.117683 32.506131 
L 91.271898 32.151258 
L 91.828319 32.001455 
L 92.433321 31.837835 
L 92.636092 31.782568 
L 93.828015 31.469146 
L 94.334389 31.341159 
L 94.839139 31.202264 
L 95.533614 31.025554 
L 96.445094 30.780489 
L 98.050572 30.381257 
L 104.835391 28.712336 
L 104.951616 28.681794 
L 106.758318 28.305832 
L 107.134663 28.217114 
L 108.222668 27.982956 
L 108.466644 27.934961 
L 109.283174 27.777886 
L 125.146446 25.071253 
L 127.392924 24.745468 
L 127.562047 24.725107 
L 130.516871 24.336783 
L 131.778066 24.148438 
L 136.530476 23.599404 
L 138.207674 23.418331 
L 138.400842 23.39797 
L 139.700216 23.246712 
L 139.921604 23.227078 
L 141.622568 23.066367 
L 142.085423 23.020554 
L 158.996446 21.983569 
L 178.129419 21.546522 
L 178.129419 21.546522 
" clip-path="url(#p974284d2b5)" style="fill: none; stroke-dasharray: 5.55,2.4; stroke-dashoffset: 0; stroke: #2ca02c; stroke-width: 1.5"/>
   </g>
   <g id="line2d_17">
    <path d="M 46.259479 99.079445 
L 46.361403 98.928413 
L 46.598136 96.433235 
L 46.684871 95.318082 
L 47.090108 90.848113 
L 47.198208 89.692736 
L 47.346986 88.417698 
L 47.541681 86.724984 
L 47.588183 86.255952 
L 47.704576 85.36975 
L 47.902555 84.006673 
L 47.943618 83.718272 
L 48.083788 82.726323 
L 48.115966 82.51584 
L 48.368506 80.930644 
L 48.417611 80.598223 
L 48.53994 79.716069 
L 48.837558 78.13315 
L 49.020508 77.234552 
L 49.287235 76.07285 
L 49.342983 75.828468 
L 49.460496 75.311116 
L 50.100091 72.795193 
L 50.152984 72.610262 
L 50.292827 72.084562 
L 50.874959 69.809226 
L 53.827879 62.923768 
L 53.949772 62.686216 
L 54.063294 62.465361 
L 54.308006 62.01505 
L 54.439998 61.775727 
L 54.813293 61.096466 
L 54.908441 60.920136 
L 55.235357 60.324107 
L 55.34172 60.129815 
L 55.468895 59.907442 
L 55.645196 59.608416 
L 55.7816 59.377188 
L 55.907328 59.186186 
L 56.059034 58.940792 
L 56.428057 58.348304 
L 56.656702 57.994885 
L 56.781522 57.805148 
L 56.946969 57.551405 
L 57.369567 56.933872 
L 57.583886 56.617642 
L 57.710776 56.431952 
L 57.880728 56.190858 
L 62.710129 50.142776 
L 62.830452 50.005659 
L 62.947952 49.878914 
L 63.458689 49.301858 
L 63.597367 49.153104 
L 66.915141 45.65358 
L 67.599181 45.009736 
L 67.773045 44.838972 
L 68.267899 44.371205 
L 68.382618 44.258121 
L 68.835955 43.855371 
L 69.087624 43.624144 
L 69.423189 43.337766 
L 69.560142 43.205962 
L 71.487027 41.574976 
L 71.74068 41.377142 
L 72.216725 41.006774 
L 72.428428 40.834998 
L 72.628228 40.688521 
L 72.896418 40.495494 
L 73.200843 40.263508 
L 73.420779 40.108682 
L 73.592216 39.98725 
L 73.833095 39.807378 
L 74.094912 39.610557 
L 74.557773 39.271812 
L 74.826552 39.079544 
L 75.018942 38.941415 
L 75.303264 38.75699 
L 75.661218 38.509825 
L 75.945115 38.307438 
L 76.583928 37.87433 
L 76.827799 37.712926 
L 76.982839 37.607432 
L 78.817129 36.436623 
L 79.067364 36.276231 
L 79.387958 36.063725 
L 80.107879 35.622015 
L 80.259613 35.531953 
L 80.731955 35.231155 
L 80.870185 35.143623 
L 81.183957 34.972606 
L 81.298929 34.90253 
L 81.693273 34.668014 
L 81.826728 34.5863 
L 82.074895 34.443364 
L 82.556413 34.153192 
L 82.684249 34.082356 
L 85.876049 32.252019 
L 86.425865 31.95451 
L 86.545625 31.892276 
L 88.080849 31.062489 
L 88.354822 30.915 
L 88.70746 30.725768 
L 89.106943 30.519333 
L 89.438213 30.345028 
L 90.124963 29.977695 
L 90.55682 29.777838 
L 90.68138 29.721423 
L 91.040455 29.578993 
L 91.532516 29.398109 
L 91.842024 29.28199 
L 92.282231 29.124381 
L 93.449811 28.725932 
L 93.895157 28.577177 
L 94.176953 28.478008 
L 94.698184 28.304967 
L 95.340507 28.098026 
L 95.465502 28.057043 
L 97.617953 27.383853 
L 98.135928 27.218401 
L 102.4806 25.99143 
L 103.201041 25.804222 
L 103.319064 25.773864 
L 103.996141 25.612461 
L 105.090474 25.354923 
L 105.336323 25.293701 
L 105.984266 25.151524 
L 106.105919 25.126985 
L 106.959305 24.944331 
L 108.477789 24.622282 
L 108.70179 24.578263 
L 109.472754 24.44064 
L 110.205088 24.318449 
L 111.077682 24.16337 
L 111.191186 24.145155 
L 112.790582 23.893689 
L 112.902221 23.873956 
L 114.014456 23.701927 
L 114.17493 23.676882 
L 115.644788 23.477784 
L 115.909623 23.442872 
L 116.967395 23.310056 
L 117.087201 23.297659 
L 119.103661 23.069215 
L 119.344374 23.042146 
L 121.028083 22.856962 
L 122.681648 22.707701 
L 124.458023 22.554899 
L 125.887098 22.438274 
L 129.223314 22.195409 
L 131.574433 22.063352 
L 135.606863 21.88854 
L 138.845053 21.773179 
L 173.876686 21.46631 
L 178.156978 21.464286 
L 178.156978 21.464286 
" clip-path="url(#p974284d2b5)" style="fill: none; stroke-dasharray: 9.6,2.4,1.5,2.4; stroke-dashoffset: 0; stroke: #d62728; stroke-width: 1.5"/>
   </g>
   <g id="line2d_18">
    <path d="M 46.27596 99.079613 
L 46.408906 98.963382 
L 46.527258 98.587841 
L 46.746397 97.742704 
L 46.874471 97.269879 
L 47.008785 96.758991 
L 47.184393 96.128983 
L 47.509573 95.056482 
L 47.664954 94.526817 
L 47.855984 93.926291 
L 48.072321 93.228057 
L 48.304227 92.543757 
L 51.361093 84.424427 
L 51.459272 84.192645 
L 51.617056 83.824581 
L 51.711081 83.609792 
L 52.031873 82.888788 
L 52.133563 82.660405 
L 52.358922 82.158437 
L 53.146427 80.455929 
L 53.219587 80.301124 
L 53.857838 79.002534 
L 53.963202 78.792843 
L 54.1023 78.523168 
L 54.173429 78.380343 
L 54.432538 77.869285 
L 54.769856 77.224833 
L 54.89756 76.974784 
L 55.016165 76.754302 
L 55.222349 76.380036 
L 55.305707 76.2288 
L 55.761381 75.401675 
L 56.355533 74.333423 
L 56.507774 74.064087 
L 56.741846 73.657024 
L 56.863919 73.449287 
L 57.043255 73.138234 
L 57.297746 72.707552 
L 58.216041 71.174206 
L 58.383742 70.901472 
L 58.500161 70.713022 
L 58.798356 70.229067 
L 59.130915 69.700166 
L 59.238588 69.534826 
L 60.266512 67.950587 
L 60.412827 67.718551 
L 60.515268 67.566975 
L 60.629688 67.393818 
L 60.834129 67.09517 
L 60.985819 66.8701 
L 61.112619 66.68148 
L 61.292017 66.425059 
L 61.474122 66.158017 
L 61.603945 65.968717 
L 62.675666 64.465279 
L 62.806566 64.278358 
L 63.066567 63.916327 
L 63.178438 63.764241 
L 63.472287 63.360577 
L 63.611262 63.172637 
L 63.952899 62.714681 
L 64.135357 62.475082 
L 64.535777 61.960625 
L 64.65866 61.798344 
L 64.803387 61.609044 
L 65.025119 61.327304 
L 65.15933 61.158225 
L 65.392223 60.862041 
L 65.573335 60.634762 
L 65.72345 60.43892 
L 65.912469 60.195073 
L 66.039243 60.039249 
L 66.707737 59.201589 
L 66.860161 59.008381 
L 66.981885 58.860544 
L 67.136712 58.672179 
L 67.294341 58.486192 
L 69.557114 55.841603 
L 69.676993 55.704726 
L 69.883769 55.468016 
L 70.046181 55.295369 
L 71.332662 53.891509 
L 71.629643 53.572214 
L 71.944339 53.235842 
L 72.061043 53.112814 
L 72.579964 52.581279 
L 73.71748 51.424155 
L 73.959809 51.180478 
L 74.107801 51.031281 
L 74.526929 50.611474 
L 74.66509 50.480799 
L 75.962797 49.229449 
L 76.186683 49.019418 
L 76.311585 48.899194 
L 76.769043 48.474544 
L 77.019689 48.246926 
L 77.350385 47.95363 
L 77.467704 47.849464 
L 78.22612 47.180203 
L 79.346357 46.222319 
L 82.345153 43.757003 
L 82.557148 43.585631 
L 82.76497 43.417742 
L 83.047095 43.189529 
L 83.31314 42.970661 
L 83.515462 42.808465 
L 83.650112 42.702175 
L 84.120431 42.335046 
L 87.486025 39.854522 
L 87.864397 39.584591 
L 88.07538 39.435309 
L 88.280074 39.292485 
L 88.575975 39.077951 
L 89.191918 38.640471 
L 89.611718 38.34726 
L 89.798463 38.212762 
L 90.001074 38.061187 
L 90.131851 37.964922 
L 90.396566 37.780805 
L 90.653759 37.608838 
L 91.003904 37.395324 
L 91.127472 37.326078 
L 91.568209 37.068637 
L 91.719861 36.987751 
L 92.123009 36.757329 
L 92.403047 36.600655 
L 92.518377 36.538037 
L 93.648094 35.930544 
L 93.906781 35.794602 
L 94.408038 35.531044 
L 94.532405 35.463752 
L 94.838009 35.305804 
L 95.573263 34.935531 
L 95.831497 34.802732 
L 96.851846 34.292523 
L 97.024302 34.203906 
L 97.441543 34.004241 
L 97.563327 33.944766 
L 98.035477 33.720886 
L 98.498415 33.4976 
L 98.839724 33.330306 
L 98.9821 33.263609 
L 99.449094 33.051964 
L 99.782652 32.892317 
L 100.473942 32.575061 
L 100.798317 32.425439 
L 103.189963 31.390578 
L 103.353786 31.321077 
L 104.311415 30.923616 
L 105.472976 30.458778 
L 105.833199 30.31281 
L 105.990053 30.250531 
L 106.344182 30.113909 
L 106.476236 30.062336 
L 106.935734 29.889349 
L 107.055958 29.845168 
L 107.686831 29.61551 
L 107.857792 29.557055 
L 108.669796 29.275144 
L 108.837397 29.215075 
L 109.373211 29.027729 
L 110.25466 28.72976 
L 110.484843 28.650234 
L 111.834959 28.206212 
L 112.693612 27.941294 
L 113.213786 27.783856 
L 114.681569 27.345612 
L 114.852532 27.293104 
L 122.260704 25.416079 
L 125.318763 24.781568 
L 126.284421 24.603144 
L 129.439668 24.077047 
L 130.271608 23.95096 
L 133.462651 23.505664 
L 134.613374 23.365813 
L 136.203388 23.18348 
L 136.996968 23.098601 
L 138.567948 22.9353 
L 140.072283 22.798084 
L 156.788649 21.865434 
L 178.126514 21.524983 
L 178.126514 21.524983 
" clip-path="url(#p974284d2b5)" style="fill: none; stroke: #9467bd; stroke-width: 1.5; stroke-linecap: square"/>
   </g>
   <g id="line2d_19">
    <path d="M 46.245859 99.079553 
L 46.423924 98.934104 
L 46.526691 98.665906 
L 46.862585 97.70314 
L 46.975611 97.365832 
L 47.121512 96.949438 
L 47.298825 96.470875 
L 47.421696 96.155977 
L 47.558128 95.817368 
L 47.621116 95.65587 
L 51.059991 88.758769 
L 51.346087 88.274278 
L 52.479986 86.428988 
L 52.597484 86.240021 
L 52.904847 85.772445 
L 53.058382 85.539525 
L 53.205787 85.314556 
L 53.312261 85.146119 
L 53.454509 84.934452 
L 53.66858 84.629242 
L 53.965886 84.183353 
L 54.073867 84.021278 
L 54.234056 83.780405 
L 54.462489 83.439628 
L 54.575452 83.269022 
L 55.470785 81.992081 
L 55.634019 81.757136 
L 55.750351 81.593904 
L 56.054293 81.192402 
L 56.209391 80.984784 
L 56.773628 80.213588 
L 56.977676 79.950016 
L 57.099135 79.786784 
L 57.572135 79.164506 
L 57.76196 78.919152 
L 58.339786 78.177306 
L 58.849429 77.511799 
L 60.249723 75.725065 
L 60.405336 75.532193 
L 60.811538 75.033677 
L 60.972156 74.824035 
L 61.151156 74.602825 
L 61.306182 74.417472 
L 61.449572 74.242095 
L 61.689191 73.948017 
L 61.807805 73.804882 
L 62.07133 73.487526 
L 62.26994 73.251425 
L 62.41532 73.068385 
L 62.622383 72.804814 
L 62.744426 72.657196 
L 62.861927 72.51276 
L 63.045101 72.297334 
L 63.17361 72.141041 
L 64.870084 70.091459 
L 65.219614 69.696174 
L 65.341026 69.563737 
L 65.620305 69.243924 
L 66.034694 68.747287 
L 66.174587 68.576826 
L 66.769637 67.867944 
L 67.090808 67.487841 
L 70.170625 63.907866 
L 70.307708 63.746658 
L 70.653849 63.35571 
L 77.389052 56.397451 
L 77.550052 56.255328 
L 77.685039 56.128675 
L 77.982294 55.862067 
L 78.507964 55.388853 
L 78.61936 55.293863 
L 78.789159 55.144366 
L 79.020609 54.944989 
L 79.144305 54.836553 
L 79.345827 54.661754 
L 79.482127 54.54421 
L 79.648361 54.40599 
L 79.819322 54.262132 
L 79.949194 54.154853 
L 80.183029 53.954608 
L 80.939294 53.313101 
L 81.100439 53.170544 
L 81.408758 52.910876 
L 82.006984 52.397034 
L 82.207406 52.230188 
L 82.443377 52.030087 
L 82.808287 51.720105 
L 83.07474 51.499908 
L 83.426488 51.209011 
L 83.647274 51.01932 
L 83.948558 50.765869 
L 84.067696 50.665241 
L 84.385115 50.402392 
L 84.503228 50.299306 
L 84.782121 50.066675 
L 84.924289 49.949564 
L 85.589601 49.395529 
L 85.882688 49.15003 
L 86.628574 48.538885 
L 87.143332 48.130733 
L 87.351656 47.961573 
L 87.484512 47.852992 
L 87.784431 47.606915 
L 87.906322 47.508889 
L 88.126852 47.329753 
L 89.884024 45.904905 
L 90.371942 45.494584 
L 90.570709 45.341472 
L 90.80147 45.180264 
L 91.234387 44.919585 
L 91.351451 44.850764 
L 91.595954 44.711099 
L 91.7125 44.648061 
L 92.476451 44.220679 
L 92.628955 44.136388 
L 93.343421 43.752381 
L 93.455198 43.689777 
L 93.755408 43.531171 
L 93.933818 43.441676 
L 94.526014 43.134441 
L 94.685732 43.044367 
L 95.076277 42.844411 
L 96.073492 42.332593 
L 96.184964 42.273171 
L 96.736405 41.9869 
L 96.894029 41.908537 
L 98.743875 40.959361 
L 99.084894 40.783984 
L 99.201798 40.717766 
L 99.46607 40.580703 
L 99.793094 40.423833 
L 100.731964 39.929365 
L 100.9604 39.814567 
L 101.55873 39.514995 
L 101.90586 39.344245 
L 102.626374 38.972671 
L 102.744566 38.918887 
L 103.255178 38.657918 
L 105.337042 37.629367 
L 105.85074 37.375627 
L 106.047878 37.282228 
L 106.638486 36.997403 
L 111.878969 34.499185 
L 112.246897 34.328868 
L 112.878001 34.056622 
L 113.856055 33.613769 
L 113.999495 33.550443 
L 114.648654 33.263449 
L 115.062227 33.083301 
L 115.276453 32.994094 
L 116.885989 32.343045 
L 117.057193 32.268586 
L 117.656081 32.017738 
L 122.104509 30.290426 
L 122.700041 30.054759 
L 122.816075 30.009939 
L 123.323203 29.834706 
L 124.197027 29.526315 
L 124.310684 29.480627 
L 124.513059 29.407324 
L 126.03153 28.884374 
L 126.166567 28.834927 
L 126.669489 28.665912 
L 128.050741 28.206722 
L 128.900647 27.937223 
L 129.03465 27.900644 
L 129.869381 27.63606 
L 130.050139 27.578661 
L 130.656623 27.39461 
L 130.875617 27.327379 
L 131.351886 27.189304 
L 131.626801 27.114556 
L 132.223522 26.947854 
L 132.377779 26.902889 
L 133.189522 26.675607 
L 133.964853 26.470013 
L 135.014207 26.205285 
L 135.530799 26.076897 
L 137.033094 25.717612 
L 137.211536 25.672214 
L 139.523051 25.151722 
L 140.214434 25.008875 
L 141.03797 24.841017 
L 141.920353 24.666941 
L 142.663129 24.522504 
L 143.55173 24.36708 
L 144.464016 24.211366 
L 144.57543 24.19098 
L 145.693791 24.009675 
L 146.539827 23.877094 
L 147.581836 23.718344 
L 147.711136 23.695211 
L 150.044697 23.371783 
L 150.915618 23.264937 
L 152.000438 23.126862 
L 152.122633 23.112549 
L 152.726756 23.045029 
L 154.398778 22.87211 
L 154.512053 22.859387 
L 168.789911 21.917151 
L 175.44147 21.711846 
L 175.950606 21.700569 
L 178.096485 21.657917 
L 178.096485 21.657917 
" clip-path="url(#p974284d2b5)" style="fill: none; stroke-dasharray: 1.5,2.475; stroke-dashoffset: 0; stroke: #8c564b; stroke-width: 1.5"/>
   </g>
   <g id="line2d_20">
    <path d="M 46.24187 99.079515 
L 46.363571 98.967547 
L 46.492556 98.143707 
L 46.630465 97.07288 
L 46.701744 96.514139 
L 46.81593 95.71262 
L 47.082509 93.864605 
L 47.201318 93.11541 
L 47.356863 92.254065 
L 47.509865 91.418516 
L 47.558156 91.16238 
L 47.89723 89.481769 
L 48.097897 88.523824 
L 49.052886 84.457314 
L 49.112701 84.254601 
L 49.247247 83.793192 
L 49.323635 83.524982 
L 49.438876 83.131449 
L 49.598885 82.587162 
L 49.724649 82.166552 
L 49.926328 81.49127 
L 50.013432 81.211534 
L 50.373446 80.044839 
L 50.525891 79.531288 
L 50.629822 79.136474 
L 50.811506 78.551572 
L 50.996708 78.06894 
L 51.172596 77.626192 
L 51.235032 77.465742 
L 51.363196 77.133681 
L 51.691958 76.3296 
L 51.819053 76.035228 
L 51.951476 75.726219 
L 52.093725 75.395805 
L 52.508144 74.464388 
L 52.670889 74.11513 
L 52.817642 73.800084 
L 52.936562 73.528581 
L 53.096113 73.177676 
L 53.244974 72.874521 
L 53.415209 72.521787 
L 53.546634 72.244795 
L 54.310115 70.730671 
L 54.429521 70.515884 
L 54.624319 70.144488 
L 54.742465 69.9297 
L 57.216028 65.884596 
L 57.355915 65.675663 
L 57.483973 65.487953 
L 57.595689 65.327137 
L 60.373328 61.532313 
L 60.548746 61.297035 
L 60.682678 61.123778 
L 60.800972 60.968267 
L 60.954807 60.770494 
L 61.067528 60.610959 
L 61.314093 60.291339 
L 61.560772 59.975927 
L 61.723845 59.772299 
L 62.146319 59.235696 
L 62.308235 59.035545 
L 62.423126 58.894305 
L 63.253799 57.887328 
L 63.505457 57.596615 
L 63.705238 57.351274 
L 64.12958 56.849798 
L 64.240996 56.718072 
L 64.583367 56.320148 
L 64.817914 56.050474 
L 64.935561 55.922041 
L 65.10611 55.723353 
L 65.41583 55.362752 
L 65.575617 55.174492 
L 68.519068 51.888646 
L 68.655895 51.735696 
L 69.010461 51.358812 
L 69.151231 51.210803 
L 69.410173 50.940214 
L 69.796563 50.533691 
L 69.924892 50.401233 
L 71.052308 49.286862 
L 71.252686 49.093115 
L 71.399896 48.953521 
L 73.142884 47.466657 
L 73.474603 47.203936 
L 73.938468 46.846993 
L 74.091237 46.720389 
L 74.584411 46.330698 
L 74.787618 46.168601 
L 74.928005 46.061939 
L 76.311618 45.103262 
L 76.757391 44.835418 
L 77.000672 44.683384 
L 77.120116 44.606178 
L 77.723555 44.250882 
L 78.194936 43.982855 
L 78.491363 43.809963 
L 78.659266 43.714462 
L 83.857994 40.841724 
L 84.241411 40.645415 
L 84.378253 40.571319 
L 84.555109 40.479659 
L 84.903488 40.304024 
L 86.420082 39.516591 
L 86.540752 39.453655 
L 86.900066 39.263384 
L 87.124157 39.136963 
L 87.652633 38.844969 
L 87.991831 38.653599 
L 88.554603 38.333064 
L 88.833859 38.171882 
L 88.963441 38.096322 
L 89.549951 37.727488 
L 90.404174 37.141305 
L 90.737385 36.941336 
L 90.875966 36.875656 
L 91.498156 36.627754 
L 91.653069 36.567562 
L 92.478197 36.279959 
L 92.876673 36.132499 
L 93.008772 36.090236 
L 93.711788 35.834833 
L 93.825156 35.797876 
L 94.411618 35.601933 
L 94.97209 35.396842 
L 96.575773 34.859873 
L 96.968284 34.726683 
L 97.464343 34.559646 
L 97.590522 34.517384 
L 97.922236 34.408161 
L 111.505054 30.20718 
L 112.111282 30.037216 
L 112.921466 29.808158 
L 113.462182 29.640756 
L 113.841234 29.536289 
L 114.65333 29.321685 
L 114.767189 29.287107 
L 115.487244 29.104702 
L 115.599213 29.077076 
L 116.291063 28.890829 
L 116.643527 28.792217 
L 117.196791 28.650245 
L 117.312893 28.619875 
L 118.028107 28.434909 
L 118.223683 28.383682 
L 122.236715 27.403599 
L 123.204871 27.163564 
L 123.430781 27.103555 
L 124.390333 26.884377 
L 125.257485 26.680384 
L 125.367644 26.651843 
L 126.191924 26.459742 
L 126.549178 26.382535 
L 127.277958 26.21623 
L 128.141136 26.021751 
L 129.137665 25.811537 
L 129.792433 25.670663 
L 130.614393 25.49704 
L 131.444836 25.322136 
L 132.053376 25.194983 
L 132.166792 25.169736 
L 140.56087 23.778008 
L 143.024818 23.461864 
L 143.413134 23.420699 
L 150.921309 22.640219 
L 152.893716 22.476659 
L 154.269977 22.383535 
L 166.405875 21.778325 
L 174.887157 21.591346 
L 178.101092 21.553658 
L 178.101092 21.553658 
" clip-path="url(#p974284d2b5)" style="fill: none; stroke-dasharray: 5.55,2.4; stroke-dashoffset: 0; stroke: #e377c2; stroke-width: 1.5"/>
   </g>
   <g id="patch_3">
    <path d="M 43.876826 102.960683 
L 43.876826 17.579 
" style="fill: none; stroke: #000000; stroke-width: 0.8; stroke-linejoin: miter; stroke-linecap: square"/>
   </g>
   <g id="patch_4">
    <path d="M 178.093281 102.960683 
L 178.093281 17.579 
" style="fill: none; stroke: #000000; stroke-width: 0.8; stroke-linejoin: miter; stroke-linecap: square"/>
   </g>
   <g id="patch_5">
    <path d="M 43.876826 102.960683 
L 178.093281 102.960683 
" style="fill: none; stroke: #000000; stroke-width: 0.8; stroke-linejoin: miter; stroke-linecap: square"/>
   </g>
   <g id="patch_6">
    <path d="M 43.876826 17.579 
L 178.093281 17.579 
" style="fill: none; stroke: #000000; stroke-width: 0.8; stroke-linejoin: miter; stroke-linecap: square"/>
   </g>
  </g>
  <g id="axes_2">
   <g id="patch_7">
    <path d="M 188.893281 102.960683 
L 323.109735 102.960683 
L 323.109735 17.579 
L 188.893281 17.579 
z
" style="fill: #ffffff"/>
   </g>
   <g id="matplotlib.axis_3">
    <g id="xtick_4">
     <g id="line2d_21">
      <g>
       <use xlink:href="#mb0d035204d" x="193.521434" y="102.960683" style="stroke: #000000; stroke-width: 0.8"/>
      </g>
     </g>
     <g id="text_11">
      <!-- 0 -->
      <g transform="translate(191.030767 116.879182) scale(0.1 -0.1)">
       <use xlink:href="#CMR17-30" transform="scale(0.996264)"/>
      </g>
     </g>
    </g>
    <g id="xtick_5">
     <g id="line2d_22">
      <g>
       <use xlink:href="#mb0d035204d" x="239.80297" y="102.960683" style="stroke: #000000; stroke-width: 0.8"/>
      </g>
     </g>
     <g id="text_12">
      <!-- 10 -->
      <g transform="translate(234.821635 116.879182) scale(0.1 -0.1)">
       <use xlink:href="#CMR17-31" transform="scale(0.996264)"/>
       <use xlink:href="#CMR17-30" transform="translate(45.690477 0) scale(0.996264)"/>
      </g>
     </g>
    </g>
    <g id="xtick_6">
     <g id="line2d_23">
      <g>
       <use xlink:href="#mb0d035204d" x="286.084506" y="102.960683" style="stroke: #000000; stroke-width: 0.8"/>
      </g>
     </g>
     <g id="text_13">
      <!-- 20 -->
      <g transform="translate(281.103171 116.879182) scale(0.1 -0.1)">
       <use xlink:href="#CMR17-32" transform="scale(0.996264)"/>
       <use xlink:href="#CMR17-30" transform="translate(45.690477 0) scale(0.996264)"/>
      </g>
     </g>
    </g>
    <g id="text_14">
     <!-- (b) Upload [Mbps] -->
     <g transform="translate(215.5697 130.28834) scale(0.1 -0.1)">
      <defs>
       <path id="CMR17-55" d="M 3456 1433 
C 3456 579 2899 38 2291 38 
C 1965 38 1670 210 1491 477 
C 1286 783 1261 1178 1261 1401 
L 1261 3874 
C 1261 4160 1331 4160 1773 4160 
L 1773 4320 
C 1587 4320 1248 4320 1050 4320 
C 851 4320 512 4320 326 4320 
L 326 4160 
C 768 4160 838 4160 838 3874 
L 838 1433 
C 838 516 1536 -128 2278 -128 
C 3110 -128 3590 719 3590 1344 
L 3590 3766 
C 3590 4122 3917 4160 4102 4160 
L 4102 4326 
C 3955 4320 3686 4320 3526 4320 
C 3366 4320 3091 4320 2944 4326 
L 2944 4160 
C 3456 4160 3456 3861 3456 3702 
L 3456 1433 
z
" transform="scale(0.015625)"/>
      </defs>
      <use xlink:href="#CMR17-28" transform="scale(0.996264)"/>
      <use xlink:href="#CMR17-62" transform="translate(35.280768 0) scale(0.996264)"/>
      <use xlink:href="#CMR17-29" transform="translate(86.176138 0) scale(0.996264)"/>
      <use xlink:href="#CMR17-55" transform="translate(151.532872 0) scale(0.996264)"/>
      <use xlink:href="#CMR17-70" transform="translate(220.605302 0) scale(0.996264)"/>
      <use xlink:href="#CMR17-6c" transform="translate(271.500671 0) scale(0.996264)"/>
      <use xlink:href="#CMR17-6f" transform="translate(296.37173 0) scale(0.996264)"/>
      <use xlink:href="#CMR17-61" transform="translate(342.062207 0) scale(0.996264)"/>
      <use xlink:href="#CMR17-64" transform="translate(387.752684 0) scale(0.996264)"/>
      <use xlink:href="#CMR17-5b" transform="translate(468.72402 0) scale(0.996264)"/>
      <use xlink:href="#CMR17-4d" transform="translate(493.595079 0) scale(0.996264)"/>
      <use xlink:href="#CMR17-62" transform="translate(578.282019 0) scale(0.996264)"/>
      <use xlink:href="#CMR17-70" transform="translate(629.177389 0) scale(0.996264)"/>
      <use xlink:href="#CMR17-73" transform="translate(680.072759 0) scale(0.996264)"/>
      <use xlink:href="#CMR17-5d" transform="translate(715.874096 0) scale(0.996264)"/>
     </g>
    </g>
   </g>
   <g id="matplotlib.axis_4"/>
   <g id="line2d_24">
    <path d="M 193.521434 96.38736 
L 193.527002 96.173442 
L 193.629175 89.155213 
L 193.896115 88.999636 
L 194.004421 88.941295 
L 194.68105 88.591248 
L 194.794538 88.54155 
L 195.166186 88.368687 
L 195.359073 88.286577 
L 195.706961 88.094268 
L 195.848126 88.003515 
L 196.40866 87.774471 
L 197.277943 87.389852 
L 197.396198 87.314224 
L 197.786031 87.106789 
L 197.930175 87.02684 
L 198.482362 86.802118 
L 198.812573 86.629256 
L 199.791623 86.073934 
L 200.032027 85.933483 
L 200.40058 85.734691 
L 200.611661 85.598561 
L 200.87956 85.436502 
L 201.040209 85.334945 
L 201.291677 85.18153 
L 201.585692 84.967612 
L 201.823043 84.814196 
L 202.121631 84.602439 
L 202.48676 84.343145 
L 202.687959 84.198373 
L 203.470424 83.522047 
L 203.717592 83.340541 
L 203.923097 83.184965 
L 204.128084 82.990494 
L 204.619797 82.564819 
L 204.735007 82.454619 
L 204.995421 82.23638 
L 205.617702 81.618396 
L 205.786875 81.43905 
L 205.946664 81.270509 
L 206.15639 81.050109 
L 206.375431 80.786493 
L 206.528386 80.61147 
L 206.658011 80.479662 
L 207.955176 79.105403 
L 208.113253 78.908771 
L 208.233157 78.759677 
L 208.371376 78.593297 
L 208.949018 77.960187 
L 209.226806 77.631748 
L 209.417379 77.44592 
L 209.875812 76.897081 
L 211.685219 74.632578 
L 211.946794 74.301978 
L 212.06515 74.109668 
L 212.178692 73.986504 
L 212.396244 73.70128 
L 212.752086 73.225907 
L 212.892391 73.059527 
L 213.693205 72.072048 
L 213.81782 71.914311 
L 214.316095 71.292005 
L 214.469636 71.119142 
L 214.584137 70.987334 
L 214.700918 70.840401 
L 214.835339 70.658895 
L 215.128865 70.278597 
L 215.765275 69.463981 
L 215.873009 69.321369 
L 217.609456 67.084957 
L 217.743275 66.940184 
L 218.270679 66.253055 
L 218.411507 66.07587 
L 219.604098 64.446639 
L 219.735282 64.293223 
L 220.022184 63.938854 
L 220.201576 63.686042 
L 220.859134 62.828211 
L 220.961571 62.681277 
L 221.115565 62.473842 
L 221.31898 62.184297 
L 221.444083 62.033042 
L 221.877805 61.462595 
L 221.989063 61.324305 
L 222.18069 61.084457 
L 222.45279 60.753857 
L 223.099157 59.893865 
L 223.396803 59.513567 
L 223.572089 59.291006 
L 223.761168 59.059802 
L 223.873126 58.895582 
L 225.003241 57.40248 
L 225.434483 56.832033 
L 225.593724 56.626758 
L 225.877079 56.311284 
L 226.108274 56.043347 
L 226.219841 55.928825 
L 226.365328 55.779731 
L 226.539108 55.550688 
L 226.64754 55.412397 
L 226.939305 55.06235 
L 227.073765 54.850593 
L 227.774054 54.066228 
L 228.073111 53.692413 
L 228.453457 53.238648 
L 228.800149 52.888601 
L 229.146727 52.443479 
L 229.347459 52.210114 
L 229.596279 51.916248 
L 229.734747 51.749867 
L 229.928975 51.512181 
L 230.101191 51.3458 
L 230.305712 51.108114 
L 230.574545 50.796961 
L 230.70064 50.654349 
L 231.086019 50.245961 
L 231.205124 50.148726 
L 231.735111 49.599886 
L 231.9049 49.416219 
L 232.068535 49.230392 
L 232.176172 49.094263 
L 232.349992 48.930043 
L 234.424188 46.818956 
L 234.616302 46.635289 
L 235.08547 46.192329 
L 235.580338 45.682383 
L 235.695812 45.582987 
L 235.867241 45.403642 
L 237.457784 44.014257 
L 237.577677 43.906218 
L 237.829311 43.694461 
L 238.067687 43.499991 
L 240.292872 41.682771 
L 240.469086 41.525033 
L 240.643953 41.393225 
L 240.974827 41.159861 
L 241.562619 40.747151 
L 241.708794 40.658559 
L 242.066288 40.440319 
L 242.221809 40.317155 
L 243.023672 39.80937 
L 243.422388 39.6149 
L 249.056493 36.684875 
L 249.906218 36.317542 
L 250.081082 36.252718 
L 250.415548 36.097142 
L 250.804574 35.941565 
L 251.756005 35.520212 
L 252.121177 35.392726 
L 253.070004 34.956248 
L 253.578133 34.785546 
L 253.715038 34.725044 
L 254.249886 34.556502 
L 257.424073 33.562541 
L 258.277929 33.322694 
L 258.753764 33.190886 
L 259.81824 32.912145 
L 260.04075 32.834357 
L 260.779372 32.639886 
L 261.966179 32.361145 
L 262.398203 32.255267 
L 264.089602 31.892255 
L 264.260092 31.857682 
L 264.951335 31.704266 
L 266.163396 31.395274 
L 267.080603 31.207286 
L 267.968512 31.006333 
L 268.370646 30.926384 
L 285.184448 28.309673 
L 286.032824 28.156258 
L 287.44632 27.972591 
L 289.703162 27.648473 
L 290.351336 27.566363 
L 292.898539 27.211995 
L 294.042114 27.062901 
L 295.836777 26.844661 
L 297.288446 26.680442 
L 297.632968 26.632904 
L 300.096336 26.382253 
L 303.898807 25.993312 
L 305.254256 25.878791 
L 306.822808 25.718892 
L 311.845841 25.340755 
L 312.356799 25.310504 
L 313.828284 25.154928 
L 317.212273 24.891312 
L 319.140385 24.718449 
L 319.727225 24.679555 
L 322.518549 24.463476 
L 323.043017 24.428904 
L 323.140989 24.422422 
L 323.140989 24.422422 
" clip-path="url(#p124c4249e0)" style="fill: none; stroke: #1f77b4; stroke-width: 1.5; stroke-linecap: square"/>
   </g>
   <g id="line2d_25">
    <path d="M 193.521434 94.597711 
L 193.526912 94.301327 
L 193.673 88.449387 
L 193.817778 88.241918 
L 194.142891 87.688667 
L 194.49476 87.155176 
L 194.718486 86.88843 
L 194.84597 86.753411 
L 195.058029 86.476786 
L 195.215369 86.26273 
L 195.626859 85.781929 
L 195.832755 85.462493 
L 196.006733 85.261611 
L 196.226984 84.948761 
L 196.930832 84.158403 
L 199.336644 81.573275 
L 199.494975 81.372392 
L 199.658835 81.214321 
L 200.084959 80.766451 
L 200.239365 80.611673 
L 200.355936 80.479946 
L 200.685816 80.176976 
L 200.858271 80.002439 
L 201.087673 79.771918 
L 201.253117 79.613846 
L 201.368876 79.501879 
L 201.738065 79.109993 
L 201.873271 78.935456 
L 201.984853 78.797143 
L 202.42196 78.345981 
L 202.591824 78.125339 
L 202.699481 78.04301 
L 202.823745 77.898111 
L 202.955938 77.746626 
L 203.114552 77.588555 
L 203.233146 77.460121 
L 203.412947 77.278998 
L 203.534033 77.127513 
L 203.72691 76.896992 
L 204.314084 76.215308 
L 204.430741 76.053943 
L 210.057379 69.82329 
L 210.183249 69.665219 
L 210.323509 69.484095 
L 210.618861 69.154779 
L 211.22966 68.423698 
L 211.372304 68.249161 
L 211.614806 67.949484 
L 211.809344 67.702497 
L 211.961503 67.534546 
L 216.463633 62.285254 
L 216.621733 62.087664 
L 216.735819 61.946059 
L 217.736348 60.823092 
L 217.870222 60.671607 
L 218.052366 60.490483 
L 218.211446 60.29948 
L 218.526819 59.910887 
L 218.689105 59.752816 
L 218.998077 59.403741 
L 221.594824 56.538695 
L 221.718299 56.400382 
L 224.003848 53.887703 
L 224.148408 53.716459 
L 224.29866 53.58144 
L 225.019093 52.873411 
L 225.136301 52.76803 
L 226.245861 51.549562 
L 226.442516 51.365145 
L 226.580234 51.226832 
L 227.885968 49.886517 
L 228.039069 49.735032 
L 228.39812 49.382664 
L 228.625249 49.152143 
L 228.745823 49.007244 
L 228.930359 48.819534 
L 229.040596 48.727326 
L 229.180487 48.565961 
L 229.295257 48.404597 
L 229.639108 48.045643 
L 229.74849 47.946848 
L 230.150174 47.554962 
L 230.399018 47.298096 
L 230.539361 47.163076 
L 231.745596 45.957781 
L 231.856646 45.822762 
L 232.170811 45.496739 
L 232.419404 45.253045 
L 232.588703 45.118026 
L 232.898181 44.821642 
L 233.098625 44.647104 
L 233.29553 44.462688 
L 233.493124 44.281564 
L 233.629742 44.159717 
L 233.873879 43.925903 
L 234.929144 42.898438 
L 235.061025 42.79635 
L 235.471549 42.460448 
L 236.146333 41.838042 
L 236.321879 41.696436 
L 237.366134 40.80399 
L 237.577694 40.609694 
L 237.883336 40.362707 
L 238.053407 40.207929 
L 238.342519 39.947769 
L 239.383825 39.019099 
L 239.689384 38.775405 
L 240.308736 38.2485 
L 240.439969 38.136533 
L 241.127629 37.635973 
L 241.366413 37.448263 
L 241.655778 37.171638 
L 241.882155 37.003687 
L 242.152876 36.720475 
L 242.797907 36.249554 
L 243.138755 35.989395 
L 243.331591 35.867548 
L 243.52767 35.712769 
L 243.82439 35.551405 
L 244.063451 35.393333 
L 246.626623 33.644667 
L 246.89819 33.483302 
L 247.505493 33.117762 
L 247.690877 32.989328 
L 247.926357 32.83455 
L 248.09216 32.755514 
L 248.464056 32.508528 
L 248.783428 32.278007 
L 249.021924 32.142987 
L 249.15807 32.080417 
L 249.650741 31.830137 
L 249.828669 31.757688 
L 251.651156 30.736809 
L 251.777242 30.674239 
L 252.149173 30.509581 
L 252.436258 30.358096 
L 252.570477 30.302112 
L 253.189703 30.061712 
L 253.974252 29.640188 
L 254.102157 29.567738 
L 254.363873 29.459064 
L 254.732796 29.320752 
L 257.876744 27.944212 
L 258.445036 27.776261 
L 258.587192 27.707105 
L 260.893734 26.870643 
L 261.341924 26.738916 
L 261.487722 26.709278 
L 261.808361 26.577552 
L 261.993216 26.524861 
L 263.752693 26.037474 
L 264.118837 25.905748 
L 269.923011 24.595071 
L 271.101735 24.397482 
L 271.245507 24.367843 
L 271.872505 24.236117 
L 275.520674 23.653228 
L 285.653914 22.596125 
L 289.09378 22.365604 
L 300.872481 21.963839 
L 318.667583 21.762956 
L 322.902564 21.723438 
L 323.401802 21.720145 
L 323.401802 21.720145 
" clip-path="url(#p124c4249e0)" style="fill: none; stroke-dasharray: 1.5,2.475; stroke-dashoffset: 0; stroke: #ff7f0e; stroke-width: 1.5"/>
   </g>
   <g id="line2d_26">
    <path d="M 193.521434 91.869863 
L 193.524218 91.736282 
L 193.635269 84.718804 
L 193.986876 83.847853 
L 194.18237 83.406144 
L 194.396782 82.983136 
L 194.520688 82.740018 
L 194.799157 82.167399 
L 194.908911 81.930515 
L 194.997501 81.764874 
L 195.276248 81.231438 
L 195.350742 81.087171 
L 195.972726 79.776291 
L 196.08486 79.550094 
L 196.199177 79.345269 
L 196.425254 78.919589 
L 196.649011 78.500144 
L 196.735411 78.318473 
L 196.852023 78.074464 
L 196.97101 77.864296 
L 197.214873 77.403885 
L 197.299724 77.255165 
L 197.481626 76.899838 
L 197.652306 76.536497 
L 198.027411 75.722541 
L 198.098057 75.596974 
L 198.229645 75.371667 
L 198.567719 74.807063 
L 198.699729 74.587098 
L 199.297185 73.554959 
L 199.415429 73.350135 
L 200.743144 70.740844 
L 200.840735 70.545815 
L 201.033973 70.153086 
L 201.25069 69.713158 
L 201.638458 68.951744 
L 201.754813 68.695267 
L 202.03468 67.972146 
L 202.123054 67.755745 
L 202.709153 66.330876 
L 202.848758 66.040559 
L 202.998086 65.756476 
L 203.074049 65.61577 
L 203.198541 65.38601 
L 203.437565 64.906008 
L 203.555006 64.686934 
L 203.672607 64.43491 
L 204.073893 63.605815 
L 204.250315 63.259394 
L 208.27621 56.246369 
L 208.409364 56.038873 
L 208.671071 55.653268 
L 208.814818 55.464473 
L 209.027466 55.18128 
L 212.843764 50.480104 
L 213.222854 50.07847 
L 213.342547 49.951122 
L 216.491279 46.796819 
L 216.657418 46.654332 
L 216.801858 46.532328 
L 216.993183 46.375593 
L 217.311831 46.127131 
L 217.618187 45.884013 
L 217.742478 45.769133 
L 217.966656 45.586572 
L 218.105852 45.467239 
L 218.565045 45.111022 
L 218.703595 44.995251 
L 219.012081 44.775287 
L 219.185643 44.628348 
L 219.982063 44.006749 
L 220.108201 43.899884 
L 220.502235 43.622034 
L 220.629827 43.521403 
L 220.823208 43.372682 
L 221.188817 43.119768 
L 221.424027 42.94255 
L 221.540036 42.863292 
L 223.009367 41.791969 
L 223.630355 41.360055 
L 223.947273 41.163245 
L 224.161436 41.018087 
L 224.416603 40.844431 
L 224.924788 40.479309 
L 225.042362 40.386692 
L 225.873985 39.816745 
L 225.989306 39.741049 
L 226.785102 39.194255 
L 226.916753 39.105201 
L 227.827719 38.552174 
L 227.939876 38.471135 
L 228.157462 38.338444 
L 228.281877 38.262747 
L 228.736331 37.933247 
L 229.35828 37.560109 
L 229.586352 37.43098 
L 229.92104 37.238623 
L 230.221069 37.042704 
L 230.341118 36.97146 
L 234.054054 34.594602 
L 234.258645 34.46013 
L 234.930123 34.061166 
L 235.08952 33.954301 
L 235.357846 33.78777 
L 235.578114 33.663094 
L 235.884104 33.481423 
L 237.333989 32.641641 
L 238.007245 32.306797 
L 238.235806 32.174106 
L 238.61551 32.003122 
L 239.150415 31.719929 
L 239.521375 31.542711 
L 239.782615 31.400225 
L 241.642014 30.478513 
L 242.034277 30.286155 
L 242.251721 30.174838 
L 242.701671 29.963779 
L 242.814122 29.910346 
L 243.613548 29.579064 
L 244.234971 29.318135 
L 244.900338 29.042067 
L 245.139172 28.913829 
L 245.441259 28.782919 
L 247.172503 28.041097 
L 247.656944 27.84963 
L 248.035694 27.70091 
L 253.13233 25.888655 
L 253.811267 25.685611 
L 253.925046 25.651771 
L 254.78117 25.365906 
L 257.04245 24.767462 
L 257.620811 24.603602 
L 257.742227 24.562637 
L 258.388274 24.410354 
L 260.150913 24.025639 
L 260.255001 24.003376 
L 261.307084 23.776287 
L 264.014295 23.314096 
L 265.073484 23.148455 
L 265.286459 23.111052 
L 274.192445 22.160843 
L 277.95481 21.915944 
L 284.446756 21.685293 
L 294.126466 21.535682 
L 299.752493 21.50006 
L 324.109735 21.473388 
L 324.109735 21.473388 
" clip-path="url(#p124c4249e0)" style="fill: none; stroke-dasharray: 5.55,2.4; stroke-dashoffset: 0; stroke: #2ca02c; stroke-width: 1.5"/>
   </g>
   <g id="line2d_27">
    <path d="M 193.521434 90.723022 
L 193.52634 90.240731 
L 193.659146 83.074617 
L 193.891934 82.292638 
L 194.055376 81.745132 
L 194.378264 80.728378 
L 194.538593 80.237897 
L 195.201455 78.415202 
L 195.253812 78.271121 
L 195.894411 76.405353 
L 196.007775 76.118102 
L 196.266408 75.52631 
L 196.434393 75.145937 
L 196.593057 74.78437 
L 196.721348 74.494389 
L 197.023327 73.799769 
L 198.688388 69.721226 
L 198.755629 69.587459 
L 198.932879 69.232262 
L 199.132243 68.812457 
L 199.321361 68.409941 
L 199.527776 67.973149 
L 199.695812 67.59399 
L 199.881783 67.123529 
L 200.125642 66.539016 
L 200.198772 66.370973 
L 200.329223 66.070982 
L 200.412573 65.892322 
L 200.545794 65.605677 
L 200.947072 64.73998 
L 201.087308 64.421183 
L 201.225864 64.120585 
L 201.655116 63.142657 
L 201.722314 62.9916 
L 201.839827 62.676443 
L 203.044901 59.84124 
L 203.198695 59.520319 
L 203.383419 59.122657 
L 203.627631 58.60336 
L 203.9787 57.821381 
L 204.069382 57.621185 
L 204.285459 57.138894 
L 204.5776 56.506759 
L 204.665646 56.320516 
L 204.860802 55.921034 
L 205.100018 55.433283 
L 205.291779 55.020454 
L 205.632903 54.285188 
L 205.809665 53.892379 
L 206.186917 53.036085 
L 206.333155 52.695752 
L 206.53137 52.266846 
L 206.654612 51.999008 
L 206.784507 51.730866 
L 206.915903 51.456962 
L 207.139688 51.0138 
L 207.260777 50.771138 
L 207.388205 50.526959 
L 207.894159 49.534168 
L 211.309074 43.277126 
L 211.421226 43.109083 
L 211.599565 42.823348 
L 211.8032 42.494844 
L 212.025274 42.143288 
L 212.187726 41.863013 
L 212.282148 41.720449 
L 212.450833 41.455037 
L 212.681866 41.086494 
L 212.975533 40.63393 
L 213.106782 40.428274 
L 213.217795 40.258713 
L 213.380063 40.015141 
L 213.718264 39.536187 
L 213.919665 39.236803 
L 214.034348 39.066636 
L 214.172082 38.859463 
L 217.498047 34.753924 
L 217.669145 34.579511 
L 219.406271 32.886336 
L 220.437272 32.024582 
L 220.684148 31.825296 
L 220.902003 31.649973 
L 221.046136 31.527125 
L 221.244224 31.368485 
L 225.715325 28.653703 
L 226.476165 28.319133 
L 227.244434 27.998819 
L 227.838446 27.764346 
L 228.077678 27.666978 
L 228.447854 27.538974 
L 228.587189 27.482858 
L 229.693745 27.103699 
L 230.035816 26.998444 
L 237.774931 25.322863 
L 239.019051 25.155426 
L 239.272534 25.121453 
L 242.182923 24.799926 
L 246.75011 24.408936 
L 247.93512 24.320668 
L 250.406464 24.154141 
L 252.544007 24.022497 
L 256.819698 23.760119 
L 257.612957 23.722203 
L 264.334117 23.394609 
L 264.57441 23.382173 
L 268.423996 23.218376 
L 271.303133 23.091888 
L 307.181029 22.062394 
L 317.470098 21.905271 
L 317.736803 21.899811 
L 323.136425 21.830955 
L 323.136425 21.830955 
" clip-path="url(#p124c4249e0)" style="fill: none; stroke-dasharray: 9.6,2.4,1.5,2.4; stroke-dashoffset: 0; stroke: #d62728; stroke-width: 1.5"/>
   </g>
   <g id="line2d_28">
    <path d="M 193.521434 95.598396 
L 193.526693 95.480037 
L 193.75952 90.789375 
L 193.985056 90.553505 
L 194.131641 90.38986 
L 194.892412 89.638981 
L 195.005863 89.525288 
L 195.318358 89.229497 
L 195.596291 88.930312 
L 195.710902 88.777591 
L 195.844921 88.622112 
L 196.328405 88.142631 
L 196.500384 87.973577 
L 196.661909 87.811417 
L 196.789123 87.680119 
L 196.996116 87.460794 
L 197.113084 87.330769 
L 197.23165 87.195547 
L 197.488391 86.908983 
L 197.65008 86.715748 
L 200.113483 83.547631 
L 200.258589 83.357048 
L 200.45914 83.075998 
L 204.262609 76.801171 
L 204.477398 76.412263 
L 204.591678 76.202801 
L 204.707075 75.990052 
L 204.825446 75.778469 
L 204.99365 75.465921 
L 205.311146 74.877945 
L 205.461589 74.587774 
L 205.609055 74.30821 
L 205.706597 74.123035 
L 205.878335 73.778988 
L 206.03613 73.436532 
L 206.208806 73.073289 
L 210.286726 64.64085 
L 210.504161 64.157551 
L 210.627694 63.888804 
L 210.764743 63.591422 
L 210.896592 63.313554 
L 211.082161 62.925706 
L 211.197662 62.690261 
L 211.343375 62.386197 
L 211.430849 62.199008 
L 215.362585 54.160781 
L 215.508391 53.892034 
L 215.643954 53.644498 
L 215.915398 53.133624 
L 216.133686 52.714914 
L 216.812282 51.421874 
L 216.942863 51.170202 
L 217.771831 49.732926 
L 217.883594 49.531949 
L 217.973202 49.378485 
L 218.223722 48.93623 
L 218.640391 48.213244 
L 219.920066 46.118205 
L 220.061539 45.892517 
L 220.227357 45.643285 
L 220.349257 45.450474 
L 220.472652 45.255861 
L 220.615207 45.036218 
L 220.918783 44.577206 
L 221.028867 44.406985 
L 221.253971 44.058696 
L 222.701812 41.987096 
L 222.818883 41.830663 
L 222.925912 41.680169 
L 223.298994 41.16728 
L 223.464427 40.95241 
L 223.990946 40.275452 
L 224.2472 39.94848 
L 224.372548 39.795229 
L 224.495632 39.634659 
L 226.415581 37.402914 
L 226.537679 37.269708 
L 226.714864 37.07573 
L 226.880273 36.904131 
L 232.252489 32.152698 
L 232.474913 32.000613 
L 233.158649 31.530465 
L 233.318161 31.421439 
L 233.833397 31.083332 
L 234.078817 30.929126 
L 234.366797 30.750633 
L 234.508721 30.663985 
L 234.972149 30.386117 
L 235.087759 30.318983 
L 235.352946 30.158414 
L 235.686719 29.956588 
L 236.046626 29.742991 
L 236.422809 29.533954 
L 236.613806 29.432458 
L 236.888812 29.287691 
L 237.017014 29.220345 
L 237.387405 29.029655 
L 237.559759 28.944068 
L 237.905386 28.77512 
L 238.102284 28.676381 
L 243.931925 26.40985 
L 244.648003 26.191692 
L 244.771557 26.156163 
L 245.474999 25.954974 
L 245.707697 25.889749 
L 246.385472 25.702666 
L 246.658468 25.629063 
L 246.997461 25.533506 
L 247.476334 25.407935 
L 248.734464 25.108432 
L 249.023555 25.047874 
L 250.027264 24.832261 
L 250.360149 24.767779 
L 251.845718 24.482911 
L 252.447977 24.380143 
L 256.824503 23.729274 
L 272.573039 22.409933 
L 275.510387 22.272484 
L 277.091363 22.207365 
L 282.207343 22.033963 
L 282.858118 22.014024 
L 304.179776 21.661705 
L 323.12166 21.545679 
L 323.12166 21.545679 
" clip-path="url(#p124c4249e0)" style="fill: none; stroke: #9467bd; stroke-width: 1.5; stroke-linecap: square"/>
   </g>
   <g id="line2d_29">
    <path d="M 193.521434 95.381659 
L 193.525942 95.239987 
L 193.725842 90.344563 
L 193.872623 90.102172 
L 193.997849 89.895382 
L 198.86689 82.647801 
L 199.051065 82.399507 
L 199.172884 82.232563 
L 199.736798 81.429203 
L 199.952824 81.080004 
L 200.054216 80.928924 
L 200.372121 80.479375 
L 200.507807 80.277935 
L 200.673018 80.048641 
L 203.028763 76.619373 
L 203.308656 76.227008 
L 203.495896 75.963403 
L 203.960136 75.254306 
L 204.056115 75.111527 
L 204.323101 74.714367 
L 204.416179 74.585423 
L 204.592376 74.3351 
L 204.996903 73.769888 
L 205.31549 73.3113 
L 205.482316 73.082559 
L 205.59374 72.921702 
L 205.788006 72.631903 
L 206.011588 72.288422 
L 206.114459 72.130702 
L 206.335993 71.786484 
L 206.425831 71.651268 
L 206.551474 71.4668 
L 206.686424 71.27403 
L 206.931275 70.912841 
L 220.464433 50.088382 
L 220.606762 49.891001 
L 220.733355 49.710037 
L 221.040376 49.285391 
L 221.205643 49.055359 
L 221.368412 48.829016 
L 221.494406 48.660227 
L 221.931462 48.082288 
L 222.163393 47.777361 
L 222.38846 47.477231 
L 222.582124 47.217869 
L 222.678199 47.079886 
L 222.794401 46.919768 
L 222.953626 46.716668 
L 223.913575 45.497331 
L 224.033123 45.342378 
L 224.181062 45.160123 
L 224.393946 44.900023 
L 226.142954 42.790441 
L 226.288365 42.630876 
L 226.544789 42.333513 
L 226.666051 42.194239 
L 226.797163 42.056995 
L 226.912578 41.924546 
L 227.084959 41.729379 
L 227.209032 41.589921 
L 227.643976 41.106613 
L 227.812798 40.929155 
L 228.65626 40.033191 
L 228.873836 39.811276 
L 229.036597 39.643225 
L 229.425438 39.251599 
L 229.609219 39.06713 
L 229.761668 38.905536 
L 230.354492 38.347703 
L 230.503689 38.209352 
L 231.127366 37.641742 
L 231.297411 37.499148 
L 231.463535 37.348253 
L 231.632793 37.201785 
L 232.221592 36.687856 
L 232.410107 36.521281 
L 233.98681 35.238303 
L 234.161666 35.100505 
L 234.367837 34.942416 
L 234.529407 34.819006 
L 234.872481 34.570527 
L 235.052686 34.44638 
L 235.418715 34.177056 
L 235.566546 34.075229 
L 237.210237 32.957904 
L 237.464054 32.782475 
L 237.579819 32.706474 
L 237.955195 32.470169 
L 238.138125 32.360042 
L 238.544161 32.107873 
L 238.663385 32.038329 
L 238.899221 31.90256 
L 239.099079 31.796306 
L 239.398331 31.626964 
L 239.562659 31.537866 
L 239.853511 31.377378 
L 240.437615 31.05585 
L 240.551739 30.995344 
L 242.017886 30.279607 
L 242.16374 30.213567 
L 242.686915 29.980583 
L 243.127908 29.780988 
L 243.323713 29.694288 
L 243.673833 29.541179 
L 243.880057 29.457615 
L 244.49896 29.20766 
L 245.313442 28.881889 
L 245.752727 28.719926 
L 246.161713 28.577701 
L 246.591047 28.43031 
L 246.801498 28.356154 
L 252.980019 26.59651 
L 254.4089 26.288263 
L 256.083516 25.955666 
L 258.050066 25.613477 
L 258.195825 25.589312 
L 261.650467 25.078703 
L 262.964642 24.913419 
L 263.528427 24.851254 
L 264.920989 24.70165 
L 267.472944 24.430666 
L 269.182383 24.273683 
L 271.851995 24.046787 
L 273.355987 23.937581 
L 276.878521 23.701831 
L 277.056538 23.690209 
L 280.657989 23.466818 
L 311.065677 22.323667 
L 323.142431 22.068178 
L 323.142431 22.068178 
" clip-path="url(#p124c4249e0)" style="fill: none; stroke-dasharray: 1.5,2.475; stroke-dashoffset: 0; stroke: #8c564b; stroke-width: 1.5"/>
   </g>
   <g id="line2d_30">
    <path d="M 193.521434 92.645079 
L 193.524626 92.520666 
L 193.649298 86.251631 
L 193.996437 85.476579 
L 196.211548 81.506603 
L 196.43065 81.178809 
L 196.832284 80.629861 
L 196.938929 80.481825 
L 198.021664 78.773786 
L 198.120722 78.62755 
L 198.417947 78.261509 
L 198.570076 78.081751 
L 198.683891 77.943614 
L 198.791425 77.813576 
L 198.905841 77.683763 
L 199.040107 77.525828 
L 199.214933 77.315698 
L 199.43298 77.068446 
L 199.617825 76.821195 
L 199.789237 76.588342 
L 200.103992 76.17618 
L 200.336836 75.879433 
L 200.59529 75.549165 
L 200.711964 75.402253 
L 200.88657 75.17255 
L 201.455222 74.423821 
L 201.626265 74.187143 
L 201.788026 73.954965 
L 215.370279 55.917514 
L 215.530583 55.726057 
L 215.903179 55.278574 
L 216.628222 54.404307 
L 216.801063 54.203401 
L 216.983754 53.982246 
L 217.120484 53.832861 
L 217.249948 53.691799 
L 217.429194 53.492468 
L 217.73377 53.132277 
L 217.874027 52.981316 
L 217.993392 52.847453 
L 218.697591 52.051703 
L 218.84065 51.884994 
L 219.098873 51.583298 
L 219.401054 51.23413 
L 219.517224 51.111967 
L 219.792805 50.817695 
L 220.300648 50.249848 
L 220.514131 50.002146 
L 220.67687 49.829588 
L 220.858459 49.626657 
L 220.982924 49.477721 
L 221.0939 49.350608 
L 221.258111 49.173999 
L 227.892028 42.463557 
L 228.079522 42.296847 
L 228.194167 42.189308 
L 228.540733 41.864888 
L 228.808711 41.619886 
L 228.974089 41.465101 
L 229.111368 41.343837 
L 229.393745 41.095686 
L 229.594968 40.919077 
L 229.86456 40.677225 
L 230.087609 40.480369 
L 232.240769 38.632393 
L 232.443499 38.460059 
L 232.558191 38.361968 
L 232.793705 38.176136 
L 232.973149 38.016626 
L 233.749482 37.414357 
L 234.039355 37.189604 
L 239.186648 33.455405 
L 239.647481 33.175307 
L 239.823729 33.076991 
L 240.230489 32.835139 
L 240.4673 32.702851 
L 241.025295 32.385856 
L 241.139121 32.327362 
L 241.422008 32.165377 
L 241.548398 32.098783 
L 242.080617 31.799336 
L 242.542376 31.545335 
L 242.900848 31.348479 
L 243.053575 31.275361 
L 243.313038 31.131374 
L 243.717353 30.91607 
L 244.073876 30.739461 
L 244.385989 30.583326 
L 244.619417 30.464762 
L 244.976318 30.291304 
L 246.381065 29.643815 
L 246.581992 29.558098 
L 246.925725 29.406462 
L 247.742537 29.064044 
L 248.512127 28.742774 
L 249.349594 28.42173 
L 249.504318 28.36031 
L 249.880714 28.229823 
L 250.214018 28.106309 
L 251.188256 27.769291 
L 251.65426 27.615181 
L 252.467754 27.35398 
L 252.951193 27.208869 
L 253.527206 27.03451 
L 253.778278 26.968367 
L 254.739213 26.694342 
L 255.393103 26.512785 
L 256.232714 26.310979 
L 256.344462 26.282406 
L 258.169854 25.869795 
L 258.67677 25.760905 
L 260.256374 25.459659 
L 261.441552 25.234005 
L 262.807828 24.998677 
L 263.143931 24.941083 
L 264.607053 24.735677 
L 264.911127 24.698106 
L 266.182136 24.532971 
L 266.921128 24.443205 
L 271.256365 24.008995 
L 271.5596 23.984698 
L 273.498211 23.820913 
L 275.725489 23.657129 
L 280.457477 23.388504 
L 284.113748 23.236193 
L 285.752921 23.171174 
L 291.772951 22.963744 
L 293.239991 22.914699 
L 323.114707 22.230763 
L 323.114707 22.230763 
" clip-path="url(#p124c4249e0)" style="fill: none; stroke-dasharray: 5.55,2.4; stroke-dashoffset: 0; stroke: #e377c2; stroke-width: 1.5"/>
   </g>
   <g id="line2d_31">
    <path d="M 188.893281 99.079698 
L 323.109735 99.079698 
" clip-path="url(#p124c4249e0)" style="fill: none; stroke: #808080; stroke-opacity: 0.7; stroke-width: 0.5; stroke-linecap: square"/>
   </g>
   <g id="line2d_32">
    <path d="M 188.893281 79.67477 
L 323.109735 79.67477 
" clip-path="url(#p124c4249e0)" style="fill: none; stroke: #808080; stroke-opacity: 0.7; stroke-width: 0.5; stroke-linecap: square"/>
   </g>
   <g id="line2d_33">
    <path d="M 188.893281 60.269842 
L 323.109735 60.269842 
" clip-path="url(#p124c4249e0)" style="fill: none; stroke: #808080; stroke-opacity: 0.7; stroke-width: 0.5; stroke-linecap: square"/>
   </g>
   <g id="line2d_34">
    <path d="M 188.893281 40.864914 
L 323.109735 40.864914 
" clip-path="url(#p124c4249e0)" style="fill: none; stroke: #808080; stroke-opacity: 0.7; stroke-width: 0.5; stroke-linecap: square"/>
   </g>
   <g id="line2d_35">
    <path d="M 188.893281 21.459986 
L 323.109735 21.459986 
" clip-path="url(#p124c4249e0)" style="fill: none; stroke: #808080; stroke-opacity: 0.7; stroke-width: 0.5; stroke-linecap: square"/>
   </g>
   <g id="patch_8">
    <path d="M 188.893281 102.960683 
L 188.893281 17.579 
" style="fill: none; stroke: #000000; stroke-width: 0.8; stroke-linejoin: miter; stroke-linecap: square"/>
   </g>
   <g id="patch_9">
    <path d="M 323.109735 102.960683 
L 323.109735 17.579 
" style="fill: none; stroke: #000000; stroke-width: 0.8; stroke-linejoin: miter; stroke-linecap: square"/>
   </g>
   <g id="patch_10">
    <path d="M 188.893281 102.960683 
L 323.109735 102.960683 
" style="fill: none; stroke: #000000; stroke-width: 0.8; stroke-linejoin: miter; stroke-linecap: square"/>
   </g>
   <g id="patch_11">
    <path d="M 188.893281 17.579 
L 323.109735 17.579 
" style="fill: none; stroke: #000000; stroke-width: 0.8; stroke-linejoin: miter; stroke-linecap: square"/>
   </g>
  </g>
  <g id="legend_1">
   <g id="patch_12">
    <path d="M -0 14.108669 
L 322.65147 14.108669 
L 322.65147 0 
L -0 0 
z
" style="fill: #ffffff; opacity: 0.8; stroke: #000000; stroke-linejoin: miter"/>
   </g>
   <g id="line2d_36">
    <path d="M 3.332 6.2475 
L 7.497 6.2475 
L 11.662 6.2475 
" style="fill: none; stroke: #1f77b4; stroke-width: 1.5; stroke-linecap: square"/>
   </g>
   <g id="text_15">
    <!-- Dublin -->
    <g transform="translate(14.161 9.163) scale(0.0833 -0.0833)">
     <defs>
      <path id="CMR17-75" d="M 1882 2693 
L 1882 2528 
C 2259 2528 2317 2489 2317 2186 
L 2317 1032 
C 2317 500 2029 38 1555 38 
C 1030 38 986 348 986 678 
L 986 2763 
L 211 2693 
L 211 2528 
C 467 2528 640 2528 646 2274 
L 646 1058 
C 646 633 646 361 813 183 
C 896 101 1056 -64 1517 -64 
C 2061 -64 2272 377 2323 506 
L 2330 506 
L 2330 -63 
L 3091 -63 
L 3091 128 
C 2714 128 2656 166 2656 473 
L 2656 2763 
L 1882 2693 
z
" transform="scale(0.015625)"/>
     </defs>
     <use xlink:href="#CMR17-44" transform="scale(0.996264)"/>
     <use xlink:href="#CMR17-75" transform="translate(70.393556 0) scale(0.996264)"/>
     <use xlink:href="#CMR17-62" transform="translate(121.288926 0) scale(0.996264)"/>
     <use xlink:href="#CMR17-6c" transform="translate(172.184295 0) scale(0.996264)"/>
     <use xlink:href="#CMR17-69" transform="translate(197.055354 0) scale(0.996264)"/>
     <use xlink:href="#CMR17-6e" transform="translate(221.926412 0) scale(0.996264)"/>
    </g>
   </g>
   <g id="line2d_37">
    <path d="M 44.652264 6.2475 
L 48.817264 6.2475 
L 52.982264 6.2475 
" style="fill: none; stroke-dasharray: 1.5,2.475; stroke-dashoffset: 0; stroke: #ff7f0e; stroke-width: 1.5"/>
   </g>
   <g id="text_16">
    <!-- Lagos -->
    <g transform="translate(55.481264 9.163) scale(0.0833 -0.0833)">
     <defs>
      <path id="CMR17-4c" d="M 3469 1615 
L 3354 1615 
C 3302 983 3219 166 2125 166 
L 1530 166 
C 1274 166 1261 197 1261 414 
L 1261 3898 
C 1261 4129 1274 4192 1760 4192 
L 1901 4192 
L 1901 4352 
C 1638 4352 1331 4352 1069 4352 
C 870 4352 512 4352 326 4352 
L 326 4192 
C 768 4192 838 4192 838 3905 
L 838 452 
C 838 166 768 166 326 166 
L 326 0 
L 3315 0 
L 3469 1615 
z
" transform="scale(0.015625)"/>
      <path id="CMR17-67" d="M 710 1164 
C 832 1068 1043 960 1299 960 
C 1805 960 2240 1357 2240 1888 
C 2240 2054 2189 2310 1997 2509 
C 2176 2692 2438 2752 2586 2752 
C 2611 2752 2650 2752 2682 2734 
C 2656 2728 2598 2703 2598 2605 
C 2598 2527 2656 2471 2739 2471 
C 2835 2471 2886 2533 2886 2614 
C 2886 2731 2790 2854 2586 2854 
C 2330 2854 2106 2738 1926 2580 
C 1734 2753 1504 2816 1299 2816 
C 794 2816 358 2419 358 1888 
C 358 1522 570 1292 634 1228 
C 442 1004 442 743 442 711 
C 442 545 506 302 723 168 
C 390 85 128 -169 128 -486 
C 128 -943 736 -1280 1466 -1280 
C 2170 -1280 2803 -956 2803 -479 
C 2803 384 1856 384 1363 384 
C 1216 384 954 384 922 391 
C 723 423 589 602 589 826 
C 589 883 589 1024 710 1164 
z
M 1299 1068 
C 736 1068 736 1760 736 1889 
C 736 2016 736 2708 1299 2708 
C 1862 2708 1862 2016 1862 1889 
C 1862 1760 1862 1068 1299 1068 
z
M 1466 -1171 
C 826 -1171 384 -835 384 -486 
C 384 -289 493 -105 634 -4 
C 794 104 858 104 1293 104 
C 1818 104 2547 104 2547 -486 
C 2547 -835 2106 -1171 1466 -1171 
z
" transform="scale(0.015625)"/>
     </defs>
     <use xlink:href="#CMR17-4c" transform="scale(0.996264)"/>
     <use xlink:href="#CMR17-61" transform="translate(57.381408 0) scale(0.996264)"/>
     <use xlink:href="#CMR17-67" transform="translate(103.071885 0) scale(0.996264)"/>
     <use xlink:href="#CMR17-6f" transform="translate(148.762362 0) scale(0.996264)"/>
     <use xlink:href="#CMR17-73" transform="translate(194.452839 0) scale(0.996264)"/>
    </g>
   </g>
   <g id="line2d_38">
    <path d="M 81.857573 6.2475 
L 86.022573 6.2475 
L 90.187573 6.2475 
" style="fill: none; stroke-dasharray: 5.55,2.4; stroke-dashoffset: 0; stroke: #2ca02c; stroke-width: 1.5"/>
   </g>
   <g id="text_17">
    <!-- Manila -->
    <g transform="translate(92.686573 9.163) scale(0.0833 -0.0833)">
     <use xlink:href="#CMR17-4d" transform="scale(0.996264)"/>
     <use xlink:href="#CMR17-61" transform="translate(84.686941 0) scale(0.996264)"/>
     <use xlink:href="#CMR17-6e" transform="translate(130.377418 0) scale(0.996264)"/>
     <use xlink:href="#CMR17-69" transform="translate(181.272787 0) scale(0.996264)"/>
     <use xlink:href="#CMR17-6c" transform="translate(206.143846 0) scale(0.996264)"/>
     <use xlink:href="#CMR17-61" transform="translate(231.014904 0) scale(0.996264)"/>
    </g>
   </g>
   <g id="line2d_39">
    <path d="M 123.540902 6.2475 
L 127.705902 6.2475 
L 131.870902 6.2475 
" style="fill: none; stroke-dasharray: 9.6,2.4,1.5,2.4; stroke-dashoffset: 0; stroke: #d62728; stroke-width: 1.5"/>
   </g>
   <g id="text_18">
    <!-- Mexico City -->
    <g transform="translate(134.369902 9.163) scale(0.0833 -0.0833)">
     <defs>
      <path id="CMR17-78" d="M 1664 1477 
C 1856 1726 2074 2006 2253 2216 
C 2464 2458 2707 2560 2989 2560 
L 2989 2726 
C 2880 2726 2656 2726 2541 2726 
C 2368 2726 2170 2726 2022 2732 
L 2022 2566 
C 2112 2553 2163 2489 2163 2400 
C 2163 2285 2099 2215 2067 2171 
L 1594 1573 
L 1030 2306 
C 973 2376 973 2388 973 2420 
C 973 2497 1037 2560 1146 2560 
L 1146 2732 
C 992 2726 717 2726 557 2726 
C 384 2726 179 2726 38 2732 
L 38 2560 
C 384 2560 461 2534 614 2343 
L 1350 1395 
C 1363 1382 1395 1344 1395 1325 
C 1395 1299 838 619 768 530 
C 480 185 179 160 6 160 
L 6 0 
C 115 0 339 0 454 0 
C 582 0 864 0 979 -6 
L 979 160 
C 941 166 838 179 838 325 
C 838 440 890 510 947 586 
L 1478 1236 
L 2035 512 
C 2086 442 2163 346 2163 301 
C 2163 211 2086 160 1984 160 
L 1984 -6 
C 2138 0 2413 0 2573 0 
C 2746 0 2950 0 3091 -6 
L 3091 160 
C 2771 160 2675 172 2522 370 
L 1664 1477 
z
" transform="scale(0.015625)"/>
      <path id="CMR17-43" d="M 3974 4289 
C 3974 4403 3968 4410 3930 4410 
C 3904 4410 3898 4403 3853 4327 
L 3571 3792 
C 3258 4187 2874 4416 2381 4416 
C 1286 4416 294 3456 294 2148 
C 294 826 1286 -128 2387 -128 
C 3366 -128 3974 730 3974 1461 
C 3974 1524 3974 1550 3917 1550 
C 3866 1550 3866 1531 3859 1474 
C 3808 585 3168 38 2477 38 
C 1824 38 781 495 781 2147 
C 781 3805 1843 4250 2464 4250 
C 3187 4250 3712 3628 3834 2745 
C 3846 2668 3846 2655 3904 2655 
C 3974 2655 3974 2668 3974 2783 
L 3974 4289 
z
" transform="scale(0.015625)"/>
      <path id="CMR17-79" d="M 2496 2197 
C 2656 2586 2944 2586 3034 2586 
L 3034 2752 
C 2912 2752 2752 2752 2630 2752 
C 2496 2752 2285 2752 2157 2758 
L 2157 2592 
C 2400 2573 2406 2394 2406 2343 
C 2406 2280 2394 2248 2362 2171 
L 1664 449 
L 902 2306 
C 870 2382 870 2426 870 2433 
C 870 2573 1018 2586 1171 2586 
L 1171 2758 
C 1018 2752 742 2752 582 2752 
C 410 2752 205 2752 64 2758 
L 64 2586 
C 410 2586 448 2554 531 2350 
L 1485 15 
C 1197 -738 1030 -1178 627 -1178 
C 557 -1178 397 -1159 282 -1044 
C 429 -1031 493 -942 493 -833 
C 493 -725 416 -629 288 -629 
C 147 -629 77 -725 77 -840 
C 77 -1095 339 -1280 627 -1280 
C 998 -1280 1229 -922 1357 -604 
L 2496 2197 
z
" transform="scale(0.015625)"/>
     </defs>
     <use xlink:href="#CMR17-4d" transform="scale(0.996264)"/>
     <use xlink:href="#CMR17-65" transform="translate(84.686941 0) scale(0.996264)"/>
     <use xlink:href="#CMR17-78" transform="translate(125.172601 0) scale(0.996264)"/>
     <use xlink:href="#CMR17-69" transform="translate(173.465517 0) scale(0.996264)"/>
     <use xlink:href="#CMR17-63" transform="translate(198.336575 0) scale(0.996264)"/>
     <use xlink:href="#CMR17-6f" transform="translate(238.822236 0) scale(0.996264)"/>
     <use xlink:href="#CMR17-43" transform="translate(314.588679 0) scale(0.996264)"/>
     <use xlink:href="#CMR17-69" transform="translate(381.09856 0) scale(0.996264)"/>
     <use xlink:href="#CMR17-74" transform="translate(405.969618 0) scale(0.996264)"/>
     <use xlink:href="#CMR17-79" transform="translate(438.647932 0) scale(0.996264)"/>
    </g>
   </g>
   <g id="line2d_40">
    <path d="M 185.553817 6.2475 
L 189.718817 6.2475 
L 193.883817 6.2475 
" style="fill: none; stroke: #9467bd; stroke-width: 1.5; stroke-linecap: square"/>
   </g>
   <g id="text_19">
    <!-- Seattle -->
    <g transform="translate(196.382817 9.163) scale(0.0833 -0.0833)">
     <defs>
      <path id="CMR17-53" d="M 2803 4290 
C 2803 4404 2797 4411 2758 4411 
C 2720 4411 2707 4385 2682 4328 
L 2490 3907 
C 2246 4257 1875 4416 1472 4416 
C 819 4416 294 3901 294 3253 
C 294 3056 339 2776 557 2510 
C 794 2218 1018 2167 1530 2033 
C 1722 1982 2042 1899 2106 1874 
C 2470 1722 2662 1341 2662 985 
C 2662 527 2336 38 1779 38 
C 1094 38 454 419 410 1311 
C 403 1413 397 1419 352 1419 
C 301 1419 294 1413 294 1285 
L 294 -1 
C 294 -115 301 -122 339 -122 
C 384 -122 397 -90 486 108 
C 493 127 493 140 614 381 
C 934 -39 1472 -128 1779 -128 
C 2477 -128 2970 451 2970 1124 
C 2970 1454 2848 1708 2778 1823 
C 2509 2230 2221 2306 1914 2382 
C 1869 2402 1856 2402 1498 2490 
C 1152 2579 1005 2624 845 2796 
C 666 2992 602 3196 602 3399 
C 602 3812 934 4263 1478 4263 
C 2157 4263 2579 3786 2675 2993 
C 2694 2878 2701 2872 2746 2872 
C 2803 2872 2803 2891 2803 2999 
L 2803 4290 
z
" transform="scale(0.015625)"/>
     </defs>
     <use xlink:href="#CMR17-53" transform="scale(0.996264)"/>
     <use xlink:href="#CMR17-65" transform="translate(50.89537 0) scale(0.996264)"/>
     <use xlink:href="#CMR17-61" transform="translate(91.38103 0) scale(0.996264)"/>
     <use xlink:href="#CMR17-74" transform="translate(137.071507 0) scale(0.996264)"/>
     <use xlink:href="#CMR17-74" transform="translate(172.352275 0) scale(0.996264)"/>
     <use xlink:href="#CMR17-6c" transform="translate(207.633043 0) scale(0.996264)"/>
     <use xlink:href="#CMR17-65" transform="translate(232.504101 0) scale(0.996264)"/>
    </g>
   </g>
   <g id="line2d_41">
    <path d="M 227.000834 6.2475 
L 231.165834 6.2475 
L 235.330834 6.2475 
" style="fill: none; stroke-dasharray: 1.5,2.475; stroke-dashoffset: 0; stroke: #8c564b; stroke-width: 1.5"/>
   </g>
   <g id="text_20">
    <!-- Sydney -->
    <g transform="translate(237.829834 9.163) scale(0.0833 -0.0833)">
     <use xlink:href="#CMR17-53" transform="scale(0.996264)"/>
     <use xlink:href="#CMR17-79" transform="translate(50.89537 0) scale(0.996264)"/>
     <use xlink:href="#CMR17-64" transform="translate(99.188286 0) scale(0.996264)"/>
     <use xlink:href="#CMR17-6e" transform="translate(150.083655 0) scale(0.996264)"/>
     <use xlink:href="#CMR17-65" transform="translate(200.979025 0) scale(0.996264)"/>
     <use xlink:href="#CMR17-79" transform="translate(241.464686 0) scale(0.996264)"/>
    </g>
   </g>
   <g id="line2d_42">
    <path d="M 269.917468 6.2475 
L 274.082468 6.2475 
L 278.247468 6.2475 
" style="fill: none; stroke-dasharray: 5.55,2.4; stroke-dashoffset: 0; stroke: #e377c2; stroke-width: 1.5"/>
   </g>
   <g id="text_21">
    <!-- So Paulo -->
    <g transform="translate(280.746468 9.163) scale(0.0833 -0.0833)">
     <defs>
      <path id="CMR17-7e" d="M 2400 4184 
C 2182 3980 2061 3865 1862 3865 
C 1722 3865 1626 3932 1491 4024 
C 1363 4111 1261 4184 1120 4184 
C 890 4184 730 4004 461 3718 
L 531 3648 
C 749 3850 870 3968 1069 3968 
C 1210 3968 1306 3900 1440 3808 
C 1568 3722 1670 3648 1811 3648 
C 2042 3648 2202 3828 2470 4114 
L 2400 4184 
z
" transform="scale(0.015625)"/>
     </defs>
     <use xlink:href="#CMR17-53" transform="scale(0.996264)"/>
     <use xlink:href="#CMR17-7e" transform="translate(50.89537 0) scale(0.996264)"/>
     <use xlink:href="#CMR17-61" transform="translate(50.89537 0) scale(0.996264)"/>
     <use xlink:href="#CMR17-6f" transform="translate(96.585847 0) scale(0.996264)"/>
     <use xlink:href="#CMR17-50" transform="translate(172.35229 0) scale(0.996264)"/>
     <use xlink:href="#CMR17-61" transform="translate(232.336137 0) scale(0.996264)"/>
     <use xlink:href="#CMR17-75" transform="translate(278.026614 0) scale(0.996264)"/>
     <use xlink:href="#CMR17-6c" transform="translate(328.921984 0) scale(0.996264)"/>
     <use xlink:href="#CMR17-6f" transform="translate(353.793042 0) scale(0.996264)"/>
    </g>
   </g>
  </g>
 </g>
 <defs>
  <clipPath id="p974284d2b5">
   <rect x="43.876826" y="17.579" width="134.216455" height="85.381683"/>
  </clipPath>
  <clipPath id="p124c4249e0">
   <rect x="188.893281" y="17.579" width="134.216455" height="85.381683"/>
  </clipPath>
 </defs>
</svg>
