<?xml version="1.0" encoding="utf-8" standalone="no"?>
<!DOCTYPE svg PUBLIC "-//W3C//DTD SVG 1.1//EN"
  "http://www.w3.org/Graphics/SVG/1.1/DTD/svg11.dtd">
<svg xmlns:xlink="http://www.w3.org/1999/xlink" width="266.4pt" height="117.515pt" viewBox="0 0 266.4 117.515" xmlns="http://www.w3.org/2000/svg" version="1.1">
 <metadata>
  <rdf:RDF xmlns:dc="http://purl.org/dc/elements/1.1/" xmlns:cc="http://creativecommons.org/ns#" xmlns:rdf="http://www.w3.org/1999/02/22-rdf-syntax-ns#">
   <cc:Work>
    <dc:type rdf:resource="http://purl.org/dc/dcmitype/StillImage"/>
    <dc:date>2023-10-10T20:58:25.580432</dc:date>
    <dc:format>image/svg+xml</dc:format>
    <dc:creator>
     <cc:Agent>
      <dc:title>Matplotlib v3.7.0, https://matplotlib.org/</dc:title>
     </cc:Agent>
    </dc:creator>
   </cc:Work>
  </rdf:RDF>
 </metadata>
 <defs>
  <style type="text/css">*{stroke-linejoin: round; stroke-linecap: butt}</style>
 </defs>
 <g id="figure_1">
  <g id="patch_1">
   <path d="M 0 117.515 
L 266.4 117.515 
L 266.4 0 
L 0 0 
z
" style="fill: #ffffff"/>
  </g>
  <g id="axes_1">
   <g id="patch_2">
    <path d="M 37.567091 87.696683 
L 146.583545 87.696683 
L 146.583545 23.915 
L 37.567091 23.915 
z
" style="fill: #ffffff"/>
   </g>
   <g id="matplotlib.axis_1">
    <g id="xtick_1">
     <g id="line2d_1">
      <defs>
       <path id="m7bbc0edf66" d="M 0 0 
L 0 3.5 
" style="stroke: #000000; stroke-width: 0.8"/>
      </defs>
      <g>
       <use xlink:href="#m7bbc0edf66" x="39.47966" y="87.696683" style="stroke: #000000; stroke-width: 0.8"/>
      </g>
     </g>
     <g id="text_1">
      <!-- 0 -->
      <g transform="translate(36.988993 101.615182) scale(0.1 -0.1)">
       <defs>
        <path id="CMR17-30" d="M 2688 2025 
C 2688 2416 2682 3080 2413 3591 
C 2176 4039 1798 4198 1466 4198 
C 1158 4198 768 4058 525 3597 
C 269 3118 243 2524 243 2025 
C 243 1661 250 1106 448 619 
C 723 -39 1216 -128 1466 -128 
C 1760 -128 2208 -7 2470 600 
C 2662 1042 2688 1559 2688 2025 
z
M 1466 -26 
C 1056 -26 813 325 723 812 
C 653 1188 653 1738 653 2096 
C 653 2588 653 2997 736 3387 
C 858 3929 1216 4096 1466 4096 
C 1728 4096 2067 3923 2189 3400 
C 2272 3036 2278 2607 2278 2096 
C 2278 1680 2278 1169 2202 792 
C 2067 95 1690 -26 1466 -26 
z
" transform="scale(0.015625)"/>
       </defs>
       <use xlink:href="#CMR17-30" transform="scale(0.996264)"/>
      </g>
     </g>
    </g>
    <g id="xtick_2">
     <g id="line2d_2">
      <g>
       <use xlink:href="#m7bbc0edf66" x="77.731048" y="87.696683" style="stroke: #000000; stroke-width: 0.8"/>
      </g>
     </g>
     <g id="text_2">
      <!-- 100 -->
      <g transform="translate(70.259045 101.615182) scale(0.1 -0.1)">
       <defs>
        <path id="CMR17-31" d="M 1702 4058 
C 1702 4192 1696 4192 1606 4192 
C 1357 3916 979 3827 621 3827 
C 602 3827 570 3827 563 3808 
C 557 3795 557 3782 557 3648 
C 755 3648 1088 3686 1344 3839 
L 1344 461 
C 1344 236 1331 160 781 160 
L 589 160 
L 589 0 
C 896 0 1216 0 1523 0 
C 1830 0 2150 0 2458 0 
L 2458 160 
L 2266 160 
C 1715 160 1702 230 1702 458 
L 1702 4058 
z
" transform="scale(0.015625)"/>
       </defs>
       <use xlink:href="#CMR17-31" transform="scale(0.996264)"/>
       <use xlink:href="#CMR17-30" transform="translate(45.690477 0) scale(0.996264)"/>
       <use xlink:href="#CMR17-30" transform="translate(91.380954 0) scale(0.996264)"/>
      </g>
     </g>
    </g>
    <g id="xtick_3">
     <g id="line2d_3">
      <g>
       <use xlink:href="#m7bbc0edf66" x="115.982435" y="87.696683" style="stroke: #000000; stroke-width: 0.8"/>
      </g>
     </g>
     <g id="text_3">
      <!-- 200 -->
      <g transform="translate(108.510433 101.615182) scale(0.1 -0.1)">
       <defs>
        <path id="CMR17-32" d="M 2669 989 
L 2554 989 
C 2490 536 2438 459 2413 420 
C 2381 369 1920 369 1830 369 
L 602 369 
C 832 619 1280 1072 1824 1597 
C 2214 1967 2669 2402 2669 3035 
C 2669 3790 2067 4224 1395 4224 
C 691 4224 262 3604 262 3030 
C 262 2780 448 2748 525 2748 
C 589 2748 781 2787 781 3010 
C 781 3207 614 3264 525 3264 
C 486 3264 448 3258 422 3245 
C 544 3790 915 4058 1306 4058 
C 1862 4058 2227 3617 2227 3035 
C 2227 2479 1901 2000 1536 1584 
L 262 146 
L 262 0 
L 2515 0 
L 2669 989 
z
" transform="scale(0.015625)"/>
       </defs>
       <use xlink:href="#CMR17-32" transform="scale(0.996264)"/>
       <use xlink:href="#CMR17-30" transform="translate(45.690477 0) scale(0.996264)"/>
       <use xlink:href="#CMR17-30" transform="translate(91.380954 0) scale(0.996264)"/>
      </g>
     </g>
    </g>
    <g id="text_4">
     <!-- (a) Download [Mbps] -->
     <g transform="translate(45.901151 115.02434) scale(0.1 -0.1)">
      <defs>
       <path id="CMR17-28" d="M 1958 -1561 
C 1958 -1555 1958 -1542 1939 -1523 
C 1645 -1224 858 -407 858 1581 
C 858 3569 1632 4379 1946 4697 
C 1946 4704 1958 4717 1958 4736 
C 1958 4755 1939 4768 1914 4768 
C 1843 4768 1299 4296 986 3594 
C 666 2887 576 2199 576 1588 
C 576 1128 621 351 1005 -471 
C 1312 -1135 1837 -1600 1914 -1600 
C 1946 -1600 1958 -1587 1958 -1561 
z
" transform="scale(0.015625)"/>
       <path id="CMR17-61" d="M 2304 1653 
C 2304 2072 2304 2294 2035 2543 
C 1798 2752 1523 2816 1306 2816 
C 800 2816 435 2407 435 1971 
C 435 1728 627 1728 666 1728 
C 749 1728 896 1778 896 1954 
C 896 2112 774 2181 666 2181 
C 640 2181 608 2174 589 2168 
C 723 2592 1069 2714 1293 2714 
C 1613 2714 1965 2429 1965 1885 
L 1965 1600 
C 1587 1600 1133 1549 774 1357 
C 371 1133 256 813 256 570 
C 256 77 832 -64 1171 -64 
C 1523 -64 1850 139 1990 511 
C 2003 233 2182 -18 2464 -18 
C 2598 -18 2938 70 2938 567 
L 2938 920 
L 2822 920 
L 2822 562 
C 2822 178 2650 128 2566 128 
C 2304 128 2304 458 2304 738 
L 2304 1653 
z
M 1965 870 
C 1965 317 1568 38 1216 38 
C 896 38 646 275 646 570 
C 646 761 730 1100 1101 1305 
C 1408 1478 1760 1504 1965 1504 
L 1965 870 
z
" transform="scale(0.015625)"/>
       <path id="CMR17-29" d="M 1683 1581 
C 1683 2040 1638 2817 1254 3639 
C 947 4303 422 4768 346 4768 
C 326 4768 301 4761 301 4729 
C 301 4717 307 4710 314 4697 
C 621 4378 1402 3568 1402 1584 
C 1402 -407 627 -1217 314 -1537 
C 307 -1549 301 -1556 301 -1568 
C 301 -1600 326 -1600 346 -1600 
C 416 -1600 960 -1128 1274 -426 
C 1594 281 1683 969 1683 1581 
z
" transform="scale(0.015625)"/>
       <path id="CMR17-44" d="M 333 4352 
L 333 4186 
C 774 4186 845 4186 845 3900 
L 845 452 
C 845 166 774 166 333 166 
L 333 0 
L 2368 0 
C 3398 0 4224 943 4224 2141 
C 4224 3346 3411 4352 2368 4352 
L 333 4352 
z
M 1523 166 
C 1267 166 1254 197 1254 414 
L 1254 3938 
C 1254 4155 1267 4186 1523 4186 
L 2240 4186 
C 2771 4186 3750 3874 3750 2141 
C 3750 1242 3488 879 3366 707 
C 3213 510 2848 166 2240 166 
L 1523 166 
z
" transform="scale(0.015625)"/>
       <path id="CMR17-6f" d="M 2758 1356 
C 2758 2176 2163 2816 1466 2816 
C 768 2816 173 2176 173 1356 
C 173 551 768 -64 1466 -64 
C 2163 -64 2758 551 2758 1356 
z
M 1466 51 
C 1165 51 909 230 762 480 
C 602 767 582 1126 582 1408 
C 582 1677 595 2010 762 2298 
C 890 2509 1139 2714 1466 2714 
C 1754 2714 1997 2554 2150 2330 
C 2349 2029 2349 1607 2349 1408 
C 2349 1158 2336 775 2163 467 
C 1984 173 1709 51 1466 51 
z
" transform="scale(0.015625)"/>
       <path id="CMR17-77" d="M 3725 2183 
C 3853 2560 4109 2560 4205 2560 
L 4205 2732 
C 4077 2732 3949 2732 3821 2732 
C 3699 2732 3424 2732 3315 2738 
L 3315 2560 
C 3514 2560 3622 2445 3622 2286 
C 3622 2241 3610 2184 3597 2140 
L 2995 407 
L 2342 2275 
C 2330 2319 2310 2370 2310 2395 
C 2310 2560 2528 2560 2630 2560 
L 2630 2738 
C 2483 2732 2214 2732 2061 2732 
C 1901 2732 1734 2732 1587 2738 
L 1587 2560 
C 1939 2560 1939 2547 2074 2149 
L 1485 451 
L 851 2281 
C 819 2363 819 2376 819 2395 
C 819 2560 1037 2560 1139 2560 
L 1139 2738 
C 986 2732 717 2732 557 2732 
C 416 2732 198 2732 64 2738 
L 64 2560 
C 346 2560 416 2541 486 2331 
L 1274 49 
C 1299 -33 1318 -52 1370 -52 
C 1414 -52 1440 -39 1472 56 
L 2131 1980 
L 2797 56 
C 2829 -39 2854 -52 2899 -52 
C 2950 -52 2970 -33 2995 50 
L 3725 2183 
z
" transform="scale(0.015625)"/>
       <path id="CMR17-6e" d="M 2656 1933 
C 2656 2259 2592 2790 1837 2790 
C 1331 2790 1069 2400 973 2144 
L 966 2144 
L 966 2790 
L 211 2720 
L 211 2554 
C 589 2554 646 2515 646 2208 
L 646 428 
C 646 184 621 153 211 153 
L 211 -13 
C 365 0 646 0 813 0 
C 979 0 1267 0 1421 -13 
L 1421 153 
C 1011 153 986 178 986 428 
L 986 1658 
C 986 2247 1344 2688 1792 2688 
C 2266 2688 2317 2266 2317 1958 
L 2317 428 
C 2317 184 2291 153 1882 153 
L 1882 -13 
C 2035 0 2317 0 2483 0 
C 2650 0 2938 0 3091 -13 
L 3091 153 
C 2682 153 2656 178 2656 428 
L 2656 1933 
z
" transform="scale(0.015625)"/>
       <path id="CMR17-6c" d="M 979 4396 
L 218 4326 
L 218 4160 
C 595 4160 653 4122 653 3817 
L 653 426 
C 653 184 627 153 218 153 
L 218 -13 
C 371 0 653 0 813 0 
C 979 0 1261 0 1414 -13 
L 1414 153 
C 1005 153 979 178 979 426 
L 979 4396 
z
" transform="scale(0.015625)"/>
       <path id="CMR17-64" d="M 1869 4326 
L 1869 4160 
C 2246 4160 2304 4122 2304 3820 
L 2304 2345 
C 2278 2377 2016 2790 1498 2790 
C 845 2790 211 2208 211 1364 
C 211 525 806 -64 1434 -64 
C 1978 -64 2259 337 2291 380 
L 2291 -63 
L 3066 -63 
L 3066 128 
C 2688 128 2630 166 2630 473 
L 2630 4396 
L 1869 4326 
z
M 2291 755 
C 2291 563 2176 390 2029 262 
C 1811 70 1594 38 1472 38 
C 1286 38 621 134 621 1356 
C 621 2612 1363 2688 1530 2688 
C 1824 2688 2061 2522 2208 2291 
C 2291 2157 2291 2138 2291 2023 
L 2291 755 
z
" transform="scale(0.015625)"/>
       <path id="CMR17-5b" d="M 1504 -1600 
L 1504 -1377 
L 902 -1377 
L 902 4544 
L 1504 4544 
L 1504 4767 
L 678 4767 
L 678 -1600 
L 1504 -1600 
z
" transform="scale(0.015625)"/>
       <path id="CMR17-4d" d="M 1338 4224 
C 1299 4320 1293 4320 1158 4320 
L 339 4320 
L 339 4160 
C 781 4160 851 4160 851 3875 
L 851 610 
C 851 451 851 153 339 153 
L 339 -13 
C 486 0 755 0 915 0 
C 1075 0 1344 0 1491 -13 
L 1491 153 
C 979 153 979 451 979 610 
L 979 4135 
L 986 4135 
L 2490 89 
C 2515 25 2528 -13 2579 -13 
C 2630 -13 2643 25 2669 89 
L 4186 4166 
L 4192 4166 
L 4192 438 
C 4192 153 4122 153 3680 153 
L 3680 -13 
C 3853 0 4198 0 4384 0 
C 4570 0 4922 0 5094 -13 
L 5094 153 
C 4653 153 4582 153 4582 438 
L 4582 3875 
C 4582 4160 4653 4160 5094 4160 
L 5094 4320 
L 4282 4320 
C 4147 4320 4141 4314 4102 4218 
L 2720 502 
L 1338 4224 
z
" transform="scale(0.015625)"/>
       <path id="CMR17-62" d="M 960 4396 
L 198 4326 
L 198 4160 
C 576 4160 634 4122 634 3817 
L 634 -13 
L 749 -13 
L 934 441 
C 1120 141 1395 -64 1766 -64 
C 2406 -64 3053 500 3053 1370 
C 3053 2188 2477 2790 1830 2790 
C 1434 2790 1152 2579 960 2330 
L 960 4396 
z
M 973 2004 
C 973 2118 973 2138 1062 2272 
C 1312 2657 1670 2688 1792 2688 
C 1984 2688 2643 2585 2643 1376 
C 2643 108 1888 38 1734 38 
C 1536 38 1248 114 1043 486 
C 973 608 973 621 973 735 
L 973 2004 
z
" transform="scale(0.015625)"/>
       <path id="CMR17-70" d="M 1408 -1063 
C 998 -1063 973 -1037 973 -789 
L 973 402 
C 1158 134 1427 -38 1766 -38 
C 2406 -38 3053 523 3053 1388 
C 3053 2191 2496 2802 1837 2802 
C 1453 2802 1139 2592 960 2338 
L 960 2802 
L 198 2732 
L 198 2567 
C 576 2567 634 2528 634 2223 
L 634 -789 
C 634 -1031 608 -1063 198 -1063 
L 198 -1228 
C 352 -1216 634 -1216 800 -1216 
C 966 -1216 1254 -1216 1408 -1228 
L 1408 -1063 
z
M 973 2012 
C 973 2102 973 2235 1222 2471 
C 1254 2497 1472 2688 1792 2688 
C 2259 2688 2643 2108 2643 1382 
C 2643 656 2234 64 1728 64 
C 1498 64 1248 172 1056 472 
C 973 612 973 650 973 752 
L 973 2012 
z
" transform="scale(0.015625)"/>
       <path id="CMR17-73" d="M 1978 2697 
C 1978 2813 1971 2819 1933 2819 
C 1907 2819 1901 2813 1824 2717 
C 1805 2691 1747 2626 1728 2601 
C 1523 2819 1235 2819 1126 2819 
C 416 2819 160 2447 160 2076 
C 160 1498 813 1365 998 1325 
C 1402 1243 1542 1217 1677 1101 
C 1760 1025 1901 884 1901 654 
C 1901 384 1747 38 1158 38 
C 602 38 403 460 288 1021 
C 269 1110 269 1117 218 1117 
C 166 1117 160 1110 160 983 
L 160 63 
C 160 -51 166 -58 205 -58 
C 237 -58 243 -51 275 0 
C 314 57 410 211 448 276 
C 576 103 800 -64 1158 -64 
C 1792 -64 2131 283 2131 784 
C 2131 1112 1958 1285 1875 1362 
C 1683 1561 1459 1606 1190 1657 
C 838 1735 390 1825 390 2217 
C 390 2383 480 2737 1126 2737 
C 1811 2737 1850 2094 1862 1888 
C 1869 1856 1901 1849 1920 1849 
C 1978 1849 1978 1869 1978 1978 
L 1978 2697 
z
" transform="scale(0.015625)"/>
       <path id="CMR17-5d" d="M 915 4767 
L 90 4767 
L 90 4544 
L 691 4544 
L 691 -1377 
L 90 -1377 
L 90 -1600 
L 915 -1600 
L 915 4767 
z
" transform="scale(0.015625)"/>
      </defs>
      <use xlink:href="#CMR17-28" transform="scale(0.996264)"/>
      <use xlink:href="#CMR17-61" transform="translate(35.280768 0) scale(0.996264)"/>
      <use xlink:href="#CMR17-29" transform="translate(80.971245 0) scale(0.996264)"/>
      <use xlink:href="#CMR17-44" transform="translate(146.327979 0) scale(0.996264)"/>
      <use xlink:href="#CMR17-6f" transform="translate(216.721535 0) scale(0.996264)"/>
      <use xlink:href="#CMR17-77" transform="translate(259.809558 0) scale(0.996264)"/>
      <use xlink:href="#CMR17-6e" transform="translate(326.319439 0) scale(0.996264)"/>
      <use xlink:href="#CMR17-6c" transform="translate(377.214808 0) scale(0.996264)"/>
      <use xlink:href="#CMR17-6f" transform="translate(402.085867 0) scale(0.996264)"/>
      <use xlink:href="#CMR17-61" transform="translate(447.776344 0) scale(0.996264)"/>
      <use xlink:href="#CMR17-64" transform="translate(493.466821 0) scale(0.996264)"/>
      <use xlink:href="#CMR17-5b" transform="translate(574.438157 0) scale(0.996264)"/>
      <use xlink:href="#CMR17-4d" transform="translate(599.309216 0) scale(0.996264)"/>
      <use xlink:href="#CMR17-62" transform="translate(683.996156 0) scale(0.996264)"/>
      <use xlink:href="#CMR17-70" transform="translate(734.891526 0) scale(0.996264)"/>
      <use xlink:href="#CMR17-73" transform="translate(785.786896 0) scale(0.996264)"/>
      <use xlink:href="#CMR17-5d" transform="translate(821.588234 0) scale(0.996264)"/>
     </g>
    </g>
   </g>
   <g id="matplotlib.axis_2">
    <g id="ytick_1">
     <g id="line2d_4">
      <path d="M 37.567091 84.797516 
L 146.583545 84.797516 
" clip-path="url(#pa3ff1c17ee)" style="fill: none; stroke: #808080; stroke-opacity: 0.7; stroke-width: 0.5; stroke-linecap: square"/>
     </g>
     <g id="line2d_5">
      <defs>
       <path id="me456cea1e8" d="M 0 0 
L -3.5 0 
" style="stroke: #000000; stroke-width: 0.8"/>
      </defs>
      <g>
       <use xlink:href="#me456cea1e8" x="37.567091" y="84.797516" style="stroke: #000000; stroke-width: 0.8"/>
      </g>
     </g>
     <g id="text_5">
      <!-- 0.00 -->
      <g transform="translate(12.855677 88.256765) scale(0.1 -0.1)">
       <defs>
        <path id="CMR17-2e" d="M 1062 261 
C 1062 420 934 522 800 522 
C 672 522 538 420 538 261 
C 538 102 666 0 800 0 
C 928 0 1062 102 1062 261 
z
" transform="scale(0.015625)"/>
       </defs>
       <use xlink:href="#CMR17-30" transform="scale(0.996264)"/>
       <use xlink:href="#CMR17-2e" transform="translate(45.690477 0) scale(0.996264)"/>
       <use xlink:href="#CMR17-30" transform="translate(70.561536 0) scale(0.996264)"/>
       <use xlink:href="#CMR17-30" transform="translate(116.252013 0) scale(0.996264)"/>
      </g>
     </g>
    </g>
    <g id="ytick_2">
     <g id="line2d_6">
      <path d="M 37.567091 70.301679 
L 146.583545 70.301679 
" clip-path="url(#pa3ff1c17ee)" style="fill: none; stroke: #808080; stroke-opacity: 0.7; stroke-width: 0.5; stroke-linecap: square"/>
     </g>
     <g id="line2d_7">
      <g>
       <use xlink:href="#me456cea1e8" x="37.567091" y="70.301679" style="stroke: #000000; stroke-width: 0.8"/>
      </g>
     </g>
     <g id="text_6">
      <!-- 0.25 -->
      <g transform="translate(12.855677 73.760928) scale(0.1 -0.1)">
       <defs>
        <path id="CMR17-35" d="M 730 3692 
C 794 3666 1056 3584 1325 3584 
C 1920 3584 2246 3911 2432 4100 
C 2432 4157 2432 4192 2394 4192 
C 2387 4192 2374 4192 2323 4163 
C 2099 4058 1837 3973 1517 3973 
C 1325 3973 1037 3999 723 4139 
C 653 4171 640 4171 634 4171 
C 602 4171 595 4164 595 4037 
L 595 2203 
C 595 2089 595 2057 659 2057 
C 691 2057 704 2070 736 2114 
C 941 2401 1222 2522 1542 2522 
C 1766 2522 2246 2382 2246 1289 
C 2246 1085 2246 715 2054 421 
C 1894 159 1645 25 1370 25 
C 947 25 518 320 403 814 
C 429 807 480 795 506 795 
C 589 795 749 840 749 1038 
C 749 1210 627 1280 506 1280 
C 358 1280 262 1190 262 1011 
C 262 454 704 -128 1382 -128 
C 2042 -128 2669 440 2669 1264 
C 2669 2030 2170 2624 1549 2624 
C 1222 2624 947 2503 730 2274 
L 730 3692 
z
" transform="scale(0.015625)"/>
       </defs>
       <use xlink:href="#CMR17-30" transform="scale(0.996264)"/>
       <use xlink:href="#CMR17-2e" transform="translate(45.690477 0) scale(0.996264)"/>
       <use xlink:href="#CMR17-32" transform="translate(70.561536 0) scale(0.996264)"/>
       <use xlink:href="#CMR17-35" transform="translate(116.252013 0) scale(0.996264)"/>
      </g>
     </g>
    </g>
    <g id="ytick_3">
     <g id="line2d_8">
      <path d="M 37.567091 55.805842 
L 146.583545 55.805842 
" clip-path="url(#pa3ff1c17ee)" style="fill: none; stroke: #808080; stroke-opacity: 0.7; stroke-width: 0.5; stroke-linecap: square"/>
     </g>
     <g id="line2d_9">
      <g>
       <use xlink:href="#me456cea1e8" x="37.567091" y="55.805842" style="stroke: #000000; stroke-width: 0.8"/>
      </g>
     </g>
     <g id="text_7">
      <!-- 0.50 -->
      <g transform="translate(12.855677 59.265091) scale(0.1 -0.1)">
       <use xlink:href="#CMR17-30" transform="scale(0.996264)"/>
       <use xlink:href="#CMR17-2e" transform="translate(45.690477 0) scale(0.996264)"/>
       <use xlink:href="#CMR17-35" transform="translate(70.561536 0) scale(0.996264)"/>
       <use xlink:href="#CMR17-30" transform="translate(116.252013 0) scale(0.996264)"/>
      </g>
     </g>
    </g>
    <g id="ytick_4">
     <g id="line2d_10">
      <path d="M 37.567091 41.310005 
L 146.583545 41.310005 
" clip-path="url(#pa3ff1c17ee)" style="fill: none; stroke: #808080; stroke-opacity: 0.7; stroke-width: 0.5; stroke-linecap: square"/>
     </g>
     <g id="line2d_11">
      <g>
       <use xlink:href="#me456cea1e8" x="37.567091" y="41.310005" style="stroke: #000000; stroke-width: 0.8"/>
      </g>
     </g>
     <g id="text_8">
      <!-- 0.75 -->
      <g transform="translate(12.855677 44.769254) scale(0.1 -0.1)">
       <defs>
        <path id="CMR17-37" d="M 2886 3941 
L 2886 4081 
L 1382 4081 
C 634 4081 621 4165 595 4288 
L 480 4288 
L 294 3094 
L 410 3094 
C 429 3215 474 3540 550 3661 
C 589 3712 1062 3712 1171 3712 
L 2579 3712 
L 1869 2661 
C 1395 1954 1069 999 1069 165 
C 1069 89 1069 -128 1299 -128 
C 1530 -128 1530 89 1530 171 
L 1530 465 
C 1530 1508 1709 2196 2003 2636 
L 2886 3941 
z
" transform="scale(0.015625)"/>
       </defs>
       <use xlink:href="#CMR17-30" transform="scale(0.996264)"/>
       <use xlink:href="#CMR17-2e" transform="translate(45.690477 0) scale(0.996264)"/>
       <use xlink:href="#CMR17-37" transform="translate(70.561536 0) scale(0.996264)"/>
       <use xlink:href="#CMR17-35" transform="translate(116.252013 0) scale(0.996264)"/>
      </g>
     </g>
    </g>
    <g id="ytick_5">
     <g id="line2d_12">
      <path d="M 37.567091 26.814167 
L 146.583545 26.814167 
" clip-path="url(#pa3ff1c17ee)" style="fill: none; stroke: #808080; stroke-opacity: 0.7; stroke-width: 0.5; stroke-linecap: square"/>
     </g>
     <g id="line2d_13">
      <g>
       <use xlink:href="#me456cea1e8" x="37.567091" y="26.814167" style="stroke: #000000; stroke-width: 0.8"/>
      </g>
     </g>
     <g id="text_9">
      <!-- 1.00 -->
      <g transform="translate(12.855677 30.273417) scale(0.1 -0.1)">
       <use xlink:href="#CMR17-31" transform="scale(0.996264)"/>
       <use xlink:href="#CMR17-2e" transform="translate(45.690477 0) scale(0.996264)"/>
       <use xlink:href="#CMR17-30" transform="translate(70.561536 0) scale(0.996264)"/>
       <use xlink:href="#CMR17-30" transform="translate(116.252013 0) scale(0.996264)"/>
      </g>
     </g>
    </g>
    <g id="text_10">
     <!-- Percentile -->
     <g transform="translate(6.918498 77.197866) rotate(-90) scale(0.1 -0.1)">
      <defs>
       <path id="CMR17-50" d="M 1267 2042 
L 2291 2042 
C 3117 2042 3718 2578 3718 3184 
C 3718 3791 3130 4352 2291 4352 
L 333 4352 
L 333 4186 
C 774 4186 845 4186 845 3899 
L 845 446 
C 845 160 774 160 333 160 
L 333 0 
C 518 0 858 0 1056 0 
C 1254 0 1594 0 1779 0 
L 1779 160 
C 1338 160 1267 160 1267 446 
L 1267 2042 
z
M 1254 2176 
L 1254 3938 
C 1254 4155 1267 4186 1523 4186 
L 2170 4186 
C 2995 4186 3232 3714 3232 3184 
C 3232 2604 2950 2176 2170 2176 
L 1254 2176 
z
" transform="scale(0.015625)"/>
       <path id="CMR17-65" d="M 2438 1472 
C 2464 1498 2464 1511 2464 1576 
C 2464 2238 2118 2816 1389 2816 
C 710 2816 173 2169 173 1383 
C 173 551 781 -64 1459 -64 
C 2176 -64 2458 607 2458 740 
C 2458 784 2419 784 2406 784 
C 2362 784 2355 771 2330 696 
C 2189 265 1837 51 1504 51 
C 1229 51 954 203 781 480 
C 582 803 582 1176 582 1472 
L 2438 1472 
z
M 589 1568 
C 634 2505 1126 2714 1382 2714 
C 1818 2714 2112 2297 2118 1568 
L 589 1568 
z
" transform="scale(0.015625)"/>
       <path id="CMR17-72" d="M 960 1497 
C 960 2112 1222 2688 1702 2688 
C 1747 2688 1792 2682 1837 2662 
C 1837 2662 1696 2617 1696 2452 
C 1696 2298 1818 2234 1914 2234 
C 1990 2234 2131 2279 2131 2458 
C 2131 2663 1926 2790 1709 2790 
C 1222 2790 1011 2317 947 2093 
L 941 2093 
L 941 2790 
L 198 2720 
L 198 2554 
C 576 2554 634 2515 634 2208 
L 634 428 
C 634 184 608 153 198 153 
L 198 -13 
C 352 0 646 0 813 0 
C 998 0 1325 0 1498 -13 
L 1498 153 
C 1037 153 960 153 960 440 
L 960 1497 
z
" transform="scale(0.015625)"/>
       <path id="CMR17-63" d="M 2234 2240 
C 2112 2240 1933 2240 1933 2017 
C 1933 1838 2080 1787 2163 1787 
C 2208 1787 2394 1807 2394 2024 
C 2394 2467 1958 2803 1466 2803 
C 787 2803 211 2178 211 1363 
C 211 516 813 -64 1466 -64 
C 2259 -64 2458 677 2458 748 
C 2458 774 2451 793 2406 793 
C 2362 793 2355 787 2330 703 
C 2163 180 1798 51 1523 51 
C 1114 51 621 427 621 1369 
C 621 2338 1094 2688 1472 2688 
C 1722 2688 2093 2573 2234 2240 
z
" transform="scale(0.015625)"/>
       <path id="CMR17-74" d="M 966 2560 
L 1862 2560 
L 1862 2725 
L 966 2725 
L 966 3904 
L 851 3904 
C 838 3245 614 2668 70 2668 
L 70 2560 
L 627 2560 
L 627 771 
C 627 650 627 -64 1370 -64 
C 1747 -64 1965 306 1965 777 
L 1965 1140 
L 1850 1140 
L 1850 783 
C 1850 344 1677 51 1408 51 
C 1222 51 966 178 966 758 
L 966 2560 
z
" transform="scale(0.015625)"/>
       <path id="CMR17-69" d="M 992 3909 
C 992 4049 877 4170 730 4170 
C 589 4170 467 4056 467 3909 
C 467 3769 582 3648 730 3648 
C 870 3648 992 3763 992 3909 
z
M 243 2706 
L 243 2541 
C 602 2541 653 2502 653 2197 
L 653 427 
C 653 184 627 153 218 153 
L 218 -13 
C 371 0 646 0 806 0 
C 960 0 1222 0 1370 -13 
L 1370 153 
C 992 153 979 191 979 420 
L 979 2776 
L 243 2706 
z
" transform="scale(0.015625)"/>
      </defs>
      <use xlink:href="#CMR17-50" transform="scale(0.996264)"/>
      <use xlink:href="#CMR17-65" transform="translate(59.983847 0) scale(0.996264)"/>
      <use xlink:href="#CMR17-72" transform="translate(100.469507 0) scale(0.996264)"/>
      <use xlink:href="#CMR17-63" transform="translate(135.750275 0) scale(0.996264)"/>
      <use xlink:href="#CMR17-65" transform="translate(176.235935 0) scale(0.996264)"/>
      <use xlink:href="#CMR17-6e" transform="translate(216.721596 0) scale(0.996264)"/>
      <use xlink:href="#CMR17-74" transform="translate(265.014512 0) scale(0.996264)"/>
      <use xlink:href="#CMR17-69" transform="translate(300.295279 0) scale(0.996264)"/>
      <use xlink:href="#CMR17-6c" transform="translate(325.166338 0) scale(0.996264)"/>
      <use xlink:href="#CMR17-65" transform="translate(350.037396 0) scale(0.996264)"/>
     </g>
    </g>
   </g>
   <g id="line2d_14">
    <path d="M 39.502386 84.797327 
L 39.592699 84.65351 
L 40.970169 72.663453 
L 41.035339 72.281328 
L 41.158168 71.581711 
L 41.287327 70.76568 
L 41.41279 70.038094 
L 41.48879 69.66334 
L 41.668445 68.801008 
L 41.771054 68.371826 
L 42.234885 66.550782 
L 42.295486 66.328726 
L 42.629468 65.140587 
L 42.753755 64.716319 
L 43.00199 63.826396 
L 43.368165 62.61709 
L 43.762812 61.624927 
L 43.862799 61.385485 
L 43.999641 61.073095 
L 44.317353 60.383305 
L 44.436576 60.139895 
L 44.528437 59.950155 
L 44.938188 59.1294 
L 45.375962 58.280675 
L 46.103978 57.005036 
L 46.250916 56.76087 
L 46.414646 56.482119 
L 46.79983 55.833339 
L 47.54861 54.681106 
L 47.687099 54.479461 
L 49.383867 52.174051 
L 49.520438 52.01247 
L 49.721947 51.768304 
L 49.88449 51.556264 
L 50.000174 51.416794 
L 50.132476 51.251812 
L 51.192095 50.040806 
L 51.322545 49.897934 
L 51.603104 49.587812 
L 51.858285 49.302636 
L 52.058008 49.102503 
L 52.172348 48.978529 
L 52.446773 48.675778 
L 53.119832 47.97824 
L 53.260717 47.828187 
L 53.828071 47.251031 
L 54.074094 46.996282 
L 54.374109 46.687672 
L 54.783797 46.289672 
L 54.941232 46.134328 
L 55.354419 45.739163 
L 55.511915 45.597426 
L 55.723651 45.404285 
L 55.937317 45.208687 
L 56.048415 45.103612 
L 56.211082 44.946756 
L 56.327596 44.845838 
L 56.864504 44.376592 
L 57.036492 44.22824 
L 57.154167 44.12978 
L 57.654506 43.695874 
L 57.773521 43.598358 
L 57.970652 43.432998 
L 59.029071 42.579926 
L 59.149795 42.4826 
L 60.231433 41.664679 
L 60.418952 41.529934 
L 60.55368 41.437899 
L 67.870084 36.907965 
L 68.108887 36.776432 
L 68.452038 36.58726 
L 68.844867 36.381268 
L 69.107936 36.231971 
L 69.350279 36.094958 
L 69.944862 35.777466 
L 70.331176 35.565426 
L 70.807777 35.315023 
L 71.18409 35.120748 
L 71.482081 34.972585 
L 72.143459 34.645454 
L 72.571183 34.423966 
L 72.980276 34.233659 
L 73.157432 34.14049 
L 73.517884 33.961523 
L 73.806365 33.822998 
L 75.086248 33.19803 
L 75.43748 33.047977 
L 83.651677 30.577396 
L 84.824897 30.278802 
L 84.944581 30.248753 
L 89.734087 29.234101 
L 90.525458 29.096521 
L 90.673862 29.071764 
L 92.926014 28.71742 
L 93.14202 28.683592 
L 94.419358 28.502357 
L 99.290706 27.951848 
L 100.004709 27.879278 
L 102.842323 27.645884 
L 103.445497 27.602796 
L 114.993301 27.038113 
L 131.47533 26.838357 
L 146.635284 26.81738 
L 146.635284 26.81738 
" clip-path="url(#pa3ff1c17ee)" style="fill: none; stroke: #1f77b4; stroke-width: 1.5; stroke-linecap: square"/>
   </g>
   <g id="line2d_15">
    <path d="M 39.488082 84.797379 
L 39.595354 84.685583 
L 39.729878 83.819917 
L 39.857827 82.907921 
L 39.922204 82.488345 
L 40.180262 80.844071 
L 42.015243 73.100367 
L 42.144479 72.699924 
L 42.686072 71.045264 
L 42.763254 70.822219 
L 42.905323 70.394443 
L 43.20881 69.439805 
L 43.453169 68.865246 
L 43.581284 68.562659 
L 43.785409 68.101672 
L 43.947826 67.729794 
L 44.034244 67.549937 
L 45.650774 64.332186 
L 45.778766 64.09233 
L 45.916524 63.847008 
L 46.011272 63.674394 
L 46.132113 63.467476 
L 47.668099 61.017399 
L 47.756547 60.878816 
L 47.88021 60.709345 
L 48.014181 60.526481 
L 48.387922 60.021213 
L 48.531035 59.822496 
L 48.66321 59.648105 
L 48.81954 59.441871 
L 49.028398 59.163884 
L 49.161938 58.997011 
L 51.747525 55.80181 
L 51.869814 55.658717 
L 56.907011 50.216666 
L 57.044013 50.078766 
L 57.160559 49.968611 
L 60.267295 47.071623 
L 60.482409 46.898189 
L 61.072476 46.435836 
L 61.400454 46.195434 
L 61.511612 46.113978 
L 61.735663 45.955988 
L 61.848224 45.875353 
L 62.174302 45.636045 
L 62.463913 45.42407 
L 62.802724 45.181754 
L 63.012088 45.042351 
L 63.300751 44.856617 
L 63.604046 44.66405 
L 64.216205 44.310622 
L 64.355558 44.230533 
L 64.862203 43.943664 
L 65.223847 43.750823 
L 65.382056 43.668958 
L 75.192691 38.631586 
L 75.318217 38.552454 
L 77.836299 37.624604 
L 78.725641 37.336367 
L 79.803941 36.992916 
L 92.260981 33.41422 
L 93.30145 33.142794 
L 93.481328 33.095507 
L 94.217785 32.890502 
L 94.710156 32.772693 
L 95.584118 32.558805 
L 96.123896 32.426372 
L 96.874373 32.244738 
L 98.439218 31.872176 
L 98.96855 31.74357 
L 100.972166 31.305544 
L 101.090506 31.279303 
L 103.323908 30.788796 
L 103.638712 30.720597 
L 104.457035 30.54197 
L 108.327584 29.77088 
L 109.358259 29.572435 
L 109.846394 29.49221 
L 110.818861 29.325063 
L 111.216524 29.260282 
L 112.114232 29.113088 
L 112.313785 29.079331 
L 113.436169 28.911911 
L 115.122104 28.668775 
L 116.37147 28.512015 
L 116.488657 28.497255 
L 119.030599 28.208745 
L 120.89715 28.015631 
L 122.929317 27.829897 
L 123.574814 27.773452 
L 134.953591 27.116344 
L 146.58989 26.884142 
L 146.58989 26.884142 
" clip-path="url(#pa3ff1c17ee)" style="fill: none; stroke-dasharray: 1.5,2.475; stroke-dashoffset: 0; stroke: #ff7f0e; stroke-width: 1.5"/>
   </g>
   <g id="line2d_16">
    <path d="M 39.515772 84.797452 
L 39.637385 84.682001 
L 39.711538 84.458651 
L 41.685038 78.53947 
L 41.840566 78.156367 
L 42.01985 77.713539 
L 42.422622 76.744421 
L 42.563205 76.404668 
L 42.795856 75.842961 
L 42.925691 75.524534 
L 43.009628 75.315973 
L 43.575025 74.001897 
L 44.212951 72.656403 
L 44.356243 72.361841 
L 44.438362 72.195169 
L 46.23835 68.781199 
L 46.362785 68.564831 
L 47.100928 67.306609 
L 47.211511 67.123499 
L 47.413376 66.789267 
L 47.567722 66.535135 
L 47.683657 66.344662 
L 47.807869 66.142067 
L 47.934182 65.9356 
L 48.509007 65.037568 
L 48.630603 64.850079 
L 48.895722 64.437589 
L 49.045737 64.20821 
L 49.381977 63.699754 
L 50.064581 62.69833 
L 50.193256 62.512173 
L 50.430255 62.176292 
L 50.798051 61.657427 
L 51.01936 61.342047 
L 51.224818 61.059861 
L 51.620946 60.522971 
L 51.752225 60.351158 
L 52.078848 59.911504 
L 52.213461 59.733408 
L 52.741322 59.059931 
L 52.929199 58.819191 
L 53.448624 58.158408 
L 53.66589 57.890249 
L 53.801741 57.717802 
L 53.931667 57.560778 
L 54.078116 57.385729 
L 54.296004 57.130136 
L 55.172485 56.098183 
L 55.360352 55.876737 
L 55.543938 55.659798 
L 55.693492 55.490017 
L 57.462365 53.520489 
L 57.71483 53.251568 
L 58.40262 52.523381 
L 58.569166 52.347379 
L 58.68179 52.228945 
L 60.421589 50.4947 
L 60.551581 50.376012 
L 62.673967 48.402232 
L 62.857175 48.242542 
L 65.003276 46.404968 
L 65.138542 46.297768 
L 66.029607 45.584306 
L 66.412618 45.285554 
L 66.572395 45.164962 
L 67.030769 44.807247 
L 67.328325 44.581612 
L 67.623076 44.359087 
L 67.740162 44.274292 
L 67.966318 44.104764 
L 68.079934 44.022571 
L 68.279583 43.876464 
L 68.420559 43.766661 
L 69.050134 43.292162 
L 72.366241 40.962508 
L 72.750197 40.711803 
L 73.271607 40.370273 
L 74.605043 39.500929 
L 75.119841 39.155019 
L 75.374194 38.992029 
L 75.686218 38.802001 
L 76.080597 38.594201 
L 76.309225 38.472403 
L 77.038875 38.096218 
L 78.466319 37.397227 
L 78.878591 37.19698 
L 79.589179 36.864145 
L 79.722015 36.803277 
L 81.719898 35.900548 
L 82.356242 35.619441 
L 84.654661 34.662192 
L 85.120963 34.480668 
L 91.948201 32.099858 
L 92.407971 31.959971 
L 92.59596 31.904117 
L 93.139087 31.749632 
L 93.760398 31.572298 
L 94.236096 31.440154 
L 94.367007 31.40569 
L 95.358214 31.134865 
L 95.701848 31.044167 
L 96.765107 30.778991 
L 96.998151 30.719519 
L 97.782056 30.52873 
L 100.516509 29.918151 
L 101.260196 29.764301 
L 101.521979 29.708765 
L 103.33883 29.363998 
L 104.050821 29.239661 
L 109.309327 28.469964 
L 110.50994 28.32227 
L 110.94504 28.272193 
L 124.678625 27.27648 
L 129.734296 27.104097 
L 133.923325 27.011241 
L 146.610539 26.862722 
L 146.610539 26.862722 
" clip-path="url(#pa3ff1c17ee)" style="fill: none; stroke-dasharray: 5.55,2.4; stroke-dashoffset: 0; stroke: #2ca02c; stroke-width: 1.5"/>
   </g>
   <g id="line2d_17">
    <path d="M 39.491323 84.797408 
L 39.650261 84.658082 
L 41.203043 80.980518 
L 41.275091 80.836332 
L 41.453595 80.509509 
L 41.648809 80.161302 
L 41.768504 79.943024 
L 42.585818 78.518441 
L 42.674348 78.367558 
L 42.880319 78.01179 
L 42.999447 77.786276 
L 43.162138 77.471766 
L 44.25731 75.779979 
L 44.368199 75.617108 
L 44.481856 75.453157 
L 44.578642 75.313182 
L 44.704526 75.128926 
L 45.103292 74.570325 
L 45.287559 74.310898 
L 45.460812 74.078471 
L 50.991832 67.207206 
L 51.130233 67.058376 
L 56.304741 61.326561 
L 56.4503 61.166174 
L 56.595687 61.009999 
L 57.197003 60.35657 
L 57.355704 60.180198 
L 57.596846 59.91267 
L 57.741013 59.753903 
L 57.923156 59.562194 
L 58.349785 59.10933 
L 58.532708 58.92475 
L 58.65362 58.803461 
L 58.796533 58.653766 
L 58.962565 58.481822 
L 59.194836 58.236652 
L 59.901002 57.51734 
L 60.275657 57.144399 
L 60.480837 56.93379 
L 60.739858 56.66313 
L 60.972698 56.43416 
L 61.33543 56.072127 
L 61.864327 55.564289 
L 62.152721 55.288769 
L 62.739447 54.739132 
L 62.931947 54.565893 
L 63.653356 53.909115 
L 63.774044 53.803811 
L 64.127129 53.489409 
L 66.162959 51.786929 
L 66.526149 51.49834 
L 66.642769 51.40956 
L 67.316802 50.889517 
L 67.500977 50.750407 
L 67.714086 50.573495 
L 67.954157 50.381139 
L 68.531424 49.929462 
L 72.868883 46.618143 
L 73.05848 46.476873 
L 73.195219 46.373945 
L 73.376444 46.238939 
L 73.621764 46.060299 
L 74.121826 45.693622 
L 74.286807 45.574709 
L 74.807998 45.177035 
L 75.101774 44.940937 
L 75.324207 44.773853 
L 75.53488 44.625347 
L 76.076106 44.317641 
L 76.194229 44.254566 
L 76.449471 44.121396 
L 76.993362 43.844256 
L 77.507302 43.583209 
L 77.808184 43.435998 
L 82.022745 41.429917 
L 82.138422 41.377318 
L 82.454226 41.227624 
L 82.600517 41.153101 
L 83.307609 40.824766 
L 83.424014 40.769143 
L 84.004445 40.495567 
L 87.405181 38.929714 
L 87.749098 38.777535 
L 88.279466 38.542517 
L 88.751908 38.326507 
L 89.533601 37.965663 
L 89.905703 37.79912 
L 90.03581 37.742741 
L 94.293358 35.939925 
L 94.625239 35.804163 
L 94.742008 35.755453 
L 95.192023 35.573249 
L 97.226595 34.806847 
L 97.467766 34.71191 
L 99.183911 34.07857 
L 99.861471 33.8415 
L 99.975097 33.803266 
L 101.258079 33.35699 
L 101.476074 33.276419 
L 101.981538 33.105987 
L 102.919383 32.797633 
L 103.057313 32.753351 
L 103.658651 32.557647 
L 104.508969 32.295843 
L 106.939277 31.56465 
L 107.114465 31.513996 
L 107.621135 31.368514 
L 107.760628 31.332764 
L 108.376901 31.158768 
L 108.56504 31.107142 
L 109.378924 30.899125 
L 110.503321 30.61734 
L 119.313465 28.861182 
L 121.129156 28.595923 
L 121.462142 28.549265 
L 123.077812 28.336279 
L 124.131552 28.206349 
L 125.510246 28.04553 
L 125.624791 28.034838 
L 127.298924 27.873046 
L 130.429015 27.615779 
L 132.51248 27.471917 
L 135.678315 27.296409 
L 146.586148 26.962026 
L 146.586148 26.962026 
" clip-path="url(#pa3ff1c17ee)" style="fill: none; stroke-dasharray: 9.6,2.4,1.5,2.4; stroke-dashoffset: 0; stroke: #d62728; stroke-width: 1.5"/>
   </g>
   <g id="line2d_18">
    <path d="M 39.535248 84.796261 
L 39.781083 84.458835 
L 40.055844 83.972139 
L 40.165211 83.792764 
L 42.96108 79.448873 
L 43.076486 79.218069 
L 43.340792 78.720083 
L 43.485237 78.470463 
L 48.397749 71.146185 
L 48.529286 70.976844 
L 49.361877 69.964566 
L 49.567509 69.711183 
L 49.71847 69.529299 
L 50.814197 68.226007 
L 51.186785 67.830879 
L 51.397007 67.606347 
L 51.56212 67.405647 
L 51.785396 67.147247 
L 52.188409 66.689401 
L 52.317133 66.553929 
L 52.446935 66.392115 
L 53.296297 65.397398 
L 53.441767 65.229312 
L 57.56605 60.644582 
L 57.702143 60.495312 
L 57.815621 60.382418 
L 58.045785 60.116491 
L 58.218859 59.943388 
L 58.706588 59.471744 
L 59.141623 59.069091 
L 65.221615 54.006445 
L 65.482816 53.803237 
L 65.607907 53.717939 
L 67.318456 52.429699 
L 67.432574 52.331858 
L 67.626719 52.173807 
L 67.812492 52.050879 
L 70.092295 50.395108 
L 70.300457 50.243329 
L 70.448157 50.104093 
L 76.462713 45.356295 
L 76.78792 45.214551 
L 76.899872 45.149324 
L 77.017309 45.110438 
L 77.352018 44.946116 
L 77.490297 44.895941 
L 78.336101 44.532173 
L 78.548493 44.430569 
L 78.914025 44.288825 
L 79.302247 44.152098 
L 79.788909 43.958925 
L 80.116799 43.834742 
L 80.609954 43.632788 
L 80.975931 43.487281 
L 81.48308 43.280309 
L 82.29016 42.935357 
L 82.451951 42.860095 
L 83.077628 42.592914 
L 85.465246 41.703564 
L 85.81523 41.573109 
L 86.210678 41.423839 
L 87.722279 40.848082 
L 87.833607 40.786618 
L 88.259369 40.595953 
L 88.416925 40.535743 
L 88.98511 40.332535 
L 89.77468 40.03274 
L 89.982447 39.957478 
L 90.677364 39.715384 
L 91.06944 39.587438 
L 91.48659 39.42437 
L 91.72717 39.330292 
L 92.190581 39.14339 
L 92.80326 38.869937 
L 92.945303 38.812236 
L 93.377091 38.65544 
L 93.555751 38.597739 
L 96.76212 37.428664 
L 97.227133 37.225455 
L 110.464406 32.805048 
L 110.861634 32.674594 
L 111.06716 32.614384 
L 115.68672 31.496738 
L 115.924131 31.444055 
L 116.781585 31.284749 
L 116.981078 31.24461 
L 117.670636 31.109137 
L 118.649674 30.877079 
L 119.642551 30.683905 
L 120.534916 30.478188 
L 121.545735 30.263691 
L 121.872215 30.190937 
L 123.054333 29.976439 
L 123.515563 29.892396 
L 124.906056 29.637759 
L 125.784874 29.480962 
L 127.306496 29.211272 
L 128.243754 29.043187 
L 130.038027 28.784786 
L 132.808528 28.429799 
L 134.150784 28.265476 
L 134.268633 28.247915 
L 139.156659 27.793832 
L 140.156802 27.71857 
L 142.624065 27.559264 
L 142.679248 27.552993 
L 145.931908 27.386161 
L 146.528765 27.364837 
L 146.639114 27.362328 
L 146.639114 27.362328 
" clip-path="url(#pa3ff1c17ee)" style="fill: none; stroke: #9467bd; stroke-width: 1.5; stroke-linecap: square"/>
   </g>
   <g id="line2d_19">
    <path d="M 39.544144 84.795329 
L 39.620758 84.666317 
L 39.767161 84.047495 
L 40.089807 82.586815 
L 40.265235 81.8849 
L 40.402241 81.454131 
L 40.644955 80.607898 
L 40.706266 80.432966 
L 40.83137 80.067796 
L 40.983851 79.564867 
L 41.104222 79.219376 
L 41.883924 77.061155 
L 42.090523 76.540732 
L 42.213848 76.263028 
L 42.844055 74.644909 
L 42.926555 74.42187 
L 43.057497 74.113553 
L 43.623567 72.906523 
L 43.962235 72.228662 
L 44.088161 71.959705 
L 45.137086 69.834283 
L 45.223675 69.665911 
L 45.478276 69.141115 
L 45.601101 68.94869 
L 45.78691 68.620693 
L 45.876751 68.463254 
L 46.501597 67.321824 
L 46.58407 67.162199 
L 46.965131 66.447165 
L 47.450276 65.675278 
L 47.593665 65.428187 
L 47.727007 65.192029 
L 47.864629 64.968991 
L 47.954751 64.833418 
L 48.073413 64.619127 
L 48.220582 64.365476 
L 48.413419 64.105265 
L 48.539711 63.945639 
L 48.924328 63.326818 
L 49.041121 63.140953 
L 49.164318 62.933221 
L 49.306616 62.670823 
L 49.692352 62.170081 
L 49.796351 62.012642 
L 50.109329 61.522833 
L 50.429182 61.137983 
L 50.571523 60.930251 
L 50.861056 60.519162 
L 50.979249 60.35079 
L 51.251235 60.020606 
L 57.281738 52.511656 
L 57.418084 52.358591 
L 57.781736 51.951874 
L 57.942665 51.805369 
L 58.104912 51.612944 
L 58.231303 51.483932 
L 58.626176 51.094708 
L 59.050095 50.668312 
L 59.211672 50.521806 
L 59.583669 50.163196 
L 59.709126 50.04293 
L 60.315963 49.480962 
L 61.254589 48.632542 
L 61.370454 48.54289 
L 61.646927 48.289239 
L 61.756982 48.175533 
L 62.047511 47.917508 
L 62.182088 47.751323 
L 66.929402 44.062448 
L 67.227753 43.86565 
L 67.503058 43.675411 
L 67.778051 43.522346 
L 67.994324 43.36928 
L 68.623952 42.951631 
L 68.851935 42.802939 
L 69.952821 42.155691 
L 70.081866 42.070411 
L 70.334661 41.915159 
L 70.577354 41.744601 
L 70.689816 41.670255 
L 70.989374 41.525936 
L 71.105853 41.442843 
L 71.344143 41.316018 
L 71.935864 40.955221 
L 72.062931 40.869942 
L 72.419337 40.625037 
L 72.611154 40.544131 
L 72.880035 40.371386 
L 73.016741 40.27736 
L 73.542193 39.984349 
L 73.653876 39.91875 
L 76.589908 38.302817 
L 77.016509 38.116952 
L 77.116772 38.086339 
L 77.473325 37.937646 
L 78.085614 37.666502 
L 78.750917 37.415038 
L 78.866354 37.369118 
L 79.933297 36.962401 
L 80.62914 36.684697 
L 81.237661 36.492272 
L 81.345311 36.446352 
L 81.953776 36.227688 
L 82.092751 36.173021 
L 82.805169 35.89313 
L 82.93211 35.838464 
L 84.153533 35.447054 
L 84.902938 35.206523 
L 87.485051 34.351544 
L 87.937424 34.185358 
L 88.818124 33.940454 
L 89.467927 33.754589 
L 90.247645 33.498751 
L 91.823539 33.048301 
L 91.944387 33.002382 
L 92.716881 32.803397 
L 92.834943 32.777157 
L 93.742843 32.540999 
L 98.712499 31.535141 
L 99.507285 31.388635 
L 104.244627 30.489923 
L 105.388862 30.280005 
L 105.679836 30.214405 
L 107.059663 29.98918 
L 107.662824 29.888595 
L 108.616605 29.739903 
L 111.058996 29.429399 
L 111.277557 29.390039 
L 121.194272 28.257355 
L 123.338969 28.05837 
L 125.107324 27.931545 
L 140.331941 27.109365 
L 146.726513 26.973793 
L 146.726513 26.973793 
" clip-path="url(#pa3ff1c17ee)" style="fill: none; stroke-dasharray: 1.5,2.475; stroke-dashoffset: 0; stroke: #8c564b; stroke-width: 1.5"/>
   </g>
   <g id="line2d_20">
    <path d="M 39.47966 84.796973 
L 39.675012 84.105983 
L 39.81482 82.778328 
L 39.836033 82.537676 
L 39.976247 81.156784 
L 40.103475 80.021976 
L 40.232683 78.762224 
L 40.268072 78.485719 
L 40.557884 76.476853 
L 40.704425 75.399083 
L 41.000399 73.865 
L 41.166282 73.125663 
L 41.319539 72.266815 
L 41.44261 71.757808 
L 42.565211 68.133374 
L 42.618918 67.97801 
L 42.771442 67.578735 
L 42.836672 67.393494 
L 43.357169 65.980551 
L 43.469607 65.699701 
L 43.68943 65.199385 
L 43.867945 64.839223 
L 44.173758 64.180285 
L 44.269161 63.977116 
L 44.651462 63.214964 
L 44.990378 62.519085 
L 45.621926 61.274001 
L 45.710733 61.133847 
L 48.320354 56.747803 
L 48.629555 56.271933 
L 48.749311 56.112224 
L 49.552654 54.973612 
L 49.752852 54.673749 
L 49.920845 54.414628 
L 51.925286 51.678919 
L 52.024512 51.550716 
L 52.295506 51.224778 
L 52.69799 50.701104 
L 52.810808 50.54411 
L 56.727154 46.146115 
L 56.908126 45.964133 
L 57.227335 45.644713 
L 57.39953 45.490979 
L 57.53553 45.349196 
L 57.761326 45.13462 
L 58.079722 44.824435 
L 58.220474 44.694603 
L 59.010969 43.965044 
L 59.176019 43.825977 
L 59.299179 43.728196 
L 59.499694 43.577177 
L 59.634168 43.462556 
L 59.92987 43.200175 
L 60.63346 42.629783 
L 60.836414 42.467901 
L 60.95662 42.374465 
L 61.697635 41.839383 
L 61.86995 41.708464 
L 62.23862 41.454232 
L 62.445989 41.311363 
L 62.906664 40.994659 
L 63.227487 40.796923 
L 64.097851 40.264014 
L 64.800315 39.838121 
L 64.91575 39.778366 
L 65.193822 39.622459 
L 69.17677 37.585344 
L 69.517366 37.421831 
L 70.189639 37.112733 
L 70.468695 36.96932 
L 70.925845 36.758547 
L 71.353091 36.594491 
L 71.994553 36.309295 
L 76.377025 34.719802 
L 77.028045 34.559006 
L 80.058381 33.825645 
L 81.227895 33.555659 
L 82.398011 33.272636 
L 83.050369 33.134656 
L 84.775854 32.736467 
L 85.845064 32.508311 
L 86.906924 32.279611 
L 91.039945 31.463135 
L 91.169767 31.43706 
L 91.448277 31.385453 
L 93.084353 31.09917 
L 93.482193 31.037785 
L 94.993388 30.80311 
L 95.105072 30.785183 
L 95.466927 30.723255 
L 96.884103 30.483147 
L 97.032629 30.460331 
L 110.592138 28.63236 
L 112.018297 28.487318 
L 125.573574 27.448661 
L 140.585622 26.948889 
L 146.612898 26.878812 
L 146.612898 26.878812 
" clip-path="url(#pa3ff1c17ee)" style="fill: none; stroke-dasharray: 5.55,2.4; stroke-dashoffset: 0; stroke: #e377c2; stroke-width: 1.5"/>
   </g>
   <g id="patch_3">
    <path d="M 37.567091 87.696683 
L 37.567091 23.915 
" style="fill: none; stroke: #000000; stroke-width: 0.8; stroke-linejoin: miter; stroke-linecap: square"/>
   </g>
   <g id="patch_4">
    <path d="M 146.583545 87.696683 
L 146.583545 23.915 
" style="fill: none; stroke: #000000; stroke-width: 0.8; stroke-linejoin: miter; stroke-linecap: square"/>
   </g>
   <g id="patch_5">
    <path d="M 37.567091 87.696683 
L 146.583545 87.696683 
" style="fill: none; stroke: #000000; stroke-width: 0.8; stroke-linejoin: miter; stroke-linecap: square"/>
   </g>
   <g id="patch_6">
    <path d="M 37.567091 23.915 
L 146.583545 23.915 
" style="fill: none; stroke: #000000; stroke-width: 0.8; stroke-linejoin: miter; stroke-linecap: square"/>
   </g>
  </g>
  <g id="axes_2">
   <g id="patch_7">
    <path d="M 157.383545 87.696683 
L 266.4 87.696683 
L 266.4 23.915 
L 157.383545 23.915 
z
" style="fill: #ffffff"/>
   </g>
   <g id="matplotlib.axis_3">
    <g id="xtick_4">
     <g id="line2d_21">
      <g>
       <use xlink:href="#m7bbc0edf66" x="161.142734" y="87.696683" style="stroke: #000000; stroke-width: 0.8"/>
      </g>
     </g>
     <g id="text_11">
      <!-- 0 -->
      <g transform="translate(158.652066 101.615182) scale(0.1 -0.1)">
       <use xlink:href="#CMR17-30" transform="scale(0.996264)"/>
      </g>
     </g>
    </g>
    <g id="xtick_5">
     <g id="line2d_22">
      <g>
       <use xlink:href="#m7bbc0edf66" x="198.734614" y="87.696683" style="stroke: #000000; stroke-width: 0.8"/>
      </g>
     </g>
     <g id="text_12">
      <!-- 10 -->
      <g transform="translate(193.753279 101.615182) scale(0.1 -0.1)">
       <use xlink:href="#CMR17-31" transform="scale(0.996264)"/>
       <use xlink:href="#CMR17-30" transform="translate(45.690477 0) scale(0.996264)"/>
      </g>
     </g>
    </g>
    <g id="xtick_6">
     <g id="line2d_23">
      <g>
       <use xlink:href="#m7bbc0edf66" x="236.326495" y="87.696683" style="stroke: #000000; stroke-width: 0.8"/>
      </g>
     </g>
     <g id="text_13">
      <!-- 20 -->
      <g transform="translate(231.34516 101.615182) scale(0.1 -0.1)">
       <use xlink:href="#CMR17-32" transform="scale(0.996264)"/>
       <use xlink:href="#CMR17-30" transform="translate(45.690477 0) scale(0.996264)"/>
      </g>
     </g>
    </g>
    <g id="text_14">
     <!-- (b) Upload [Mbps] -->
     <g transform="translate(171.459965 115.02434) scale(0.1 -0.1)">
      <defs>
       <path id="CMR17-55" d="M 3456 1433 
C 3456 579 2899 38 2291 38 
C 1965 38 1670 210 1491 477 
C 1286 783 1261 1178 1261 1401 
L 1261 3874 
C 1261 4160 1331 4160 1773 4160 
L 1773 4320 
C 1587 4320 1248 4320 1050 4320 
C 851 4320 512 4320 326 4320 
L 326 4160 
C 768 4160 838 4160 838 3874 
L 838 1433 
C 838 516 1536 -128 2278 -128 
C 3110 -128 3590 719 3590 1344 
L 3590 3766 
C 3590 4122 3917 4160 4102 4160 
L 4102 4326 
C 3955 4320 3686 4320 3526 4320 
C 3366 4320 3091 4320 2944 4326 
L 2944 4160 
C 3456 4160 3456 3861 3456 3702 
L 3456 1433 
z
" transform="scale(0.015625)"/>
      </defs>
      <use xlink:href="#CMR17-28" transform="scale(0.996264)"/>
      <use xlink:href="#CMR17-62" transform="translate(35.280768 0) scale(0.996264)"/>
      <use xlink:href="#CMR17-29" transform="translate(86.176138 0) scale(0.996264)"/>
      <use xlink:href="#CMR17-55" transform="translate(151.532872 0) scale(0.996264)"/>
      <use xlink:href="#CMR17-70" transform="translate(220.605302 0) scale(0.996264)"/>
      <use xlink:href="#CMR17-6c" transform="translate(271.500671 0) scale(0.996264)"/>
      <use xlink:href="#CMR17-6f" transform="translate(296.37173 0) scale(0.996264)"/>
      <use xlink:href="#CMR17-61" transform="translate(342.062207 0) scale(0.996264)"/>
      <use xlink:href="#CMR17-64" transform="translate(387.752684 0) scale(0.996264)"/>
      <use xlink:href="#CMR17-5b" transform="translate(468.72402 0) scale(0.996264)"/>
      <use xlink:href="#CMR17-4d" transform="translate(493.595079 0) scale(0.996264)"/>
      <use xlink:href="#CMR17-62" transform="translate(578.282019 0) scale(0.996264)"/>
      <use xlink:href="#CMR17-70" transform="translate(629.177389 0) scale(0.996264)"/>
      <use xlink:href="#CMR17-73" transform="translate(680.072759 0) scale(0.996264)"/>
      <use xlink:href="#CMR17-5d" transform="translate(715.874096 0) scale(0.996264)"/>
     </g>
    </g>
   </g>
   <g id="matplotlib.axis_4"/>
   <g id="line2d_24">
    <path d="M 161.142734 78.554926 
L 161.147059 78.11126 
L 161.283787 72.747845 
L 161.342759 72.568158 
L 161.49006 72.116335 
L 161.65474 71.612849 
L 161.961324 70.746364 
L 162.038934 70.530196 
L 162.164492 70.207303 
L 162.343808 69.765677 
L 163.993186 65.903429 
L 164.14079 65.581442 
L 164.369351 65.081809 
L 164.568706 64.548866 
L 164.623773 64.382775 
L 165.397265 62.761061 
L 165.504389 62.564606 
L 165.630028 62.317169 
L 165.745447 62.093976 
L 166.022535 61.557635 
L 166.099878 61.3997 
L 166.223061 61.126658 
L 166.667204 60.151183 
L 167.026623 59.43606 
L 167.166462 59.161885 
L 167.457306 58.570029 
L 167.541328 58.393061 
L 167.666724 58.129762 
L 167.784796 57.878925 
L 172.821041 47.778392 
L 173.008305 47.42627 
L 173.303736 46.891514 
L 173.450616 46.62459 
L 176.136341 42.31573 
L 176.259326 42.125393 
L 176.617912 41.60514 
L 176.725525 41.44494 
L 177.759284 40.024212 
L 177.930498 39.791956 
L 178.778555 38.736721 
L 178.92764 38.559753 
L 179.299215 38.138973 
L 179.571573 37.82673 
L 179.702314 37.680805 
L 180.104076 37.267276 
L 180.2591 37.102771 
L 182.646533 34.975079 
L 182.899436 34.784516 
L 183.021242 34.69184 
L 183.216272 34.550447 
L 183.335738 34.459357 
L 183.632116 34.240017 
L 184.774812 33.512885 
L 185.058581 33.33773 
L 185.667552 32.982435 
L 185.782081 32.918083 
L 189.556089 31.340555 
L 190.247669 31.111471 
L 190.61763 31.00384 
L 192.046446 30.631324 
L 192.156933 30.603227 
L 197.707812 29.62186 
L 199.07164 29.468004 
L 199.75325 29.399574 
L 202.51444 29.159387 
L 202.848806 29.132423 
L 205.206128 28.958174 
L 213.280097 28.498647 
L 216.780666 28.338674 
L 218.734101 28.255515 
L 226.908048 27.937607 
L 253.815958 27.259419 
L 266.421679 27.091289 
L 266.421679 27.091289 
" clip-path="url(#p537d44c88f)" style="fill: none; stroke: #1f77b4; stroke-width: 1.5; stroke-linecap: square"/>
   </g>
   <g id="line2d_25">
    <path d="M 161.142734 79.990738 
L 161.145753 79.868219 
L 161.337059 75.02161 
L 161.519474 74.651367 
L 162.354699 73.201989 
L 162.441363 73.069891 
L 162.749725 72.594272 
L 162.85307 72.402512 
L 163.362829 71.623202 
L 163.556264 71.362368 
L 164.345472 70.326762 
L 164.634802 69.877361 
L 167.292991 66.73693 
L 167.436771 66.567522 
L 167.71917 66.211396 
L 167.951225 65.902832 
L 168.230628 65.519648 
L 168.410134 65.274275 
L 168.588654 65.062852 
L 168.729692 64.902015 
L 169.060923 64.526394 
L 169.245115 64.302701 
L 171.435217 61.581589 
L 171.655185 61.29336 
L 171.813147 61.082273 
L 171.926235 60.937234 
L 172.047845 60.78749 
L 172.329717 60.431027 
L 172.473873 60.264645 
L 172.61282 60.087506 
L 172.757173 59.909191 
L 172.974916 59.646508 
L 173.354429 59.162654 
L 173.470921 59.023161 
L 173.675445 58.777789 
L 173.840661 58.575104 
L 174.0329 58.345194 
L 174.147875 58.206038 
L 174.469972 57.815963 
L 174.604165 57.643362 
L 174.838617 57.344209 
L 175.858041 56.112473 
L 176.144688 55.781052 
L 176.266036 55.624249 
L 176.416898 55.442237 
L 176.632084 55.181402 
L 176.752535 55.038549 
L 176.911864 54.851326 
L 177.136001 54.594021 
L 177.541948 54.114705 
L 177.695081 53.937734 
L 178.664139 52.816248 
L 178.786405 52.674738 
L 178.915751 52.521801 
L 179.071522 52.354746 
L 179.188595 52.224497 
L 180.69601 50.597476 
L 181.176512 50.094631 
L 181.293791 49.969928 
L 181.82383 49.41347 
L 181.945282 49.288095 
L 182.178637 49.038017 
L 183.345962 47.856196 
L 183.585775 47.601748 
L 183.770829 47.422256 
L 183.885529 47.305957 
L 184.045967 47.157052 
L 185.179897 46.064641 
L 185.352936 45.897082 
L 185.788363 45.480453 
L 185.947259 45.337263 
L 187.702582 43.712763 
L 187.887557 43.553439 
L 188.00965 43.440501 
L 188.243976 43.232775 
L 188.365696 43.126054 
L 188.680847 42.8427 
L 188.803607 42.734467 
L 189.020235 42.537833 
L 189.143059 42.436827 
L 189.368098 42.247756 
L 189.713415 41.956502 
L 189.858276 41.826589 
L 190.046007 41.672811 
L 190.168865 41.572477 
L 190.809062 41.051649 
L 190.968042 40.922072 
L 191.254505 40.697372 
L 192.804459 39.477568 
L 193.911887 38.659268 
L 194.348969 38.338772 
L 194.579296 38.169532 
L 194.705317 38.076761 
L 196.256046 36.999811 
L 196.547335 36.809228 
L 196.677639 36.720322 
L 197.002027 36.514445 
L 197.219006 36.381506 
L 204.350344 32.820581 
L 204.727086 32.67235 
L 204.85137 32.624452 
L 205.179366 32.496387 
L 205.576381 32.340929 
L 205.804456 32.255721 
L 206.563452 31.988164 
L 207.032613 31.835562 
L 207.481279 31.687667 
L 208.339244 31.418429 
L 209.02063 31.217762 
L 209.297555 31.139444 
L 212.770215 30.283162 
L 214.270525 29.986698 
L 215.316609 29.808215 
L 216.51211 29.600153 
L 216.623714 29.582002 
L 217.082159 29.509735 
L 218.904313 29.258312 
L 219.070255 29.240161 
L 220.572418 29.061678 
L 220.788093 29.039662 
L 222.251297 28.891766 
L 222.895892 28.835801 
L 224.772984 28.678325 
L 225.182015 28.644377 
L 227.666411 28.469591 
L 236.5035 28.078508 
L 242.389341 27.894142 
L 252.740575 27.637846 
L 266.404039 27.389952 
L 266.404039 27.389952 
" clip-path="url(#p537d44c88f)" style="fill: none; stroke-dasharray: 1.5,2.475; stroke-dashoffset: 0; stroke: #ff7f0e; stroke-width: 1.5"/>
   </g>
   <g id="line2d_26">
    <path d="M 161.142734 82.19692 
L 161.147284 82.079744 
L 161.307025 78.635391 
L 161.566248 78.374658 
L 161.702078 78.251065 
L 161.884321 78.086592 
L 162.033461 77.949847 
L 162.524546 77.508796 
L 162.664896 77.381242 
L 164.275599 75.798542 
L 164.406728 75.660848 
L 164.684409 75.311064 
L 164.809281 75.16513 
L 165.314553 74.624174 
L 165.489605 74.430783 
L 165.621845 74.288018 
L 165.880245 73.993376 
L 166.099139 73.728444 
L 166.60223 73.067223 
L 166.774717 72.846816 
L 167.03593 72.516285 
L 167.258428 72.22711 
L 167.423818 71.999177 
L 167.635952 71.701287 
L 167.776265 71.499735 
L 167.995126 71.149239 
L 168.118516 70.946817 
L 168.328653 70.627377 
L 168.450521 70.446425 
L 168.574289 70.259214 
L 168.666448 70.117953 
L 168.786858 69.940487 
L 172.494001 63.476748 
L 173.421079 61.664848 
L 173.492214 61.525727 
L 173.677288 61.18553 
L 174.136908 60.318876 
L 174.204579 60.184588 
L 174.364218 59.86808 
L 174.983512 58.613218 
L 175.230237 58.127086 
L 175.643941 57.334271 
L 175.925624 56.798703 
L 176.03976 56.578058 
L 176.157894 56.356304 
L 176.296251 56.080202 
L 176.419573 55.828342 
L 177.898478 53.047348 
L 178.018765 52.820841 
L 178.109682 52.645672 
L 178.268996 52.338988 
L 178.396709 52.101785 
L 178.55652 51.801597 
L 178.665715 51.612801 
L 179.38605 50.381311 
L 179.533493 50.118518 
L 183.160828 44.410121 
L 183.262411 44.274248 
L 183.441578 44.018586 
L 183.558649 43.850626 
L 183.694443 43.66294 
L 183.833636 43.475016 
L 183.995437 43.260709 
L 184.150586 43.061535 
L 184.269252 42.902924 
L 184.430663 42.695035 
L 184.578712 42.499663 
L 184.707505 42.322751 
L 184.868876 42.117397 
L 185.047165 41.892158 
L 185.194236 41.709145 
L 185.358926 41.500385 
L 185.491091 41.342804 
L 185.774281 41.004192 
L 186.714545 39.927668 
L 186.850443 39.77698 
L 186.982414 39.62748 
L 187.222988 39.369837 
L 187.362342 39.223269 
L 187.594495 38.991374 
L 187.752704 38.831258 
L 188.181499 38.404784 
L 189.175168 37.47158 
L 189.32332 37.3426 
L 189.608905 37.097316 
L 190.539225 36.322564 
L 190.725909 36.173857 
L 190.836992 36.086629 
L 191.072133 35.905835 
L 191.270566 35.756177 
L 191.450945 35.621097 
L 191.949847 35.250556 
L 192.449613 34.903625 
L 192.760042 34.702391 
L 193.003627 34.545999 
L 193.127181 34.472635 
L 193.325413 34.345715 
L 196.467738 32.613358 
L 196.882041 32.417907 
L 197.020291 32.356428 
L 197.962111 31.94263 
L 198.342393 31.788931 
L 198.696175 31.651633 
L 199.416792 31.382977 
L 199.573594 31.324746 
L 203.709436 30.077173 
L 204.317578 29.925692 
L 205.17496 29.717803 
L 206.118388 29.514984 
L 207.024883 29.336013 
L 207.283864 29.289269 
L 208.089947 29.1469 
L 208.997342 28.997004 
L 211.227771 28.678753 
L 211.414516 28.655223 
L 212.63919 28.500415 
L 213.496731 28.401145 
L 215.128292 28.224709 
L 226.820904 27.458513 
L 231.09386 27.302675 
L 265.349124 26.882064 
L 266.409686 26.878182 
L 266.409686 26.878182 
" clip-path="url(#p537d44c88f)" style="fill: none; stroke-dasharray: 5.55,2.4; stroke-dashoffset: 0; stroke: #2ca02c; stroke-width: 1.5"/>
   </g>
   <g id="line2d_27">
    <path d="M 161.142734 82.035013 
L 161.146778 81.897763 
L 161.301042 78.28227 
L 161.530821 77.935424 
L 161.694821 77.686003 
L 161.818603 77.515681 
L 176.424437 57.471102 
L 176.541527 57.292787 
L 177.732434 55.586531 
L 177.823891 55.456033 
L 177.938261 55.286537 
L 178.126509 54.995501 
L 178.767319 54.040262 
L 178.921357 53.811374 
L 179.151885 53.498014 
L 179.283584 53.308675 
L 180.126202 52.104843 
L 180.275089 51.898003 
L 181.293867 50.507037 
L 181.405494 50.350219 
L 181.520511 50.189542 
L 181.697589 49.951559 
L 182.209416 49.265584 
L 182.367836 49.066186 
L 182.496769 48.896966 
L 182.616714 48.745385 
L 182.789772 48.519666 
L 182.94284 48.310759 
L 183.062314 48.156559 
L 183.177713 48.006356 
L 183.732544 47.296404 
L 183.854338 47.143169 
L 184.025996 46.939774 
L 184.180331 46.746163 
L 184.313207 46.586038 
L 187.223227 43.200397 
L 187.381799 43.024701 
L 187.522294 42.874635 
L 187.746566 42.639546 
L 187.942691 42.435049 
L 189.01928 41.333741 
L 189.272678 41.087765 
L 190.542384 39.880075 
L 190.687625 39.74999 
L 190.849451 39.610535 
L 191.037904 39.44793 
L 191.259994 39.257075 
L 191.541028 39.019092 
L 191.664218 38.919875 
L 192.065801 38.600038 
L 192.185044 38.503715 
L 192.361267 38.364949 
L 192.980676 37.871758 
L 193.113333 37.774884 
L 193.552311 37.43796 
L 193.776375 37.281418 
L 193.979693 37.129836 
L 194.183682 36.983215 
L 194.308318 36.893645 
L 194.881196 36.5129 
L 195.200431 36.298205 
L 195.32973 36.2158 
L 195.70997 35.98264 
L 195.821635 35.909881 
L 196.113181 35.717924 
L 196.267833 35.62353 
L 197.950144 34.64018 
L 198.256934 34.485015 
L 198.388158 34.420249 
L 198.755696 34.234906 
L 198.932209 34.141477 
L 199.615641 33.810065 
L 199.897526 33.682323 
L 200.398816 33.46253 
L 202.253001 32.711375 
L 202.609201 32.576881 
L 202.863897 32.487723 
L 203.475562 32.268068 
L 203.630291 32.219837 
L 204.134802 32.058196 
L 207.126442 31.191426 
L 208.023189 30.9737 
L 209.794434 30.576695 
L 210.081797 30.516062 
L 210.81935 30.383635 
L 214.727578 29.744512 
L 215.943353 29.586454 
L 227.005035 28.599383 
L 230.031894 28.419691 
L 231.020083 28.359885 
L 233.51876 28.227458 
L 256.896881 27.452601 
L 264.352461 27.303086 
L 266.426557 27.268498 
L 266.426557 27.268498 
" clip-path="url(#p537d44c88f)" style="fill: none; stroke-dasharray: 9.6,2.4,1.5,2.4; stroke-dashoffset: 0; stroke: #d62728; stroke-width: 1.5"/>
   </g>
   <g id="line2d_28">
    <path d="M 161.142734 82.78629 
L 161.147572 82.586136 
L 161.153145 79.80012 
L 161.264553 77.359532 
L 161.56069 77.207802 
L 161.953234 77.030246 
L 162.31711 76.872059 
L 162.60111 76.744542 
L 162.883015 76.610568 
L 163.086396 76.504034 
L 164.508988 75.89873 
L 165.054194 75.671135 
L 165.360845 75.533933 
L 165.570884 75.432241 
L 165.828445 75.290197 
L 166.619876 74.880203 
L 166.753139 74.812409 
L 166.980027 74.689734 
L 168.974544 73.382276 
L 169.144532 73.238617 
L 169.688257 72.841537 
L 170.048214 72.552605 
L 171.351925 71.380735 
L 171.512498 71.216092 
L 172.124438 70.594646 
L 172.273124 70.476814 
L 172.546633 70.213708 
L 172.70335 70.047451 
L 173.856858 68.819086 
L 173.997169 68.701253 
L 174.115442 68.562436 
L 174.232813 68.430077 
L 189.754937 50.337115 
L 189.911003 50.14826 
L 190.039258 50.006215 
L 190.345721 49.667245 
L 190.556765 49.441264 
L 190.777347 49.200757 
L 190.915435 49.063554 
L 191.259 48.714899 
L 191.372619 48.59061 
L 192.468486 47.538186 
L 192.642642 47.371929 
L 192.772776 47.226656 
L 192.899847 47.112052 
L 193.127392 46.894142 
L 193.299185 46.740798 
L 195.304585 44.910357 
L 195.428574 44.81028 
L 195.884742 44.421271 
L 196.04106 44.296981 
L 196.245306 44.142023 
L 197.253776 43.333336 
L 197.50228 43.142867 
L 197.772666 42.88299 
L 197.925018 42.766771 
L 198.251428 42.537562 
L 198.524447 42.350322 
L 198.712353 42.203434 
L 199.044303 41.979068 
L 199.319055 41.774071 
L 199.725865 41.509352 
L 199.861066 41.420573 
L 200.475444 41.050934 
L 200.591232 40.976683 
L 200.880174 40.799127 
L 201.282693 40.560234 
L 201.45884 40.464999 
L 201.822126 40.279372 
L 202.642695 39.879064 
L 202.952149 39.728949 
L 203.312956 39.536865 
L 203.746043 39.335097 
L 203.872366 39.270531 
L 204.190453 39.099432 
L 205.552988 38.511883 
L 205.922612 38.332712 
L 206.187991 38.211651 
L 206.784313 37.980829 
L 207.218877 37.796816 
L 207.769104 37.593434 
L 210.164917 36.691126 
L 211.475837 36.279519 
L 211.809544 36.187513 
L 212.3985 36.02287 
L 214.079685 35.58705 
L 215.670906 35.196427 
L 215.772562 35.165758 
L 216.968564 34.899424 
L 217.076016 34.881669 
L 226.585608 33.183587 
L 227.600729 33.035086 
L 229.419052 32.77198 
L 229.555629 32.759067 
L 230.775346 32.59281 
L 233.355431 32.197344 
L 233.493039 32.182817 
L 234.799886 32.010103 
L 236.284517 31.816406 
L 238.00904 31.595268 
L 239.519489 31.404798 
L 239.643983 31.387043 
L 241.345537 31.170747 
L 241.489689 31.146535 
L 241.913482 31.10941 
L 243.789994 30.894728 
L 244.08593 30.854375 
L 246.013506 30.650992 
L 246.110284 30.639693 
L 249.260831 30.339462 
L 250.880017 30.190961 
L 255.667012 29.826164 
L 255.921317 29.811636 
L 258.848181 29.575971 
L 260.985013 29.421013 
L 263.023095 29.25637 
L 263.848088 29.20956 
L 266.425386 29.027161 
L 266.425386 29.027161 
" clip-path="url(#p537d44c88f)" style="fill: none; stroke: #9467bd; stroke-width: 1.5; stroke-linecap: square"/>
   </g>
   <g id="line2d_29">
    <path d="M 161.142734 81.449389 
L 161.147557 81.173864 
L 161.331409 76.772837 
L 161.457454 76.583413 
L 161.770935 76.125844 
L 161.88198 75.93396 
L 162.751911 74.972081 
L 162.885811 74.817098 
L 163.017702 74.630134 
L 163.13468 74.504672 
L 163.232713 74.364449 
L 163.594215 73.988062 
L 163.767831 73.815858 
L 165.100598 72.455451 
L 165.216211 72.347209 
L 165.996681 71.562454 
L 166.212561 71.36565 
L 166.391782 71.208207 
L 166.504536 71.092584 
L 166.66697 70.940061 
L 167.892177 69.791219 
L 168.056982 69.609175 
L 168.259725 69.412371 
L 168.372129 69.309049 
L 168.633603 69.050744 
L 168.805849 68.86132 
L 168.98643 68.701417 
L 170.569285 67.013824 
L 170.763879 66.80964 
L 179.773301 57.323692 
L 179.916466 57.158868 
L 180.093677 56.949764 
L 180.287281 56.782481 
L 180.510235 56.516796 
L 180.709699 56.317532 
L 180.831568 56.189609 
L 181.032789 56.002645 
L 181.289126 55.71728 
L 181.425124 55.572137 
L 181.624817 55.372873 
L 181.736899 55.247411 
L 191.701719 45.564659 
L 191.867443 45.424436 
L 192.077847 45.235012 
L 192.191924 45.10955 
L 192.534758 44.772523 
L 192.684853 44.63476 
L 193.084904 44.305114 
L 193.204108 44.201792 
L 196.466259 41.480978 
L 196.693608 41.308774 
L 197.227061 40.900406 
L 197.40235 40.738043 
L 197.836591 40.339515 
L 198.400716 39.928687 
L 198.758036 39.658082 
L 199.163396 39.340736 
L 199.72729 38.949588 
L 199.983803 38.777384 
L 200.168951 38.619941 
L 200.487561 38.339496 
L 200.737156 38.135312 
L 201.082464 37.916367 
L 201.203468 37.837646 
L 201.407879 37.687583 
L 205.536331 35.225074 
L 205.759982 35.075011 
L 206.003362 34.917568 
L 206.63462 34.602682 
L 206.750248 34.551021 
L 207.107181 34.398498 
L 207.527792 34.189393 
L 207.682087 34.093452 
L 207.93658 33.985209 
L 215.326687 31.015931 
L 216.009221 30.831427 
L 216.294388 30.742865 
L 217.260264 30.47964 
L 217.397982 30.445199 
L 218.172982 30.243475 
L 218.284175 30.206575 
L 219.930532 29.780986 
L 220.481085 29.635843 
L 221.394757 29.47102 
L 224.398354 28.96917 
L 226.295572 28.651824 
L 227.904848 28.425499 
L 228.011374 28.405819 
L 231.626478 28.007291 
L 231.996262 27.96547 
L 233.907008 27.827707 
L 237.168067 27.579243 
L 239.720144 27.44148 
L 240.800667 27.397199 
L 242.361529 27.340618 
L 243.991735 27.279117 
L 257.309255 27.092153 
L 258.02603 27.082313 
L 266.637229 27.008511 
L 266.637229 27.008511 
" clip-path="url(#p537d44c88f)" style="fill: none; stroke-dasharray: 1.5,2.475; stroke-dashoffset: 0; stroke: #8c564b; stroke-width: 1.5"/>
   </g>
   <g id="line2d_30">
    <path d="M 161.142734 79.411637 
L 161.145191 79.281248 
L 161.150197 77.411225 
L 161.26238 73.995822 
L 161.536233 73.387117 
L 161.670879 73.104385 
L 161.860586 72.757123 
L 162.076302 72.372608 
L 162.234697 72.057278 
L 162.393054 71.761906 
L 162.507972 71.566988 
L 163.624814 69.529987 
L 163.699409 69.388288 
L 163.85276 69.099569 
L 164.046622 68.778252 
L 164.270144 68.379766 
L 164.359203 68.230085 
L 164.562201 67.823616 
L 164.937666 67.133084 
L 165.227945 66.687366 
L 165.396463 66.437231 
L 166.709416 64.166061 
L 166.836069 63.923244 
L 167.060112 63.532076 
L 167.957275 61.819718 
L 168.091632 61.475783 
L 168.2305 61.145153 
L 168.562674 60.412045 
L 168.638927 60.260368 
L 169.040779 59.547883 
L 169.188673 59.285774 
L 169.473003 58.754903 
L 169.68244 58.357748 
L 169.796721 58.154846 
L 169.968699 57.835525 
L 170.375488 57.169608 
L 170.537191 56.890202 
L 171.796288 54.768049 
L 172.015342 54.388855 
L 172.153205 54.185288 
L 172.553675 53.59654 
L 172.691334 53.415592 
L 172.891499 53.115563 
L 173.482387 52.315265 
L 173.636812 52.125669 
L 173.7771 51.956695 
L 173.987572 51.695916 
L 174.105592 51.580827 
L 174.236882 51.415845 
L 174.424194 51.191655 
L 174.607419 50.960813 
L 174.820318 50.727309 
L 174.946776 50.574967 
L 175.233313 50.235023 
L 175.341934 50.107295 
L 175.459173 49.968922 
L 175.622808 49.765355 
L 175.764507 49.600373 
L 175.969393 49.367535 
L 176.195996 49.11873 
L 176.311306 49.007633 
L 176.46988 48.855956 
L 178.222341 47.168877 
L 178.355269 47.045806 
L 178.64788 46.777044 
L 178.96884 46.473689 
L 179.62465 45.898246 
L 179.814549 45.733264 
L 180.311976 45.350744 
L 180.733242 45.042067 
L 185.715544 41.610698 
L 185.945124 41.476983 
L 186.07999 41.3905 
L 186.624882 41.045234 
L 187.165107 40.685333 
L 187.397155 40.540308 
L 187.590516 40.424554 
L 187.919258 40.222318 
L 188.076277 40.124526 
L 188.460647 39.891688 
L 189.144355 39.495863 
L 189.482417 39.298283 
L 189.746691 39.11933 
L 190.616431 38.648332 
L 190.7345 38.589125 
L 191.128759 38.349634 
L 191.511689 38.124779 
L 191.8154 37.945826 
L 191.948463 37.868657 
L 192.187242 37.727623 
L 194.961118 36.119045 
L 195.418117 35.86891 
L 197.123053 34.990112 
L 197.458875 34.822469 
L 197.573287 34.769914 
L 197.704604 34.72002 
L 198.702912 34.247691 
L 198.92086 34.149899 
L 199.254639 33.992235 
L 199.864984 33.696197 
L 200.310358 33.516579 
L 200.569132 33.392843 
L 200.939771 33.235843 
L 201.161965 33.132729 
L 201.544542 32.995687 
L 202.011546 32.796112 
L 202.171617 32.744887 
L 204.20661 31.928623 
L 204.751997 31.724391 
L 205.608094 31.417045 
L 205.785592 31.361829 
L 206.036943 31.265367 
L 206.735147 31.015898 
L 207.517811 30.748467 
L 208.257913 30.495006 
L 208.427476 30.445112 
L 209.18549 30.222918 
L 209.743486 30.071906 
L 210.304565 29.916237 
L 210.413419 29.877652 
L 211.599979 29.550348 
L 211.71485 29.520412 
L 212.274682 29.38337 
L 213.112893 29.193773 
L 213.255937 29.14521 
L 220.636223 27.896532 
L 230.612123 27.114861 
L 243.015991 26.868718 
L 267.4 26.824152 
L 267.4 26.824152 
" clip-path="url(#p537d44c88f)" style="fill: none; stroke-dasharray: 5.55,2.4; stroke-dashoffset: 0; stroke: #e377c2; stroke-width: 1.5"/>
   </g>
   <g id="line2d_31">
    <path d="M 157.383545 84.797516 
L 266.4 84.797516 
" clip-path="url(#p537d44c88f)" style="fill: none; stroke: #808080; stroke-opacity: 0.7; stroke-width: 0.5; stroke-linecap: square"/>
   </g>
   <g id="line2d_32">
    <path d="M 157.383545 70.301679 
L 266.4 70.301679 
" clip-path="url(#p537d44c88f)" style="fill: none; stroke: #808080; stroke-opacity: 0.7; stroke-width: 0.5; stroke-linecap: square"/>
   </g>
   <g id="line2d_33">
    <path d="M 157.383545 55.805842 
L 266.4 55.805842 
" clip-path="url(#p537d44c88f)" style="fill: none; stroke: #808080; stroke-opacity: 0.7; stroke-width: 0.5; stroke-linecap: square"/>
   </g>
   <g id="line2d_34">
    <path d="M 157.383545 41.310005 
L 266.4 41.310005 
" clip-path="url(#p537d44c88f)" style="fill: none; stroke: #808080; stroke-opacity: 0.7; stroke-width: 0.5; stroke-linecap: square"/>
   </g>
   <g id="line2d_35">
    <path d="M 157.383545 26.814167 
L 266.4 26.814167 
" clip-path="url(#p537d44c88f)" style="fill: none; stroke: #808080; stroke-opacity: 0.7; stroke-width: 0.5; stroke-linecap: square"/>
   </g>
   <g id="patch_8">
    <path d="M 157.383545 87.696683 
L 157.383545 23.915 
" style="fill: none; stroke: #000000; stroke-width: 0.8; stroke-linejoin: miter; stroke-linecap: square"/>
   </g>
   <g id="patch_9">
    <path d="M 266.4 87.696683 
L 266.4 23.915 
" style="fill: none; stroke: #000000; stroke-width: 0.8; stroke-linejoin: miter; stroke-linecap: square"/>
   </g>
   <g id="patch_10">
    <path d="M 157.383545 87.696683 
L 266.4 87.696683 
" style="fill: none; stroke: #000000; stroke-width: 0.8; stroke-linejoin: miter; stroke-linecap: square"/>
   </g>
   <g id="patch_11">
    <path d="M 157.383545 23.915 
L 266.4 23.915 
" style="fill: none; stroke: #000000; stroke-width: 0.8; stroke-linejoin: miter; stroke-linecap: square"/>
   </g>
  </g>
  <g id="legend_1">
   <g id="patch_12">
    <path d="M 55.263929 22.053138 
L 245.696071 22.053138 
L 245.696071 -0 
L 55.263929 -0 
z
" style="fill: #ffffff; opacity: 0.8; stroke: #000000; stroke-linejoin: miter"/>
   </g>
   <g id="line2d_36">
    <path d="M 58.595929 6.2475 
L 62.760929 6.2475 
L 66.925929 6.2475 
" style="fill: none; stroke: #1f77b4; stroke-width: 1.5; stroke-linecap: square"/>
   </g>
   <g id="text_15">
    <!-- Mexico City -->
    <g transform="translate(69.424929 9.163) scale(0.0833 -0.0833)">
     <defs>
      <path id="CMR17-78" d="M 1664 1477 
C 1856 1726 2074 2006 2253 2216 
C 2464 2458 2707 2560 2989 2560 
L 2989 2726 
C 2880 2726 2656 2726 2541 2726 
C 2368 2726 2170 2726 2022 2732 
L 2022 2566 
C 2112 2553 2163 2489 2163 2400 
C 2163 2285 2099 2215 2067 2171 
L 1594 1573 
L 1030 2306 
C 973 2376 973 2388 973 2420 
C 973 2497 1037 2560 1146 2560 
L 1146 2732 
C 992 2726 717 2726 557 2726 
C 384 2726 179 2726 38 2732 
L 38 2560 
C 384 2560 461 2534 614 2343 
L 1350 1395 
C 1363 1382 1395 1344 1395 1325 
C 1395 1299 838 619 768 530 
C 480 185 179 160 6 160 
L 6 0 
C 115 0 339 0 454 0 
C 582 0 864 0 979 -6 
L 979 160 
C 941 166 838 179 838 325 
C 838 440 890 510 947 586 
L 1478 1236 
L 2035 512 
C 2086 442 2163 346 2163 301 
C 2163 211 2086 160 1984 160 
L 1984 -6 
C 2138 0 2413 0 2573 0 
C 2746 0 2950 0 3091 -6 
L 3091 160 
C 2771 160 2675 172 2522 370 
L 1664 1477 
z
" transform="scale(0.015625)"/>
      <path id="CMR17-43" d="M 3974 4289 
C 3974 4403 3968 4410 3930 4410 
C 3904 4410 3898 4403 3853 4327 
L 3571 3792 
C 3258 4187 2874 4416 2381 4416 
C 1286 4416 294 3456 294 2148 
C 294 826 1286 -128 2387 -128 
C 3366 -128 3974 730 3974 1461 
C 3974 1524 3974 1550 3917 1550 
C 3866 1550 3866 1531 3859 1474 
C 3808 585 3168 38 2477 38 
C 1824 38 781 495 781 2147 
C 781 3805 1843 4250 2464 4250 
C 3187 4250 3712 3628 3834 2745 
C 3846 2668 3846 2655 3904 2655 
C 3974 2655 3974 2668 3974 2783 
L 3974 4289 
z
" transform="scale(0.015625)"/>
      <path id="CMR17-79" d="M 2496 2197 
C 2656 2586 2944 2586 3034 2586 
L 3034 2752 
C 2912 2752 2752 2752 2630 2752 
C 2496 2752 2285 2752 2157 2758 
L 2157 2592 
C 2400 2573 2406 2394 2406 2343 
C 2406 2280 2394 2248 2362 2171 
L 1664 449 
L 902 2306 
C 870 2382 870 2426 870 2433 
C 870 2573 1018 2586 1171 2586 
L 1171 2758 
C 1018 2752 742 2752 582 2752 
C 410 2752 205 2752 64 2758 
L 64 2586 
C 410 2586 448 2554 531 2350 
L 1485 15 
C 1197 -738 1030 -1178 627 -1178 
C 557 -1178 397 -1159 282 -1044 
C 429 -1031 493 -942 493 -833 
C 493 -725 416 -629 288 -629 
C 147 -629 77 -725 77 -840 
C 77 -1095 339 -1280 627 -1280 
C 998 -1280 1229 -922 1357 -604 
L 2496 2197 
z
" transform="scale(0.015625)"/>
     </defs>
     <use xlink:href="#CMR17-4d" transform="scale(0.996264)"/>
     <use xlink:href="#CMR17-65" transform="translate(84.686941 0) scale(0.996264)"/>
     <use xlink:href="#CMR17-78" transform="translate(125.172601 0) scale(0.996264)"/>
     <use xlink:href="#CMR17-69" transform="translate(173.465517 0) scale(0.996264)"/>
     <use xlink:href="#CMR17-63" transform="translate(198.336575 0) scale(0.996264)"/>
     <use xlink:href="#CMR17-6f" transform="translate(238.822236 0) scale(0.996264)"/>
     <use xlink:href="#CMR17-43" transform="translate(314.588679 0) scale(0.996264)"/>
     <use xlink:href="#CMR17-69" transform="translate(381.09856 0) scale(0.996264)"/>
     <use xlink:href="#CMR17-74" transform="translate(405.969618 0) scale(0.996264)"/>
     <use xlink:href="#CMR17-79" transform="translate(438.647932 0) scale(0.996264)"/>
    </g>
   </g>
   <g id="line2d_37">
    <path d="M 58.595929 14.191969 
L 62.760929 14.191969 
L 66.925929 14.191969 
" style="fill: none; stroke-dasharray: 1.5,2.475; stroke-dashoffset: 0; stroke: #ff7f0e; stroke-width: 1.5"/>
   </g>
   <g id="text_16">
    <!-- So Paulo -->
    <g transform="translate(69.424929 17.107469) scale(0.0833 -0.0833)">
     <defs>
      <path id="CMR17-53" d="M 2803 4290 
C 2803 4404 2797 4411 2758 4411 
C 2720 4411 2707 4385 2682 4328 
L 2490 3907 
C 2246 4257 1875 4416 1472 4416 
C 819 4416 294 3901 294 3253 
C 294 3056 339 2776 557 2510 
C 794 2218 1018 2167 1530 2033 
C 1722 1982 2042 1899 2106 1874 
C 2470 1722 2662 1341 2662 985 
C 2662 527 2336 38 1779 38 
C 1094 38 454 419 410 1311 
C 403 1413 397 1419 352 1419 
C 301 1419 294 1413 294 1285 
L 294 -1 
C 294 -115 301 -122 339 -122 
C 384 -122 397 -90 486 108 
C 493 127 493 140 614 381 
C 934 -39 1472 -128 1779 -128 
C 2477 -128 2970 451 2970 1124 
C 2970 1454 2848 1708 2778 1823 
C 2509 2230 2221 2306 1914 2382 
C 1869 2402 1856 2402 1498 2490 
C 1152 2579 1005 2624 845 2796 
C 666 2992 602 3196 602 3399 
C 602 3812 934 4263 1478 4263 
C 2157 4263 2579 3786 2675 2993 
C 2694 2878 2701 2872 2746 2872 
C 2803 2872 2803 2891 2803 2999 
L 2803 4290 
z
" transform="scale(0.015625)"/>
      <path id="CMR17-7e" d="M 2400 4184 
C 2182 3980 2061 3865 1862 3865 
C 1722 3865 1626 3932 1491 4024 
C 1363 4111 1261 4184 1120 4184 
C 890 4184 730 4004 461 3718 
L 531 3648 
C 749 3850 870 3968 1069 3968 
C 1210 3968 1306 3900 1440 3808 
C 1568 3722 1670 3648 1811 3648 
C 2042 3648 2202 3828 2470 4114 
L 2400 4184 
z
" transform="scale(0.015625)"/>
      <path id="CMR17-75" d="M 1882 2693 
L 1882 2528 
C 2259 2528 2317 2489 2317 2186 
L 2317 1032 
C 2317 500 2029 38 1555 38 
C 1030 38 986 348 986 678 
L 986 2763 
L 211 2693 
L 211 2528 
C 467 2528 640 2528 646 2274 
L 646 1058 
C 646 633 646 361 813 183 
C 896 101 1056 -64 1517 -64 
C 2061 -64 2272 377 2323 506 
L 2330 506 
L 2330 -63 
L 3091 -63 
L 3091 128 
C 2714 128 2656 166 2656 473 
L 2656 2763 
L 1882 2693 
z
" transform="scale(0.015625)"/>
     </defs>
     <use xlink:href="#CMR17-53" transform="scale(0.996264)"/>
     <use xlink:href="#CMR17-7e" transform="translate(50.89537 0) scale(0.996264)"/>
     <use xlink:href="#CMR17-61" transform="translate(50.89537 0) scale(0.996264)"/>
     <use xlink:href="#CMR17-6f" transform="translate(96.585847 0) scale(0.996264)"/>
     <use xlink:href="#CMR17-50" transform="translate(172.35229 0) scale(0.996264)"/>
     <use xlink:href="#CMR17-61" transform="translate(232.336137 0) scale(0.996264)"/>
     <use xlink:href="#CMR17-75" transform="translate(278.026614 0) scale(0.996264)"/>
     <use xlink:href="#CMR17-6c" transform="translate(328.921984 0) scale(0.996264)"/>
     <use xlink:href="#CMR17-6f" transform="translate(353.793042 0) scale(0.996264)"/>
    </g>
   </g>
   <g id="line2d_38">
    <path d="M 120.608844 6.2475 
L 124.773844 6.2475 
L 128.938844 6.2475 
" style="fill: none; stroke-dasharray: 5.55,2.4; stroke-dashoffset: 0; stroke: #2ca02c; stroke-width: 1.5"/>
   </g>
   <g id="text_17">
    <!-- Seattle -->
    <g transform="translate(131.437844 9.163) scale(0.0833 -0.0833)">
     <use xlink:href="#CMR17-53" transform="scale(0.996264)"/>
     <use xlink:href="#CMR17-65" transform="translate(50.89537 0) scale(0.996264)"/>
     <use xlink:href="#CMR17-61" transform="translate(91.38103 0) scale(0.996264)"/>
     <use xlink:href="#CMR17-74" transform="translate(137.071507 0) scale(0.996264)"/>
     <use xlink:href="#CMR17-74" transform="translate(172.352275 0) scale(0.996264)"/>
     <use xlink:href="#CMR17-6c" transform="translate(207.633043 0) scale(0.996264)"/>
     <use xlink:href="#CMR17-65" transform="translate(232.504101 0) scale(0.996264)"/>
    </g>
   </g>
   <g id="line2d_39">
    <path d="M 120.608844 14.191969 
L 124.773844 14.191969 
L 128.938844 14.191969 
" style="fill: none; stroke-dasharray: 9.6,2.4,1.5,2.4; stroke-dashoffset: 0; stroke: #d62728; stroke-width: 1.5"/>
   </g>
   <g id="text_18">
    <!-- Sydney -->
    <g transform="translate(131.437844 17.107469) scale(0.0833 -0.0833)">
     <use xlink:href="#CMR17-53" transform="scale(0.996264)"/>
     <use xlink:href="#CMR17-79" transform="translate(50.89537 0) scale(0.996264)"/>
     <use xlink:href="#CMR17-64" transform="translate(99.188286 0) scale(0.996264)"/>
     <use xlink:href="#CMR17-6e" transform="translate(150.083655 0) scale(0.996264)"/>
     <use xlink:href="#CMR17-65" transform="translate(200.979025 0) scale(0.996264)"/>
     <use xlink:href="#CMR17-79" transform="translate(241.464686 0) scale(0.996264)"/>
    </g>
   </g>
   <g id="line2d_40">
    <path d="M 163.525478 6.2475 
L 167.690478 6.2475 
L 171.855478 6.2475 
" style="fill: none; stroke: #9467bd; stroke-width: 1.5; stroke-linecap: square"/>
   </g>
   <g id="text_19">
    <!-- Dublin -->
    <g transform="translate(174.354478 9.163) scale(0.0833 -0.0833)">
     <use xlink:href="#CMR17-44" transform="scale(0.996264)"/>
     <use xlink:href="#CMR17-75" transform="translate(70.393556 0) scale(0.996264)"/>
     <use xlink:href="#CMR17-62" transform="translate(121.288926 0) scale(0.996264)"/>
     <use xlink:href="#CMR17-6c" transform="translate(172.184295 0) scale(0.996264)"/>
     <use xlink:href="#CMR17-69" transform="translate(197.055354 0) scale(0.996264)"/>
     <use xlink:href="#CMR17-6e" transform="translate(221.926412 0) scale(0.996264)"/>
    </g>
   </g>
   <g id="line2d_41">
    <path d="M 163.525478 14.191969 
L 167.690478 14.191969 
L 171.855478 14.191969 
" style="fill: none; stroke-dasharray: 1.5,2.475; stroke-dashoffset: 0; stroke: #8c564b; stroke-width: 1.5"/>
   </g>
   <g id="text_20">
    <!-- Lagos -->
    <g transform="translate(174.354478 17.107469) scale(0.0833 -0.0833)">
     <defs>
      <path id="CMR17-4c" d="M 3469 1615 
L 3354 1615 
C 3302 983 3219 166 2125 166 
L 1530 166 
C 1274 166 1261 197 1261 414 
L 1261 3898 
C 1261 4129 1274 4192 1760 4192 
L 1901 4192 
L 1901 4352 
C 1638 4352 1331 4352 1069 4352 
C 870 4352 512 4352 326 4352 
L 326 4192 
C 768 4192 838 4192 838 3905 
L 838 452 
C 838 166 768 166 326 166 
L 326 0 
L 3315 0 
L 3469 1615 
z
" transform="scale(0.015625)"/>
      <path id="CMR17-67" d="M 710 1164 
C 832 1068 1043 960 1299 960 
C 1805 960 2240 1357 2240 1888 
C 2240 2054 2189 2310 1997 2509 
C 2176 2692 2438 2752 2586 2752 
C 2611 2752 2650 2752 2682 2734 
C 2656 2728 2598 2703 2598 2605 
C 2598 2527 2656 2471 2739 2471 
C 2835 2471 2886 2533 2886 2614 
C 2886 2731 2790 2854 2586 2854 
C 2330 2854 2106 2738 1926 2580 
C 1734 2753 1504 2816 1299 2816 
C 794 2816 358 2419 358 1888 
C 358 1522 570 1292 634 1228 
C 442 1004 442 743 442 711 
C 442 545 506 302 723 168 
C 390 85 128 -169 128 -486 
C 128 -943 736 -1280 1466 -1280 
C 2170 -1280 2803 -956 2803 -479 
C 2803 384 1856 384 1363 384 
C 1216 384 954 384 922 391 
C 723 423 589 602 589 826 
C 589 883 589 1024 710 1164 
z
M 1299 1068 
C 736 1068 736 1760 736 1889 
C 736 2016 736 2708 1299 2708 
C 1862 2708 1862 2016 1862 1889 
C 1862 1760 1862 1068 1299 1068 
z
M 1466 -1171 
C 826 -1171 384 -835 384 -486 
C 384 -289 493 -105 634 -4 
C 794 104 858 104 1293 104 
C 1818 104 2547 104 2547 -486 
C 2547 -835 2106 -1171 1466 -1171 
z
" transform="scale(0.015625)"/>
     </defs>
     <use xlink:href="#CMR17-4c" transform="scale(0.996264)"/>
     <use xlink:href="#CMR17-61" transform="translate(57.381408 0) scale(0.996264)"/>
     <use xlink:href="#CMR17-67" transform="translate(103.071885 0) scale(0.996264)"/>
     <use xlink:href="#CMR17-6f" transform="translate(148.762362 0) scale(0.996264)"/>
     <use xlink:href="#CMR17-73" transform="translate(194.452839 0) scale(0.996264)"/>
    </g>
   </g>
   <g id="line2d_42">
    <path d="M 204.845742 6.2475 
L 209.010742 6.2475 
L 213.175742 6.2475 
" style="fill: none; stroke-dasharray: 5.55,2.4; stroke-dashoffset: 0; stroke: #e377c2; stroke-width: 1.5"/>
   </g>
   <g id="text_21">
    <!-- Manila -->
    <g transform="translate(215.674742 9.163) scale(0.0833 -0.0833)">
     <use xlink:href="#CMR17-4d" transform="scale(0.996264)"/>
     <use xlink:href="#CMR17-61" transform="translate(84.686941 0) scale(0.996264)"/>
     <use xlink:href="#CMR17-6e" transform="translate(130.377418 0) scale(0.996264)"/>
     <use xlink:href="#CMR17-69" transform="translate(181.272787 0) scale(0.996264)"/>
     <use xlink:href="#CMR17-6c" transform="translate(206.143846 0) scale(0.996264)"/>
     <use xlink:href="#CMR17-61" transform="translate(231.014904 0) scale(0.996264)"/>
    </g>
   </g>
  </g>
 </g>
 <defs>
  <clipPath id="pa3ff1c17ee">
   <rect x="37.567091" y="23.915" width="109.016455" height="63.781683"/>
  </clipPath>
  <clipPath id="p537d44c88f">
   <rect x="157.383545" y="23.915" width="109.016455" height="63.781683"/>
  </clipPath>
 </defs>
</svg>
