<?xml version="1.0" encoding="utf-8" standalone="no"?>
<!DOCTYPE svg PUBLIC "-//W3C//DTD SVG 1.1//EN"
  "http://www.w3.org/Graphics/SVG/1.1/DTD/svg11.dtd">
<svg xmlns:xlink="http://www.w3.org/1999/xlink" width="262.08pt" height="104.644815pt" viewBox="0 0 262.08 104.644815" xmlns="http://www.w3.org/2000/svg" version="1.1">
 <metadata>
  <rdf:RDF xmlns:dc="http://purl.org/dc/elements/1.1/" xmlns:cc="http://creativecommons.org/ns#" xmlns:rdf="http://www.w3.org/1999/02/22-rdf-syntax-ns#">
   <cc:Work>
    <dc:type rdf:resource="http://purl.org/dc/dcmitype/StillImage"/>
    <dc:date>2023-10-12T10:30:52.729661</dc:date>
    <dc:format>image/svg+xml</dc:format>
    <dc:creator>
     <cc:Agent>
      <dc:title>Matplotlib v3.7.0, https://matplotlib.org/</dc:title>
     </cc:Agent>
    </dc:creator>
   </cc:Work>
  </rdf:RDF>
 </metadata>
 <defs>
  <style type="text/css">*{stroke-linejoin: round; stroke-linecap: butt}</style>
 </defs>
 <g id="figure_1">
  <g id="patch_1">
   <path d="M 0 104.644815 
L 262.08 104.644815 
L 262.08 0 
L 0 0 
z
" style="fill: #ffffff"/>
  </g>
  <g id="axes_1">
   <g id="patch_2">
    <path d="M 42.437408 71.062871 
L 253.300515 71.062871 
L 253.300515 0.964815 
L 42.437408 0.964815 
z
" style="fill: #ffffff"/>
   </g>
   <g id="matplotlib.axis_1">
    <g id="xtick_1">
     <g id="line2d_1">
      <defs>
       <path id="m010c93fbdb" d="M 0 0 
L 0 3.5 
" style="stroke: #000000; stroke-width: 0.8"/>
      </defs>
      <g>
       <use xlink:href="#m010c93fbdb" x="59.084495" y="71.062871" style="stroke: #000000; stroke-width: 0.8"/>
      </g>
     </g>
     <g id="text_1">
      <!-- 25 -->
      <g transform="translate(53.231505 86.365051) scale(0.12 -0.12)">
       <defs>
        <path id="CMR17-32" d="M 2669 989 
L 2554 989 
C 2490 536 2438 459 2413 420 
C 2381 369 1920 369 1830 369 
L 602 369 
C 832 619 1280 1072 1824 1597 
C 2214 1967 2669 2402 2669 3035 
C 2669 3790 2067 4224 1395 4224 
C 691 4224 262 3604 262 3030 
C 262 2780 448 2748 525 2748 
C 589 2748 781 2787 781 3010 
C 781 3207 614 3264 525 3264 
C 486 3264 448 3258 422 3245 
C 544 3790 915 4058 1306 4058 
C 1862 4058 2227 3617 2227 3035 
C 2227 2479 1901 2000 1536 1584 
L 262 146 
L 262 0 
L 2515 0 
L 2669 989 
z
" transform="scale(0.015625)"/>
        <path id="CMR17-35" d="M 730 3692 
C 794 3666 1056 3584 1325 3584 
C 1920 3584 2246 3911 2432 4100 
C 2432 4157 2432 4192 2394 4192 
C 2387 4192 2374 4192 2323 4163 
C 2099 4058 1837 3973 1517 3973 
C 1325 3973 1037 3999 723 4139 
C 653 4171 640 4171 634 4171 
C 602 4171 595 4164 595 4037 
L 595 2203 
C 595 2089 595 2057 659 2057 
C 691 2057 704 2070 736 2114 
C 941 2401 1222 2522 1542 2522 
C 1766 2522 2246 2382 2246 1289 
C 2246 1085 2246 715 2054 421 
C 1894 159 1645 25 1370 25 
C 947 25 518 320 403 814 
C 429 807 480 795 506 795 
C 589 795 749 840 749 1038 
C 749 1210 627 1280 506 1280 
C 358 1280 262 1190 262 1011 
C 262 454 704 -128 1382 -128 
C 2042 -128 2669 440 2669 1264 
C 2669 2030 2170 2624 1549 2624 
C 1222 2624 947 2503 730 2274 
L 730 3692 
z
" transform="scale(0.015625)"/>
       </defs>
       <use xlink:href="#CMR17-32" transform="scale(0.996264)"/>
       <use xlink:href="#CMR17-35" transform="translate(45.690477 0) scale(0.996264)"/>
      </g>
     </g>
    </g>
    <g id="xtick_2">
     <g id="line2d_2">
      <g>
       <use xlink:href="#m010c93fbdb" x="86.829641" y="71.062871" style="stroke: #000000; stroke-width: 0.8"/>
      </g>
     </g>
     <g id="text_2">
      <!-- 50 -->
      <g transform="translate(80.97665 86.365051) scale(0.12 -0.12)">
       <defs>
        <path id="CMR17-30" d="M 2688 2025 
C 2688 2416 2682 3080 2413 3591 
C 2176 4039 1798 4198 1466 4198 
C 1158 4198 768 4058 525 3597 
C 269 3118 243 2524 243 2025 
C 243 1661 250 1106 448 619 
C 723 -39 1216 -128 1466 -128 
C 1760 -128 2208 -7 2470 600 
C 2662 1042 2688 1559 2688 2025 
z
M 1466 -26 
C 1056 -26 813 325 723 812 
C 653 1188 653 1738 653 2096 
C 653 2588 653 2997 736 3387 
C 858 3929 1216 4096 1466 4096 
C 1728 4096 2067 3923 2189 3400 
C 2272 3036 2278 2607 2278 2096 
C 2278 1680 2278 1169 2202 792 
C 2067 95 1690 -26 1466 -26 
z
" transform="scale(0.015625)"/>
       </defs>
       <use xlink:href="#CMR17-35" transform="scale(0.996264)"/>
       <use xlink:href="#CMR17-30" transform="translate(45.690477 0) scale(0.996264)"/>
      </g>
     </g>
    </g>
    <g id="xtick_3">
     <g id="line2d_3">
      <g>
       <use xlink:href="#m010c93fbdb" x="114.574786" y="71.062871" style="stroke: #000000; stroke-width: 0.8"/>
      </g>
     </g>
     <g id="text_3">
      <!-- 75 -->
      <g transform="translate(108.721796 86.365051) scale(0.12 -0.12)">
       <defs>
        <path id="CMR17-37" d="M 2886 3941 
L 2886 4081 
L 1382 4081 
C 634 4081 621 4165 595 4288 
L 480 4288 
L 294 3094 
L 410 3094 
C 429 3215 474 3540 550 3661 
C 589 3712 1062 3712 1171 3712 
L 2579 3712 
L 1869 2661 
C 1395 1954 1069 999 1069 165 
C 1069 89 1069 -128 1299 -128 
C 1530 -128 1530 89 1530 171 
L 1530 465 
C 1530 1508 1709 2196 2003 2636 
L 2886 3941 
z
" transform="scale(0.015625)"/>
       </defs>
       <use xlink:href="#CMR17-37" transform="scale(0.996264)"/>
       <use xlink:href="#CMR17-35" transform="translate(45.690477 0) scale(0.996264)"/>
      </g>
     </g>
    </g>
    <g id="xtick_4">
     <g id="line2d_4">
      <g>
       <use xlink:href="#m010c93fbdb" x="142.319932" y="71.062871" style="stroke: #000000; stroke-width: 0.8"/>
      </g>
     </g>
     <g id="text_4">
      <!-- 100 -->
      <g transform="translate(133.540447 86.365051) scale(0.12 -0.12)">
       <defs>
        <path id="CMR17-31" d="M 1702 4058 
C 1702 4192 1696 4192 1606 4192 
C 1357 3916 979 3827 621 3827 
C 602 3827 570 3827 563 3808 
C 557 3795 557 3782 557 3648 
C 755 3648 1088 3686 1344 3839 
L 1344 461 
C 1344 236 1331 160 781 160 
L 589 160 
L 589 0 
C 896 0 1216 0 1523 0 
C 1830 0 2150 0 2458 0 
L 2458 160 
L 2266 160 
C 1715 160 1702 230 1702 458 
L 1702 4058 
z
" transform="scale(0.015625)"/>
       </defs>
       <use xlink:href="#CMR17-31" transform="scale(0.996264)"/>
       <use xlink:href="#CMR17-30" transform="translate(45.690477 0) scale(0.996264)"/>
       <use xlink:href="#CMR17-30" transform="translate(91.380954 0) scale(0.996264)"/>
      </g>
     </g>
    </g>
    <g id="xtick_5">
     <g id="line2d_5">
      <g>
       <use xlink:href="#m010c93fbdb" x="170.065078" y="71.062871" style="stroke: #000000; stroke-width: 0.8"/>
      </g>
     </g>
     <g id="text_5">
      <!-- 125 -->
      <g transform="translate(161.285592 86.365051) scale(0.12 -0.12)">
       <use xlink:href="#CMR17-31" transform="scale(0.996264)"/>
       <use xlink:href="#CMR17-32" transform="translate(45.690477 0) scale(0.996264)"/>
       <use xlink:href="#CMR17-35" transform="translate(91.380954 0) scale(0.996264)"/>
      </g>
     </g>
    </g>
    <g id="xtick_6">
     <g id="line2d_6">
      <g>
       <use xlink:href="#m010c93fbdb" x="197.810223" y="71.062871" style="stroke: #000000; stroke-width: 0.8"/>
      </g>
     </g>
     <g id="text_6">
      <!-- 150 -->
      <g transform="translate(189.030738 86.365051) scale(0.12 -0.12)">
       <use xlink:href="#CMR17-31" transform="scale(0.996264)"/>
       <use xlink:href="#CMR17-35" transform="translate(45.690477 0) scale(0.996264)"/>
       <use xlink:href="#CMR17-30" transform="translate(91.380954 0) scale(0.996264)"/>
      </g>
     </g>
    </g>
    <g id="xtick_7">
     <g id="line2d_7">
      <g>
       <use xlink:href="#m010c93fbdb" x="225.555369" y="71.062871" style="stroke: #000000; stroke-width: 0.8"/>
      </g>
     </g>
     <g id="text_7">
      <!-- 175 -->
      <g transform="translate(216.775884 86.365051) scale(0.12 -0.12)">
       <use xlink:href="#CMR17-31" transform="scale(0.996264)"/>
       <use xlink:href="#CMR17-37" transform="translate(45.690477 0) scale(0.996264)"/>
       <use xlink:href="#CMR17-35" transform="translate(91.380954 0) scale(0.996264)"/>
      </g>
     </g>
    </g>
    <g id="xtick_8">
     <g id="line2d_8">
      <g>
       <use xlink:href="#m010c93fbdb" x="253.300515" y="71.062871" style="stroke: #000000; stroke-width: 0.8"/>
      </g>
     </g>
     <g id="text_8">
      <!-- 200 -->
      <g transform="translate(244.521029 86.365051) scale(0.12 -0.12)">
       <use xlink:href="#CMR17-32" transform="scale(0.996264)"/>
       <use xlink:href="#CMR17-30" transform="translate(45.690477 0) scale(0.996264)"/>
       <use xlink:href="#CMR17-30" transform="translate(91.380954 0) scale(0.996264)"/>
      </g>
     </g>
    </g>
    <g id="text_9">
     <!-- RTT [ms] -->
     <g transform="translate(123.206144 101.656023) scale(0.12 -0.12)">
      <defs>
       <path id="CMR17-52" d="M 2509 2146 
C 3117 2268 3629 2676 3629 3186 
C 3629 3785 2950 4326 2054 4326 
L 333 4326 
L 333 4160 
C 774 4160 845 4160 845 3873 
L 845 415 
C 845 128 774 128 333 128 
L 333 -26 
C 518 -26 851 -26 1050 -26 
C 1248 -26 1581 -26 1766 -26 
L 1766 128 
C 1325 128 1254 128 1254 417 
L 1254 2112 
L 2003 2112 
C 2368 2112 2573 1964 2662 1881 
C 2918 1632 2918 1459 2918 1024 
C 2918 595 2918 377 3110 160 
C 3354 -102 3680 -128 3821 -128 
C 4294 -128 4365 396 4365 503 
C 4365 540 4365 585 4307 585 
C 4256 585 4250 547 4250 522 
C 4218 112 4032 -26 3834 -26 
C 3482 -26 3443 375 3405 764 
C 3386 898 3373 993 3360 1133 
C 3322 1452 3270 1917 2509 2146 
z
M 1984 2214 
L 1254 2214 
L 1254 3913 
C 1254 4129 1267 4160 1523 4160 
L 1990 4160 
C 2522 4160 3142 3977 3142 3190 
C 3142 2372 2464 2214 1984 2214 
z
" transform="scale(0.015625)"/>
       <path id="CMR17-54" d="M 3981 4326 
L 288 4326 
L 179 2918 
L 294 2918 
C 378 3976 467 4160 1453 4160 
C 1568 4160 1754 4160 1805 4154 
C 1926 4135 1926 4058 1926 3912 
L 1926 459 
C 1926 230 1907 160 1376 160 
L 1197 160 
L 1197 0 
C 1504 0 1824 0 2138 0 
C 2451 0 2771 0 3078 0 
L 3078 160 
L 2899 160 
C 2368 160 2349 230 2349 459 
L 2349 3912 
C 2349 4052 2349 4129 2464 4154 
C 2515 4160 2701 4160 2816 4160 
C 3795 4160 3891 3976 3974 2918 
L 4090 2918 
L 3981 4326 
z
" transform="scale(0.015625)"/>
       <path id="CMR17-5b" d="M 1504 -1600 
L 1504 -1377 
L 902 -1377 
L 902 4544 
L 1504 4544 
L 1504 4767 
L 678 4767 
L 678 -1600 
L 1504 -1600 
z
" transform="scale(0.015625)"/>
       <path id="CMR17-6d" d="M 4326 1933 
C 4326 2252 4269 2790 3507 2790 
C 3072 2790 2771 2496 2656 2151 
L 2650 2151 
C 2573 2676 2195 2790 1837 2790 
C 1331 2790 1069 2400 973 2144 
L 966 2144 
L 966 2790 
L 211 2720 
L 211 2554 
C 589 2554 646 2515 646 2208 
L 646 428 
C 646 184 621 153 211 153 
L 211 -13 
C 365 0 646 0 813 0 
C 979 0 1267 0 1421 -13 
L 1421 153 
C 1011 153 986 178 986 428 
L 986 1658 
C 986 2247 1344 2688 1792 2688 
C 2266 2688 2317 2266 2317 1958 
L 2317 428 
C 2317 184 2291 153 1882 153 
L 1882 -13 
C 2035 0 2317 0 2483 0 
C 2650 0 2938 0 3091 -13 
L 3091 153 
C 2682 153 2656 178 2656 428 
L 2656 1658 
C 2656 2247 3014 2688 3462 2688 
C 3936 2688 3987 2266 3987 1958 
L 3987 428 
C 3987 184 3962 153 3552 153 
L 3552 -13 
C 3706 0 3987 0 4154 0 
C 4320 0 4608 0 4762 -13 
L 4762 153 
C 4352 153 4326 178 4326 428 
L 4326 1933 
z
" transform="scale(0.015625)"/>
       <path id="CMR17-73" d="M 1978 2697 
C 1978 2813 1971 2819 1933 2819 
C 1907 2819 1901 2813 1824 2717 
C 1805 2691 1747 2626 1728 2601 
C 1523 2819 1235 2819 1126 2819 
C 416 2819 160 2447 160 2076 
C 160 1498 813 1365 998 1325 
C 1402 1243 1542 1217 1677 1101 
C 1760 1025 1901 884 1901 654 
C 1901 384 1747 38 1158 38 
C 602 38 403 460 288 1021 
C 269 1110 269 1117 218 1117 
C 166 1117 160 1110 160 983 
L 160 63 
C 160 -51 166 -58 205 -58 
C 237 -58 243 -51 275 0 
C 314 57 410 211 448 276 
C 576 103 800 -64 1158 -64 
C 1792 -64 2131 283 2131 784 
C 2131 1112 1958 1285 1875 1362 
C 1683 1561 1459 1606 1190 1657 
C 838 1735 390 1825 390 2217 
C 390 2383 480 2737 1126 2737 
C 1811 2737 1850 2094 1862 1888 
C 1869 1856 1901 1849 1920 1849 
C 1978 1849 1978 1869 1978 1978 
L 1978 2697 
z
" transform="scale(0.015625)"/>
       <path id="CMR17-5d" d="M 915 4767 
L 90 4767 
L 90 4544 
L 691 4544 
L 691 -1377 
L 90 -1377 
L 90 -1600 
L 915 -1600 
L 915 4767 
z
" transform="scale(0.015625)"/>
      </defs>
      <use xlink:href="#CMR17-52" transform="scale(0.996264)"/>
      <use xlink:href="#CMR17-54" transform="translate(59.983847 0) scale(0.996264)"/>
      <use xlink:href="#CMR17-54" transform="translate(126.493727 0) scale(0.996264)"/>
      <use xlink:href="#CMR17-5b" transform="translate(223.079574 0) scale(0.996264)"/>
      <use xlink:href="#CMR17-6d" transform="translate(247.950633 0) scale(0.996264)"/>
      <use xlink:href="#CMR17-73" transform="translate(324.870222 0) scale(0.996264)"/>
      <use xlink:href="#CMR17-5d" transform="translate(360.67156 0) scale(0.996264)"/>
     </g>
    </g>
   </g>
   <g id="matplotlib.axis_2">
    <g id="ytick_1">
     <g id="line2d_9">
      <path d="M 42.437408 67.876596 
L 253.300515 67.876596 
" clip-path="url(#p0bbdc43911)" style="fill: none; stroke: #b0b0b0; stroke-opacity: 0.7; stroke-width: 0.5; stroke-linecap: square"/>
     </g>
     <g id="line2d_10">
      <defs>
       <path id="mafd786460d" d="M 0 0 
L -3.5 0 
" style="stroke: #000000; stroke-width: 0.8"/>
      </defs>
      <g>
       <use xlink:href="#mafd786460d" x="42.437408" y="67.876596" style="stroke: #000000; stroke-width: 0.8"/>
      </g>
     </g>
     <g id="text_10">
      <!-- 0.00 -->
      <g transform="translate(14.626776 72.027686) scale(0.12 -0.12)">
       <defs>
        <path id="CMR17-2e" d="M 1062 261 
C 1062 420 934 522 800 522 
C 672 522 538 420 538 261 
C 538 102 666 0 800 0 
C 928 0 1062 102 1062 261 
z
" transform="scale(0.015625)"/>
       </defs>
       <use xlink:href="#CMR17-30" transform="scale(0.996264)"/>
       <use xlink:href="#CMR17-2e" transform="translate(45.690477 0) scale(0.996264)"/>
       <use xlink:href="#CMR17-30" transform="translate(70.561536 0) scale(0.996264)"/>
       <use xlink:href="#CMR17-30" transform="translate(116.252013 0) scale(0.996264)"/>
      </g>
     </g>
    </g>
    <g id="ytick_2">
     <g id="line2d_11">
      <path d="M 42.437408 51.945219 
L 253.300515 51.945219 
" clip-path="url(#p0bbdc43911)" style="fill: none; stroke: #b0b0b0; stroke-opacity: 0.7; stroke-width: 0.5; stroke-linecap: square"/>
     </g>
     <g id="line2d_12">
      <g>
       <use xlink:href="#mafd786460d" x="42.437408" y="51.945219" style="stroke: #000000; stroke-width: 0.8"/>
      </g>
     </g>
     <g id="text_11">
      <!-- 0.25 -->
      <g transform="translate(14.626776 56.096309) scale(0.12 -0.12)">
       <use xlink:href="#CMR17-30" transform="scale(0.996264)"/>
       <use xlink:href="#CMR17-2e" transform="translate(45.690477 0) scale(0.996264)"/>
       <use xlink:href="#CMR17-32" transform="translate(70.561536 0) scale(0.996264)"/>
       <use xlink:href="#CMR17-35" transform="translate(116.252013 0) scale(0.996264)"/>
      </g>
     </g>
    </g>
    <g id="ytick_3">
     <g id="line2d_13">
      <path d="M 42.437408 36.013843 
L 253.300515 36.013843 
" clip-path="url(#p0bbdc43911)" style="fill: none; stroke: #b0b0b0; stroke-opacity: 0.7; stroke-width: 0.5; stroke-linecap: square"/>
     </g>
     <g id="line2d_14">
      <g>
       <use xlink:href="#mafd786460d" x="42.437408" y="36.013843" style="stroke: #000000; stroke-width: 0.8"/>
      </g>
     </g>
     <g id="text_12">
      <!-- 0.50 -->
      <g transform="translate(14.626776 40.164933) scale(0.12 -0.12)">
       <use xlink:href="#CMR17-30" transform="scale(0.996264)"/>
       <use xlink:href="#CMR17-2e" transform="translate(45.690477 0) scale(0.996264)"/>
       <use xlink:href="#CMR17-35" transform="translate(70.561536 0) scale(0.996264)"/>
       <use xlink:href="#CMR17-30" transform="translate(116.252013 0) scale(0.996264)"/>
      </g>
     </g>
    </g>
    <g id="ytick_4">
     <g id="line2d_15">
      <path d="M 42.437408 20.082466 
L 253.300515 20.082466 
" clip-path="url(#p0bbdc43911)" style="fill: none; stroke: #b0b0b0; stroke-opacity: 0.7; stroke-width: 0.5; stroke-linecap: square"/>
     </g>
     <g id="line2d_16">
      <g>
       <use xlink:href="#mafd786460d" x="42.437408" y="20.082466" style="stroke: #000000; stroke-width: 0.8"/>
      </g>
     </g>
     <g id="text_13">
      <!-- 0.75 -->
      <g transform="translate(14.626776 24.233556) scale(0.12 -0.12)">
       <use xlink:href="#CMR17-30" transform="scale(0.996264)"/>
       <use xlink:href="#CMR17-2e" transform="translate(45.690477 0) scale(0.996264)"/>
       <use xlink:href="#CMR17-37" transform="translate(70.561536 0) scale(0.996264)"/>
       <use xlink:href="#CMR17-35" transform="translate(116.252013 0) scale(0.996264)"/>
      </g>
     </g>
    </g>
    <g id="ytick_5">
     <g id="line2d_17">
      <path d="M 42.437408 4.15109 
L 253.300515 4.15109 
" clip-path="url(#p0bbdc43911)" style="fill: none; stroke: #b0b0b0; stroke-opacity: 0.7; stroke-width: 0.5; stroke-linecap: square"/>
     </g>
     <g id="line2d_18">
      <g>
       <use xlink:href="#mafd786460d" x="42.437408" y="4.15109" style="stroke: #000000; stroke-width: 0.8"/>
      </g>
     </g>
     <g id="text_14">
      <!-- 1.00 -->
      <g transform="translate(14.626776 8.30218) scale(0.12 -0.12)">
       <use xlink:href="#CMR17-31" transform="scale(0.996264)"/>
       <use xlink:href="#CMR17-2e" transform="translate(45.690477 0) scale(0.996264)"/>
       <use xlink:href="#CMR17-30" transform="translate(70.561536 0) scale(0.996264)"/>
       <use xlink:href="#CMR17-30" transform="translate(116.252013 0) scale(0.996264)"/>
      </g>
     </g>
    </g>
    <g id="text_15">
     <!-- Percentile -->
     <g transform="translate(8.30218 61.131892) rotate(-90) scale(0.12 -0.12)">
      <defs>
       <path id="CMR17-50" d="M 1267 2042 
L 2291 2042 
C 3117 2042 3718 2578 3718 3184 
C 3718 3791 3130 4352 2291 4352 
L 333 4352 
L 333 4186 
C 774 4186 845 4186 845 3899 
L 845 446 
C 845 160 774 160 333 160 
L 333 0 
C 518 0 858 0 1056 0 
C 1254 0 1594 0 1779 0 
L 1779 160 
C 1338 160 1267 160 1267 446 
L 1267 2042 
z
M 1254 2176 
L 1254 3938 
C 1254 4155 1267 4186 1523 4186 
L 2170 4186 
C 2995 4186 3232 3714 3232 3184 
C 3232 2604 2950 2176 2170 2176 
L 1254 2176 
z
" transform="scale(0.015625)"/>
       <path id="CMR17-65" d="M 2438 1472 
C 2464 1498 2464 1511 2464 1576 
C 2464 2238 2118 2816 1389 2816 
C 710 2816 173 2169 173 1383 
C 173 551 781 -64 1459 -64 
C 2176 -64 2458 607 2458 740 
C 2458 784 2419 784 2406 784 
C 2362 784 2355 771 2330 696 
C 2189 265 1837 51 1504 51 
C 1229 51 954 203 781 480 
C 582 803 582 1176 582 1472 
L 2438 1472 
z
M 589 1568 
C 634 2505 1126 2714 1382 2714 
C 1818 2714 2112 2297 2118 1568 
L 589 1568 
z
" transform="scale(0.015625)"/>
       <path id="CMR17-72" d="M 960 1497 
C 960 2112 1222 2688 1702 2688 
C 1747 2688 1792 2682 1837 2662 
C 1837 2662 1696 2617 1696 2452 
C 1696 2298 1818 2234 1914 2234 
C 1990 2234 2131 2279 2131 2458 
C 2131 2663 1926 2790 1709 2790 
C 1222 2790 1011 2317 947 2093 
L 941 2093 
L 941 2790 
L 198 2720 
L 198 2554 
C 576 2554 634 2515 634 2208 
L 634 428 
C 634 184 608 153 198 153 
L 198 -13 
C 352 0 646 0 813 0 
C 998 0 1325 0 1498 -13 
L 1498 153 
C 1037 153 960 153 960 440 
L 960 1497 
z
" transform="scale(0.015625)"/>
       <path id="CMR17-63" d="M 2234 2240 
C 2112 2240 1933 2240 1933 2017 
C 1933 1838 2080 1787 2163 1787 
C 2208 1787 2394 1807 2394 2024 
C 2394 2467 1958 2803 1466 2803 
C 787 2803 211 2178 211 1363 
C 211 516 813 -64 1466 -64 
C 2259 -64 2458 677 2458 748 
C 2458 774 2451 793 2406 793 
C 2362 793 2355 787 2330 703 
C 2163 180 1798 51 1523 51 
C 1114 51 621 427 621 1369 
C 621 2338 1094 2688 1472 2688 
C 1722 2688 2093 2573 2234 2240 
z
" transform="scale(0.015625)"/>
       <path id="CMR17-6e" d="M 2656 1933 
C 2656 2259 2592 2790 1837 2790 
C 1331 2790 1069 2400 973 2144 
L 966 2144 
L 966 2790 
L 211 2720 
L 211 2554 
C 589 2554 646 2515 646 2208 
L 646 428 
C 646 184 621 153 211 153 
L 211 -13 
C 365 0 646 0 813 0 
C 979 0 1267 0 1421 -13 
L 1421 153 
C 1011 153 986 178 986 428 
L 986 1658 
C 986 2247 1344 2688 1792 2688 
C 2266 2688 2317 2266 2317 1958 
L 2317 428 
C 2317 184 2291 153 1882 153 
L 1882 -13 
C 2035 0 2317 0 2483 0 
C 2650 0 2938 0 3091 -13 
L 3091 153 
C 2682 153 2656 178 2656 428 
L 2656 1933 
z
" transform="scale(0.015625)"/>
       <path id="CMR17-74" d="M 966 2560 
L 1862 2560 
L 1862 2725 
L 966 2725 
L 966 3904 
L 851 3904 
C 838 3245 614 2668 70 2668 
L 70 2560 
L 627 2560 
L 627 771 
C 627 650 627 -64 1370 -64 
C 1747 -64 1965 306 1965 777 
L 1965 1140 
L 1850 1140 
L 1850 783 
C 1850 344 1677 51 1408 51 
C 1222 51 966 178 966 758 
L 966 2560 
z
" transform="scale(0.015625)"/>
       <path id="CMR17-69" d="M 992 3909 
C 992 4049 877 4170 730 4170 
C 589 4170 467 4056 467 3909 
C 467 3769 582 3648 730 3648 
C 870 3648 992 3763 992 3909 
z
M 243 2706 
L 243 2541 
C 602 2541 653 2502 653 2197 
L 653 427 
C 653 184 627 153 218 153 
L 218 -13 
C 371 0 646 0 806 0 
C 960 0 1222 0 1370 -13 
L 1370 153 
C 992 153 979 191 979 420 
L 979 2776 
L 243 2706 
z
" transform="scale(0.015625)"/>
       <path id="CMR17-6c" d="M 979 4396 
L 218 4326 
L 218 4160 
C 595 4160 653 4122 653 3817 
L 653 426 
C 653 184 627 153 218 153 
L 218 -13 
C 371 0 653 0 813 0 
C 979 0 1261 0 1414 -13 
L 1414 153 
C 1005 153 979 178 979 426 
L 979 4396 
z
" transform="scale(0.015625)"/>
      </defs>
      <use xlink:href="#CMR17-50" transform="scale(0.996264)"/>
      <use xlink:href="#CMR17-65" transform="translate(59.983847 0) scale(0.996264)"/>
      <use xlink:href="#CMR17-72" transform="translate(100.469507 0) scale(0.996264)"/>
      <use xlink:href="#CMR17-63" transform="translate(135.750275 0) scale(0.996264)"/>
      <use xlink:href="#CMR17-65" transform="translate(176.235935 0) scale(0.996264)"/>
      <use xlink:href="#CMR17-6e" transform="translate(216.721596 0) scale(0.996264)"/>
      <use xlink:href="#CMR17-74" transform="translate(265.014512 0) scale(0.996264)"/>
      <use xlink:href="#CMR17-69" transform="translate(300.295279 0) scale(0.996264)"/>
      <use xlink:href="#CMR17-6c" transform="translate(325.166338 0) scale(0.996264)"/>
      <use xlink:href="#CMR17-65" transform="translate(350.037396 0) scale(0.996264)"/>
     </g>
    </g>
   </g>
   <g id="line2d_19">
    <path d="M 46.612497 67.874912 
L 50.582273 67.755348 
L 50.898567 67.704829 
L 51.303646 67.593686 
L 51.434603 67.529694 
L 51.824145 67.393291 
L 52.039448 67.266992 
L 52.323558 67.117117 
L 53.583187 65.685726 
L 53.761866 65.495435 
L 53.987157 65.311881 
L 54.644162 64.702277 
L 54.757362 64.523774 
L 54.88166 64.385687 
L 55.159112 63.89733 
L 55.662964 63.333194 
L 55.899352 63.01492 
L 56.103557 62.747166 
L 56.241172 62.553507 
L 56.500867 62.110618 
L 56.650691 61.859704 
L 56.838248 61.522906 
L 57.360967 60.531036 
L 57.57072 60.088147 
L 57.659504 59.921432 
L 57.973579 59.03397 
L 58.08678 58.596133 
L 58.221066 58.358691 
L 58.399745 58.062309 
L 59.452951 56.265493 
L 59.661594 55.831023 
L 59.788112 55.596949 
L 60.193191 54.882938 
L 60.306391 54.541088 
L 60.478411 54.275018 
L 60.671517 53.906224 
L 60.832439 53.58795 
L 61.531617 52.272755 
L 61.673672 52.100988 
L 63.335051 49.780452 
L 63.567001 49.468914 
L 63.721264 49.283675 
L 63.925468 49.015921 
L 64.040888 48.881202 
L 64.194041 48.701015 
L 64.412673 48.468624 
L 64.586912 48.293489 
L 64.882121 47.931432 
L 65.651216 46.964822 
L 65.74222 46.872203 
L 65.85542 46.680228 
L 66.464704 45.954429 
L 66.59899 45.765822 
L 66.782108 45.449232 
L 67.099513 44.82784 
L 67.312595 44.659441 
L 67.961832 44.162665 
L 68.072812 44.039734 
L 69.252536 43.00408 
L 69.557733 42.770006 
L 69.888455 42.466888 
L 70.180334 42.256389 
L 70.295753 42.091359 
L 70.554338 41.892648 
L 70.756323 41.736037 
L 71.2857 41.19716 
L 71.51765 40.93109 
L 71.736281 40.771111 
L 71.984878 40.592608 
L 72.216827 40.441049 
L 72.54311 40.137931 
L 72.696263 40.003212 
L 73.921489 39.20837 
L 74.148999 39.061863 
L 74.389827 38.896832 
L 74.749404 38.672861 
L 76.240983 37.677624 
L 76.836949 37.468809 
L 76.961247 37.413238 
L 77.950084 37.07644 
L 78.063284 37.020868 
L 78.618187 36.828893 
L 78.748035 36.775006 
L 79.2874 36.625131 
L 80.165257 36.399476 
L 80.330618 36.348957 
L 81.035344 36.199082 
L 82.094099 35.965007 
L 82.229495 35.944799 
L 83.496894 35.666941 
L 83.614533 35.633261 
L 84.484621 35.456442 
L 87.00721 35.018605 
L 88.340086 34.865362 
L 96.20528 33.902121 
L 96.481622 33.883597 
L 98.452637 33.657942 
L 100.790998 33.501331 
L 112.347406 32.600397 
L 112.49612 32.573454 
L 113.765738 32.383163 
L 114.195233 32.288859 
L 115.047564 32.113725 
L 115.29505 32.054785 
L 115.803341 31.911646 
L 116.888731 31.635472 
L 117.206136 31.52938 
L 118.166118 31.25489 
L 118.338138 31.192583 
L 121.514402 30.104726 
L 122.342317 29.889175 
L 122.457737 29.850444 
L 123.149146 29.658469 
L 123.315617 29.606265 
L 124.076944 29.42271 
L 125.149016 29.133064 
L 125.936978 28.973085 
L 134.071855 27.322776 
L 135.92856 27.055022 
L 137.172653 26.854627 
L 147.621474 25.640472 
L 149.083089 25.495648 
L 151.350422 25.25989 
L 153.113903 25.061179 
L 166.059788 24.047418 
L 168.905331 23.889123 
L 170.073956 23.82008 
L 173.337895 23.591057 
L 174.750678 23.409186 
L 175.379938 23.286255 
L 175.900437 23.134696 
L 176.190096 23.052181 
L 177.012462 22.730539 
L 177.19336 22.651391 
L 177.599549 22.47794 
L 177.737165 22.403845 
L 178.415257 22.028315 
L 178.603924 21.942432 
L 178.942414 21.753825 
L 179.051175 21.674678 
L 179.30865 21.506279 
L 179.459584 21.39682 
L 180.6271 20.686176 
L 180.762496 20.576717 
L 181.682525 19.989005 
L 181.932231 19.803766 
L 182.105361 19.658943 
L 182.28293 19.386137 
L 182.515989 19.232894 
L 183.372759 18.719277 
L 183.584732 18.560982 
L 183.877721 18.310068 
L 184.156282 18.138301 
L 184.373804 18.00695 
L 184.56802 17.814975 
L 184.79553 17.670152 
L 185.25721 17.314831 
L 185.390386 17.225579 
L 185.533551 17.12454 
L 185.695583 16.984769 
L 185.904226 16.86689 
L 186.187227 16.700175 
L 186.711055 16.344853 
L 186.819816 16.198346 
L 187.237103 15.994583 
L 187.723198 15.763877 
L 188.031724 15.571902 
L 192.33999 13.514068 
L 193.002544 13.290097 
L 193.25447 13.237894 
L 193.619596 13.064443 
L 198.816817 11.210371 
L 199.939941 10.959457 
L 200.076447 10.898833 
L 200.22849 10.858417 
L 201.207339 10.691703 
L 201.327198 10.668127 
L 213.687105 9.216528 
L 217.671308 8.962246 
L 217.808924 8.936986 
L 234.06758 8.165719 
L 237.590103 8.019212 
L 242.262386 7.783454 
L 244.483107 7.655471 
L 246.75488 7.534223 
L 251.756775 7.278257 
L 251.793398 7.274889 
L 253.314942 7.183954 
L 253.314942 7.183954 
" clip-path="url(#p0bbdc43911)" style="fill: none; stroke: #1f77b4; stroke-width: 1.5; stroke-linecap: square"/>
   </g>
   <g id="line2d_20">
    <path d="M 47.123008 67.872965 
L 50.533441 67.753167 
L 51.22596 67.611587 
L 51.603294 67.466377 
L 53.17145 66.315586 
L 53.297967 66.144964 
L 54.026 65.139383 
L 54.181373 65.005064 
L 54.59977 64.5295 
L 54.702982 64.329836 
L 54.848366 64.10113 
L 55.181308 63.574743 
L 55.416587 63.182675 
L 55.867168 62.452994 
L 55.998125 62.300523 
L 56.386557 61.716052 
L 56.606299 61.186035 
L 56.760562 60.917396 
L 57.930297 58.111208 
L 58.096768 57.203644 
L 58.372 56.677257 
L 58.692734 56.165391 
L 58.926903 55.751542 
L 59.043432 55.562769 
L 59.207683 55.207004 
L 59.39857 54.836718 
L 59.748159 54.070734 
L 59.91574 53.72949 
L 60.062234 53.493523 
L 60.155458 53.279338 
L 60.348564 52.73117 
L 60.471752 52.487942 
L 61.22753 50.393285 
L 61.300777 50.248075 
L 61.416197 49.964915 
L 61.598205 49.714427 
L 61.91561 49.206191 
L 62.072092 48.90125 
L 62.166426 48.708846 
L 62.334006 48.3313 
L 62.806784 47.456408 
L 63.027635 47.180509 
L 63.362796 46.715836 
L 64.459285 45.133045 
L 64.629085 44.893448 
L 64.754493 44.682893 
L 65.067458 44.283565 
L 65.294968 43.913279 
L 65.594616 43.423194 
L 65.823236 43.045648 
L 65.990817 42.860505 
L 66.232754 42.595496 
L 66.6001 42.036437 
L 66.758802 41.731495 
L 67.102842 40.95099 
L 67.51347 40.715024 
L 68.636594 39.647729 
L 69.079406 39.38635 
L 69.204814 39.335527 
L 69.428995 39.179426 
L 69.963921 38.758316 
L 72.103627 37.465945 
L 72.396616 37.335256 
L 72.595271 37.222718 
L 72.756193 37.073877 
L 72.935981 36.983121 
L 73.51863 36.758045 
L 74.640643 36.384129 
L 74.77271 36.329675 
L 75.372005 36.180835 
L 75.724924 36.024734 
L 75.878077 35.901305 
L 78.163167 35.331355 
L 78.655921 35.186145 
L 78.771341 35.146212 
L 79.34622 35.030044 
L 86.953939 33.832059 
L 88.813973 33.679588 
L 90.497549 33.458143 
L 91.149005 33.378277 
L 97.088686 32.793806 
L 101.386964 32.456192 
L 101.452442 32.448932 
L 103.154884 32.307352 
L 106.293415 32.038713 
L 108.228917 31.8572 
L 108.403156 31.828158 
L 109.825927 31.664797 
L 111.2376 31.494175 
L 111.344142 31.461502 
L 112.681458 31.269099 
L 118.21273 30.626544 
L 130.682508 29.497534 
L 130.826783 29.472122 
L 132.160769 29.283349 
L 142.301065 26.618741 
L 142.400948 26.586069 
L 143.414201 26.360993 
L 147.712478 25.290068 
L 148.61586 25.141227 
L 151.229453 24.734639 
L 152.958531 24.491412 
L 163.893447 23.438638 
L 164.846771 23.268016 
L 166.236248 23.039309 
L 169.459124 21.870367 
L 169.590081 21.786871 
L 170.021795 21.61988 
L 170.378043 21.409325 
L 171.040597 21.009997 
L 171.449005 20.759509 
L 171.976163 20.392853 
L 172.117109 20.309357 
L 173.392275 19.169457 
L 173.505476 18.973423 
L 173.76628 18.817322 
L 174.618611 18.254633 
L 174.821705 18.105792 
L 175.002604 17.887977 
L 178.848081 14.885756 
L 179.098897 14.646159 
L 179.276466 14.439234 
L 179.801404 14.025385 
L 180.065538 13.800309 
L 180.214252 13.684141 
L 181.30852 13.085149 
L 181.621486 12.939939 
L 181.844557 12.780207 
L 182.072067 12.634997 
L 182.194146 12.569653 
L 183.160786 12.039635 
L 183.411603 11.923467 
L 183.551438 11.836341 
L 184.064168 11.618526 
L 184.488114 11.476946 
L 184.622401 11.411601 
L 185.247221 11.092138 
L 185.430339 11.005012 
L 186.16836 10.725483 
L 186.819816 10.474995 
L 189.968335 9.650927 
L 190.606474 9.476675 
L 190.749639 9.422221 
L 201.026441 8.13348 
L 204.480156 7.835799 
L 205.500068 7.752303 
L 216.842283 6.953647 
L 220.440274 6.764874 
L 220.681102 6.739462 
L 223.562158 6.583361 
L 227.331058 6.42 
L 230.993418 6.271159 
L 231.318591 6.245747 
L 239.38022 5.973478 
L 240.114912 5.937176 
L 250.325125 5.624974 
L 253.570197 5.585041 
L 253.570197 5.585041 
" clip-path="url(#p0bbdc43911)" style="fill: none; stroke-dasharray: 1.5,2.475; stroke-dashoffset: 0; stroke: #ff7f0e; stroke-width: 1.5"/>
   </g>
   <g id="line2d_21">
    <path d="M 47.838833 67.875412 
L 51.817486 67.703757 
L 53.534356 67.22549 
L 53.646446 67.168666 
L 55.351108 66.599244 
L 55.808348 66.319861 
L 55.980368 66.2145 
L 56.490879 65.816733 
L 57.601794 64.47072 
L 57.813767 64.154638 
L 57.919199 63.92971 
L 58.135611 63.482223 
L 58.364231 63.28334 
L 58.562886 63.119971 
L 58.844777 62.846507 
L 59.002369 62.659462 
L 59.68268 61.77159 
L 59.962351 61.433015 
L 60.094418 61.268463 
L 60.192081 61.10983 
L 60.306391 60.830446 
L 60.71147 60.236164 
L 61.604864 58.589459 
L 61.763566 58.340854 
L 63.104212 55.74235 
L 63.522608 55.180031 
L 63.635809 54.905383 
L 63.939895 54.420013 
L 64.137441 54.061313 
L 64.512555 53.501362 
L 64.711211 53.044404 
L 64.903207 52.705829 
L 64.980893 52.538909 
L 66.759912 48.485479 
L 66.991861 47.58577 
L 67.304827 47.177349 
L 67.537886 46.928745 
L 67.676612 46.776031 
L 67.805349 46.613846 
L 68.248162 45.930777 
L 68.693194 45.293877 
L 68.981743 44.937544 
L 69.071638 44.808507 
L 69.184838 44.606072 
L 69.683141 43.912349 
L 70.809594 42.31418 
L 70.911696 42.179223 
L 71.146975 41.793295 
L 71.206904 41.655971 
L 71.488795 41.110226 
L 71.674132 40.957512 
L 73.731712 38.923694 
L 73.941466 38.753223 
L 74.591812 38.219316 
L 74.687255 38.079624 
L 74.878142 37.932829 
L 75.501853 37.474688 
L 76.195481 36.895795 
L 76.89022 36.59747 
L 77.020067 36.551301 
L 77.621582 36.3098 
L 77.844653 36.231667 
L 78.231975 36.078953 
L 80.012103 35.489407 
L 80.562567 35.316568 
L 81.490365 35.129523 
L 81.617992 35.102295 
L 82.4337 34.934191 
L 82.609049 34.906963 
L 87.51661 34.266511 
L 89.042593 34.13629 
L 89.942646 34.056974 
L 91.859281 33.905444 
L 92.984624 33.83323 
L 95.344071 33.693538 
L 98.229566 33.518332 
L 102.849688 33.262625 
L 104.776311 33.030594 
L 106.479863 32.692019 
L 107.173491 32.442231 
L 107.721735 32.289517 
L 108.116826 32.126149 
L 108.49416 31.99356 
L 109.788194 31.415852 
L 109.942457 31.342454 
L 110.2643 31.161328 
L 111.118851 30.675959 
L 111.58386 30.342119 
L 112.128774 30.08286 
L 112.274159 29.989338 
L 112.739167 29.65313 
L 112.973336 29.499233 
L 113.666965 29.004392 
L 113.838985 28.894296 
L 114.048738 28.736847 
L 114.807846 28.084557 
L 114.983195 27.941314 
L 116.04084 26.974126 
L 116.793288 26.536109 
L 116.906488 26.428381 
L 117.155085 26.222395 
L 117.901984 25.708613 
L 118.019624 25.593781 
L 118.261561 25.429229 
L 119.103904 24.855072 
L 119.281473 24.737873 
L 119.827497 24.327085 
L 119.957345 24.214621 
L 120.110498 24.045333 
L 120.262541 23.868943 
L 120.616569 23.693736 
L 120.902899 23.548125 
L 121.253598 23.339771 
L 121.828477 23.060388 
L 122.183615 22.914777 
L 125.157895 21.453932 
L 125.669515 21.276358 
L 125.792704 21.220718 
L 126.778211 20.902268 
L 126.905839 20.856098 
L 127.4108 20.70812 
L 127.951276 20.544751 
L 128.357465 20.453597 
L 129.580471 20.129228 
L 130.319602 19.982433 
L 131.882208 19.743299 
L 132.702355 19.637939 
L 135.291532 19.381048 
L 137.773057 19.19637 
L 138.703075 19.143098 
L 148.881104 18.650625 
L 166.091973 17.947431 
L 169.643351 17.637268 
L 171.117174 17.469164 
L 173.695252 16.964853 
L 173.957167 16.912765 
L 174.667442 16.762418 
L 182.218561 14.635078 
L 182.446071 14.553394 
L 183.260669 14.373452 
L 183.760082 14.244414 
L 184.205114 14.130767 
L 184.905401 13.944906 
L 185.105166 13.894001 
L 187.329217 13.386139 
L 188.531137 13.176601 
L 189.612088 13.025071 
L 194.211123 12.435524 
L 196.28535 12.278075 
L 211.441968 11.040974 
L 214.410699 10.859848 
L 218.34718 10.619531 
L 221.168307 10.440772 
L 226.655187 9.749416 
L 226.832755 9.700879 
L 228.63397 9.377694 
L 228.766037 9.35165 
L 239.03729 7.269295 
L 239.982845 7.1225 
L 240.529979 7.042 
L 241.95275 6.870345 
L 242.373366 6.836014 
L 246.004651 6.560182 
L 253.380421 6.297372 
L 253.380421 6.297372 
" clip-path="url(#p0bbdc43911)" style="fill: none; stroke-dasharray: 5.55,2.4; stroke-dashoffset: 0; stroke: #2ca02c; stroke-width: 1.5"/>
   </g>
   <g id="line2d_22">
    <path d="M 47.750048 67.876445 
L 51.313635 67.760788 
L 51.434603 67.737807 
L 52.502237 67.407958 
L 53.079336 67.15156 
L 53.375654 66.956595 
L 53.825125 66.583487 
L 54.536511 66.276169 
L 57.576269 64.08544 
L 58.606169 62.624103 
L 59.080056 62.022986 
L 59.840273 60.730779 
L 60.102187 60.375095 
L 60.193191 60.239911 
L 60.306391 59.913517 
L 60.477301 59.632635 
L 60.950079 58.576549 
L 61.278581 58.067056 
L 61.321864 57.940284 
L 61.752468 57.514755 
L 62.297383 56.845746 
L 62.974364 55.957588 
L 63.379444 55.550234 
L 64.171845 54.474771 
L 65.289419 52.938482 
L 65.91646 51.845446 
L 66.763241 50.258839 
L 67.188297 49.254122 
L 67.946294 48.269684 
L 68.546699 47.098992 
L 68.949559 46.692839 
L 70.539911 44.727267 
L 73.961442 40.734537 
L 74.412023 40.190497 
L 74.783808 39.760913 
L 75.558453 38.874107 
L 75.710496 38.547263 
L 75.957983 38.119932 
L 76.840278 37.397449 
L 76.954588 37.240786 
L 77.865739 36.417517 
L 78.017782 36.23592 
L 78.605979 35.704047 
L 79.23302 35.114345 
L 79.526008 34.920131 
L 81.100823 33.784286 
L 82.389308 32.965673 
L 82.503618 32.865487 
L 82.744445 32.72099 
L 83.028556 32.522871 
L 85.102783 31.253344 
L 91.827096 28.642945 
L 93.51844 28.070216 
L 93.848053 27.981145 
L 103.280292 25.543029 
L 104.604291 25.251783 
L 107.102464 24.69047 
L 108.556309 24.38165 
L 109.935798 24.123148 
L 110.760384 23.956121 
L 112.601552 23.5728 
L 114.362813 23.222374 
L 116.353805 22.798497 
L 118.549001 22.389491 
L 119.511203 22.181007 
L 120.150451 21.982437 
L 120.748636 21.85942 
L 133.953106 18.400066 
L 134.978566 18.21937 
L 137.790814 17.7267 
L 138.886193 17.544052 
L 139.958265 17.384685 
L 141.847155 17.114167 
L 142.828223 16.958706 
L 146.667041 16.457474 
L 147.449454 16.360743 
L 152.50684 15.788315 
L 177.966895 13.379639 
L 178.883595 13.246558 
L 179.478451 13.119335 
L 183.379418 12.48337 
L 183.505936 12.451978 
L 184.85657 12.200836 
L 185.469183 12.068957 
L 186.959652 11.780565 
L 189.806304 11.283238 
L 190.17032 11.21099 
L 191.0282 11.061537 
L 191.42773 10.970213 
L 192.389932 10.815653 
L 193.479761 10.635708 
L 195.02683 10.384717 
L 195.532902 10.29895 
L 209.337776 8.542461 
L 211.552949 8.371379 
L 215.920035 8.06316 
L 217.543681 7.955313 
L 225.554259 7.486976 
L 225.668569 7.478264 
L 227.939232 7.359303 
L 247.024563 6.437349 
L 250.441655 6.268519 
L 251.622488 6.219553 
L 253.301624 6.147154 
L 253.301624 6.147154 
" clip-path="url(#p0bbdc43911)" style="fill: none; stroke-dasharray: 9.6,2.4,1.5,2.4; stroke-dashoffset: 0; stroke: #d62728; stroke-width: 1.5"/>
   </g>
   <g id="patch_3">
    <path d="M 42.437408 71.062871 
L 42.437408 0.964815 
" style="fill: none; stroke: #000000; stroke-width: 0.8; stroke-linejoin: miter; stroke-linecap: square"/>
   </g>
   <g id="patch_4">
    <path d="M 253.300515 71.062871 
L 253.300515 0.964815 
" style="fill: none; stroke: #000000; stroke-width: 0.8; stroke-linejoin: miter; stroke-linecap: square"/>
   </g>
   <g id="patch_5">
    <path d="M 42.437408 71.062871 
L 253.300515 71.062871 
" style="fill: none; stroke: #000000; stroke-width: 0.8; stroke-linejoin: miter; stroke-linecap: square"/>
   </g>
   <g id="patch_6">
    <path d="M 42.437408 0.964815 
L 253.300515 0.964815 
" style="fill: none; stroke: #000000; stroke-width: 0.8; stroke-linejoin: miter; stroke-linecap: square"/>
   </g>
   <g id="legend_1">
    <g id="patch_7">
     <path d="M 132.839909 66.064871 
L 248.302515 66.064871 
L 248.302515 39.601105 
L 132.839909 39.601105 
z
" style="fill: #ffffff; opacity: 0.8; stroke: #000000; stroke-linejoin: miter"/>
    </g>
    <g id="line2d_23">
     <path d="M 136.838309 47.098105 
L 141.836309 47.098105 
L 146.834309 47.098105 
" style="fill: none; stroke: #1f77b4; stroke-width: 1.5; stroke-linecap: square"/>
    </g>
    <g id="text_16">
     <!-- Bogotá -->
     <g transform="translate(149.833109 50.596705) scale(0.09996 -0.09996)">
      <defs>
       <path id="CMR17-42" d="M 333 4352 
L 333 4186 
C 774 4186 845 4186 845 3900 
L 845 452 
C 845 166 774 166 333 166 
L 333 0 
L 2534 0 
C 3354 0 3885 583 3885 1164 
C 3885 1741 3360 2233 2675 2233 
C 3290 2356 3718 2771 3718 3264 
C 3718 3802 3194 4352 2368 4352 
L 333 4352 
z
M 1248 2304 
L 1248 3937 
C 1248 4155 1261 4186 1517 4186 
L 2336 4186 
C 2970 4186 3251 3674 3251 3277 
C 3251 2791 2861 2304 2170 2304 
L 1248 2304 
z
M 1517 166 
C 1261 166 1248 197 1248 413 
L 1248 2202 
L 2432 2202 
C 3091 2202 3411 1625 3411 1162 
C 3411 699 3046 166 2349 166 
L 1517 166 
z
" transform="scale(0.015625)"/>
       <path id="CMR17-6f" d="M 2758 1356 
C 2758 2176 2163 2816 1466 2816 
C 768 2816 173 2176 173 1356 
C 173 551 768 -64 1466 -64 
C 2163 -64 2758 551 2758 1356 
z
M 1466 51 
C 1165 51 909 230 762 480 
C 602 767 582 1126 582 1408 
C 582 1677 595 2010 762 2298 
C 890 2509 1139 2714 1466 2714 
C 1754 2714 1997 2554 2150 2330 
C 2349 2029 2349 1607 2349 1408 
C 2349 1158 2336 775 2163 467 
C 1984 173 1709 51 1466 51 
z
" transform="scale(0.015625)"/>
       <path id="CMR17-67" d="M 710 1164 
C 832 1068 1043 960 1299 960 
C 1805 960 2240 1357 2240 1888 
C 2240 2054 2189 2310 1997 2509 
C 2176 2692 2438 2752 2586 2752 
C 2611 2752 2650 2752 2682 2734 
C 2656 2728 2598 2703 2598 2605 
C 2598 2527 2656 2471 2739 2471 
C 2835 2471 2886 2533 2886 2614 
C 2886 2731 2790 2854 2586 2854 
C 2330 2854 2106 2738 1926 2580 
C 1734 2753 1504 2816 1299 2816 
C 794 2816 358 2419 358 1888 
C 358 1522 570 1292 634 1228 
C 442 1004 442 743 442 711 
C 442 545 506 302 723 168 
C 390 85 128 -169 128 -486 
C 128 -943 736 -1280 1466 -1280 
C 2170 -1280 2803 -956 2803 -479 
C 2803 384 1856 384 1363 384 
C 1216 384 954 384 922 391 
C 723 423 589 602 589 826 
C 589 883 589 1024 710 1164 
z
M 1299 1068 
C 736 1068 736 1760 736 1889 
C 736 2016 736 2708 1299 2708 
C 1862 2708 1862 2016 1862 1889 
C 1862 1760 1862 1068 1299 1068 
z
M 1466 -1171 
C 826 -1171 384 -835 384 -486 
C 384 -289 493 -105 634 -4 
C 794 104 858 104 1293 104 
C 1818 104 2547 104 2547 -486 
C 2547 -835 2106 -1171 1466 -1171 
z
" transform="scale(0.015625)"/>
       <path id="CMR17-13" d="M 2221 4091 
C 2298 4161 2317 4174 2317 4244 
C 2317 4339 2234 4416 2144 4416 
C 2067 4416 2042 4384 1978 4308 
L 1254 3390 
C 1210 3333 1210 3327 1210 3320 
C 1210 3314 1267 3256 1280 3244 
L 2221 4091 
z
" transform="scale(0.015625)"/>
       <path id="CMR17-61" d="M 2304 1653 
C 2304 2072 2304 2294 2035 2543 
C 1798 2752 1523 2816 1306 2816 
C 800 2816 435 2407 435 1971 
C 435 1728 627 1728 666 1728 
C 749 1728 896 1778 896 1954 
C 896 2112 774 2181 666 2181 
C 640 2181 608 2174 589 2168 
C 723 2592 1069 2714 1293 2714 
C 1613 2714 1965 2429 1965 1885 
L 1965 1600 
C 1587 1600 1133 1549 774 1357 
C 371 1133 256 813 256 570 
C 256 77 832 -64 1171 -64 
C 1523 -64 1850 139 1990 511 
C 2003 233 2182 -18 2464 -18 
C 2598 -18 2938 70 2938 567 
L 2938 920 
L 2822 920 
L 2822 562 
C 2822 178 2650 128 2566 128 
C 2304 128 2304 458 2304 738 
L 2304 1653 
z
M 1965 870 
C 1965 317 1568 38 1216 38 
C 896 38 646 275 646 570 
C 646 761 730 1100 1101 1305 
C 1408 1478 1760 1504 1965 1504 
L 1965 870 
z
" transform="scale(0.015625)"/>
      </defs>
      <use xlink:href="#CMR17-42" transform="scale(0.996264)"/>
      <use xlink:href="#CMR17-6f" transform="translate(65.188754 0) scale(0.996264)"/>
      <use xlink:href="#CMR17-67" transform="translate(110.879232 0) scale(0.996264)"/>
      <use xlink:href="#CMR17-6f" transform="translate(156.569709 0) scale(0.996264)"/>
      <use xlink:href="#CMR17-74" transform="translate(202.260186 0) scale(0.996264)"/>
      <use xlink:href="#CMR17-13" transform="translate(237.540954 0) scale(0.996264)"/>
      <use xlink:href="#CMR17-61" transform="translate(237.540954 0) scale(0.996264)"/>
     </g>
    </g>
    <g id="line2d_24">
     <path d="M 136.838309 56.631468 
L 141.836309 56.631468 
L 146.834309 56.631468 
" style="fill: none; stroke-dasharray: 1.5,2.475; stroke-dashoffset: 0; stroke: #ff7f0e; stroke-width: 1.5"/>
    </g>
    <g id="text_17">
     <!-- Lima -->
     <g transform="translate(149.833109 60.130068) scale(0.09996 -0.09996)">
      <defs>
       <path id="CMR17-4c" d="M 3469 1615 
L 3354 1615 
C 3302 983 3219 166 2125 166 
L 1530 166 
C 1274 166 1261 197 1261 414 
L 1261 3898 
C 1261 4129 1274 4192 1760 4192 
L 1901 4192 
L 1901 4352 
C 1638 4352 1331 4352 1069 4352 
C 870 4352 512 4352 326 4352 
L 326 4192 
C 768 4192 838 4192 838 3905 
L 838 452 
C 838 166 768 166 326 166 
L 326 0 
L 3315 0 
L 3469 1615 
z
" transform="scale(0.015625)"/>
      </defs>
      <use xlink:href="#CMR17-4c" transform="scale(0.996264)"/>
      <use xlink:href="#CMR17-69" transform="translate(57.381408 0) scale(0.996264)"/>
      <use xlink:href="#CMR17-6d" transform="translate(82.252466 0) scale(0.996264)"/>
      <use xlink:href="#CMR17-61" transform="translate(159.172056 0) scale(0.996264)"/>
     </g>
    </g>
    <g id="line2d_25">
     <path d="M 186.531051 47.098105 
L 191.529051 47.098105 
L 196.527051 47.098105 
" style="fill: none; stroke-dasharray: 5.55,2.4; stroke-dashoffset: 0; stroke: #2ca02c; stroke-width: 1.5"/>
    </g>
    <g id="text_18">
     <!-- Santiago -->
     <g transform="translate(199.525851 50.596705) scale(0.09996 -0.09996)">
      <defs>
       <path id="CMR17-53" d="M 2803 4290 
C 2803 4404 2797 4411 2758 4411 
C 2720 4411 2707 4385 2682 4328 
L 2490 3907 
C 2246 4257 1875 4416 1472 4416 
C 819 4416 294 3901 294 3253 
C 294 3056 339 2776 557 2510 
C 794 2218 1018 2167 1530 2033 
C 1722 1982 2042 1899 2106 1874 
C 2470 1722 2662 1341 2662 985 
C 2662 527 2336 38 1779 38 
C 1094 38 454 419 410 1311 
C 403 1413 397 1419 352 1419 
C 301 1419 294 1413 294 1285 
L 294 -1 
C 294 -115 301 -122 339 -122 
C 384 -122 397 -90 486 108 
C 493 127 493 140 614 381 
C 934 -39 1472 -128 1779 -128 
C 2477 -128 2970 451 2970 1124 
C 2970 1454 2848 1708 2778 1823 
C 2509 2230 2221 2306 1914 2382 
C 1869 2402 1856 2402 1498 2490 
C 1152 2579 1005 2624 845 2796 
C 666 2992 602 3196 602 3399 
C 602 3812 934 4263 1478 4263 
C 2157 4263 2579 3786 2675 2993 
C 2694 2878 2701 2872 2746 2872 
C 2803 2872 2803 2891 2803 2999 
L 2803 4290 
z
" transform="scale(0.015625)"/>
      </defs>
      <use xlink:href="#CMR17-53" transform="scale(0.996264)"/>
      <use xlink:href="#CMR17-61" transform="translate(50.89537 0) scale(0.996264)"/>
      <use xlink:href="#CMR17-6e" transform="translate(96.585847 0) scale(0.996264)"/>
      <use xlink:href="#CMR17-74" transform="translate(144.878763 0) scale(0.996264)"/>
      <use xlink:href="#CMR17-69" transform="translate(180.159531 0) scale(0.996264)"/>
      <use xlink:href="#CMR17-61" transform="translate(205.030589 0) scale(0.996264)"/>
      <use xlink:href="#CMR17-67" transform="translate(250.721066 0) scale(0.996264)"/>
      <use xlink:href="#CMR17-6f" transform="translate(296.411543 0) scale(0.996264)"/>
     </g>
    </g>
    <g id="line2d_26">
     <path d="M 186.531051 56.631468 
L 191.529051 56.631468 
L 196.527051 56.631468 
" style="fill: none; stroke-dasharray: 9.6,2.4,1.5,2.4; stroke-dashoffset: 0; stroke: #d62728; stroke-width: 1.5"/>
    </g>
    <g id="text_19">
     <!-- São Paulo -->
     <g transform="translate(199.525851 60.130068) scale(0.09996 -0.09996)">
      <defs>
       <path id="CMR17-7e" d="M 2400 4184 
C 2182 3980 2061 3865 1862 3865 
C 1722 3865 1626 3932 1491 4024 
C 1363 4111 1261 4184 1120 4184 
C 890 4184 730 4004 461 3718 
L 531 3648 
C 749 3850 870 3968 1069 3968 
C 1210 3968 1306 3900 1440 3808 
C 1568 3722 1670 3648 1811 3648 
C 2042 3648 2202 3828 2470 4114 
L 2400 4184 
z
" transform="scale(0.015625)"/>
       <path id="CMR17-75" d="M 1882 2693 
L 1882 2528 
C 2259 2528 2317 2489 2317 2186 
L 2317 1032 
C 2317 500 2029 38 1555 38 
C 1030 38 986 348 986 678 
L 986 2763 
L 211 2693 
L 211 2528 
C 467 2528 640 2528 646 2274 
L 646 1058 
C 646 633 646 361 813 183 
C 896 101 1056 -64 1517 -64 
C 2061 -64 2272 377 2323 506 
L 2330 506 
L 2330 -63 
L 3091 -63 
L 3091 128 
C 2714 128 2656 166 2656 473 
L 2656 2763 
L 1882 2693 
z
" transform="scale(0.015625)"/>
      </defs>
      <use xlink:href="#CMR17-53" transform="scale(0.996264)"/>
      <use xlink:href="#CMR17-7e" transform="translate(50.89537 0) scale(0.996264)"/>
      <use xlink:href="#CMR17-61" transform="translate(50.89537 0) scale(0.996264)"/>
      <use xlink:href="#CMR17-6f" transform="translate(96.585847 0) scale(0.996264)"/>
      <use xlink:href="#CMR17-50" transform="translate(172.35229 0) scale(0.996264)"/>
      <use xlink:href="#CMR17-61" transform="translate(232.336137 0) scale(0.996264)"/>
      <use xlink:href="#CMR17-75" transform="translate(278.026614 0) scale(0.996264)"/>
      <use xlink:href="#CMR17-6c" transform="translate(328.921984 0) scale(0.996264)"/>
      <use xlink:href="#CMR17-6f" transform="translate(353.793042 0) scale(0.996264)"/>
     </g>
    </g>
   </g>
  </g>
 </g>
 <defs>
  <clipPath id="p0bbdc43911">
   <rect x="42.437408" y="0.964815" width="210.863107" height="70.098056"/>
  </clipPath>
 </defs>
</svg>
