<?xml version="1.0" encoding="utf-8" standalone="no"?>
<!DOCTYPE svg PUBLIC "-//W3C//DTD SVG 1.1//EN"
  "http://www.w3.org/Graphics/SVG/1.1/DTD/svg11.dtd">
<svg xmlns:xlink="http://www.w3.org/1999/xlink" width="262.08pt" height="103.68pt" viewBox="0 0 262.08 103.68" xmlns="http://www.w3.org/2000/svg" version="1.1">
 <metadata>
  <rdf:RDF xmlns:dc="http://purl.org/dc/elements/1.1/" xmlns:cc="http://creativecommons.org/ns#" xmlns:rdf="http://www.w3.org/1999/02/22-rdf-syntax-ns#">
   <cc:Work>
    <dc:type rdf:resource="http://purl.org/dc/dcmitype/StillImage"/>
    <dc:date>2023-10-12T10:32:32.571576</dc:date>
    <dc:format>image/svg+xml</dc:format>
    <dc:creator>
     <cc:Agent>
      <dc:title>Matplotlib v3.7.0, https://matplotlib.org/</dc:title>
     </cc:Agent>
    </dc:creator>
   </cc:Work>
  </rdf:RDF>
 </metadata>
 <defs>
  <style type="text/css">*{stroke-linejoin: round; stroke-linecap: butt}</style>
 </defs>
 <g id="figure_1">
  <g id="patch_1">
   <path d="M 0 103.68 
L 262.08 103.68 
L 262.08 -0 
L 0 -0 
z
" style="fill: #ffffff"/>
  </g>
  <g id="axes_1">
   <g id="patch_2">
    <path d="M 3.5 70.098056 
L 253.300515 70.098056 
L 253.300515 -0 
L 3.5 -0 
z
" style="fill: #ffffff"/>
   </g>
   <g id="matplotlib.axis_1">
    <g id="xtick_1">
     <g id="line2d_1">
      <defs>
       <path id="mb749fbcd88" d="M 0 0 
L 0 3.5 
" style="stroke: #000000; stroke-width: 0.8"/>
      </defs>
      <g>
       <use xlink:href="#mb749fbcd88" x="45.133419" y="70.098056" style="stroke: #000000; stroke-width: 0.8"/>
      </g>
     </g>
     <g id="text_1">
      <!-- 50 -->
      <g transform="translate(39.280429 85.400236) scale(0.12 -0.12)">
       <defs>
        <path id="CMR17-35" d="M 730 3692 
C 794 3666 1056 3584 1325 3584 
C 1920 3584 2246 3911 2432 4100 
C 2432 4157 2432 4192 2394 4192 
C 2387 4192 2374 4192 2323 4163 
C 2099 4058 1837 3973 1517 3973 
C 1325 3973 1037 3999 723 4139 
C 653 4171 640 4171 634 4171 
C 602 4171 595 4164 595 4037 
L 595 2203 
C 595 2089 595 2057 659 2057 
C 691 2057 704 2070 736 2114 
C 941 2401 1222 2522 1542 2522 
C 1766 2522 2246 2382 2246 1289 
C 2246 1085 2246 715 2054 421 
C 1894 159 1645 25 1370 25 
C 947 25 518 320 403 814 
C 429 807 480 795 506 795 
C 589 795 749 840 749 1038 
C 749 1210 627 1280 506 1280 
C 358 1280 262 1190 262 1011 
C 262 454 704 -128 1382 -128 
C 2042 -128 2669 440 2669 1264 
C 2669 2030 2170 2624 1549 2624 
C 1222 2624 947 2503 730 2274 
L 730 3692 
z
" transform="scale(0.015625)"/>
        <path id="CMR17-30" d="M 2688 2025 
C 2688 2416 2682 3080 2413 3591 
C 2176 4039 1798 4198 1466 4198 
C 1158 4198 768 4058 525 3597 
C 269 3118 243 2524 243 2025 
C 243 1661 250 1106 448 619 
C 723 -39 1216 -128 1466 -128 
C 1760 -128 2208 -7 2470 600 
C 2662 1042 2688 1559 2688 2025 
z
M 1466 -26 
C 1056 -26 813 325 723 812 
C 653 1188 653 1738 653 2096 
C 653 2588 653 2997 736 3387 
C 858 3929 1216 4096 1466 4096 
C 1728 4096 2067 3923 2189 3400 
C 2272 3036 2278 2607 2278 2096 
C 2278 1680 2278 1169 2202 792 
C 2067 95 1690 -26 1466 -26 
z
" transform="scale(0.015625)"/>
       </defs>
       <use xlink:href="#CMR17-35" transform="scale(0.996264)"/>
       <use xlink:href="#CMR17-30" transform="translate(45.690477 0) scale(0.996264)"/>
      </g>
     </g>
    </g>
    <g id="xtick_2">
     <g id="line2d_2">
      <g>
       <use xlink:href="#mb749fbcd88" x="97.175193" y="70.098056" style="stroke: #000000; stroke-width: 0.8"/>
      </g>
     </g>
     <g id="text_2">
      <!-- 100 -->
      <g transform="translate(88.395708 85.400236) scale(0.12 -0.12)">
       <defs>
        <path id="CMR17-31" d="M 1702 4058 
C 1702 4192 1696 4192 1606 4192 
C 1357 3916 979 3827 621 3827 
C 602 3827 570 3827 563 3808 
C 557 3795 557 3782 557 3648 
C 755 3648 1088 3686 1344 3839 
L 1344 461 
C 1344 236 1331 160 781 160 
L 589 160 
L 589 0 
C 896 0 1216 0 1523 0 
C 1830 0 2150 0 2458 0 
L 2458 160 
L 2266 160 
C 1715 160 1702 230 1702 458 
L 1702 4058 
z
" transform="scale(0.015625)"/>
       </defs>
       <use xlink:href="#CMR17-31" transform="scale(0.996264)"/>
       <use xlink:href="#CMR17-30" transform="translate(45.690477 0) scale(0.996264)"/>
       <use xlink:href="#CMR17-30" transform="translate(91.380954 0) scale(0.996264)"/>
      </g>
     </g>
    </g>
    <g id="xtick_3">
     <g id="line2d_3">
      <g>
       <use xlink:href="#mb749fbcd88" x="149.216967" y="70.098056" style="stroke: #000000; stroke-width: 0.8"/>
      </g>
     </g>
     <g id="text_3">
      <!-- 150 -->
      <g transform="translate(140.437481 85.400236) scale(0.12 -0.12)">
       <use xlink:href="#CMR17-31" transform="scale(0.996264)"/>
       <use xlink:href="#CMR17-35" transform="translate(45.690477 0) scale(0.996264)"/>
       <use xlink:href="#CMR17-30" transform="translate(91.380954 0) scale(0.996264)"/>
      </g>
     </g>
    </g>
    <g id="xtick_4">
     <g id="line2d_4">
      <g>
       <use xlink:href="#mb749fbcd88" x="201.258741" y="70.098056" style="stroke: #000000; stroke-width: 0.8"/>
      </g>
     </g>
     <g id="text_4">
      <!-- 200 -->
      <g transform="translate(192.479255 85.400236) scale(0.12 -0.12)">
       <defs>
        <path id="CMR17-32" d="M 2669 989 
L 2554 989 
C 2490 536 2438 459 2413 420 
C 2381 369 1920 369 1830 369 
L 602 369 
C 832 619 1280 1072 1824 1597 
C 2214 1967 2669 2402 2669 3035 
C 2669 3790 2067 4224 1395 4224 
C 691 4224 262 3604 262 3030 
C 262 2780 448 2748 525 2748 
C 589 2748 781 2787 781 3010 
C 781 3207 614 3264 525 3264 
C 486 3264 448 3258 422 3245 
C 544 3790 915 4058 1306 4058 
C 1862 4058 2227 3617 2227 3035 
C 2227 2479 1901 2000 1536 1584 
L 262 146 
L 262 0 
L 2515 0 
L 2669 989 
z
" transform="scale(0.015625)"/>
       </defs>
       <use xlink:href="#CMR17-32" transform="scale(0.996264)"/>
       <use xlink:href="#CMR17-30" transform="translate(45.690477 0) scale(0.996264)"/>
       <use xlink:href="#CMR17-30" transform="translate(91.380954 0) scale(0.996264)"/>
      </g>
     </g>
    </g>
    <g id="xtick_5">
     <g id="line2d_5">
      <g>
       <use xlink:href="#mb749fbcd88" x="253.300515" y="70.098056" style="stroke: #000000; stroke-width: 0.8"/>
      </g>
     </g>
     <g id="text_5">
      <!-- 250 -->
      <g transform="translate(244.521029 85.400236) scale(0.12 -0.12)">
       <use xlink:href="#CMR17-32" transform="scale(0.996264)"/>
       <use xlink:href="#CMR17-35" transform="translate(45.690477 0) scale(0.996264)"/>
       <use xlink:href="#CMR17-30" transform="translate(91.380954 0) scale(0.996264)"/>
      </g>
     </g>
    </g>
    <g id="text_6">
     <!-- RTT [ms] -->
     <g transform="translate(103.73744 100.691208) scale(0.12 -0.12)">
      <defs>
       <path id="CMR17-52" d="M 2509 2146 
C 3117 2268 3629 2676 3629 3186 
C 3629 3785 2950 4326 2054 4326 
L 333 4326 
L 333 4160 
C 774 4160 845 4160 845 3873 
L 845 415 
C 845 128 774 128 333 128 
L 333 -26 
C 518 -26 851 -26 1050 -26 
C 1248 -26 1581 -26 1766 -26 
L 1766 128 
C 1325 128 1254 128 1254 417 
L 1254 2112 
L 2003 2112 
C 2368 2112 2573 1964 2662 1881 
C 2918 1632 2918 1459 2918 1024 
C 2918 595 2918 377 3110 160 
C 3354 -102 3680 -128 3821 -128 
C 4294 -128 4365 396 4365 503 
C 4365 540 4365 585 4307 585 
C 4256 585 4250 547 4250 522 
C 4218 112 4032 -26 3834 -26 
C 3482 -26 3443 375 3405 764 
C 3386 898 3373 993 3360 1133 
C 3322 1452 3270 1917 2509 2146 
z
M 1984 2214 
L 1254 2214 
L 1254 3913 
C 1254 4129 1267 4160 1523 4160 
L 1990 4160 
C 2522 4160 3142 3977 3142 3190 
C 3142 2372 2464 2214 1984 2214 
z
" transform="scale(0.015625)"/>
       <path id="CMR17-54" d="M 3981 4326 
L 288 4326 
L 179 2918 
L 294 2918 
C 378 3976 467 4160 1453 4160 
C 1568 4160 1754 4160 1805 4154 
C 1926 4135 1926 4058 1926 3912 
L 1926 459 
C 1926 230 1907 160 1376 160 
L 1197 160 
L 1197 0 
C 1504 0 1824 0 2138 0 
C 2451 0 2771 0 3078 0 
L 3078 160 
L 2899 160 
C 2368 160 2349 230 2349 459 
L 2349 3912 
C 2349 4052 2349 4129 2464 4154 
C 2515 4160 2701 4160 2816 4160 
C 3795 4160 3891 3976 3974 2918 
L 4090 2918 
L 3981 4326 
z
" transform="scale(0.015625)"/>
       <path id="CMR17-5b" d="M 1504 -1600 
L 1504 -1377 
L 902 -1377 
L 902 4544 
L 1504 4544 
L 1504 4767 
L 678 4767 
L 678 -1600 
L 1504 -1600 
z
" transform="scale(0.015625)"/>
       <path id="CMR17-6d" d="M 4326 1933 
C 4326 2252 4269 2790 3507 2790 
C 3072 2790 2771 2496 2656 2151 
L 2650 2151 
C 2573 2676 2195 2790 1837 2790 
C 1331 2790 1069 2400 973 2144 
L 966 2144 
L 966 2790 
L 211 2720 
L 211 2554 
C 589 2554 646 2515 646 2208 
L 646 428 
C 646 184 621 153 211 153 
L 211 -13 
C 365 0 646 0 813 0 
C 979 0 1267 0 1421 -13 
L 1421 153 
C 1011 153 986 178 986 428 
L 986 1658 
C 986 2247 1344 2688 1792 2688 
C 2266 2688 2317 2266 2317 1958 
L 2317 428 
C 2317 184 2291 153 1882 153 
L 1882 -13 
C 2035 0 2317 0 2483 0 
C 2650 0 2938 0 3091 -13 
L 3091 153 
C 2682 153 2656 178 2656 428 
L 2656 1658 
C 2656 2247 3014 2688 3462 2688 
C 3936 2688 3987 2266 3987 1958 
L 3987 428 
C 3987 184 3962 153 3552 153 
L 3552 -13 
C 3706 0 3987 0 4154 0 
C 4320 0 4608 0 4762 -13 
L 4762 153 
C 4352 153 4326 178 4326 428 
L 4326 1933 
z
" transform="scale(0.015625)"/>
       <path id="CMR17-73" d="M 1978 2697 
C 1978 2813 1971 2819 1933 2819 
C 1907 2819 1901 2813 1824 2717 
C 1805 2691 1747 2626 1728 2601 
C 1523 2819 1235 2819 1126 2819 
C 416 2819 160 2447 160 2076 
C 160 1498 813 1365 998 1325 
C 1402 1243 1542 1217 1677 1101 
C 1760 1025 1901 884 1901 654 
C 1901 384 1747 38 1158 38 
C 602 38 403 460 288 1021 
C 269 1110 269 1117 218 1117 
C 166 1117 160 1110 160 983 
L 160 63 
C 160 -51 166 -58 205 -58 
C 237 -58 243 -51 275 0 
C 314 57 410 211 448 276 
C 576 103 800 -64 1158 -64 
C 1792 -64 2131 283 2131 784 
C 2131 1112 1958 1285 1875 1362 
C 1683 1561 1459 1606 1190 1657 
C 838 1735 390 1825 390 2217 
C 390 2383 480 2737 1126 2737 
C 1811 2737 1850 2094 1862 1888 
C 1869 1856 1901 1849 1920 1849 
C 1978 1849 1978 1869 1978 1978 
L 1978 2697 
z
" transform="scale(0.015625)"/>
       <path id="CMR17-5d" d="M 915 4767 
L 90 4767 
L 90 4544 
L 691 4544 
L 691 -1377 
L 90 -1377 
L 90 -1600 
L 915 -1600 
L 915 4767 
z
" transform="scale(0.015625)"/>
      </defs>
      <use xlink:href="#CMR17-52" transform="scale(0.996264)"/>
      <use xlink:href="#CMR17-54" transform="translate(59.983847 0) scale(0.996264)"/>
      <use xlink:href="#CMR17-54" transform="translate(126.493727 0) scale(0.996264)"/>
      <use xlink:href="#CMR17-5b" transform="translate(223.079574 0) scale(0.996264)"/>
      <use xlink:href="#CMR17-6d" transform="translate(247.950633 0) scale(0.996264)"/>
      <use xlink:href="#CMR17-73" transform="translate(324.870222 0) scale(0.996264)"/>
      <use xlink:href="#CMR17-5d" transform="translate(360.67156 0) scale(0.996264)"/>
     </g>
    </g>
   </g>
   <g id="matplotlib.axis_2">
    <g id="ytick_1">
     <g id="line2d_6">
      <path d="M 3.5 66.911781 
L 253.300515 66.911781 
" clip-path="url(#p84b13f861c)" style="fill: none; stroke: #b0b0b0; stroke-opacity: 0.7; stroke-width: 0.5; stroke-linecap: square"/>
     </g>
     <g id="line2d_7">
      <defs>
       <path id="m95872336ac" d="M 0 0 
L -3.5 0 
" style="stroke: #000000; stroke-width: 0.8"/>
      </defs>
      <g>
       <use xlink:href="#m95872336ac" x="3.5" y="66.911781" style="stroke: #000000; stroke-width: 0.8"/>
      </g>
     </g>
    </g>
    <g id="ytick_2">
     <g id="line2d_8">
      <path d="M 3.5 50.980405 
L 253.300515 50.980405 
" clip-path="url(#p84b13f861c)" style="fill: none; stroke: #b0b0b0; stroke-opacity: 0.7; stroke-width: 0.5; stroke-linecap: square"/>
     </g>
     <g id="line2d_9">
      <g>
       <use xlink:href="#m95872336ac" x="3.5" y="50.980405" style="stroke: #000000; stroke-width: 0.8"/>
      </g>
     </g>
    </g>
    <g id="ytick_3">
     <g id="line2d_10">
      <path d="M 3.5 35.049028 
L 253.300515 35.049028 
" clip-path="url(#p84b13f861c)" style="fill: none; stroke: #b0b0b0; stroke-opacity: 0.7; stroke-width: 0.5; stroke-linecap: square"/>
     </g>
     <g id="line2d_11">
      <g>
       <use xlink:href="#m95872336ac" x="3.5" y="35.049028" style="stroke: #000000; stroke-width: 0.8"/>
      </g>
     </g>
    </g>
    <g id="ytick_4">
     <g id="line2d_12">
      <path d="M 3.5 19.117652 
L 253.300515 19.117652 
" clip-path="url(#p84b13f861c)" style="fill: none; stroke: #b0b0b0; stroke-opacity: 0.7; stroke-width: 0.5; stroke-linecap: square"/>
     </g>
     <g id="line2d_13">
      <g>
       <use xlink:href="#m95872336ac" x="3.5" y="19.117652" style="stroke: #000000; stroke-width: 0.8"/>
      </g>
     </g>
    </g>
    <g id="ytick_5">
     <g id="line2d_14">
      <path d="M 3.5 3.186275 
L 253.300515 3.186275 
" clip-path="url(#p84b13f861c)" style="fill: none; stroke: #b0b0b0; stroke-opacity: 0.7; stroke-width: 0.5; stroke-linecap: square"/>
     </g>
     <g id="line2d_15">
      <g>
       <use xlink:href="#m95872336ac" x="3.5" y="3.186275" style="stroke: #000000; stroke-width: 0.8"/>
      </g>
     </g>
    </g>
   </g>
   <g id="line2d_16">
    <path d="M 7.442685 66.911004 
L 10.991934 66.796004 
L 11.500902 66.723741 
L 12.00883 66.571443 
L 12.933092 65.743133 
L 13.547185 64.627323 
L 17.741752 54.963443 
L 17.981144 54.202734 
L 18.031104 54.030234 
L 18.382906 52.961822 
L 18.492194 52.741924 
L 19.236392 51.347161 
L 19.312373 51.200303 
L 20.327187 49.197129 
L 20.396923 49.052602 
L 20.491639 48.847467 
L 20.69148 48.392129 
L 20.7914 48.182332 
L 21.02871 47.628312 
L 21.151529 47.399089 
L 21.440881 46.88392 
L 22.016463 45.826387 
L 22.492125 44.754867 
L 23.020869 43.767267 
L 23.378917 43.046186 
L 23.476755 42.834835 
L 26.38589 36.049838 
L 26.617997 35.424332 
L 26.712713 35.25494 
L 26.976044 34.816697 
L 27.165476 34.540076 
L 27.324724 34.29842 
L 32.409205 26.905789 
L 32.68919 26.558458 
L 33.256445 25.908864 
L 33.559329 25.544439 
L 33.812252 25.245284 
L 33.929866 25.111635 
L 35.348525 23.192379 
L 35.576468 22.988798 
L 36.100008 22.46042 
L 36.266542 22.266164 
L 36.733877 21.767312 
L 36.943085 21.539644 
L 37.313622 21.183765 
L 37.454135 21.036907 
L 37.637322 20.835658 
L 38.397132 20.130894 
L 38.605299 19.936638 
L 41.114753 18.201537 
L 41.615395 17.898497 
L 41.772561 17.778835 
L 41.985933 17.626538 
L 43.808436 16.398836 
L 44.260158 16.226336 
L 44.652553 16.066268 
L 45.182338 15.91941 
L 46.351197 15.601606 
L 50.367781 14.714242 
L 51.247287 14.575931 
L 51.754174 14.504445 
L 56.851145 14.072418 
L 60.172451 13.87583 
L 60.366046 13.864175 
L 64.063094 13.446912 
L 64.227546 13.397959 
L 64.671983 13.202148 
L 65.243401 12.945729 
L 66.132275 12.417351 
L 66.327952 12.285257 
L 66.634998 12.024176 
L 67.011781 11.712588 
L 67.292806 11.488805 
L 67.439564 11.359041 
L 67.876715 10.904481 
L 68.071351 10.714109 
L 68.314907 10.548602 
L 68.899856 10.21215 
L 71.219879 9.040394 
L 72.194101 8.560191 
L 72.312756 8.503468 
L 72.774887 8.354279 
L 73.079852 8.261813 
L 73.699149 8.066002 
L 73.865682 8.006171 
L 74.471449 7.84455 
L 74.762883 7.764516 
L 76.322054 7.262557 
L 76.64055 7.159212 
L 77.814612 6.996814 
L 84.719515 5.855362 
L 84.857946 5.807186 
L 86.904228 5.477727 
L 87.532893 5.361173 
L 88.877653 5.13195 
L 91.134184 4.82347 
L 92.680865 4.63543 
L 94.276466 4.479248 
L 97.343808 4.313741 
L 97.879839 4.292761 
L 108.264254 4.049552 
L 204.457228 3.535937 
L 253.397312 3.441917 
L 253.397312 3.441917 
" clip-path="url(#p84b13f861c)" style="fill: none; stroke: #1f77b4; stroke-width: 1.5; stroke-linecap: square"/>
   </g>
   <g id="line2d_17">
    <path d="M 15.802675 66.563554 
L 15.859921 66.215327 
L 16.465688 65.867101 
L 17.152639 64.82242 
L 17.937429 64.474193 
L 18.199719 64.125967 
L 20.210614 63.77774 
L 21.160896 63.429513 
L 23.334161 63.081286 
L 23.604778 62.733059 
L 24.412466 62.384833 
L 24.438487 62.036606 
L 24.942252 61.340152 
L 24.980763 60.991925 
L 25.857146 60.295472 
L 26.27348 59.947245 
L 26.326563 59.599018 
L 26.988534 59.250791 
L 27.652587 57.857884 
L 28.189658 57.16143 
L 28.475888 56.813204 
L 28.550828 56.11675 
L 28.771485 55.768523 
L 28.808955 55.420296 
L 29.112879 55.07207 
L 29.16284 54.723843 
L 29.328332 54.375616 
L 29.333537 54.027389 
L 29.473009 53.330936 
L 29.520887 52.982709 
L 29.830015 52.634482 
L 29.952834 51.938028 
L 30.233859 51.589802 
L 30.241145 51.241575 
L 30.561722 50.545121 
L 30.614805 49.500441 
L 30.866687 49.152214 
L 30.877096 48.803987 
L 31.147713 48.45576 
L 31.233061 47.759307 
L 31.517209 47.41108 
L 31.542189 47.062853 
L 31.748275 46.366399 
L 31.907523 45.321719 
L 32.231223 44.973492 
L 32.363409 44.277039 
L 32.797437 43.928812 
L 32.976461 43.232358 
L 33.338671 42.884131 
L 33.52394 42.187678 
L 33.937152 41.839451 
L 34.116176 41.491224 
L 34.44612 41.142997 
L 34.693839 39.053636 
L 35.21738 38.70541 
L 35.45469 38.357183 
L 35.477588 38.008956 
L 35.964699 36.964276 
L 36.442443 35.223142 
L 36.747408 34.874915 
L 36.970146 33.830234 
L 37.250131 33.482008 
L 37.411461 32.785554 
L 38.187924 32.437327 
L 38.487685 32.0891 
L 38.740608 31.04442 
L 39.473356 29.999739 
L 41.667437 28.955059 
L 41.784011 28.258605 
L 42.031729 27.910379 
L 42.652067 27.562152 
L 43.035095 27.213925 
L 43.051748 26.865698 
L 43.488899 26.517471 
L 43.61484 26.169245 
L 45.133419 25.124564 
L 45.168808 24.776337 
L 49.121901 23.731657 
L 50.929832 23.38343 
L 51.161938 23.035203 
L 55.102541 22.686976 
L 56.63361 22.33875 
L 60.027775 21.990523 
L 60.041306 21.642296 
L 60.687664 21.294069 
L 60.784462 20.945842 
L 63.326182 20.597616 
L 63.565575 19.901162 
L 71.573763 19.552935 
L 86.9188 19.204708 
L 126.735961 18.856482 
L 130.604747 18.508255 
L 132.927892 18.160028 
L 136.991313 17.811801 
L 138.301725 17.463574 
L 138.36938 17.115348 
L 138.935594 16.767121 
L 140.67483 16.418894 
L 141.226473 16.070667 
L 143.409105 15.72244 
L 147.324728 15.374214 
L 147.948188 15.025987 
L 162.13998 14.67776 
L 167.015254 13.981306 
L 171.985243 13.63308 
L 172.085163 13.284853 
L 199.923349 12.936626 
L 210.281743 12.240172 
L 212.384231 11.891945 
L 213.325146 11.543719 
L 214.638681 11.195492 
L 217.354221 10.847265 
L 217.724758 10.150811 
L 219.219398 9.106131 
L 219.577445 8.757904 
L 219.672161 8.409677 
L 220.48089 8.061451 
L 220.523565 7.713224 
L 221.213639 7.01677 
L 221.231333 6.320317 
L 221.562318 5.97209 
L 222.372088 5.623863 
L 227.098522 5.275636 
L 228.280911 4.927409 
L 232.97612 4.579183 
L 233.056265 4.230956 
L 237.105115 3.882729 
L 257.70533 3.186275 
L 257.70533 3.186275 
" clip-path="url(#p84b13f861c)" style="fill: none; stroke-dasharray: 1.5,2.475; stroke-dashoffset: 0; stroke: #ff7f0e; stroke-width: 1.5"/>
   </g>
   <g id="line2d_18">
    <path d="M 11.802745 66.696492 
L 15.295788 66.481203 
L 16.945513 65.835337 
L 17.946796 64.758892 
L 19.664175 64.328315 
L 19.836954 64.113026 
L 22.039362 62.821292 
L 22.082036 62.606004 
L 22.695088 62.390715 
L 22.70966 62.175426 
L 23.459061 61.098982 
L 24.300056 60.668404 
L 24.388527 60.453115 
L 24.860026 60.237826 
L 25.490772 59.376671 
L 25.979965 59.161382 
L 26.153784 58.730804 
L 26.297419 58.300226 
L 26.631528 57.439071 
L 26.919839 57.223782 
L 26.969799 57.008493 
L 27.220641 56.577915 
L 27.235212 56.362626 
L 28.52793 55.070893 
L 28.868283 53.563871 
L 29.419926 53.133293 
L 29.730095 52.487427 
L 29.944507 51.626271 
L 30.056917 51.195693 
L 30.329616 49.688671 
L 30.482619 49.042805 
L 30.564845 48.612227 
L 30.818809 48.181649 
L 30.897912 47.751072 
L 31.103998 47.535783 
L 31.130019 47.320494 
L 31.513046 46.889916 
L 31.548434 46.674627 
L 31.728499 46.459338 
L 31.836746 46.028761 
L 32.234345 45.382894 
L 32.643393 44.30645 
L 32.86301 44.091161 
L 33.263731 42.584139 
L 33.572859 42.36885 
L 33.844518 41.507694 
L 33.900723 40.861828 
L 34.143237 40.646539 
L 34.8687 37.632495 
L 35.165338 37.417206 
L 36.025068 35.479606 
L 36.365421 35.049028 
L 36.860859 32.896139 
L 37.643567 29.236229 
L 38.697933 29.02094 
L 39.052858 28.375073 
L 39.609705 27.944495 
L 40.369515 26.868051 
L 40.638051 26.652762 
L 40.697378 26.437473 
L 41.153264 26.222184 
L 41.47176 25.576318 
L 42.024444 25.14574 
L 42.317959 24.284585 
L 43.051748 24.069296 
L 43.293222 23.854007 
L 43.704352 23.638718 
L 45.142787 23.20814 
L 47.419094 22.777563 
L 47.85 22.562274 
L 50.330311 21.916407 
L 51.696928 21.701118 
L 51.913421 21.27054 
L 59.129534 21.055252 
L 59.454274 20.839963 
L 60.941628 20.624674 
L 61.210164 20.409385 
L 63.252283 20.194096 
L 65.723227 19.548229 
L 65.958455 19.332941 
L 68.352377 19.117652 
L 68.741649 18.687074 
L 114.769476 18.471785 
L 120.472213 18.256496 
L 120.739708 18.041207 
L 125.059175 17.61063 
L 125.390161 17.395341 
L 125.490081 17.180052 
L 127.899615 16.964763 
L 129.497298 16.534185 
L 129.62428 16.318896 
L 132.594824 15.888319 
L 136.105562 15.67303 
L 136.380343 15.457741 
L 136.868495 15.242452 
L 142.942811 15.027163 
L 147.285176 14.381297 
L 147.980454 14.166008 
L 189.243336 13.950719 
L 202.245453 13.73543 
L 202.808545 13.520141 
L 202.990691 13.304852 
L 204.94538 13.089563 
L 204.963074 12.874274 
L 207.498549 12.658986 
L 207.689022 12.443697 
L 209.08166 12.013119 
L 213.460455 11.367252 
L 213.954852 11.151964 
L 215.046688 10.936675 
L 215.095608 10.721386 
L 216.565267 10.506097 
L 216.725556 10.290808 
L 218.111949 9.644941 
L 218.169195 9.429653 
L 219.335971 9.214364 
L 219.887614 8.999075 
L 220.906592 8.783786 
L 221.772567 8.137919 
L 221.992183 7.92263 
L 222.13686 7.492053 
L 222.775933 7.061475 
L 222.991386 6.846186 
L 224.40484 6.630897 
L 224.892992 6.200319 
L 225.107404 5.985031 
L 229.121906 5.769742 
L 230.482278 5.123875 
L 240.818816 4.26272 
L 242.869261 3.832142 
L 252.65936 3.616853 
L 253.372332 3.401564 
L 260.437523 3.186275 
L 260.437523 3.186275 
" clip-path="url(#p84b13f861c)" style="fill: none; stroke-dasharray: 5.55,2.4; stroke-dashoffset: 0; stroke: #2ca02c; stroke-width: 1.5"/>
   </g>
   <g id="line2d_19">
    <path d="M 9.186084 66.909435 
L 11.461351 66.756965 
L 11.861031 66.684249 
L 12.409552 66.543507 
L 13.145422 66.125973 
L 13.332773 65.978194 
L 13.472245 65.79523 
L 13.726209 65.213498 
L 14.022847 63.963242 
L 14.144624 63.662993 
L 14.315321 63.264225 
L 14.700431 62.128908 
L 14.889863 61.4252 
L 17.02982 51.369204 
L 17.144312 50.440308 
L 17.224457 49.987589 
L 17.790671 46.926457 
L 18.034227 45.43694 
L 18.070656 45.202371 
L 18.184107 44.395451 
L 18.389152 43.661249 
L 18.749281 42.544698 
L 18.812772 42.312474 
L 19.09796 41.33901 
L 19.13439 41.132589 
L 19.381068 40.30925 
L 19.581949 39.497639 
L 19.648562 39.26307 
L 19.829668 38.634424 
L 20.535354 35.960331 
L 20.588437 35.784404 
L 20.925668 34.25501 
L 21.019343 33.91723 
L 21.248327 33.115002 
L 21.319103 32.927347 
L 21.507495 32.408948 
L 21.881155 31.294743 
L 22.318305 29.821646 
L 22.409899 29.617571 
L 22.56082 29.352507 
L 23.492368 27.522865 
L 23.636003 27.276567 
L 24.081481 26.54471 
L 24.321914 26.10841 
L 24.484284 25.880878 
L 24.583163 25.73779 
L 24.768432 25.460998 
L 25.135847 24.905069 
L 25.896698 23.882345 
L 26.032006 23.718147 
L 26.16107 23.551602 
L 27.114475 22.629744 
L 27.329928 22.493694 
L 28.334334 21.876776 
L 29.145145 21.499119 
L 29.399109 21.360723 
L 29.725932 21.212944 
L 30.267166 20.943189 
L 30.704317 20.661706 
L 30.822972 20.607755 
L 31.320491 20.401334 
L 34.71986 19.190955 
L 34.854128 19.151078 
L 39.324516 18.330085 
L 40.411149 18.203417 
L 41.844379 17.99465 
L 42.216998 17.947736 
L 44.092584 17.708475 
L 50.451048 17.131434 
L 51.834318 16.986001 
L 54.697656 16.378466 
L 54.875639 16.333898 
L 55.291973 16.197847 
L 59.879976 14.79043 
L 60.141226 14.731788 
L 60.933302 14.361168 
L 61.075896 14.297834 
L 61.419372 14.09845 
L 62.18959 13.537829 
L 63.032667 12.754367 
L 63.402163 12.418932 
L 63.610331 12.221894 
L 63.852845 11.959176 
L 64.053726 11.778557 
L 65.587918 10.755834 
L 65.795044 10.619784 
L 65.922026 10.530647 
L 66.142683 10.342992 
L 68.379439 8.797179 
L 68.963347 8.564955 
L 71.952627 7.33581 
L 73.304672 7.021487 
L 73.67521 6.939388 
L 74.614043 6.7963 
L 75.931741 6.528891 
L 77.148478 6.367038 
L 77.399319 6.331853 
L 79.714137 6.144197 
L 82.326634 5.928393 
L 92.796398 5.384192 
L 110.141921 4.659372 
L 123.793519 4.43184 
L 165.196914 4.000232 
L 188.816593 3.901712 
L 226.17426 3.772699 
L 230.307418 3.753934 
L 253.323413 3.695291 
L 253.323413 3.695291 
" clip-path="url(#p84b13f861c)" style="fill: none; stroke-dasharray: 9.6,2.4,1.5,2.4; stroke-dashoffset: 0; stroke: #d62728; stroke-width: 1.5"/>
   </g>
   <g id="line2d_20">
    <path d="M 9.76687 66.911662 
L 13.835496 66.798659 
L 14.810759 66.57574 
L 16.230459 65.97274 
L 17.981144 64.43343 
L 18.535909 63.91554 
L 20.152327 62.533627 
L 20.266819 62.366259 
L 21.12863 61.374752 
L 21.45233 61.01865 
L 22.002932 60.437967 
L 22.42343 59.901559 
L 24.683084 57.156607 
L 25.286768 56.170798 
L 25.465792 55.798909 
L 26.39734 53.68948 
L 26.511832 53.309044 
L 26.876124 52.694887 
L 28.479011 49.598225 
L 28.594543 49.302185 
L 29.389742 47.528204 
L 30.141225 45.635048 
L 33.682147 37.050736 
L 34.44612 35.229156 
L 35.397444 33.142162 
L 36.036517 32.083589 
L 38.308661 28.913333 
L 38.49497 28.706794 
L 39.165268 27.911381 
L 39.675278 27.49759 
L 39.916752 27.29758 
L 40.189451 27.051513 
L 41.253184 26.229986 
L 41.481127 26.078287 
L 42.168079 25.601822 
L 42.936215 25.129869 
L 43.289059 24.864929 
L 44.021807 24.583846 
L 45.411322 24.07189 
L 45.921332 23.902029 
L 46.440708 23.733712 
L 47.498197 23.373218 
L 48.254885 23.176175 
L 48.369377 23.136648 
L 49.00949 22.966431 
L 50.021183 22.739357 
L 50.549927 22.619944 
L 51.385718 22.413049 
L 51.669866 22.352867 
L 54.710146 21.773371 
L 56.25995 21.484928 
L 56.89486 21.385101 
L 58.187578 21.203845 
L 59.514643 20.991727 
L 60.652276 20.719903 
L 61.174775 20.548499 
L 64.465897 19.5399 
L 65.72739 19.211455 
L 67.427074 18.746979 
L 68.030759 18.575813 
L 68.145251 18.5313 
L 68.639648 18.427556 
L 69.519154 18.215557 
L 71.961994 17.772328 
L 76.597876 17.355452 
L 84.594615 17.062024 
L 85.839454 17.030568 
L 95.085195 16.854179 
L 96.425791 16.831626 
L 124.91554 16.256403 
L 128.621955 15.933774 
L 135.930702 14.988442 
L 136.502121 14.909981 
L 137.446158 14.744869 
L 139.286356 14.439096 
L 142.765869 13.930464 
L 143.762989 13.816748 
L 154.569984 13.311321 
L 166.750881 13.123062 
L 170.35009 13.027508 
L 177.334096 12.889934 
L 178.412402 12.87747 
L 203.888932 12.710696 
L 205.737456 12.611225 
L 208.254196 12.459288 
L 209.11913 12.375841 
L 210.765732 12.202301 
L 211.253884 12.152328 
L 212.70689 11.963831 
L 212.820341 11.937242 
L 214.605374 11.621855 
L 215.351653 11.483806 
L 216.208261 11.323798 
L 217.071113 11.145509 
L 217.749738 10.995709 
L 218.085928 10.900036 
L 219.367196 10.642337 
L 219.661753 10.574796 
L 220.473604 10.370394 
L 221.820446 10.026874 
L 222.541745 9.832799 
L 228.743042 8.531959 
L 230.097169 8.304765 
L 234.165795 7.721471 
L 245.767988 6.510012 
L 247.303221 6.340507 
L 248.254544 6.237 
L 250.176967 6.054201 
L 250.293541 6.040907 
L 252.805077 5.86618 
L 253.301555 5.8314 
L 253.301555 5.8314 
" clip-path="url(#p84b13f861c)" style="fill: none; stroke: #9467bd; stroke-width: 1.5; stroke-linecap: square"/>
   </g>
   <g id="patch_3">
    <path d="M 3.5 70.098056 
L 3.5 -0 
" style="fill: none; stroke: #000000; stroke-width: 0.8; stroke-linejoin: miter; stroke-linecap: square"/>
   </g>
   <g id="patch_4">
    <path d="M 253.300515 70.098056 
L 253.300515 -0 
" style="fill: none; stroke: #000000; stroke-width: 0.8; stroke-linejoin: miter; stroke-linecap: square"/>
   </g>
   <g id="patch_5">
    <path d="M 3.5 70.098056 
L 253.300515 70.098056 
" style="fill: none; stroke: #000000; stroke-width: 0.8; stroke-linejoin: miter; stroke-linecap: square"/>
   </g>
   <g id="patch_6">
    <path d="M 3.5 -0 
L 253.300515 -0 
" style="fill: none; stroke: #000000; stroke-width: 0.8; stroke-linejoin: miter; stroke-linecap: square"/>
   </g>
   <g id="legend_1">
    <g id="patch_7">
     <path d="M 134.541961 65.100056 
L 248.302515 65.100056 
L 248.302515 29.102927 
L 134.541961 29.102927 
z
" style="fill: #ffffff; opacity: 0.8; stroke: #000000; stroke-linejoin: miter"/>
    </g>
    <g id="line2d_21">
     <path d="M 138.540361 36.599927 
L 143.538361 36.599927 
L 148.536361 36.599927 
" style="fill: none; stroke: #1f77b4; stroke-width: 1.5; stroke-linecap: square"/>
    </g>
    <g id="text_7">
     <!-- Auckland -->
     <g transform="translate(151.535161 40.098527) scale(0.09996 -0.09996)">
      <defs>
       <path id="CMR17-41" d="M 2323 4378 
C 2291 4461 2278 4480 2214 4480 
C 2150 4480 2138 4461 2106 4378 
L 749 566 
C 627 223 371 153 147 153 
L 147 -13 
C 262 0 518 0 640 0 
C 800 0 1056 0 1210 -13 
L 1210 153 
C 909 153 864 361 864 439 
C 864 497 877 530 890 569 
L 1229 1536 
L 2906 1536 
L 3290 442 
C 3322 365 3322 352 3322 327 
C 3322 153 3046 153 2925 153 
L 2925 0 
C 3110 0 3443 0 3642 0 
C 3808 0 4128 0 4282 -13 
L 4282 153 
C 3942 153 3827 153 3744 387 
L 2323 4378 
z
M 2067 3893 
L 2848 1702 
L 1286 1702 
L 2067 3893 
z
" transform="scale(0.015625)"/>
       <path id="CMR17-75" d="M 1882 2693 
L 1882 2528 
C 2259 2528 2317 2489 2317 2186 
L 2317 1032 
C 2317 500 2029 38 1555 38 
C 1030 38 986 348 986 678 
L 986 2763 
L 211 2693 
L 211 2528 
C 467 2528 640 2528 646 2274 
L 646 1058 
C 646 633 646 361 813 183 
C 896 101 1056 -64 1517 -64 
C 2061 -64 2272 377 2323 506 
L 2330 506 
L 2330 -63 
L 3091 -63 
L 3091 128 
C 2714 128 2656 166 2656 473 
L 2656 2763 
L 1882 2693 
z
" transform="scale(0.015625)"/>
       <path id="CMR17-63" d="M 2234 2240 
C 2112 2240 1933 2240 1933 2017 
C 1933 1838 2080 1787 2163 1787 
C 2208 1787 2394 1807 2394 2024 
C 2394 2467 1958 2803 1466 2803 
C 787 2803 211 2178 211 1363 
C 211 516 813 -64 1466 -64 
C 2259 -64 2458 677 2458 748 
C 2458 774 2451 793 2406 793 
C 2362 793 2355 787 2330 703 
C 2163 180 1798 51 1523 51 
C 1114 51 621 427 621 1369 
C 621 2338 1094 2688 1472 2688 
C 1722 2688 2093 2573 2234 2240 
z
" transform="scale(0.015625)"/>
       <path id="CMR17-6b" d="M 1670 1673 
C 1664 1686 1632 1724 1632 1743 
C 1632 1756 2086 2171 2144 2222 
C 2509 2528 2739 2560 2906 2560 
L 2906 2733 
C 2867 2733 2854 2733 2848 2720 
L 2534 2720 
C 2355 2720 2080 2720 1907 2733 
L 1907 2566 
C 1997 2559 2061 2508 2061 2419 
C 2061 2291 1933 2170 1926 2170 
L 960 1289 
L 960 4396 
L 198 4326 
L 198 4160 
C 576 4160 634 4122 634 3817 
L 634 426 
C 634 184 608 153 198 153 
L 198 -13 
C 352 0 634 0 794 0 
C 954 0 1235 0 1389 -13 
L 1389 153 
C 979 153 954 178 954 428 
L 954 1130 
L 1395 1532 
L 2042 574 
C 2118 459 2182 369 2182 286 
C 2182 172 2067 153 1990 153 
L 1990 -13 
C 2144 0 2419 0 2579 0 
C 2694 0 2931 0 3040 0 
L 3040 153 
C 2739 153 2669 210 2477 491 
L 1670 1673 
z
" transform="scale(0.015625)"/>
       <path id="CMR17-6c" d="M 979 4396 
L 218 4326 
L 218 4160 
C 595 4160 653 4122 653 3817 
L 653 426 
C 653 184 627 153 218 153 
L 218 -13 
C 371 0 653 0 813 0 
C 979 0 1261 0 1414 -13 
L 1414 153 
C 1005 153 979 178 979 426 
L 979 4396 
z
" transform="scale(0.015625)"/>
       <path id="CMR17-61" d="M 2304 1653 
C 2304 2072 2304 2294 2035 2543 
C 1798 2752 1523 2816 1306 2816 
C 800 2816 435 2407 435 1971 
C 435 1728 627 1728 666 1728 
C 749 1728 896 1778 896 1954 
C 896 2112 774 2181 666 2181 
C 640 2181 608 2174 589 2168 
C 723 2592 1069 2714 1293 2714 
C 1613 2714 1965 2429 1965 1885 
L 1965 1600 
C 1587 1600 1133 1549 774 1357 
C 371 1133 256 813 256 570 
C 256 77 832 -64 1171 -64 
C 1523 -64 1850 139 1990 511 
C 2003 233 2182 -18 2464 -18 
C 2598 -18 2938 70 2938 567 
L 2938 920 
L 2822 920 
L 2822 562 
C 2822 178 2650 128 2566 128 
C 2304 128 2304 458 2304 738 
L 2304 1653 
z
M 1965 870 
C 1965 317 1568 38 1216 38 
C 896 38 646 275 646 570 
C 646 761 730 1100 1101 1305 
C 1408 1478 1760 1504 1965 1504 
L 1965 870 
z
" transform="scale(0.015625)"/>
       <path id="CMR17-6e" d="M 2656 1933 
C 2656 2259 2592 2790 1837 2790 
C 1331 2790 1069 2400 973 2144 
L 966 2144 
L 966 2790 
L 211 2720 
L 211 2554 
C 589 2554 646 2515 646 2208 
L 646 428 
C 646 184 621 153 211 153 
L 211 -13 
C 365 0 646 0 813 0 
C 979 0 1267 0 1421 -13 
L 1421 153 
C 1011 153 986 178 986 428 
L 986 1658 
C 986 2247 1344 2688 1792 2688 
C 2266 2688 2317 2266 2317 1958 
L 2317 428 
C 2317 184 2291 153 1882 153 
L 1882 -13 
C 2035 0 2317 0 2483 0 
C 2650 0 2938 0 3091 -13 
L 3091 153 
C 2682 153 2656 178 2656 428 
L 2656 1933 
z
" transform="scale(0.015625)"/>
       <path id="CMR17-64" d="M 1869 4326 
L 1869 4160 
C 2246 4160 2304 4122 2304 3820 
L 2304 2345 
C 2278 2377 2016 2790 1498 2790 
C 845 2790 211 2208 211 1364 
C 211 525 806 -64 1434 -64 
C 1978 -64 2259 337 2291 380 
L 2291 -63 
L 3066 -63 
L 3066 128 
C 2688 128 2630 166 2630 473 
L 2630 4396 
L 1869 4326 
z
M 2291 755 
C 2291 563 2176 390 2029 262 
C 1811 70 1594 38 1472 38 
C 1286 38 621 134 621 1356 
C 621 2612 1363 2688 1530 2688 
C 1824 2688 2061 2522 2208 2291 
C 2291 2157 2291 2138 2291 2023 
L 2291 755 
z
" transform="scale(0.015625)"/>
      </defs>
      <use xlink:href="#CMR17-41" transform="scale(0.996264)"/>
      <use xlink:href="#CMR17-75" transform="translate(69.07243 0) scale(0.996264)"/>
      <use xlink:href="#CMR17-63" transform="translate(119.9678 0) scale(0.996264)"/>
      <use xlink:href="#CMR17-6b" transform="translate(157.851006 0) scale(0.996264)"/>
      <use xlink:href="#CMR17-6c" transform="translate(206.143922 0) scale(0.996264)"/>
      <use xlink:href="#CMR17-61" transform="translate(231.01498 0) scale(0.996264)"/>
      <use xlink:href="#CMR17-6e" transform="translate(276.705458 0) scale(0.996264)"/>
      <use xlink:href="#CMR17-64" transform="translate(327.600827 0) scale(0.996264)"/>
     </g>
    </g>
    <g id="line2d_22">
     <path d="M 138.540361 46.13329 
L 143.538361 46.13329 
L 148.536361 46.13329 
" style="fill: none; stroke-dasharray: 1.5,2.475; stroke-dashoffset: 0; stroke: #ff7f0e; stroke-width: 1.5"/>
    </g>
    <g id="text_8">
     <!-- Kellevie -->
     <g transform="translate(151.535161 49.63189) scale(0.09996 -0.09996)">
      <defs>
       <path id="CMR17-4b" d="M 2362 2675 
L 3469 3782 
C 3699 4006 3942 4186 4301 4186 
L 4301 4352 
C 4173 4352 4013 4352 3885 4352 
C 3712 4352 3411 4352 3245 4358 
L 3245 4192 
C 3411 4180 3437 4065 3437 4019 
C 3437 3975 3411 3905 3386 3867 
L 1261 1738 
L 1261 3900 
C 1261 4186 1331 4186 1773 4186 
L 1773 4352 
C 1587 4352 1248 4352 1050 4352 
C 851 4352 512 4352 326 4352 
L 326 4186 
C 768 4186 838 4186 838 3899 
L 838 446 
C 838 160 768 160 326 160 
L 326 0 
C 512 0 851 0 1050 0 
C 1248 0 1587 0 1773 0 
L 1773 160 
C 1331 160 1261 160 1261 447 
L 1261 1579 
L 2080 2390 
L 3290 537 
C 3328 473 3373 390 3373 326 
C 3373 160 3194 160 3110 160 
L 3110 0 
C 3315 0 3610 0 3821 0 
C 3974 0 4237 0 4384 -6 
L 4384 160 
C 4077 160 3981 198 3789 493 
L 2362 2675 
z
" transform="scale(0.015625)"/>
       <path id="CMR17-65" d="M 2438 1472 
C 2464 1498 2464 1511 2464 1576 
C 2464 2238 2118 2816 1389 2816 
C 710 2816 173 2169 173 1383 
C 173 551 781 -64 1459 -64 
C 2176 -64 2458 607 2458 740 
C 2458 784 2419 784 2406 784 
C 2362 784 2355 771 2330 696 
C 2189 265 1837 51 1504 51 
C 1229 51 954 203 781 480 
C 582 803 582 1176 582 1472 
L 2438 1472 
z
M 589 1568 
C 634 2505 1126 2714 1382 2714 
C 1818 2714 2112 2297 2118 1568 
L 589 1568 
z
" transform="scale(0.015625)"/>
       <path id="CMR17-76" d="M 2502 2163 
C 2560 2304 2662 2560 3034 2560 
L 3034 2726 
C 2912 2726 2752 2726 2630 2726 
C 2496 2726 2285 2726 2157 2732 
L 2157 2566 
C 2317 2553 2406 2477 2406 2311 
C 2406 2253 2406 2240 2368 2151 
L 1664 377 
L 902 2286 
C 864 2369 864 2381 864 2407 
C 864 2560 1075 2560 1171 2560 
L 1171 2732 
C 1018 2726 736 2726 576 2726 
C 403 2726 205 2726 64 2732 
L 64 2560 
C 307 2560 442 2560 518 2362 
L 1446 44 
C 1485 -51 1491 -64 1549 -64 
C 1606 -64 1613 -51 1651 44 
L 2502 2163 
z
" transform="scale(0.015625)"/>
       <path id="CMR17-69" d="M 992 3909 
C 992 4049 877 4170 730 4170 
C 589 4170 467 4056 467 3909 
C 467 3769 582 3648 730 3648 
C 870 3648 992 3763 992 3909 
z
M 243 2706 
L 243 2541 
C 602 2541 653 2502 653 2197 
L 653 427 
C 653 184 627 153 218 153 
L 218 -13 
C 371 0 646 0 806 0 
C 960 0 1222 0 1370 -13 
L 1370 153 
C 992 153 979 191 979 420 
L 979 2776 
L 243 2706 
z
" transform="scale(0.015625)"/>
      </defs>
      <use xlink:href="#CMR17-4b" transform="scale(0.996264)"/>
      <use xlink:href="#CMR17-65" transform="translate(71.674777 0) scale(0.996264)"/>
      <use xlink:href="#CMR17-6c" transform="translate(112.160438 0) scale(0.996264)"/>
      <use xlink:href="#CMR17-6c" transform="translate(137.031496 0) scale(0.996264)"/>
      <use xlink:href="#CMR17-65" transform="translate(161.902555 0) scale(0.996264)"/>
      <use xlink:href="#CMR17-76" transform="translate(202.388215 0) scale(0.996264)"/>
      <use xlink:href="#CMR17-69" transform="translate(250.681131 0) scale(0.996264)"/>
      <use xlink:href="#CMR17-65" transform="translate(275.55219 0) scale(0.996264)"/>
     </g>
    </g>
    <g id="line2d_23">
     <path d="M 138.540361 55.666653 
L 143.538361 55.666653 
L 148.536361 55.666653 
" style="fill: none; stroke-dasharray: 5.55,2.4; stroke-dashoffset: 0; stroke: #2ca02c; stroke-width: 1.5"/>
    </g>
    <g id="text_9">
     <!-- Noojee -->
     <g transform="translate(151.535161 59.165253) scale(0.09996 -0.09996)">
      <defs>
       <path id="CMR17-4e" d="M 1312 4250 
C 1267 4320 1261 4320 1139 4320 
L 326 4320 
L 326 4160 
L 448 4160 
C 704 4160 819 4129 838 4122 
L 838 610 
C 838 451 838 153 326 153 
L 326 -13 
C 474 0 742 0 902 0 
C 1062 0 1331 0 1478 -13 
L 1478 153 
C 966 153 966 451 966 610 
L 966 4033 
C 1011 3995 1011 3982 1056 3919 
L 3430 76 
C 3475 0 3494 0 3526 0 
C 3590 0 3590 19 3590 139 
L 3590 3705 
C 3590 3863 3590 4160 4102 4160 
L 4102 4326 
C 3955 4320 3686 4320 3526 4320 
C 3366 4320 3098 4320 2950 4326 
L 2950 4160 
C 3462 4160 3462 3862 3462 3703 
L 3462 763 
L 1312 4250 
z
" transform="scale(0.015625)"/>
       <path id="CMR17-6f" d="M 2758 1356 
C 2758 2176 2163 2816 1466 2816 
C 768 2816 173 2176 173 1356 
C 173 551 768 -64 1466 -64 
C 2163 -64 2758 551 2758 1356 
z
M 1466 51 
C 1165 51 909 230 762 480 
C 602 767 582 1126 582 1408 
C 582 1677 595 2010 762 2298 
C 890 2509 1139 2714 1466 2714 
C 1754 2714 1997 2554 2150 2330 
C 2349 2029 2349 1607 2349 1408 
C 2349 1158 2336 775 2163 467 
C 1984 173 1709 51 1466 51 
z
" transform="scale(0.015625)"/>
       <path id="CMR17-6a" d="M 1165 3963 
C 1165 4103 1050 4224 902 4224 
C 762 4224 640 4110 640 3963 
C 640 3823 755 3702 902 3702 
C 1043 3702 1165 3817 1165 3963 
z
M 365 2754 
L 365 2588 
C 787 2588 838 2543 838 2235 
L 838 -359 
C 838 -678 781 -1178 403 -1178 
C 358 -1178 186 -1178 45 -1082 
C 90 -1075 250 -1031 250 -851 
C 250 -729 166 -621 19 -621 
C -122 -621 -211 -717 -211 -858 
C -211 -1114 70 -1280 397 -1280 
C 838 -1280 1165 -877 1165 -332 
L 1165 2825 
L 365 2754 
z
" transform="scale(0.015625)"/>
      </defs>
      <use xlink:href="#CMR17-4e" transform="scale(0.996264)"/>
      <use xlink:href="#CMR17-6f" transform="translate(69.07243 0) scale(0.996264)"/>
      <use xlink:href="#CMR17-6f" transform="translate(117.365346 0) scale(0.996264)"/>
      <use xlink:href="#CMR17-6a" transform="translate(168.260624 0) scale(0.996264)"/>
      <use xlink:href="#CMR17-65" transform="translate(195.734137 0) scale(0.996264)"/>
      <use xlink:href="#CMR17-65" transform="translate(236.219797 0) scale(0.996264)"/>
     </g>
    </g>
    <g id="line2d_24">
     <path d="M 198.893992 36.599927 
L 203.891992 36.599927 
L 208.889992 36.599927 
" style="fill: none; stroke-dasharray: 9.6,2.4,1.5,2.4; stroke-dashoffset: 0; stroke: #d62728; stroke-width: 1.5"/>
    </g>
    <g id="text_10">
     <!-- Perth -->
     <g transform="translate(211.888792 40.098527) scale(0.09996 -0.09996)">
      <defs>
       <path id="CMR17-50" d="M 1267 2042 
L 2291 2042 
C 3117 2042 3718 2578 3718 3184 
C 3718 3791 3130 4352 2291 4352 
L 333 4352 
L 333 4186 
C 774 4186 845 4186 845 3899 
L 845 446 
C 845 160 774 160 333 160 
L 333 0 
C 518 0 858 0 1056 0 
C 1254 0 1594 0 1779 0 
L 1779 160 
C 1338 160 1267 160 1267 446 
L 1267 2042 
z
M 1254 2176 
L 1254 3938 
C 1254 4155 1267 4186 1523 4186 
L 2170 4186 
C 2995 4186 3232 3714 3232 3184 
C 3232 2604 2950 2176 2170 2176 
L 1254 2176 
z
" transform="scale(0.015625)"/>
       <path id="CMR17-72" d="M 960 1497 
C 960 2112 1222 2688 1702 2688 
C 1747 2688 1792 2682 1837 2662 
C 1837 2662 1696 2617 1696 2452 
C 1696 2298 1818 2234 1914 2234 
C 1990 2234 2131 2279 2131 2458 
C 2131 2663 1926 2790 1709 2790 
C 1222 2790 1011 2317 947 2093 
L 941 2093 
L 941 2790 
L 198 2720 
L 198 2554 
C 576 2554 634 2515 634 2208 
L 634 428 
C 634 184 608 153 198 153 
L 198 -13 
C 352 0 646 0 813 0 
C 998 0 1325 0 1498 -13 
L 1498 153 
C 1037 153 960 153 960 440 
L 960 1497 
z
" transform="scale(0.015625)"/>
       <path id="CMR17-74" d="M 966 2560 
L 1862 2560 
L 1862 2725 
L 966 2725 
L 966 3904 
L 851 3904 
C 838 3245 614 2668 70 2668 
L 70 2560 
L 627 2560 
L 627 771 
C 627 650 627 -64 1370 -64 
C 1747 -64 1965 306 1965 777 
L 1965 1140 
L 1850 1140 
L 1850 783 
C 1850 344 1677 51 1408 51 
C 1222 51 966 178 966 758 
L 966 2560 
z
" transform="scale(0.015625)"/>
       <path id="CMR17-68" d="M 2656 1933 
C 2656 2259 2592 2790 1837 2790 
C 1312 2790 1056 2368 979 2157 
L 973 2157 
L 973 4396 
L 211 4326 
L 211 4160 
C 589 4160 646 4122 646 3817 
L 646 426 
C 646 184 621 153 211 153 
L 211 -13 
C 365 0 646 0 813 0 
C 979 0 1267 0 1421 -13 
L 1421 153 
C 1011 153 986 178 986 428 
L 986 1658 
C 986 2247 1344 2688 1792 2688 
C 2266 2688 2317 2266 2317 1958 
L 2317 428 
C 2317 184 2291 153 1882 153 
L 1882 -13 
C 2035 0 2317 0 2483 0 
C 2650 0 2938 0 3091 -13 
L 3091 153 
C 2682 153 2656 178 2656 428 
L 2656 1933 
z
" transform="scale(0.015625)"/>
      </defs>
      <use xlink:href="#CMR17-50" transform="scale(0.996264)"/>
      <use xlink:href="#CMR17-65" transform="translate(59.983847 0) scale(0.996264)"/>
      <use xlink:href="#CMR17-72" transform="translate(100.469507 0) scale(0.996264)"/>
      <use xlink:href="#CMR17-74" transform="translate(135.750275 0) scale(0.996264)"/>
      <use xlink:href="#CMR17-68" transform="translate(171.031043 0) scale(0.996264)"/>
     </g>
    </g>
    <g id="line2d_25">
     <path d="M 198.893992 46.13329 
L 203.891992 46.13329 
L 208.889992 46.13329 
" style="fill: none; stroke: #9467bd; stroke-width: 1.5; stroke-linecap: square"/>
    </g>
    <g id="text_11">
     <!-- Sydney -->
     <g transform="translate(211.888792 49.63189) scale(0.09996 -0.09996)">
      <defs>
       <path id="CMR17-53" d="M 2803 4290 
C 2803 4404 2797 4411 2758 4411 
C 2720 4411 2707 4385 2682 4328 
L 2490 3907 
C 2246 4257 1875 4416 1472 4416 
C 819 4416 294 3901 294 3253 
C 294 3056 339 2776 557 2510 
C 794 2218 1018 2167 1530 2033 
C 1722 1982 2042 1899 2106 1874 
C 2470 1722 2662 1341 2662 985 
C 2662 527 2336 38 1779 38 
C 1094 38 454 419 410 1311 
C 403 1413 397 1419 352 1419 
C 301 1419 294 1413 294 1285 
L 294 -1 
C 294 -115 301 -122 339 -122 
C 384 -122 397 -90 486 108 
C 493 127 493 140 614 381 
C 934 -39 1472 -128 1779 -128 
C 2477 -128 2970 451 2970 1124 
C 2970 1454 2848 1708 2778 1823 
C 2509 2230 2221 2306 1914 2382 
C 1869 2402 1856 2402 1498 2490 
C 1152 2579 1005 2624 845 2796 
C 666 2992 602 3196 602 3399 
C 602 3812 934 4263 1478 4263 
C 2157 4263 2579 3786 2675 2993 
C 2694 2878 2701 2872 2746 2872 
C 2803 2872 2803 2891 2803 2999 
L 2803 4290 
z
" transform="scale(0.015625)"/>
       <path id="CMR17-79" d="M 2496 2197 
C 2656 2586 2944 2586 3034 2586 
L 3034 2752 
C 2912 2752 2752 2752 2630 2752 
C 2496 2752 2285 2752 2157 2758 
L 2157 2592 
C 2400 2573 2406 2394 2406 2343 
C 2406 2280 2394 2248 2362 2171 
L 1664 449 
L 902 2306 
C 870 2382 870 2426 870 2433 
C 870 2573 1018 2586 1171 2586 
L 1171 2758 
C 1018 2752 742 2752 582 2752 
C 410 2752 205 2752 64 2758 
L 64 2586 
C 410 2586 448 2554 531 2350 
L 1485 15 
C 1197 -738 1030 -1178 627 -1178 
C 557 -1178 397 -1159 282 -1044 
C 429 -1031 493 -942 493 -833 
C 493 -725 416 -629 288 -629 
C 147 -629 77 -725 77 -840 
C 77 -1095 339 -1280 627 -1280 
C 998 -1280 1229 -922 1357 -604 
L 2496 2197 
z
" transform="scale(0.015625)"/>
      </defs>
      <use xlink:href="#CMR17-53" transform="scale(0.996264)"/>
      <use xlink:href="#CMR17-79" transform="translate(50.89537 0) scale(0.996264)"/>
      <use xlink:href="#CMR17-64" transform="translate(99.188286 0) scale(0.996264)"/>
      <use xlink:href="#CMR17-6e" transform="translate(150.083655 0) scale(0.996264)"/>
      <use xlink:href="#CMR17-65" transform="translate(200.979025 0) scale(0.996264)"/>
      <use xlink:href="#CMR17-79" transform="translate(241.464686 0) scale(0.996264)"/>
     </g>
    </g>
   </g>
  </g>
 </g>
 <defs>
  <clipPath id="p84b13f861c">
   <rect x="3.5" y="-0" width="249.800515" height="70.098056"/>
  </clipPath>
 </defs>
</svg>
