<?xml version="1.0" encoding="utf-8" standalone="no"?>
<!DOCTYPE svg PUBLIC "-//W3C//DTD SVG 1.1//EN"
  "http://www.w3.org/Graphics/SVG/1.1/DTD/svg11.dtd">
<svg xmlns:xlink="http://www.w3.org/1999/xlink" width="266.4pt" height="108pt" viewBox="0 0 266.4 108" xmlns="http://www.w3.org/2000/svg" version="1.1">
 <metadata>
  <rdf:RDF xmlns:dc="http://purl.org/dc/elements/1.1/" xmlns:cc="http://creativecommons.org/ns#" xmlns:rdf="http://www.w3.org/1999/02/22-rdf-syntax-ns#">
   <cc:Work>
    <dc:type rdf:resource="http://purl.org/dc/dcmitype/StillImage"/>
    <dc:date>2023-10-11T12:35:29.861502</dc:date>
    <dc:format>image/svg+xml</dc:format>
    <dc:creator>
     <cc:Agent>
      <dc:title>Matplotlib v3.7.0, https://matplotlib.org/</dc:title>
     </cc:Agent>
    </dc:creator>
   </cc:Work>
  </rdf:RDF>
 </metadata>
 <defs>
  <style type="text/css">*{stroke-linejoin: round; stroke-linecap: butt}</style>
 </defs>
 <g id="figure_1">
  <g id="patch_1">
   <path d="M 0 108 
L 266.4 108 
L 266.4 0 
L 0 0 
z
" style="fill: #ffffff"/>
  </g>
  <g id="axes_1">
   <g id="patch_2">
    <path d="M 37.567091 78.181683 
L 266.4 78.181683 
L 266.4 0 
L 37.567091 0 
z
" style="fill: #ffffff"/>
   </g>
   <g id="matplotlib.axis_1">
    <g id="xtick_1">
     <g id="line2d_1">
      <defs>
       <path id="m16b636cce6" d="M 0 0 
L 0 3.5 
" style="stroke: #000000; stroke-width: 0.8"/>
      </defs>
      <g>
       <use xlink:href="#m16b636cce6" x="47.958943" y="78.181683" style="stroke: #000000; stroke-width: 0.8"/>
      </g>
     </g>
     <g id="text_1">
      <!-- 0 -->
      <g transform="translate(45.468275 92.100182) scale(0.1 -0.1)">
       <defs>
        <path id="CMR17-30" d="M 2688 2025 
C 2688 2416 2682 3080 2413 3591 
C 2176 4039 1798 4198 1466 4198 
C 1158 4198 768 4058 525 3597 
C 269 3118 243 2524 243 2025 
C 243 1661 250 1106 448 619 
C 723 -39 1216 -128 1466 -128 
C 1760 -128 2208 -7 2470 600 
C 2662 1042 2688 1559 2688 2025 
z
M 1466 -26 
C 1056 -26 813 325 723 812 
C 653 1188 653 1738 653 2096 
C 653 2588 653 2997 736 3387 
C 858 3929 1216 4096 1466 4096 
C 1728 4096 2067 3923 2189 3400 
C 2272 3036 2278 2607 2278 2096 
C 2278 1680 2278 1169 2202 792 
C 2067 95 1690 -26 1466 -26 
z
" transform="scale(0.015625)"/>
       </defs>
       <use xlink:href="#CMR17-30" transform="scale(0.996264)"/>
      </g>
     </g>
    </g>
    <g id="xtick_2">
     <g id="line2d_2">
      <g>
       <use xlink:href="#m16b636cce6" x="100.118999" y="78.181683" style="stroke: #000000; stroke-width: 0.8"/>
      </g>
     </g>
     <g id="text_2">
      <!-- 100 -->
      <g transform="translate(92.646996 92.100182) scale(0.1 -0.1)">
       <defs>
        <path id="CMR17-31" d="M 1702 4058 
C 1702 4192 1696 4192 1606 4192 
C 1357 3916 979 3827 621 3827 
C 602 3827 570 3827 563 3808 
C 557 3795 557 3782 557 3648 
C 755 3648 1088 3686 1344 3839 
L 1344 461 
C 1344 236 1331 160 781 160 
L 589 160 
L 589 0 
C 896 0 1216 0 1523 0 
C 1830 0 2150 0 2458 0 
L 2458 160 
L 2266 160 
C 1715 160 1702 230 1702 458 
L 1702 4058 
z
" transform="scale(0.015625)"/>
       </defs>
       <use xlink:href="#CMR17-31" transform="scale(0.996264)"/>
       <use xlink:href="#CMR17-30" transform="translate(45.690477 0) scale(0.996264)"/>
       <use xlink:href="#CMR17-30" transform="translate(91.380954 0) scale(0.996264)"/>
      </g>
     </g>
    </g>
    <g id="xtick_3">
     <g id="line2d_3">
      <g>
       <use xlink:href="#m16b636cce6" x="152.279056" y="78.181683" style="stroke: #000000; stroke-width: 0.8"/>
      </g>
     </g>
     <g id="text_3">
      <!-- 200 -->
      <g transform="translate(144.807053 92.100182) scale(0.1 -0.1)">
       <defs>
        <path id="CMR17-32" d="M 2669 989 
L 2554 989 
C 2490 536 2438 459 2413 420 
C 2381 369 1920 369 1830 369 
L 602 369 
C 832 619 1280 1072 1824 1597 
C 2214 1967 2669 2402 2669 3035 
C 2669 3790 2067 4224 1395 4224 
C 691 4224 262 3604 262 3030 
C 262 2780 448 2748 525 2748 
C 589 2748 781 2787 781 3010 
C 781 3207 614 3264 525 3264 
C 486 3264 448 3258 422 3245 
C 544 3790 915 4058 1306 4058 
C 1862 4058 2227 3617 2227 3035 
C 2227 2479 1901 2000 1536 1584 
L 262 146 
L 262 0 
L 2515 0 
L 2669 989 
z
" transform="scale(0.015625)"/>
       </defs>
       <use xlink:href="#CMR17-32" transform="scale(0.996264)"/>
       <use xlink:href="#CMR17-30" transform="translate(45.690477 0) scale(0.996264)"/>
       <use xlink:href="#CMR17-30" transform="translate(91.380954 0) scale(0.996264)"/>
      </g>
     </g>
    </g>
    <g id="xtick_4">
     <g id="line2d_4">
      <g>
       <use xlink:href="#m16b636cce6" x="204.439112" y="78.181683" style="stroke: #000000; stroke-width: 0.8"/>
      </g>
     </g>
     <g id="text_4">
      <!-- 300 -->
      <g transform="translate(196.967109 92.100182) scale(0.1 -0.1)">
       <defs>
        <path id="CMR17-33" d="M 1414 2157 
C 1984 2157 2234 1662 2234 1090 
C 2234 320 1824 25 1453 25 
C 1114 25 563 194 390 693 
C 422 680 454 680 486 680 
C 640 680 755 782 755 948 
C 755 1133 614 1216 486 1216 
C 378 1216 211 1165 211 926 
C 211 335 787 -128 1466 -128 
C 2176 -128 2720 430 2720 1085 
C 2720 1707 2208 2157 1600 2227 
C 2086 2328 2554 2756 2554 3329 
C 2554 3820 2048 4179 1472 4179 
C 890 4179 378 3829 378 3329 
C 378 3110 544 3072 627 3072 
C 762 3072 877 3155 877 3321 
C 877 3486 762 3569 627 3569 
C 602 3569 570 3569 544 3557 
C 730 3959 1235 4032 1459 4032 
C 1683 4032 2106 3925 2106 3320 
C 2106 3143 2080 2828 1862 2550 
C 1670 2304 1453 2304 1242 2284 
C 1210 2284 1062 2269 1037 2269 
C 992 2263 966 2257 966 2208 
C 966 2163 973 2157 1101 2157 
L 1414 2157 
z
" transform="scale(0.015625)"/>
       </defs>
       <use xlink:href="#CMR17-33" transform="scale(0.996264)"/>
       <use xlink:href="#CMR17-30" transform="translate(45.690477 0) scale(0.996264)"/>
       <use xlink:href="#CMR17-30" transform="translate(91.380954 0) scale(0.996264)"/>
      </g>
     </g>
    </g>
    <g id="xtick_5">
     <g id="line2d_5">
      <g>
       <use xlink:href="#m16b636cce6" x="256.599169" y="78.181683" style="stroke: #000000; stroke-width: 0.8"/>
      </g>
     </g>
     <g id="text_5">
      <!-- 400 -->
      <g transform="translate(249.127166 92.100182) scale(0.1 -0.1)">
       <defs>
        <path id="CMR17-34" d="M 2150 4122 
C 2150 4256 2144 4256 2029 4256 
L 128 1254 
L 128 1088 
L 1779 1088 
L 1779 457 
C 1779 224 1766 160 1318 160 
L 1197 160 
L 1197 0 
C 1402 0 1747 0 1965 0 
C 2182 0 2528 0 2733 0 
L 2733 160 
L 2611 160 
C 2163 160 2150 224 2150 457 
L 2150 1088 
L 2803 1088 
L 2803 1254 
L 2150 1254 
L 2150 4122 
z
M 1798 3703 
L 1798 1254 
L 256 1254 
L 1798 3703 
z
" transform="scale(0.015625)"/>
       </defs>
       <use xlink:href="#CMR17-34" transform="scale(0.996264)"/>
       <use xlink:href="#CMR17-30" transform="translate(45.690477 0) scale(0.996264)"/>
       <use xlink:href="#CMR17-30" transform="translate(91.380954 0) scale(0.996264)"/>
      </g>
     </g>
    </g>
    <g id="text_6">
     <!-- Mean Throughput Download [Mbps] -->
     <g transform="translate(72.171558 105.50934) scale(0.1 -0.1)">
      <defs>
       <path id="CMR17-4d" d="M 1338 4224 
C 1299 4320 1293 4320 1158 4320 
L 339 4320 
L 339 4160 
C 781 4160 851 4160 851 3875 
L 851 610 
C 851 451 851 153 339 153 
L 339 -13 
C 486 0 755 0 915 0 
C 1075 0 1344 0 1491 -13 
L 1491 153 
C 979 153 979 451 979 610 
L 979 4135 
L 986 4135 
L 2490 89 
C 2515 25 2528 -13 2579 -13 
C 2630 -13 2643 25 2669 89 
L 4186 4166 
L 4192 4166 
L 4192 438 
C 4192 153 4122 153 3680 153 
L 3680 -13 
C 3853 0 4198 0 4384 0 
C 4570 0 4922 0 5094 -13 
L 5094 153 
C 4653 153 4582 153 4582 438 
L 4582 3875 
C 4582 4160 4653 4160 5094 4160 
L 5094 4320 
L 4282 4320 
C 4147 4320 4141 4314 4102 4218 
L 2720 502 
L 1338 4224 
z
" transform="scale(0.015625)"/>
       <path id="CMR17-65" d="M 2438 1472 
C 2464 1498 2464 1511 2464 1576 
C 2464 2238 2118 2816 1389 2816 
C 710 2816 173 2169 173 1383 
C 173 551 781 -64 1459 -64 
C 2176 -64 2458 607 2458 740 
C 2458 784 2419 784 2406 784 
C 2362 784 2355 771 2330 696 
C 2189 265 1837 51 1504 51 
C 1229 51 954 203 781 480 
C 582 803 582 1176 582 1472 
L 2438 1472 
z
M 589 1568 
C 634 2505 1126 2714 1382 2714 
C 1818 2714 2112 2297 2118 1568 
L 589 1568 
z
" transform="scale(0.015625)"/>
       <path id="CMR17-61" d="M 2304 1653 
C 2304 2072 2304 2294 2035 2543 
C 1798 2752 1523 2816 1306 2816 
C 800 2816 435 2407 435 1971 
C 435 1728 627 1728 666 1728 
C 749 1728 896 1778 896 1954 
C 896 2112 774 2181 666 2181 
C 640 2181 608 2174 589 2168 
C 723 2592 1069 2714 1293 2714 
C 1613 2714 1965 2429 1965 1885 
L 1965 1600 
C 1587 1600 1133 1549 774 1357 
C 371 1133 256 813 256 570 
C 256 77 832 -64 1171 -64 
C 1523 -64 1850 139 1990 511 
C 2003 233 2182 -18 2464 -18 
C 2598 -18 2938 70 2938 567 
L 2938 920 
L 2822 920 
L 2822 562 
C 2822 178 2650 128 2566 128 
C 2304 128 2304 458 2304 738 
L 2304 1653 
z
M 1965 870 
C 1965 317 1568 38 1216 38 
C 896 38 646 275 646 570 
C 646 761 730 1100 1101 1305 
C 1408 1478 1760 1504 1965 1504 
L 1965 870 
z
" transform="scale(0.015625)"/>
       <path id="CMR17-6e" d="M 2656 1933 
C 2656 2259 2592 2790 1837 2790 
C 1331 2790 1069 2400 973 2144 
L 966 2144 
L 966 2790 
L 211 2720 
L 211 2554 
C 589 2554 646 2515 646 2208 
L 646 428 
C 646 184 621 153 211 153 
L 211 -13 
C 365 0 646 0 813 0 
C 979 0 1267 0 1421 -13 
L 1421 153 
C 1011 153 986 178 986 428 
L 986 1658 
C 986 2247 1344 2688 1792 2688 
C 2266 2688 2317 2266 2317 1958 
L 2317 428 
C 2317 184 2291 153 1882 153 
L 1882 -13 
C 2035 0 2317 0 2483 0 
C 2650 0 2938 0 3091 -13 
L 3091 153 
C 2682 153 2656 178 2656 428 
L 2656 1933 
z
" transform="scale(0.015625)"/>
       <path id="CMR17-54" d="M 3981 4326 
L 288 4326 
L 179 2918 
L 294 2918 
C 378 3976 467 4160 1453 4160 
C 1568 4160 1754 4160 1805 4154 
C 1926 4135 1926 4058 1926 3912 
L 1926 459 
C 1926 230 1907 160 1376 160 
L 1197 160 
L 1197 0 
C 1504 0 1824 0 2138 0 
C 2451 0 2771 0 3078 0 
L 3078 160 
L 2899 160 
C 2368 160 2349 230 2349 459 
L 2349 3912 
C 2349 4052 2349 4129 2464 4154 
C 2515 4160 2701 4160 2816 4160 
C 3795 4160 3891 3976 3974 2918 
L 4090 2918 
L 3981 4326 
z
" transform="scale(0.015625)"/>
       <path id="CMR17-68" d="M 2656 1933 
C 2656 2259 2592 2790 1837 2790 
C 1312 2790 1056 2368 979 2157 
L 973 2157 
L 973 4396 
L 211 4326 
L 211 4160 
C 589 4160 646 4122 646 3817 
L 646 426 
C 646 184 621 153 211 153 
L 211 -13 
C 365 0 646 0 813 0 
C 979 0 1267 0 1421 -13 
L 1421 153 
C 1011 153 986 178 986 428 
L 986 1658 
C 986 2247 1344 2688 1792 2688 
C 2266 2688 2317 2266 2317 1958 
L 2317 428 
C 2317 184 2291 153 1882 153 
L 1882 -13 
C 2035 0 2317 0 2483 0 
C 2650 0 2938 0 3091 -13 
L 3091 153 
C 2682 153 2656 178 2656 428 
L 2656 1933 
z
" transform="scale(0.015625)"/>
       <path id="CMR17-72" d="M 960 1497 
C 960 2112 1222 2688 1702 2688 
C 1747 2688 1792 2682 1837 2662 
C 1837 2662 1696 2617 1696 2452 
C 1696 2298 1818 2234 1914 2234 
C 1990 2234 2131 2279 2131 2458 
C 2131 2663 1926 2790 1709 2790 
C 1222 2790 1011 2317 947 2093 
L 941 2093 
L 941 2790 
L 198 2720 
L 198 2554 
C 576 2554 634 2515 634 2208 
L 634 428 
C 634 184 608 153 198 153 
L 198 -13 
C 352 0 646 0 813 0 
C 998 0 1325 0 1498 -13 
L 1498 153 
C 1037 153 960 153 960 440 
L 960 1497 
z
" transform="scale(0.015625)"/>
       <path id="CMR17-6f" d="M 2758 1356 
C 2758 2176 2163 2816 1466 2816 
C 768 2816 173 2176 173 1356 
C 173 551 768 -64 1466 -64 
C 2163 -64 2758 551 2758 1356 
z
M 1466 51 
C 1165 51 909 230 762 480 
C 602 767 582 1126 582 1408 
C 582 1677 595 2010 762 2298 
C 890 2509 1139 2714 1466 2714 
C 1754 2714 1997 2554 2150 2330 
C 2349 2029 2349 1607 2349 1408 
C 2349 1158 2336 775 2163 467 
C 1984 173 1709 51 1466 51 
z
" transform="scale(0.015625)"/>
       <path id="CMR17-75" d="M 1882 2693 
L 1882 2528 
C 2259 2528 2317 2489 2317 2186 
L 2317 1032 
C 2317 500 2029 38 1555 38 
C 1030 38 986 348 986 678 
L 986 2763 
L 211 2693 
L 211 2528 
C 467 2528 640 2528 646 2274 
L 646 1058 
C 646 633 646 361 813 183 
C 896 101 1056 -64 1517 -64 
C 2061 -64 2272 377 2323 506 
L 2330 506 
L 2330 -63 
L 3091 -63 
L 3091 128 
C 2714 128 2656 166 2656 473 
L 2656 2763 
L 1882 2693 
z
" transform="scale(0.015625)"/>
       <path id="CMR17-67" d="M 710 1164 
C 832 1068 1043 960 1299 960 
C 1805 960 2240 1357 2240 1888 
C 2240 2054 2189 2310 1997 2509 
C 2176 2692 2438 2752 2586 2752 
C 2611 2752 2650 2752 2682 2734 
C 2656 2728 2598 2703 2598 2605 
C 2598 2527 2656 2471 2739 2471 
C 2835 2471 2886 2533 2886 2614 
C 2886 2731 2790 2854 2586 2854 
C 2330 2854 2106 2738 1926 2580 
C 1734 2753 1504 2816 1299 2816 
C 794 2816 358 2419 358 1888 
C 358 1522 570 1292 634 1228 
C 442 1004 442 743 442 711 
C 442 545 506 302 723 168 
C 390 85 128 -169 128 -486 
C 128 -943 736 -1280 1466 -1280 
C 2170 -1280 2803 -956 2803 -479 
C 2803 384 1856 384 1363 384 
C 1216 384 954 384 922 391 
C 723 423 589 602 589 826 
C 589 883 589 1024 710 1164 
z
M 1299 1068 
C 736 1068 736 1760 736 1889 
C 736 2016 736 2708 1299 2708 
C 1862 2708 1862 2016 1862 1889 
C 1862 1760 1862 1068 1299 1068 
z
M 1466 -1171 
C 826 -1171 384 -835 384 -486 
C 384 -289 493 -105 634 -4 
C 794 104 858 104 1293 104 
C 1818 104 2547 104 2547 -486 
C 2547 -835 2106 -1171 1466 -1171 
z
" transform="scale(0.015625)"/>
       <path id="CMR17-70" d="M 1408 -1063 
C 998 -1063 973 -1037 973 -789 
L 973 402 
C 1158 134 1427 -38 1766 -38 
C 2406 -38 3053 523 3053 1388 
C 3053 2191 2496 2802 1837 2802 
C 1453 2802 1139 2592 960 2338 
L 960 2802 
L 198 2732 
L 198 2567 
C 576 2567 634 2528 634 2223 
L 634 -789 
C 634 -1031 608 -1063 198 -1063 
L 198 -1228 
C 352 -1216 634 -1216 800 -1216 
C 966 -1216 1254 -1216 1408 -1228 
L 1408 -1063 
z
M 973 2012 
C 973 2102 973 2235 1222 2471 
C 1254 2497 1472 2688 1792 2688 
C 2259 2688 2643 2108 2643 1382 
C 2643 656 2234 64 1728 64 
C 1498 64 1248 172 1056 472 
C 973 612 973 650 973 752 
L 973 2012 
z
" transform="scale(0.015625)"/>
       <path id="CMR17-74" d="M 966 2560 
L 1862 2560 
L 1862 2725 
L 966 2725 
L 966 3904 
L 851 3904 
C 838 3245 614 2668 70 2668 
L 70 2560 
L 627 2560 
L 627 771 
C 627 650 627 -64 1370 -64 
C 1747 -64 1965 306 1965 777 
L 1965 1140 
L 1850 1140 
L 1850 783 
C 1850 344 1677 51 1408 51 
C 1222 51 966 178 966 758 
L 966 2560 
z
" transform="scale(0.015625)"/>
       <path id="CMR17-44" d="M 333 4352 
L 333 4186 
C 774 4186 845 4186 845 3900 
L 845 452 
C 845 166 774 166 333 166 
L 333 0 
L 2368 0 
C 3398 0 4224 943 4224 2141 
C 4224 3346 3411 4352 2368 4352 
L 333 4352 
z
M 1523 166 
C 1267 166 1254 197 1254 414 
L 1254 3938 
C 1254 4155 1267 4186 1523 4186 
L 2240 4186 
C 2771 4186 3750 3874 3750 2141 
C 3750 1242 3488 879 3366 707 
C 3213 510 2848 166 2240 166 
L 1523 166 
z
" transform="scale(0.015625)"/>
       <path id="CMR17-77" d="M 3725 2183 
C 3853 2560 4109 2560 4205 2560 
L 4205 2732 
C 4077 2732 3949 2732 3821 2732 
C 3699 2732 3424 2732 3315 2738 
L 3315 2560 
C 3514 2560 3622 2445 3622 2286 
C 3622 2241 3610 2184 3597 2140 
L 2995 407 
L 2342 2275 
C 2330 2319 2310 2370 2310 2395 
C 2310 2560 2528 2560 2630 2560 
L 2630 2738 
C 2483 2732 2214 2732 2061 2732 
C 1901 2732 1734 2732 1587 2738 
L 1587 2560 
C 1939 2560 1939 2547 2074 2149 
L 1485 451 
L 851 2281 
C 819 2363 819 2376 819 2395 
C 819 2560 1037 2560 1139 2560 
L 1139 2738 
C 986 2732 717 2732 557 2732 
C 416 2732 198 2732 64 2738 
L 64 2560 
C 346 2560 416 2541 486 2331 
L 1274 49 
C 1299 -33 1318 -52 1370 -52 
C 1414 -52 1440 -39 1472 56 
L 2131 1980 
L 2797 56 
C 2829 -39 2854 -52 2899 -52 
C 2950 -52 2970 -33 2995 50 
L 3725 2183 
z
" transform="scale(0.015625)"/>
       <path id="CMR17-6c" d="M 979 4396 
L 218 4326 
L 218 4160 
C 595 4160 653 4122 653 3817 
L 653 426 
C 653 184 627 153 218 153 
L 218 -13 
C 371 0 653 0 813 0 
C 979 0 1261 0 1414 -13 
L 1414 153 
C 1005 153 979 178 979 426 
L 979 4396 
z
" transform="scale(0.015625)"/>
       <path id="CMR17-64" d="M 1869 4326 
L 1869 4160 
C 2246 4160 2304 4122 2304 3820 
L 2304 2345 
C 2278 2377 2016 2790 1498 2790 
C 845 2790 211 2208 211 1364 
C 211 525 806 -64 1434 -64 
C 1978 -64 2259 337 2291 380 
L 2291 -63 
L 3066 -63 
L 3066 128 
C 2688 128 2630 166 2630 473 
L 2630 4396 
L 1869 4326 
z
M 2291 755 
C 2291 563 2176 390 2029 262 
C 1811 70 1594 38 1472 38 
C 1286 38 621 134 621 1356 
C 621 2612 1363 2688 1530 2688 
C 1824 2688 2061 2522 2208 2291 
C 2291 2157 2291 2138 2291 2023 
L 2291 755 
z
" transform="scale(0.015625)"/>
       <path id="CMR17-5b" d="M 1504 -1600 
L 1504 -1377 
L 902 -1377 
L 902 4544 
L 1504 4544 
L 1504 4767 
L 678 4767 
L 678 -1600 
L 1504 -1600 
z
" transform="scale(0.015625)"/>
       <path id="CMR17-62" d="M 960 4396 
L 198 4326 
L 198 4160 
C 576 4160 634 4122 634 3817 
L 634 -13 
L 749 -13 
L 934 441 
C 1120 141 1395 -64 1766 -64 
C 2406 -64 3053 500 3053 1370 
C 3053 2188 2477 2790 1830 2790 
C 1434 2790 1152 2579 960 2330 
L 960 4396 
z
M 973 2004 
C 973 2118 973 2138 1062 2272 
C 1312 2657 1670 2688 1792 2688 
C 1984 2688 2643 2585 2643 1376 
C 2643 108 1888 38 1734 38 
C 1536 38 1248 114 1043 486 
C 973 608 973 621 973 735 
L 973 2004 
z
" transform="scale(0.015625)"/>
       <path id="CMR17-73" d="M 1978 2697 
C 1978 2813 1971 2819 1933 2819 
C 1907 2819 1901 2813 1824 2717 
C 1805 2691 1747 2626 1728 2601 
C 1523 2819 1235 2819 1126 2819 
C 416 2819 160 2447 160 2076 
C 160 1498 813 1365 998 1325 
C 1402 1243 1542 1217 1677 1101 
C 1760 1025 1901 884 1901 654 
C 1901 384 1747 38 1158 38 
C 602 38 403 460 288 1021 
C 269 1110 269 1117 218 1117 
C 166 1117 160 1110 160 983 
L 160 63 
C 160 -51 166 -58 205 -58 
C 237 -58 243 -51 275 0 
C 314 57 410 211 448 276 
C 576 103 800 -64 1158 -64 
C 1792 -64 2131 283 2131 784 
C 2131 1112 1958 1285 1875 1362 
C 1683 1561 1459 1606 1190 1657 
C 838 1735 390 1825 390 2217 
C 390 2383 480 2737 1126 2737 
C 1811 2737 1850 2094 1862 1888 
C 1869 1856 1901 1849 1920 1849 
C 1978 1849 1978 1869 1978 1978 
L 1978 2697 
z
" transform="scale(0.015625)"/>
       <path id="CMR17-5d" d="M 915 4767 
L 90 4767 
L 90 4544 
L 691 4544 
L 691 -1377 
L 90 -1377 
L 90 -1600 
L 915 -1600 
L 915 4767 
z
" transform="scale(0.015625)"/>
      </defs>
      <use xlink:href="#CMR17-4d" transform="scale(0.996264)"/>
      <use xlink:href="#CMR17-65" transform="translate(84.686941 0) scale(0.996264)"/>
      <use xlink:href="#CMR17-61" transform="translate(125.172601 0) scale(0.996264)"/>
      <use xlink:href="#CMR17-6e" transform="translate(170.863078 0) scale(0.996264)"/>
      <use xlink:href="#CMR17-54" transform="translate(251.834414 0) scale(0.996264)"/>
      <use xlink:href="#CMR17-68" transform="translate(318.344295 0) scale(0.996264)"/>
      <use xlink:href="#CMR17-72" transform="translate(369.239665 0) scale(0.996264)"/>
      <use xlink:href="#CMR17-6f" transform="translate(404.520432 0) scale(0.996264)"/>
      <use xlink:href="#CMR17-75" transform="translate(450.21091 0) scale(0.996264)"/>
      <use xlink:href="#CMR17-67" transform="translate(501.106279 0) scale(0.996264)"/>
      <use xlink:href="#CMR17-68" transform="translate(546.796756 0) scale(0.996264)"/>
      <use xlink:href="#CMR17-70" transform="translate(597.692126 0) scale(0.996264)"/>
      <use xlink:href="#CMR17-75" transform="translate(648.587496 0) scale(0.996264)"/>
      <use xlink:href="#CMR17-74" transform="translate(699.482866 0) scale(0.996264)"/>
      <use xlink:href="#CMR17-44" transform="translate(764.8396 0) scale(0.996264)"/>
      <use xlink:href="#CMR17-6f" transform="translate(835.233156 0) scale(0.996264)"/>
      <use xlink:href="#CMR17-77" transform="translate(878.321179 0) scale(0.996264)"/>
      <use xlink:href="#CMR17-6e" transform="translate(944.83106 0) scale(0.996264)"/>
      <use xlink:href="#CMR17-6c" transform="translate(995.726429 0) scale(0.996264)"/>
      <use xlink:href="#CMR17-6f" transform="translate(1020.597488 0) scale(0.996264)"/>
      <use xlink:href="#CMR17-61" transform="translate(1066.287965 0) scale(0.996264)"/>
      <use xlink:href="#CMR17-64" transform="translate(1111.978442 0) scale(0.996264)"/>
      <use xlink:href="#CMR17-5b" transform="translate(1192.949778 0) scale(0.996264)"/>
      <use xlink:href="#CMR17-4d" transform="translate(1217.820837 0) scale(0.996264)"/>
      <use xlink:href="#CMR17-62" transform="translate(1302.507777 0) scale(0.996264)"/>
      <use xlink:href="#CMR17-70" transform="translate(1353.403147 0) scale(0.996264)"/>
      <use xlink:href="#CMR17-73" transform="translate(1404.298517 0) scale(0.996264)"/>
      <use xlink:href="#CMR17-5d" transform="translate(1440.099854 0) scale(0.996264)"/>
     </g>
    </g>
   </g>
   <g id="matplotlib.axis_2">
    <g id="ytick_1">
     <g id="line2d_6">
      <path d="M 37.567091 74.62797 
L 266.4 74.62797 
" clip-path="url(#p485dedb10e)" style="fill: none; stroke: #b0b0b0; stroke-opacity: 0.7; stroke-width: 0.5; stroke-linecap: square"/>
     </g>
     <g id="line2d_7">
      <defs>
       <path id="m8819b8ce25" d="M 0 0 
L -3.5 0 
" style="stroke: #000000; stroke-width: 0.8"/>
      </defs>
      <g>
       <use xlink:href="#m8819b8ce25" x="37.567091" y="74.62797" style="stroke: #000000; stroke-width: 0.8"/>
      </g>
     </g>
     <g id="text_7">
      <!-- 0.00 -->
      <g transform="translate(12.855677 78.08722) scale(0.1 -0.1)">
       <defs>
        <path id="CMR17-2e" d="M 1062 261 
C 1062 420 934 522 800 522 
C 672 522 538 420 538 261 
C 538 102 666 0 800 0 
C 928 0 1062 102 1062 261 
z
" transform="scale(0.015625)"/>
       </defs>
       <use xlink:href="#CMR17-30" transform="scale(0.996264)"/>
       <use xlink:href="#CMR17-2e" transform="translate(45.690477 0) scale(0.996264)"/>
       <use xlink:href="#CMR17-30" transform="translate(70.561536 0) scale(0.996264)"/>
       <use xlink:href="#CMR17-30" transform="translate(116.252013 0) scale(0.996264)"/>
      </g>
     </g>
    </g>
    <g id="ytick_2">
     <g id="line2d_8">
      <path d="M 37.567091 56.859406 
L 266.4 56.859406 
" clip-path="url(#p485dedb10e)" style="fill: none; stroke: #b0b0b0; stroke-opacity: 0.7; stroke-width: 0.5; stroke-linecap: square"/>
     </g>
     <g id="line2d_9">
      <g>
       <use xlink:href="#m8819b8ce25" x="37.567091" y="56.859406" style="stroke: #000000; stroke-width: 0.8"/>
      </g>
     </g>
     <g id="text_8">
      <!-- 0.25 -->
      <g transform="translate(12.855677 60.318655) scale(0.1 -0.1)">
       <defs>
        <path id="CMR17-35" d="M 730 3692 
C 794 3666 1056 3584 1325 3584 
C 1920 3584 2246 3911 2432 4100 
C 2432 4157 2432 4192 2394 4192 
C 2387 4192 2374 4192 2323 4163 
C 2099 4058 1837 3973 1517 3973 
C 1325 3973 1037 3999 723 4139 
C 653 4171 640 4171 634 4171 
C 602 4171 595 4164 595 4037 
L 595 2203 
C 595 2089 595 2057 659 2057 
C 691 2057 704 2070 736 2114 
C 941 2401 1222 2522 1542 2522 
C 1766 2522 2246 2382 2246 1289 
C 2246 1085 2246 715 2054 421 
C 1894 159 1645 25 1370 25 
C 947 25 518 320 403 814 
C 429 807 480 795 506 795 
C 589 795 749 840 749 1038 
C 749 1210 627 1280 506 1280 
C 358 1280 262 1190 262 1011 
C 262 454 704 -128 1382 -128 
C 2042 -128 2669 440 2669 1264 
C 2669 2030 2170 2624 1549 2624 
C 1222 2624 947 2503 730 2274 
L 730 3692 
z
" transform="scale(0.015625)"/>
       </defs>
       <use xlink:href="#CMR17-30" transform="scale(0.996264)"/>
       <use xlink:href="#CMR17-2e" transform="translate(45.690477 0) scale(0.996264)"/>
       <use xlink:href="#CMR17-32" transform="translate(70.561536 0) scale(0.996264)"/>
       <use xlink:href="#CMR17-35" transform="translate(116.252013 0) scale(0.996264)"/>
      </g>
     </g>
    </g>
    <g id="ytick_3">
     <g id="line2d_10">
      <path d="M 37.567091 39.090842 
L 266.4 39.090842 
" clip-path="url(#p485dedb10e)" style="fill: none; stroke: #b0b0b0; stroke-opacity: 0.7; stroke-width: 0.5; stroke-linecap: square"/>
     </g>
     <g id="line2d_11">
      <g>
       <use xlink:href="#m8819b8ce25" x="37.567091" y="39.090842" style="stroke: #000000; stroke-width: 0.8"/>
      </g>
     </g>
     <g id="text_9">
      <!-- 0.50 -->
      <g transform="translate(12.855677 42.550091) scale(0.1 -0.1)">
       <use xlink:href="#CMR17-30" transform="scale(0.996264)"/>
       <use xlink:href="#CMR17-2e" transform="translate(45.690477 0) scale(0.996264)"/>
       <use xlink:href="#CMR17-35" transform="translate(70.561536 0) scale(0.996264)"/>
       <use xlink:href="#CMR17-30" transform="translate(116.252013 0) scale(0.996264)"/>
      </g>
     </g>
    </g>
    <g id="ytick_4">
     <g id="line2d_12">
      <path d="M 37.567091 21.322277 
L 266.4 21.322277 
" clip-path="url(#p485dedb10e)" style="fill: none; stroke: #b0b0b0; stroke-opacity: 0.7; stroke-width: 0.5; stroke-linecap: square"/>
     </g>
     <g id="line2d_13">
      <g>
       <use xlink:href="#m8819b8ce25" x="37.567091" y="21.322277" style="stroke: #000000; stroke-width: 0.8"/>
      </g>
     </g>
     <g id="text_10">
      <!-- 0.75 -->
      <g transform="translate(12.855677 24.781526) scale(0.1 -0.1)">
       <defs>
        <path id="CMR17-37" d="M 2886 3941 
L 2886 4081 
L 1382 4081 
C 634 4081 621 4165 595 4288 
L 480 4288 
L 294 3094 
L 410 3094 
C 429 3215 474 3540 550 3661 
C 589 3712 1062 3712 1171 3712 
L 2579 3712 
L 1869 2661 
C 1395 1954 1069 999 1069 165 
C 1069 89 1069 -128 1299 -128 
C 1530 -128 1530 89 1530 171 
L 1530 465 
C 1530 1508 1709 2196 2003 2636 
L 2886 3941 
z
" transform="scale(0.015625)"/>
       </defs>
       <use xlink:href="#CMR17-30" transform="scale(0.996264)"/>
       <use xlink:href="#CMR17-2e" transform="translate(45.690477 0) scale(0.996264)"/>
       <use xlink:href="#CMR17-37" transform="translate(70.561536 0) scale(0.996264)"/>
       <use xlink:href="#CMR17-35" transform="translate(116.252013 0) scale(0.996264)"/>
      </g>
     </g>
    </g>
    <g id="ytick_5">
     <g id="line2d_14">
      <path d="M 37.567091 3.553713 
L 266.4 3.553713 
" clip-path="url(#p485dedb10e)" style="fill: none; stroke: #b0b0b0; stroke-opacity: 0.7; stroke-width: 0.5; stroke-linecap: square"/>
     </g>
     <g id="line2d_15">
      <g>
       <use xlink:href="#m8819b8ce25" x="37.567091" y="3.553713" style="stroke: #000000; stroke-width: 0.8"/>
      </g>
     </g>
     <g id="text_11">
      <!-- 1.00 -->
      <g transform="translate(12.855677 7.012962) scale(0.1 -0.1)">
       <use xlink:href="#CMR17-31" transform="scale(0.996264)"/>
       <use xlink:href="#CMR17-2e" transform="translate(45.690477 0) scale(0.996264)"/>
       <use xlink:href="#CMR17-30" transform="translate(70.561536 0) scale(0.996264)"/>
       <use xlink:href="#CMR17-30" transform="translate(116.252013 0) scale(0.996264)"/>
      </g>
     </g>
    </g>
    <g id="text_12">
     <!-- Percentile -->
     <g transform="translate(6.918498 60.482866) rotate(-90) scale(0.1 -0.1)">
      <defs>
       <path id="CMR17-50" d="M 1267 2042 
L 2291 2042 
C 3117 2042 3718 2578 3718 3184 
C 3718 3791 3130 4352 2291 4352 
L 333 4352 
L 333 4186 
C 774 4186 845 4186 845 3899 
L 845 446 
C 845 160 774 160 333 160 
L 333 0 
C 518 0 858 0 1056 0 
C 1254 0 1594 0 1779 0 
L 1779 160 
C 1338 160 1267 160 1267 446 
L 1267 2042 
z
M 1254 2176 
L 1254 3938 
C 1254 4155 1267 4186 1523 4186 
L 2170 4186 
C 2995 4186 3232 3714 3232 3184 
C 3232 2604 2950 2176 2170 2176 
L 1254 2176 
z
" transform="scale(0.015625)"/>
       <path id="CMR17-63" d="M 2234 2240 
C 2112 2240 1933 2240 1933 2017 
C 1933 1838 2080 1787 2163 1787 
C 2208 1787 2394 1807 2394 2024 
C 2394 2467 1958 2803 1466 2803 
C 787 2803 211 2178 211 1363 
C 211 516 813 -64 1466 -64 
C 2259 -64 2458 677 2458 748 
C 2458 774 2451 793 2406 793 
C 2362 793 2355 787 2330 703 
C 2163 180 1798 51 1523 51 
C 1114 51 621 427 621 1369 
C 621 2338 1094 2688 1472 2688 
C 1722 2688 2093 2573 2234 2240 
z
" transform="scale(0.015625)"/>
       <path id="CMR17-69" d="M 992 3909 
C 992 4049 877 4170 730 4170 
C 589 4170 467 4056 467 3909 
C 467 3769 582 3648 730 3648 
C 870 3648 992 3763 992 3909 
z
M 243 2706 
L 243 2541 
C 602 2541 653 2502 653 2197 
L 653 427 
C 653 184 627 153 218 153 
L 218 -13 
C 371 0 646 0 806 0 
C 960 0 1222 0 1370 -13 
L 1370 153 
C 992 153 979 191 979 420 
L 979 2776 
L 243 2706 
z
" transform="scale(0.015625)"/>
      </defs>
      <use xlink:href="#CMR17-50" transform="scale(0.996264)"/>
      <use xlink:href="#CMR17-65" transform="translate(59.983847 0) scale(0.996264)"/>
      <use xlink:href="#CMR17-72" transform="translate(100.469507 0) scale(0.996264)"/>
      <use xlink:href="#CMR17-63" transform="translate(135.750275 0) scale(0.996264)"/>
      <use xlink:href="#CMR17-65" transform="translate(176.235935 0) scale(0.996264)"/>
      <use xlink:href="#CMR17-6e" transform="translate(216.721596 0) scale(0.996264)"/>
      <use xlink:href="#CMR17-74" transform="translate(265.014512 0) scale(0.996264)"/>
      <use xlink:href="#CMR17-69" transform="translate(300.295279 0) scale(0.996264)"/>
      <use xlink:href="#CMR17-6c" transform="translate(325.166338 0) scale(0.996264)"/>
      <use xlink:href="#CMR17-65" transform="translate(350.037396 0) scale(0.996264)"/>
     </g>
    </g>
   </g>
   <g id="line2d_16">
    <path d="M 47.994663 74.627739 
L 48.119341 74.515157 
L 49.818586 61.644896 
L 49.900717 61.166075 
L 50.187677 59.686293 
L 50.318162 58.949645 
L 50.434509 58.255157 
L 50.499151 57.92853 
L 50.714276 56.958379 
L 50.92531 56.021121 
L 51.060758 55.514502 
L 51.279659 54.69029 
L 51.906499 52.447452 
L 51.972022 52.230164 
L 52.407584 50.715634 
L 52.582518 50.093653 
L 52.87385 49.077171 
L 53.004733 48.695643 
L 55.108583 43.805042 
L 55.212165 43.604201 
L 55.485009 43.070478 
L 55.719761 42.626868 
L 55.984172 42.12882 
L 56.111814 41.893 
L 56.250466 41.647219 
L 56.351077 41.463752 
L 56.541261 41.126469 
L 56.704619 40.845014 
L 56.812711 40.6634 
L 56.9812 40.370594 
L 57.25997 39.895016 
L 57.344376 39.752551 
L 57.507239 39.484763 
L 57.713158 39.15304 
L 57.827171 38.964476 
L 57.939836 38.803943 
L 58.977965 37.267406 
L 59.11099 37.080696 
L 59.203483 36.954215 
L 59.366574 36.733684 
L 59.53115 36.50991 
L 59.650554 36.357252 
L 59.74625 36.221505 
L 59.906288 36.011398 
L 60.079465 35.778126 
L 60.226733 35.571262 
L 61.363552 34.117657 
L 61.495074 33.95388 
L 62.188764 33.138007 
L 62.46356 32.81138 
L 62.708921 32.531547 
L 62.862432 32.360821 
L 62.975901 32.218356 
L 65.355054 29.644489 
L 65.519423 29.470288 
L 65.675773 29.306279 
L 66.203051 28.748002 
L 66.366327 28.577276 
L 66.518903 28.414889 
L 66.646165 28.285165 
L 66.782285 28.142237 
L 68.790096 26.194289 
L 69.086956 25.930439 
L 69.213877 25.806043 
L 69.501101 25.538024 
L 69.736305 25.327222 
L 69.877061 25.196803 
L 71.485088 23.812692 
L 71.651213 23.6693 
L 71.865282 23.488382 
L 73.201043 22.440627 
L 73.426911 22.267584 
L 73.558915 22.168438 
L 73.786855 22.006514 
L 74.08656 21.782972 
L 74.332925 21.613635 
L 74.479023 21.514026 
L 74.747082 21.319903 
L 74.8939 21.213112 
L 75.18793 21.009028 
L 76.48725 20.104665 
L 76.714785 19.952008 
L 76.95207 19.794485 
L 77.283824 19.582294 
L 84.660775 15.116075 
L 85.089529 14.88651 
L 85.330118 14.745667 
L 85.685007 14.552934 
L 85.810471 14.481122 
L 86.213208 14.282598 
L 86.783655 13.95875 
L 87.609662 13.509117 
L 87.884263 13.360166 
L 88.105401 13.247352 
L 88.45707 13.065044 
L 88.916619 12.841038 
L 90.14803 12.224616 
L 90.323 12.145623 
L 90.672043 11.98231 
L 90.91765 11.869265 
L 92.319411 11.235006 
L 95.303643 10.09714 
L 97.781662 9.316246 
L 97.901627 9.281962 
L 98.597044 9.07811 
L 98.722165 9.044752 
L 99.965641 8.67666 
L 104.288411 7.548754 
L 104.817199 7.414166 
L 105.653517 7.225139 
L 108.621608 6.596208 
L 108.826395 6.558449 
L 110.121415 6.321471 
L 111.036009 6.155378 
L 112.514795 5.90728 
L 113.295851 5.793308 
L 114.487043 5.612158 
L 114.602445 5.597332 
L 115.628087 5.451392 
L 117.070893 5.270242 
L 117.529936 5.2209 
L 119.545647 5.000601 
L 121.989939 4.755283 
L 123.771103 4.601004 
L 131.986468 4.077938 
L 135.903952 3.936168 
L 153.840989 3.612784 
L 192.993049 3.553713 
L 192.993049 3.553713 
" clip-path="url(#p485dedb10e)" style="fill: none; stroke: #1f77b4; stroke-width: 1.5; stroke-linecap: square"/>
   </g>
   <g id="line2d_17">
    <path d="M 48.010217 74.627803 
L 48.144013 74.460612 
L 48.261855 73.832559 
L 50.661091 63.348637 
L 50.74138 63.078753 
L 50.856516 62.68155 
L 50.956035 62.358896 
L 51.377054 61.072969 
L 51.428325 60.912982 
L 51.543299 60.565366 
L 51.718754 60.046874 
L 51.870102 59.589529 
L 51.927337 59.422171 
L 52.512582 57.690124 
L 52.584863 57.475188 
L 52.704483 57.110653 
L 52.960231 56.396323 
L 56.892441 48.529152 
L 56.983315 48.377039 
L 57.214441 47.977658 
L 57.318286 47.807284 
L 57.987544 46.735623 
L 58.497024 45.981925 
L 58.617763 45.806525 
L 61.048187 42.517327 
L 61.245085 42.273242 
L 62.348633 40.874906 
L 62.6987 40.448218 
L 64.192397 38.663735 
L 64.335483 38.492021 
L 64.456264 38.350295 
L 64.731795 38.029315 
L 64.932973 37.800978 
L 65.06643 37.656906 
L 65.298979 37.382834 
L 65.459965 37.203247 
L 65.759178 36.878917 
L 65.950415 36.665992 
L 66.164738 36.426095 
L 66.39791 36.174304 
L 66.744137 35.793016 
L 66.861772 35.670219 
L 67.052792 35.459472 
L 67.496879 34.98571 
L 67.722954 34.738274 
L 67.883191 34.573429 
L 68.029999 34.416123 
L 68.154448 34.276239 
L 68.320956 34.097824 
L 68.956563 33.426381 
L 69.075665 33.310453 
L 69.263516 33.121317 
L 70.85478 31.548084 
L 71.086739 31.320751 
L 71.202755 31.215043 
L 71.418045 31.00396 
L 71.534134 30.88485 
L 72.366229 30.08793 
L 72.615388 29.85641 
L 72.849129 29.644658 
L 72.99933 29.506449 
L 73.131686 29.394374 
L 73.436796 29.132699 
L 73.584653 29.014594 
L 73.830956 28.805354 
L 74.560092 28.197906 
L 74.722489 28.057855 
L 74.883742 27.920316 
L 75.063379 27.780767 
L 76.229429 26.924041 
L 76.68264 26.613616 
L 77.135122 26.306709 
L 77.383176 26.128965 
L 77.540132 26.020743 
L 79.061525 25.042058 
L 79.424251 24.832149 
L 79.638368 24.704997 
L 79.893174 24.555061 
L 88.892548 19.999202 
L 89.245655 19.836869 
L 89.397836 19.761818 
L 89.873757 19.539176 
L 89.987534 19.488248 
L 90.453246 19.268957 
L 91.891127 18.59651 
L 92.016832 18.536535 
L 95.096599 17.050248 
L 95.229418 16.989101 
L 95.80566 16.742503 
L 96.796832 16.416834 
L 98.170172 16.011924 
L 98.468933 15.920288 
L 100.224306 15.392749 
L 100.377154 15.345675 
L 110.268839 12.665767 
L 110.982511 12.491205 
L 111.151884 12.441283 
L 113.00189 11.98042 
L 113.147658 11.943564 
L 114.624321 11.574505 
L 123.903837 9.367355 
L 124.78163 9.180731 
L 125.995278 8.914868 
L 126.152795 8.877175 
L 126.949814 8.706131 
L 128.374793 8.412291 
L 129.031592 8.276931 
L 129.313822 8.22215 
L 129.942237 8.094663 
L 132.00437 7.689753 
L 132.715972 7.555398 
L 133.416214 7.422215 
L 145.383356 5.583956 
L 159.667456 4.322656 
L 162.70538 4.15379 
L 162.826106 4.147759 
L 189.851513 3.593751 
L 239.320621 3.553713 
L 239.320621 3.553713 
" clip-path="url(#p485dedb10e)" style="fill: none; stroke-dasharray: 1.5,2.475; stroke-dashoffset: 0; stroke: #ff7f0e; stroke-width: 1.5"/>
   </g>
   <g id="line2d_18">
    <path d="M 48.010279 74.627893 
L 48.162707 74.508237 
L 48.30692 74.104848 
L 48.384935 73.863204 
L 48.551587 73.317287 
L 48.7178 72.824584 
L 50.743131 67.542873 
L 50.841338 67.321223 
L 51.024293 66.904064 
L 51.117823 66.699218 
L 51.440716 65.99887 
L 51.537296 65.78959 
L 51.954354 64.888208 
L 52.05929 64.653176 
L 52.186686 64.3766 
L 52.328398 64.074195 
L 52.653435 63.341015 
L 52.719307 63.194752 
L 52.869272 62.846756 
L 53.331594 61.894105 
L 53.465231 61.620796 
L 53.5565 61.441391 
L 53.740347 61.076046 
L 53.876602 60.808494 
L 53.946265 60.667989 
L 54.065875 60.439882 
L 54.133981 60.313614 
L 54.422382 59.758594 
L 54.902442 58.842197 
L 55.039299 58.589349 
L 55.257699 58.188061 
L 55.383078 57.966178 
L 55.694469 57.413881 
L 55.834799 57.16469 
L 55.970905 56.919934 
L 56.05226 56.779351 
L 56.226827 56.47251 
L 56.38592 56.197101 
L 56.647158 55.751234 
L 57.55904 54.221623 
L 57.639486 54.094811 
L 58.937264 52.058805 
L 59.110376 51.793821 
L 59.232416 51.603057 
L 59.434725 51.294739 
L 59.674649 50.934373 
L 59.846811 50.679736 
L 60.272759 50.034469 
L 60.508628 49.683672 
L 60.659446 49.466068 
L 60.907977 49.100178 
L 61.191376 48.688076 
L 61.319851 48.500269 
L 61.819605 47.777981 
L 61.968845 47.569401 
L 62.661088 46.59232 
L 62.846853 46.337839 
L 63.397522 45.59439 
L 63.499048 45.461431 
L 63.635956 45.277903 
L 63.808174 45.053452 
L 63.947663 44.867045 
L 64.088066 44.682505 
L 64.325134 44.381733 
L 64.432796 44.240528 
L 64.723937 43.877672 
L 64.912564 43.638517 
L 65.060172 43.454133 
L 65.20991 43.269204 
L 66.235885 41.999599 
L 66.373852 41.828752 
L 66.488516 41.690814 
L 66.638061 41.513898 
L 66.774058 41.345852 
L 67.170966 40.863108 
L 67.491134 40.484537 
L 67.64009 40.310733 
L 67.805543 40.112657 
L 67.928641 39.970595 
L 68.440602 39.384145 
L 68.788409 38.988847 
L 69.058501 38.684807 
L 69.175091 38.556594 
L 69.347204 38.367387 
L 69.607025 38.087621 
L 69.933896 37.724143 
L 70.113154 37.534468 
L 70.487051 37.134113 
L 70.702326 36.900793 
L 70.821628 36.768846 
L 71.092337 36.470797 
L 71.426062 36.119067 
L 71.623452 35.909709 
L 71.867651 35.654294 
L 72.28473 35.228266 
L 72.430476 35.087916 
L 72.582267 34.933485 
L 72.722278 34.790879 
L 73.104834 34.413864 
L 74.448496 33.101391 
L 74.59888 32.962286 
L 74.804233 32.771755 
L 75.054505 32.542559 
L 75.21311 32.397386 
L 75.371805 32.2484 
L 75.615922 32.022782 
L 75.808626 31.847267 
L 76.218676 31.482933 
L 76.355925 31.356432 
L 76.488257 31.23382 
L 76.66672 31.077522 
L 76.78658 30.968992 
L 83.717346 25.313455 
L 84.051128 25.074223 
L 84.189226 24.975184 
L 84.644144 24.651773 
L 84.92511 24.45743 
L 87.465365 22.649999 
L 87.700105 22.482886 
L 87.87058 22.35903 
L 88.297264 22.06207 
L 88.445209 21.962098 
L 93.26502 18.923183 
L 93.579983 18.735531 
L 93.716262 18.659521 
L 93.932154 18.530763 
L 94.10886 18.427991 
L 97.425222 16.698747 
L 97.840566 16.505727 
L 104.953684 13.421844 
L 105.362667 13.258232 
L 105.878912 13.054476 
L 106.301411 12.888764 
L 107.76001 12.336311 
L 109.952501 11.54486 
L 110.400325 11.390818 
L 110.569574 11.331612 
L 111.30482 11.0853 
L 111.428594 11.043989 
L 112.588769 10.677554 
L 117.292057 9.2697 
L 117.928435 9.09893 
L 118.142777 9.043615 
L 118.920954 8.832235 
L 119.226042 8.750156 
L 119.820682 8.595258 
L 121.19573 8.252397 
L 121.674022 8.137954 
L 122.422241 7.962984 
L 122.639316 7.911481 
L 123.439857 7.733243 
L 124.738039 7.454955 
L 126.168132 7.162974 
L 126.38623 7.120418 
L 127.499399 6.896201 
L 127.904447 6.81988 
L 131.733839 6.173835 
L 132.840573 6.015747 
L 133.047432 5.985872 
L 134.041574 5.838754 
L 136.47647 5.522033 
L 136.798817 5.482822 
L 138.68556 5.267708 
L 139.082573 5.227096 
L 141.096984 5.021395 
L 146.708751 4.564403 
L 167.531864 3.761203 
L 180.396622 3.619687 
L 195.283083 3.570129 
L 236.298997 3.553713 
L 236.298997 3.553713 
" clip-path="url(#p485dedb10e)" style="fill: none; stroke-dasharray: 5.55,2.4; stroke-dashoffset: 0; stroke: #2ca02c; stroke-width: 1.5"/>
   </g>
   <g id="line2d_19">
    <path d="M 48.013112 74.627838 
L 48.174622 74.50657 
L 48.397615 74.049563 
L 48.519741 73.789021 
L 48.633237 73.548867 
L 48.922545 72.966223 
L 49.19247 72.441697 
L 49.309383 72.239672 
L 49.542416 71.811128 
L 50.451038 70.238214 
L 50.574077 70.046912 
L 50.726355 69.807817 
L 50.870421 69.577593 
L 51.162118 69.107611 
L 51.603351 68.412569 
L 51.740437 68.195451 
L 51.854848 68.015931 
L 52.004435 67.784383 
L 52.176979 67.506101 
L 52.452348 67.07716 
L 52.688314 66.664107 
L 53.143759 65.9173 
L 53.413747 65.531518 
L 53.525993 65.368812 
L 53.68415 65.134351 
L 54.088572 64.551839 
L 54.217384 64.361861 
L 54.358756 64.16235 
L 54.506107 63.947748 
L 54.697757 63.685485 
L 58.162608 59.004605 
L 58.364205 58.747373 
L 58.4917 58.59592 
L 58.862041 58.120511 
L 58.995085 57.948405 
L 59.319014 57.542236 
L 59.452268 57.369336 
L 60.71428 55.7853 
L 60.833991 55.638084 
L 60.980002 55.462139 
L 61.150211 55.255612 
L 61.266676 55.109851 
L 61.530397 54.774642 
L 61.811563 54.430034 
L 62.031351 54.154267 
L 62.217848 53.931059 
L 62.351653 53.761469 
L 64.367927 51.300092 
L 64.517118 51.112364 
L 64.719954 50.867576 
L 65.265719 50.221518 
L 65.471331 49.975804 
L 65.836004 49.543421 
L 65.993207 49.358341 
L 72.020151 42.378393 
L 72.419 41.941906 
L 72.742885 41.594914 
L 72.949623 41.382695 
L 73.063745 41.265133 
L 73.419385 40.895768 
L 73.558473 40.760996 
L 73.695052 40.614441 
L 74.999453 39.324177 
L 75.17748 39.141216 
L 75.293436 39.035304 
L 75.4797 38.851416 
L 75.691324 38.655215 
L 76.069045 38.305179 
L 76.272714 38.114009 
L 76.397665 38.004788 
L 76.62527 37.803557 
L 76.919924 37.536793 
L 77.112263 37.3582 
L 82.515166 32.971356 
L 82.763799 32.796602 
L 82.889181 32.707637 
L 83.093564 32.553404 
L 83.340612 32.37534 
L 84.906597 31.225409 
L 85.049463 31.121748 
L 85.492874 30.80097 
L 85.714061 30.643559 
L 86.158402 30.327546 
L 86.471427 30.109634 
L 86.857074 29.835986 
L 87.271629 29.55638 
L 87.532427 29.375272 
L 87.68686 29.270287 
L 87.967987 29.083884 
L 88.082168 29.005906 
L 88.300048 28.852732 
L 89.772098 27.881526 
L 90.042257 27.705846 
L 90.181626 27.613041 
L 95.71997 24.173838 
L 96.015382 24.029799 
L 96.852386 23.623629 
L 96.992356 23.558097 
L 97.44924 23.346671 
L 97.561895 23.28842 
L 98.757843 22.737947 
L 99.152462 22.557633 
L 100.540344 21.925872 
L 100.682814 21.864179 
L 101.083973 21.678966 
L 101.267835 21.596223 
L 104.574666 20.106184 
L 104.696481 20.04608 
L 106.611573 19.170856 
L 107.161089 18.927922 
L 107.313839 18.85908 
L 107.703795 18.690416 
L 107.825521 18.639976 
L 109.340298 17.971146 
L 109.7731 17.789111 
L 110.305149 17.560608 
L 110.841967 17.325485 
L 111.278094 17.137625 
L 111.445399 17.065473 
L 111.86266 16.882511 
L 112.344061 16.671483 
L 112.469237 16.620645 
L 114.445417 15.805923 
L 114.563482 15.752703 
L 115.78386 15.248168 
L 115.946104 15.184092 
L 116.4022 14.997953 
L 117.577912 14.52678 
L 117.709951 14.470382 
L 118.941898 13.968628 
L 119.330153 13.827369 
L 119.703045 13.681079 
L 120.255083 13.465284 
L 120.376064 13.417095 
L 121.16461 13.123853 
L 121.426511 13.023105 
L 122.931954 12.473955 
L 123.348868 12.323826 
L 123.753808 12.17608 
L 123.894181 12.124713 
L 129.442235 10.280269 
L 129.898238 10.143378 
L 138.752078 7.753226 
L 139.373713 7.607863 
L 141.994464 7.056463 
L 142.127791 7.033294 
L 142.962172 6.867014 
L 148.413219 5.938569 
L 149.752159 5.743957 
L 150.508502 5.635001 
L 153.656209 5.241806 
L 157.261714 4.866218 
L 159.168247 4.695966 
L 159.376142 4.680344 
L 162.654132 4.429864 
L 171.835393 3.975107 
L 197.875853 3.586281 
L 255.998504 3.553713 
L 255.998504 3.553713 
" clip-path="url(#p485dedb10e)" style="fill: none; stroke-dasharray: 9.6,2.4,1.5,2.4; stroke-dashoffset: 0; stroke: #d62728; stroke-width: 1.5"/>
   </g>
   <g id="line2d_20">
    <path d="M 48.043259 74.626433 
L 48.1894 74.50804 
L 54.491003 65.290297 
L 54.649906 65.039672 
L 55.046461 64.484609 
L 55.161969 64.303176 
L 55.322724 64.07254 
L 55.469132 63.826528 
L 55.567331 63.674309 
L 56.219278 62.747153 
L 56.344952 62.582633 
L 56.654769 62.175176 
L 56.78631 61.964529 
L 56.92564 61.800009 
L 57.475195 61.031223 
L 57.953031 60.350078 
L 58.083956 60.190171 
L 58.360423 59.79809 
L 58.692767 59.346044 
L 58.902662 59.063131 
L 59.136161 58.763304 
L 59.684604 58.072935 
L 59.842246 57.868437 
L 59.983643 57.697767 
L 60.146964 57.485582 
L 63.395495 53.617051 
L 63.668074 53.291086 
L 63.788932 53.15578 
L 64.016858 52.906693 
L 64.265316 52.660682 
L 64.395764 52.511537 
L 64.831382 51.978 
L 64.967145 51.818092 
L 65.176148 51.55978 
L 65.335955 51.390647 
L 65.449646 51.24304 
L 66.04488 50.544983 
L 66.210903 50.37585 
L 67.357352 49.028937 
L 69.66923 46.544221 
L 69.828173 46.404302 
L 69.957204 46.249007 
L 70.528455 45.712395 
L 70.753369 45.469458 
L 71.119513 45.071227 
L 71.302603 44.897482 
L 71.480102 44.743724 
L 71.680015 44.526927 
L 71.796782 44.388545 
L 72.097936 44.071806 
L 72.348881 43.822719 
L 72.85021 43.333771 
L 73.018603 43.190777 
L 73.217109 42.997043 
L 73.900272 42.392777 
L 74.259052 42.092951 
L 74.441649 41.945344 
L 74.680333 41.776211 
L 74.988891 41.493298 
L 75.265474 41.268812 
L 75.528699 41.032026 
L 75.866738 40.742963 
L 76.002556 40.619957 
L 76.370107 40.355494 
L 77.543395 39.416038 
L 78.50866 38.670316 
L 78.628021 38.571911 
L 78.866165 38.38894 
L 79.171795 38.138316 
L 79.301392 38.047599 
L 79.991344 37.509449 
L 80.180248 37.367992 
L 80.885885 36.879045 
L 81.041823 36.759114 
L 81.21333 36.656097 
L 81.443582 36.471588 
L 81.568332 36.371646 
L 81.791321 36.217889 
L 81.90914 36.148698 
L 82.080217 36.022617 
L 83.124369 35.287658 
L 83.310336 35.141588 
L 85.507855 33.642456 
L 85.623021 33.559427 
L 87.84164 31.912688 
L 87.963107 31.823508 
L 89.06189 31.071636 
L 89.373743 30.868676 
L 89.731173 30.594988 
L 91.102432 29.581729 
L 91.274818 29.469486 
L 91.478829 29.284977 
L 91.726717 29.088168 
L 91.953169 28.919035 
L 92.073596 28.822168 
L 93.151545 28.021093 
L 93.32093 27.868874 
L 93.671946 27.581348 
L 93.942633 27.387614 
L 94.05568 27.298435 
L 94.316581 27.089325 
L 94.546555 26.897128 
L 94.751157 26.760284 
L 95.336697 26.297475 
L 95.844482 26.002261 
L 96.570699 25.670146 
L 96.687266 25.608643 
L 96.824409 25.550215 
L 97.213779 25.401071 
L 97.339229 25.354944 
L 102.291394 23.408378 
L 102.611432 23.265384 
L 102.727011 23.206956 
L 104.56272 22.485835 
L 104.913987 22.350528 
L 105.200108 22.218297 
L 105.630974 22.052239 
L 106.155347 21.864656 
L 109.819414 20.496217 
L 110.327336 20.310171 
L 110.736514 20.170252 
L 111.130956 19.97498 
L 111.555976 19.815072 
L 122.135192 15.95423 
L 122.271519 15.90349 
L 123.071891 15.589825 
L 123.232952 15.52986 
L 123.842219 15.294611 
L 124.398811 15.097802 
L 125.587528 14.67497 
L 126.105329 14.515062 
L 126.791352 14.287502 
L 127.10846 14.173721 
L 127.686211 13.969224 
L 127.840269 13.906184 
L 128.49468 13.698612 
L 128.864504 13.567918 
L 140.387511 10.105306 
L 140.942355 9.968463 
L 141.071308 9.928486 
L 141.549063 9.81163 
L 142.373988 9.614821 
L 142.508765 9.579457 
L 143.181625 9.416474 
L 143.302857 9.388798 
L 144.772057 9.065908 
L 144.874652 9.039769 
L 146.534795 8.646151 
L 147.828402 8.378613 
L 148.936085 8.137214 
L 149.050825 8.111076 
L 150.199192 7.88044 
L 150.429357 7.8297 
L 151.095465 7.695931 
L 159.720498 6.093782 
L 161.630957 5.84777 
L 162.042981 5.778579 
L 163.181963 5.63251 
L 163.277218 5.614059 
L 164.202959 5.48029 
L 165.490472 5.320383 
L 168.474538 5.026707 
L 169.04222 4.968279 
L 170.991258 4.806834 
L 173.293655 4.614637 
L 175.348134 4.456268 
L 175.90222 4.425516 
L 178.964873 4.265609 
L 201.204837 3.665956 
L 220.182084 3.558326 
L 225.414947 3.553713 
L 225.414947 3.553713 
" clip-path="url(#p485dedb10e)" style="fill: none; stroke: #9467bd; stroke-width: 1.5; stroke-linecap: square"/>
   </g>
   <g id="line2d_21">
    <path d="M 48.023664 74.62529 
L 48.147273 74.504675 
L 48.213702 74.274167 
L 48.710335 72.309487 
L 48.768947 72.135265 
L 49.487877 69.822142 
L 49.560098 69.63988 
L 49.787497 69.004642 
L 50.129284 68.098691 
L 50.262581 67.771691 
L 50.350775 67.592109 
L 51.273939 65.276306 
L 51.370951 65.072601 
L 51.485194 64.788486 
L 51.565574 64.608904 
L 51.707564 64.271183 
L 52.066253 63.34647 
L 52.194076 63.040912 
L 52.259522 62.896175 
L 52.446929 62.467322 
L 52.526314 62.303822 
L 52.991383 61.333543 
L 53.116842 61.027986 
L 53.301734 60.679543 
L 53.52713 60.15956 
L 53.835435 59.628855 
L 54.004493 59.360822 
L 54.145369 59.071347 
L 54.340176 58.682699 
L 54.554028 58.315494 
L 54.730209 57.937568 
L 54.832145 57.731183 
L 55.002899 57.417584 
L 55.250618 56.911002 
L 55.368602 56.688535 
L 55.511524 56.439265 
L 55.706833 56.07474 
L 55.964986 55.605683 
L 56.307536 54.943642 
L 57.065458 53.600797 
L 57.389403 53.032568 
L 57.483441 52.847625 
L 60.921025 47.476248 
L 61.041533 47.277903 
L 61.272577 46.940182 
L 61.427084 46.728436 
L 61.606729 46.505969 
L 68.203198 37.918198 
L 68.389968 37.733255 
L 68.52199 37.534911 
L 68.802344 37.213272 
L 68.957811 37.03637 
L 69.304582 36.674526 
L 69.495996 36.457419 
L 69.646623 36.312682 
L 69.87425 36.036608 
L 70.011676 35.905272 
L 70.163197 35.747132 
L 70.386431 35.465698 
L 70.624803 35.211067 
L 70.761378 35.052927 
L 70.888255 34.921591 
L 71.295644 34.527583 
L 71.428039 34.396247 
L 71.811758 34.004919 
L 71.953962 33.836059 
L 72.214 33.586788 
L 72.57694 33.251747 
L 72.69066 33.128452 
L 72.945011 32.884542 
L 73.114008 32.737124 
L 73.282795 32.573624 
L 73.425276 32.442288 
L 73.694786 32.171575 
L 73.813685 32.05364 
L 74.160768 31.753444 
L 74.364196 31.576542 
L 74.712897 31.23614 
L 74.926188 31.037796 
L 75.098813 30.885017 
L 75.258263 30.732239 
L 75.355344 30.622345 
L 75.53049 30.482968 
L 75.776476 30.260501 
L 75.925933 30.105042 
L 76.063128 29.968345 
L 76.464345 29.635985 
L 76.653693 29.485886 
L 77.163223 29.019509 
L 77.29172 28.94446 
L 77.483592 28.732714 
L 77.792768 28.475403 
L 78.317267 28.073353 
L 78.495961 27.899132 
L 80.803995 26.097952 
L 80.959512 25.971976 
L 81.177135 25.813837 
L 85.179034 23.106706 
L 85.438638 22.961968 
L 86.791199 22.098902 
L 87.04301 21.967566 
L 87.233604 21.83891 
L 87.578266 21.640566 
L 87.689722 21.568197 
L 91.903709 19.169304 
L 92.183025 19.011164 
L 92.321745 18.917353 
L 92.962903 18.584992 
L 94.572372 17.780894 
L 95.662558 17.228746 
L 95.816401 17.17782 
L 96.072138 17.051845 
L 96.331421 16.941951 
L 97.206585 16.625673 
L 97.529793 16.513099 
L 98.091859 16.301353 
L 98.681823 16.057443 
L 99.101277 15.920746 
L 99.252183 15.851058 
L 99.719409 15.709 
L 101.611376 15.095205 
L 101.751777 15.022836 
L 102.335815 14.827172 
L 105.928039 13.594222 
L 107.087885 13.264541 
L 107.242929 13.224336 
L 109.185655 12.666828 
L 109.787824 12.51941 
L 110.075369 12.457762 
L 110.993447 12.136123 
L 111.164895 12.093238 
L 111.748537 11.956541 
L 111.999067 11.900254 
L 113.206221 11.602738 
L 113.540469 11.516967 
L 114.030723 11.361508 
L 114.181047 11.313262 
L 114.824704 11.165844 
L 115.326536 11.05059 
L 119.353531 10.06691 
L 120.15432 9.916812 
L 121.67539 9.616615 
L 122.089846 9.490639 
L 123.883336 9.120754 
L 129.166013 8.163877 
L 129.970441 8.019139 
L 131.527967 7.764508 
L 132.657417 7.560803 
L 132.825086 7.528639 
L 133.772393 7.378541 
L 134.218608 7.303492 
L 137.112932 6.920205 
L 138.230539 6.812992 
L 139.923268 6.625369 
L 141.340583 6.416303 
L 142.732205 6.268885 
L 143.368945 6.199197 
L 162.505254 4.518631 
L 170.147488 4.148746 
L 172.836698 4.038852 
L 177.673536 3.867311 
L 180.04691 3.824426 
L 188.543165 3.671647 
L 195.036979 3.604639 
L 223.580016 3.553713 
L 223.580016 3.553713 
" clip-path="url(#p485dedb10e)" style="fill: none; stroke-dasharray: 1.5,2.475; stroke-dashoffset: 0; stroke: #8c564b; stroke-width: 1.5"/>
   </g>
   <g id="line2d_22">
    <path d="M 47.968587 74.627304 
L 48.12446 74.514106 
L 48.730295 70.151953 
L 48.818184 69.594615 
L 49.00544 68.27951 
L 49.427169 65.728539 
L 49.670278 64.452721 
L 49.781543 63.963968 
L 49.96273 63.130292 
L 50.082013 62.634214 
L 50.225288 62.042251 
L 50.284763 61.808528 
L 50.413365 61.225887 
L 50.535676 60.645243 
L 50.733258 59.966716 
L 50.86879 59.513254 
L 51.152047 58.531087 
L 51.234464 58.27872 
L 51.364312 57.877863 
L 51.442782 57.652131 
L 51.766595 56.730559 
L 52.182203 55.504016 
L 52.247925 55.322897 
L 52.464837 54.76223 
L 52.570414 54.491884 
L 52.703468 54.093691 
L 52.760765 53.919897 
L 52.876875 53.590288 
L 53.421025 52.229904 
L 53.574114 51.868333 
L 53.720321 51.538725 
L 54.069835 50.778295 
L 54.157921 50.612492 
L 54.430813 50.023857 
L 54.983939 48.849252 
L 55.10662 48.585565 
L 55.409449 47.954315 
L 55.53079 47.715932 
L 57.763824 43.625456 
L 57.896933 43.412376 
L 58.023932 43.211947 
L 58.135382 43.020841 
L 58.252718 42.815751 
L 58.441446 42.535417 
L 58.559923 42.344311 
L 58.901295 41.786973 
L 59.0218 41.596532 
L 59.111416 41.466021 
L 59.23405 41.270919 
L 59.585058 40.711583 
L 59.699886 40.538456 
L 59.884138 40.227492 
L 60.037931 40.003757 
L 60.151734 39.8273 
L 60.291409 39.624208 
L 60.445017 39.367846 
L 61.201245 38.178592 
L 61.319249 37.993478 
L 61.408872 37.863632 
L 61.509489 37.719137 
L 61.624052 37.548007 
L 63.123386 35.340629 
L 63.230628 35.195468 
L 63.563257 34.695395 
L 63.664675 34.552232 
L 63.798829 34.353135 
L 63.956558 34.137391 
L 64.259151 33.72588 
L 64.517544 33.3723 
L 64.688703 33.13658 
L 64.815364 32.971442 
L 65.129062 32.56659 
L 65.36447 32.273605 
L 65.480335 32.136434 
L 66.002703 31.4912 
L 66.44085 30.949177 
L 66.588152 30.768725 
L 67.287803 29.889103 
L 68.505287 28.49942 
L 68.90719 28.06194 
L 69.079432 27.866838 
L 69.854639 27.03982 
L 70.148095 26.732852 
L 70.263184 26.619653 
L 70.415438 26.475823 
L 71.001547 25.867213 
L 71.533907 25.349827 
L 71.667047 25.22664 
L 71.916872 24.993584 
L 72.028674 24.875724 
L 76.011036 21.600946 
L 76.313662 21.394525 
L 77.855855 20.38772 
L 77.982318 20.303154 
L 78.258238 20.133356 
L 79.320403 19.454828 
L 79.616563 19.301011 
L 79.893768 19.134542 
L 80.012182 19.070618 
L 80.267536 18.922794 
L 81.126137 18.473327 
L 81.275695 18.390759 
L 81.58504 18.238939 
L 84.178402 17.040363 
L 84.530185 16.878555 
L 84.641654 16.831943 
L 85.148226 16.606211 
L 85.258769 16.556937 
L 85.743939 16.360503 
L 86.085278 16.188707 
L 87.355117 15.640026 
L 87.753755 15.485542 
L 95.92499 12.734143 
L 96.649868 12.565677 
L 96.834044 12.530385 
L 97.844305 12.304653 
L 98.01133 12.27136 
L 98.935407 12.052286 
L 100.503028 11.706697 
L 101.38744 11.52691 
L 102.14114 11.371095 
L 114.58607 9.087807 
L 115.906779 8.870066 
L 117.045594 8.688947 
L 118.046798 8.539791 
L 118.161392 8.516486 
L 125.634433 7.369182 
L 126.563171 7.23534 
L 129.034497 6.898407 
L 129.146497 6.883758 
L 130.376595 6.717289 
L 130.942872 6.652033 
L 136.794338 5.946205 
L 137.322745 5.883613 
L 138.897656 5.713148 
L 139.429956 5.674527 
L 149.738523 4.786915 
L 151.98211 4.643752 
L 153.068356 4.583157 
L 155.861072 4.428674 
L 157.181306 4.355427 
L 169.39742 3.888648 
L 178.889327 3.694213 
L 179.216004 3.687554 
L 199.322176 3.564367 
L 226.778227 3.553713 
L 226.778227 3.553713 
" clip-path="url(#p485dedb10e)" style="fill: none; stroke-dasharray: 5.55,2.4; stroke-dashoffset: 0; stroke: #e377c2; stroke-width: 1.5"/>
   </g>
   <g id="patch_3">
    <path d="M 37.567091 78.181683 
L 37.567091 0 
" style="fill: none; stroke: #000000; stroke-width: 0.8; stroke-linejoin: miter; stroke-linecap: square"/>
   </g>
   <g id="patch_4">
    <path d="M 266.4 78.181683 
L 266.4 0 
" style="fill: none; stroke: #000000; stroke-width: 0.8; stroke-linejoin: miter; stroke-linecap: square"/>
   </g>
   <g id="patch_5">
    <path d="M 37.567091 78.181683 
L 266.4 78.181683 
" style="fill: none; stroke: #000000; stroke-width: 0.8; stroke-linejoin: miter; stroke-linecap: square"/>
   </g>
   <g id="patch_6">
    <path d="M 37.567091 0 
L 266.4 0 
" style="fill: none; stroke: #000000; stroke-width: 0.8; stroke-linejoin: miter; stroke-linecap: square"/>
   </g>
   <g id="legend_1">
    <g id="patch_7">
     <path d="M 144.156082 74.016683 
L 262.235 74.016683 
L 262.235 36.074606 
L 144.156082 36.074606 
z
" style="fill: #ffffff; opacity: 0.8; stroke: #000000; stroke-linejoin: miter"/>
    </g>
    <g id="line2d_23">
     <path d="M 147.488082 42.322106 
L 151.653082 42.322106 
L 155.818082 42.322106 
" style="fill: none; stroke: #9467bd; stroke-width: 1.5; stroke-linecap: square"/>
    </g>
    <g id="text_13">
     <!-- Dublin -->
     <g transform="translate(158.317082 45.237606) scale(0.0833 -0.0833)">
      <use xlink:href="#CMR17-44" transform="scale(0.996264)"/>
      <use xlink:href="#CMR17-75" transform="translate(70.393556 0) scale(0.996264)"/>
      <use xlink:href="#CMR17-62" transform="translate(121.288926 0) scale(0.996264)"/>
      <use xlink:href="#CMR17-6c" transform="translate(172.184295 0) scale(0.996264)"/>
      <use xlink:href="#CMR17-69" transform="translate(197.055354 0) scale(0.996264)"/>
      <use xlink:href="#CMR17-6e" transform="translate(221.926412 0) scale(0.996264)"/>
     </g>
    </g>
    <g id="line2d_24">
     <path d="M 147.488082 50.266576 
L 151.653082 50.266576 
L 155.818082 50.266576 
" style="fill: none; stroke-dasharray: 1.5,2.475; stroke-dashoffset: 0; stroke: #8c564b; stroke-width: 1.5"/>
    </g>
    <g id="text_14">
     <!-- Lagos -->
     <g transform="translate(158.317082 53.182076) scale(0.0833 -0.0833)">
      <defs>
       <path id="CMR17-4c" d="M 3469 1615 
L 3354 1615 
C 3302 983 3219 166 2125 166 
L 1530 166 
C 1274 166 1261 197 1261 414 
L 1261 3898 
C 1261 4129 1274 4192 1760 4192 
L 1901 4192 
L 1901 4352 
C 1638 4352 1331 4352 1069 4352 
C 870 4352 512 4352 326 4352 
L 326 4192 
C 768 4192 838 4192 838 3905 
L 838 452 
C 838 166 768 166 326 166 
L 326 0 
L 3315 0 
L 3469 1615 
z
" transform="scale(0.015625)"/>
      </defs>
      <use xlink:href="#CMR17-4c" transform="scale(0.996264)"/>
      <use xlink:href="#CMR17-61" transform="translate(57.381408 0) scale(0.996264)"/>
      <use xlink:href="#CMR17-67" transform="translate(103.071885 0) scale(0.996264)"/>
      <use xlink:href="#CMR17-6f" transform="translate(148.762362 0) scale(0.996264)"/>
      <use xlink:href="#CMR17-73" transform="translate(194.452839 0) scale(0.996264)"/>
     </g>
    </g>
    <g id="line2d_25">
     <path d="M 147.488082 58.211045 
L 151.653082 58.211045 
L 155.818082 58.211045 
" style="fill: none; stroke-dasharray: 5.55,2.4; stroke-dashoffset: 0; stroke: #e377c2; stroke-width: 1.5"/>
    </g>
    <g id="text_15">
     <!-- Manila -->
     <g transform="translate(158.317082 61.126545) scale(0.0833 -0.0833)">
      <use xlink:href="#CMR17-4d" transform="scale(0.996264)"/>
      <use xlink:href="#CMR17-61" transform="translate(84.686941 0) scale(0.996264)"/>
      <use xlink:href="#CMR17-6e" transform="translate(130.377418 0) scale(0.996264)"/>
      <use xlink:href="#CMR17-69" transform="translate(181.272787 0) scale(0.996264)"/>
      <use xlink:href="#CMR17-6c" transform="translate(206.143846 0) scale(0.996264)"/>
      <use xlink:href="#CMR17-61" transform="translate(231.014904 0) scale(0.996264)"/>
     </g>
    </g>
    <g id="line2d_26">
     <path d="M 147.488082 66.155514 
L 151.653082 66.155514 
L 155.818082 66.155514 
" style="fill: none; stroke: #1f77b4; stroke-width: 1.5; stroke-linecap: square"/>
    </g>
    <g id="text_16">
     <!-- Mexico City -->
     <g transform="translate(158.317082 69.071014) scale(0.0833 -0.0833)">
      <defs>
       <path id="CMR17-78" d="M 1664 1477 
C 1856 1726 2074 2006 2253 2216 
C 2464 2458 2707 2560 2989 2560 
L 2989 2726 
C 2880 2726 2656 2726 2541 2726 
C 2368 2726 2170 2726 2022 2732 
L 2022 2566 
C 2112 2553 2163 2489 2163 2400 
C 2163 2285 2099 2215 2067 2171 
L 1594 1573 
L 1030 2306 
C 973 2376 973 2388 973 2420 
C 973 2497 1037 2560 1146 2560 
L 1146 2732 
C 992 2726 717 2726 557 2726 
C 384 2726 179 2726 38 2732 
L 38 2560 
C 384 2560 461 2534 614 2343 
L 1350 1395 
C 1363 1382 1395 1344 1395 1325 
C 1395 1299 838 619 768 530 
C 480 185 179 160 6 160 
L 6 0 
C 115 0 339 0 454 0 
C 582 0 864 0 979 -6 
L 979 160 
C 941 166 838 179 838 325 
C 838 440 890 510 947 586 
L 1478 1236 
L 2035 512 
C 2086 442 2163 346 2163 301 
C 2163 211 2086 160 1984 160 
L 1984 -6 
C 2138 0 2413 0 2573 0 
C 2746 0 2950 0 3091 -6 
L 3091 160 
C 2771 160 2675 172 2522 370 
L 1664 1477 
z
" transform="scale(0.015625)"/>
       <path id="CMR17-43" d="M 3974 4289 
C 3974 4403 3968 4410 3930 4410 
C 3904 4410 3898 4403 3853 4327 
L 3571 3792 
C 3258 4187 2874 4416 2381 4416 
C 1286 4416 294 3456 294 2148 
C 294 826 1286 -128 2387 -128 
C 3366 -128 3974 730 3974 1461 
C 3974 1524 3974 1550 3917 1550 
C 3866 1550 3866 1531 3859 1474 
C 3808 585 3168 38 2477 38 
C 1824 38 781 495 781 2147 
C 781 3805 1843 4250 2464 4250 
C 3187 4250 3712 3628 3834 2745 
C 3846 2668 3846 2655 3904 2655 
C 3974 2655 3974 2668 3974 2783 
L 3974 4289 
z
" transform="scale(0.015625)"/>
       <path id="CMR17-79" d="M 2496 2197 
C 2656 2586 2944 2586 3034 2586 
L 3034 2752 
C 2912 2752 2752 2752 2630 2752 
C 2496 2752 2285 2752 2157 2758 
L 2157 2592 
C 2400 2573 2406 2394 2406 2343 
C 2406 2280 2394 2248 2362 2171 
L 1664 449 
L 902 2306 
C 870 2382 870 2426 870 2433 
C 870 2573 1018 2586 1171 2586 
L 1171 2758 
C 1018 2752 742 2752 582 2752 
C 410 2752 205 2752 64 2758 
L 64 2586 
C 410 2586 448 2554 531 2350 
L 1485 15 
C 1197 -738 1030 -1178 627 -1178 
C 557 -1178 397 -1159 282 -1044 
C 429 -1031 493 -942 493 -833 
C 493 -725 416 -629 288 -629 
C 147 -629 77 -725 77 -840 
C 77 -1095 339 -1280 627 -1280 
C 998 -1280 1229 -922 1357 -604 
L 2496 2197 
z
" transform="scale(0.015625)"/>
      </defs>
      <use xlink:href="#CMR17-4d" transform="scale(0.996264)"/>
      <use xlink:href="#CMR17-65" transform="translate(84.686941 0) scale(0.996264)"/>
      <use xlink:href="#CMR17-78" transform="translate(125.172601 0) scale(0.996264)"/>
      <use xlink:href="#CMR17-69" transform="translate(173.465517 0) scale(0.996264)"/>
      <use xlink:href="#CMR17-63" transform="translate(198.336575 0) scale(0.996264)"/>
      <use xlink:href="#CMR17-6f" transform="translate(238.822236 0) scale(0.996264)"/>
      <use xlink:href="#CMR17-43" transform="translate(314.588679 0) scale(0.996264)"/>
      <use xlink:href="#CMR17-69" transform="translate(381.09856 0) scale(0.996264)"/>
      <use xlink:href="#CMR17-74" transform="translate(405.969618 0) scale(0.996264)"/>
      <use xlink:href="#CMR17-79" transform="translate(438.647932 0) scale(0.996264)"/>
     </g>
    </g>
    <g id="line2d_27">
     <path d="M 209.500997 42.322106 
L 213.665997 42.322106 
L 217.830997 42.322106 
" style="fill: none; stroke-dasharray: 5.55,2.4; stroke-dashoffset: 0; stroke: #2ca02c; stroke-width: 1.5"/>
    </g>
    <g id="text_17">
     <!-- Seattle -->
     <g transform="translate(220.329997 45.237606) scale(0.0833 -0.0833)">
      <defs>
       <path id="CMR17-53" d="M 2803 4290 
C 2803 4404 2797 4411 2758 4411 
C 2720 4411 2707 4385 2682 4328 
L 2490 3907 
C 2246 4257 1875 4416 1472 4416 
C 819 4416 294 3901 294 3253 
C 294 3056 339 2776 557 2510 
C 794 2218 1018 2167 1530 2033 
C 1722 1982 2042 1899 2106 1874 
C 2470 1722 2662 1341 2662 985 
C 2662 527 2336 38 1779 38 
C 1094 38 454 419 410 1311 
C 403 1413 397 1419 352 1419 
C 301 1419 294 1413 294 1285 
L 294 -1 
C 294 -115 301 -122 339 -122 
C 384 -122 397 -90 486 108 
C 493 127 493 140 614 381 
C 934 -39 1472 -128 1779 -128 
C 2477 -128 2970 451 2970 1124 
C 2970 1454 2848 1708 2778 1823 
C 2509 2230 2221 2306 1914 2382 
C 1869 2402 1856 2402 1498 2490 
C 1152 2579 1005 2624 845 2796 
C 666 2992 602 3196 602 3399 
C 602 3812 934 4263 1478 4263 
C 2157 4263 2579 3786 2675 2993 
C 2694 2878 2701 2872 2746 2872 
C 2803 2872 2803 2891 2803 2999 
L 2803 4290 
z
" transform="scale(0.015625)"/>
      </defs>
      <use xlink:href="#CMR17-53" transform="scale(0.996264)"/>
      <use xlink:href="#CMR17-65" transform="translate(50.89537 0) scale(0.996264)"/>
      <use xlink:href="#CMR17-61" transform="translate(91.38103 0) scale(0.996264)"/>
      <use xlink:href="#CMR17-74" transform="translate(137.071507 0) scale(0.996264)"/>
      <use xlink:href="#CMR17-74" transform="translate(172.352275 0) scale(0.996264)"/>
      <use xlink:href="#CMR17-6c" transform="translate(207.633043 0) scale(0.996264)"/>
      <use xlink:href="#CMR17-65" transform="translate(232.504101 0) scale(0.996264)"/>
     </g>
    </g>
    <g id="line2d_28">
     <path d="M 209.500997 50.266576 
L 213.665997 50.266576 
L 217.830997 50.266576 
" style="fill: none; stroke-dasharray: 9.6,2.4,1.5,2.4; stroke-dashoffset: 0; stroke: #d62728; stroke-width: 1.5"/>
    </g>
    <g id="text_18">
     <!-- Sydney -->
     <g transform="translate(220.329997 53.182076) scale(0.0833 -0.0833)">
      <use xlink:href="#CMR17-53" transform="scale(0.996264)"/>
      <use xlink:href="#CMR17-79" transform="translate(50.89537 0) scale(0.996264)"/>
      <use xlink:href="#CMR17-64" transform="translate(99.188286 0) scale(0.996264)"/>
      <use xlink:href="#CMR17-6e" transform="translate(150.083655 0) scale(0.996264)"/>
      <use xlink:href="#CMR17-65" transform="translate(200.979025 0) scale(0.996264)"/>
      <use xlink:href="#CMR17-79" transform="translate(241.464686 0) scale(0.996264)"/>
     </g>
    </g>
    <g id="line2d_29">
     <path d="M 209.500997 58.211045 
L 213.665997 58.211045 
L 217.830997 58.211045 
" style="fill: none; stroke-dasharray: 1.5,2.475; stroke-dashoffset: 0; stroke: #ff7f0e; stroke-width: 1.5"/>
    </g>
    <g id="text_19">
     <!-- So Paulo -->
     <g transform="translate(220.329997 61.126545) scale(0.0833 -0.0833)">
      <defs>
       <path id="CMR17-7e" d="M 2400 4184 
C 2182 3980 2061 3865 1862 3865 
C 1722 3865 1626 3932 1491 4024 
C 1363 4111 1261 4184 1120 4184 
C 890 4184 730 4004 461 3718 
L 531 3648 
C 749 3850 870 3968 1069 3968 
C 1210 3968 1306 3900 1440 3808 
C 1568 3722 1670 3648 1811 3648 
C 2042 3648 2202 3828 2470 4114 
L 2400 4184 
z
" transform="scale(0.015625)"/>
      </defs>
      <use xlink:href="#CMR17-53" transform="scale(0.996264)"/>
      <use xlink:href="#CMR17-7e" transform="translate(50.89537 0) scale(0.996264)"/>
      <use xlink:href="#CMR17-61" transform="translate(50.89537 0) scale(0.996264)"/>
      <use xlink:href="#CMR17-6f" transform="translate(96.585847 0) scale(0.996264)"/>
      <use xlink:href="#CMR17-50" transform="translate(172.35229 0) scale(0.996264)"/>
      <use xlink:href="#CMR17-61" transform="translate(232.336137 0) scale(0.996264)"/>
      <use xlink:href="#CMR17-75" transform="translate(278.026614 0) scale(0.996264)"/>
      <use xlink:href="#CMR17-6c" transform="translate(328.921984 0) scale(0.996264)"/>
      <use xlink:href="#CMR17-6f" transform="translate(353.793042 0) scale(0.996264)"/>
     </g>
    </g>
   </g>
  </g>
 </g>
 <defs>
  <clipPath id="p485dedb10e">
   <rect x="37.567091" y="0" width="228.832909" height="78.181683"/>
  </clipPath>
 </defs>
</svg>
