<?xml version="1.0" encoding="utf-8" standalone="no"?>
<!DOCTYPE svg PUBLIC "-//W3C//DTD SVG 1.1//EN"
  "http://www.w3.org/Graphics/SVG/1.1/DTD/svg11.dtd">
<svg xmlns:xlink="http://www.w3.org/1999/xlink" width="266.4pt" height="108pt" viewBox="0 0 266.4 108" xmlns="http://www.w3.org/2000/svg" version="1.1">
 <metadata>
  <rdf:RDF xmlns:dc="http://purl.org/dc/elements/1.1/" xmlns:cc="http://creativecommons.org/ns#" xmlns:rdf="http://www.w3.org/1999/02/22-rdf-syntax-ns#">
   <cc:Work>
    <dc:type rdf:resource="http://purl.org/dc/dcmitype/StillImage"/>
    <dc:date>2023-10-11T12:36:13.308036</dc:date>
    <dc:format>image/svg+xml</dc:format>
    <dc:creator>
     <cc:Agent>
      <dc:title>Matplotlib v3.7.0, https://matplotlib.org/</dc:title>
     </cc:Agent>
    </dc:creator>
   </cc:Work>
  </rdf:RDF>
 </metadata>
 <defs>
  <style type="text/css">*{stroke-linejoin: round; stroke-linecap: butt}</style>
 </defs>
 <g id="figure_1">
  <g id="patch_1">
   <path d="M 0 108 
L 266.4 108 
L 266.4 0 
L 0 0 
z
" style="fill: #ffffff"/>
  </g>
  <g id="axes_1">
   <g id="patch_2">
    <path d="M 37.567091 78.181683 
L 266.4 78.181683 
L 266.4 0 
L 37.567091 0 
z
" style="fill: #ffffff"/>
   </g>
   <g id="matplotlib.axis_1">
    <g id="xtick_1">
     <g id="line2d_1">
      <defs>
       <path id="m4fb8dd8d61" d="M 0 0 
L 0 3.5 
" style="stroke: #000000; stroke-width: 0.8"/>
      </defs>
      <g>
       <use xlink:href="#m4fb8dd8d61" x="41.581703" y="78.181683" style="stroke: #000000; stroke-width: 0.8"/>
      </g>
     </g>
     <g id="text_1">
      <!-- 0.00 -->
      <g transform="translate(32.725996 92.100182) scale(0.1 -0.1)">
       <defs>
        <path id="CMR17-30" d="M 2688 2025 
C 2688 2416 2682 3080 2413 3591 
C 2176 4039 1798 4198 1466 4198 
C 1158 4198 768 4058 525 3597 
C 269 3118 243 2524 243 2025 
C 243 1661 250 1106 448 619 
C 723 -39 1216 -128 1466 -128 
C 1760 -128 2208 -7 2470 600 
C 2662 1042 2688 1559 2688 2025 
z
M 1466 -26 
C 1056 -26 813 325 723 812 
C 653 1188 653 1738 653 2096 
C 653 2588 653 2997 736 3387 
C 858 3929 1216 4096 1466 4096 
C 1728 4096 2067 3923 2189 3400 
C 2272 3036 2278 2607 2278 2096 
C 2278 1680 2278 1169 2202 792 
C 2067 95 1690 -26 1466 -26 
z
" transform="scale(0.015625)"/>
        <path id="CMR17-2e" d="M 1062 261 
C 1062 420 934 522 800 522 
C 672 522 538 420 538 261 
C 538 102 666 0 800 0 
C 928 0 1062 102 1062 261 
z
" transform="scale(0.015625)"/>
       </defs>
       <use xlink:href="#CMR17-30" transform="scale(0.996264)"/>
       <use xlink:href="#CMR17-2e" transform="translate(45.690477 0) scale(0.996264)"/>
       <use xlink:href="#CMR17-30" transform="translate(70.561536 0) scale(0.996264)"/>
       <use xlink:href="#CMR17-30" transform="translate(116.252013 0) scale(0.996264)"/>
      </g>
     </g>
    </g>
    <g id="xtick_2">
     <g id="line2d_2">
      <g>
       <use xlink:href="#m4fb8dd8d61" x="81.727828" y="78.181683" style="stroke: #000000; stroke-width: 0.8"/>
      </g>
     </g>
     <g id="text_2">
      <!-- 0.05 -->
      <g transform="translate(72.872121 92.100182) scale(0.1 -0.1)">
       <defs>
        <path id="CMR17-35" d="M 730 3692 
C 794 3666 1056 3584 1325 3584 
C 1920 3584 2246 3911 2432 4100 
C 2432 4157 2432 4192 2394 4192 
C 2387 4192 2374 4192 2323 4163 
C 2099 4058 1837 3973 1517 3973 
C 1325 3973 1037 3999 723 4139 
C 653 4171 640 4171 634 4171 
C 602 4171 595 4164 595 4037 
L 595 2203 
C 595 2089 595 2057 659 2057 
C 691 2057 704 2070 736 2114 
C 941 2401 1222 2522 1542 2522 
C 1766 2522 2246 2382 2246 1289 
C 2246 1085 2246 715 2054 421 
C 1894 159 1645 25 1370 25 
C 947 25 518 320 403 814 
C 429 807 480 795 506 795 
C 589 795 749 840 749 1038 
C 749 1210 627 1280 506 1280 
C 358 1280 262 1190 262 1011 
C 262 454 704 -128 1382 -128 
C 2042 -128 2669 440 2669 1264 
C 2669 2030 2170 2624 1549 2624 
C 1222 2624 947 2503 730 2274 
L 730 3692 
z
" transform="scale(0.015625)"/>
       </defs>
       <use xlink:href="#CMR17-30" transform="scale(0.996264)"/>
       <use xlink:href="#CMR17-2e" transform="translate(45.690477 0) scale(0.996264)"/>
       <use xlink:href="#CMR17-30" transform="translate(70.561536 0) scale(0.996264)"/>
       <use xlink:href="#CMR17-35" transform="translate(116.252013 0) scale(0.996264)"/>
      </g>
     </g>
    </g>
    <g id="xtick_3">
     <g id="line2d_3">
      <g>
       <use xlink:href="#m4fb8dd8d61" x="121.873952" y="78.181683" style="stroke: #000000; stroke-width: 0.8"/>
      </g>
     </g>
     <g id="text_3">
      <!-- 0.10 -->
      <g transform="translate(113.018245 92.100182) scale(0.1 -0.1)">
       <defs>
        <path id="CMR17-31" d="M 1702 4058 
C 1702 4192 1696 4192 1606 4192 
C 1357 3916 979 3827 621 3827 
C 602 3827 570 3827 563 3808 
C 557 3795 557 3782 557 3648 
C 755 3648 1088 3686 1344 3839 
L 1344 461 
C 1344 236 1331 160 781 160 
L 589 160 
L 589 0 
C 896 0 1216 0 1523 0 
C 1830 0 2150 0 2458 0 
L 2458 160 
L 2266 160 
C 1715 160 1702 230 1702 458 
L 1702 4058 
z
" transform="scale(0.015625)"/>
       </defs>
       <use xlink:href="#CMR17-30" transform="scale(0.996264)"/>
       <use xlink:href="#CMR17-2e" transform="translate(45.690477 0) scale(0.996264)"/>
       <use xlink:href="#CMR17-31" transform="translate(70.561536 0) scale(0.996264)"/>
       <use xlink:href="#CMR17-30" transform="translate(116.252013 0) scale(0.996264)"/>
      </g>
     </g>
    </g>
    <g id="xtick_4">
     <g id="line2d_4">
      <g>
       <use xlink:href="#m4fb8dd8d61" x="162.020077" y="78.181683" style="stroke: #000000; stroke-width: 0.8"/>
      </g>
     </g>
     <g id="text_4">
      <!-- 0.15 -->
      <g transform="translate(153.164369 92.100182) scale(0.1 -0.1)">
       <use xlink:href="#CMR17-30" transform="scale(0.996264)"/>
       <use xlink:href="#CMR17-2e" transform="translate(45.690477 0) scale(0.996264)"/>
       <use xlink:href="#CMR17-31" transform="translate(70.561536 0) scale(0.996264)"/>
       <use xlink:href="#CMR17-35" transform="translate(116.252013 0) scale(0.996264)"/>
      </g>
     </g>
    </g>
    <g id="xtick_5">
     <g id="line2d_5">
      <g>
       <use xlink:href="#m4fb8dd8d61" x="202.166201" y="78.181683" style="stroke: #000000; stroke-width: 0.8"/>
      </g>
     </g>
     <g id="text_5">
      <!-- 0.20 -->
      <g transform="translate(193.310494 92.100182) scale(0.1 -0.1)">
       <defs>
        <path id="CMR17-32" d="M 2669 989 
L 2554 989 
C 2490 536 2438 459 2413 420 
C 2381 369 1920 369 1830 369 
L 602 369 
C 832 619 1280 1072 1824 1597 
C 2214 1967 2669 2402 2669 3035 
C 2669 3790 2067 4224 1395 4224 
C 691 4224 262 3604 262 3030 
C 262 2780 448 2748 525 2748 
C 589 2748 781 2787 781 3010 
C 781 3207 614 3264 525 3264 
C 486 3264 448 3258 422 3245 
C 544 3790 915 4058 1306 4058 
C 1862 4058 2227 3617 2227 3035 
C 2227 2479 1901 2000 1536 1584 
L 262 146 
L 262 0 
L 2515 0 
L 2669 989 
z
" transform="scale(0.015625)"/>
       </defs>
       <use xlink:href="#CMR17-30" transform="scale(0.996264)"/>
       <use xlink:href="#CMR17-2e" transform="translate(45.690477 0) scale(0.996264)"/>
       <use xlink:href="#CMR17-32" transform="translate(70.561536 0) scale(0.996264)"/>
       <use xlink:href="#CMR17-30" transform="translate(116.252013 0) scale(0.996264)"/>
      </g>
     </g>
    </g>
    <g id="xtick_6">
     <g id="line2d_6">
      <g>
       <use xlink:href="#m4fb8dd8d61" x="242.312325" y="78.181683" style="stroke: #000000; stroke-width: 0.8"/>
      </g>
     </g>
     <g id="text_6">
      <!-- 0.25 -->
      <g transform="translate(233.456618 92.100182) scale(0.1 -0.1)">
       <use xlink:href="#CMR17-30" transform="scale(0.996264)"/>
       <use xlink:href="#CMR17-2e" transform="translate(45.690477 0) scale(0.996264)"/>
       <use xlink:href="#CMR17-32" transform="translate(70.561536 0) scale(0.996264)"/>
       <use xlink:href="#CMR17-35" transform="translate(116.252013 0) scale(0.996264)"/>
      </g>
     </g>
    </g>
    <g id="text_7">
     <!-- Loss Rate Download [0-1] -->
     <g transform="translate(96.095812 105.50934) scale(0.1 -0.1)">
      <defs>
       <path id="CMR17-4c" d="M 3469 1615 
L 3354 1615 
C 3302 983 3219 166 2125 166 
L 1530 166 
C 1274 166 1261 197 1261 414 
L 1261 3898 
C 1261 4129 1274 4192 1760 4192 
L 1901 4192 
L 1901 4352 
C 1638 4352 1331 4352 1069 4352 
C 870 4352 512 4352 326 4352 
L 326 4192 
C 768 4192 838 4192 838 3905 
L 838 452 
C 838 166 768 166 326 166 
L 326 0 
L 3315 0 
L 3469 1615 
z
" transform="scale(0.015625)"/>
       <path id="CMR17-6f" d="M 2758 1356 
C 2758 2176 2163 2816 1466 2816 
C 768 2816 173 2176 173 1356 
C 173 551 768 -64 1466 -64 
C 2163 -64 2758 551 2758 1356 
z
M 1466 51 
C 1165 51 909 230 762 480 
C 602 767 582 1126 582 1408 
C 582 1677 595 2010 762 2298 
C 890 2509 1139 2714 1466 2714 
C 1754 2714 1997 2554 2150 2330 
C 2349 2029 2349 1607 2349 1408 
C 2349 1158 2336 775 2163 467 
C 1984 173 1709 51 1466 51 
z
" transform="scale(0.015625)"/>
       <path id="CMR17-73" d="M 1978 2697 
C 1978 2813 1971 2819 1933 2819 
C 1907 2819 1901 2813 1824 2717 
C 1805 2691 1747 2626 1728 2601 
C 1523 2819 1235 2819 1126 2819 
C 416 2819 160 2447 160 2076 
C 160 1498 813 1365 998 1325 
C 1402 1243 1542 1217 1677 1101 
C 1760 1025 1901 884 1901 654 
C 1901 384 1747 38 1158 38 
C 602 38 403 460 288 1021 
C 269 1110 269 1117 218 1117 
C 166 1117 160 1110 160 983 
L 160 63 
C 160 -51 166 -58 205 -58 
C 237 -58 243 -51 275 0 
C 314 57 410 211 448 276 
C 576 103 800 -64 1158 -64 
C 1792 -64 2131 283 2131 784 
C 2131 1112 1958 1285 1875 1362 
C 1683 1561 1459 1606 1190 1657 
C 838 1735 390 1825 390 2217 
C 390 2383 480 2737 1126 2737 
C 1811 2737 1850 2094 1862 1888 
C 1869 1856 1901 1849 1920 1849 
C 1978 1849 1978 1869 1978 1978 
L 1978 2697 
z
" transform="scale(0.015625)"/>
       <path id="CMR17-52" d="M 2509 2146 
C 3117 2268 3629 2676 3629 3186 
C 3629 3785 2950 4326 2054 4326 
L 333 4326 
L 333 4160 
C 774 4160 845 4160 845 3873 
L 845 415 
C 845 128 774 128 333 128 
L 333 -26 
C 518 -26 851 -26 1050 -26 
C 1248 -26 1581 -26 1766 -26 
L 1766 128 
C 1325 128 1254 128 1254 417 
L 1254 2112 
L 2003 2112 
C 2368 2112 2573 1964 2662 1881 
C 2918 1632 2918 1459 2918 1024 
C 2918 595 2918 377 3110 160 
C 3354 -102 3680 -128 3821 -128 
C 4294 -128 4365 396 4365 503 
C 4365 540 4365 585 4307 585 
C 4256 585 4250 547 4250 522 
C 4218 112 4032 -26 3834 -26 
C 3482 -26 3443 375 3405 764 
C 3386 898 3373 993 3360 1133 
C 3322 1452 3270 1917 2509 2146 
z
M 1984 2214 
L 1254 2214 
L 1254 3913 
C 1254 4129 1267 4160 1523 4160 
L 1990 4160 
C 2522 4160 3142 3977 3142 3190 
C 3142 2372 2464 2214 1984 2214 
z
" transform="scale(0.015625)"/>
       <path id="CMR17-61" d="M 2304 1653 
C 2304 2072 2304 2294 2035 2543 
C 1798 2752 1523 2816 1306 2816 
C 800 2816 435 2407 435 1971 
C 435 1728 627 1728 666 1728 
C 749 1728 896 1778 896 1954 
C 896 2112 774 2181 666 2181 
C 640 2181 608 2174 589 2168 
C 723 2592 1069 2714 1293 2714 
C 1613 2714 1965 2429 1965 1885 
L 1965 1600 
C 1587 1600 1133 1549 774 1357 
C 371 1133 256 813 256 570 
C 256 77 832 -64 1171 -64 
C 1523 -64 1850 139 1990 511 
C 2003 233 2182 -18 2464 -18 
C 2598 -18 2938 70 2938 567 
L 2938 920 
L 2822 920 
L 2822 562 
C 2822 178 2650 128 2566 128 
C 2304 128 2304 458 2304 738 
L 2304 1653 
z
M 1965 870 
C 1965 317 1568 38 1216 38 
C 896 38 646 275 646 570 
C 646 761 730 1100 1101 1305 
C 1408 1478 1760 1504 1965 1504 
L 1965 870 
z
" transform="scale(0.015625)"/>
       <path id="CMR17-74" d="M 966 2560 
L 1862 2560 
L 1862 2725 
L 966 2725 
L 966 3904 
L 851 3904 
C 838 3245 614 2668 70 2668 
L 70 2560 
L 627 2560 
L 627 771 
C 627 650 627 -64 1370 -64 
C 1747 -64 1965 306 1965 777 
L 1965 1140 
L 1850 1140 
L 1850 783 
C 1850 344 1677 51 1408 51 
C 1222 51 966 178 966 758 
L 966 2560 
z
" transform="scale(0.015625)"/>
       <path id="CMR17-65" d="M 2438 1472 
C 2464 1498 2464 1511 2464 1576 
C 2464 2238 2118 2816 1389 2816 
C 710 2816 173 2169 173 1383 
C 173 551 781 -64 1459 -64 
C 2176 -64 2458 607 2458 740 
C 2458 784 2419 784 2406 784 
C 2362 784 2355 771 2330 696 
C 2189 265 1837 51 1504 51 
C 1229 51 954 203 781 480 
C 582 803 582 1176 582 1472 
L 2438 1472 
z
M 589 1568 
C 634 2505 1126 2714 1382 2714 
C 1818 2714 2112 2297 2118 1568 
L 589 1568 
z
" transform="scale(0.015625)"/>
       <path id="CMR17-44" d="M 333 4352 
L 333 4186 
C 774 4186 845 4186 845 3900 
L 845 452 
C 845 166 774 166 333 166 
L 333 0 
L 2368 0 
C 3398 0 4224 943 4224 2141 
C 4224 3346 3411 4352 2368 4352 
L 333 4352 
z
M 1523 166 
C 1267 166 1254 197 1254 414 
L 1254 3938 
C 1254 4155 1267 4186 1523 4186 
L 2240 4186 
C 2771 4186 3750 3874 3750 2141 
C 3750 1242 3488 879 3366 707 
C 3213 510 2848 166 2240 166 
L 1523 166 
z
" transform="scale(0.015625)"/>
       <path id="CMR17-77" d="M 3725 2183 
C 3853 2560 4109 2560 4205 2560 
L 4205 2732 
C 4077 2732 3949 2732 3821 2732 
C 3699 2732 3424 2732 3315 2738 
L 3315 2560 
C 3514 2560 3622 2445 3622 2286 
C 3622 2241 3610 2184 3597 2140 
L 2995 407 
L 2342 2275 
C 2330 2319 2310 2370 2310 2395 
C 2310 2560 2528 2560 2630 2560 
L 2630 2738 
C 2483 2732 2214 2732 2061 2732 
C 1901 2732 1734 2732 1587 2738 
L 1587 2560 
C 1939 2560 1939 2547 2074 2149 
L 1485 451 
L 851 2281 
C 819 2363 819 2376 819 2395 
C 819 2560 1037 2560 1139 2560 
L 1139 2738 
C 986 2732 717 2732 557 2732 
C 416 2732 198 2732 64 2738 
L 64 2560 
C 346 2560 416 2541 486 2331 
L 1274 49 
C 1299 -33 1318 -52 1370 -52 
C 1414 -52 1440 -39 1472 56 
L 2131 1980 
L 2797 56 
C 2829 -39 2854 -52 2899 -52 
C 2950 -52 2970 -33 2995 50 
L 3725 2183 
z
" transform="scale(0.015625)"/>
       <path id="CMR17-6e" d="M 2656 1933 
C 2656 2259 2592 2790 1837 2790 
C 1331 2790 1069 2400 973 2144 
L 966 2144 
L 966 2790 
L 211 2720 
L 211 2554 
C 589 2554 646 2515 646 2208 
L 646 428 
C 646 184 621 153 211 153 
L 211 -13 
C 365 0 646 0 813 0 
C 979 0 1267 0 1421 -13 
L 1421 153 
C 1011 153 986 178 986 428 
L 986 1658 
C 986 2247 1344 2688 1792 2688 
C 2266 2688 2317 2266 2317 1958 
L 2317 428 
C 2317 184 2291 153 1882 153 
L 1882 -13 
C 2035 0 2317 0 2483 0 
C 2650 0 2938 0 3091 -13 
L 3091 153 
C 2682 153 2656 178 2656 428 
L 2656 1933 
z
" transform="scale(0.015625)"/>
       <path id="CMR17-6c" d="M 979 4396 
L 218 4326 
L 218 4160 
C 595 4160 653 4122 653 3817 
L 653 426 
C 653 184 627 153 218 153 
L 218 -13 
C 371 0 653 0 813 0 
C 979 0 1261 0 1414 -13 
L 1414 153 
C 1005 153 979 178 979 426 
L 979 4396 
z
" transform="scale(0.015625)"/>
       <path id="CMR17-64" d="M 1869 4326 
L 1869 4160 
C 2246 4160 2304 4122 2304 3820 
L 2304 2345 
C 2278 2377 2016 2790 1498 2790 
C 845 2790 211 2208 211 1364 
C 211 525 806 -64 1434 -64 
C 1978 -64 2259 337 2291 380 
L 2291 -63 
L 3066 -63 
L 3066 128 
C 2688 128 2630 166 2630 473 
L 2630 4396 
L 1869 4326 
z
M 2291 755 
C 2291 563 2176 390 2029 262 
C 1811 70 1594 38 1472 38 
C 1286 38 621 134 621 1356 
C 621 2612 1363 2688 1530 2688 
C 1824 2688 2061 2522 2208 2291 
C 2291 2157 2291 2138 2291 2023 
L 2291 755 
z
" transform="scale(0.015625)"/>
       <path id="CMR17-5b" d="M 1504 -1600 
L 1504 -1377 
L 902 -1377 
L 902 4544 
L 1504 4544 
L 1504 4767 
L 678 4767 
L 678 -1600 
L 1504 -1600 
z
" transform="scale(0.015625)"/>
       <path id="CMR17-2d" d="M 1632 1216 
L 1632 1496 
L 26 1496 
L 26 1216 
L 1632 1216 
z
" transform="scale(0.015625)"/>
       <path id="CMR17-5d" d="M 915 4767 
L 90 4767 
L 90 4544 
L 691 4544 
L 691 -1377 
L 90 -1377 
L 90 -1600 
L 915 -1600 
L 915 4767 
z
" transform="scale(0.015625)"/>
      </defs>
      <use xlink:href="#CMR17-4c" transform="scale(0.996264)"/>
      <use xlink:href="#CMR17-6f" transform="translate(57.381408 0) scale(0.996264)"/>
      <use xlink:href="#CMR17-73" transform="translate(103.071885 0) scale(0.996264)"/>
      <use xlink:href="#CMR17-73" transform="translate(138.873223 0) scale(0.996264)"/>
      <use xlink:href="#CMR17-52" transform="translate(204.750527 0) scale(0.996264)"/>
      <use xlink:href="#CMR17-61" transform="translate(272.541629 0) scale(0.996264)"/>
      <use xlink:href="#CMR17-74" transform="translate(318.232106 0) scale(0.996264)"/>
      <use xlink:href="#CMR17-65" transform="translate(353.512873 0) scale(0.996264)"/>
      <use xlink:href="#CMR17-44" transform="translate(424.0745 0) scale(0.996264)"/>
      <use xlink:href="#CMR17-6f" transform="translate(494.468056 0) scale(0.996264)"/>
      <use xlink:href="#CMR17-77" transform="translate(537.556079 0) scale(0.996264)"/>
      <use xlink:href="#CMR17-6e" transform="translate(604.06596 0) scale(0.996264)"/>
      <use xlink:href="#CMR17-6c" transform="translate(654.96133 0) scale(0.996264)"/>
      <use xlink:href="#CMR17-6f" transform="translate(679.832388 0) scale(0.996264)"/>
      <use xlink:href="#CMR17-61" transform="translate(725.522865 0) scale(0.996264)"/>
      <use xlink:href="#CMR17-64" transform="translate(771.213342 0) scale(0.996264)"/>
      <use xlink:href="#CMR17-5b" transform="translate(852.184679 0) scale(0.996264)"/>
      <use xlink:href="#CMR17-30" transform="translate(877.055737 0) scale(0.996264)"/>
      <use xlink:href="#CMR17-2d" transform="translate(922.746214 0) scale(0.996264)"/>
      <use xlink:href="#CMR17-31" transform="translate(952.82218 0) scale(0.996264)"/>
      <use xlink:href="#CMR17-5d" transform="translate(998.512658 0) scale(0.996264)"/>
     </g>
    </g>
   </g>
   <g id="matplotlib.axis_2">
    <g id="ytick_1">
     <g id="line2d_7">
      <path d="M 37.567091 74.62797 
L 266.4 74.62797 
" clip-path="url(#p884ca354d0)" style="fill: none; stroke: #b0b0b0; stroke-opacity: 0.7; stroke-width: 0.5; stroke-linecap: square"/>
     </g>
     <g id="line2d_8">
      <defs>
       <path id="m7aa1f98980" d="M 0 0 
L -3.5 0 
" style="stroke: #000000; stroke-width: 0.8"/>
      </defs>
      <g>
       <use xlink:href="#m7aa1f98980" x="37.567091" y="74.62797" style="stroke: #000000; stroke-width: 0.8"/>
      </g>
     </g>
     <g id="text_8">
      <!-- 0.00 -->
      <g transform="translate(12.855677 78.08722) scale(0.1 -0.1)">
       <use xlink:href="#CMR17-30" transform="scale(0.996264)"/>
       <use xlink:href="#CMR17-2e" transform="translate(45.690477 0) scale(0.996264)"/>
       <use xlink:href="#CMR17-30" transform="translate(70.561536 0) scale(0.996264)"/>
       <use xlink:href="#CMR17-30" transform="translate(116.252013 0) scale(0.996264)"/>
      </g>
     </g>
    </g>
    <g id="ytick_2">
     <g id="line2d_9">
      <path d="M 37.567091 56.859406 
L 266.4 56.859406 
" clip-path="url(#p884ca354d0)" style="fill: none; stroke: #b0b0b0; stroke-opacity: 0.7; stroke-width: 0.5; stroke-linecap: square"/>
     </g>
     <g id="line2d_10">
      <g>
       <use xlink:href="#m7aa1f98980" x="37.567091" y="56.859406" style="stroke: #000000; stroke-width: 0.8"/>
      </g>
     </g>
     <g id="text_9">
      <!-- 0.25 -->
      <g transform="translate(12.855677 60.318655) scale(0.1 -0.1)">
       <use xlink:href="#CMR17-30" transform="scale(0.996264)"/>
       <use xlink:href="#CMR17-2e" transform="translate(45.690477 0) scale(0.996264)"/>
       <use xlink:href="#CMR17-32" transform="translate(70.561536 0) scale(0.996264)"/>
       <use xlink:href="#CMR17-35" transform="translate(116.252013 0) scale(0.996264)"/>
      </g>
     </g>
    </g>
    <g id="ytick_3">
     <g id="line2d_11">
      <path d="M 37.567091 39.090842 
L 266.4 39.090842 
" clip-path="url(#p884ca354d0)" style="fill: none; stroke: #b0b0b0; stroke-opacity: 0.7; stroke-width: 0.5; stroke-linecap: square"/>
     </g>
     <g id="line2d_12">
      <g>
       <use xlink:href="#m7aa1f98980" x="37.567091" y="39.090842" style="stroke: #000000; stroke-width: 0.8"/>
      </g>
     </g>
     <g id="text_10">
      <!-- 0.50 -->
      <g transform="translate(12.855677 42.550091) scale(0.1 -0.1)">
       <use xlink:href="#CMR17-30" transform="scale(0.996264)"/>
       <use xlink:href="#CMR17-2e" transform="translate(45.690477 0) scale(0.996264)"/>
       <use xlink:href="#CMR17-35" transform="translate(70.561536 0) scale(0.996264)"/>
       <use xlink:href="#CMR17-30" transform="translate(116.252013 0) scale(0.996264)"/>
      </g>
     </g>
    </g>
    <g id="ytick_4">
     <g id="line2d_13">
      <path d="M 37.567091 21.322277 
L 266.4 21.322277 
" clip-path="url(#p884ca354d0)" style="fill: none; stroke: #b0b0b0; stroke-opacity: 0.7; stroke-width: 0.5; stroke-linecap: square"/>
     </g>
     <g id="line2d_14">
      <g>
       <use xlink:href="#m7aa1f98980" x="37.567091" y="21.322277" style="stroke: #000000; stroke-width: 0.8"/>
      </g>
     </g>
     <g id="text_11">
      <!-- 0.75 -->
      <g transform="translate(12.855677 24.781526) scale(0.1 -0.1)">
       <defs>
        <path id="CMR17-37" d="M 2886 3941 
L 2886 4081 
L 1382 4081 
C 634 4081 621 4165 595 4288 
L 480 4288 
L 294 3094 
L 410 3094 
C 429 3215 474 3540 550 3661 
C 589 3712 1062 3712 1171 3712 
L 2579 3712 
L 1869 2661 
C 1395 1954 1069 999 1069 165 
C 1069 89 1069 -128 1299 -128 
C 1530 -128 1530 89 1530 171 
L 1530 465 
C 1530 1508 1709 2196 2003 2636 
L 2886 3941 
z
" transform="scale(0.015625)"/>
       </defs>
       <use xlink:href="#CMR17-30" transform="scale(0.996264)"/>
       <use xlink:href="#CMR17-2e" transform="translate(45.690477 0) scale(0.996264)"/>
       <use xlink:href="#CMR17-37" transform="translate(70.561536 0) scale(0.996264)"/>
       <use xlink:href="#CMR17-35" transform="translate(116.252013 0) scale(0.996264)"/>
      </g>
     </g>
    </g>
    <g id="ytick_5">
     <g id="line2d_15">
      <path d="M 37.567091 3.553713 
L 266.4 3.553713 
" clip-path="url(#p884ca354d0)" style="fill: none; stroke: #b0b0b0; stroke-opacity: 0.7; stroke-width: 0.5; stroke-linecap: square"/>
     </g>
     <g id="line2d_16">
      <g>
       <use xlink:href="#m7aa1f98980" x="37.567091" y="3.553713" style="stroke: #000000; stroke-width: 0.8"/>
      </g>
     </g>
     <g id="text_12">
      <!-- 1.00 -->
      <g transform="translate(12.855677 7.012962) scale(0.1 -0.1)">
       <use xlink:href="#CMR17-31" transform="scale(0.996264)"/>
       <use xlink:href="#CMR17-2e" transform="translate(45.690477 0) scale(0.996264)"/>
       <use xlink:href="#CMR17-30" transform="translate(70.561536 0) scale(0.996264)"/>
       <use xlink:href="#CMR17-30" transform="translate(116.252013 0) scale(0.996264)"/>
      </g>
     </g>
    </g>
    <g id="text_13">
     <!-- Percentile -->
     <g transform="translate(6.918498 60.482866) rotate(-90) scale(0.1 -0.1)">
      <defs>
       <path id="CMR17-50" d="M 1267 2042 
L 2291 2042 
C 3117 2042 3718 2578 3718 3184 
C 3718 3791 3130 4352 2291 4352 
L 333 4352 
L 333 4186 
C 774 4186 845 4186 845 3899 
L 845 446 
C 845 160 774 160 333 160 
L 333 0 
C 518 0 858 0 1056 0 
C 1254 0 1594 0 1779 0 
L 1779 160 
C 1338 160 1267 160 1267 446 
L 1267 2042 
z
M 1254 2176 
L 1254 3938 
C 1254 4155 1267 4186 1523 4186 
L 2170 4186 
C 2995 4186 3232 3714 3232 3184 
C 3232 2604 2950 2176 2170 2176 
L 1254 2176 
z
" transform="scale(0.015625)"/>
       <path id="CMR17-72" d="M 960 1497 
C 960 2112 1222 2688 1702 2688 
C 1747 2688 1792 2682 1837 2662 
C 1837 2662 1696 2617 1696 2452 
C 1696 2298 1818 2234 1914 2234 
C 1990 2234 2131 2279 2131 2458 
C 2131 2663 1926 2790 1709 2790 
C 1222 2790 1011 2317 947 2093 
L 941 2093 
L 941 2790 
L 198 2720 
L 198 2554 
C 576 2554 634 2515 634 2208 
L 634 428 
C 634 184 608 153 198 153 
L 198 -13 
C 352 0 646 0 813 0 
C 998 0 1325 0 1498 -13 
L 1498 153 
C 1037 153 960 153 960 440 
L 960 1497 
z
" transform="scale(0.015625)"/>
       <path id="CMR17-63" d="M 2234 2240 
C 2112 2240 1933 2240 1933 2017 
C 1933 1838 2080 1787 2163 1787 
C 2208 1787 2394 1807 2394 2024 
C 2394 2467 1958 2803 1466 2803 
C 787 2803 211 2178 211 1363 
C 211 516 813 -64 1466 -64 
C 2259 -64 2458 677 2458 748 
C 2458 774 2451 793 2406 793 
C 2362 793 2355 787 2330 703 
C 2163 180 1798 51 1523 51 
C 1114 51 621 427 621 1369 
C 621 2338 1094 2688 1472 2688 
C 1722 2688 2093 2573 2234 2240 
z
" transform="scale(0.015625)"/>
       <path id="CMR17-69" d="M 992 3909 
C 992 4049 877 4170 730 4170 
C 589 4170 467 4056 467 3909 
C 467 3769 582 3648 730 3648 
C 870 3648 992 3763 992 3909 
z
M 243 2706 
L 243 2541 
C 602 2541 653 2502 653 2197 
L 653 427 
C 653 184 627 153 218 153 
L 218 -13 
C 371 0 646 0 806 0 
C 960 0 1222 0 1370 -13 
L 1370 153 
C 992 153 979 191 979 420 
L 979 2776 
L 243 2706 
z
" transform="scale(0.015625)"/>
      </defs>
      <use xlink:href="#CMR17-50" transform="scale(0.996264)"/>
      <use xlink:href="#CMR17-65" transform="translate(59.983847 0) scale(0.996264)"/>
      <use xlink:href="#CMR17-72" transform="translate(100.469507 0) scale(0.996264)"/>
      <use xlink:href="#CMR17-63" transform="translate(135.750275 0) scale(0.996264)"/>
      <use xlink:href="#CMR17-65" transform="translate(176.235935 0) scale(0.996264)"/>
      <use xlink:href="#CMR17-6e" transform="translate(216.721596 0) scale(0.996264)"/>
      <use xlink:href="#CMR17-74" transform="translate(265.014512 0) scale(0.996264)"/>
      <use xlink:href="#CMR17-69" transform="translate(300.295279 0) scale(0.996264)"/>
      <use xlink:href="#CMR17-6c" transform="translate(325.166338 0) scale(0.996264)"/>
      <use xlink:href="#CMR17-65" transform="translate(350.037396 0) scale(0.996264)"/>
     </g>
    </g>
   </g>
   <g id="line2d_17">
    <path d="M 41.581703 69.813118 
L 41.600449 69.689649 
L 41.723908 68.587688 
L 41.951521 67.405113 
L 43.625311 62.792492 
L 43.693038 62.646089 
L 44.91645 60.351593 
L 45.091246 60.066431 
L 45.203007 59.897326 
L 45.385498 59.614018 
L 45.547249 59.353643 
L 46.668994 57.797879 
L 46.908134 57.481677 
L 47.132919 57.167095 
L 48.381653 55.695421 
L 48.58369 55.469562 
L 48.740256 55.294203 
L 48.992451 55.014601 
L 49.160129 54.837388 
L 49.459993 54.519332 
L 49.59809 54.376636 
L 49.727985 54.241584 
L 50.087497 53.872101 
L 50.230105 53.731026 
L 50.367178 53.586013 
L 50.558275 53.395597 
L 50.792097 53.171359 
L 51.141667 52.836856 
L 51.305966 52.674469 
L 51.565577 52.418727 
L 51.784293 52.21001 
L 52.165306 51.856049 
L 52.356475 51.679531 
L 52.526376 51.538456 
L 52.746106 51.338773 
L 52.86815 51.230361 
L 53.02106 51.103648 
L 53.135264 51.001027 
L 53.45218 50.725595 
L 53.614651 50.592396 
L 53.83429 50.414257 
L 53.967173 50.30237 
L 54.910844 49.541862 
L 55.073639 49.406346 
L 55.35264 49.183962 
L 55.909074 48.733865 
L 56.218441 48.502447 
L 56.63345 48.175125 
L 56.851934 48.010421 
L 57.119674 47.81514 
L 57.350956 47.649279 
L 60.195646 45.591297 
L 60.494964 45.395553 
L 60.623761 45.312853 
L 61.329461 44.831947 
L 61.458071 44.741372 
L 61.669194 44.597054 
L 61.785174 44.518061 
L 62.032004 44.360771 
L 62.210678 44.248189 
L 62.426208 44.109198 
L 62.988284 43.755932 
L 63.28574 43.562735 
L 63.787766 43.256957 
L 64.35132 42.884 
L 64.716122 42.655824 
L 65.064832 42.43761 
L 65.299494 42.29445 
L 74.792004 37.097606 
L 77.496132 35.77303 
L 77.645974 35.704461 
L 78.008907 35.538136 
L 78.139692 35.483235 
L 78.482668 35.325713 
L 79.788565 34.757706 
L 80.183274 34.574471 
L 80.872184 34.272631 
L 81.055 34.190858 
L 81.680541 33.912183 
L 81.83446 33.847321 
L 84.63438 32.675633 
L 84.825032 32.595714 
L 87.168385 31.63923 
L 87.516147 31.497923 
L 87.645092 31.440705 
L 90.349974 30.372566 
L 90.481941 30.322066 
L 91.450401 29.974359 
L 91.885736 29.798073 
L 92.061929 29.736222 
L 93.078371 29.366508 
L 93.567356 29.191381 
L 96.234856 28.224009 
L 96.663878 28.070657 
L 96.779357 28.02896 
L 97.235484 27.880935 
L 97.588943 27.755149 
L 97.888318 27.650906 
L 98.475936 27.450065 
L 98.869329 27.312233 
L 99.516497 27.091934 
L 99.940738 26.956419 
L 100.396929 26.805382 
L 101.684611 26.364089 
L 101.801957 26.322392 
L 102.387246 26.124099 
L 104.724868 25.359653 
L 105.209761 25.186378 
L 108.768686 24.035076 
L 109.411923 23.829371 
L 109.971496 23.655401 
L 110.500926 23.486992 
L 111.215069 23.273178 
L 111.335752 23.235188 
L 111.791727 23.100136 
L 112.342573 22.927093 
L 112.808952 22.778373 
L 113.565267 22.549734 
L 113.822397 22.473985 
L 114.375495 22.295382 
L 114.507493 22.256928 
L 116.073085 21.800346 
L 116.361387 21.717183 
L 116.916223 21.555723 
L 117.098407 21.498274 
L 117.636728 21.35465 
L 121.742178 20.173929 
L 122.232396 20.029611 
L 122.345454 19.998801 
L 123.109549 19.787768 
L 123.74181 19.608007 
L 124.906988 19.279758 
L 125.077915 19.230649 
L 125.732522 19.053204 
L 126.514111 18.841708 
L 134.512618 16.812682 
L 135.160488 16.656318 
L 135.291992 16.625509 
L 150.020823 13.598303 
L 150.908061 13.441012 
L 151.028854 13.418079 
L 152.935302 13.084965 
L 163.437972 11.420095 
L 164.449939 11.275545 
L 179.958863 9.241423 
L 189.492361 8.238841 
L 189.883299 8.202008 
L 191.860431 8.012287 
L 196.009912 7.642573 
L 197.980125 7.479259 
L 198.121303 7.468372 
L 201.487245 7.200584 
L 202.019886 7.156802 
L 203.831311 7.008777 
L 211.056398 6.489649 
L 211.551147 6.458145 
L 221.427293 5.884578 
L 221.563952 5.876007 
L 224.354639 5.722887 
L 229.183182 5.484287 
L 230.983693 5.401124 
L 235.352922 5.212792 
L 236.736276 5.154648 
L 240.779028 4.998748 
L 266.419563 4.273914 
L 266.419563 4.273914 
" clip-path="url(#p884ca354d0)" style="fill: none; stroke: #1f77b4; stroke-width: 1.5; stroke-linecap: square"/>
   </g>
   <g id="line2d_18">
    <path d="M 41.581703 69.221751 
L 41.591626 69.069637 
L 42.077895 61.339837 
L 42.127356 61.056049 
L 42.251171 60.425482 
L 42.676628 58.693267 
L 42.761094 58.394736 
L 42.880911 57.97944 
L 43.268345 56.803243 
L 43.519836 56.089416 
L 43.933361 55.044894 
L 44.022376 54.831969 
L 44.396638 53.973735 
L 44.490185 53.769856 
L 44.855645 53.004264 
L 44.95731 52.796365 
L 45.177781 52.354935 
L 45.329008 52.065786 
L 45.440372 51.854871 
L 45.701329 51.375915 
L 45.887867 51.058454 
L 45.974741 50.902153 
L 46.112597 50.675323 
L 46.328648 50.303416 
L 46.566653 49.919782 
L 46.80175 49.5462 
L 46.922422 49.360917 
L 47.037479 49.187695 
L 47.198061 48.955002 
L 47.582001 48.403843 
L 47.699152 48.233637 
L 47.988277 47.832915 
L 48.102147 47.682645 
L 48.392651 47.301022 
L 48.579349 47.069501 
L 48.692266 46.922581 
L 49.004612 46.531074 
L 49.336325 46.141744 
L 49.469143 45.977737 
L 49.588772 45.839695 
L 50.187231 45.172608 
L 50.3304 45.016139 
L 50.876287 44.441024 
L 51.045624 44.261436 
L 51.731451 43.552133 
L 51.902908 43.381759 
L 54.754947 40.829506 
L 54.915306 40.699842 
L 55.225704 40.451066 
L 55.347659 40.355576 
L 55.567891 40.181852 
L 55.70825 40.069443 
L 55.889196 39.923025 
L 57.217714 38.955565 
L 57.506786 38.757884 
L 58.135814 38.335887 
L 58.376362 38.175733 
L 58.712278 37.965153 
L 59.842256 37.217654 
L 60.847485 36.607023 
L 60.976513 36.532306 
L 61.241529 36.383879 
L 61.538368 36.207642 
L 61.649976 36.145322 
L 61.966575 35.958196 
L 63.263263 35.225941 
L 63.391305 35.157926 
L 63.685672 35.004138 
L 63.88618 34.896921 
L 64.16143 34.754692 
L 64.306676 34.680981 
L 64.703438 34.470066 
L 65.073208 34.279422 
L 65.420278 34.113404 
L 65.53597 34.055105 
L 65.988096 33.843855 
L 66.593553 33.538288 
L 68.153696 32.804191 
L 68.447815 32.669835 
L 68.938097 32.450209 
L 69.058247 32.398276 
L 69.426382 32.237284 
L 69.544493 32.179823 
L 70.236804 31.883638 
L 81.500423 27.745419 
L 82.022774 27.564827 
L 82.188017 27.515072 
L 82.900668 27.274672 
L 83.053794 27.229273 
L 83.595385 27.060072 
L 83.739157 27.015175 
L 84.29518 26.83341 
L 84.512312 26.758358 
L 84.943607 26.616967 
L 85.834424 26.340214 
L 86.264532 26.203681 
L 97.580081 22.764715 
L 98.105117 22.609084 
L 98.396492 22.527331 
L 99.328275 22.259793 
L 99.546291 22.194123 
L 101.063264 21.745824 
L 101.780918 21.54094 
L 103.625079 21.018093 
L 104.065509 20.902165 
L 108.535021 19.69665 
L 108.648855 19.668841 
L 113.988125 18.315234 
L 114.216421 18.263134 
L 114.992948 18.066961 
L 116.006932 17.816175 
L 116.576726 17.681652 
L 117.620704 17.444603 
L 118.618849 17.215428 
L 118.812936 17.164668 
L 120.544061 16.753393 
L 121.229092 16.604797 
L 122.341184 16.353006 
L 122.467238 16.326872 
L 123.287728 16.142427 
L 125.040536 15.772027 
L 135.850538 13.647467 
L 136.835112 13.469555 
L 136.959463 13.449787 
L 139.051085 13.068499 
L 139.584069 12.973847 
L 140.887444 12.759079 
L 141.474582 12.660071 
L 145.029203 12.075407 
L 146.474094 11.855613 
L 147.338178 11.717404 
L 148.933424 11.478848 
L 149.924107 11.338294 
L 150.122549 11.304956 
L 151.201623 11.144802 
L 154.071797 10.735704 
L 155.833929 10.505524 
L 156.295231 10.441529 
L 157.969245 10.222741 
L 165.170333 9.323966 
L 166.378683 9.173025 
L 167.186226 9.078038 
L 187.504522 7.104084 
L 190.018825 6.911262 
L 190.400036 6.88496 
L 192.744246 6.714754 
L 193.082172 6.690965 
L 195.77557 6.502667 
L 197.774617 6.367641 
L 200.533527 6.200115 
L 200.732843 6.186378 
L 227.400536 4.970477 
L 231.736649 4.827745 
L 238.026009 4.634421 
L 266.409528 4.060813 
L 266.409528 4.060813 
" clip-path="url(#p884ca354d0)" style="fill: none; stroke-dasharray: 1.5,2.475; stroke-dashoffset: 0; stroke: #ff7f0e; stroke-width: 1.5"/>
   </g>
   <g id="line2d_19">
    <path d="M 41.581703 70.883727 
L 41.596331 70.742444 
L 41.796929 68.944893 
L 41.886098 68.47483 
L 42.014662 67.901372 
L 42.087443 67.611647 
L 44.616931 60.225934 
L 44.694699 60.047073 
L 44.832381 59.719772 
L 45.076136 59.144603 
L 45.197859 58.860091 
L 45.372619 58.464248 
L 45.474824 58.232562 
L 45.701768 57.732624 
L 47.364455 54.24862 
L 47.491362 54.000051 
L 47.644029 53.700057 
L 48.13391 52.764133 
L 48.604685 51.870842 
L 49.087074 50.984398 
L 49.189924 50.800247 
L 49.315911 50.57214 
L 49.514813 50.227256 
L 50.224701 49.006586 
L 50.490422 48.555428 
L 50.620408 48.335568 
L 50.953635 47.777436 
L 51.11749 47.509651 
L 52.138005 45.913444 
L 52.251178 45.744231 
L 55.463592 41.246502 
L 55.621677 41.046792 
L 55.900171 40.701363 
L 56.168887 40.379664 
L 56.795711 39.626411 
L 56.963328 39.433003 
L 57.284623 39.051864 
L 57.484714 38.819634 
L 57.826913 38.433049 
L 58.05714 38.1739 
L 58.245167 37.967888 
L 58.361393 37.841542 
L 58.581959 37.608766 
L 58.700141 37.475885 
L 63.954795 32.471995 
L 64.189811 32.277341 
L 64.422509 32.080587 
L 64.677608 31.871618 
L 64.851803 31.731191 
L 65.151832 31.489313 
L 65.650995 31.100939 
L 65.761825 31.013337 
L 65.916993 30.886525 
L 66.131073 30.718867 
L 66.329981 30.567237 
L 66.812259 30.194267 
L 67.370818 29.781231 
L 67.48792 29.696041 
L 67.822841 29.457197 
L 67.978614 29.346878 
L 68.869648 28.71367 
L 69.09454 28.561106 
L 70.706845 27.493545 
L 70.955563 27.335768 
L 71.10079 27.247544 
L 71.521484 26.986605 
L 71.660312 26.899392 
L 72.024009 26.67323 
L 72.162992 26.591619 
L 72.487697 26.391675 
L 72.600395 26.323289 
L 73.003192 26.085068 
L 75.344399 24.788777 
L 75.554058 24.674257 
L 76.321592 24.266511 
L 76.511388 24.172218 
L 76.881633 23.979043 
L 77.001144 23.919215 
L 77.792623 23.509758 
L 78.181981 23.318138 
L 78.518766 23.153749 
L 79.151429 22.844108 
L 79.451823 22.702669 
L 80.680873 22.129755 
L 80.814316 22.066349 
L 81.165122 21.906083 
L 81.645046 21.69338 
L 82.219853 21.43213 
L 83.364208 20.949619 
L 83.741075 20.798688 
L 85.080353 20.257517 
L 85.308351 20.165403 
L 85.72561 19.997901 
L 86.21043 19.803403 
L 86.79474 19.578408 
L 87.225102 19.411606 
L 88.233756 19.042371 
L 88.369533 18.993202 
L 98.377961 15.721822 
L 98.839805 15.584429 
L 99.835552 15.307075 
L 110.840137 12.581535 
L 111.644234 12.410376 
L 112.294515 12.272827 
L 115.790088 11.573257 
L 116.506309 11.439286 
L 116.99973 11.34865 
L 118.612373 11.062894 
L 118.87333 11.017692 
L 120.160581 10.794875 
L 135.228074 8.672902 
L 138.209845 8.339143 
L 138.464821 8.309968 
L 142.284984 7.913426 
L 142.66157 7.874915 
L 145.922774 7.561695 
L 146.037282 7.551426 
L 149.307193 7.255478 
L 149.669909 7.224047 
L 152.923479 6.950816 
L 159.212808 6.466205 
L 161.699954 6.294346 
L 167.156131 5.950629 
L 167.538365 5.925967 
L 173.402125 5.60839 
L 176.512878 5.455437 
L 197.351896 4.653716 
L 206.227132 4.421485 
L 232.157596 3.993512 
L 266.403292 3.723237 
L 266.403292 3.723237 
" clip-path="url(#p884ca354d0)" style="fill: none; stroke-dasharray: 5.55,2.4; stroke-dashoffset: 0; stroke: #2ca02c; stroke-width: 1.5"/>
   </g>
   <g id="line2d_20">
    <path d="M 41.581703 68.696941 
L 41.592404 68.50405 
L 41.929322 65.131703 
L 42.205306 63.860768 
L 42.377709 63.170756 
L 42.438728 62.931794 
L 45.289592 54.634442 
L 45.436681 54.29076 
L 45.967109 53.112763 
L 46.091928 52.847587 
L 46.283158 52.452671 
L 46.409278 52.182729 
L 46.569337 51.858376 
L 46.699809 51.610147 
L 46.833524 51.349075 
L 46.953736 51.114614 
L 47.182776 50.679584 
L 47.300624 50.456773 
L 47.407512 50.252365 
L 47.540978 50.006386 
L 47.645756 49.819055 
L 47.810163 49.52343 
L 48.051701 49.098991 
L 48.149515 48.924635 
L 48.598672 48.149761 
L 48.856388 47.71857 
L 48.970694 47.527003 
L 49.11194 47.30181 
L 49.518271 46.641188 
L 49.646361 46.425526 
L 49.731178 46.286385 
L 54.043521 40.185103 
L 54.370816 39.789657 
L 54.490965 39.641514 
L 56.052425 37.816266 
L 56.27356 37.57545 
L 57.040009 36.736104 
L 57.152817 36.617086 
L 57.366789 36.394805 
L 57.560435 36.187881 
L 57.731499 36.011935 
L 58.113093 35.620329 
L 61.978678 32.106193 
L 62.192336 31.928395 
L 62.715756 31.521696 
L 62.842609 31.420021 
L 63.023487 31.266582 
L 63.199066 31.129559 
L 63.877541 30.607417 
L 64.062349 30.467217 
L 64.277423 30.309939 
L 64.628304 30.044366 
L 64.884153 29.864052 
L 65.088215 29.713261 
L 65.431001 29.456294 
L 65.74391 29.231762 
L 70.084582 26.485219 
L 70.429278 26.292593 
L 70.540349 26.231694 
L 70.908475 26.023181 
L 71.028534 25.956854 
L 71.397604 25.759065 
L 71.514446 25.696445 
L 71.829053 25.515999 
L 73.939933 24.42551 
L 74.077356 24.357991 
L 74.554607 24.123398 
L 74.673601 24.066074 
L 74.932564 23.940436 
L 75.226777 23.796132 
L 75.382956 23.719744 
L 78.016229 22.524006 
L 78.129799 22.473698 
L 78.70976 22.22388 
L 78.889128 22.153846 
L 79.409506 21.931962 
L 79.651074 21.836907 
L 80.794821 21.368911 
L 80.950146 21.306556 
L 81.449732 21.117637 
L 81.992696 20.914155 
L 82.163105 20.849549 
L 93.30972 17.218117 
L 94.275342 16.955192 
L 94.388536 16.925405 
L 95.508138 16.617998 
L 96.031834 16.475282 
L 96.742642 16.273654 
L 97.15151 16.168669 
L 97.892327 15.969556 
L 98.085401 15.918851 
L 100.388799 15.338193 
L 101.147849 15.156025 
L 101.319958 15.11088 
L 102.191734 14.898264 
L 102.320688 14.87033 
L 103.077994 14.699945 
L 104.431608 14.390552 
L 104.752941 14.319459 
L 105.837787 14.07904 
L 108.551447 13.510297 
L 109.360095 13.346002 
L 109.6282 13.290928 
L 110.392803 13.14252 
L 111.802271 12.8555 
L 111.913899 12.834583 
L 112.663652 12.6826 
L 114.874125 12.269944 
L 116.475264 11.987558 
L 121.101338 11.199446 
L 122.769268 10.946583 
L 122.939587 10.918119 
L 124.776622 10.631894 
L 126.055623 10.440195 
L 126.983238 10.306217 
L 129.132117 10.000001 
L 131.837518 9.645066 
L 131.951527 9.629047 
L 132.421229 9.570266 
L 136.381104 9.079632 
L 136.583239 9.055405 
L 138.257287 8.864103 
L 138.425595 8.846363 
L 150.881559 7.616733 
L 154.807352 7.280465 
L 160.007088 6.88396 
L 162.13635 6.728005 
L 162.962465 6.667239 
L 164.941275 6.52598 
L 165.060059 6.516977 
L 167.260672 6.368437 
L 171.349233 6.112529 
L 173.812839 5.971534 
L 179.739023 5.646519 
L 183.712773 5.467529 
L 184.835067 5.4155 
L 188.836493 5.241938 
L 188.956904 5.235848 
L 193.079552 5.074466 
L 209.761575 4.551529 
L 217.405537 4.372804 
L 221.975847 4.278543 
L 235.000898 4.072678 
L 266.420801 3.766065 
L 266.420801 3.766065 
" clip-path="url(#p884ca354d0)" style="fill: none; stroke-dasharray: 9.6,2.4,1.5,2.4; stroke-dashoffset: 0; stroke: #d62728; stroke-width: 1.5"/>
   </g>
   <g id="line2d_21">
    <path d="M 41.581703 67.97951 
L 41.593391 67.687371 
L 42.015255 62.719477 
L 42.075381 62.418112 
L 42.392759 60.680656 
L 42.444553 60.433107 
L 42.600911 59.715061 
L 44.003715 54.524219 
L 44.067359 54.312034 
L 44.218058 53.8523 
L 44.743812 52.370081 
L 44.849528 52.067179 
L 44.97993 51.747364 
L 45.073631 51.529029 
L 45.712682 50.039122 
L 45.785574 49.862301 
L 45.944482 49.499434 
L 46.152231 49.036625 
L 46.33526 48.66607 
L 46.468162 48.410833 
L 46.641999 48.078718 
L 46.79855 47.761978 
L 46.883016 47.594383 
L 47.001062 47.37451 
L 47.075801 47.22844 
L 47.23589 46.8994 
L 48.000099 45.509435 
L 48.118339 45.308013 
L 48.229971 45.129655 
L 48.858894 44.116395 
L 48.984329 43.91036 
L 52.002139 39.637448 
L 52.341293 39.194628 
L 52.64353 38.845599 
L 52.917414 38.54116 
L 54.762167 36.370108 
L 54.911657 36.19175 
L 55.132714 35.930363 
L 55.375027 35.695114 
L 55.492139 35.556733 
L 55.656697 35.384525 
L 55.795056 35.216929 
L 56.008739 34.984756 
L 56.176985 34.812548 
L 56.460122 34.472745 
L 57.239458 33.631693 
L 57.42477 33.459485 
L 57.590421 33.301115 
L 57.872476 33.047416 
L 58.095237 32.836768 
L 58.272615 32.696849 
L 58.383752 32.610745 
L 59.077759 31.983416 
L 59.367774 31.725104 
L 59.501137 31.612861 
L 59.668231 31.472942 
L 59.784837 31.376075 
L 59.992661 31.183879 
L 60.138862 31.06241 
L 60.559374 30.702619 
L 60.92978 30.407405 
L 61.388962 30.012249 
L 61.543347 29.901544 
L 62.865624 28.985151 
L 62.976207 28.903659 
L 63.36753 28.619209 
L 63.554075 28.49159 
L 63.786946 28.32092 
L 64.31011 28.002642 
L 64.637898 27.818134 
L 64.75591 27.762781 
L 65.334836 27.396839 
L 68.537654 25.644007 
L 68.814575 25.497938 
L 69.405637 25.187348 
L 69.537277 25.11047 
L 69.931411 24.916736 
L 70.540854 24.64151 
L 70.881601 24.480065 
L 71.224621 24.327846 
L 71.509183 24.174089 
L 71.904406 24.009568 
L 73.023537 23.551372 
L 74.547966 22.936343 
L 74.654947 22.891754 
L 75.15104 22.705707 
L 78.221573 21.549453 
L 78.681469 21.388008 
L 79.352564 21.169673 
L 79.781235 21.018991 
L 80.069205 20.93135 
L 81.382993 20.494679 
L 81.529753 20.448552 
L 82.109341 20.254818 
L 82.240879 20.219454 
L 82.852306 20.033408 
L 83.867554 19.732044 
L 85.750062 19.252321 
L 85.85576 19.232333 
L 86.299604 19.087801 
L 87.263018 18.7972 
L 87.652448 18.694183 
L 88.790495 18.405119 
L 89.058775 18.326703 
L 90.986692 17.833142 
L 91.234671 17.759339 
L 91.991765 17.564067 
L 92.68932 17.378021 
L 94.844309 16.850634 
L 95.537473 16.709177 
L 96.178286 16.54927 
L 96.832936 16.380137 
L 97.585098 16.218692 
L 98.315712 16.049559 
L 98.884764 15.917328 
L 100.188648 15.648253 
L 101.043415 15.466819 
L 104.231953 14.77645 
L 104.384063 14.73801 
L 106.361383 14.289039 
L 106.849055 14.175259 
L 107.65501 14.015352 
L 108.922043 13.72475 
L 109.650231 13.583294 
L 109.735297 13.561768 
L 110.36752 13.420311 
L 110.910798 13.321907 
L 113.128065 12.883699 
L 121.527126 11.433768 
L 122.346791 11.296925 
L 122.656489 11.258485 
L 123.580729 11.118566 
L 128.386046 10.386682 
L 129.634637 10.223699 
L 131.164061 9.988451 
L 131.72748 9.905422 
L 133.523879 9.725526 
L 134.326361 9.625584 
L 135.680956 9.465677 
L 135.805761 9.444151 
L 138.007611 9.184301 
L 154.346447 7.55755 
L 156.36617 7.376116 
L 156.44537 7.366891 
L 158.34663 7.180845 
L 159.778898 7.059377 
L 162.58381 6.813365 
L 162.995269 6.784151 
L 166.01071 6.571966 
L 169.287881 6.324417 
L 169.501871 6.310579 
L 172.110997 6.141446 
L 172.556047 6.106082 
L 181.560594 5.543331 
L 182.246381 5.497204 
L 186.359074 5.295782 
L 187.057062 5.261955 
L 199.051313 4.746869 
L 199.417327 4.722267 
L 200.833702 4.682291 
L 233.31179 3.978083 
L 256.681056 3.77051 
L 266.499113 3.719771 
L 266.499113 3.719771 
" clip-path="url(#p884ca354d0)" style="fill: none; stroke: #9467bd; stroke-width: 1.5; stroke-linecap: square"/>
   </g>
   <g id="line2d_22">
    <path d="M 41.581703 67.653757 
L 41.593437 67.35624 
L 41.778469 62.12424 
L 42.153674 58.942691 
L 43.741906 52.88515 
L 43.788481 52.751133 
L 46.219032 46.75792 
L 46.400253 46.452362 
L 46.592451 46.082477 
L 46.731867 45.827846 
L 46.855685 45.575895 
L 47.060582 45.173846 
L 47.399594 44.546649 
L 47.60546 44.158002 
L 47.719093 43.962338 
L 49.2243 41.630452 
L 49.364895 41.394584 
L 49.578306 41.075624 
L 49.688945 40.901403 
L 49.806658 40.719141 
L 50.010727 40.402862 
L 50.240052 40.116067 
L 50.478289 39.805149 
L 50.628262 39.609485 
L 50.785383 39.416501 
L 51.078399 39.07878 
L 51.324618 38.757141 
L 51.493397 38.558796 
L 51.668796 38.34437 
L 51.754416 38.210354 
L 51.919932 37.993247 
L 52.102177 37.754698 
L 52.377026 37.44378 
L 53.546079 36.186706 
L 53.666146 36.05537 
L 53.899415 35.838264 
L 54.072688 35.709608 
L 54.198848 35.551468 
L 54.411385 35.339723 
L 54.537157 35.216427 
L 55.802124 34.074608 
L 56.056738 33.8441 
L 56.171435 33.750288 
L 57.191818 32.860419 
L 57.353114 32.686198 
L 57.638422 32.447649 
L 58.021006 32.184977 
L 58.159029 32.083124 
L 58.423482 31.922304 
L 58.91849 31.520255 
L 59.855501 30.818009 
L 60.357794 30.434722 
L 60.559272 30.289985 
L 61.359036 29.743198 
L 61.520233 29.644026 
L 61.914102 29.341149 
L 62.048276 29.255378 
L 62.398244 29.091878 
L 62.539566 29.008788 
L 62.897381 28.831886 
L 63.201046 28.657665 
L 65.31221 27.510484 
L 65.801289 27.288017 
L 66.38262 26.993181 
L 67.03908 26.660821 
L 67.316179 26.502681 
L 73.103135 23.784829 
L 73.393338 23.650812 
L 73.857207 23.447107 
L 74.3322 23.262165 
L 74.574814 23.179074 
L 75.831853 22.64837 
L 76.472352 22.40982 
L 76.921092 22.251681 
L 77.108433 22.176632 
L 78.939314 21.544074 
L 79.149246 21.471706 
L 80.300909 21.066976 
L 80.779069 20.906156 
L 81.137806 20.782861 
L 89.634722 18.231189 
L 90.187067 18.07305 
L 100.832596 15.245304 
L 101.588827 15.065722 
L 101.786299 15.014795 
L 102.172998 14.912943 
L 103.087091 14.714599 
L 103.226714 14.677074 
L 103.823088 14.540377 
L 104.008822 14.494812 
L 107.179855 13.781845 
L 107.319984 13.752361 
L 108.659029 13.449484 
L 109.414308 13.318148 
L 111.638134 12.883935 
L 111.929438 12.822287 
L 117.46259 11.785 
L 117.725476 11.750156 
L 119.659013 11.382951 
L 120.698243 11.219451 
L 120.892122 11.163164 
L 124.966593 10.463598 
L 125.806114 10.284016 
L 126.378726 10.174123 
L 127.610259 9.994541 
L 132.118241 9.370025 
L 135.083608 9.024262 
L 136.605606 8.847361 
L 137.794371 8.68118 
L 138.016418 8.657057 
L 140.386048 8.418508 
L 140.466676 8.399746 
L 142.126176 8.220164 
L 144.086529 8.019139 
L 153.027914 7.12391 
L 156.595665 6.842475 
L 156.959415 6.812992 
L 159.484063 6.590524 
L 165.616315 6.046418 
L 167.648128 5.912402 
L 168.090966 5.880238 
L 172.668304 5.660451 
L 176.994309 5.454065 
L 182.294071 5.202115 
L 188.289153 4.971606 
L 192.355006 4.83759 
L 202.608172 4.566877 
L 203.847127 4.534713 
L 236.192297 3.971844 
L 259.422007 3.77618 
L 266.689248 3.738656 
L 266.689248 3.738656 
" clip-path="url(#p884ca354d0)" style="fill: none; stroke-dasharray: 1.5,2.475; stroke-dashoffset: 0; stroke: #8c564b; stroke-width: 1.5"/>
   </g>
   <g id="line2d_23">
    <path d="M 41.581703 71.135451 
L 41.615704 70.411644 
L 41.772232 66.99104 
L 42.05429 64.442733 
L 42.520584 62.300611 
L 42.568931 62.120158 
L 43.002428 60.654565 
L 43.057459 60.50208 
L 43.201204 60.076585 
L 43.249246 59.942744 
L 43.411372 59.497273 
L 44.302745 57.209324 
L 44.370137 57.064829 
L 47.998668 50.324833 
L 48.109391 50.150374 
L 48.280352 49.884023 
L 48.3757 49.730872 
L 48.495577 49.533107 
L 48.805044 49.054342 
L 48.914991 48.891868 
L 49.226653 48.415767 
L 49.453481 48.068846 
L 49.59864 47.862424 
L 49.712588 47.710605 
L 50.007674 47.313743 
L 53.401226 43.253232 
L 53.621274 43.029497 
L 53.77921 42.879675 
L 53.94606 42.72386 
L 54.254372 42.420887 
L 54.420163 42.261077 
L 54.902578 41.796961 
L 55.212693 41.497317 
L 55.540835 41.196341 
L 56.51244 40.341356 
L 57.108038 39.848608 
L 57.219427 39.758049 
L 57.415764 39.592246 
L 57.598078 39.437097 
L 58.053483 39.084183 
L 58.184874 38.966323 
L 58.43669 38.776548 
L 58.582655 38.675335 
L 58.920611 38.436286 
L 60.764383 37.15847 
L 61.039156 36.99533 
L 63.016447 35.704197 
L 63.401714 35.433851 
L 63.531058 35.355278 
L 63.818525 35.170165 
L 67.870744 32.808303 
L 68.143953 32.662476 
L 68.436129 32.506661 
L 68.723076 32.362832 
L 69.505397 31.979953 
L 69.777138 31.838122 
L 70.597903 31.417288 
L 70.771253 31.334054 
L 71.269718 31.081021 
L 71.680768 30.885919 
L 72.073241 30.709462 
L 72.397519 30.555645 
L 72.511641 30.493053 
L 72.81071 30.356548 
L 76.236731 28.800396 
L 76.772091 28.573332 
L 76.89376 28.522726 
L 77.69031 28.190454 
L 78.244553 27.948075 
L 78.597372 27.801582 
L 79.374883 27.474637 
L 79.630699 27.369429 
L 91.02764 23.311581 
L 91.597189 23.121141 
L 91.712024 23.091176 
L 92.307731 22.907395 
L 92.642815 22.794862 
L 93.211626 22.623066 
L 93.325123 22.587108 
L 94.174644 22.340734 
L 94.410096 22.266822 
L 94.780735 22.13964 
L 94.896889 22.105014 
L 95.509705 21.91524 
L 95.684447 21.853979 
L 97.091512 21.426487 
L 97.526034 21.291314 
L 97.726228 21.230053 
L 98.657904 20.972359 
L 98.909696 20.885796 
L 99.370709 20.742632 
L 99.547565 20.698684 
L 100.174911 20.517566 
L 100.336031 20.477614 
L 101.754252 20.111382 
L 102.309085 19.958231 
L 102.867952 19.82106 
L 103.560556 19.633949 
L 104.250537 19.440179 
L 108.286441 18.404742 
L 108.589671 18.322839 
L 121.285542 15.33572 
L 121.867818 15.208538 
L 124.158902 14.755742 
L 124.408833 14.702472 
L 125.239262 14.530011 
L 126.057903 14.340902 
L 127.439696 14.091864 
L 140.875634 11.78527 
L 141.786773 11.651429 
L 143.763013 11.350453 
L 144.755713 11.194638 
L 146.589917 10.936944 
L 147.984141 10.759156 
L 151.414879 10.318346 
L 151.667411 10.278393 
L 154.248508 9.936799 
L 155.108159 9.832922 
L 156.844298 9.642482 
L 157.241363 9.59587 
L 170.129533 8.27677 
L 172.554257 8.072346 
L 173.313966 8.011086 
L 174.924846 7.873915 
L 179.0666 7.533653 
L 179.195464 7.519004 
L 181.497886 7.330561 
L 181.670908 7.317243 
L 186.212139 7.006945 
L 186.421902 6.990964 
L 187.001105 6.951012 
L 190.560568 6.707967 
L 191.347664 6.656028 
L 194.161314 6.494221 
L 203.586187 5.982828 
L 206.432147 5.817691 
L 211.862307 5.563326 
L 256.720448 4.312811 
L 266.459289 4.156996 
L 266.459289 4.156996 
" clip-path="url(#p884ca354d0)" style="fill: none; stroke-dasharray: 5.55,2.4; stroke-dashoffset: 0; stroke: #e377c2; stroke-width: 1.5"/>
   </g>
   <g id="patch_3">
    <path d="M 37.567091 78.181683 
L 37.567091 0 
" style="fill: none; stroke: #000000; stroke-width: 0.8; stroke-linejoin: miter; stroke-linecap: square"/>
   </g>
   <g id="patch_4">
    <path d="M 266.4 78.181683 
L 266.4 0 
" style="fill: none; stroke: #000000; stroke-width: 0.8; stroke-linejoin: miter; stroke-linecap: square"/>
   </g>
   <g id="patch_5">
    <path d="M 37.567091 78.181683 
L 266.4 78.181683 
" style="fill: none; stroke: #000000; stroke-width: 0.8; stroke-linejoin: miter; stroke-linecap: square"/>
   </g>
   <g id="patch_6">
    <path d="M 37.567091 0 
L 266.4 0 
" style="fill: none; stroke: #000000; stroke-width: 0.8; stroke-linejoin: miter; stroke-linecap: square"/>
   </g>
   <g id="legend_1">
    <g id="patch_7">
     <path d="M 144.156082 74.016683 
L 262.235 74.016683 
L 262.235 36.074606 
L 144.156082 36.074606 
z
" style="fill: #ffffff; opacity: 0.8; stroke: #000000; stroke-linejoin: miter"/>
    </g>
    <g id="line2d_24">
     <path d="M 147.488082 42.322106 
L 151.653082 42.322106 
L 155.818082 42.322106 
" style="fill: none; stroke: #9467bd; stroke-width: 1.5; stroke-linecap: square"/>
    </g>
    <g id="text_14">
     <!-- Dublin -->
     <g transform="translate(158.317082 45.237606) scale(0.0833 -0.0833)">
      <defs>
       <path id="CMR17-75" d="M 1882 2693 
L 1882 2528 
C 2259 2528 2317 2489 2317 2186 
L 2317 1032 
C 2317 500 2029 38 1555 38 
C 1030 38 986 348 986 678 
L 986 2763 
L 211 2693 
L 211 2528 
C 467 2528 640 2528 646 2274 
L 646 1058 
C 646 633 646 361 813 183 
C 896 101 1056 -64 1517 -64 
C 2061 -64 2272 377 2323 506 
L 2330 506 
L 2330 -63 
L 3091 -63 
L 3091 128 
C 2714 128 2656 166 2656 473 
L 2656 2763 
L 1882 2693 
z
" transform="scale(0.015625)"/>
       <path id="CMR17-62" d="M 960 4396 
L 198 4326 
L 198 4160 
C 576 4160 634 4122 634 3817 
L 634 -13 
L 749 -13 
L 934 441 
C 1120 141 1395 -64 1766 -64 
C 2406 -64 3053 500 3053 1370 
C 3053 2188 2477 2790 1830 2790 
C 1434 2790 1152 2579 960 2330 
L 960 4396 
z
M 973 2004 
C 973 2118 973 2138 1062 2272 
C 1312 2657 1670 2688 1792 2688 
C 1984 2688 2643 2585 2643 1376 
C 2643 108 1888 38 1734 38 
C 1536 38 1248 114 1043 486 
C 973 608 973 621 973 735 
L 973 2004 
z
" transform="scale(0.015625)"/>
      </defs>
      <use xlink:href="#CMR17-44" transform="scale(0.996264)"/>
      <use xlink:href="#CMR17-75" transform="translate(70.393556 0) scale(0.996264)"/>
      <use xlink:href="#CMR17-62" transform="translate(121.288926 0) scale(0.996264)"/>
      <use xlink:href="#CMR17-6c" transform="translate(172.184295 0) scale(0.996264)"/>
      <use xlink:href="#CMR17-69" transform="translate(197.055354 0) scale(0.996264)"/>
      <use xlink:href="#CMR17-6e" transform="translate(221.926412 0) scale(0.996264)"/>
     </g>
    </g>
    <g id="line2d_25">
     <path d="M 147.488082 50.266576 
L 151.653082 50.266576 
L 155.818082 50.266576 
" style="fill: none; stroke-dasharray: 1.5,2.475; stroke-dashoffset: 0; stroke: #8c564b; stroke-width: 1.5"/>
    </g>
    <g id="text_15">
     <!-- Lagos -->
     <g transform="translate(158.317082 53.182076) scale(0.0833 -0.0833)">
      <defs>
       <path id="CMR17-67" d="M 710 1164 
C 832 1068 1043 960 1299 960 
C 1805 960 2240 1357 2240 1888 
C 2240 2054 2189 2310 1997 2509 
C 2176 2692 2438 2752 2586 2752 
C 2611 2752 2650 2752 2682 2734 
C 2656 2728 2598 2703 2598 2605 
C 2598 2527 2656 2471 2739 2471 
C 2835 2471 2886 2533 2886 2614 
C 2886 2731 2790 2854 2586 2854 
C 2330 2854 2106 2738 1926 2580 
C 1734 2753 1504 2816 1299 2816 
C 794 2816 358 2419 358 1888 
C 358 1522 570 1292 634 1228 
C 442 1004 442 743 442 711 
C 442 545 506 302 723 168 
C 390 85 128 -169 128 -486 
C 128 -943 736 -1280 1466 -1280 
C 2170 -1280 2803 -956 2803 -479 
C 2803 384 1856 384 1363 384 
C 1216 384 954 384 922 391 
C 723 423 589 602 589 826 
C 589 883 589 1024 710 1164 
z
M 1299 1068 
C 736 1068 736 1760 736 1889 
C 736 2016 736 2708 1299 2708 
C 1862 2708 1862 2016 1862 1889 
C 1862 1760 1862 1068 1299 1068 
z
M 1466 -1171 
C 826 -1171 384 -835 384 -486 
C 384 -289 493 -105 634 -4 
C 794 104 858 104 1293 104 
C 1818 104 2547 104 2547 -486 
C 2547 -835 2106 -1171 1466 -1171 
z
" transform="scale(0.015625)"/>
      </defs>
      <use xlink:href="#CMR17-4c" transform="scale(0.996264)"/>
      <use xlink:href="#CMR17-61" transform="translate(57.381408 0) scale(0.996264)"/>
      <use xlink:href="#CMR17-67" transform="translate(103.071885 0) scale(0.996264)"/>
      <use xlink:href="#CMR17-6f" transform="translate(148.762362 0) scale(0.996264)"/>
      <use xlink:href="#CMR17-73" transform="translate(194.452839 0) scale(0.996264)"/>
     </g>
    </g>
    <g id="line2d_26">
     <path d="M 147.488082 58.211045 
L 151.653082 58.211045 
L 155.818082 58.211045 
" style="fill: none; stroke-dasharray: 5.55,2.4; stroke-dashoffset: 0; stroke: #e377c2; stroke-width: 1.5"/>
    </g>
    <g id="text_16">
     <!-- Manila -->
     <g transform="translate(158.317082 61.126545) scale(0.0833 -0.0833)">
      <defs>
       <path id="CMR17-4d" d="M 1338 4224 
C 1299 4320 1293 4320 1158 4320 
L 339 4320 
L 339 4160 
C 781 4160 851 4160 851 3875 
L 851 610 
C 851 451 851 153 339 153 
L 339 -13 
C 486 0 755 0 915 0 
C 1075 0 1344 0 1491 -13 
L 1491 153 
C 979 153 979 451 979 610 
L 979 4135 
L 986 4135 
L 2490 89 
C 2515 25 2528 -13 2579 -13 
C 2630 -13 2643 25 2669 89 
L 4186 4166 
L 4192 4166 
L 4192 438 
C 4192 153 4122 153 3680 153 
L 3680 -13 
C 3853 0 4198 0 4384 0 
C 4570 0 4922 0 5094 -13 
L 5094 153 
C 4653 153 4582 153 4582 438 
L 4582 3875 
C 4582 4160 4653 4160 5094 4160 
L 5094 4320 
L 4282 4320 
C 4147 4320 4141 4314 4102 4218 
L 2720 502 
L 1338 4224 
z
" transform="scale(0.015625)"/>
      </defs>
      <use xlink:href="#CMR17-4d" transform="scale(0.996264)"/>
      <use xlink:href="#CMR17-61" transform="translate(84.686941 0) scale(0.996264)"/>
      <use xlink:href="#CMR17-6e" transform="translate(130.377418 0) scale(0.996264)"/>
      <use xlink:href="#CMR17-69" transform="translate(181.272787 0) scale(0.996264)"/>
      <use xlink:href="#CMR17-6c" transform="translate(206.143846 0) scale(0.996264)"/>
      <use xlink:href="#CMR17-61" transform="translate(231.014904 0) scale(0.996264)"/>
     </g>
    </g>
    <g id="line2d_27">
     <path d="M 147.488082 66.155514 
L 151.653082 66.155514 
L 155.818082 66.155514 
" style="fill: none; stroke: #1f77b4; stroke-width: 1.5; stroke-linecap: square"/>
    </g>
    <g id="text_17">
     <!-- Mexico City -->
     <g transform="translate(158.317082 69.071014) scale(0.0833 -0.0833)">
      <defs>
       <path id="CMR17-78" d="M 1664 1477 
C 1856 1726 2074 2006 2253 2216 
C 2464 2458 2707 2560 2989 2560 
L 2989 2726 
C 2880 2726 2656 2726 2541 2726 
C 2368 2726 2170 2726 2022 2732 
L 2022 2566 
C 2112 2553 2163 2489 2163 2400 
C 2163 2285 2099 2215 2067 2171 
L 1594 1573 
L 1030 2306 
C 973 2376 973 2388 973 2420 
C 973 2497 1037 2560 1146 2560 
L 1146 2732 
C 992 2726 717 2726 557 2726 
C 384 2726 179 2726 38 2732 
L 38 2560 
C 384 2560 461 2534 614 2343 
L 1350 1395 
C 1363 1382 1395 1344 1395 1325 
C 1395 1299 838 619 768 530 
C 480 185 179 160 6 160 
L 6 0 
C 115 0 339 0 454 0 
C 582 0 864 0 979 -6 
L 979 160 
C 941 166 838 179 838 325 
C 838 440 890 510 947 586 
L 1478 1236 
L 2035 512 
C 2086 442 2163 346 2163 301 
C 2163 211 2086 160 1984 160 
L 1984 -6 
C 2138 0 2413 0 2573 0 
C 2746 0 2950 0 3091 -6 
L 3091 160 
C 2771 160 2675 172 2522 370 
L 1664 1477 
z
" transform="scale(0.015625)"/>
       <path id="CMR17-43" d="M 3974 4289 
C 3974 4403 3968 4410 3930 4410 
C 3904 4410 3898 4403 3853 4327 
L 3571 3792 
C 3258 4187 2874 4416 2381 4416 
C 1286 4416 294 3456 294 2148 
C 294 826 1286 -128 2387 -128 
C 3366 -128 3974 730 3974 1461 
C 3974 1524 3974 1550 3917 1550 
C 3866 1550 3866 1531 3859 1474 
C 3808 585 3168 38 2477 38 
C 1824 38 781 495 781 2147 
C 781 3805 1843 4250 2464 4250 
C 3187 4250 3712 3628 3834 2745 
C 3846 2668 3846 2655 3904 2655 
C 3974 2655 3974 2668 3974 2783 
L 3974 4289 
z
" transform="scale(0.015625)"/>
       <path id="CMR17-79" d="M 2496 2197 
C 2656 2586 2944 2586 3034 2586 
L 3034 2752 
C 2912 2752 2752 2752 2630 2752 
C 2496 2752 2285 2752 2157 2758 
L 2157 2592 
C 2400 2573 2406 2394 2406 2343 
C 2406 2280 2394 2248 2362 2171 
L 1664 449 
L 902 2306 
C 870 2382 870 2426 870 2433 
C 870 2573 1018 2586 1171 2586 
L 1171 2758 
C 1018 2752 742 2752 582 2752 
C 410 2752 205 2752 64 2758 
L 64 2586 
C 410 2586 448 2554 531 2350 
L 1485 15 
C 1197 -738 1030 -1178 627 -1178 
C 557 -1178 397 -1159 282 -1044 
C 429 -1031 493 -942 493 -833 
C 493 -725 416 -629 288 -629 
C 147 -629 77 -725 77 -840 
C 77 -1095 339 -1280 627 -1280 
C 998 -1280 1229 -922 1357 -604 
L 2496 2197 
z
" transform="scale(0.015625)"/>
      </defs>
      <use xlink:href="#CMR17-4d" transform="scale(0.996264)"/>
      <use xlink:href="#CMR17-65" transform="translate(84.686941 0) scale(0.996264)"/>
      <use xlink:href="#CMR17-78" transform="translate(125.172601 0) scale(0.996264)"/>
      <use xlink:href="#CMR17-69" transform="translate(173.465517 0) scale(0.996264)"/>
      <use xlink:href="#CMR17-63" transform="translate(198.336575 0) scale(0.996264)"/>
      <use xlink:href="#CMR17-6f" transform="translate(238.822236 0) scale(0.996264)"/>
      <use xlink:href="#CMR17-43" transform="translate(314.588679 0) scale(0.996264)"/>
      <use xlink:href="#CMR17-69" transform="translate(381.09856 0) scale(0.996264)"/>
      <use xlink:href="#CMR17-74" transform="translate(405.969618 0) scale(0.996264)"/>
      <use xlink:href="#CMR17-79" transform="translate(438.647932 0) scale(0.996264)"/>
     </g>
    </g>
    <g id="line2d_28">
     <path d="M 209.500997 42.322106 
L 213.665997 42.322106 
L 217.830997 42.322106 
" style="fill: none; stroke-dasharray: 5.55,2.4; stroke-dashoffset: 0; stroke: #2ca02c; stroke-width: 1.5"/>
    </g>
    <g id="text_18">
     <!-- Seattle -->
     <g transform="translate(220.329997 45.237606) scale(0.0833 -0.0833)">
      <defs>
       <path id="CMR17-53" d="M 2803 4290 
C 2803 4404 2797 4411 2758 4411 
C 2720 4411 2707 4385 2682 4328 
L 2490 3907 
C 2246 4257 1875 4416 1472 4416 
C 819 4416 294 3901 294 3253 
C 294 3056 339 2776 557 2510 
C 794 2218 1018 2167 1530 2033 
C 1722 1982 2042 1899 2106 1874 
C 2470 1722 2662 1341 2662 985 
C 2662 527 2336 38 1779 38 
C 1094 38 454 419 410 1311 
C 403 1413 397 1419 352 1419 
C 301 1419 294 1413 294 1285 
L 294 -1 
C 294 -115 301 -122 339 -122 
C 384 -122 397 -90 486 108 
C 493 127 493 140 614 381 
C 934 -39 1472 -128 1779 -128 
C 2477 -128 2970 451 2970 1124 
C 2970 1454 2848 1708 2778 1823 
C 2509 2230 2221 2306 1914 2382 
C 1869 2402 1856 2402 1498 2490 
C 1152 2579 1005 2624 845 2796 
C 666 2992 602 3196 602 3399 
C 602 3812 934 4263 1478 4263 
C 2157 4263 2579 3786 2675 2993 
C 2694 2878 2701 2872 2746 2872 
C 2803 2872 2803 2891 2803 2999 
L 2803 4290 
z
" transform="scale(0.015625)"/>
      </defs>
      <use xlink:href="#CMR17-53" transform="scale(0.996264)"/>
      <use xlink:href="#CMR17-65" transform="translate(50.89537 0) scale(0.996264)"/>
      <use xlink:href="#CMR17-61" transform="translate(91.38103 0) scale(0.996264)"/>
      <use xlink:href="#CMR17-74" transform="translate(137.071507 0) scale(0.996264)"/>
      <use xlink:href="#CMR17-74" transform="translate(172.352275 0) scale(0.996264)"/>
      <use xlink:href="#CMR17-6c" transform="translate(207.633043 0) scale(0.996264)"/>
      <use xlink:href="#CMR17-65" transform="translate(232.504101 0) scale(0.996264)"/>
     </g>
    </g>
    <g id="line2d_29">
     <path d="M 209.500997 50.266576 
L 213.665997 50.266576 
L 217.830997 50.266576 
" style="fill: none; stroke-dasharray: 9.6,2.4,1.5,2.4; stroke-dashoffset: 0; stroke: #d62728; stroke-width: 1.5"/>
    </g>
    <g id="text_19">
     <!-- Sydney -->
     <g transform="translate(220.329997 53.182076) scale(0.0833 -0.0833)">
      <use xlink:href="#CMR17-53" transform="scale(0.996264)"/>
      <use xlink:href="#CMR17-79" transform="translate(50.89537 0) scale(0.996264)"/>
      <use xlink:href="#CMR17-64" transform="translate(99.188286 0) scale(0.996264)"/>
      <use xlink:href="#CMR17-6e" transform="translate(150.083655 0) scale(0.996264)"/>
      <use xlink:href="#CMR17-65" transform="translate(200.979025 0) scale(0.996264)"/>
      <use xlink:href="#CMR17-79" transform="translate(241.464686 0) scale(0.996264)"/>
     </g>
    </g>
    <g id="line2d_30">
     <path d="M 209.500997 58.211045 
L 213.665997 58.211045 
L 217.830997 58.211045 
" style="fill: none; stroke-dasharray: 1.5,2.475; stroke-dashoffset: 0; stroke: #ff7f0e; stroke-width: 1.5"/>
    </g>
    <g id="text_20">
     <!-- So Paulo -->
     <g transform="translate(220.329997 61.126545) scale(0.0833 -0.0833)">
      <defs>
       <path id="CMR17-7e" d="M 2400 4184 
C 2182 3980 2061 3865 1862 3865 
C 1722 3865 1626 3932 1491 4024 
C 1363 4111 1261 4184 1120 4184 
C 890 4184 730 4004 461 3718 
L 531 3648 
C 749 3850 870 3968 1069 3968 
C 1210 3968 1306 3900 1440 3808 
C 1568 3722 1670 3648 1811 3648 
C 2042 3648 2202 3828 2470 4114 
L 2400 4184 
z
" transform="scale(0.015625)"/>
      </defs>
      <use xlink:href="#CMR17-53" transform="scale(0.996264)"/>
      <use xlink:href="#CMR17-7e" transform="translate(50.89537 0) scale(0.996264)"/>
      <use xlink:href="#CMR17-61" transform="translate(50.89537 0) scale(0.996264)"/>
      <use xlink:href="#CMR17-6f" transform="translate(96.585847 0) scale(0.996264)"/>
      <use xlink:href="#CMR17-50" transform="translate(172.35229 0) scale(0.996264)"/>
      <use xlink:href="#CMR17-61" transform="translate(232.336137 0) scale(0.996264)"/>
      <use xlink:href="#CMR17-75" transform="translate(278.026614 0) scale(0.996264)"/>
      <use xlink:href="#CMR17-6c" transform="translate(328.921984 0) scale(0.996264)"/>
      <use xlink:href="#CMR17-6f" transform="translate(353.793042 0) scale(0.996264)"/>
     </g>
    </g>
   </g>
  </g>
 </g>
 <defs>
  <clipPath id="p884ca354d0">
   <rect x="37.567091" y="0" width="228.832909" height="78.181683"/>
  </clipPath>
 </defs>
</svg>
