<?xml version="1.0" encoding="utf-8" standalone="no"?>
<!DOCTYPE svg PUBLIC "-//W3C//DTD SVG 1.1//EN"
  "http://www.w3.org/Graphics/SVG/1.1/DTD/svg11.dtd">
<svg xmlns:xlink="http://www.w3.org/1999/xlink" width="266.4pt" height="108pt" viewBox="0 0 266.4 108" xmlns="http://www.w3.org/2000/svg" version="1.1">
 <metadata>
  <rdf:RDF xmlns:dc="http://purl.org/dc/elements/1.1/" xmlns:cc="http://creativecommons.org/ns#" xmlns:rdf="http://www.w3.org/1999/02/22-rdf-syntax-ns#">
   <cc:Work>
    <dc:type rdf:resource="http://purl.org/dc/dcmitype/StillImage"/>
    <dc:date>2023-10-10T20:55:11.543617</dc:date>
    <dc:format>image/svg+xml</dc:format>
    <dc:creator>
     <cc:Agent>
      <dc:title>Matplotlib v3.7.0, https://matplotlib.org/</dc:title>
     </cc:Agent>
    </dc:creator>
   </cc:Work>
  </rdf:RDF>
 </metadata>
 <defs>
  <style type="text/css">*{stroke-linejoin: round; stroke-linecap: butt}</style>
 </defs>
 <g id="figure_1">
  <g id="patch_1">
   <path d="M 0 108 
L 266.4 108 
L 266.4 0 
L 0 0 
z
" style="fill: #ffffff"/>
  </g>
  <g id="axes_1">
   <g id="patch_2">
    <path d="M 37.567091 78.181683 
L 266.4 78.181683 
L 266.4 0 
L 37.567091 0 
z
" style="fill: #ffffff"/>
   </g>
   <g id="matplotlib.axis_1">
    <g id="xtick_1">
     <g id="line2d_1">
      <defs>
       <path id="m03d65f4c5d" d="M 0 0 
L 0 3.5 
" style="stroke: #000000; stroke-width: 0.8"/>
      </defs>
      <g>
       <use xlink:href="#m03d65f4c5d" x="47.968587" y="78.181683" style="stroke: #000000; stroke-width: 0.8"/>
      </g>
     </g>
     <g id="text_1">
      <!-- 0.0 -->
      <g transform="translate(41.603547 92.100182) scale(0.1 -0.1)">
       <defs>
        <path id="CMR17-30" d="M 2688 2025 
C 2688 2416 2682 3080 2413 3591 
C 2176 4039 1798 4198 1466 4198 
C 1158 4198 768 4058 525 3597 
C 269 3118 243 2524 243 2025 
C 243 1661 250 1106 448 619 
C 723 -39 1216 -128 1466 -128 
C 1760 -128 2208 -7 2470 600 
C 2662 1042 2688 1559 2688 2025 
z
M 1466 -26 
C 1056 -26 813 325 723 812 
C 653 1188 653 1738 653 2096 
C 653 2588 653 2997 736 3387 
C 858 3929 1216 4096 1466 4096 
C 1728 4096 2067 3923 2189 3400 
C 2272 3036 2278 2607 2278 2096 
C 2278 1680 2278 1169 2202 792 
C 2067 95 1690 -26 1466 -26 
z
" transform="scale(0.015625)"/>
        <path id="CMR17-2e" d="M 1062 261 
C 1062 420 934 522 800 522 
C 672 522 538 420 538 261 
C 538 102 666 0 800 0 
C 928 0 1062 102 1062 261 
z
" transform="scale(0.015625)"/>
       </defs>
       <use xlink:href="#CMR17-30" transform="scale(0.996264)"/>
       <use xlink:href="#CMR17-2e" transform="translate(45.690477 0) scale(0.996264)"/>
       <use xlink:href="#CMR17-30" transform="translate(70.561536 0) scale(0.996264)"/>
      </g>
     </g>
    </g>
    <g id="xtick_2">
     <g id="line2d_2">
      <g>
       <use xlink:href="#m03d65f4c5d" x="84.42618" y="78.181683" style="stroke: #000000; stroke-width: 0.8"/>
      </g>
     </g>
     <g id="text_2">
      <!-- 0.1 -->
      <g transform="translate(78.061141 92.100182) scale(0.1 -0.1)">
       <defs>
        <path id="CMR17-31" d="M 1702 4058 
C 1702 4192 1696 4192 1606 4192 
C 1357 3916 979 3827 621 3827 
C 602 3827 570 3827 563 3808 
C 557 3795 557 3782 557 3648 
C 755 3648 1088 3686 1344 3839 
L 1344 461 
C 1344 236 1331 160 781 160 
L 589 160 
L 589 0 
C 896 0 1216 0 1523 0 
C 1830 0 2150 0 2458 0 
L 2458 160 
L 2266 160 
C 1715 160 1702 230 1702 458 
L 1702 4058 
z
" transform="scale(0.015625)"/>
       </defs>
       <use xlink:href="#CMR17-30" transform="scale(0.996264)"/>
       <use xlink:href="#CMR17-2e" transform="translate(45.690477 0) scale(0.996264)"/>
       <use xlink:href="#CMR17-31" transform="translate(70.561536 0) scale(0.996264)"/>
      </g>
     </g>
    </g>
    <g id="xtick_3">
     <g id="line2d_3">
      <g>
       <use xlink:href="#m03d65f4c5d" x="120.883774" y="78.181683" style="stroke: #000000; stroke-width: 0.8"/>
      </g>
     </g>
     <g id="text_3">
      <!-- 0.2 -->
      <g transform="translate(114.518734 92.100182) scale(0.1 -0.1)">
       <defs>
        <path id="CMR17-32" d="M 2669 989 
L 2554 989 
C 2490 536 2438 459 2413 420 
C 2381 369 1920 369 1830 369 
L 602 369 
C 832 619 1280 1072 1824 1597 
C 2214 1967 2669 2402 2669 3035 
C 2669 3790 2067 4224 1395 4224 
C 691 4224 262 3604 262 3030 
C 262 2780 448 2748 525 2748 
C 589 2748 781 2787 781 3010 
C 781 3207 614 3264 525 3264 
C 486 3264 448 3258 422 3245 
C 544 3790 915 4058 1306 4058 
C 1862 4058 2227 3617 2227 3035 
C 2227 2479 1901 2000 1536 1584 
L 262 146 
L 262 0 
L 2515 0 
L 2669 989 
z
" transform="scale(0.015625)"/>
       </defs>
       <use xlink:href="#CMR17-30" transform="scale(0.996264)"/>
       <use xlink:href="#CMR17-2e" transform="translate(45.690477 0) scale(0.996264)"/>
       <use xlink:href="#CMR17-32" transform="translate(70.561536 0) scale(0.996264)"/>
      </g>
     </g>
    </g>
    <g id="xtick_4">
     <g id="line2d_4">
      <g>
       <use xlink:href="#m03d65f4c5d" x="157.341367" y="78.181683" style="stroke: #000000; stroke-width: 0.8"/>
      </g>
     </g>
     <g id="text_4">
      <!-- 0.3 -->
      <g transform="translate(150.976328 92.100182) scale(0.1 -0.1)">
       <defs>
        <path id="CMR17-33" d="M 1414 2157 
C 1984 2157 2234 1662 2234 1090 
C 2234 320 1824 25 1453 25 
C 1114 25 563 194 390 693 
C 422 680 454 680 486 680 
C 640 680 755 782 755 948 
C 755 1133 614 1216 486 1216 
C 378 1216 211 1165 211 926 
C 211 335 787 -128 1466 -128 
C 2176 -128 2720 430 2720 1085 
C 2720 1707 2208 2157 1600 2227 
C 2086 2328 2554 2756 2554 3329 
C 2554 3820 2048 4179 1472 4179 
C 890 4179 378 3829 378 3329 
C 378 3110 544 3072 627 3072 
C 762 3072 877 3155 877 3321 
C 877 3486 762 3569 627 3569 
C 602 3569 570 3569 544 3557 
C 730 3959 1235 4032 1459 4032 
C 1683 4032 2106 3925 2106 3320 
C 2106 3143 2080 2828 1862 2550 
C 1670 2304 1453 2304 1242 2284 
C 1210 2284 1062 2269 1037 2269 
C 992 2263 966 2257 966 2208 
C 966 2163 973 2157 1101 2157 
L 1414 2157 
z
" transform="scale(0.015625)"/>
       </defs>
       <use xlink:href="#CMR17-30" transform="scale(0.996264)"/>
       <use xlink:href="#CMR17-2e" transform="translate(45.690477 0) scale(0.996264)"/>
       <use xlink:href="#CMR17-33" transform="translate(70.561536 0) scale(0.996264)"/>
      </g>
     </g>
    </g>
    <g id="xtick_5">
     <g id="line2d_5">
      <g>
       <use xlink:href="#m03d65f4c5d" x="193.798961" y="78.181683" style="stroke: #000000; stroke-width: 0.8"/>
      </g>
     </g>
     <g id="text_5">
      <!-- 0.4 -->
      <g transform="translate(187.433921 92.100182) scale(0.1 -0.1)">
       <defs>
        <path id="CMR17-34" d="M 2150 4122 
C 2150 4256 2144 4256 2029 4256 
L 128 1254 
L 128 1088 
L 1779 1088 
L 1779 457 
C 1779 224 1766 160 1318 160 
L 1197 160 
L 1197 0 
C 1402 0 1747 0 1965 0 
C 2182 0 2528 0 2733 0 
L 2733 160 
L 2611 160 
C 2163 160 2150 224 2150 457 
L 2150 1088 
L 2803 1088 
L 2803 1254 
L 2150 1254 
L 2150 4122 
z
M 1798 3703 
L 1798 1254 
L 256 1254 
L 1798 3703 
z
" transform="scale(0.015625)"/>
       </defs>
       <use xlink:href="#CMR17-30" transform="scale(0.996264)"/>
       <use xlink:href="#CMR17-2e" transform="translate(45.690477 0) scale(0.996264)"/>
       <use xlink:href="#CMR17-34" transform="translate(70.561536 0) scale(0.996264)"/>
      </g>
     </g>
    </g>
    <g id="xtick_6">
     <g id="line2d_6">
      <g>
       <use xlink:href="#m03d65f4c5d" x="230.256555" y="78.181683" style="stroke: #000000; stroke-width: 0.8"/>
      </g>
     </g>
     <g id="text_6">
      <!-- 0.5 -->
      <g transform="translate(223.891515 92.100182) scale(0.1 -0.1)">
       <defs>
        <path id="CMR17-35" d="M 730 3692 
C 794 3666 1056 3584 1325 3584 
C 1920 3584 2246 3911 2432 4100 
C 2432 4157 2432 4192 2394 4192 
C 2387 4192 2374 4192 2323 4163 
C 2099 4058 1837 3973 1517 3973 
C 1325 3973 1037 3999 723 4139 
C 653 4171 640 4171 634 4171 
C 602 4171 595 4164 595 4037 
L 595 2203 
C 595 2089 595 2057 659 2057 
C 691 2057 704 2070 736 2114 
C 941 2401 1222 2522 1542 2522 
C 1766 2522 2246 2382 2246 1289 
C 2246 1085 2246 715 2054 421 
C 1894 159 1645 25 1370 25 
C 947 25 518 320 403 814 
C 429 807 480 795 506 795 
C 589 795 749 840 749 1038 
C 749 1210 627 1280 506 1280 
C 358 1280 262 1190 262 1011 
C 262 454 704 -128 1382 -128 
C 2042 -128 2669 440 2669 1264 
C 2669 2030 2170 2624 1549 2624 
C 1222 2624 947 2503 730 2274 
L 730 3692 
z
" transform="scale(0.015625)"/>
       </defs>
       <use xlink:href="#CMR17-30" transform="scale(0.996264)"/>
       <use xlink:href="#CMR17-2e" transform="translate(45.690477 0) scale(0.996264)"/>
       <use xlink:href="#CMR17-35" transform="translate(70.561536 0) scale(0.996264)"/>
      </g>
     </g>
    </g>
    <g id="text_7">
     <!-- Loss Rate Download [0-1] -->
     <g transform="translate(96.095812 105.50934) scale(0.1 -0.1)">
      <defs>
       <path id="CMR17-4c" d="M 3469 1615 
L 3354 1615 
C 3302 983 3219 166 2125 166 
L 1530 166 
C 1274 166 1261 197 1261 414 
L 1261 3898 
C 1261 4129 1274 4192 1760 4192 
L 1901 4192 
L 1901 4352 
C 1638 4352 1331 4352 1069 4352 
C 870 4352 512 4352 326 4352 
L 326 4192 
C 768 4192 838 4192 838 3905 
L 838 452 
C 838 166 768 166 326 166 
L 326 0 
L 3315 0 
L 3469 1615 
z
" transform="scale(0.015625)"/>
       <path id="CMR17-6f" d="M 2758 1356 
C 2758 2176 2163 2816 1466 2816 
C 768 2816 173 2176 173 1356 
C 173 551 768 -64 1466 -64 
C 2163 -64 2758 551 2758 1356 
z
M 1466 51 
C 1165 51 909 230 762 480 
C 602 767 582 1126 582 1408 
C 582 1677 595 2010 762 2298 
C 890 2509 1139 2714 1466 2714 
C 1754 2714 1997 2554 2150 2330 
C 2349 2029 2349 1607 2349 1408 
C 2349 1158 2336 775 2163 467 
C 1984 173 1709 51 1466 51 
z
" transform="scale(0.015625)"/>
       <path id="CMR17-73" d="M 1978 2697 
C 1978 2813 1971 2819 1933 2819 
C 1907 2819 1901 2813 1824 2717 
C 1805 2691 1747 2626 1728 2601 
C 1523 2819 1235 2819 1126 2819 
C 416 2819 160 2447 160 2076 
C 160 1498 813 1365 998 1325 
C 1402 1243 1542 1217 1677 1101 
C 1760 1025 1901 884 1901 654 
C 1901 384 1747 38 1158 38 
C 602 38 403 460 288 1021 
C 269 1110 269 1117 218 1117 
C 166 1117 160 1110 160 983 
L 160 63 
C 160 -51 166 -58 205 -58 
C 237 -58 243 -51 275 0 
C 314 57 410 211 448 276 
C 576 103 800 -64 1158 -64 
C 1792 -64 2131 283 2131 784 
C 2131 1112 1958 1285 1875 1362 
C 1683 1561 1459 1606 1190 1657 
C 838 1735 390 1825 390 2217 
C 390 2383 480 2737 1126 2737 
C 1811 2737 1850 2094 1862 1888 
C 1869 1856 1901 1849 1920 1849 
C 1978 1849 1978 1869 1978 1978 
L 1978 2697 
z
" transform="scale(0.015625)"/>
       <path id="CMR17-52" d="M 2509 2146 
C 3117 2268 3629 2676 3629 3186 
C 3629 3785 2950 4326 2054 4326 
L 333 4326 
L 333 4160 
C 774 4160 845 4160 845 3873 
L 845 415 
C 845 128 774 128 333 128 
L 333 -26 
C 518 -26 851 -26 1050 -26 
C 1248 -26 1581 -26 1766 -26 
L 1766 128 
C 1325 128 1254 128 1254 417 
L 1254 2112 
L 2003 2112 
C 2368 2112 2573 1964 2662 1881 
C 2918 1632 2918 1459 2918 1024 
C 2918 595 2918 377 3110 160 
C 3354 -102 3680 -128 3821 -128 
C 4294 -128 4365 396 4365 503 
C 4365 540 4365 585 4307 585 
C 4256 585 4250 547 4250 522 
C 4218 112 4032 -26 3834 -26 
C 3482 -26 3443 375 3405 764 
C 3386 898 3373 993 3360 1133 
C 3322 1452 3270 1917 2509 2146 
z
M 1984 2214 
L 1254 2214 
L 1254 3913 
C 1254 4129 1267 4160 1523 4160 
L 1990 4160 
C 2522 4160 3142 3977 3142 3190 
C 3142 2372 2464 2214 1984 2214 
z
" transform="scale(0.015625)"/>
       <path id="CMR17-61" d="M 2304 1653 
C 2304 2072 2304 2294 2035 2543 
C 1798 2752 1523 2816 1306 2816 
C 800 2816 435 2407 435 1971 
C 435 1728 627 1728 666 1728 
C 749 1728 896 1778 896 1954 
C 896 2112 774 2181 666 2181 
C 640 2181 608 2174 589 2168 
C 723 2592 1069 2714 1293 2714 
C 1613 2714 1965 2429 1965 1885 
L 1965 1600 
C 1587 1600 1133 1549 774 1357 
C 371 1133 256 813 256 570 
C 256 77 832 -64 1171 -64 
C 1523 -64 1850 139 1990 511 
C 2003 233 2182 -18 2464 -18 
C 2598 -18 2938 70 2938 567 
L 2938 920 
L 2822 920 
L 2822 562 
C 2822 178 2650 128 2566 128 
C 2304 128 2304 458 2304 738 
L 2304 1653 
z
M 1965 870 
C 1965 317 1568 38 1216 38 
C 896 38 646 275 646 570 
C 646 761 730 1100 1101 1305 
C 1408 1478 1760 1504 1965 1504 
L 1965 870 
z
" transform="scale(0.015625)"/>
       <path id="CMR17-74" d="M 966 2560 
L 1862 2560 
L 1862 2725 
L 966 2725 
L 966 3904 
L 851 3904 
C 838 3245 614 2668 70 2668 
L 70 2560 
L 627 2560 
L 627 771 
C 627 650 627 -64 1370 -64 
C 1747 -64 1965 306 1965 777 
L 1965 1140 
L 1850 1140 
L 1850 783 
C 1850 344 1677 51 1408 51 
C 1222 51 966 178 966 758 
L 966 2560 
z
" transform="scale(0.015625)"/>
       <path id="CMR17-65" d="M 2438 1472 
C 2464 1498 2464 1511 2464 1576 
C 2464 2238 2118 2816 1389 2816 
C 710 2816 173 2169 173 1383 
C 173 551 781 -64 1459 -64 
C 2176 -64 2458 607 2458 740 
C 2458 784 2419 784 2406 784 
C 2362 784 2355 771 2330 696 
C 2189 265 1837 51 1504 51 
C 1229 51 954 203 781 480 
C 582 803 582 1176 582 1472 
L 2438 1472 
z
M 589 1568 
C 634 2505 1126 2714 1382 2714 
C 1818 2714 2112 2297 2118 1568 
L 589 1568 
z
" transform="scale(0.015625)"/>
       <path id="CMR17-44" d="M 333 4352 
L 333 4186 
C 774 4186 845 4186 845 3900 
L 845 452 
C 845 166 774 166 333 166 
L 333 0 
L 2368 0 
C 3398 0 4224 943 4224 2141 
C 4224 3346 3411 4352 2368 4352 
L 333 4352 
z
M 1523 166 
C 1267 166 1254 197 1254 414 
L 1254 3938 
C 1254 4155 1267 4186 1523 4186 
L 2240 4186 
C 2771 4186 3750 3874 3750 2141 
C 3750 1242 3488 879 3366 707 
C 3213 510 2848 166 2240 166 
L 1523 166 
z
" transform="scale(0.015625)"/>
       <path id="CMR17-77" d="M 3725 2183 
C 3853 2560 4109 2560 4205 2560 
L 4205 2732 
C 4077 2732 3949 2732 3821 2732 
C 3699 2732 3424 2732 3315 2738 
L 3315 2560 
C 3514 2560 3622 2445 3622 2286 
C 3622 2241 3610 2184 3597 2140 
L 2995 407 
L 2342 2275 
C 2330 2319 2310 2370 2310 2395 
C 2310 2560 2528 2560 2630 2560 
L 2630 2738 
C 2483 2732 2214 2732 2061 2732 
C 1901 2732 1734 2732 1587 2738 
L 1587 2560 
C 1939 2560 1939 2547 2074 2149 
L 1485 451 
L 851 2281 
C 819 2363 819 2376 819 2395 
C 819 2560 1037 2560 1139 2560 
L 1139 2738 
C 986 2732 717 2732 557 2732 
C 416 2732 198 2732 64 2738 
L 64 2560 
C 346 2560 416 2541 486 2331 
L 1274 49 
C 1299 -33 1318 -52 1370 -52 
C 1414 -52 1440 -39 1472 56 
L 2131 1980 
L 2797 56 
C 2829 -39 2854 -52 2899 -52 
C 2950 -52 2970 -33 2995 50 
L 3725 2183 
z
" transform="scale(0.015625)"/>
       <path id="CMR17-6e" d="M 2656 1933 
C 2656 2259 2592 2790 1837 2790 
C 1331 2790 1069 2400 973 2144 
L 966 2144 
L 966 2790 
L 211 2720 
L 211 2554 
C 589 2554 646 2515 646 2208 
L 646 428 
C 646 184 621 153 211 153 
L 211 -13 
C 365 0 646 0 813 0 
C 979 0 1267 0 1421 -13 
L 1421 153 
C 1011 153 986 178 986 428 
L 986 1658 
C 986 2247 1344 2688 1792 2688 
C 2266 2688 2317 2266 2317 1958 
L 2317 428 
C 2317 184 2291 153 1882 153 
L 1882 -13 
C 2035 0 2317 0 2483 0 
C 2650 0 2938 0 3091 -13 
L 3091 153 
C 2682 153 2656 178 2656 428 
L 2656 1933 
z
" transform="scale(0.015625)"/>
       <path id="CMR17-6c" d="M 979 4396 
L 218 4326 
L 218 4160 
C 595 4160 653 4122 653 3817 
L 653 426 
C 653 184 627 153 218 153 
L 218 -13 
C 371 0 653 0 813 0 
C 979 0 1261 0 1414 -13 
L 1414 153 
C 1005 153 979 178 979 426 
L 979 4396 
z
" transform="scale(0.015625)"/>
       <path id="CMR17-64" d="M 1869 4326 
L 1869 4160 
C 2246 4160 2304 4122 2304 3820 
L 2304 2345 
C 2278 2377 2016 2790 1498 2790 
C 845 2790 211 2208 211 1364 
C 211 525 806 -64 1434 -64 
C 1978 -64 2259 337 2291 380 
L 2291 -63 
L 3066 -63 
L 3066 128 
C 2688 128 2630 166 2630 473 
L 2630 4396 
L 1869 4326 
z
M 2291 755 
C 2291 563 2176 390 2029 262 
C 1811 70 1594 38 1472 38 
C 1286 38 621 134 621 1356 
C 621 2612 1363 2688 1530 2688 
C 1824 2688 2061 2522 2208 2291 
C 2291 2157 2291 2138 2291 2023 
L 2291 755 
z
" transform="scale(0.015625)"/>
       <path id="CMR17-5b" d="M 1504 -1600 
L 1504 -1377 
L 902 -1377 
L 902 4544 
L 1504 4544 
L 1504 4767 
L 678 4767 
L 678 -1600 
L 1504 -1600 
z
" transform="scale(0.015625)"/>
       <path id="CMR17-2d" d="M 1632 1216 
L 1632 1496 
L 26 1496 
L 26 1216 
L 1632 1216 
z
" transform="scale(0.015625)"/>
       <path id="CMR17-5d" d="M 915 4767 
L 90 4767 
L 90 4544 
L 691 4544 
L 691 -1377 
L 90 -1377 
L 90 -1600 
L 915 -1600 
L 915 4767 
z
" transform="scale(0.015625)"/>
      </defs>
      <use xlink:href="#CMR17-4c" transform="scale(0.996264)"/>
      <use xlink:href="#CMR17-6f" transform="translate(57.381408 0) scale(0.996264)"/>
      <use xlink:href="#CMR17-73" transform="translate(103.071885 0) scale(0.996264)"/>
      <use xlink:href="#CMR17-73" transform="translate(138.873223 0) scale(0.996264)"/>
      <use xlink:href="#CMR17-52" transform="translate(204.750527 0) scale(0.996264)"/>
      <use xlink:href="#CMR17-61" transform="translate(272.541629 0) scale(0.996264)"/>
      <use xlink:href="#CMR17-74" transform="translate(318.232106 0) scale(0.996264)"/>
      <use xlink:href="#CMR17-65" transform="translate(353.512873 0) scale(0.996264)"/>
      <use xlink:href="#CMR17-44" transform="translate(424.0745 0) scale(0.996264)"/>
      <use xlink:href="#CMR17-6f" transform="translate(494.468056 0) scale(0.996264)"/>
      <use xlink:href="#CMR17-77" transform="translate(537.556079 0) scale(0.996264)"/>
      <use xlink:href="#CMR17-6e" transform="translate(604.06596 0) scale(0.996264)"/>
      <use xlink:href="#CMR17-6c" transform="translate(654.96133 0) scale(0.996264)"/>
      <use xlink:href="#CMR17-6f" transform="translate(679.832388 0) scale(0.996264)"/>
      <use xlink:href="#CMR17-61" transform="translate(725.522865 0) scale(0.996264)"/>
      <use xlink:href="#CMR17-64" transform="translate(771.213342 0) scale(0.996264)"/>
      <use xlink:href="#CMR17-5b" transform="translate(852.184679 0) scale(0.996264)"/>
      <use xlink:href="#CMR17-30" transform="translate(877.055737 0) scale(0.996264)"/>
      <use xlink:href="#CMR17-2d" transform="translate(922.746214 0) scale(0.996264)"/>
      <use xlink:href="#CMR17-31" transform="translate(952.82218 0) scale(0.996264)"/>
      <use xlink:href="#CMR17-5d" transform="translate(998.512658 0) scale(0.996264)"/>
     </g>
    </g>
   </g>
   <g id="matplotlib.axis_2">
    <g id="ytick_1">
     <g id="line2d_7">
      <path d="M 37.567091 74.62797 
L 266.4 74.62797 
" clip-path="url(#p5331c50e09)" style="fill: none; stroke: #b0b0b0; stroke-opacity: 0.7; stroke-width: 0.5; stroke-linecap: square"/>
     </g>
     <g id="line2d_8">
      <defs>
       <path id="m5ca44189f4" d="M 0 0 
L -3.5 0 
" style="stroke: #000000; stroke-width: 0.8"/>
      </defs>
      <g>
       <use xlink:href="#m5ca44189f4" x="37.567091" y="74.62797" style="stroke: #000000; stroke-width: 0.8"/>
      </g>
     </g>
     <g id="text_8">
      <!-- 0.00 -->
      <g transform="translate(12.855677 78.08722) scale(0.1 -0.1)">
       <use xlink:href="#CMR17-30" transform="scale(0.996264)"/>
       <use xlink:href="#CMR17-2e" transform="translate(45.690477 0) scale(0.996264)"/>
       <use xlink:href="#CMR17-30" transform="translate(70.561536 0) scale(0.996264)"/>
       <use xlink:href="#CMR17-30" transform="translate(116.252013 0) scale(0.996264)"/>
      </g>
     </g>
    </g>
    <g id="ytick_2">
     <g id="line2d_9">
      <path d="M 37.567091 56.859406 
L 266.4 56.859406 
" clip-path="url(#p5331c50e09)" style="fill: none; stroke: #b0b0b0; stroke-opacity: 0.7; stroke-width: 0.5; stroke-linecap: square"/>
     </g>
     <g id="line2d_10">
      <g>
       <use xlink:href="#m5ca44189f4" x="37.567091" y="56.859406" style="stroke: #000000; stroke-width: 0.8"/>
      </g>
     </g>
     <g id="text_9">
      <!-- 0.25 -->
      <g transform="translate(12.855677 60.318655) scale(0.1 -0.1)">
       <use xlink:href="#CMR17-30" transform="scale(0.996264)"/>
       <use xlink:href="#CMR17-2e" transform="translate(45.690477 0) scale(0.996264)"/>
       <use xlink:href="#CMR17-32" transform="translate(70.561536 0) scale(0.996264)"/>
       <use xlink:href="#CMR17-35" transform="translate(116.252013 0) scale(0.996264)"/>
      </g>
     </g>
    </g>
    <g id="ytick_3">
     <g id="line2d_11">
      <path d="M 37.567091 39.090842 
L 266.4 39.090842 
" clip-path="url(#p5331c50e09)" style="fill: none; stroke: #b0b0b0; stroke-opacity: 0.7; stroke-width: 0.5; stroke-linecap: square"/>
     </g>
     <g id="line2d_12">
      <g>
       <use xlink:href="#m5ca44189f4" x="37.567091" y="39.090842" style="stroke: #000000; stroke-width: 0.8"/>
      </g>
     </g>
     <g id="text_10">
      <!-- 0.50 -->
      <g transform="translate(12.855677 42.550091) scale(0.1 -0.1)">
       <use xlink:href="#CMR17-30" transform="scale(0.996264)"/>
       <use xlink:href="#CMR17-2e" transform="translate(45.690477 0) scale(0.996264)"/>
       <use xlink:href="#CMR17-35" transform="translate(70.561536 0) scale(0.996264)"/>
       <use xlink:href="#CMR17-30" transform="translate(116.252013 0) scale(0.996264)"/>
      </g>
     </g>
    </g>
    <g id="ytick_4">
     <g id="line2d_13">
      <path d="M 37.567091 21.322277 
L 266.4 21.322277 
" clip-path="url(#p5331c50e09)" style="fill: none; stroke: #b0b0b0; stroke-opacity: 0.7; stroke-width: 0.5; stroke-linecap: square"/>
     </g>
     <g id="line2d_14">
      <g>
       <use xlink:href="#m5ca44189f4" x="37.567091" y="21.322277" style="stroke: #000000; stroke-width: 0.8"/>
      </g>
     </g>
     <g id="text_11">
      <!-- 0.75 -->
      <g transform="translate(12.855677 24.781526) scale(0.1 -0.1)">
       <defs>
        <path id="CMR17-37" d="M 2886 3941 
L 2886 4081 
L 1382 4081 
C 634 4081 621 4165 595 4288 
L 480 4288 
L 294 3094 
L 410 3094 
C 429 3215 474 3540 550 3661 
C 589 3712 1062 3712 1171 3712 
L 2579 3712 
L 1869 2661 
C 1395 1954 1069 999 1069 165 
C 1069 89 1069 -128 1299 -128 
C 1530 -128 1530 89 1530 171 
L 1530 465 
C 1530 1508 1709 2196 2003 2636 
L 2886 3941 
z
" transform="scale(0.015625)"/>
       </defs>
       <use xlink:href="#CMR17-30" transform="scale(0.996264)"/>
       <use xlink:href="#CMR17-2e" transform="translate(45.690477 0) scale(0.996264)"/>
       <use xlink:href="#CMR17-37" transform="translate(70.561536 0) scale(0.996264)"/>
       <use xlink:href="#CMR17-35" transform="translate(116.252013 0) scale(0.996264)"/>
      </g>
     </g>
    </g>
    <g id="ytick_5">
     <g id="line2d_15">
      <path d="M 37.567091 3.553713 
L 266.4 3.553713 
" clip-path="url(#p5331c50e09)" style="fill: none; stroke: #b0b0b0; stroke-opacity: 0.7; stroke-width: 0.5; stroke-linecap: square"/>
     </g>
     <g id="line2d_16">
      <g>
       <use xlink:href="#m5ca44189f4" x="37.567091" y="3.553713" style="stroke: #000000; stroke-width: 0.8"/>
      </g>
     </g>
     <g id="text_12">
      <!-- 1.00 -->
      <g transform="translate(12.855677 7.012962) scale(0.1 -0.1)">
       <use xlink:href="#CMR17-31" transform="scale(0.996264)"/>
       <use xlink:href="#CMR17-2e" transform="translate(45.690477 0) scale(0.996264)"/>
       <use xlink:href="#CMR17-30" transform="translate(70.561536 0) scale(0.996264)"/>
       <use xlink:href="#CMR17-30" transform="translate(116.252013 0) scale(0.996264)"/>
      </g>
     </g>
    </g>
    <g id="text_13">
     <!-- Percentile -->
     <g transform="translate(6.918498 60.482866) rotate(-90) scale(0.1 -0.1)">
      <defs>
       <path id="CMR17-50" d="M 1267 2042 
L 2291 2042 
C 3117 2042 3718 2578 3718 3184 
C 3718 3791 3130 4352 2291 4352 
L 333 4352 
L 333 4186 
C 774 4186 845 4186 845 3899 
L 845 446 
C 845 160 774 160 333 160 
L 333 0 
C 518 0 858 0 1056 0 
C 1254 0 1594 0 1779 0 
L 1779 160 
C 1338 160 1267 160 1267 446 
L 1267 2042 
z
M 1254 2176 
L 1254 3938 
C 1254 4155 1267 4186 1523 4186 
L 2170 4186 
C 2995 4186 3232 3714 3232 3184 
C 3232 2604 2950 2176 2170 2176 
L 1254 2176 
z
" transform="scale(0.015625)"/>
       <path id="CMR17-72" d="M 960 1497 
C 960 2112 1222 2688 1702 2688 
C 1747 2688 1792 2682 1837 2662 
C 1837 2662 1696 2617 1696 2452 
C 1696 2298 1818 2234 1914 2234 
C 1990 2234 2131 2279 2131 2458 
C 2131 2663 1926 2790 1709 2790 
C 1222 2790 1011 2317 947 2093 
L 941 2093 
L 941 2790 
L 198 2720 
L 198 2554 
C 576 2554 634 2515 634 2208 
L 634 428 
C 634 184 608 153 198 153 
L 198 -13 
C 352 0 646 0 813 0 
C 998 0 1325 0 1498 -13 
L 1498 153 
C 1037 153 960 153 960 440 
L 960 1497 
z
" transform="scale(0.015625)"/>
       <path id="CMR17-63" d="M 2234 2240 
C 2112 2240 1933 2240 1933 2017 
C 1933 1838 2080 1787 2163 1787 
C 2208 1787 2394 1807 2394 2024 
C 2394 2467 1958 2803 1466 2803 
C 787 2803 211 2178 211 1363 
C 211 516 813 -64 1466 -64 
C 2259 -64 2458 677 2458 748 
C 2458 774 2451 793 2406 793 
C 2362 793 2355 787 2330 703 
C 2163 180 1798 51 1523 51 
C 1114 51 621 427 621 1369 
C 621 2338 1094 2688 1472 2688 
C 1722 2688 2093 2573 2234 2240 
z
" transform="scale(0.015625)"/>
       <path id="CMR17-69" d="M 992 3909 
C 992 4049 877 4170 730 4170 
C 589 4170 467 4056 467 3909 
C 467 3769 582 3648 730 3648 
C 870 3648 992 3763 992 3909 
z
M 243 2706 
L 243 2541 
C 602 2541 653 2502 653 2197 
L 653 427 
C 653 184 627 153 218 153 
L 218 -13 
C 371 0 646 0 806 0 
C 960 0 1222 0 1370 -13 
L 1370 153 
C 992 153 979 191 979 420 
L 979 2776 
L 243 2706 
z
" transform="scale(0.015625)"/>
      </defs>
      <use xlink:href="#CMR17-50" transform="scale(0.996264)"/>
      <use xlink:href="#CMR17-65" transform="translate(59.983847 0) scale(0.996264)"/>
      <use xlink:href="#CMR17-72" transform="translate(100.469507 0) scale(0.996264)"/>
      <use xlink:href="#CMR17-63" transform="translate(135.750275 0) scale(0.996264)"/>
      <use xlink:href="#CMR17-65" transform="translate(176.235935 0) scale(0.996264)"/>
      <use xlink:href="#CMR17-6e" transform="translate(216.721596 0) scale(0.996264)"/>
      <use xlink:href="#CMR17-74" transform="translate(265.014512 0) scale(0.996264)"/>
      <use xlink:href="#CMR17-69" transform="translate(300.295279 0) scale(0.996264)"/>
      <use xlink:href="#CMR17-6c" transform="translate(325.166338 0) scale(0.996264)"/>
      <use xlink:href="#CMR17-65" transform="translate(350.037396 0) scale(0.996264)"/>
     </g>
    </g>
   </g>
   <g id="line2d_17">
    <path d="M 47.968587 69.813118 
L 47.977962 69.668105 
L 48.108484 67.681472 
L 48.153516 67.254309 
L 48.488346 64.961202 
L 48.551333 64.594963 
L 49.034284 62.158002 
L 49.091795 61.907124 
L 49.29193 61.077353 
L 49.380716 60.728024 
L 49.845643 59.103692 
L 49.899374 58.929723 
L 50.276692 57.802049 
L 50.369332 57.531018 
L 50.578663 56.925484 
L 50.649046 56.72974 
L 50.923119 56.026913 
L 51.026627 55.769549 
L 51.364654 54.940241 
L 51.773576 54.000204 
L 51.977959 53.540146 
L 52.095429 53.293207 
L 52.288383 52.880175 
L 52.415017 52.611692 
L 52.610014 52.190088 
L 52.820237 51.765473 
L 53.183274 51.064731 
L 53.333007 50.770535 
L 54.753829 48.252728 
L 54.953505 47.923089 
L 55.121874 47.659008 
L 55.364837 47.264044 
L 55.521954 47.000658 
L 55.694647 46.730785 
L 55.814193 46.542685 
L 55.944722 46.331188 
L 56.221101 45.880397 
L 56.326365 45.730056 
L 58.364887 42.800374 
L 58.507216 42.608336 
L 58.756561 42.269663 
L 58.922249 42.068822 
L 64.854177 35.192514 
L 65.033867 35.017618 
L 65.304172 34.767899 
L 65.437756 34.63331 
L 65.603845 34.476946 
L 65.763103 34.324057 
L 66.015152 34.073643 
L 66.36362 33.731496 
L 66.556653 33.554978 
L 67.182383 32.9784 
L 67.496473 32.694165 
L 67.641644 32.562588 
L 67.904468 32.325841 
L 68.029736 32.216271 
L 68.194724 32.067783 
L 68.785506 31.533829 
L 68.936402 31.394375 
L 69.098246 31.237085 
L 69.259196 31.098326 
L 69.630264 30.786293 
L 69.928909 30.528003 
L 70.107991 30.376272 
L 70.30647 30.218287 
L 71.37476 29.347976 
L 71.671703 29.110303 
L 71.783431 29.023203 
L 72.202196 28.685688 
L 72.36482 28.553647 
L 72.590862 28.37157 
L 72.854448 28.16934 
L 74.725057 26.767623 
L 74.9266 26.617977 
L 75.04601 26.526939 
L 76.157513 25.709908 
L 76.45147 25.489145 
L 76.9168 25.146535 
L 77.363781 24.832185 
L 78.378392 24.104108 
L 78.571753 23.969519 
L 78.810879 23.797635 
L 79.104415 23.598879 
L 79.344142 23.424678 
L 79.58871 23.270862 
L 79.940324 23.038748 
L 80.073897 22.94354 
L 80.431395 22.697527 
L 80.560427 22.607415 
L 80.795325 22.456611 
L 81.047053 22.280788 
L 81.343799 22.09014 
L 88.269328 17.846306 
L 88.555124 17.682529 
L 88.675384 17.617436 
L 91.207995 16.275485 
L 91.603252 16.075803 
L 91.933452 15.912721 
L 95.633379 14.242754 
L 95.745091 14.189243 
L 96.112782 14.042145 
L 96.226509 13.994656 
L 96.642018 13.818834 
L 97.80306 13.368042 
L 97.946977 13.314531 
L 99.263544 12.816483 
L 99.458471 12.744671 
L 100.527424 12.362216 
L 100.65177 12.317971 
L 106.541674 10.418439 
L 107.138363 10.247017 
L 110.160859 9.414466 
L 111.233807 9.133938 
L 111.608081 9.038266 
L 112.480273 8.823294 
L 112.650654 8.786925 
L 113.134453 8.672258 
L 118.687391 7.529759 
L 119.687058 7.359264 
L 119.802426 7.338416 
L 125.396258 6.421081 
L 126.480098 6.277457 
L 126.629652 6.255219 
L 129.033636 5.956853 
L 129.147573 5.942723 
L 135.287756 5.274875 
L 136.596186 5.153722 
L 138.01749 5.030252 
L 140.049971 4.872961 
L 141.943932 4.745554 
L 144.624067 4.567183 
L 146.109204 4.482631 
L 151.777526 4.192141 
L 155.612272 4.043653 
L 165.250263 3.797872 
L 176.740214 3.647068 
L 226.584961 3.554176 
L 255.998504 3.553713 
L 255.998504 3.553713 
" clip-path="url(#p5331c50e09)" style="fill: none; stroke: #1f77b4; stroke-width: 1.5; stroke-linecap: square"/>
   </g>
   <g id="line2d_18">
    <path d="M 47.968587 69.221751 
L 47.974419 68.980849 
L 48.171139 61.652272 
L 48.195447 61.318896 
L 48.312833 60.004825 
L 48.767021 56.604055 
L 48.866732 55.982032 
L 49.008865 55.187458 
L 49.07699 54.830461 
L 49.305152 53.691622 
L 49.682642 52.013183 
L 49.794199 51.559691 
L 52.199345 44.417403 
L 52.336387 44.102287 
L 52.460917 43.816321 
L 52.541932 43.627352 
L 52.905184 42.838809 
L 53.126648 42.384814 
L 53.254065 42.133526 
L 54.035698 40.677561 
L 54.134962 40.502831 
L 54.442091 39.962896 
L 54.590553 39.712278 
L 54.692222 39.54559 
L 55.500377 38.309753 
L 55.640279 38.118439 
L 55.782168 37.911042 
L 56.027443 37.555218 
L 56.158644 37.356532 
L 56.281629 37.185656 
L 56.488789 36.914767 
L 56.603337 36.763157 
L 56.902898 36.372654 
L 57.008184 36.236791 
L 57.456595 35.6729 
L 57.61706 35.467513 
L 57.848152 35.184898 
L 58.14962 34.836444 
L 58.431297 34.511445 
L 58.546536 34.372901 
L 58.658156 34.252618 
L 58.790812 34.115414 
L 58.918941 33.978881 
L 59.26383 33.609989 
L 60.231603 32.605506 
L 60.39548 32.445686 
L 60.556382 32.291898 
L 62.191087 30.828896 
L 62.372573 30.668574 
L 62.515791 30.54628 
L 62.699932 30.392324 
L 62.925635 30.21391 
L 63.134546 30.041023 
L 63.290294 29.911526 
L 63.671053 29.606797 
L 63.806046 29.500585 
L 64.111904 29.264039 
L 64.250421 29.153807 
L 64.520548 28.942725 
L 64.656187 28.834168 
L 64.917299 28.639001 
L 65.268678 28.367777 
L 65.489483 28.194891 
L 65.617644 28.102752 
L 65.876228 27.916296 
L 66.032451 27.791489 
L 66.358168 27.545896 
L 66.484303 27.459286 
L 68.173568 26.258462 
L 68.442635 26.073849 
L 68.877536 25.778836 
L 69.108325 25.621864 
L 69.6091 25.281285 
L 70.931689 24.385693 
L 71.078708 24.285177 
L 71.316974 24.131389 
L 71.522339 23.990835 
L 71.907802 23.734688 
L 72.432334 23.386402 
L 72.552887 23.313026 
L 72.774735 23.168787 
L 72.922387 23.081003 
L 79.051931 19.304975 
L 79.307568 19.165929 
L 79.968199 18.799886 
L 80.274704 18.63437 
L 82.213599 17.579461 
L 82.50087 17.441085 
L 82.705673 17.340067 
L 83.126427 17.113908 
L 83.310166 17.020596 
L 83.742977 16.793599 
L 83.943873 16.693921 
L 84.315405 16.513831 
L 84.788858 16.2803 
L 86.258193 15.588084 
L 86.50597 15.465958 
L 87.894745 14.852647 
L 88.357417 14.649606 
L 88.692642 14.505031 
L 89.575396 14.13882 
L 89.710887 14.082364 
L 90.382317 13.81382 
L 90.60167 13.715818 
L 91.185899 13.482957 
L 91.308682 13.437893 
L 91.924136 13.190457 
L 92.262582 13.055599 
L 93.017096 12.772816 
L 93.537931 12.582172 
L 94.473858 12.231876 
L 95.235455 11.975729 
L 95.359381 11.931 
L 105.100283 9.059945 
L 105.808189 8.88086 
L 105.980907 8.833283 
L 114.521117 7.058349 
L 115.705374 6.857988 
L 129.24678 5.227126 
L 131.568078 5.024923 
L 133.72885 4.868454 
L 135.423269 4.7408 
L 136.643796 4.663403 
L 143.989961 4.282784 
L 144.894126 4.246096 
L 149.218964 4.084769 
L 150.305915 4.054112 
L 182.464665 3.607154 
L 229.891278 3.553713 
L 229.891278 3.553713 
" clip-path="url(#p5331c50e09)" style="fill: none; stroke-dasharray: 1.5,2.475; stroke-dashoffset: 0; stroke: #ff7f0e; stroke-width: 1.5"/>
   </g>
   <g id="line2d_19">
    <path d="M 47.968587 70.883727 
L 47.97749 70.679037 
L 48.146462 68.077198 
L 49.028942 61.983263 
L 49.113838 61.503553 
L 49.262436 60.676002 
L 49.42111 59.840205 
L 49.486913 59.498589 
L 49.86187 57.623239 
L 50.104874 56.471266 
L 50.330544 55.422299 
L 50.526089 54.550636 
L 50.778202 53.456546 
L 50.891009 52.982982 
L 51.020863 52.433642 
L 51.187242 51.75002 
L 51.870095 49.091698 
L 51.995263 48.626303 
L 52.861884 45.585598 
L 53.036409 45.012685 
L 54.706497 40.075235 
L 54.763328 39.930295 
L 54.860497 39.67418 
L 55.124507 38.985346 
L 55.218322 38.747825 
L 55.332927 38.462068 
L 57.344513 33.976865 
L 57.435119 33.794115 
L 57.752118 33.184869 
L 57.831727 33.029271 
L 57.988321 32.730911 
L 58.089355 32.539447 
L 58.407182 31.960154 
L 58.523309 31.75173 
L 58.708941 31.420538 
L 58.876127 31.136027 
L 59.090793 30.762357 
L 59.220983 30.540162 
L 59.344861 30.331661 
L 59.48608 30.095151 
L 59.739532 29.682504 
L 59.871485 29.476103 
L 59.990534 29.289151 
L 60.390212 28.667924 
L 60.552568 28.42309 
L 60.917343 27.887442 
L 61.046196 27.70018 
L 61.228591 27.44671 
L 63.551231 24.494385 
L 63.700782 24.311168 
L 64.006608 23.967373 
L 64.166751 23.784 
L 64.343237 23.5825 
L 64.579821 23.326463 
L 64.734371 23.159973 
L 64.879231 23.003518 
L 65.05155 22.819368 
L 65.237199 22.628293 
L 65.371883 22.486231 
L 65.595583 22.258046 
L 67.043598 20.857582 
L 67.442316 20.503518 
L 67.563224 20.390476 
L 68.223497 19.810327 
L 68.38469 19.672389 
L 68.680348 19.423743 
L 68.794798 19.326572 
L 70.29145 18.139744 
L 70.408848 18.052921 
L 70.620187 17.889931 
L 70.87452 17.695822 
L 71.269315 17.407031 
L 71.416783 17.300213 
L 71.629693 17.150061 
L 72.12646 16.80471 
L 72.429518 16.598075 
L 73.256776 16.049357 
L 73.496263 15.891892 
L 73.758192 15.721667 
L 74.612702 15.193644 
L 74.731633 15.120434 
L 74.934806 14.998056 
L 75.251939 14.809627 
L 75.433063 14.704209 
L 75.693981 14.546198 
L 75.816571 14.472834 
L 76.061372 14.332562 
L 76.212337 14.247761 
L 76.619081 14.022065 
L 78.392043 13.086452 
L 78.599638 12.9808 
L 79.024569 12.771987 
L 79.16586 12.698778 
L 80.196101 12.21829 
L 80.344826 12.150371 
L 84.613887 10.449758 
L 84.982897 10.320145 
L 85.37669 10.188664 
L 85.913267 10.011126 
L 86.310761 9.879256 
L 86.788002 9.727237 
L 89.543378 8.91937 
L 90.713727 8.619142 
L 92.705899 8.134142 
L 92.934981 8.080927 
L 93.668769 7.920116 
L 93.934988 7.8599 
L 94.53394 7.729664 
L 95.437995 7.543101 
L 96.725305 7.287375 
L 96.840548 7.262791 
L 97.689842 7.099801 
L 97.834845 7.074439 
L 98.211986 7.006053 
L 99.329346 6.807432 
L 99.661887 6.748538 
L 101.750525 6.406377 
L 103.055812 6.213435 
L 104.135826 6.064449 
L 104.249193 6.0471 
L 105.42735 5.89228 
L 105.715765 5.854858 
L 107.797305 5.611113 
L 109.088783 5.469519 
L 110.220902 5.351653 
L 111.630362 5.212937 
L 116.771866 4.78403 
L 119.203454 4.625086 
L 119.78591 4.586731 
L 124.620333 4.333572 
L 127.922166 4.192444 
L 136.880483 3.93703 
L 137.067869 3.932128 
L 149.241348 3.731562 
L 216.62256 3.554413 
L 237.6884 3.553713 
L 237.6884 3.553713 
" clip-path="url(#p5331c50e09)" style="fill: none; stroke-dasharray: 5.55,2.4; stroke-dashoffset: 0; stroke: #2ca02c; stroke-width: 1.5"/>
   </g>
   <g id="line2d_20">
    <path d="M 47.968587 68.696941 
L 47.977054 68.343991 
L 48.431246 62.326644 
L 48.500177 61.789012 
L 48.621702 60.883471 
L 49.771023 54.031807 
L 49.983043 53.003012 
L 50.136855 52.2897 
L 51.867964 45.604847 
L 51.93673 45.375946 
L 53.195805 41.422941 
L 53.273194 41.193776 
L 53.666651 40.076677 
L 53.807202 39.704928 
L 55.185542 36.27155 
L 55.250902 36.12857 
L 57.325941 31.930778 
L 57.495594 31.642302 
L 57.830058 31.049067 
L 57.956646 30.831684 
L 58.211843 30.408171 
L 58.417309 30.068064 
L 58.540124 29.87941 
L 58.620872 29.749403 
L 59.31151 28.668314 
L 59.426766 28.504417 
L 59.579822 28.284254 
L 59.767562 28.016695 
L 60.164918 27.467678 
L 60.309249 27.271213 
L 60.523174 26.989356 
L 60.681998 26.778196 
L 61.036194 26.329397 
L 61.198273 26.127371 
L 61.338506 25.958046 
L 61.723865 25.493095 
L 61.906759 25.279949 
L 65.814106 21.333034 
L 66.011318 21.166753 
L 66.12525 21.073419 
L 66.362242 20.878145 
L 66.862094 20.459531 
L 67.053513 20.313638 
L 67.299464 20.113466 
L 67.632066 19.85438 
L 67.807148 19.720668 
L 68.01906 19.567361 
L 68.285162 19.362423 
L 68.418392 19.265249 
L 68.62438 19.123063 
L 69.495418 18.499246 
L 69.644478 18.396909 
L 70.07399 18.101946 
L 70.218845 18.006362 
L 71.267661 17.33965 
L 71.383101 17.263527 
L 71.661838 17.09526 
L 71.787672 17.02099 
L 72.018172 16.881584 
L 72.677661 16.483093 
L 72.825325 16.393466 
L 73.128096 16.211298 
L 73.277898 16.121671 
L 73.875928 15.770046 
L 74.24108 15.569211 
L 74.503225 15.4306 
L 74.642128 15.354874 
L 75.205683 15.054748 
L 75.36005 14.973858 
L 82.123552 11.930763 
L 82.551646 11.763158 
L 82.788033 11.67459 
L 89.965054 9.362812 
L 90.820698 9.130205 
L 91.153117 9.044814 
L 96.538819 7.816773 
L 97.835477 7.568146 
L 97.964026 7.542198 
L 98.253365 7.485668 
L 99.640041 7.234923 
L 99.96114 7.17601 
L 101.634337 6.900641 
L 101.858185 6.865028 
L 104.652911 6.425099 
L 105.762742 6.268086 
L 107.159778 6.076254 
L 108.4638 5.909179 
L 114.025439 5.31409 
L 116.693145 5.080423 
L 131.133628 4.231412 
L 135.718276 4.074134 
L 153.954313 3.720523 
L 163.040835 3.640692 
L 221.972024 3.553845 
L 230.73157 3.553713 
L 230.73157 3.553713 
" clip-path="url(#p5331c50e09)" style="fill: none; stroke-dasharray: 9.6,2.4,1.5,2.4; stroke-dashoffset: 0; stroke: #d62728; stroke-width: 1.5"/>
   </g>
   <g id="line2d_21">
    <path d="M 47.968587 67.97951 
L 47.978917 67.382932 
L 48.207078 62.230529 
L 48.452433 59.53209 
L 48.727083 57.045837 
L 48.759313 56.792137 
L 48.943768 55.39756 
L 49.14142 53.993756 
L 49.257256 53.251109 
L 49.363749 52.597641 
L 49.63274 51.12311 
L 49.676165 50.892474 
L 49.914575 49.676255 
L 50.026247 49.121191 
L 50.162775 48.523076 
L 50.350877 47.708163 
L 50.411985 47.445238 
L 50.679969 46.344337 
L 50.818883 45.781585 
L 51.183031 44.420834 
L 51.263586 44.148684 
L 53.770643 36.834455 
L 53.926644 36.442374 
L 54.055161 36.09027 
L 54.249243 35.64745 
L 54.343429 35.421426 
L 54.74041 34.443531 
L 54.807927 34.294386 
L 54.950562 33.946895 
L 55.010997 33.799288 
L 55.307299 33.164271 
L 55.40426 32.962849 
L 55.519992 32.730676 
L 56.523395 30.814861 
L 56.704921 30.502734 
L 56.904436 30.141405 
L 57.568633 29.086631 
L 57.757197 28.774503 
L 57.990752 28.416249 
L 58.135472 28.202527 
L 58.252982 28.059533 
L 58.368977 27.899625 
L 58.639031 27.558284 
L 58.784578 27.350712 
L 59.039047 27.020134 
L 59.981076 25.877718 
L 60.157477 25.694747 
L 60.911651 24.84447 
L 61.073526 24.678412 
L 61.29675 24.460077 
L 61.445693 24.30632 
L 61.562713 24.172551 
L 61.746141 24.001881 
L 61.907166 23.852736 
L 62.152031 23.625175 
L 62.273906 23.529846 
L 62.696794 23.19158 
L 62.808067 23.050124 
L 63.10285 22.804112 
L 63.638053 22.329002 
L 63.914219 22.129118 
L 64.321754 21.78624 
L 64.51196 21.620182 
L 64.673734 21.497176 
L 64.980877 21.286529 
L 65.132932 21.166598 
L 68.042763 19.243096 
L 68.260416 19.097026 
L 68.473844 18.957107 
L 68.751396 18.766448 
L 69.442577 18.37283 
L 74.159383 15.840449 
L 74.568127 15.652866 
L 74.677767 15.611351 
L 76.228676 14.870241 
L 76.522252 14.722635 
L 76.64355 14.656519 
L 76.995787 14.499687 
L 77.272142 14.341317 
L 77.498988 14.229074 
L 77.856948 14.055328 
L 78.054284 13.964612 
L 78.392597 13.804704 
L 79.478666 13.304993 
L 80.78022 12.74993 
L 81.194532 12.599248 
L 81.584348 12.42704 
L 83.287272 11.785872 
L 83.567425 11.661329 
L 86.788174 10.568116 
L 86.925101 10.525064 
L 87.732913 10.29289 
L 87.860356 10.245225 
L 88.643197 9.989989 
L 88.844389 9.91926 
L 89.971813 9.650185 
L 90.616176 9.481052 
L 90.852753 9.416474 
L 91.451401 9.262717 
L 91.57659 9.224278 
L 99.905182 7.408405 
L 100.448857 7.279249 
L 106.695235 6.232163 
L 107.831118 6.041504 
L 110.92496 5.630972 
L 117.115147 4.948291 
L 118.877229 4.796071 
L 119.218692 4.769932 
L 121.678467 4.596187 
L 121.954562 4.582348 
L 124.421435 4.411678 
L 124.517649 4.405528 
L 127.776576 4.264071 
L 131.470274 4.096476 
L 158.127566 3.639817 
L 216.557949 3.55525 
L 230.795703 3.553713 
L 230.795703 3.553713 
" clip-path="url(#p5331c50e09)" style="fill: none; stroke: #9467bd; stroke-width: 1.5; stroke-linecap: square"/>
   </g>
   <g id="line2d_22">
    <path d="M 47.968587 67.653757 
L 47.976843 67.053363 
L 48.129383 60.459757 
L 48.77628 54.045732 
L 48.835743 53.670486 
L 49.340598 50.545223 
L 49.384928 50.325436 
L 49.549131 49.427527 
L 49.68903 48.663633 
L 49.843388 47.89974 
L 50.154509 46.463084 
L 50.271314 45.980625 
L 51.112877 42.689182 
L 51.710769 40.684297 
L 51.835292 40.30369 
L 51.973645 39.89628 
L 52.138995 39.437944 
L 52.436526 38.647247 
L 52.55889 38.333649 
L 52.819183 37.567075 
L 52.90565 37.333887 
L 55.472824 32.107247 
L 55.622041 31.900862 
L 55.733439 31.689116 
L 55.980299 31.300468 
L 56.364411 30.630386 
L 56.494081 30.434722 
L 56.595938 30.281944 
L 56.836276 29.920099 
L 56.94474 29.751239 
L 57.157752 29.400116 
L 57.34378 29.183009 
L 57.580778 28.928378 
L 57.726921 28.735394 
L 57.896994 28.547771 
L 58.066737 28.352107 
L 58.294585 28.062632 
L 58.741378 27.513165 
L 61.003225 25.055304 
L 61.123642 24.915927 
L 61.233936 24.77923 
L 62.067009 23.996574 
L 62.186623 23.87596 
L 62.569601 23.522156 
L 62.918127 23.205878 
L 63.048269 23.087943 
L 63.190229 22.940525 
L 63.391916 22.755583 
L 64.717016 21.704894 
L 64.972427 21.522632 
L 65.124552 21.407378 
L 66.358314 20.479984 
L 66.578948 20.324525 
L 67.242353 19.868869 
L 67.611175 19.608878 
L 68.067946 19.324763 
L 68.557954 18.965599 
L 68.674578 18.89323 
L 69.155334 18.593033 
L 69.473118 18.408091 
L 69.621247 18.31964 
L 70.02268 18.07841 
L 70.697511 17.630796 
L 70.981089 17.486058 
L 71.153161 17.357402 
L 71.642513 17.046484 
L 71.830958 16.93123 
L 72.110096 16.773091 
L 73.180439 16.100328 
L 73.529601 15.910025 
L 73.679878 15.829615 
L 74.252344 15.548181 
L 74.358689 15.494574 
L 77.91071 13.704115 
L 78.187598 13.567418 
L 78.611815 13.374435 
L 79.121243 13.17341 
L 79.232764 13.130525 
L 84.252076 11.069353 
L 84.713887 10.913894 
L 84.847198 10.841525 
L 89.307775 9.319098 
L 90.532274 8.997459 
L 90.684604 8.959934 
L 94.322539 8.043262 
L 94.987115 7.914607 
L 95.51109 7.764508 
L 97.050017 7.45627 
L 97.177177 7.432147 
L 97.869633 7.257926 
L 98.00954 7.225762 
L 100.214831 6.837115 
L 101.202691 6.649492 
L 101.349926 6.620008 
L 102.07422 6.464549 
L 102.29978 6.427024 
L 103.500818 6.196516 
L 103.776503 6.132188 
L 106.640186 5.748902 
L 109.217886 5.483549 
L 109.795255 5.41118 
L 116.372266 4.842951 
L 116.823773 4.810787 
L 119.232752 4.660688 
L 119.547897 4.639246 
L 123.003076 4.465024 
L 125.185143 4.357811 
L 138.990719 3.912877 
L 174.683334 3.580516 
L 203.566842 3.553713 
L 203.566842 3.553713 
" clip-path="url(#p5331c50e09)" style="fill: none; stroke-dasharray: 1.5,2.475; stroke-dashoffset: 0; stroke: #8c564b; stroke-width: 1.5"/>
   </g>
   <g id="line2d_23">
    <path d="M 47.968587 71.135451 
L 47.997682 69.613259 
L 48.13126 65.235125 
L 48.269191 63.44059 
L 48.418861 62.104177 
L 48.768423 59.675062 
L 48.844292 59.216274 
L 49.017203 58.199481 
L 49.112476 57.682761 
L 49.61509 55.279615 
L 49.709768 54.874763 
L 49.873318 54.212216 
L 49.990238 53.747435 
L 50.270934 52.605458 
L 51.785329 47.340378 
L 51.909528 46.96216 
L 54.233611 41.340836 
L 54.319718 41.177697 
L 54.561752 40.713581 
L 54.633354 40.551773 
L 54.806619 40.238812 
L 55.313603 39.319903 
L 55.408997 39.152768 
L 55.5263 38.933695 
L 55.619067 38.781209 
L 55.742078 38.592101 
L 55.854175 38.42097 
L 56.081182 38.077379 
L 56.253033 37.81236 
L 56.565108 37.336925 
L 56.886093 36.863487 
L 57.097193 36.559847 
L 57.235558 36.355424 
L 57.434383 36.073092 
L 57.523308 35.941915 
L 57.660124 35.756801 
L 58.642826 34.374443 
L 58.776352 34.17801 
L 61.606189 30.922542 
L 61.75992 30.758071 
L 62.055539 30.453766 
L 64.497994 28.067267 
L 64.709096 27.862843 
L 65.055242 27.544554 
L 65.296141 27.332806 
L 65.438875 27.200296 
L 66.085678 26.661603 
L 66.27604 26.493802 
L 68.194235 24.970278 
L 68.469983 24.775177 
L 68.983395 24.40495 
L 69.207666 24.225163 
L 69.457656 24.024069 
L 69.573886 23.940168 
L 69.894064 23.706446 
L 70.028456 23.606564 
L 70.346758 23.358193 
L 71.294527 22.693649 
L 71.515901 22.556478 
L 71.686818 22.454599 
L 72.06961 22.176929 
L 73.746273 21.054928 
L 74.027547 20.865819 
L 74.194163 20.751289 
L 76.654707 19.307004 
L 76.96449 19.131213 
L 77.074589 19.073282 
L 77.346002 18.932782 
L 77.741857 18.704386 
L 77.948306 18.583863 
L 78.377347 18.335491 
L 78.802956 18.081126 
L 79.137841 17.903338 
L 79.363809 17.782148 
L 79.965529 17.465191 
L 80.093108 17.405262 
L 80.245788 17.322694 
L 80.477985 17.188853 
L 80.591157 17.124929 
L 81.197616 16.779339 
L 81.313128 16.716081 
L 81.700974 16.527638 
L 86.584439 14.235028 
L 87.191902 13.988653 
L 87.311758 13.948701 
L 87.834355 13.73096 
L 91.786293 12.222751 
L 92.272774 12.052286 
L 92.726486 11.893142 
L 93.454577 11.657422 
L 99.535802 9.827595 
L 100.273897 9.647143 
L 101.636425 9.309544 
L 101.778295 9.267594 
L 102.540058 9.103122 
L 103.939062 8.784834 
L 105.175296 8.503168 
L 105.315436 8.479862 
L 106.417081 8.260123 
L 106.529533 8.23815 
L 107.783094 8.011086 
L 108.514532 7.873915 
L 110.397191 7.532321 
L 114.709203 6.843805 
L 115.969853 6.656694 
L 116.405349 6.600095 
L 117.185404 6.498882 
L 119.194065 6.256503 
L 119.328551 6.237858 
L 120.571341 6.096693 
L 123.43786 5.738452 
L 125.901129 5.504063 
L 126.765383 5.42549 
L 128.376156 5.275668 
L 128.49676 5.26568 
L 137.687056 4.668389 
L 140.380387 4.52456 
L 145.767131 4.308816 
L 146.740046 4.259541 
L 186.766444 3.619635 
L 219.121212 3.553713 
L 219.121212 3.553713 
" clip-path="url(#p5331c50e09)" style="fill: none; stroke-dasharray: 5.55,2.4; stroke-dashoffset: 0; stroke: #e377c2; stroke-width: 1.5"/>
   </g>
   <g id="patch_3">
    <path d="M 37.567091 78.181683 
L 37.567091 0 
" style="fill: none; stroke: #000000; stroke-width: 0.8; stroke-linejoin: miter; stroke-linecap: square"/>
   </g>
   <g id="patch_4">
    <path d="M 266.4 78.181683 
L 266.4 0 
" style="fill: none; stroke: #000000; stroke-width: 0.8; stroke-linejoin: miter; stroke-linecap: square"/>
   </g>
   <g id="patch_5">
    <path d="M 37.567091 78.181683 
L 266.4 78.181683 
" style="fill: none; stroke: #000000; stroke-width: 0.8; stroke-linejoin: miter; stroke-linecap: square"/>
   </g>
   <g id="patch_6">
    <path d="M 37.567091 0 
L 266.4 0 
" style="fill: none; stroke: #000000; stroke-width: 0.8; stroke-linejoin: miter; stroke-linecap: square"/>
   </g>
   <g id="legend_1">
    <g id="patch_7">
     <path d="M 144.156082 74.016683 
L 262.235 74.016683 
L 262.235 36.074606 
L 144.156082 36.074606 
z
" style="fill: #ffffff; opacity: 0.8; stroke: #000000; stroke-linejoin: miter"/>
    </g>
    <g id="line2d_24">
     <path d="M 147.488082 42.322106 
L 151.653082 42.322106 
L 155.818082 42.322106 
" style="fill: none; stroke: #9467bd; stroke-width: 1.5; stroke-linecap: square"/>
    </g>
    <g id="text_14">
     <!-- Dublin -->
     <g transform="translate(158.317082 45.237606) scale(0.0833 -0.0833)">
      <defs>
       <path id="CMR17-75" d="M 1882 2693 
L 1882 2528 
C 2259 2528 2317 2489 2317 2186 
L 2317 1032 
C 2317 500 2029 38 1555 38 
C 1030 38 986 348 986 678 
L 986 2763 
L 211 2693 
L 211 2528 
C 467 2528 640 2528 646 2274 
L 646 1058 
C 646 633 646 361 813 183 
C 896 101 1056 -64 1517 -64 
C 2061 -64 2272 377 2323 506 
L 2330 506 
L 2330 -63 
L 3091 -63 
L 3091 128 
C 2714 128 2656 166 2656 473 
L 2656 2763 
L 1882 2693 
z
" transform="scale(0.015625)"/>
       <path id="CMR17-62" d="M 960 4396 
L 198 4326 
L 198 4160 
C 576 4160 634 4122 634 3817 
L 634 -13 
L 749 -13 
L 934 441 
C 1120 141 1395 -64 1766 -64 
C 2406 -64 3053 500 3053 1370 
C 3053 2188 2477 2790 1830 2790 
C 1434 2790 1152 2579 960 2330 
L 960 4396 
z
M 973 2004 
C 973 2118 973 2138 1062 2272 
C 1312 2657 1670 2688 1792 2688 
C 1984 2688 2643 2585 2643 1376 
C 2643 108 1888 38 1734 38 
C 1536 38 1248 114 1043 486 
C 973 608 973 621 973 735 
L 973 2004 
z
" transform="scale(0.015625)"/>
      </defs>
      <use xlink:href="#CMR17-44" transform="scale(0.996264)"/>
      <use xlink:href="#CMR17-75" transform="translate(70.393556 0) scale(0.996264)"/>
      <use xlink:href="#CMR17-62" transform="translate(121.288926 0) scale(0.996264)"/>
      <use xlink:href="#CMR17-6c" transform="translate(172.184295 0) scale(0.996264)"/>
      <use xlink:href="#CMR17-69" transform="translate(197.055354 0) scale(0.996264)"/>
      <use xlink:href="#CMR17-6e" transform="translate(221.926412 0) scale(0.996264)"/>
     </g>
    </g>
    <g id="line2d_25">
     <path d="M 147.488082 50.266576 
L 151.653082 50.266576 
L 155.818082 50.266576 
" style="fill: none; stroke-dasharray: 1.5,2.475; stroke-dashoffset: 0; stroke: #8c564b; stroke-width: 1.5"/>
    </g>
    <g id="text_15">
     <!-- Lagos -->
     <g transform="translate(158.317082 53.182076) scale(0.0833 -0.0833)">
      <defs>
       <path id="CMR17-67" d="M 710 1164 
C 832 1068 1043 960 1299 960 
C 1805 960 2240 1357 2240 1888 
C 2240 2054 2189 2310 1997 2509 
C 2176 2692 2438 2752 2586 2752 
C 2611 2752 2650 2752 2682 2734 
C 2656 2728 2598 2703 2598 2605 
C 2598 2527 2656 2471 2739 2471 
C 2835 2471 2886 2533 2886 2614 
C 2886 2731 2790 2854 2586 2854 
C 2330 2854 2106 2738 1926 2580 
C 1734 2753 1504 2816 1299 2816 
C 794 2816 358 2419 358 1888 
C 358 1522 570 1292 634 1228 
C 442 1004 442 743 442 711 
C 442 545 506 302 723 168 
C 390 85 128 -169 128 -486 
C 128 -943 736 -1280 1466 -1280 
C 2170 -1280 2803 -956 2803 -479 
C 2803 384 1856 384 1363 384 
C 1216 384 954 384 922 391 
C 723 423 589 602 589 826 
C 589 883 589 1024 710 1164 
z
M 1299 1068 
C 736 1068 736 1760 736 1889 
C 736 2016 736 2708 1299 2708 
C 1862 2708 1862 2016 1862 1889 
C 1862 1760 1862 1068 1299 1068 
z
M 1466 -1171 
C 826 -1171 384 -835 384 -486 
C 384 -289 493 -105 634 -4 
C 794 104 858 104 1293 104 
C 1818 104 2547 104 2547 -486 
C 2547 -835 2106 -1171 1466 -1171 
z
" transform="scale(0.015625)"/>
      </defs>
      <use xlink:href="#CMR17-4c" transform="scale(0.996264)"/>
      <use xlink:href="#CMR17-61" transform="translate(57.381408 0) scale(0.996264)"/>
      <use xlink:href="#CMR17-67" transform="translate(103.071885 0) scale(0.996264)"/>
      <use xlink:href="#CMR17-6f" transform="translate(148.762362 0) scale(0.996264)"/>
      <use xlink:href="#CMR17-73" transform="translate(194.452839 0) scale(0.996264)"/>
     </g>
    </g>
    <g id="line2d_26">
     <path d="M 147.488082 58.211045 
L 151.653082 58.211045 
L 155.818082 58.211045 
" style="fill: none; stroke-dasharray: 5.55,2.4; stroke-dashoffset: 0; stroke: #e377c2; stroke-width: 1.5"/>
    </g>
    <g id="text_16">
     <!-- Manila -->
     <g transform="translate(158.317082 61.126545) scale(0.0833 -0.0833)">
      <defs>
       <path id="CMR17-4d" d="M 1338 4224 
C 1299 4320 1293 4320 1158 4320 
L 339 4320 
L 339 4160 
C 781 4160 851 4160 851 3875 
L 851 610 
C 851 451 851 153 339 153 
L 339 -13 
C 486 0 755 0 915 0 
C 1075 0 1344 0 1491 -13 
L 1491 153 
C 979 153 979 451 979 610 
L 979 4135 
L 986 4135 
L 2490 89 
C 2515 25 2528 -13 2579 -13 
C 2630 -13 2643 25 2669 89 
L 4186 4166 
L 4192 4166 
L 4192 438 
C 4192 153 4122 153 3680 153 
L 3680 -13 
C 3853 0 4198 0 4384 0 
C 4570 0 4922 0 5094 -13 
L 5094 153 
C 4653 153 4582 153 4582 438 
L 4582 3875 
C 4582 4160 4653 4160 5094 4160 
L 5094 4320 
L 4282 4320 
C 4147 4320 4141 4314 4102 4218 
L 2720 502 
L 1338 4224 
z
" transform="scale(0.015625)"/>
      </defs>
      <use xlink:href="#CMR17-4d" transform="scale(0.996264)"/>
      <use xlink:href="#CMR17-61" transform="translate(84.686941 0) scale(0.996264)"/>
      <use xlink:href="#CMR17-6e" transform="translate(130.377418 0) scale(0.996264)"/>
      <use xlink:href="#CMR17-69" transform="translate(181.272787 0) scale(0.996264)"/>
      <use xlink:href="#CMR17-6c" transform="translate(206.143846 0) scale(0.996264)"/>
      <use xlink:href="#CMR17-61" transform="translate(231.014904 0) scale(0.996264)"/>
     </g>
    </g>
    <g id="line2d_27">
     <path d="M 147.488082 66.155514 
L 151.653082 66.155514 
L 155.818082 66.155514 
" style="fill: none; stroke: #1f77b4; stroke-width: 1.5; stroke-linecap: square"/>
    </g>
    <g id="text_17">
     <!-- Mexico City -->
     <g transform="translate(158.317082 69.071014) scale(0.0833 -0.0833)">
      <defs>
       <path id="CMR17-78" d="M 1664 1477 
C 1856 1726 2074 2006 2253 2216 
C 2464 2458 2707 2560 2989 2560 
L 2989 2726 
C 2880 2726 2656 2726 2541 2726 
C 2368 2726 2170 2726 2022 2732 
L 2022 2566 
C 2112 2553 2163 2489 2163 2400 
C 2163 2285 2099 2215 2067 2171 
L 1594 1573 
L 1030 2306 
C 973 2376 973 2388 973 2420 
C 973 2497 1037 2560 1146 2560 
L 1146 2732 
C 992 2726 717 2726 557 2726 
C 384 2726 179 2726 38 2732 
L 38 2560 
C 384 2560 461 2534 614 2343 
L 1350 1395 
C 1363 1382 1395 1344 1395 1325 
C 1395 1299 838 619 768 530 
C 480 185 179 160 6 160 
L 6 0 
C 115 0 339 0 454 0 
C 582 0 864 0 979 -6 
L 979 160 
C 941 166 838 179 838 325 
C 838 440 890 510 947 586 
L 1478 1236 
L 2035 512 
C 2086 442 2163 346 2163 301 
C 2163 211 2086 160 1984 160 
L 1984 -6 
C 2138 0 2413 0 2573 0 
C 2746 0 2950 0 3091 -6 
L 3091 160 
C 2771 160 2675 172 2522 370 
L 1664 1477 
z
" transform="scale(0.015625)"/>
       <path id="CMR17-43" d="M 3974 4289 
C 3974 4403 3968 4410 3930 4410 
C 3904 4410 3898 4403 3853 4327 
L 3571 3792 
C 3258 4187 2874 4416 2381 4416 
C 1286 4416 294 3456 294 2148 
C 294 826 1286 -128 2387 -128 
C 3366 -128 3974 730 3974 1461 
C 3974 1524 3974 1550 3917 1550 
C 3866 1550 3866 1531 3859 1474 
C 3808 585 3168 38 2477 38 
C 1824 38 781 495 781 2147 
C 781 3805 1843 4250 2464 4250 
C 3187 4250 3712 3628 3834 2745 
C 3846 2668 3846 2655 3904 2655 
C 3974 2655 3974 2668 3974 2783 
L 3974 4289 
z
" transform="scale(0.015625)"/>
       <path id="CMR17-79" d="M 2496 2197 
C 2656 2586 2944 2586 3034 2586 
L 3034 2752 
C 2912 2752 2752 2752 2630 2752 
C 2496 2752 2285 2752 2157 2758 
L 2157 2592 
C 2400 2573 2406 2394 2406 2343 
C 2406 2280 2394 2248 2362 2171 
L 1664 449 
L 902 2306 
C 870 2382 870 2426 870 2433 
C 870 2573 1018 2586 1171 2586 
L 1171 2758 
C 1018 2752 742 2752 582 2752 
C 410 2752 205 2752 64 2758 
L 64 2586 
C 410 2586 448 2554 531 2350 
L 1485 15 
C 1197 -738 1030 -1178 627 -1178 
C 557 -1178 397 -1159 282 -1044 
C 429 -1031 493 -942 493 -833 
C 493 -725 416 -629 288 -629 
C 147 -629 77 -725 77 -840 
C 77 -1095 339 -1280 627 -1280 
C 998 -1280 1229 -922 1357 -604 
L 2496 2197 
z
" transform="scale(0.015625)"/>
      </defs>
      <use xlink:href="#CMR17-4d" transform="scale(0.996264)"/>
      <use xlink:href="#CMR17-65" transform="translate(84.686941 0) scale(0.996264)"/>
      <use xlink:href="#CMR17-78" transform="translate(125.172601 0) scale(0.996264)"/>
      <use xlink:href="#CMR17-69" transform="translate(173.465517 0) scale(0.996264)"/>
      <use xlink:href="#CMR17-63" transform="translate(198.336575 0) scale(0.996264)"/>
      <use xlink:href="#CMR17-6f" transform="translate(238.822236 0) scale(0.996264)"/>
      <use xlink:href="#CMR17-43" transform="translate(314.588679 0) scale(0.996264)"/>
      <use xlink:href="#CMR17-69" transform="translate(381.09856 0) scale(0.996264)"/>
      <use xlink:href="#CMR17-74" transform="translate(405.969618 0) scale(0.996264)"/>
      <use xlink:href="#CMR17-79" transform="translate(438.647932 0) scale(0.996264)"/>
     </g>
    </g>
    <g id="line2d_28">
     <path d="M 209.500997 42.322106 
L 213.665997 42.322106 
L 217.830997 42.322106 
" style="fill: none; stroke-dasharray: 5.55,2.4; stroke-dashoffset: 0; stroke: #2ca02c; stroke-width: 1.5"/>
    </g>
    <g id="text_18">
     <!-- Seattle -->
     <g transform="translate(220.329997 45.237606) scale(0.0833 -0.0833)">
      <defs>
       <path id="CMR17-53" d="M 2803 4290 
C 2803 4404 2797 4411 2758 4411 
C 2720 4411 2707 4385 2682 4328 
L 2490 3907 
C 2246 4257 1875 4416 1472 4416 
C 819 4416 294 3901 294 3253 
C 294 3056 339 2776 557 2510 
C 794 2218 1018 2167 1530 2033 
C 1722 1982 2042 1899 2106 1874 
C 2470 1722 2662 1341 2662 985 
C 2662 527 2336 38 1779 38 
C 1094 38 454 419 410 1311 
C 403 1413 397 1419 352 1419 
C 301 1419 294 1413 294 1285 
L 294 -1 
C 294 -115 301 -122 339 -122 
C 384 -122 397 -90 486 108 
C 493 127 493 140 614 381 
C 934 -39 1472 -128 1779 -128 
C 2477 -128 2970 451 2970 1124 
C 2970 1454 2848 1708 2778 1823 
C 2509 2230 2221 2306 1914 2382 
C 1869 2402 1856 2402 1498 2490 
C 1152 2579 1005 2624 845 2796 
C 666 2992 602 3196 602 3399 
C 602 3812 934 4263 1478 4263 
C 2157 4263 2579 3786 2675 2993 
C 2694 2878 2701 2872 2746 2872 
C 2803 2872 2803 2891 2803 2999 
L 2803 4290 
z
" transform="scale(0.015625)"/>
      </defs>
      <use xlink:href="#CMR17-53" transform="scale(0.996264)"/>
      <use xlink:href="#CMR17-65" transform="translate(50.89537 0) scale(0.996264)"/>
      <use xlink:href="#CMR17-61" transform="translate(91.38103 0) scale(0.996264)"/>
      <use xlink:href="#CMR17-74" transform="translate(137.071507 0) scale(0.996264)"/>
      <use xlink:href="#CMR17-74" transform="translate(172.352275 0) scale(0.996264)"/>
      <use xlink:href="#CMR17-6c" transform="translate(207.633043 0) scale(0.996264)"/>
      <use xlink:href="#CMR17-65" transform="translate(232.504101 0) scale(0.996264)"/>
     </g>
    </g>
    <g id="line2d_29">
     <path d="M 209.500997 50.266576 
L 213.665997 50.266576 
L 217.830997 50.266576 
" style="fill: none; stroke-dasharray: 9.6,2.4,1.5,2.4; stroke-dashoffset: 0; stroke: #d62728; stroke-width: 1.5"/>
    </g>
    <g id="text_19">
     <!-- Sydney -->
     <g transform="translate(220.329997 53.182076) scale(0.0833 -0.0833)">
      <use xlink:href="#CMR17-53" transform="scale(0.996264)"/>
      <use xlink:href="#CMR17-79" transform="translate(50.89537 0) scale(0.996264)"/>
      <use xlink:href="#CMR17-64" transform="translate(99.188286 0) scale(0.996264)"/>
      <use xlink:href="#CMR17-6e" transform="translate(150.083655 0) scale(0.996264)"/>
      <use xlink:href="#CMR17-65" transform="translate(200.979025 0) scale(0.996264)"/>
      <use xlink:href="#CMR17-79" transform="translate(241.464686 0) scale(0.996264)"/>
     </g>
    </g>
    <g id="line2d_30">
     <path d="M 209.500997 58.211045 
L 213.665997 58.211045 
L 217.830997 58.211045 
" style="fill: none; stroke-dasharray: 1.5,2.475; stroke-dashoffset: 0; stroke: #ff7f0e; stroke-width: 1.5"/>
    </g>
    <g id="text_20">
     <!-- So Paulo -->
     <g transform="translate(220.329997 61.126545) scale(0.0833 -0.0833)">
      <defs>
       <path id="CMR17-7e" d="M 2400 4184 
C 2182 3980 2061 3865 1862 3865 
C 1722 3865 1626 3932 1491 4024 
C 1363 4111 1261 4184 1120 4184 
C 890 4184 730 4004 461 3718 
L 531 3648 
C 749 3850 870 3968 1069 3968 
C 1210 3968 1306 3900 1440 3808 
C 1568 3722 1670 3648 1811 3648 
C 2042 3648 2202 3828 2470 4114 
L 2400 4184 
z
" transform="scale(0.015625)"/>
      </defs>
      <use xlink:href="#CMR17-53" transform="scale(0.996264)"/>
      <use xlink:href="#CMR17-7e" transform="translate(50.89537 0) scale(0.996264)"/>
      <use xlink:href="#CMR17-61" transform="translate(50.89537 0) scale(0.996264)"/>
      <use xlink:href="#CMR17-6f" transform="translate(96.585847 0) scale(0.996264)"/>
      <use xlink:href="#CMR17-50" transform="translate(172.35229 0) scale(0.996264)"/>
      <use xlink:href="#CMR17-61" transform="translate(232.336137 0) scale(0.996264)"/>
      <use xlink:href="#CMR17-75" transform="translate(278.026614 0) scale(0.996264)"/>
      <use xlink:href="#CMR17-6c" transform="translate(328.921984 0) scale(0.996264)"/>
      <use xlink:href="#CMR17-6f" transform="translate(353.793042 0) scale(0.996264)"/>
     </g>
    </g>
   </g>
  </g>
 </g>
 <defs>
  <clipPath id="p5331c50e09">
   <rect x="37.567091" y="0" width="228.832909" height="78.181683"/>
  </clipPath>
 </defs>
</svg>
