<?xml version="1.0" encoding="utf-8" standalone="no"?>
<!DOCTYPE svg PUBLIC "-//W3C//DTD SVG 1.1//EN"
  "http://www.w3.org/Graphics/SVG/1.1/DTD/svg11.dtd">
<svg xmlns:xlink="http://www.w3.org/1999/xlink" width="200.88pt" height="103.68pt" viewBox="0 0 200.88 103.68" xmlns="http://www.w3.org/2000/svg" version="1.1">
 <metadata>
  <rdf:RDF xmlns:dc="http://purl.org/dc/elements/1.1/" xmlns:cc="http://creativecommons.org/ns#" xmlns:rdf="http://www.w3.org/1999/02/22-rdf-syntax-ns#">
   <cc:Work>
    <dc:type rdf:resource="http://purl.org/dc/dcmitype/StillImage"/>
    <dc:date>2023-10-12T13:53:31.439619</dc:date>
    <dc:format>image/svg+xml</dc:format>
    <dc:creator>
     <cc:Agent>
      <dc:title>Matplotlib v3.7.0, https://matplotlib.org/</dc:title>
     </cc:Agent>
    </dc:creator>
   </cc:Work>
  </rdf:RDF>
 </metadata>
 <defs>
  <style type="text/css">*{stroke-linejoin: round; stroke-linecap: butt}</style>
 </defs>
 <g id="figure_1">
  <g id="patch_1">
   <path d="M 0 103.68 
L 200.88 103.68 
L 200.88 -0 
L 0 -0 
z
" style="fill: #ffffff"/>
  </g>
  <g id="axes_1">
   <g id="patch_2">
    <path d="M 3.5 70.098056 
L 192.100515 70.098056 
L 192.100515 -0 
L 3.5 -0 
z
" style="fill: #ffffff"/>
   </g>
   <g id="matplotlib.axis_1">
    <g id="xtick_1">
     <g id="line2d_1">
      <defs>
       <path id="m2f28b57cbc" d="M 0 0 
L 0 3.5 
" style="stroke: #000000; stroke-width: 0.8"/>
      </defs>
      <g>
       <use xlink:href="#m2f28b57cbc" x="18.389514" y="70.098056" style="stroke: #000000; stroke-width: 0.8"/>
      </g>
     </g>
     <g id="text_1">
      <!-- 25 -->
      <g transform="translate(12.536524 85.400236) scale(0.12 -0.12)">
       <defs>
        <path id="CMR17-32" d="M 2669 989 
L 2554 989 
C 2490 536 2438 459 2413 420 
C 2381 369 1920 369 1830 369 
L 602 369 
C 832 619 1280 1072 1824 1597 
C 2214 1967 2669 2402 2669 3035 
C 2669 3790 2067 4224 1395 4224 
C 691 4224 262 3604 262 3030 
C 262 2780 448 2748 525 2748 
C 589 2748 781 2787 781 3010 
C 781 3207 614 3264 525 3264 
C 486 3264 448 3258 422 3245 
C 544 3790 915 4058 1306 4058 
C 1862 4058 2227 3617 2227 3035 
C 2227 2479 1901 2000 1536 1584 
L 262 146 
L 262 0 
L 2515 0 
L 2669 989 
z
" transform="scale(0.015625)"/>
        <path id="CMR17-35" d="M 730 3692 
C 794 3666 1056 3584 1325 3584 
C 1920 3584 2246 3911 2432 4100 
C 2432 4157 2432 4192 2394 4192 
C 2387 4192 2374 4192 2323 4163 
C 2099 4058 1837 3973 1517 3973 
C 1325 3973 1037 3999 723 4139 
C 653 4171 640 4171 634 4171 
C 602 4171 595 4164 595 4037 
L 595 2203 
C 595 2089 595 2057 659 2057 
C 691 2057 704 2070 736 2114 
C 941 2401 1222 2522 1542 2522 
C 1766 2522 2246 2382 2246 1289 
C 2246 1085 2246 715 2054 421 
C 1894 159 1645 25 1370 25 
C 947 25 518 320 403 814 
C 429 807 480 795 506 795 
C 589 795 749 840 749 1038 
C 749 1210 627 1280 506 1280 
C 358 1280 262 1190 262 1011 
C 262 454 704 -128 1382 -128 
C 2042 -128 2669 440 2669 1264 
C 2669 2030 2170 2624 1549 2624 
C 1222 2624 947 2503 730 2274 
L 730 3692 
z
" transform="scale(0.015625)"/>
       </defs>
       <use xlink:href="#CMR17-32" transform="scale(0.996264)"/>
       <use xlink:href="#CMR17-35" transform="translate(45.690477 0) scale(0.996264)"/>
      </g>
     </g>
    </g>
    <g id="xtick_2">
     <g id="line2d_2">
      <g>
       <use xlink:href="#m2f28b57cbc" x="43.205371" y="70.098056" style="stroke: #000000; stroke-width: 0.8"/>
      </g>
     </g>
     <g id="text_2">
      <!-- 50 -->
      <g transform="translate(37.352381 85.400236) scale(0.12 -0.12)">
       <defs>
        <path id="CMR17-30" d="M 2688 2025 
C 2688 2416 2682 3080 2413 3591 
C 2176 4039 1798 4198 1466 4198 
C 1158 4198 768 4058 525 3597 
C 269 3118 243 2524 243 2025 
C 243 1661 250 1106 448 619 
C 723 -39 1216 -128 1466 -128 
C 1760 -128 2208 -7 2470 600 
C 2662 1042 2688 1559 2688 2025 
z
M 1466 -26 
C 1056 -26 813 325 723 812 
C 653 1188 653 1738 653 2096 
C 653 2588 653 2997 736 3387 
C 858 3929 1216 4096 1466 4096 
C 1728 4096 2067 3923 2189 3400 
C 2272 3036 2278 2607 2278 2096 
C 2278 1680 2278 1169 2202 792 
C 2067 95 1690 -26 1466 -26 
z
" transform="scale(0.015625)"/>
       </defs>
       <use xlink:href="#CMR17-35" transform="scale(0.996264)"/>
       <use xlink:href="#CMR17-30" transform="translate(45.690477 0) scale(0.996264)"/>
      </g>
     </g>
    </g>
    <g id="xtick_3">
     <g id="line2d_3">
      <g>
       <use xlink:href="#m2f28b57cbc" x="68.021229" y="70.098056" style="stroke: #000000; stroke-width: 0.8"/>
      </g>
     </g>
     <g id="text_3">
      <!-- 75 -->
      <g transform="translate(62.168238 85.400236) scale(0.12 -0.12)">
       <defs>
        <path id="CMR17-37" d="M 2886 3941 
L 2886 4081 
L 1382 4081 
C 634 4081 621 4165 595 4288 
L 480 4288 
L 294 3094 
L 410 3094 
C 429 3215 474 3540 550 3661 
C 589 3712 1062 3712 1171 3712 
L 2579 3712 
L 1869 2661 
C 1395 1954 1069 999 1069 165 
C 1069 89 1069 -128 1299 -128 
C 1530 -128 1530 89 1530 171 
L 1530 465 
C 1530 1508 1709 2196 2003 2636 
L 2886 3941 
z
" transform="scale(0.015625)"/>
       </defs>
       <use xlink:href="#CMR17-37" transform="scale(0.996264)"/>
       <use xlink:href="#CMR17-35" transform="translate(45.690477 0) scale(0.996264)"/>
      </g>
     </g>
    </g>
    <g id="xtick_4">
     <g id="line2d_4">
      <g>
       <use xlink:href="#m2f28b57cbc" x="92.837086" y="70.098056" style="stroke: #000000; stroke-width: 0.8"/>
      </g>
     </g>
     <g id="text_4">
      <!-- 100 -->
      <g transform="translate(84.0576 85.400236) scale(0.12 -0.12)">
       <defs>
        <path id="CMR17-31" d="M 1702 4058 
C 1702 4192 1696 4192 1606 4192 
C 1357 3916 979 3827 621 3827 
C 602 3827 570 3827 563 3808 
C 557 3795 557 3782 557 3648 
C 755 3648 1088 3686 1344 3839 
L 1344 461 
C 1344 236 1331 160 781 160 
L 589 160 
L 589 0 
C 896 0 1216 0 1523 0 
C 1830 0 2150 0 2458 0 
L 2458 160 
L 2266 160 
C 1715 160 1702 230 1702 458 
L 1702 4058 
z
" transform="scale(0.015625)"/>
       </defs>
       <use xlink:href="#CMR17-31" transform="scale(0.996264)"/>
       <use xlink:href="#CMR17-30" transform="translate(45.690477 0) scale(0.996264)"/>
       <use xlink:href="#CMR17-30" transform="translate(91.380954 0) scale(0.996264)"/>
      </g>
     </g>
    </g>
    <g id="xtick_5">
     <g id="line2d_5">
      <g>
       <use xlink:href="#m2f28b57cbc" x="117.652943" y="70.098056" style="stroke: #000000; stroke-width: 0.8"/>
      </g>
     </g>
     <g id="text_5">
      <!-- 125 -->
      <g transform="translate(108.873458 85.400236) scale(0.12 -0.12)">
       <use xlink:href="#CMR17-31" transform="scale(0.996264)"/>
       <use xlink:href="#CMR17-32" transform="translate(45.690477 0) scale(0.996264)"/>
       <use xlink:href="#CMR17-35" transform="translate(91.380954 0) scale(0.996264)"/>
      </g>
     </g>
    </g>
    <g id="xtick_6">
     <g id="line2d_6">
      <g>
       <use xlink:href="#m2f28b57cbc" x="142.4688" y="70.098056" style="stroke: #000000; stroke-width: 0.8"/>
      </g>
     </g>
     <g id="text_6">
      <!-- 150 -->
      <g transform="translate(133.689315 85.400236) scale(0.12 -0.12)">
       <use xlink:href="#CMR17-31" transform="scale(0.996264)"/>
       <use xlink:href="#CMR17-35" transform="translate(45.690477 0) scale(0.996264)"/>
       <use xlink:href="#CMR17-30" transform="translate(91.380954 0) scale(0.996264)"/>
      </g>
     </g>
    </g>
    <g id="xtick_7">
     <g id="line2d_7">
      <g>
       <use xlink:href="#m2f28b57cbc" x="167.284657" y="70.098056" style="stroke: #000000; stroke-width: 0.8"/>
      </g>
     </g>
     <g id="text_7">
      <!-- 175 -->
      <g transform="translate(158.505172 85.400236) scale(0.12 -0.12)">
       <use xlink:href="#CMR17-31" transform="scale(0.996264)"/>
       <use xlink:href="#CMR17-37" transform="translate(45.690477 0) scale(0.996264)"/>
       <use xlink:href="#CMR17-35" transform="translate(91.380954 0) scale(0.996264)"/>
      </g>
     </g>
    </g>
    <g id="xtick_8">
     <g id="line2d_8">
      <g>
       <use xlink:href="#m2f28b57cbc" x="192.100515" y="70.098056" style="stroke: #000000; stroke-width: 0.8"/>
      </g>
     </g>
     <g id="text_8">
      <!-- 200 -->
      <g transform="translate(183.321029 85.400236) scale(0.12 -0.12)">
       <use xlink:href="#CMR17-32" transform="scale(0.996264)"/>
       <use xlink:href="#CMR17-30" transform="translate(45.690477 0) scale(0.996264)"/>
       <use xlink:href="#CMR17-30" transform="translate(91.380954 0) scale(0.996264)"/>
      </g>
     </g>
    </g>
    <g id="text_9">
     <!-- RTT [ms] -->
     <g transform="translate(73.13744 100.691208) scale(0.12 -0.12)">
      <defs>
       <path id="CMR17-52" d="M 2509 2146 
C 3117 2268 3629 2676 3629 3186 
C 3629 3785 2950 4326 2054 4326 
L 333 4326 
L 333 4160 
C 774 4160 845 4160 845 3873 
L 845 415 
C 845 128 774 128 333 128 
L 333 -26 
C 518 -26 851 -26 1050 -26 
C 1248 -26 1581 -26 1766 -26 
L 1766 128 
C 1325 128 1254 128 1254 417 
L 1254 2112 
L 2003 2112 
C 2368 2112 2573 1964 2662 1881 
C 2918 1632 2918 1459 2918 1024 
C 2918 595 2918 377 3110 160 
C 3354 -102 3680 -128 3821 -128 
C 4294 -128 4365 396 4365 503 
C 4365 540 4365 585 4307 585 
C 4256 585 4250 547 4250 522 
C 4218 112 4032 -26 3834 -26 
C 3482 -26 3443 375 3405 764 
C 3386 898 3373 993 3360 1133 
C 3322 1452 3270 1917 2509 2146 
z
M 1984 2214 
L 1254 2214 
L 1254 3913 
C 1254 4129 1267 4160 1523 4160 
L 1990 4160 
C 2522 4160 3142 3977 3142 3190 
C 3142 2372 2464 2214 1984 2214 
z
" transform="scale(0.015625)"/>
       <path id="CMR17-54" d="M 3981 4326 
L 288 4326 
L 179 2918 
L 294 2918 
C 378 3976 467 4160 1453 4160 
C 1568 4160 1754 4160 1805 4154 
C 1926 4135 1926 4058 1926 3912 
L 1926 459 
C 1926 230 1907 160 1376 160 
L 1197 160 
L 1197 0 
C 1504 0 1824 0 2138 0 
C 2451 0 2771 0 3078 0 
L 3078 160 
L 2899 160 
C 2368 160 2349 230 2349 459 
L 2349 3912 
C 2349 4052 2349 4129 2464 4154 
C 2515 4160 2701 4160 2816 4160 
C 3795 4160 3891 3976 3974 2918 
L 4090 2918 
L 3981 4326 
z
" transform="scale(0.015625)"/>
       <path id="CMR17-5b" d="M 1504 -1600 
L 1504 -1377 
L 902 -1377 
L 902 4544 
L 1504 4544 
L 1504 4767 
L 678 4767 
L 678 -1600 
L 1504 -1600 
z
" transform="scale(0.015625)"/>
       <path id="CMR17-6d" d="M 4326 1933 
C 4326 2252 4269 2790 3507 2790 
C 3072 2790 2771 2496 2656 2151 
L 2650 2151 
C 2573 2676 2195 2790 1837 2790 
C 1331 2790 1069 2400 973 2144 
L 966 2144 
L 966 2790 
L 211 2720 
L 211 2554 
C 589 2554 646 2515 646 2208 
L 646 428 
C 646 184 621 153 211 153 
L 211 -13 
C 365 0 646 0 813 0 
C 979 0 1267 0 1421 -13 
L 1421 153 
C 1011 153 986 178 986 428 
L 986 1658 
C 986 2247 1344 2688 1792 2688 
C 2266 2688 2317 2266 2317 1958 
L 2317 428 
C 2317 184 2291 153 1882 153 
L 1882 -13 
C 2035 0 2317 0 2483 0 
C 2650 0 2938 0 3091 -13 
L 3091 153 
C 2682 153 2656 178 2656 428 
L 2656 1658 
C 2656 2247 3014 2688 3462 2688 
C 3936 2688 3987 2266 3987 1958 
L 3987 428 
C 3987 184 3962 153 3552 153 
L 3552 -13 
C 3706 0 3987 0 4154 0 
C 4320 0 4608 0 4762 -13 
L 4762 153 
C 4352 153 4326 178 4326 428 
L 4326 1933 
z
" transform="scale(0.015625)"/>
       <path id="CMR17-73" d="M 1978 2697 
C 1978 2813 1971 2819 1933 2819 
C 1907 2819 1901 2813 1824 2717 
C 1805 2691 1747 2626 1728 2601 
C 1523 2819 1235 2819 1126 2819 
C 416 2819 160 2447 160 2076 
C 160 1498 813 1365 998 1325 
C 1402 1243 1542 1217 1677 1101 
C 1760 1025 1901 884 1901 654 
C 1901 384 1747 38 1158 38 
C 602 38 403 460 288 1021 
C 269 1110 269 1117 218 1117 
C 166 1117 160 1110 160 983 
L 160 63 
C 160 -51 166 -58 205 -58 
C 237 -58 243 -51 275 0 
C 314 57 410 211 448 276 
C 576 103 800 -64 1158 -64 
C 1792 -64 2131 283 2131 784 
C 2131 1112 1958 1285 1875 1362 
C 1683 1561 1459 1606 1190 1657 
C 838 1735 390 1825 390 2217 
C 390 2383 480 2737 1126 2737 
C 1811 2737 1850 2094 1862 1888 
C 1869 1856 1901 1849 1920 1849 
C 1978 1849 1978 1869 1978 1978 
L 1978 2697 
z
" transform="scale(0.015625)"/>
       <path id="CMR17-5d" d="M 915 4767 
L 90 4767 
L 90 4544 
L 691 4544 
L 691 -1377 
L 90 -1377 
L 90 -1600 
L 915 -1600 
L 915 4767 
z
" transform="scale(0.015625)"/>
      </defs>
      <use xlink:href="#CMR17-52" transform="scale(0.996264)"/>
      <use xlink:href="#CMR17-54" transform="translate(59.983847 0) scale(0.996264)"/>
      <use xlink:href="#CMR17-54" transform="translate(126.493727 0) scale(0.996264)"/>
      <use xlink:href="#CMR17-5b" transform="translate(223.079574 0) scale(0.996264)"/>
      <use xlink:href="#CMR17-6d" transform="translate(247.950633 0) scale(0.996264)"/>
      <use xlink:href="#CMR17-73" transform="translate(324.870222 0) scale(0.996264)"/>
      <use xlink:href="#CMR17-5d" transform="translate(360.67156 0) scale(0.996264)"/>
     </g>
    </g>
   </g>
   <g id="matplotlib.axis_2">
    <g id="ytick_1">
     <g id="line2d_9">
      <path d="M 3.5 66.911781 
L 192.100515 66.911781 
" clip-path="url(#pab0a3a6567)" style="fill: none; stroke: #b0b0b0; stroke-opacity: 0.7; stroke-width: 0.5; stroke-linecap: square"/>
     </g>
     <g id="line2d_10">
      <defs>
       <path id="m303f43f543" d="M 0 0 
L -3.5 0 
" style="stroke: #000000; stroke-width: 0.8"/>
      </defs>
      <g>
       <use xlink:href="#m303f43f543" x="3.5" y="66.911781" style="stroke: #000000; stroke-width: 0.8"/>
      </g>
     </g>
    </g>
    <g id="ytick_2">
     <g id="line2d_11">
      <path d="M 3.5 50.980405 
L 192.100515 50.980405 
" clip-path="url(#pab0a3a6567)" style="fill: none; stroke: #b0b0b0; stroke-opacity: 0.7; stroke-width: 0.5; stroke-linecap: square"/>
     </g>
     <g id="line2d_12">
      <g>
       <use xlink:href="#m303f43f543" x="3.5" y="50.980405" style="stroke: #000000; stroke-width: 0.8"/>
      </g>
     </g>
    </g>
    <g id="ytick_3">
     <g id="line2d_13">
      <path d="M 3.5 35.049028 
L 192.100515 35.049028 
" clip-path="url(#pab0a3a6567)" style="fill: none; stroke: #b0b0b0; stroke-opacity: 0.7; stroke-width: 0.5; stroke-linecap: square"/>
     </g>
     <g id="line2d_14">
      <g>
       <use xlink:href="#m303f43f543" x="3.5" y="35.049028" style="stroke: #000000; stroke-width: 0.8"/>
      </g>
     </g>
    </g>
    <g id="ytick_4">
     <g id="line2d_15">
      <path d="M 3.5 19.117652 
L 192.100515 19.117652 
" clip-path="url(#pab0a3a6567)" style="fill: none; stroke: #b0b0b0; stroke-opacity: 0.7; stroke-width: 0.5; stroke-linecap: square"/>
     </g>
     <g id="line2d_16">
      <g>
       <use xlink:href="#m303f43f543" x="3.5" y="19.117652" style="stroke: #000000; stroke-width: 0.8"/>
      </g>
     </g>
    </g>
    <g id="ytick_5">
     <g id="line2d_17">
      <path d="M 3.5 3.186275 
L 192.100515 3.186275 
" clip-path="url(#pab0a3a6567)" style="fill: none; stroke: #b0b0b0; stroke-opacity: 0.7; stroke-width: 0.5; stroke-linecap: square"/>
     </g>
     <g id="line2d_18">
      <g>
       <use xlink:href="#m303f43f543" x="3.5" y="3.186275" style="stroke: #000000; stroke-width: 0.8"/>
      </g>
     </g>
    </g>
   </g>
   <g id="line2d_19">
    <path d="M 7.23429 66.910097 
L 10.784943 66.790534 
L 11.067844 66.740014 
L 11.430155 66.628871 
L 11.585006 66.549723 
L 11.941362 66.398164 
L 12.139889 66.275233 
L 12.427753 66.091678 
L 12.731499 65.793612 
L 12.992562 65.544382 
L 13.822404 64.353802 
L 14.16387 64.033844 
L 15.160475 62.556986 
L 15.311355 62.388587 
L 16.847953 59.566222 
L 17.056406 59.079549 
L 17.307543 58.436265 
L 17.557687 57.496599 
L 18.710135 55.324254 
L 18.862008 54.979036 
L 19.381156 53.918123 
L 19.494316 53.554382 
L 20.001552 52.478313 
L 20.159381 52.00006 
L 20.254674 51.840081 
L 20.585221 51.301204 
L 20.747021 51.082286 
L 22.273692 48.706178 
L 22.371963 48.546199 
L 23.01519 47.672209 
L 23.351693 47.283207 
L 23.465846 47.087864 
L 23.804334 46.655079 
L 24.604398 45.513335 
L 24.891269 45.124333 
L 25.951402 43.534648 
L 26.109231 43.403297 
L 26.591651 42.850948 
L 26.825913 42.557934 
L 27.027418 42.411427 
L 27.603146 41.921387 
L 27.808621 41.778248 
L 28.148102 41.417874 
L 28.313872 41.291575 
L 28.423062 41.11644 
L 28.935261 40.660079 
L 29.089119 40.523676 
L 29.259852 40.299705 
L 30.550277 39.06029 
L 30.697187 38.881787 
L 31.542911 38.305863 
L 31.8139 38.142516 
L 32.059081 37.942121 
L 32.56731 37.607007 
L 33.275058 37.000771 
L 33.397152 36.879524 
L 33.790235 36.687549 
L 34.209127 36.517466 
L 34.37589 36.450107 
L 35.059815 36.190773 
L 38.802046 35.035556 
L 39.433361 34.865473 
L 39.768872 34.791378 
L 40.550075 34.633083 
L 40.779373 34.575827 
L 41.291573 34.397324 
L 41.505982 34.360277 
L 42.055901 34.269341 
L 43.020742 34.102626 
L 43.207357 34.072315 
L 44.722117 33.883708 
L 46.285516 33.612586 
L 47.697042 33.444187 
L 48.703573 33.311152 
L 49.6972 33.176433 
L 50.800016 33.055185 
L 58.973367 32.240135 
L 61.15617 32.070052 
L 67.482228 31.362777 
L 68.928496 31.027663 
L 69.100222 30.950199 
L 69.952895 30.719493 
L 70.081937 30.674025 
L 75.194997 28.863737 
L 75.815393 28.646503 
L 76.000023 28.599351 
L 76.504281 28.464632 
L 76.646228 28.414112 
L 77.12567 28.260869 
L 77.274566 28.223821 
L 85.4231 26.359646 
L 86.275773 26.209771 
L 86.946794 26.125571 
L 87.641638 25.989168 
L 89.945542 25.613639 
L 92.833115 25.253265 
L 92.958187 25.224637 
L 96.477076 24.817112 
L 96.614059 24.791852 
L 99.556227 24.443266 
L 103.315333 24.022269 
L 104.869799 23.826927 
L 105.63909 23.754515 
L 117.340263 22.872105 
L 119.568727 22.73907 
L 122.309391 22.33828 
L 122.446374 22.307969 
L 122.946662 22.136202 
L 123.716946 21.819612 
L 124.046501 21.681525 
L 126.155848 20.361277 
L 126.341471 20.263606 
L 127.658697 19.290261 
L 127.950531 19.093234 
L 128.182808 18.916415 
L 128.570928 18.48363 
L 128.683095 18.332071 
L 129.181398 18.000325 
L 129.32533 17.889182 
L 129.562569 17.752779 
L 129.677715 17.651739 
L 129.918925 17.429453 
L 130.152194 17.245898 
L 130.400353 17.084235 
L 132.91668 15.092076 
L 133.226382 14.921994 
L 133.412005 14.81927 
L 133.812037 14.566672 
L 134.305376 14.283762 
L 134.526733 14.169251 
L 134.638901 14.081683 
L 137.561216 12.552621 
L 137.93941 12.392642 
L 138.077386 12.357279 
L 138.496278 12.207404 
L 138.615394 12.150148 
L 138.965794 11.995221 
L 139.236783 11.853766 
L 139.696373 11.609587 
L 140.253241 11.392353 
L 140.422981 11.308153 
L 140.775366 11.15491 
L 140.949077 11.074079 
L 141.293521 10.971356 
L 141.639951 10.823165 
L 146.391691 9.590485 
L 147.190762 9.445662 
L 147.346605 9.41535 
L 148.287622 9.277263 
L 149.258419 9.105496 
L 149.558194 9.060028 
L 151.884929 8.777118 
L 152.927195 8.628927 
L 154.585887 8.462212 
L 154.975992 8.410009 
L 173.636524 7.24974 
L 176.493326 7.116705 
L 181.158707 6.879263 
L 181.483298 6.850635 
L 185.554091 6.609825 
L 186.013681 6.584565 
L 189.210956 6.377434 
L 189.585179 6.360594 
L 192.113419 6.219139 
L 192.113419 6.219139 
" clip-path="url(#pab0a3a6567)" style="fill: none; stroke: #1f77b4; stroke-width: 1.5; stroke-linecap: square"/>
   </g>
   <g id="line2d_20">
    <path d="M 7.690902 66.908151 
L 10.741267 66.788352 
L 11.360671 66.646772 
L 11.698167 66.501562 
L 13.109693 65.33262 
L 13.865087 64.174568 
L 14.004056 64.040249 
L 14.674084 63.045559 
L 14.904375 62.591777 
L 15.054263 62.312247 
L 15.408634 61.735037 
L 15.526757 61.477288 
L 15.764989 61.110633 
L 16.403253 59.771068 
L 16.516413 59.429824 
L 16.607736 59.22653 
L 16.916445 58.51863 
L 16.991885 58.329857 
L 17.17453 57.81073 
L 17.956726 55.371199 
L 18.707157 53.770256 
L 19.051601 52.924406 
L 19.176673 52.699331 
L 19.332517 52.350826 
L 19.381156 52.231028 
L 19.494316 51.806288 
L 19.610454 51.55217 
L 19.777217 51.149211 
L 20.480002 48.99647 
L 20.874078 48.346654 
L 21.025951 48.019931 
L 21.08948 47.874721 
L 21.207603 47.616973 
L 21.38727 47.065174 
L 21.530209 46.7203 
L 21.701935 46.509745 
L 22.25384 45.667526 
L 22.405713 45.373475 
L 22.772987 44.752701 
L 22.967544 44.458651 
L 23.139269 44.258986 
L 23.56908 43.561977 
L 23.756688 43.293338 
L 23.935362 42.984767 
L 24.093191 42.639892 
L 24.344327 42.244195 
L 24.455502 42.0409 
L 24.809873 41.572597 
L 24.941893 41.343891 
L 25.144391 41.017168 
L 25.252588 40.770311 
L 25.589091 39.953503 
L 26.017909 39.659453 
L 26.326618 39.412595 
L 26.45169 39.245604 
L 26.616467 39.020528 
L 26.752458 38.828124 
L 27.869172 38.018577 
L 28.018067 37.884258 
L 28.488576 37.550274 
L 28.593795 37.448627 
L 28.834012 37.296156 
L 29.304521 36.907719 
L 29.414703 36.77703 
L 29.936829 36.559214 
L 30.034107 36.50113 
L 30.296163 36.370441 
L 30.473844 36.257903 
L 30.619761 36.105433 
L 30.860972 35.974743 
L 31.320561 35.78597 
L 32.056103 35.513701 
L 32.416429 35.368491 
L 32.663595 35.317667 
L 33.108296 35.165196 
L 33.298881 35.016356 
L 33.467629 34.911078 
L 34.576402 34.573465 
L 34.670702 34.540792 
L 35.33676 34.399212 
L 37.239639 33.869195 
L 37.388535 33.80022 
L 40.22052 33.321027 
L 40.38232 33.295615 
L 41.317381 33.143144 
L 41.439475 33.103211 
L 42.007262 33.019715 
L 45.665119 32.624017 
L 46.401654 32.51148 
L 48.242991 32.286404 
L 48.331335 32.275513 
L 49.337866 32.141193 
L 50.481381 32.032286 
L 54.897611 31.596655 
L 56.876924 31.433294 
L 57.131038 31.393361 
L 58.658702 31.248151 
L 65.03737 30.52573 
L 65.208103 30.485797 
L 66.492572 30.257091 
L 69.821867 29.806939 
L 71.275084 29.661729 
L 82.428323 28.532719 
L 82.557365 28.507308 
L 83.750512 28.318534 
L 92.820211 25.653927 
L 92.909548 25.621255 
L 93.815823 25.396179 
L 97.660296 24.325253 
L 98.4683 24.176413 
L 100.805954 23.769824 
L 102.352478 23.526597 
L 112.132904 22.473823 
L 112.985577 22.303201 
L 114.228355 22.074495 
L 117.111957 20.901922 
L 117.228096 20.822057 
L 117.61423 20.655065 
L 117.936836 20.44088 
L 120.49287 18.436979 
L 120.647721 18.121147 
L 120.804557 17.957785 
L 121.82697 17.209952 
L 121.952042 17.082893 
L 122.749127 16.364103 
L 123.007212 16.120876 
L 124.591457 14.690555 
L 124.741345 14.530824 
L 124.878328 14.378353 
L 125.018289 14.287597 
L 125.222772 14.124235 
L 125.721075 13.688605 
L 125.877911 13.496201 
L 126.031769 13.350991 
L 126.223347 13.173108 
L 126.369265 13.05694 
L 126.810987 12.657612 
L 127.058153 12.526923 
L 127.289437 12.356301 
L 127.517743 12.251023 
L 127.892958 12.022317 
L 128.016045 11.960603 
L 128.213579 11.804502 
L 128.353541 11.710115 
L 128.751587 11.397913 
L 129.040444 11.241812 
L 129.50996 11.045779 
L 129.942748 10.744467 
L 130.487704 10.533912 
L 131.050528 10.247122 
L 131.259974 10.105542 
L 131.381075 10.043828 
L 132.036214 9.771559 
L 132.290328 9.688063 
L 132.948445 9.408533 
L 133.483475 9.256063 
L 133.83983 9.129004 
L 134.803678 8.882146 
L 136.143735 8.464667 
L 136.322409 8.406583 
L 139.845268 7.79307 
L 140.660221 7.66238 
L 144.384584 7.263052 
L 144.509656 7.23401 
L 146.741098 7.052497 
L 150.406897 6.718514 
L 150.518072 6.700363 
L 166.065703 5.600395 
L 188.129977 4.685571 
L 192.341725 4.620226 
L 192.341725 4.620226 
" clip-path="url(#pab0a3a6567)" style="fill: none; stroke-dasharray: 1.5,2.475; stroke-dashoffset: 0; stroke: #ff7f0e; stroke-width: 1.5"/>
   </g>
   <g id="line2d_21">
    <path d="M 8.331151 66.910597 
L 11.889745 66.738942 
L 13.42535 66.260675 
L 13.538511 66.197932 
L 13.673509 66.162417 
L 14.257178 66.001417 
L 14.974852 65.672312 
L 15.256761 65.508944 
L 15.939693 64.972669 
L 16.145168 64.766683 
L 16.391341 64.490851 
L 16.735786 63.953393 
L 16.977988 63.619553 
L 17.571584 62.484261 
L 17.737354 62.331547 
L 17.936873 62.142135 
L 18.18801 61.863935 
L 18.857045 60.894379 
L 19.380163 60.145015 
L 19.496302 59.846691 
L 19.694828 59.538895 
L 19.781188 59.398019 
L 19.953906 59.019194 
L 20.232836 58.433199 
L 20.37379 58.185779 
L 20.485958 57.851939 
L 20.681507 57.563085 
L 20.920732 57.104943 
L 21.122237 56.684684 
L 22.136709 54.55024 
L 22.359059 54.215217 
L 22.472219 53.926363 
L 22.751149 53.420868 
L 23.235555 52.548386 
L 23.3507 52.330561 
L 23.466839 51.986067 
L 23.658417 51.585933 
L 25.267477 47.462657 
L 25.54343 46.484815 
L 25.707214 46.258703 
L 25.847176 46.091783 
L 26.140995 45.718877 
L 26.305773 45.473825 
L 26.558894 45.000293 
L 26.742532 44.664086 
L 27.32223 43.843693 
L 27.433405 43.634155 
L 27.621013 43.344117 
L 28.016082 42.687092 
L 28.313872 42.247891 
L 28.42604 41.998103 
L 28.533244 41.851309 
L 29.771059 39.86366 
L 29.955689 39.670696 
L 30.287229 39.302525 
L 30.349765 39.168752 
L 31.552838 37.903239 
L 31.706696 37.759996 
L 32.509737 36.971566 
L 32.768815 36.797543 
L 32.924658 36.651932 
L 33.278036 36.245879 
L 33.388218 36.080143 
L 34.140635 35.740384 
L 35.130292 35.277507 
L 35.502529 35.116506 
L 36.139801 34.861983 
L 36.665897 34.68796 
L 36.868394 34.614563 
L 37.196956 34.477239 
L 37.339895 34.414496 
L 38.081393 34.251128 
L 38.449661 34.159973 
L 39.613028 33.911369 
L 39.842327 33.854545 
L 44.940496 33.205807 
L 47.169953 32.984431 
L 47.482633 32.963122 
L 49.807382 32.793834 
L 50.441675 32.750033 
L 53.074142 32.587848 
L 53.263735 32.557068 
L 56.253549 32.412641 
L 60.95268 31.678667 
L 61.221684 31.527137 
L 62.228215 31.174356 
L 62.441631 31.080834 
L 62.868464 30.930488 
L 63.147394 30.770671 
L 63.507721 30.585993 
L 64.117198 30.224926 
L 64.376276 30.088785 
L 64.64925 29.911211 
L 65.153508 29.481481 
L 65.499938 29.286149 
L 65.64387 29.228142 
L 65.953571 29.031626 
L 68.642618 26.755123 
L 68.788535 26.600042 
L 69.504224 25.913421 
L 69.722604 25.765442 
L 70.141496 25.438706 
L 70.707297 24.972277 
L 71.186739 24.570959 
L 71.348539 24.44429 
L 72.990356 22.997651 
L 73.159104 22.879268 
L 73.517445 22.680385 
L 73.795382 22.520568 
L 74.308574 22.197382 
L 74.554748 22.071897 
L 74.931949 21.883668 
L 75.272422 21.688336 
L 75.586095 21.485901 
L 76.321637 21.090502 
L 76.592626 20.947259 
L 77.742096 20.386124 
L 78.064702 20.252352 
L 80.202837 19.520745 
L 80.707095 19.376318 
L 82.621886 18.920544 
L 83.823967 18.725212 
L 84.986341 18.555925 
L 86.596394 18.413865 
L 87.072859 18.377167 
L 117.503055 16.653512 
L 117.764118 16.610894 
L 118.77859 16.466467 
L 119.058513 16.421482 
L 119.689829 16.278238 
L 124.541825 15.00799 
L 125.032186 14.844622 
L 125.995042 14.501311 
L 126.183642 14.446855 
L 126.742495 14.260994 
L 127.285466 14.065662 
L 127.958472 13.853757 
L 128.252292 13.760234 
L 130.515498 13.106761 
L 130.717003 13.038099 
L 131.430707 12.841583 
L 135.536242 11.973837 
L 136.479245 11.811652 
L 138.106173 11.592644 
L 140.492465 11.347591 
L 142.940302 11.165282 
L 148.146668 10.640845 
L 148.312438 10.613617 
L 151.269496 10.349624 
L 152.746536 10.207564 
L 156.503656 9.947122 
L 158.56635 9.833474 
L 162.156709 9.56948 
L 162.388985 9.546988 
L 164.959908 9.330347 
L 165.554496 9.267604 
L 166.884626 9.087662 
L 167.199291 9.027287 
L 169.776169 8.475622 
L 170.13054 8.392754 
L 170.783693 8.251879 
L 171.578793 8.068385 
L 171.751512 8.029319 
L 173.200758 7.670619 
L 173.45785 7.594854 
L 174.148724 7.448059 
L 174.340302 7.3865 
L 175.116542 7.20419 
L 175.321025 7.133161 
L 176.157815 6.918888 
L 178.63146 6.438253 
L 179.150608 6.347098 
L 180.075743 6.181362 
L 182.866038 5.816743 
L 192.171984 5.332557 
L 192.171984 5.332557 
" clip-path="url(#pab0a3a6567)" style="fill: none; stroke-dasharray: 5.55,2.4; stroke-dashoffset: 0; stroke: #2ca02c; stroke-width: 1.5"/>
   </g>
   <g id="line2d_22">
    <path d="M 8.25174 66.911631 
L 11.439089 66.795974 
L 11.558205 66.77119 
L 12.160734 66.614677 
L 15.826533 64.266083 
L 16.799314 63.391144 
L 18.388522 61.051863 
L 18.501682 60.787803 
L 18.874912 60.091907 
L 19.173695 59.599988 
L 19.312664 59.386248 
L 19.563801 58.804957 
L 20.015449 57.75533 
L 20.439304 56.923198 
L 23.944296 51.963003 
L 24.170616 51.503528 
L 25.25358 49.307392 
L 25.766772 48.108161 
L 26.228347 47.44501 
L 26.382206 47.08467 
L 27.80068 44.938701 
L 27.933693 44.729016 
L 28.239424 44.279455 
L 28.93129 43.384838 
L 29.780985 42.186208 
L 32.285402 39.019152 
L 32.398562 38.832298 
L 32.760874 38.419236 
L 33.275058 37.532881 
L 33.492445 37.144603 
L 36.61825 33.99542 
L 41.756125 30.247374 
L 47.697042 27.671972 
L 48.22413 27.480011 
L 48.475267 27.401454 
L 49.032135 27.205137 
L 49.457975 27.021737 
L 50.339434 26.776153 
L 51.123615 26.541234 
L 51.519676 26.410256 
L 52.027905 26.232414 
L 52.788263 26.005155 
L 53.34116 25.800126 
L 54.472763 25.516691 
L 55.091174 25.357925 
L 55.761203 25.178881 
L 56.181087 25.054512 
L 57.036738 24.812683 
L 57.499305 24.662179 
L 58.267604 24.492748 
L 58.83142 24.358616 
L 72.983407 21.045411 
L 73.096568 20.991788 
L 73.607774 20.881538 
L 74.153723 20.737642 
L 74.391956 20.671252 
L 75.059998 20.489955 
L 85.795338 17.356845 
L 86.921978 17.131538 
L 90.233406 16.493771 
L 91.594308 16.27958 
L 92.394371 16.152357 
L 93.061421 16.021229 
L 93.745346 15.930205 
L 94.821362 15.767984 
L 94.933529 15.744703 
L 96.677588 15.501372 
L 101.696347 14.854292 
L 103.198203 14.686363 
L 106.20787 14.343297 
L 112.688779 13.74248 
L 112.802932 13.725507 
L 114.273023 13.615407 
L 119.977693 13.072569 
L 121.125178 12.925819 
L 123.482684 12.636075 
L 127.261643 11.951895 
L 128.205638 11.781864 
L 128.994782 11.610931 
L 134.296442 10.5215 
L 136.440532 10.085157 
L 136.72244 10.010956 
L 140.404121 9.341495 
L 140.871652 9.250321 
L 141.704472 9.097113 
L 142.176966 9.004437 
L 143.078278 8.866099 
L 150.81884 7.807009 
L 152.396136 7.616249 
L 154.166003 7.460788 
L 160.189308 6.984941 
L 161.570062 6.887608 
L 163.767754 6.743262 
L 168.146264 6.466586 
L 170.37175 6.353332 
L 173.205721 6.199373 
L 174.372066 6.135235 
L 178.84984 5.911281 
L 181.498188 5.755369 
L 184.939651 5.55755 
L 186.095077 5.494764 
L 189.895874 5.287783 
L 192.101507 5.18234 
L 192.101507 5.18234 
" clip-path="url(#pab0a3a6567)" style="fill: none; stroke-dasharray: 9.6,2.4,1.5,2.4; stroke-dashoffset: 0; stroke: #d62728; stroke-width: 1.5"/>
   </g>
   <g id="patch_3">
    <path d="M 3.5 70.098056 
L 3.5 -0 
" style="fill: none; stroke: #000000; stroke-width: 0.8; stroke-linejoin: miter; stroke-linecap: square"/>
   </g>
   <g id="patch_4">
    <path d="M 192.100515 70.098056 
L 192.100515 -0 
" style="fill: none; stroke: #000000; stroke-width: 0.8; stroke-linejoin: miter; stroke-linecap: square"/>
   </g>
   <g id="patch_5">
    <path d="M 3.5 70.098056 
L 192.100515 70.098056 
" style="fill: none; stroke: #000000; stroke-width: 0.8; stroke-linejoin: miter; stroke-linecap: square"/>
   </g>
   <g id="patch_6">
    <path d="M 3.5 -0 
L 192.100515 -0 
" style="fill: none; stroke: #000000; stroke-width: 0.8; stroke-linejoin: miter; stroke-linecap: square"/>
   </g>
   <g id="legend_1">
    <g id="patch_7">
     <path d="M 71.639909 65.100056 
L 187.102515 65.100056 
L 187.102515 38.63629 
L 71.639909 38.63629 
z
" style="fill: #ffffff; opacity: 0.8; stroke: #000000; stroke-linejoin: miter"/>
    </g>
    <g id="line2d_23">
     <path d="M 75.638309 46.13329 
L 80.636309 46.13329 
L 85.634309 46.13329 
" style="fill: none; stroke: #1f77b4; stroke-width: 1.5; stroke-linecap: square"/>
    </g>
    <g id="text_10">
     <!-- Bogotá -->
     <g transform="translate(88.633109 49.63189) scale(0.09996 -0.09996)">
      <defs>
       <path id="CMR17-42" d="M 333 4352 
L 333 4186 
C 774 4186 845 4186 845 3900 
L 845 452 
C 845 166 774 166 333 166 
L 333 0 
L 2534 0 
C 3354 0 3885 583 3885 1164 
C 3885 1741 3360 2233 2675 2233 
C 3290 2356 3718 2771 3718 3264 
C 3718 3802 3194 4352 2368 4352 
L 333 4352 
z
M 1248 2304 
L 1248 3937 
C 1248 4155 1261 4186 1517 4186 
L 2336 4186 
C 2970 4186 3251 3674 3251 3277 
C 3251 2791 2861 2304 2170 2304 
L 1248 2304 
z
M 1517 166 
C 1261 166 1248 197 1248 413 
L 1248 2202 
L 2432 2202 
C 3091 2202 3411 1625 3411 1162 
C 3411 699 3046 166 2349 166 
L 1517 166 
z
" transform="scale(0.015625)"/>
       <path id="CMR17-6f" d="M 2758 1356 
C 2758 2176 2163 2816 1466 2816 
C 768 2816 173 2176 173 1356 
C 173 551 768 -64 1466 -64 
C 2163 -64 2758 551 2758 1356 
z
M 1466 51 
C 1165 51 909 230 762 480 
C 602 767 582 1126 582 1408 
C 582 1677 595 2010 762 2298 
C 890 2509 1139 2714 1466 2714 
C 1754 2714 1997 2554 2150 2330 
C 2349 2029 2349 1607 2349 1408 
C 2349 1158 2336 775 2163 467 
C 1984 173 1709 51 1466 51 
z
" transform="scale(0.015625)"/>
       <path id="CMR17-67" d="M 710 1164 
C 832 1068 1043 960 1299 960 
C 1805 960 2240 1357 2240 1888 
C 2240 2054 2189 2310 1997 2509 
C 2176 2692 2438 2752 2586 2752 
C 2611 2752 2650 2752 2682 2734 
C 2656 2728 2598 2703 2598 2605 
C 2598 2527 2656 2471 2739 2471 
C 2835 2471 2886 2533 2886 2614 
C 2886 2731 2790 2854 2586 2854 
C 2330 2854 2106 2738 1926 2580 
C 1734 2753 1504 2816 1299 2816 
C 794 2816 358 2419 358 1888 
C 358 1522 570 1292 634 1228 
C 442 1004 442 743 442 711 
C 442 545 506 302 723 168 
C 390 85 128 -169 128 -486 
C 128 -943 736 -1280 1466 -1280 
C 2170 -1280 2803 -956 2803 -479 
C 2803 384 1856 384 1363 384 
C 1216 384 954 384 922 391 
C 723 423 589 602 589 826 
C 589 883 589 1024 710 1164 
z
M 1299 1068 
C 736 1068 736 1760 736 1889 
C 736 2016 736 2708 1299 2708 
C 1862 2708 1862 2016 1862 1889 
C 1862 1760 1862 1068 1299 1068 
z
M 1466 -1171 
C 826 -1171 384 -835 384 -486 
C 384 -289 493 -105 634 -4 
C 794 104 858 104 1293 104 
C 1818 104 2547 104 2547 -486 
C 2547 -835 2106 -1171 1466 -1171 
z
" transform="scale(0.015625)"/>
       <path id="CMR17-74" d="M 966 2560 
L 1862 2560 
L 1862 2725 
L 966 2725 
L 966 3904 
L 851 3904 
C 838 3245 614 2668 70 2668 
L 70 2560 
L 627 2560 
L 627 771 
C 627 650 627 -64 1370 -64 
C 1747 -64 1965 306 1965 777 
L 1965 1140 
L 1850 1140 
L 1850 783 
C 1850 344 1677 51 1408 51 
C 1222 51 966 178 966 758 
L 966 2560 
z
" transform="scale(0.015625)"/>
       <path id="CMR17-13" d="M 2221 4091 
C 2298 4161 2317 4174 2317 4244 
C 2317 4339 2234 4416 2144 4416 
C 2067 4416 2042 4384 1978 4308 
L 1254 3390 
C 1210 3333 1210 3327 1210 3320 
C 1210 3314 1267 3256 1280 3244 
L 2221 4091 
z
" transform="scale(0.015625)"/>
       <path id="CMR17-61" d="M 2304 1653 
C 2304 2072 2304 2294 2035 2543 
C 1798 2752 1523 2816 1306 2816 
C 800 2816 435 2407 435 1971 
C 435 1728 627 1728 666 1728 
C 749 1728 896 1778 896 1954 
C 896 2112 774 2181 666 2181 
C 640 2181 608 2174 589 2168 
C 723 2592 1069 2714 1293 2714 
C 1613 2714 1965 2429 1965 1885 
L 1965 1600 
C 1587 1600 1133 1549 774 1357 
C 371 1133 256 813 256 570 
C 256 77 832 -64 1171 -64 
C 1523 -64 1850 139 1990 511 
C 2003 233 2182 -18 2464 -18 
C 2598 -18 2938 70 2938 567 
L 2938 920 
L 2822 920 
L 2822 562 
C 2822 178 2650 128 2566 128 
C 2304 128 2304 458 2304 738 
L 2304 1653 
z
M 1965 870 
C 1965 317 1568 38 1216 38 
C 896 38 646 275 646 570 
C 646 761 730 1100 1101 1305 
C 1408 1478 1760 1504 1965 1504 
L 1965 870 
z
" transform="scale(0.015625)"/>
      </defs>
      <use xlink:href="#CMR17-42" transform="scale(0.996264)"/>
      <use xlink:href="#CMR17-6f" transform="translate(65.188754 0) scale(0.996264)"/>
      <use xlink:href="#CMR17-67" transform="translate(110.879232 0) scale(0.996264)"/>
      <use xlink:href="#CMR17-6f" transform="translate(156.569709 0) scale(0.996264)"/>
      <use xlink:href="#CMR17-74" transform="translate(202.260186 0) scale(0.996264)"/>
      <use xlink:href="#CMR17-13" transform="translate(237.540954 0) scale(0.996264)"/>
      <use xlink:href="#CMR17-61" transform="translate(237.540954 0) scale(0.996264)"/>
     </g>
    </g>
    <g id="line2d_24">
     <path d="M 75.638309 55.666653 
L 80.636309 55.666653 
L 85.634309 55.666653 
" style="fill: none; stroke-dasharray: 1.5,2.475; stroke-dashoffset: 0; stroke: #ff7f0e; stroke-width: 1.5"/>
    </g>
    <g id="text_11">
     <!-- Lima -->
     <g transform="translate(88.633109 59.165253) scale(0.09996 -0.09996)">
      <defs>
       <path id="CMR17-4c" d="M 3469 1615 
L 3354 1615 
C 3302 983 3219 166 2125 166 
L 1530 166 
C 1274 166 1261 197 1261 414 
L 1261 3898 
C 1261 4129 1274 4192 1760 4192 
L 1901 4192 
L 1901 4352 
C 1638 4352 1331 4352 1069 4352 
C 870 4352 512 4352 326 4352 
L 326 4192 
C 768 4192 838 4192 838 3905 
L 838 452 
C 838 166 768 166 326 166 
L 326 0 
L 3315 0 
L 3469 1615 
z
" transform="scale(0.015625)"/>
       <path id="CMR17-69" d="M 992 3909 
C 992 4049 877 4170 730 4170 
C 589 4170 467 4056 467 3909 
C 467 3769 582 3648 730 3648 
C 870 3648 992 3763 992 3909 
z
M 243 2706 
L 243 2541 
C 602 2541 653 2502 653 2197 
L 653 427 
C 653 184 627 153 218 153 
L 218 -13 
C 371 0 646 0 806 0 
C 960 0 1222 0 1370 -13 
L 1370 153 
C 992 153 979 191 979 420 
L 979 2776 
L 243 2706 
z
" transform="scale(0.015625)"/>
      </defs>
      <use xlink:href="#CMR17-4c" transform="scale(0.996264)"/>
      <use xlink:href="#CMR17-69" transform="translate(57.381408 0) scale(0.996264)"/>
      <use xlink:href="#CMR17-6d" transform="translate(82.252466 0) scale(0.996264)"/>
      <use xlink:href="#CMR17-61" transform="translate(159.172056 0) scale(0.996264)"/>
     </g>
    </g>
    <g id="line2d_25">
     <path d="M 125.331051 46.13329 
L 130.329051 46.13329 
L 135.327051 46.13329 
" style="fill: none; stroke-dasharray: 5.55,2.4; stroke-dashoffset: 0; stroke: #2ca02c; stroke-width: 1.5"/>
    </g>
    <g id="text_12">
     <!-- Santiago -->
     <g transform="translate(138.325851 49.63189) scale(0.09996 -0.09996)">
      <defs>
       <path id="CMR17-53" d="M 2803 4290 
C 2803 4404 2797 4411 2758 4411 
C 2720 4411 2707 4385 2682 4328 
L 2490 3907 
C 2246 4257 1875 4416 1472 4416 
C 819 4416 294 3901 294 3253 
C 294 3056 339 2776 557 2510 
C 794 2218 1018 2167 1530 2033 
C 1722 1982 2042 1899 2106 1874 
C 2470 1722 2662 1341 2662 985 
C 2662 527 2336 38 1779 38 
C 1094 38 454 419 410 1311 
C 403 1413 397 1419 352 1419 
C 301 1419 294 1413 294 1285 
L 294 -1 
C 294 -115 301 -122 339 -122 
C 384 -122 397 -90 486 108 
C 493 127 493 140 614 381 
C 934 -39 1472 -128 1779 -128 
C 2477 -128 2970 451 2970 1124 
C 2970 1454 2848 1708 2778 1823 
C 2509 2230 2221 2306 1914 2382 
C 1869 2402 1856 2402 1498 2490 
C 1152 2579 1005 2624 845 2796 
C 666 2992 602 3196 602 3399 
C 602 3812 934 4263 1478 4263 
C 2157 4263 2579 3786 2675 2993 
C 2694 2878 2701 2872 2746 2872 
C 2803 2872 2803 2891 2803 2999 
L 2803 4290 
z
" transform="scale(0.015625)"/>
       <path id="CMR17-6e" d="M 2656 1933 
C 2656 2259 2592 2790 1837 2790 
C 1331 2790 1069 2400 973 2144 
L 966 2144 
L 966 2790 
L 211 2720 
L 211 2554 
C 589 2554 646 2515 646 2208 
L 646 428 
C 646 184 621 153 211 153 
L 211 -13 
C 365 0 646 0 813 0 
C 979 0 1267 0 1421 -13 
L 1421 153 
C 1011 153 986 178 986 428 
L 986 1658 
C 986 2247 1344 2688 1792 2688 
C 2266 2688 2317 2266 2317 1958 
L 2317 428 
C 2317 184 2291 153 1882 153 
L 1882 -13 
C 2035 0 2317 0 2483 0 
C 2650 0 2938 0 3091 -13 
L 3091 153 
C 2682 153 2656 178 2656 428 
L 2656 1933 
z
" transform="scale(0.015625)"/>
      </defs>
      <use xlink:href="#CMR17-53" transform="scale(0.996264)"/>
      <use xlink:href="#CMR17-61" transform="translate(50.89537 0) scale(0.996264)"/>
      <use xlink:href="#CMR17-6e" transform="translate(96.585847 0) scale(0.996264)"/>
      <use xlink:href="#CMR17-74" transform="translate(144.878763 0) scale(0.996264)"/>
      <use xlink:href="#CMR17-69" transform="translate(180.159531 0) scale(0.996264)"/>
      <use xlink:href="#CMR17-61" transform="translate(205.030589 0) scale(0.996264)"/>
      <use xlink:href="#CMR17-67" transform="translate(250.721066 0) scale(0.996264)"/>
      <use xlink:href="#CMR17-6f" transform="translate(296.411543 0) scale(0.996264)"/>
     </g>
    </g>
    <g id="line2d_26">
     <path d="M 125.331051 55.666653 
L 130.329051 55.666653 
L 135.327051 55.666653 
" style="fill: none; stroke-dasharray: 9.6,2.4,1.5,2.4; stroke-dashoffset: 0; stroke: #d62728; stroke-width: 1.5"/>
    </g>
    <g id="text_13">
     <!-- São Paulo -->
     <g transform="translate(138.325851 59.165253) scale(0.09996 -0.09996)">
      <defs>
       <path id="CMR17-7e" d="M 2400 4184 
C 2182 3980 2061 3865 1862 3865 
C 1722 3865 1626 3932 1491 4024 
C 1363 4111 1261 4184 1120 4184 
C 890 4184 730 4004 461 3718 
L 531 3648 
C 749 3850 870 3968 1069 3968 
C 1210 3968 1306 3900 1440 3808 
C 1568 3722 1670 3648 1811 3648 
C 2042 3648 2202 3828 2470 4114 
L 2400 4184 
z
" transform="scale(0.015625)"/>
       <path id="CMR17-50" d="M 1267 2042 
L 2291 2042 
C 3117 2042 3718 2578 3718 3184 
C 3718 3791 3130 4352 2291 4352 
L 333 4352 
L 333 4186 
C 774 4186 845 4186 845 3899 
L 845 446 
C 845 160 774 160 333 160 
L 333 0 
C 518 0 858 0 1056 0 
C 1254 0 1594 0 1779 0 
L 1779 160 
C 1338 160 1267 160 1267 446 
L 1267 2042 
z
M 1254 2176 
L 1254 3938 
C 1254 4155 1267 4186 1523 4186 
L 2170 4186 
C 2995 4186 3232 3714 3232 3184 
C 3232 2604 2950 2176 2170 2176 
L 1254 2176 
z
" transform="scale(0.015625)"/>
       <path id="CMR17-75" d="M 1882 2693 
L 1882 2528 
C 2259 2528 2317 2489 2317 2186 
L 2317 1032 
C 2317 500 2029 38 1555 38 
C 1030 38 986 348 986 678 
L 986 2763 
L 211 2693 
L 211 2528 
C 467 2528 640 2528 646 2274 
L 646 1058 
C 646 633 646 361 813 183 
C 896 101 1056 -64 1517 -64 
C 2061 -64 2272 377 2323 506 
L 2330 506 
L 2330 -63 
L 3091 -63 
L 3091 128 
C 2714 128 2656 166 2656 473 
L 2656 2763 
L 1882 2693 
z
" transform="scale(0.015625)"/>
       <path id="CMR17-6c" d="M 979 4396 
L 218 4326 
L 218 4160 
C 595 4160 653 4122 653 3817 
L 653 426 
C 653 184 627 153 218 153 
L 218 -13 
C 371 0 653 0 813 0 
C 979 0 1261 0 1414 -13 
L 1414 153 
C 1005 153 979 178 979 426 
L 979 4396 
z
" transform="scale(0.015625)"/>
      </defs>
      <use xlink:href="#CMR17-53" transform="scale(0.996264)"/>
      <use xlink:href="#CMR17-7e" transform="translate(50.89537 0) scale(0.996264)"/>
      <use xlink:href="#CMR17-61" transform="translate(50.89537 0) scale(0.996264)"/>
      <use xlink:href="#CMR17-6f" transform="translate(96.585847 0) scale(0.996264)"/>
      <use xlink:href="#CMR17-50" transform="translate(172.35229 0) scale(0.996264)"/>
      <use xlink:href="#CMR17-61" transform="translate(232.336137 0) scale(0.996264)"/>
      <use xlink:href="#CMR17-75" transform="translate(278.026614 0) scale(0.996264)"/>
      <use xlink:href="#CMR17-6c" transform="translate(328.921984 0) scale(0.996264)"/>
      <use xlink:href="#CMR17-6f" transform="translate(353.793042 0) scale(0.996264)"/>
     </g>
    </g>
   </g>
  </g>
 </g>
 <defs>
  <clipPath id="pab0a3a6567">
   <rect x="3.5" y="-0" width="188.600515" height="70.098056"/>
  </clipPath>
 </defs>
</svg>
