<?xml version="1.0" encoding="utf-8" standalone="no"?>
<!DOCTYPE svg PUBLIC "-//W3C//DTD SVG 1.1//EN"
  "http://www.w3.org/Graphics/SVG/1.1/DTD/svg11.dtd">
<svg xmlns:xlink="http://www.w3.org/1999/xlink" width="266.4pt" height="100.8pt" viewBox="0 0 266.4 100.8" xmlns="http://www.w3.org/2000/svg" version="1.1">
 <metadata>
  <rdf:RDF xmlns:dc="http://purl.org/dc/elements/1.1/" xmlns:cc="http://creativecommons.org/ns#" xmlns:rdf="http://www.w3.org/1999/02/22-rdf-syntax-ns#">
   <cc:Work>
    <dc:type rdf:resource="http://purl.org/dc/dcmitype/StillImage"/>
    <dc:date>2023-05-27T10:45:08.797451</dc:date>
    <dc:format>image/svg+xml</dc:format>
    <dc:creator>
     <cc:Agent>
      <dc:title>Matplotlib v3.7.0, https://matplotlib.org/</dc:title>
     </cc:Agent>
    </dc:creator>
   </cc:Work>
  </rdf:RDF>
 </metadata>
 <defs>
  <style type="text/css">*{stroke-linejoin: round; stroke-linecap: butt}</style>
 </defs>
 <g id="figure_1">
  <g id="patch_1">
   <path d="M 0 100.8 
L 266.4 100.8 
L 266.4 -0 
L 0 -0 
z
" style="fill: #ffffff"/>
  </g>
  <g id="axes_1">
   <g id="patch_2">
    <path d="M 32.585756 75.151978 
L 266.4 75.151978 
L 266.4 10.002655 
L 32.585756 10.002655 
z
" style="fill: #ffffff"/>
   </g>
   <g id="patch_3">
    <path d="M -125.954957 75.151978 
L -125.954957 10.002655 
L 61.229666 10.002655 
L 61.229666 75.151978 
z
" clip-path="url(#pd3d0f9da99)" style="fill: #6ca0f5; opacity: 0.3"/>
   </g>
   <g id="line2d_1">
    <path clip-path="url(#pd3d0f9da99)" style="fill: none; stroke: #6ca0f5; stroke-opacity: 0.3; stroke-width: 1.5; stroke-linecap: square"/>
   </g>
   <g id="line2d_2">
    <path clip-path="url(#pd3d0f9da99)" style="fill: none; stroke: #6ca0f5; stroke-opacity: 0.3; stroke-width: 1.5; stroke-linecap: square"/>
   </g>
   <g id="line2d_3">
    <path clip-path="url(#pd3d0f9da99)" style="fill: none; stroke: #6ca0f5; stroke-opacity: 0.3; stroke-width: 1.5; stroke-linecap: square"/>
   </g>
   <g id="line2d_4">
    <path clip-path="url(#pd3d0f9da99)" style="fill: none; stroke: #6ca0f5; stroke-opacity: 0.3; stroke-width: 1.5; stroke-linecap: square"/>
   </g>
   <g id="line2d_5">
    <path clip-path="url(#pd3d0f9da99)" style="fill: none; stroke: #6ca0f5; stroke-opacity: 0.3; stroke-width: 1.5; stroke-linecap: square"/>
   </g>
   <g id="line2d_6">
    <path clip-path="url(#pd3d0f9da99)" style="fill: none; stroke: #6ca0f5; stroke-opacity: 0.3; stroke-width: 1.5; stroke-linecap: square"/>
   </g>
   <g id="line2d_7">
    <path clip-path="url(#pd3d0f9da99)" style="fill: none; stroke: #6ca0f5; stroke-opacity: 0.3; stroke-width: 1.5; stroke-linecap: square"/>
   </g>
   <g id="line2d_8">
    <path clip-path="url(#pd3d0f9da99)" style="fill: none; stroke: #6ca0f5; stroke-opacity: 0.3; stroke-width: 1.5; stroke-linecap: square"/>
   </g>
   <g id="line2d_9">
    <path clip-path="url(#pd3d0f9da99)" style="fill: none; stroke: #6ca0f5; stroke-opacity: 0.3; stroke-width: 1.5; stroke-linecap: square"/>
   </g>
   <g id="line2d_10">
    <path clip-path="url(#pd3d0f9da99)" style="fill: none; stroke: #6ca0f5; stroke-opacity: 0.3; stroke-width: 1.5; stroke-linecap: square"/>
   </g>
   <g id="line2d_11">
    <path clip-path="url(#pd3d0f9da99)" style="fill: none; stroke: #6ca0f5; stroke-opacity: 0.3; stroke-width: 1.5; stroke-linecap: square"/>
   </g>
   <g id="line2d_12">
    <path clip-path="url(#pd3d0f9da99)" style="fill: none; stroke: #6ca0f5; stroke-opacity: 0.3; stroke-width: 1.5; stroke-linecap: square"/>
   </g>
   <g id="line2d_13">
    <path clip-path="url(#pd3d0f9da99)" style="fill: none; stroke: #6ca0f5; stroke-opacity: 0.3; stroke-width: 1.5; stroke-linecap: square"/>
   </g>
   <g id="line2d_14">
    <path clip-path="url(#pd3d0f9da99)" style="fill: none; stroke: #6ca0f5; stroke-opacity: 0.3; stroke-width: 1.5; stroke-linecap: square"/>
   </g>
   <g id="line2d_15">
    <path d="M 0.278089 75.151978 
L 0.278089 10.002655 
" clip-path="url(#pd3d0f9da99)" style="fill: none; stroke: #6ca0f5; stroke-opacity: 0.3; stroke-width: 1.5; stroke-linecap: square"/>
   </g>
   <g id="line2d_16">
    <path d="M 19.263007 75.151978 
L 19.263007 10.002655 
" clip-path="url(#pd3d0f9da99)" style="fill: none; stroke: #6ca0f5; stroke-opacity: 0.3; stroke-width: 1.5; stroke-linecap: square"/>
   </g>
   <g id="line2d_17">
    <path d="M 20.595282 75.151978 
L 20.595282 10.002655 
" clip-path="url(#pd3d0f9da99)" style="fill: none; stroke: #6ca0f5; stroke-opacity: 0.3; stroke-width: 1.5; stroke-linecap: square"/>
   </g>
   <g id="line2d_18">
    <path d="M 24.259038 75.151978 
L 24.259038 10.002655 
" clip-path="url(#pd3d0f9da99)" style="fill: none; stroke: #6ca0f5; stroke-opacity: 0.3; stroke-width: 1.5; stroke-linecap: square"/>
   </g>
   <g id="line2d_19">
    <path d="M 28.255862 75.151978 
L 28.255862 10.002655 
" clip-path="url(#pd3d0f9da99)" style="fill: none; stroke: #6ca0f5; stroke-opacity: 0.3; stroke-width: 1.5; stroke-linecap: square"/>
   </g>
   <g id="line2d_20">
    <path d="M 33.584962 75.151978 
L 33.584962 10.002655 
" clip-path="url(#pd3d0f9da99)" style="fill: none; stroke: #6ca0f5; stroke-opacity: 0.3; stroke-width: 1.5; stroke-linecap: square"/>
   </g>
   <g id="line2d_21">
    <path d="M 35.916443 75.151978 
L 35.916443 10.002655 
" clip-path="url(#pd3d0f9da99)" style="fill: none; stroke: #6ca0f5; stroke-opacity: 0.3; stroke-width: 1.5; stroke-linecap: square"/>
   </g>
   <g id="line2d_22">
    <path d="M 36.915649 75.151978 
L 36.915649 10.002655 
" clip-path="url(#pd3d0f9da99)" style="fill: none; stroke: #6ca0f5; stroke-opacity: 0.3; stroke-width: 1.5; stroke-linecap: square"/>
   </g>
   <g id="line2d_23">
    <path d="M 40.246336 75.151978 
L 40.246336 10.002655 
" clip-path="url(#pd3d0f9da99)" style="fill: none; stroke: #6ca0f5; stroke-opacity: 0.3; stroke-width: 1.5; stroke-linecap: square"/>
   </g>
   <g id="line2d_24">
    <path d="M 44.909298 75.151978 
L 44.909298 10.002655 
" clip-path="url(#pd3d0f9da99)" style="fill: none; stroke: #6ca0f5; stroke-opacity: 0.3; stroke-width: 1.5; stroke-linecap: square"/>
   </g>
   <g id="line2d_25">
    <path d="M 52.23681 75.151978 
L 52.23681 10.002655 
" clip-path="url(#pd3d0f9da99)" style="fill: none; stroke: #6ca0f5; stroke-opacity: 0.3; stroke-width: 1.5; stroke-linecap: square"/>
   </g>
   <g id="line2d_26">
    <path d="M 53.902154 75.151978 
L 53.902154 10.002655 
" clip-path="url(#pd3d0f9da99)" style="fill: none; stroke: #6ca0f5; stroke-opacity: 0.3; stroke-width: 1.5; stroke-linecap: square"/>
   </g>
   <g id="line2d_27">
    <path d="M 55.567498 75.151978 
L 55.567498 10.002655 
" clip-path="url(#pd3d0f9da99)" style="fill: none; stroke: #6ca0f5; stroke-opacity: 0.3; stroke-width: 1.5; stroke-linecap: square"/>
   </g>
   <g id="line2d_28">
    <path d="M 57.56591 75.151978 
L 57.56591 10.002655 
" clip-path="url(#pd3d0f9da99)" style="fill: none; stroke: #6ca0f5; stroke-opacity: 0.3; stroke-width: 1.5; stroke-linecap: square"/>
   </g>
   <g id="line2d_29">
    <path d="M 61.229666 75.151978 
L 61.229666 10.002655 
" clip-path="url(#pd3d0f9da99)" style="fill: none; stroke: #6ca0f5; stroke-opacity: 0.3; stroke-width: 1.5; stroke-linecap: square"/>
   </g>
   <g id="patch_4">
    <path d="M 72.887071 75.151978 
L 72.887071 10.002655 
L 294.710842 10.002655 
L 294.710842 75.151978 
z
" clip-path="url(#pd3d0f9da99)" style="fill: #f56cf0; opacity: 0.3"/>
   </g>
   <g id="line2d_30">
    <path d="M 72.887071 75.151978 
L 72.887071 10.002655 
" clip-path="url(#pd3d0f9da99)" style="fill: none; stroke: #f56cf0; stroke-opacity: 0.3; stroke-width: 1.5; stroke-linecap: square"/>
   </g>
   <g id="line2d_31">
    <path d="M 98.200294 75.151978 
L 98.200294 10.002655 
" clip-path="url(#pd3d0f9da99)" style="fill: none; stroke: #f56cf0; stroke-opacity: 0.3; stroke-width: 1.5; stroke-linecap: square"/>
   </g>
   <g id="line2d_32">
    <path d="M 118.184418 75.151978 
L 118.184418 10.002655 
" clip-path="url(#pd3d0f9da99)" style="fill: none; stroke: #f56cf0; stroke-opacity: 0.3; stroke-width: 1.5; stroke-linecap: square"/>
   </g>
   <g id="line2d_33">
    <path d="M 124.512724 75.151978 
L 124.512724 10.002655 
" clip-path="url(#pd3d0f9da99)" style="fill: none; stroke: #f56cf0; stroke-opacity: 0.3; stroke-width: 1.5; stroke-linecap: square"/>
   </g>
   <g id="line2d_34">
    <path d="M 129.841823 75.151978 
L 129.841823 10.002655 
" clip-path="url(#pd3d0f9da99)" style="fill: none; stroke: #f56cf0; stroke-opacity: 0.3; stroke-width: 1.5; stroke-linecap: square"/>
   </g>
   <g id="line2d_35">
    <path d="M 136.170129 75.151978 
L 136.170129 10.002655 
" clip-path="url(#pd3d0f9da99)" style="fill: none; stroke: #f56cf0; stroke-opacity: 0.3; stroke-width: 1.5; stroke-linecap: square"/>
   </g>
   <g id="line2d_36">
    <path d="M 140.500022 75.151978 
L 140.500022 10.002655 
" clip-path="url(#pd3d0f9da99)" style="fill: none; stroke: #f56cf0; stroke-opacity: 0.3; stroke-width: 1.5; stroke-linecap: square"/>
   </g>
   <g id="line2d_37">
    <path d="M 145.496053 75.151978 
L 145.496053 10.002655 
" clip-path="url(#pd3d0f9da99)" style="fill: none; stroke: #f56cf0; stroke-opacity: 0.3; stroke-width: 1.5; stroke-linecap: square"/>
   </g>
   <g id="line2d_38">
    <path d="M 151.49129 75.151978 
L 151.49129 10.002655 
" clip-path="url(#pd3d0f9da99)" style="fill: none; stroke: #f56cf0; stroke-opacity: 0.3; stroke-width: 1.5; stroke-linecap: square"/>
   </g>
   <g id="line2d_39">
    <path d="M 152.823565 75.151978 
L 152.823565 10.002655 
" clip-path="url(#pd3d0f9da99)" style="fill: none; stroke: #f56cf0; stroke-opacity: 0.3; stroke-width: 1.5; stroke-linecap: square"/>
   </g>
   <g id="line2d_40">
    <path d="M 154.821977 75.151978 
L 154.821977 10.002655 
" clip-path="url(#pd3d0f9da99)" style="fill: none; stroke: #f56cf0; stroke-opacity: 0.3; stroke-width: 1.5; stroke-linecap: square"/>
   </g>
   <g id="line2d_41">
    <path d="M 156.82039 75.151978 
L 156.82039 10.002655 
" clip-path="url(#pd3d0f9da99)" style="fill: none; stroke: #f56cf0; stroke-opacity: 0.3; stroke-width: 1.5; stroke-linecap: square"/>
   </g>
   <g id="line2d_42">
    <path d="M 160.151077 75.151978 
L 160.151077 10.002655 
" clip-path="url(#pd3d0f9da99)" style="fill: none; stroke: #f56cf0; stroke-opacity: 0.3; stroke-width: 1.5; stroke-linecap: square"/>
   </g>
   <g id="line2d_43">
    <path d="M 171.142345 75.151978 
L 171.142345 10.002655 
" clip-path="url(#pd3d0f9da99)" style="fill: none; stroke: #f56cf0; stroke-opacity: 0.3; stroke-width: 1.5; stroke-linecap: square"/>
   </g>
   <g id="line2d_44">
    <path d="M 173.806895 75.151978 
L 173.806895 10.002655 
" clip-path="url(#pd3d0f9da99)" style="fill: none; stroke: #f56cf0; stroke-opacity: 0.3; stroke-width: 1.5; stroke-linecap: square"/>
   </g>
   <g id="line2d_45">
    <path d="M 176.138376 75.151978 
L 176.138376 10.002655 
" clip-path="url(#pd3d0f9da99)" style="fill: none; stroke: #f56cf0; stroke-opacity: 0.3; stroke-width: 1.5; stroke-linecap: square"/>
   </g>
   <g id="line2d_46">
    <path d="M 178.469857 75.151978 
L 178.469857 10.002655 
" clip-path="url(#pd3d0f9da99)" style="fill: none; stroke: #f56cf0; stroke-opacity: 0.3; stroke-width: 1.5; stroke-linecap: square"/>
   </g>
   <g id="line2d_47">
    <path d="M 178.802926 75.151978 
L 178.802926 10.002655 
" clip-path="url(#pd3d0f9da99)" style="fill: none; stroke: #f56cf0; stroke-opacity: 0.3; stroke-width: 1.5; stroke-linecap: square"/>
   </g>
   <g id="line2d_48">
    <path d="M 180.1352 75.151978 
L 180.1352 10.002655 
" clip-path="url(#pd3d0f9da99)" style="fill: none; stroke: #f56cf0; stroke-opacity: 0.3; stroke-width: 1.5; stroke-linecap: square"/>
   </g>
   <g id="line2d_49">
    <path d="M 190.127262 75.151978 
L 190.127262 10.002655 
" clip-path="url(#pd3d0f9da99)" style="fill: none; stroke: #f56cf0; stroke-opacity: 0.3; stroke-width: 1.5; stroke-linecap: square"/>
   </g>
   <g id="line2d_50">
    <path d="M 196.788637 75.151978 
L 196.788637 10.002655 
" clip-path="url(#pd3d0f9da99)" style="fill: none; stroke: #f56cf0; stroke-opacity: 0.3; stroke-width: 1.5; stroke-linecap: square"/>
   </g>
   <g id="line2d_51">
    <path d="M 198.120912 75.151978 
L 198.120912 10.002655 
" clip-path="url(#pd3d0f9da99)" style="fill: none; stroke: #f56cf0; stroke-opacity: 0.3; stroke-width: 1.5; stroke-linecap: square"/>
   </g>
   <g id="line2d_52">
    <path d="M 200.119324 75.151978 
L 200.119324 10.002655 
" clip-path="url(#pd3d0f9da99)" style="fill: none; stroke: #f56cf0; stroke-opacity: 0.3; stroke-width: 1.5; stroke-linecap: square"/>
   </g>
   <g id="line2d_53">
    <path d="M 201.784668 75.151978 
L 201.784668 10.002655 
" clip-path="url(#pd3d0f9da99)" style="fill: none; stroke: #f56cf0; stroke-opacity: 0.3; stroke-width: 1.5; stroke-linecap: square"/>
   </g>
   <g id="line2d_54">
    <path d="M 202.450805 75.151978 
L 202.450805 10.002655 
" clip-path="url(#pd3d0f9da99)" style="fill: none; stroke: #f56cf0; stroke-opacity: 0.3; stroke-width: 1.5; stroke-linecap: square"/>
   </g>
   <g id="line2d_55">
    <path d="M 208.112973 75.151978 
L 208.112973 10.002655 
" clip-path="url(#pd3d0f9da99)" style="fill: none; stroke: #f56cf0; stroke-opacity: 0.3; stroke-width: 1.5; stroke-linecap: square"/>
   </g>
   <g id="line2d_56">
    <path d="M 208.779111 75.151978 
L 208.779111 10.002655 
" clip-path="url(#pd3d0f9da99)" style="fill: none; stroke: #f56cf0; stroke-opacity: 0.3; stroke-width: 1.5; stroke-linecap: square"/>
   </g>
   <g id="line2d_57">
    <path d="M 211.110592 75.151978 
L 211.110592 10.002655 
" clip-path="url(#pd3d0f9da99)" style="fill: none; stroke: #f56cf0; stroke-opacity: 0.3; stroke-width: 1.5; stroke-linecap: square"/>
   </g>
   <g id="line2d_58">
    <path d="M 214.10821 75.151978 
L 214.10821 10.002655 
" clip-path="url(#pd3d0f9da99)" style="fill: none; stroke: #f56cf0; stroke-opacity: 0.3; stroke-width: 1.5; stroke-linecap: square"/>
   </g>
   <g id="line2d_59">
    <path d="M 215.107416 75.151978 
L 215.107416 10.002655 
" clip-path="url(#pd3d0f9da99)" style="fill: none; stroke: #f56cf0; stroke-opacity: 0.3; stroke-width: 1.5; stroke-linecap: square"/>
   </g>
   <g id="line2d_60">
    <path d="M 216.77276 75.151978 
L 216.77276 10.002655 
" clip-path="url(#pd3d0f9da99)" style="fill: none; stroke: #f56cf0; stroke-opacity: 0.3; stroke-width: 1.5; stroke-linecap: square"/>
   </g>
   <g id="line2d_61">
    <path d="M 218.771172 75.151978 
L 218.771172 10.002655 
" clip-path="url(#pd3d0f9da99)" style="fill: none; stroke: #f56cf0; stroke-opacity: 0.3; stroke-width: 1.5; stroke-linecap: square"/>
   </g>
   <g id="line2d_62">
    <path d="M 221.435722 75.151978 
L 221.435722 10.002655 
" clip-path="url(#pd3d0f9da99)" style="fill: none; stroke: #f56cf0; stroke-opacity: 0.3; stroke-width: 1.5; stroke-linecap: square"/>
   </g>
   <g id="line2d_63">
    <path d="M 223.101066 75.151978 
L 223.101066 10.002655 
" clip-path="url(#pd3d0f9da99)" style="fill: none; stroke: #f56cf0; stroke-opacity: 0.3; stroke-width: 1.5; stroke-linecap: square"/>
   </g>
   <g id="line2d_64">
    <path d="M 226.764822 75.151978 
L 226.764822 10.002655 
" clip-path="url(#pd3d0f9da99)" style="fill: none; stroke: #f56cf0; stroke-opacity: 0.3; stroke-width: 1.5; stroke-linecap: square"/>
   </g>
   <g id="line2d_65">
    <path d="M 231.760853 75.151978 
L 231.760853 10.002655 
" clip-path="url(#pd3d0f9da99)" style="fill: none; stroke: #f56cf0; stroke-opacity: 0.3; stroke-width: 1.5; stroke-linecap: square"/>
   </g>
   <g id="line2d_66">
    <path d="M 234.425402 75.151978 
L 234.425402 10.002655 
" clip-path="url(#pd3d0f9da99)" style="fill: none; stroke: #f56cf0; stroke-opacity: 0.3; stroke-width: 1.5; stroke-linecap: square"/>
   </g>
   <g id="line2d_67">
    <path d="M 251.078839 75.151978 
L 251.078839 10.002655 
" clip-path="url(#pd3d0f9da99)" style="fill: none; stroke: #f56cf0; stroke-opacity: 0.3; stroke-width: 1.5; stroke-linecap: square"/>
   </g>
   <g id="line2d_68">
    <path d="M 254.742595 75.151978 
L 254.742595 10.002655 
" clip-path="url(#pd3d0f9da99)" style="fill: none; stroke: #f56cf0; stroke-opacity: 0.3; stroke-width: 1.5; stroke-linecap: square"/>
   </g>
   <g id="line2d_69">
    <path d="M 262.070107 75.151978 
L 262.070107 10.002655 
" clip-path="url(#pd3d0f9da99)" style="fill: none; stroke: #f56cf0; stroke-opacity: 0.3; stroke-width: 1.5; stroke-linecap: square"/>
   </g>
   <g id="line2d_70">
    <path d="M 264.401588 75.151978 
L 264.401588 10.002655 
" clip-path="url(#pd3d0f9da99)" style="fill: none; stroke: #f56cf0; stroke-opacity: 0.3; stroke-width: 1.5; stroke-linecap: square"/>
   </g>
   <g id="line2d_71">
    <path d="M 266.066931 75.151978 
L 266.066931 10.002655 
" clip-path="url(#pd3d0f9da99)" style="fill: none; stroke: #f56cf0; stroke-opacity: 0.3; stroke-width: 1.5; stroke-linecap: square"/>
   </g>
   <g id="line2d_72">
    <path d="M 266.733069 75.151978 
L 266.733069 10.002655 
" clip-path="url(#pd3d0f9da99)" style="fill: none; stroke: #f56cf0; stroke-opacity: 0.3; stroke-width: 1.5; stroke-linecap: square"/>
   </g>
   <g id="line2d_73">
    <path clip-path="url(#pd3d0f9da99)" style="fill: none; stroke: #f56cf0; stroke-opacity: 0.3; stroke-width: 1.5; stroke-linecap: square"/>
   </g>
   <g id="line2d_74">
    <path clip-path="url(#pd3d0f9da99)" style="fill: none; stroke: #f56cf0; stroke-opacity: 0.3; stroke-width: 1.5; stroke-linecap: square"/>
   </g>
   <g id="line2d_75">
    <path clip-path="url(#pd3d0f9da99)" style="fill: none; stroke: #f56cf0; stroke-opacity: 0.3; stroke-width: 1.5; stroke-linecap: square"/>
   </g>
   <g id="line2d_76">
    <path clip-path="url(#pd3d0f9da99)" style="fill: none; stroke: #f56cf0; stroke-opacity: 0.3; stroke-width: 1.5; stroke-linecap: square"/>
   </g>
   <g id="line2d_77">
    <path clip-path="url(#pd3d0f9da99)" style="fill: none; stroke: #f56cf0; stroke-opacity: 0.3; stroke-width: 1.5; stroke-linecap: square"/>
   </g>
   <g id="line2d_78">
    <path clip-path="url(#pd3d0f9da99)" style="fill: none; stroke: #f56cf0; stroke-opacity: 0.3; stroke-width: 1.5; stroke-linecap: square"/>
   </g>
   <g id="line2d_79">
    <path clip-path="url(#pd3d0f9da99)" style="fill: none; stroke: #f56cf0; stroke-opacity: 0.3; stroke-width: 1.5; stroke-linecap: square"/>
   </g>
   <g id="matplotlib.axis_1">
    <g id="xtick_1">
     <g id="line2d_80">
      <defs>
       <path id="m7a79df3382" d="M 0 0 
L 0 3.5 
" style="stroke: #000000; stroke-width: 0.8"/>
      </defs>
      <g>
       <use xlink:href="#m7a79df3382" x="32.585756" y="75.151978" style="stroke: #000000; stroke-width: 0.8"/>
      </g>
     </g>
     <g id="text_1">
      <!-- $\mathdefault{2021/03}$ -->
      <g transform="translate(16.389785 98.394207) rotate(-15) scale(0.1 -0.1)">
       <defs>
        <path id="CMR17-32" d="M 2669 989 
L 2554 989 
C 2490 536 2438 459 2413 420 
C 2381 369 1920 369 1830 369 
L 602 369 
C 832 619 1280 1072 1824 1597 
C 2214 1967 2669 2402 2669 3035 
C 2669 3790 2067 4224 1395 4224 
C 691 4224 262 3604 262 3030 
C 262 2780 448 2748 525 2748 
C 589 2748 781 2787 781 3010 
C 781 3207 614 3264 525 3264 
C 486 3264 448 3258 422 3245 
C 544 3790 915 4058 1306 4058 
C 1862 4058 2227 3617 2227 3035 
C 2227 2479 1901 2000 1536 1584 
L 262 146 
L 262 0 
L 2515 0 
L 2669 989 
z
" transform="scale(0.015625)"/>
        <path id="CMR17-30" d="M 2688 2025 
C 2688 2416 2682 3080 2413 3591 
C 2176 4039 1798 4198 1466 4198 
C 1158 4198 768 4058 525 3597 
C 269 3118 243 2524 243 2025 
C 243 1661 250 1106 448 619 
C 723 -39 1216 -128 1466 -128 
C 1760 -128 2208 -7 2470 600 
C 2662 1042 2688 1559 2688 2025 
z
M 1466 -26 
C 1056 -26 813 325 723 812 
C 653 1188 653 1738 653 2096 
C 653 2588 653 2997 736 3387 
C 858 3929 1216 4096 1466 4096 
C 1728 4096 2067 3923 2189 3400 
C 2272 3036 2278 2607 2278 2096 
C 2278 1680 2278 1169 2202 792 
C 2067 95 1690 -26 1466 -26 
z
" transform="scale(0.015625)"/>
        <path id="CMR17-31" d="M 1702 4058 
C 1702 4192 1696 4192 1606 4192 
C 1357 3916 979 3827 621 3827 
C 602 3827 570 3827 563 3808 
C 557 3795 557 3782 557 3648 
C 755 3648 1088 3686 1344 3839 
L 1344 461 
C 1344 236 1331 160 781 160 
L 589 160 
L 589 0 
C 896 0 1216 0 1523 0 
C 1830 0 2150 0 2458 0 
L 2458 160 
L 2266 160 
C 1715 160 1702 230 1702 458 
L 1702 4058 
z
" transform="scale(0.015625)"/>
        <path id="CMMI12-3d" d="M 2746 4562 
C 2746 4569 2784 4666 2784 4678 
C 2784 4755 2720 4800 2669 4800 
C 2637 4800 2579 4800 2528 4659 
L 384 -1363 
C 384 -1370 346 -1465 346 -1478 
C 346 -1555 410 -1600 461 -1600 
C 499 -1600 557 -1593 602 -1459 
L 2746 4562 
z
" transform="scale(0.015625)"/>
        <path id="CMR17-33" d="M 1414 2157 
C 1984 2157 2234 1662 2234 1090 
C 2234 320 1824 25 1453 25 
C 1114 25 563 194 390 693 
C 422 680 454 680 486 680 
C 640 680 755 782 755 948 
C 755 1133 614 1216 486 1216 
C 378 1216 211 1165 211 926 
C 211 335 787 -128 1466 -128 
C 2176 -128 2720 430 2720 1085 
C 2720 1707 2208 2157 1600 2227 
C 2086 2328 2554 2756 2554 3329 
C 2554 3820 2048 4179 1472 4179 
C 890 4179 378 3829 378 3329 
C 378 3110 544 3072 627 3072 
C 762 3072 877 3155 877 3321 
C 877 3486 762 3569 627 3569 
C 602 3569 570 3569 544 3557 
C 730 3959 1235 4032 1459 4032 
C 1683 4032 2106 3925 2106 3320 
C 2106 3143 2080 2828 1862 2550 
C 1670 2304 1453 2304 1242 2284 
C 1210 2284 1062 2269 1037 2269 
C 992 2263 966 2257 966 2208 
C 966 2163 973 2157 1101 2157 
L 1414 2157 
z
" transform="scale(0.015625)"/>
       </defs>
       <use xlink:href="#CMR17-32" transform="scale(0.996264)"/>
       <use xlink:href="#CMR17-30" transform="translate(45.690477 0) scale(0.996264)"/>
       <use xlink:href="#CMR17-32" transform="translate(91.380954 0) scale(0.996264)"/>
       <use xlink:href="#CMR17-31" transform="translate(137.071431 0) scale(0.996264)"/>
       <use xlink:href="#CMMI12-3d" transform="translate(182.761908 0) scale(0.996264)"/>
       <use xlink:href="#CMR17-30" transform="translate(231.536827 0) scale(0.996264)"/>
       <use xlink:href="#CMR17-33" transform="translate(277.227304 0) scale(0.996264)"/>
      </g>
     </g>
    </g>
    <g id="xtick_2">
     <g id="line2d_81">
      <g>
       <use xlink:href="#m7a79df3382" x="63.228078" y="75.151978" style="stroke: #000000; stroke-width: 0.8"/>
      </g>
     </g>
     <g id="text_2">
      <!-- $\mathdefault{2021/06}$ -->
      <g transform="translate(47.032107 98.394207) rotate(-15) scale(0.1 -0.1)">
       <defs>
        <path id="CMR17-36" d="M 678 2176 
C 678 3690 1395 4032 1811 4032 
C 1946 4032 2272 4009 2400 3776 
C 2298 3776 2106 3776 2106 3553 
C 2106 3381 2246 3323 2336 3323 
C 2394 3323 2566 3348 2566 3560 
C 2566 3954 2246 4179 1805 4179 
C 1043 4179 243 3390 243 1984 
C 243 253 966 -128 1478 -128 
C 2099 -128 2688 427 2688 1283 
C 2688 2081 2170 2662 1517 2662 
C 1126 2662 838 2407 678 1960 
L 678 2176 
z
M 1478 25 
C 691 25 691 1200 691 1436 
C 691 1896 909 2560 1504 2560 
C 1613 2560 1926 2560 2138 2120 
C 2253 1870 2253 1609 2253 1289 
C 2253 944 2253 690 2118 434 
C 1978 171 1773 25 1478 25 
z
" transform="scale(0.015625)"/>
       </defs>
       <use xlink:href="#CMR17-32" transform="scale(0.996264)"/>
       <use xlink:href="#CMR17-30" transform="translate(45.690477 0) scale(0.996264)"/>
       <use xlink:href="#CMR17-32" transform="translate(91.380954 0) scale(0.996264)"/>
       <use xlink:href="#CMR17-31" transform="translate(137.071431 0) scale(0.996264)"/>
       <use xlink:href="#CMMI12-3d" transform="translate(182.761908 0) scale(0.996264)"/>
       <use xlink:href="#CMR17-30" transform="translate(231.536827 0) scale(0.996264)"/>
       <use xlink:href="#CMR17-36" transform="translate(277.227304 0) scale(0.996264)"/>
      </g>
     </g>
    </g>
    <g id="xtick_3">
     <g id="line2d_82">
      <g>
       <use xlink:href="#m7a79df3382" x="93.870401" y="75.151978" style="stroke: #000000; stroke-width: 0.8"/>
      </g>
     </g>
     <g id="text_3">
      <!-- $\mathdefault{2021/09}$ -->
      <g transform="translate(77.67443 98.394207) rotate(-15) scale(0.1 -0.1)">
       <defs>
        <path id="CMR17-39" d="M 2253 1864 
C 2253 464 1670 31 1190 31 
C 1043 31 685 31 538 294 
C 704 268 826 357 826 518 
C 826 692 685 749 595 749 
C 538 749 365 723 365 506 
C 365 71 742 -128 1203 -128 
C 1939 -128 2688 674 2688 2073 
C 2688 3817 1971 4179 1485 4179 
C 851 4179 243 3628 243 2778 
C 243 1991 762 1408 1414 1408 
C 1952 1408 2189 1903 2253 2112 
L 2253 1864 
z
M 1427 1510 
C 1254 1510 1011 1542 813 1922 
C 678 2169 678 2461 678 2771 
C 678 3146 678 3405 858 3684 
C 947 3817 1114 4032 1485 4032 
C 2240 4032 2240 2885 2240 2632 
C 2240 2182 2035 1510 1427 1510 
z
" transform="scale(0.015625)"/>
       </defs>
       <use xlink:href="#CMR17-32" transform="scale(0.996264)"/>
       <use xlink:href="#CMR17-30" transform="translate(45.690477 0) scale(0.996264)"/>
       <use xlink:href="#CMR17-32" transform="translate(91.380954 0) scale(0.996264)"/>
       <use xlink:href="#CMR17-31" transform="translate(137.071431 0) scale(0.996264)"/>
       <use xlink:href="#CMMI12-3d" transform="translate(182.761908 0) scale(0.996264)"/>
       <use xlink:href="#CMR17-30" transform="translate(231.536827 0) scale(0.996264)"/>
       <use xlink:href="#CMR17-39" transform="translate(277.227304 0) scale(0.996264)"/>
      </g>
     </g>
    </g>
    <g id="xtick_4">
     <g id="line2d_83">
      <g>
       <use xlink:href="#m7a79df3382" x="124.179655" y="75.151978" style="stroke: #000000; stroke-width: 0.8"/>
      </g>
     </g>
     <g id="text_4">
      <!-- $\mathdefault{2021/12}$ -->
      <g transform="translate(107.983684 98.394207) rotate(-15) scale(0.1 -0.1)">
       <use xlink:href="#CMR17-32" transform="scale(0.996264)"/>
       <use xlink:href="#CMR17-30" transform="translate(45.690477 0) scale(0.996264)"/>
       <use xlink:href="#CMR17-32" transform="translate(91.380954 0) scale(0.996264)"/>
       <use xlink:href="#CMR17-31" transform="translate(137.071431 0) scale(0.996264)"/>
       <use xlink:href="#CMMI12-3d" transform="translate(182.761908 0) scale(0.996264)"/>
       <use xlink:href="#CMR17-31" transform="translate(231.536827 0) scale(0.996264)"/>
       <use xlink:href="#CMR17-32" transform="translate(277.227304 0) scale(0.996264)"/>
      </g>
     </g>
    </g>
    <g id="xtick_5">
     <g id="line2d_84">
      <g>
       <use xlink:href="#m7a79df3382" x="154.15584" y="75.151978" style="stroke: #000000; stroke-width: 0.8"/>
      </g>
     </g>
     <g id="text_5">
      <!-- $\mathdefault{2022/03}$ -->
      <g transform="translate(137.959869 98.394207) rotate(-15) scale(0.1 -0.1)">
       <use xlink:href="#CMR17-32" transform="scale(0.996264)"/>
       <use xlink:href="#CMR17-30" transform="translate(45.690477 0) scale(0.996264)"/>
       <use xlink:href="#CMR17-32" transform="translate(91.380954 0) scale(0.996264)"/>
       <use xlink:href="#CMR17-32" transform="translate(137.071431 0) scale(0.996264)"/>
       <use xlink:href="#CMMI12-3d" transform="translate(182.761908 0) scale(0.996264)"/>
       <use xlink:href="#CMR17-30" transform="translate(231.536827 0) scale(0.996264)"/>
       <use xlink:href="#CMR17-33" transform="translate(277.227304 0) scale(0.996264)"/>
      </g>
     </g>
    </g>
    <g id="xtick_6">
     <g id="line2d_85">
      <g>
       <use xlink:href="#m7a79df3382" x="184.798163" y="75.151978" style="stroke: #000000; stroke-width: 0.8"/>
      </g>
     </g>
     <g id="text_6">
      <!-- $\mathdefault{2022/06}$ -->
      <g transform="translate(168.602192 98.394207) rotate(-15) scale(0.1 -0.1)">
       <use xlink:href="#CMR17-32" transform="scale(0.996264)"/>
       <use xlink:href="#CMR17-30" transform="translate(45.690477 0) scale(0.996264)"/>
       <use xlink:href="#CMR17-32" transform="translate(91.380954 0) scale(0.996264)"/>
       <use xlink:href="#CMR17-32" transform="translate(137.071431 0) scale(0.996264)"/>
       <use xlink:href="#CMMI12-3d" transform="translate(182.761908 0) scale(0.996264)"/>
       <use xlink:href="#CMR17-30" transform="translate(231.536827 0) scale(0.996264)"/>
       <use xlink:href="#CMR17-36" transform="translate(277.227304 0) scale(0.996264)"/>
      </g>
     </g>
    </g>
    <g id="xtick_7">
     <g id="line2d_86">
      <g>
       <use xlink:href="#m7a79df3382" x="215.440485" y="75.151978" style="stroke: #000000; stroke-width: 0.8"/>
      </g>
     </g>
     <g id="text_7">
      <!-- $\mathdefault{2022/09}$ -->
      <g transform="translate(199.244514 98.394207) rotate(-15) scale(0.1 -0.1)">
       <use xlink:href="#CMR17-32" transform="scale(0.996264)"/>
       <use xlink:href="#CMR17-30" transform="translate(45.690477 0) scale(0.996264)"/>
       <use xlink:href="#CMR17-32" transform="translate(91.380954 0) scale(0.996264)"/>
       <use xlink:href="#CMR17-32" transform="translate(137.071431 0) scale(0.996264)"/>
       <use xlink:href="#CMMI12-3d" transform="translate(182.761908 0) scale(0.996264)"/>
       <use xlink:href="#CMR17-30" transform="translate(231.536827 0) scale(0.996264)"/>
       <use xlink:href="#CMR17-39" transform="translate(277.227304 0) scale(0.996264)"/>
      </g>
     </g>
    </g>
    <g id="xtick_8">
     <g id="line2d_87">
      <g>
       <use xlink:href="#m7a79df3382" x="245.749739" y="75.151978" style="stroke: #000000; stroke-width: 0.8"/>
      </g>
     </g>
     <g id="text_8">
      <!-- $\mathdefault{2022/12}$ -->
      <g transform="translate(229.553768 98.394207) rotate(-15) scale(0.1 -0.1)">
       <use xlink:href="#CMR17-32" transform="scale(0.996264)"/>
       <use xlink:href="#CMR17-30" transform="translate(45.690477 0) scale(0.996264)"/>
       <use xlink:href="#CMR17-32" transform="translate(91.380954 0) scale(0.996264)"/>
       <use xlink:href="#CMR17-32" transform="translate(137.071431 0) scale(0.996264)"/>
       <use xlink:href="#CMMI12-3d" transform="translate(182.761908 0) scale(0.996264)"/>
       <use xlink:href="#CMR17-31" transform="translate(231.536827 0) scale(0.996264)"/>
       <use xlink:href="#CMR17-32" transform="translate(277.227304 0) scale(0.996264)"/>
      </g>
     </g>
    </g>
   </g>
   <g id="matplotlib.axis_2">
    <g id="ytick_1">
     <g id="line2d_88">
      <defs>
       <path id="maae0f956cc" d="M 0 0 
L -3.5 0 
" style="stroke: #000000; stroke-width: 0.8"/>
      </defs>
      <g>
       <use xlink:href="#maae0f956cc" x="32.585756" y="72.190645" style="stroke: #000000; stroke-width: 0.8"/>
      </g>
     </g>
     <g id="text_9">
      <!-- $\mathdefault{0.0}$ -->
      <g transform="translate(12.855677 75.649894) scale(0.1 -0.1)">
       <defs>
        <path id="CMMI12-3a" d="M 1178 307 
C 1178 492 1024 619 870 619 
C 685 619 557 466 557 313 
C 557 128 710 0 864 0 
C 1050 0 1178 153 1178 307 
z
" transform="scale(0.015625)"/>
       </defs>
       <use xlink:href="#CMR17-30" transform="scale(0.996264)"/>
       <use xlink:href="#CMMI12-3a" transform="translate(45.690477 0) scale(0.996264)"/>
       <use xlink:href="#CMR17-30" transform="translate(72.787654 0) scale(0.996264)"/>
      </g>
     </g>
    </g>
    <g id="ytick_2">
     <g id="line2d_89">
      <g>
       <use xlink:href="#maae0f956cc" x="32.585756" y="41.270282" style="stroke: #000000; stroke-width: 0.8"/>
      </g>
     </g>
     <g id="text_10">
      <!-- $\mathdefault{0.5}$ -->
      <g transform="translate(12.855677 44.729531) scale(0.1 -0.1)">
       <defs>
        <path id="CMR17-35" d="M 730 3692 
C 794 3666 1056 3584 1325 3584 
C 1920 3584 2246 3911 2432 4100 
C 2432 4157 2432 4192 2394 4192 
C 2387 4192 2374 4192 2323 4163 
C 2099 4058 1837 3973 1517 3973 
C 1325 3973 1037 3999 723 4139 
C 653 4171 640 4171 634 4171 
C 602 4171 595 4164 595 4037 
L 595 2203 
C 595 2089 595 2057 659 2057 
C 691 2057 704 2070 736 2114 
C 941 2401 1222 2522 1542 2522 
C 1766 2522 2246 2382 2246 1289 
C 2246 1085 2246 715 2054 421 
C 1894 159 1645 25 1370 25 
C 947 25 518 320 403 814 
C 429 807 480 795 506 795 
C 589 795 749 840 749 1038 
C 749 1210 627 1280 506 1280 
C 358 1280 262 1190 262 1011 
C 262 454 704 -128 1382 -128 
C 2042 -128 2669 440 2669 1264 
C 2669 2030 2170 2624 1549 2624 
C 1222 2624 947 2503 730 2274 
L 730 3692 
z
" transform="scale(0.015625)"/>
       </defs>
       <use xlink:href="#CMR17-30" transform="scale(0.996264)"/>
       <use xlink:href="#CMMI12-3a" transform="translate(45.690477 0) scale(0.996264)"/>
       <use xlink:href="#CMR17-35" transform="translate(72.787654 0) scale(0.996264)"/>
      </g>
     </g>
    </g>
    <g id="ytick_3">
     <g id="line2d_90">
      <g>
       <use xlink:href="#maae0f956cc" x="32.585756" y="10.349919" style="stroke: #000000; stroke-width: 0.8"/>
      </g>
     </g>
     <g id="text_11">
      <!-- $\mathdefault{1.0}$ -->
      <g transform="translate(12.855677 13.809168) scale(0.1 -0.1)">
       <use xlink:href="#CMR17-31" transform="scale(0.996264)"/>
       <use xlink:href="#CMMI12-3a" transform="translate(45.690477 0) scale(0.996264)"/>
       <use xlink:href="#CMR17-30" transform="translate(72.787654 0) scale(0.996264)"/>
      </g>
     </g>
    </g>
    <g id="text_12">
     <!-- Probe Count -->
     <g transform="translate(6.918498 70.611136) rotate(-90) scale(0.1 -0.1)">
      <defs>
       <path id="CMR17-50" d="M 1267 2042 
L 2291 2042 
C 3117 2042 3718 2578 3718 3184 
C 3718 3791 3130 4352 2291 4352 
L 333 4352 
L 333 4186 
C 774 4186 845 4186 845 3899 
L 845 446 
C 845 160 774 160 333 160 
L 333 0 
C 518 0 858 0 1056 0 
C 1254 0 1594 0 1779 0 
L 1779 160 
C 1338 160 1267 160 1267 446 
L 1267 2042 
z
M 1254 2176 
L 1254 3938 
C 1254 4155 1267 4186 1523 4186 
L 2170 4186 
C 2995 4186 3232 3714 3232 3184 
C 3232 2604 2950 2176 2170 2176 
L 1254 2176 
z
" transform="scale(0.015625)"/>
       <path id="CMR17-72" d="M 960 1497 
C 960 2112 1222 2688 1702 2688 
C 1747 2688 1792 2682 1837 2662 
C 1837 2662 1696 2617 1696 2452 
C 1696 2298 1818 2234 1914 2234 
C 1990 2234 2131 2279 2131 2458 
C 2131 2663 1926 2790 1709 2790 
C 1222 2790 1011 2317 947 2093 
L 941 2093 
L 941 2790 
L 198 2720 
L 198 2554 
C 576 2554 634 2515 634 2208 
L 634 428 
C 634 184 608 153 198 153 
L 198 -13 
C 352 0 646 0 813 0 
C 998 0 1325 0 1498 -13 
L 1498 153 
C 1037 153 960 153 960 440 
L 960 1497 
z
" transform="scale(0.015625)"/>
       <path id="CMR17-6f" d="M 2758 1356 
C 2758 2176 2163 2816 1466 2816 
C 768 2816 173 2176 173 1356 
C 173 551 768 -64 1466 -64 
C 2163 -64 2758 551 2758 1356 
z
M 1466 51 
C 1165 51 909 230 762 480 
C 602 767 582 1126 582 1408 
C 582 1677 595 2010 762 2298 
C 890 2509 1139 2714 1466 2714 
C 1754 2714 1997 2554 2150 2330 
C 2349 2029 2349 1607 2349 1408 
C 2349 1158 2336 775 2163 467 
C 1984 173 1709 51 1466 51 
z
" transform="scale(0.015625)"/>
       <path id="CMR17-62" d="M 960 4396 
L 198 4326 
L 198 4160 
C 576 4160 634 4122 634 3817 
L 634 -13 
L 749 -13 
L 934 441 
C 1120 141 1395 -64 1766 -64 
C 2406 -64 3053 500 3053 1370 
C 3053 2188 2477 2790 1830 2790 
C 1434 2790 1152 2579 960 2330 
L 960 4396 
z
M 973 2004 
C 973 2118 973 2138 1062 2272 
C 1312 2657 1670 2688 1792 2688 
C 1984 2688 2643 2585 2643 1376 
C 2643 108 1888 38 1734 38 
C 1536 38 1248 114 1043 486 
C 973 608 973 621 973 735 
L 973 2004 
z
" transform="scale(0.015625)"/>
       <path id="CMR17-65" d="M 2438 1472 
C 2464 1498 2464 1511 2464 1576 
C 2464 2238 2118 2816 1389 2816 
C 710 2816 173 2169 173 1383 
C 173 551 781 -64 1459 -64 
C 2176 -64 2458 607 2458 740 
C 2458 784 2419 784 2406 784 
C 2362 784 2355 771 2330 696 
C 2189 265 1837 51 1504 51 
C 1229 51 954 203 781 480 
C 582 803 582 1176 582 1472 
L 2438 1472 
z
M 589 1568 
C 634 2505 1126 2714 1382 2714 
C 1818 2714 2112 2297 2118 1568 
L 589 1568 
z
" transform="scale(0.015625)"/>
       <path id="CMR17-43" d="M 3974 4289 
C 3974 4403 3968 4410 3930 4410 
C 3904 4410 3898 4403 3853 4327 
L 3571 3792 
C 3258 4187 2874 4416 2381 4416 
C 1286 4416 294 3456 294 2148 
C 294 826 1286 -128 2387 -128 
C 3366 -128 3974 730 3974 1461 
C 3974 1524 3974 1550 3917 1550 
C 3866 1550 3866 1531 3859 1474 
C 3808 585 3168 38 2477 38 
C 1824 38 781 495 781 2147 
C 781 3805 1843 4250 2464 4250 
C 3187 4250 3712 3628 3834 2745 
C 3846 2668 3846 2655 3904 2655 
C 3974 2655 3974 2668 3974 2783 
L 3974 4289 
z
" transform="scale(0.015625)"/>
       <path id="CMR17-75" d="M 1882 2693 
L 1882 2528 
C 2259 2528 2317 2489 2317 2186 
L 2317 1032 
C 2317 500 2029 38 1555 38 
C 1030 38 986 348 986 678 
L 986 2763 
L 211 2693 
L 211 2528 
C 467 2528 640 2528 646 2274 
L 646 1058 
C 646 633 646 361 813 183 
C 896 101 1056 -64 1517 -64 
C 2061 -64 2272 377 2323 506 
L 2330 506 
L 2330 -63 
L 3091 -63 
L 3091 128 
C 2714 128 2656 166 2656 473 
L 2656 2763 
L 1882 2693 
z
" transform="scale(0.015625)"/>
       <path id="CMR17-6e" d="M 2656 1933 
C 2656 2259 2592 2790 1837 2790 
C 1331 2790 1069 2400 973 2144 
L 966 2144 
L 966 2790 
L 211 2720 
L 211 2554 
C 589 2554 646 2515 646 2208 
L 646 428 
C 646 184 621 153 211 153 
L 211 -13 
C 365 0 646 0 813 0 
C 979 0 1267 0 1421 -13 
L 1421 153 
C 1011 153 986 178 986 428 
L 986 1658 
C 986 2247 1344 2688 1792 2688 
C 2266 2688 2317 2266 2317 1958 
L 2317 428 
C 2317 184 2291 153 1882 153 
L 1882 -13 
C 2035 0 2317 0 2483 0 
C 2650 0 2938 0 3091 -13 
L 3091 153 
C 2682 153 2656 178 2656 428 
L 2656 1933 
z
" transform="scale(0.015625)"/>
       <path id="CMR17-74" d="M 966 2560 
L 1862 2560 
L 1862 2725 
L 966 2725 
L 966 3904 
L 851 3904 
C 838 3245 614 2668 70 2668 
L 70 2560 
L 627 2560 
L 627 771 
C 627 650 627 -64 1370 -64 
C 1747 -64 1965 306 1965 777 
L 1965 1140 
L 1850 1140 
L 1850 783 
C 1850 344 1677 51 1408 51 
C 1222 51 966 178 966 758 
L 966 2560 
z
" transform="scale(0.015625)"/>
      </defs>
      <use xlink:href="#CMR17-50" transform="scale(0.996264)"/>
      <use xlink:href="#CMR17-72" transform="translate(62.586301 0) scale(0.996264)"/>
      <use xlink:href="#CMR17-6f" transform="translate(97.867068 0) scale(0.996264)"/>
      <use xlink:href="#CMR17-62" transform="translate(143.557545 0) scale(0.996264)"/>
      <use xlink:href="#CMR17-65" transform="translate(197.055354 0) scale(0.996264)"/>
      <use xlink:href="#CMR17-43" transform="translate(267.616981 0) scale(0.996264)"/>
      <use xlink:href="#CMR17-6f" transform="translate(334.126861 0) scale(0.996264)"/>
      <use xlink:href="#CMR17-75" transform="translate(379.817338 0) scale(0.996264)"/>
      <use xlink:href="#CMR17-6e" transform="translate(430.712708 0) scale(0.996264)"/>
      <use xlink:href="#CMR17-74" transform="translate(479.005624 0) scale(0.996264)"/>
     </g>
    </g>
    <g id="text_13">
     <!-- $\times\mathdefault{10^{6}}\mathdefault{}$ -->
     <g transform="translate(32.585756 7.002655) scale(0.1 -0.1)">
      <defs>
       <path id="CMSY10-2" d="M 2490 1785 
L 1210 3059 
C 1133 3136 1120 3148 1069 3148 
C 1005 3148 941 3091 941 3020 
C 941 2976 954 2963 1024 2892 
L 2304 1606 
L 1024 320 
C 954 249 941 236 941 192 
C 941 121 1005 64 1069 64 
C 1120 64 1133 76 1210 153 
L 2483 1427 
L 3808 102 
C 3821 96 3866 64 3904 64 
C 3981 64 4032 121 4032 192 
C 4032 204 4032 230 4013 262 
C 4006 275 2989 1280 2669 1606 
L 3840 2777 
C 3872 2816 3968 2899 4000 2937 
C 4006 2950 4032 2976 4032 3020 
C 4032 3091 3981 3148 3904 3148 
C 3853 3148 3827 3123 3757 3052 
L 2490 1785 
z
" transform="scale(0.015625)"/>
      </defs>
      <use xlink:href="#CMSY10-2" transform="scale(0.996264)"/>
      <use xlink:href="#CMR17-31" transform="translate(77.487468 0) scale(0.996264)"/>
      <use xlink:href="#CMR17-30" transform="translate(123.177945 0) scale(0.996264)"/>
      <use xlink:href="#CMR17-36" transform="translate(168.868422 36.153639) scale(0.697382)"/>
     </g>
    </g>
   </g>
   <g id="line2d_91">
    <path d="M -1 72.190645 
L 2.609571 72.190645 
L 12.934701 72.190645 
L 23.259831 72.190645 
L 32.585756 72.190645 
L 42.910886 72.190645 
L 52.902948 72.190645 
L 63.228078 72.190397 
L 73.22014 72.188975 
L 83.54527 72.189099 
L 93.870401 72.176298 
L 103.862463 71.892201 
L 114.187593 70.774925 
L 124.179655 69.170467 
L 134.504785 66.7063 
L 144.829916 59.084307 
L 154.15584 41.215058 
L 164.48097 28.02035 
L 174.473032 24.090928 
L 184.798163 18.803113 
L 194.790224 15.712809 
L 205.115355 16.619023 
L 215.440485 17.532225 
L 225.432547 20.403489 
L 235.757677 22.260319 
L 245.749739 19.846243 
L 256.07487 12.963988 
L 266.4 18.36559 
L 267.4 24.137142 
" clip-path="url(#pd3d0f9da99)" style="fill: none; stroke: #1f77b4; stroke-width: 1.5; stroke-linecap: square"/>
   </g>
   <g id="patch_5">
    <path d="M 32.585756 75.151978 
L 32.585756 10.002655 
" style="fill: none; stroke: #000000; stroke-width: 0.8; stroke-linejoin: miter; stroke-linecap: square"/>
   </g>
   <g id="patch_6">
    <path d="M 266.4 75.151978 
L 266.4 10.002655 
" style="fill: none; stroke: #000000; stroke-width: 0.8; stroke-linejoin: miter; stroke-linecap: square"/>
   </g>
   <g id="patch_7">
    <path d="M 32.585756 75.151978 
L 266.4 75.151978 
" style="fill: none; stroke: #000000; stroke-width: 0.8; stroke-linejoin: miter; stroke-linecap: square"/>
   </g>
   <g id="patch_8">
    <path d="M 32.585756 10.002655 
L 266.4 10.002655 
" style="fill: none; stroke: #000000; stroke-width: 0.8; stroke-linejoin: miter; stroke-linecap: square"/>
   </g>
   <g id="legend_1">
    <g id="patch_9">
     <path d="M 37.585756 41.086116 
L 120.215879 41.086116 
L 120.215879 14.61176 
L 37.585756 14.61176 
z
" style="fill: #ffffff; opacity: 0.8; stroke: #000000; stroke-linejoin: miter"/>
    </g>
    <g id="patch_10">
     <path d="M 41.585756 25.61176 
L 51.585756 25.61176 
L 51.585756 18.61176 
L 41.585756 18.61176 
z
" style="fill: #6ca0f5; opacity: 0.3"/>
    </g>
    <g id="text_14">
     <!-- v1.0 Launches -->
     <g transform="translate(54.585756 25.61176) scale(0.1 -0.1)">
      <defs>
       <path id="CMR17-76" d="M 2502 2163 
C 2560 2304 2662 2560 3034 2560 
L 3034 2726 
C 2912 2726 2752 2726 2630 2726 
C 2496 2726 2285 2726 2157 2732 
L 2157 2566 
C 2317 2553 2406 2477 2406 2311 
C 2406 2253 2406 2240 2368 2151 
L 1664 377 
L 902 2286 
C 864 2369 864 2381 864 2407 
C 864 2560 1075 2560 1171 2560 
L 1171 2732 
C 1018 2726 736 2726 576 2726 
C 403 2726 205 2726 64 2732 
L 64 2560 
C 307 2560 442 2560 518 2362 
L 1446 44 
C 1485 -51 1491 -64 1549 -64 
C 1606 -64 1613 -51 1651 44 
L 2502 2163 
z
" transform="scale(0.015625)"/>
       <path id="CMR17-2e" d="M 1062 261 
C 1062 420 934 522 800 522 
C 672 522 538 420 538 261 
C 538 102 666 0 800 0 
C 928 0 1062 102 1062 261 
z
" transform="scale(0.015625)"/>
       <path id="CMR17-4c" d="M 3469 1615 
L 3354 1615 
C 3302 983 3219 166 2125 166 
L 1530 166 
C 1274 166 1261 197 1261 414 
L 1261 3898 
C 1261 4129 1274 4192 1760 4192 
L 1901 4192 
L 1901 4352 
C 1638 4352 1331 4352 1069 4352 
C 870 4352 512 4352 326 4352 
L 326 4192 
C 768 4192 838 4192 838 3905 
L 838 452 
C 838 166 768 166 326 166 
L 326 0 
L 3315 0 
L 3469 1615 
z
" transform="scale(0.015625)"/>
       <path id="CMR17-61" d="M 2304 1653 
C 2304 2072 2304 2294 2035 2543 
C 1798 2752 1523 2816 1306 2816 
C 800 2816 435 2407 435 1971 
C 435 1728 627 1728 666 1728 
C 749 1728 896 1778 896 1954 
C 896 2112 774 2181 666 2181 
C 640 2181 608 2174 589 2168 
C 723 2592 1069 2714 1293 2714 
C 1613 2714 1965 2429 1965 1885 
L 1965 1600 
C 1587 1600 1133 1549 774 1357 
C 371 1133 256 813 256 570 
C 256 77 832 -64 1171 -64 
C 1523 -64 1850 139 1990 511 
C 2003 233 2182 -18 2464 -18 
C 2598 -18 2938 70 2938 567 
L 2938 920 
L 2822 920 
L 2822 562 
C 2822 178 2650 128 2566 128 
C 2304 128 2304 458 2304 738 
L 2304 1653 
z
M 1965 870 
C 1965 317 1568 38 1216 38 
C 896 38 646 275 646 570 
C 646 761 730 1100 1101 1305 
C 1408 1478 1760 1504 1965 1504 
L 1965 870 
z
" transform="scale(0.015625)"/>
       <path id="CMR17-63" d="M 2234 2240 
C 2112 2240 1933 2240 1933 2017 
C 1933 1838 2080 1787 2163 1787 
C 2208 1787 2394 1807 2394 2024 
C 2394 2467 1958 2803 1466 2803 
C 787 2803 211 2178 211 1363 
C 211 516 813 -64 1466 -64 
C 2259 -64 2458 677 2458 748 
C 2458 774 2451 793 2406 793 
C 2362 793 2355 787 2330 703 
C 2163 180 1798 51 1523 51 
C 1114 51 621 427 621 1369 
C 621 2338 1094 2688 1472 2688 
C 1722 2688 2093 2573 2234 2240 
z
" transform="scale(0.015625)"/>
       <path id="CMR17-68" d="M 2656 1933 
C 2656 2259 2592 2790 1837 2790 
C 1312 2790 1056 2368 979 2157 
L 973 2157 
L 973 4396 
L 211 4326 
L 211 4160 
C 589 4160 646 4122 646 3817 
L 646 426 
C 646 184 621 153 211 153 
L 211 -13 
C 365 0 646 0 813 0 
C 979 0 1267 0 1421 -13 
L 1421 153 
C 1011 153 986 178 986 428 
L 986 1658 
C 986 2247 1344 2688 1792 2688 
C 2266 2688 2317 2266 2317 1958 
L 2317 428 
C 2317 184 2291 153 1882 153 
L 1882 -13 
C 2035 0 2317 0 2483 0 
C 2650 0 2938 0 3091 -13 
L 3091 153 
C 2682 153 2656 178 2656 428 
L 2656 1933 
z
" transform="scale(0.015625)"/>
       <path id="CMR17-73" d="M 1978 2697 
C 1978 2813 1971 2819 1933 2819 
C 1907 2819 1901 2813 1824 2717 
C 1805 2691 1747 2626 1728 2601 
C 1523 2819 1235 2819 1126 2819 
C 416 2819 160 2447 160 2076 
C 160 1498 813 1365 998 1325 
C 1402 1243 1542 1217 1677 1101 
C 1760 1025 1901 884 1901 654 
C 1901 384 1747 38 1158 38 
C 602 38 403 460 288 1021 
C 269 1110 269 1117 218 1117 
C 166 1117 160 1110 160 983 
L 160 63 
C 160 -51 166 -58 205 -58 
C 237 -58 243 -51 275 0 
C 314 57 410 211 448 276 
C 576 103 800 -64 1158 -64 
C 1792 -64 2131 283 2131 784 
C 2131 1112 1958 1285 1875 1362 
C 1683 1561 1459 1606 1190 1657 
C 838 1735 390 1825 390 2217 
C 390 2383 480 2737 1126 2737 
C 1811 2737 1850 2094 1862 1888 
C 1869 1856 1901 1849 1920 1849 
C 1978 1849 1978 1869 1978 1978 
L 1978 2697 
z
" transform="scale(0.015625)"/>
      </defs>
      <use xlink:href="#CMR17-76" transform="scale(0.996264)"/>
      <use xlink:href="#CMR17-31" transform="translate(48.292916 0) scale(0.996264)"/>
      <use xlink:href="#CMR17-2e" transform="translate(93.983393 0) scale(0.996264)"/>
      <use xlink:href="#CMR17-30" transform="translate(118.854451 0) scale(0.996264)"/>
      <use xlink:href="#CMR17-4c" transform="translate(194.620895 0) scale(0.996264)"/>
      <use xlink:href="#CMR17-61" transform="translate(252.002303 0) scale(0.996264)"/>
      <use xlink:href="#CMR17-75" transform="translate(297.69278 0) scale(0.996264)"/>
      <use xlink:href="#CMR17-6e" transform="translate(348.58815 0) scale(0.996264)"/>
      <use xlink:href="#CMR17-63" transform="translate(399.483519 0) scale(0.996264)"/>
      <use xlink:href="#CMR17-68" transform="translate(437.366726 0) scale(0.996264)"/>
      <use xlink:href="#CMR17-65" transform="translate(488.262096 0) scale(0.996264)"/>
      <use xlink:href="#CMR17-73" transform="translate(528.747756 0) scale(0.996264)"/>
     </g>
    </g>
    <g id="patch_11">
     <path d="M 41.585756 35.148938 
L 51.585756 35.148938 
L 51.585756 28.148938 
L 41.585756 28.148938 
z
" style="fill: #f56cf0; opacity: 0.3"/>
    </g>
    <g id="text_15">
     <!-- v1.5 Launches -->
     <g transform="translate(54.585756 35.148938) scale(0.1 -0.1)">
      <use xlink:href="#CMR17-76" transform="scale(0.996264)"/>
      <use xlink:href="#CMR17-31" transform="translate(48.292916 0) scale(0.996264)"/>
      <use xlink:href="#CMR17-2e" transform="translate(93.983393 0) scale(0.996264)"/>
      <use xlink:href="#CMR17-35" transform="translate(118.854451 0) scale(0.996264)"/>
      <use xlink:href="#CMR17-4c" transform="translate(194.620895 0) scale(0.996264)"/>
      <use xlink:href="#CMR17-61" transform="translate(252.002303 0) scale(0.996264)"/>
      <use xlink:href="#CMR17-75" transform="translate(297.69278 0) scale(0.996264)"/>
      <use xlink:href="#CMR17-6e" transform="translate(348.58815 0) scale(0.996264)"/>
      <use xlink:href="#CMR17-63" transform="translate(399.483519 0) scale(0.996264)"/>
      <use xlink:href="#CMR17-68" transform="translate(437.366726 0) scale(0.996264)"/>
      <use xlink:href="#CMR17-65" transform="translate(488.262096 0) scale(0.996264)"/>
      <use xlink:href="#CMR17-73" transform="translate(528.747756 0) scale(0.996264)"/>
     </g>
    </g>
   </g>
  </g>
 </g>
 <defs>
  <clipPath id="pd3d0f9da99">
   <rect x="32.585756" y="10.002655" width="233.814244" height="65.149322"/>
  </clipPath>
 </defs>
</svg>
