<?xml version="1.0" encoding="utf-8" standalone="no"?>
<!DOCTYPE svg PUBLIC "-//W3C//DTD SVG 1.1//EN"
  "http://www.w3.org/Graphics/SVG/1.1/DTD/svg11.dtd">
<svg xmlns:xlink="http://www.w3.org/1999/xlink" width="218.16pt" height="164.16pt" viewBox="0 0 218.16 164.16" xmlns="http://www.w3.org/2000/svg" version="1.1">
 <metadata>
  <rdf:RDF xmlns:dc="http://purl.org/dc/elements/1.1/" xmlns:cc="http://creativecommons.org/ns#" xmlns:rdf="http://www.w3.org/1999/02/22-rdf-syntax-ns#">
   <cc:Work>
    <dc:type rdf:resource="http://purl.org/dc/dcmitype/StillImage"/>
    <dc:date>2023-10-10T20:52:57.009733</dc:date>
    <dc:format>image/svg+xml</dc:format>
    <dc:creator>
     <cc:Agent>
      <dc:title>Matplotlib v3.7.0, https://matplotlib.org/</dc:title>
     </cc:Agent>
    </dc:creator>
   </cc:Work>
  </rdf:RDF>
 </metadata>
 <defs>
  <style type="text/css">*{stroke-linejoin: round; stroke-linecap: butt}</style>
 </defs>
 <g id="figure_1">
  <g id="patch_1">
   <path d="M 0 164.16 
L 218.16 164.16 
L 218.16 0 
L 0 0 
z
" style="fill: #ffffff"/>
  </g>
  <g id="axes_1">
   <g id="patch_2">
    <path d="M 3.5 126.814399 
L 207.917267 126.814399 
L 207.917267 0 
L 3.5 0 
z
" style="fill: #ffffff"/>
   </g>
   <g id="matplotlib.axis_1">
    <g id="xtick_1">
     <g id="line2d_1">
      <defs>
       <path id="m7111193c9e" d="M 0 0 
L 0 3.5 
" style="stroke: #000000; stroke-width: 0.8"/>
      </defs>
      <g>
       <use xlink:href="#m7111193c9e" x="37.569545" y="126.814399" style="stroke: #000000; stroke-width: 0.8"/>
      </g>
     </g>
     <g id="text_1">
      <!-- 50 -->
      <g transform="translate(30.741056 143.500275) scale(0.14 -0.14)">
       <defs>
        <path id="CMR17-35" d="M 730 3692 
C 794 3666 1056 3584 1325 3584 
C 1920 3584 2246 3911 2432 4100 
C 2432 4157 2432 4192 2394 4192 
C 2387 4192 2374 4192 2323 4163 
C 2099 4058 1837 3973 1517 3973 
C 1325 3973 1037 3999 723 4139 
C 653 4171 640 4171 634 4171 
C 602 4171 595 4164 595 4037 
L 595 2203 
C 595 2089 595 2057 659 2057 
C 691 2057 704 2070 736 2114 
C 941 2401 1222 2522 1542 2522 
C 1766 2522 2246 2382 2246 1289 
C 2246 1085 2246 715 2054 421 
C 1894 159 1645 25 1370 25 
C 947 25 518 320 403 814 
C 429 807 480 795 506 795 
C 589 795 749 840 749 1038 
C 749 1210 627 1280 506 1280 
C 358 1280 262 1190 262 1011 
C 262 454 704 -128 1382 -128 
C 2042 -128 2669 440 2669 1264 
C 2669 2030 2170 2624 1549 2624 
C 1222 2624 947 2503 730 2274 
L 730 3692 
z
" transform="scale(0.015625)"/>
        <path id="CMR17-30" d="M 2688 2025 
C 2688 2416 2682 3080 2413 3591 
C 2176 4039 1798 4198 1466 4198 
C 1158 4198 768 4058 525 3597 
C 269 3118 243 2524 243 2025 
C 243 1661 250 1106 448 619 
C 723 -39 1216 -128 1466 -128 
C 1760 -128 2208 -7 2470 600 
C 2662 1042 2688 1559 2688 2025 
z
M 1466 -26 
C 1056 -26 813 325 723 812 
C 653 1188 653 1738 653 2096 
C 653 2588 653 2997 736 3387 
C 858 3929 1216 4096 1466 4096 
C 1728 4096 2067 3923 2189 3400 
C 2272 3036 2278 2607 2278 2096 
C 2278 1680 2278 1169 2202 792 
C 2067 95 1690 -26 1466 -26 
z
" transform="scale(0.015625)"/>
       </defs>
       <use xlink:href="#CMR17-35" transform="scale(0.996264)"/>
       <use xlink:href="#CMR17-30" transform="translate(45.690477 0) scale(0.996264)"/>
      </g>
     </g>
    </g>
    <g id="xtick_2">
     <g id="line2d_2">
      <g>
       <use xlink:href="#m7111193c9e" x="80.156475" y="126.814399" style="stroke: #000000; stroke-width: 0.8"/>
      </g>
     </g>
     <g id="text_2">
      <!-- 100 -->
      <g transform="translate(69.913742 143.500275) scale(0.14 -0.14)">
       <defs>
        <path id="CMR17-31" d="M 1702 4058 
C 1702 4192 1696 4192 1606 4192 
C 1357 3916 979 3827 621 3827 
C 602 3827 570 3827 563 3808 
C 557 3795 557 3782 557 3648 
C 755 3648 1088 3686 1344 3839 
L 1344 461 
C 1344 236 1331 160 781 160 
L 589 160 
L 589 0 
C 896 0 1216 0 1523 0 
C 1830 0 2150 0 2458 0 
L 2458 160 
L 2266 160 
C 1715 160 1702 230 1702 458 
L 1702 4058 
z
" transform="scale(0.015625)"/>
       </defs>
       <use xlink:href="#CMR17-31" transform="scale(0.996264)"/>
       <use xlink:href="#CMR17-30" transform="translate(45.690477 0) scale(0.996264)"/>
       <use xlink:href="#CMR17-30" transform="translate(91.380954 0) scale(0.996264)"/>
      </g>
     </g>
    </g>
    <g id="xtick_3">
     <g id="line2d_3">
      <g>
       <use xlink:href="#m7111193c9e" x="122.743406" y="126.814399" style="stroke: #000000; stroke-width: 0.8"/>
      </g>
     </g>
     <g id="text_3">
      <!-- 150 -->
      <g transform="translate(112.500673 143.500275) scale(0.14 -0.14)">
       <use xlink:href="#CMR17-31" transform="scale(0.996264)"/>
       <use xlink:href="#CMR17-35" transform="translate(45.690477 0) scale(0.996264)"/>
       <use xlink:href="#CMR17-30" transform="translate(91.380954 0) scale(0.996264)"/>
      </g>
     </g>
    </g>
    <g id="xtick_4">
     <g id="line2d_4">
      <g>
       <use xlink:href="#m7111193c9e" x="165.330336" y="126.814399" style="stroke: #000000; stroke-width: 0.8"/>
      </g>
     </g>
     <g id="text_4">
      <!-- 200 -->
      <g transform="translate(155.087603 143.500275) scale(0.14 -0.14)">
       <defs>
        <path id="CMR17-32" d="M 2669 989 
L 2554 989 
C 2490 536 2438 459 2413 420 
C 2381 369 1920 369 1830 369 
L 602 369 
C 832 619 1280 1072 1824 1597 
C 2214 1967 2669 2402 2669 3035 
C 2669 3790 2067 4224 1395 4224 
C 691 4224 262 3604 262 3030 
C 262 2780 448 2748 525 2748 
C 589 2748 781 2787 781 3010 
C 781 3207 614 3264 525 3264 
C 486 3264 448 3258 422 3245 
C 544 3790 915 4058 1306 4058 
C 1862 4058 2227 3617 2227 3035 
C 2227 2479 1901 2000 1536 1584 
L 262 146 
L 262 0 
L 2515 0 
L 2669 989 
z
" transform="scale(0.015625)"/>
       </defs>
       <use xlink:href="#CMR17-32" transform="scale(0.996264)"/>
       <use xlink:href="#CMR17-30" transform="translate(45.690477 0) scale(0.996264)"/>
       <use xlink:href="#CMR17-30" transform="translate(91.380954 0) scale(0.996264)"/>
      </g>
     </g>
    </g>
    <g id="xtick_5">
     <g id="line2d_5">
      <g>
       <use xlink:href="#m7111193c9e" x="207.917267" y="126.814399" style="stroke: #000000; stroke-width: 0.8"/>
      </g>
     </g>
     <g id="text_5">
      <!-- 250 -->
      <g transform="translate(197.674534 143.500275) scale(0.14 -0.14)">
       <use xlink:href="#CMR17-32" transform="scale(0.996264)"/>
       <use xlink:href="#CMR17-35" transform="translate(45.690477 0) scale(0.996264)"/>
       <use xlink:href="#CMR17-30" transform="translate(91.380954 0) scale(0.996264)"/>
      </g>
     </g>
    </g>
    <g id="text_6">
     <!-- RTT [ms] -->
     <g transform="translate(76.935346 160.673076) scale(0.14 -0.14)">
      <defs>
       <path id="CMR17-52" d="M 2509 2146 
C 3117 2268 3629 2676 3629 3186 
C 3629 3785 2950 4326 2054 4326 
L 333 4326 
L 333 4160 
C 774 4160 845 4160 845 3873 
L 845 415 
C 845 128 774 128 333 128 
L 333 -26 
C 518 -26 851 -26 1050 -26 
C 1248 -26 1581 -26 1766 -26 
L 1766 128 
C 1325 128 1254 128 1254 417 
L 1254 2112 
L 2003 2112 
C 2368 2112 2573 1964 2662 1881 
C 2918 1632 2918 1459 2918 1024 
C 2918 595 2918 377 3110 160 
C 3354 -102 3680 -128 3821 -128 
C 4294 -128 4365 396 4365 503 
C 4365 540 4365 585 4307 585 
C 4256 585 4250 547 4250 522 
C 4218 112 4032 -26 3834 -26 
C 3482 -26 3443 375 3405 764 
C 3386 898 3373 993 3360 1133 
C 3322 1452 3270 1917 2509 2146 
z
M 1984 2214 
L 1254 2214 
L 1254 3913 
C 1254 4129 1267 4160 1523 4160 
L 1990 4160 
C 2522 4160 3142 3977 3142 3190 
C 3142 2372 2464 2214 1984 2214 
z
" transform="scale(0.015625)"/>
       <path id="CMR17-54" d="M 3981 4326 
L 288 4326 
L 179 2918 
L 294 2918 
C 378 3976 467 4160 1453 4160 
C 1568 4160 1754 4160 1805 4154 
C 1926 4135 1926 4058 1926 3912 
L 1926 459 
C 1926 230 1907 160 1376 160 
L 1197 160 
L 1197 0 
C 1504 0 1824 0 2138 0 
C 2451 0 2771 0 3078 0 
L 3078 160 
L 2899 160 
C 2368 160 2349 230 2349 459 
L 2349 3912 
C 2349 4052 2349 4129 2464 4154 
C 2515 4160 2701 4160 2816 4160 
C 3795 4160 3891 3976 3974 2918 
L 4090 2918 
L 3981 4326 
z
" transform="scale(0.015625)"/>
       <path id="CMR17-5b" d="M 1504 -1600 
L 1504 -1377 
L 902 -1377 
L 902 4544 
L 1504 4544 
L 1504 4767 
L 678 4767 
L 678 -1600 
L 1504 -1600 
z
" transform="scale(0.015625)"/>
       <path id="CMR17-6d" d="M 4326 1933 
C 4326 2252 4269 2790 3507 2790 
C 3072 2790 2771 2496 2656 2151 
L 2650 2151 
C 2573 2676 2195 2790 1837 2790 
C 1331 2790 1069 2400 973 2144 
L 966 2144 
L 966 2790 
L 211 2720 
L 211 2554 
C 589 2554 646 2515 646 2208 
L 646 428 
C 646 184 621 153 211 153 
L 211 -13 
C 365 0 646 0 813 0 
C 979 0 1267 0 1421 -13 
L 1421 153 
C 1011 153 986 178 986 428 
L 986 1658 
C 986 2247 1344 2688 1792 2688 
C 2266 2688 2317 2266 2317 1958 
L 2317 428 
C 2317 184 2291 153 1882 153 
L 1882 -13 
C 2035 0 2317 0 2483 0 
C 2650 0 2938 0 3091 -13 
L 3091 153 
C 2682 153 2656 178 2656 428 
L 2656 1658 
C 2656 2247 3014 2688 3462 2688 
C 3936 2688 3987 2266 3987 1958 
L 3987 428 
C 3987 184 3962 153 3552 153 
L 3552 -13 
C 3706 0 3987 0 4154 0 
C 4320 0 4608 0 4762 -13 
L 4762 153 
C 4352 153 4326 178 4326 428 
L 4326 1933 
z
" transform="scale(0.015625)"/>
       <path id="CMR17-73" d="M 1978 2697 
C 1978 2813 1971 2819 1933 2819 
C 1907 2819 1901 2813 1824 2717 
C 1805 2691 1747 2626 1728 2601 
C 1523 2819 1235 2819 1126 2819 
C 416 2819 160 2447 160 2076 
C 160 1498 813 1365 998 1325 
C 1402 1243 1542 1217 1677 1101 
C 1760 1025 1901 884 1901 654 
C 1901 384 1747 38 1158 38 
C 602 38 403 460 288 1021 
C 269 1110 269 1117 218 1117 
C 166 1117 160 1110 160 983 
L 160 63 
C 160 -51 166 -58 205 -58 
C 237 -58 243 -51 275 0 
C 314 57 410 211 448 276 
C 576 103 800 -64 1158 -64 
C 1792 -64 2131 283 2131 784 
C 2131 1112 1958 1285 1875 1362 
C 1683 1561 1459 1606 1190 1657 
C 838 1735 390 1825 390 2217 
C 390 2383 480 2737 1126 2737 
C 1811 2737 1850 2094 1862 1888 
C 1869 1856 1901 1849 1920 1849 
C 1978 1849 1978 1869 1978 1978 
L 1978 2697 
z
" transform="scale(0.015625)"/>
       <path id="CMR17-5d" d="M 915 4767 
L 90 4767 
L 90 4544 
L 691 4544 
L 691 -1377 
L 90 -1377 
L 90 -1600 
L 915 -1600 
L 915 4767 
z
" transform="scale(0.015625)"/>
      </defs>
      <use xlink:href="#CMR17-52" transform="scale(0.996264)"/>
      <use xlink:href="#CMR17-54" transform="translate(59.983847 0) scale(0.996264)"/>
      <use xlink:href="#CMR17-54" transform="translate(126.493727 0) scale(0.996264)"/>
      <use xlink:href="#CMR17-5b" transform="translate(223.079574 0) scale(0.996264)"/>
      <use xlink:href="#CMR17-6d" transform="translate(247.950633 0) scale(0.996264)"/>
      <use xlink:href="#CMR17-73" transform="translate(324.870222 0) scale(0.996264)"/>
      <use xlink:href="#CMR17-5d" transform="translate(360.67156 0) scale(0.996264)"/>
     </g>
    </g>
   </g>
   <g id="matplotlib.axis_2">
    <g id="ytick_1">
     <g id="line2d_6">
      <path d="M 3.5 121.050108 
L 207.917267 121.050108 
" clip-path="url(#pd705d991d5)" style="fill: none; stroke: #b0b0b0; stroke-opacity: 0.7; stroke-width: 0.5; stroke-linecap: square"/>
     </g>
     <g id="line2d_7">
      <defs>
       <path id="m721177b391" d="M 0 0 
L -3.5 0 
" style="stroke: #000000; stroke-width: 0.8"/>
      </defs>
      <g>
       <use xlink:href="#m721177b391" x="3.5" y="121.050108" style="stroke: #000000; stroke-width: 0.8"/>
      </g>
     </g>
    </g>
    <g id="ytick_2">
     <g id="line2d_8">
      <path d="M 3.5 92.228654 
L 207.917267 92.228654 
" clip-path="url(#pd705d991d5)" style="fill: none; stroke: #b0b0b0; stroke-opacity: 0.7; stroke-width: 0.5; stroke-linecap: square"/>
     </g>
     <g id="line2d_9">
      <g>
       <use xlink:href="#m721177b391" x="3.5" y="92.228654" style="stroke: #000000; stroke-width: 0.8"/>
      </g>
     </g>
    </g>
    <g id="ytick_3">
     <g id="line2d_10">
      <path d="M 3.5 63.4072 
L 207.917267 63.4072 
" clip-path="url(#pd705d991d5)" style="fill: none; stroke: #b0b0b0; stroke-opacity: 0.7; stroke-width: 0.5; stroke-linecap: square"/>
     </g>
     <g id="line2d_11">
      <g>
       <use xlink:href="#m721177b391" x="3.5" y="63.4072" style="stroke: #000000; stroke-width: 0.8"/>
      </g>
     </g>
    </g>
    <g id="ytick_4">
     <g id="line2d_12">
      <path d="M 3.5 34.585745 
L 207.917267 34.585745 
" clip-path="url(#pd705d991d5)" style="fill: none; stroke: #b0b0b0; stroke-opacity: 0.7; stroke-width: 0.5; stroke-linecap: square"/>
     </g>
     <g id="line2d_13">
      <g>
       <use xlink:href="#m721177b391" x="3.5" y="34.585745" style="stroke: #000000; stroke-width: 0.8"/>
      </g>
     </g>
    </g>
    <g id="ytick_5">
     <g id="line2d_14">
      <path d="M 3.5 5.764291 
L 207.917267 5.764291 
" clip-path="url(#pd705d991d5)" style="fill: none; stroke: #b0b0b0; stroke-opacity: 0.7; stroke-width: 0.5; stroke-linecap: square"/>
     </g>
     <g id="line2d_15">
      <g>
       <use xlink:href="#m721177b391" x="3.5" y="5.764291" style="stroke: #000000; stroke-width: 0.8"/>
      </g>
     </g>
    </g>
   </g>
   <g id="line2d_16">
    <path d="M 8.628318 121.049893 
L 11.619624 120.935651 
L 12.051456 120.797572 
L 12.522467 120.579825 
L 12.777989 120.424352 
L 14.386071 118.645435 
L 15.423489 116.348991 
L 15.537622 116.036328 
L 16.037592 115.277646 
L 16.198571 115.019742 
L 16.402137 114.61023 
L 17.126966 113.129589 
L 17.241099 112.782996 
L 17.54517 112.022812 
L 17.807505 111.308582 
L 17.98126 110.844741 
L 18.406277 109.912549 
L 19.682182 106.745544 
L 19.798018 106.415701 
L 21.385659 101.411369 
L 21.49894 100.860343 
L 22.142003 97.805647 
L 22.579797 95.507056 
L 22.89494 94.332636 
L 23.270557 92.600962 
L 23.499674 91.532409 
L 23.940875 89.728152 
L 24.05586 89.100248 
L 24.333526 87.810297 
L 24.714254 85.84477 
L 24.795169 85.246715 
L 28.162092 67.197062 
L 28.266855 66.526854 
L 29.373264 60.764056 
L 29.876641 58.995446 
L 30.198599 57.77593 
L 30.541849 56.674737 
L 30.896172 55.48056 
L 31.753873 52.859857 
L 31.981287 52.315058 
L 32.888389 50.126844 
L 33.222271 49.527286 
L 33.703503 48.614635 
L 33.858519 48.358878 
L 34.241802 47.692966 
L 34.547576 47.226977 
L 34.863571 46.731354 
L 36.276605 44.795246 
L 36.650519 44.482368 
L 40.657949 41.590446 
L 44.537618 39.757844 
L 44.897052 39.616329 
L 45.356139 39.407601 
L 46.009422 39.128437 
L 46.312641 38.980051 
L 48.022933 38.434393 
L 48.763945 38.185078 
L 49.481109 37.890024 
L 49.725558 37.759246 
L 50.073919 37.603344 
L 51.406038 36.73493 
L 51.676891 36.552185 
L 52.01418 36.305662 
L 52.559292 35.913545 
L 52.806297 35.737242 
L 53.100998 35.492652 
L 54.942457 34.43999 
L 55.229493 34.2566 
L 55.525046 34.068487 
L 55.709022 33.968847 
L 56.603347 33.431564 
L 59.075944 32.309111 
L 62.779304 31.489873 
L 63.973442 31.328602 
L 64.695716 31.260529 
L 66.829321 31.059746 
L 67.445128 31.018301 
L 83.838541 30.302783 
L 91.761414 30.098779 
L 98.906649 29.909592 
L 100.624606 29.771513 
L 100.952525 29.730497 
L 102.300827 29.505878 
L 102.41496 29.482686 
L 103.323765 29.325925 
L 105.287023 28.945403 
L 106.726461 28.652066 
L 107.154886 28.558654 
L 107.846497 28.397598 
L 108.383093 28.251144 
L 109.39581 27.96833 
L 110.181965 27.695823 
L 110.579727 27.551302 
L 110.991968 27.377791 
L 111.669952 27.18345 
L 111.784937 27.14222 
L 112.39904 26.952818 
L 113.282293 26.615674 
L 114.33419 26.209598 
L 115.609243 25.773888 
L 116.26423 25.566878 
L 116.707134 25.433523 
L 117.333162 25.242189 
L 120.275067 24.612997 
L 121.215387 24.482219 
L 132.62187 23.873642 
L 137.582396 23.716237 
L 138.2459 23.661907 
L 142.477338 23.453823 
L 150.542451 23.225553 
L 167.583185 22.984398 
L 168.377857 22.898502 
L 170.060041 22.702443 
L 171.675789 22.409536 
L 172.622071 22.178474 
L 172.874185 22.125863 
L 174.278702 21.777552 
L 174.50782 21.702607 
L 175.088706 21.492805 
L 175.719844 21.226096 
L 176.179783 21.056451 
L 176.454043 20.937484 
L 177.252974 20.621599 
L 177.37392 20.561472 
L 184.919473 16.642443 
L 185.032754 16.558693 
L 186.79926 15.792067 
L 187.301786 15.617053 
L 187.645888 15.495724 
L 188.564914 15.149561 
L 188.791477 15.078696 
L 189.144096 14.937611 
L 189.496716 14.809196 
L 190.029904 14.630316 
L 190.144037 14.588656 
L 190.766658 14.39904 
L 191.421645 14.204484 
L 196.569554 13.021045 
L 197.284162 12.874162 
L 205.345868 10.955877 
L 206.508491 10.746719 
L 207.918119 10.549587 
L 207.918119 10.549587 
" clip-path="url(#pd705d991d5)" style="fill: none; stroke: #1f77b4; stroke-width: 1.5; stroke-linecap: square"/>
   </g>
   <g id="line2d_17">
    <path d="M 8.153048 121.045865 
L 9.504757 120.880364 
L 10.502995 120.579069 
L 11.280632 119.78976 
L 11.69117 118.898604 
L 12.137481 115.550406 
L 12.245652 114.986007 
L 12.39641 114.183967 
L 13.243038 107.025018 
L 13.451714 105.077207 
L 13.950833 100.247992 
L 14.562381 93.042364 
L 14.813644 89.549883 
L 15.094718 86.13803 
L 15.168819 85.212926 
L 15.412416 81.898676 
L 15.440524 81.194239 
L 17.126966 67.954214 
L 17.241099 66.621725 
L 17.298166 66.201609 
L 17.448923 65.013401 
L 17.595422 63.723348 
L 17.892679 60.935304 
L 17.978705 60.430316 
L 18.092838 59.522186 
L 18.39776 57.595593 
L 18.699276 55.533204 
L 18.92669 53.797573 
L 19.670258 50.648823 
L 19.694106 50.449374 
L 19.831236 49.914681 
L 20.297989 48.153588 
L 20.533921 47.33033 
L 20.648053 46.880508 
L 22.075567 42.51809 
L 22.142003 42.297423 
L 22.406042 41.542063 
L 22.550838 41.33837 
L 22.667526 41.160139 
L 22.791028 41.007369 
L 23.000556 40.693343 
L 23.779045 39.615469 
L 25.544699 37.701607 
L 25.709936 37.442747 
L 27.258397 36.055091 
L 27.839283 35.609513 
L 27.998558 35.490692 
L 28.495973 35.163935 
L 28.801747 34.943268 
L 28.962726 34.811717 
L 29.864717 34.302485 
L 30.779484 33.950266 
L 30.910652 33.903587 
L 31.53668 33.593804 
L 31.650813 33.542881 
L 32.74189 33.177932 
L 33.565521 32.991213 
L 34.286092 32.723867 
L 34.379783 32.694162 
L 35.00496 32.524418 
L 35.08843 32.481982 
L 35.529631 32.346187 
L 36.423104 32.112789 
L 37.268881 31.904852 
L 38.000524 31.743596 
L 38.097622 31.718134 
L 39.097564 31.539903 
L 40.927098 31.17071 
L 42.323949 30.941556 
L 43.202092 30.682696 
L 43.690138 30.53417 
L 44.143263 30.347452 
L 44.564022 30.186195 
L 45.232637 29.753348 
L 45.34677 29.655746 
L 45.62103 29.498733 
L 45.937025 29.273822 
L 46.086931 29.12954 
L 46.247057 29.010719 
L 46.914821 28.650013 
L 47.277661 28.374179 
L 48.363628 27.648524 
L 48.556121 27.533947 
L 48.720506 27.406639 
L 48.95729 27.279331 
L 49.3295 27.028959 
L 49.598649 26.795561 
L 50.748496 25.700713 
L 50.900957 25.49702 
L 51.181179 25.064173 
L 52.046546 23.447362 
L 52.165789 23.175772 
L 52.353172 22.802335 
L 52.45538 22.619861 
L 53.164879 21.147332 
L 53.943368 20.001561 
L 54.107753 19.738458 
L 54.466335 19.229226 
L 54.598355 19.025534 
L 54.981637 18.367776 
L 55.339367 17.816108 
L 55.439872 17.671826 
L 56.685114 15.796156 
L 56.901456 15.630655 
L 57.038586 15.511835 
L 59.147491 13.564023 
L 59.462634 13.317895 
L 59.800774 13.020843 
L 64.415494 11.370083 
L 65.465688 11.170634 
L 66.487774 11.00089 
L 66.674305 10.937236 
L 67.939988 10.737787 
L 68.360747 10.648672 
L 69.183527 10.512877 
L 69.669018 10.440735 
L 72.593036 10.113978 
L 72.941397 10.075786 
L 74.531593 9.92726 
L 77.842301 9.625965 
L 77.975173 9.604747 
L 81.233924 9.320426 
L 81.308877 9.299208 
L 83.682673 9.108246 
L 86.413347 8.811194 
L 87.742911 8.683886 
L 88.575911 8.607501 
L 115.658644 7.593281 
L 123.347288 7.393832 
L 123.375396 7.389589 
L 136.067153 7.232576 
L 136.148068 7.224088 
L 207.936005 6.685152 
L 207.936005 6.685152 
" clip-path="url(#pd705d991d5)" style="fill: none; stroke-dasharray: 1.5,2.475; stroke-dashoffset: 0; stroke: #ff7f0e; stroke-width: 1.5"/>
   </g>
   <g id="line2d_18">
    <path d="M 10.294319 120.660629 
L 13.152754 120.27115 
L 14.296639 119.492192 
L 15.250586 117.544796 
L 15.322132 117.155317 
L 16.727501 116.376359 
L 16.868889 115.98688 
L 18.0988 114.428963 
L 18.617509 114.039484 
L 18.706089 113.260526 
L 19.207763 112.871047 
L 19.219688 112.481568 
L 19.83294 110.534172 
L 20.521144 109.755214 
L 20.593542 109.365735 
L 20.97938 108.976256 
L 21.495533 107.418339 
L 21.895851 107.02886 
L 22.038091 106.249902 
L 22.155631 105.470944 
L 22.429039 103.913027 
L 22.664971 103.523548 
L 22.848946 102.74459 
L 23.117244 101.576153 
L 23.572924 100.797194 
L 23.583996 100.407715 
L 23.876995 100.018236 
L 24.076301 98.849799 
L 24.259425 96.902403 
L 24.710847 96.123445 
L 24.964665 94.955008 
L 25.140123 93.397091 
L 25.232111 92.618133 
L 25.51574 89.5023 
L 25.920316 86.386467 
L 26.08896 85.996988 
L 26.110253 85.607509 
L 26.423693 84.828551 
L 26.452652 84.439072 
L 26.600003 84.049592 
L 26.688584 83.270634 
L 27.013948 82.102197 
L 27.348681 80.154801 
L 27.528398 79.765322 
L 27.856317 77.038968 
L 28.109284 76.649489 
L 28.331588 75.091573 
L 28.377581 73.923136 
L 28.576036 73.533656 
L 29.169698 68.080949 
L 29.412444 67.69147 
L 30.11598 64.186158 
L 30.394498 63.4072 
L 30.832292 59.122929 
L 31.140621 55.228138 
L 31.252199 53.670222 
L 31.408067 53.280743 
L 31.440433 52.891263 
L 32.303245 52.501784 
L 32.593688 51.333347 
L 33.049368 50.554389 
L 33.671137 48.606993 
L 33.890885 48.217514 
L 33.939435 47.828035 
L 34.312496 47.438556 
L 34.573128 46.270119 
L 35.025401 45.49116 
L 35.265592 43.933244 
L 35.866067 43.543765 
L 36.063671 43.154286 
L 36.400107 42.764807 
L 37.57721 41.985848 
L 38.678508 41.596369 
L 39.439963 41.20689 
L 39.792582 40.817411 
L 40.476528 40.427932 
L 40.914322 40.038453 
L 42.940608 39.259495 
L 43.11777 38.480536 
L 49.022874 38.091057 
L 49.288616 37.701578 
L 50.505751 37.312099 
L 50.725499 36.92262 
L 52.39661 36.533141 
L 53.078853 36.143662 
L 54.098384 35.754183 
L 54.611131 34.975224 
L 56.570129 34.585745 
L 56.88868 33.806787 
L 94.554265 33.417308 
L 99.220941 33.027829 
L 99.439837 32.63835 
L 102.974553 31.859391 
L 103.245405 31.469912 
L 103.327172 31.080433 
L 105.298947 30.690954 
L 106.606366 29.911996 
L 106.710278 29.522517 
L 109.14114 28.743559 
L 112.014054 28.354079 
L 112.238913 27.9646 
L 112.638379 27.575121 
L 117.609125 27.185642 
L 118.970204 26.796163 
L 119.833015 26.406684 
L 121.162579 26.017205 
L 121.73154 25.627726 
L 155.497866 25.238246 
L 166.137785 24.848767 
L 166.598575 24.459288 
L 166.747629 24.069809 
L 168.347195 23.68033 
L 168.361674 23.290851 
L 170.436509 22.901372 
L 170.592378 22.511893 
L 171.732004 21.732934 
L 172.949138 21.343455 
L 174.785487 20.953976 
L 175.719844 20.175018 
L 176.613318 19.785539 
L 176.65335 19.39606 
L 177.856004 19.006581 
L 177.987172 18.617102 
L 179.121688 17.448664 
L 179.168534 17.059185 
L 180.123333 16.669706 
L 180.574754 16.280227 
L 181.408606 15.890748 
L 182.044855 15.11179 
L 182.415361 13.553873 
L 182.938329 12.774915 
L 183.114639 12.385436 
L 184.2713 11.995957 
L 184.670765 11.216998 
L 184.846223 10.827519 
L 188.131379 10.43804 
L 188.570024 10.048561 
L 189.231825 9.659082 
L 189.244601 9.269603 
L 191.385021 8.880124 
L 192.798055 8.490645 
L 196.059362 8.101166 
L 197.703218 7.711686 
L 198.393978 7.322207 
L 199.381143 6.932728 
L 207.392596 6.543249 
L 207.976037 6.15377 
L 213.757639 5.764291 
L 213.757639 5.764291 
" clip-path="url(#pd705d991d5)" style="fill: none; stroke-dasharray: 5.55,2.4; stroke-dashoffset: 0; stroke: #2ca02c; stroke-width: 1.5"/>
   </g>
   <g id="line2d_19">
    <path d="M 13.56755 120.420131 
L 13.614396 119.790154 
L 14.110108 119.160177 
L 14.672255 117.270245 
L 15.314466 116.640268 
L 15.529104 116.010291 
L 17.174663 115.380314 
L 17.952301 114.750337 
L 19.730731 114.12036 
L 19.952183 113.490382 
L 20.613132 112.860405 
L 20.634426 112.230428 
L 21.046667 110.970474 
L 21.078181 110.340497 
L 21.795345 109.080542 
L 22.136041 108.450565 
L 22.17948 107.820588 
L 22.721185 107.190611 
L 23.264595 104.670702 
L 23.548223 104.040725 
L 23.958761 102.150794 
L 23.999645 101.520817 
L 24.180214 100.89084 
L 24.210876 100.260862 
L 24.459584 99.630885 
L 24.640152 97.740954 
L 24.754285 96.481 
L 24.793465 95.851022 
L 25.046432 95.221045 
L 25.146937 93.961091 
L 25.376906 93.331114 
L 25.382868 92.701137 
L 25.645204 91.441182 
L 25.688643 89.551251 
L 25.894763 88.921274 
L 25.903281 88.291297 
L 26.124733 87.66132 
L 26.194575 86.401365 
L 26.4271 85.771388 
L 26.568489 84.511434 
L 26.746502 81.991525 
L 27.011393 81.361548 
L 27.119563 80.101594 
L 27.474738 79.471617 
L 27.621238 78.211662 
L 27.917643 77.581685 
L 28.069252 76.321731 
L 28.407392 75.691754 
L 28.553891 75.061777 
L 28.823892 74.4318 
L 29.026606 70.651937 
L 29.455031 70.02196 
L 29.649227 69.391982 
L 29.667965 68.762005 
L 30.066579 66.872074 
L 30.889359 61.20228 
L 31.118476 60.572302 
L 31.250496 59.312348 
L 31.885893 58.682371 
L 32.131193 58.052394 
L 32.505107 55.532485 
L 32.642237 54.902508 
L 32.93779 54.272531 
L 33.495679 53.642554 
L 33.903662 53.012577 
L 34.733255 52.3826 
L 34.82865 51.122645 
L 35.031363 50.492668 
L 35.539 49.862691 
L 35.852439 49.232714 
L 35.866067 48.602737 
L 36.223798 47.972759 
L 36.326858 47.342782 
L 36.717806 46.712805 
L 36.968217 46.082828 
L 37.569545 45.452851 
L 37.598504 44.822874 
L 38.682767 44.192897 
L 40.058325 43.562919 
L 40.833407 42.932942 
L 42.312877 42.302965 
L 42.502815 41.672988 
L 45.727497 41.043011 
L 46.980404 40.413034 
L 49.757924 39.783057 
L 49.768997 39.153079 
L 50.297926 38.523102 
L 50.377138 37.893125 
L 52.457084 37.263148 
L 52.652984 36.003194 
L 59.20626 35.373217 
L 71.763443 34.743239 
L 104.346703 34.113262 
L 107.512616 33.483285 
L 109.413696 32.853308 
L 112.738884 32.223331 
L 113.811223 31.593354 
L 113.866586 30.963377 
L 114.329932 30.333399 
L 115.753187 29.703422 
L 116.204608 29.073445 
L 117.990704 28.443468 
L 121.194945 27.813491 
L 121.705136 27.183514 
L 133.318592 26.553537 
L 135.554406 25.923559 
L 137.308136 25.293582 
L 141.375188 24.663605 
L 141.456955 24.033628 
L 164.237556 23.403651 
L 172.714058 22.143697 
L 174.43457 21.513719 
L 175.204542 20.883742 
L 176.279436 20.253765 
L 178.501622 19.623788 
L 178.804841 18.363834 
L 180.027938 16.473902 
L 180.320936 15.843925 
L 180.398444 15.213948 
L 181.060245 14.583971 
L 181.095166 13.953994 
L 181.659869 12.694039 
L 181.674349 11.434085 
L 181.945202 10.804108 
L 182.607854 10.174131 
L 186.475599 9.544154 
L 187.443174 8.914177 
L 191.285367 8.284199 
L 191.350951 7.654222 
L 194.664214 7.024245 
L 203.918354 6.394268 
L 211.521825 5.764291 
L 211.521825 5.764291 
" clip-path="url(#pd705d991d5)" style="fill: none; stroke-dasharray: 9.6,2.4,1.5,2.4; stroke-dashoffset: 0; stroke: #d62728; stroke-width: 1.5"/>
   </g>
   <g id="line2d_20">
    <path d="M 6.726386 121.048702 
L 9.053336 120.932028 
L 9.915295 120.766153 
L 10.279839 120.60309 
L 10.430597 120.473763 
L 10.697191 120.111088 
L 10.884574 119.744195 
L 10.991893 119.515063 
L 11.170758 119.072262 
L 11.238897 118.87265 
L 11.342809 118.488888 
L 13.380168 108.960926 
L 13.457676 108.619336 
L 15.070869 100.078188 
L 15.285507 98.543143 
L 15.455855 97.140236 
L 15.719894 95.624871 
L 15.801661 95.276252 
L 16.114249 93.952065 
L 16.213902 93.573927 
L 16.581853 91.97703 
L 17.974446 85.642861 
L 18.071544 85.273157 
L 18.288738 84.404423 
L 18.396057 84.016444 
L 18.726531 82.574177 
L 18.911358 81.581739 
L 19.148994 80.541507 
L 19.579973 78.736564 
L 19.834643 77.550137 
L 19.87212 77.375828 
L 20.093572 76.28499 
L 20.404456 74.879271 
L 20.677013 73.553678 
L 20.752817 73.2149 
L 22.163296 65.670407 
L 22.647084 63.216022 
L 22.768883 62.80274 
L 22.951155 62.213744 
L 23.003962 62.028189 
L 23.256929 61.097603 
L 23.37021 60.698379 
L 23.538003 60.141715 
L 23.670022 59.710159 
L 24.150403 58.227125 
L 24.360782 57.57206 
L 24.442549 57.319031 
L 24.618007 56.68224 
L 24.756841 56.239439 
L 27.175778 48.635905 
L 27.237103 48.475654 
L 27.415117 47.969595 
L 27.597389 47.500085 
L 27.689377 47.282198 
L 28.722536 44.428589 
L 29.139036 42.927281 
L 29.529984 42.019187 
L 29.621972 41.842066 
L 29.768471 41.551082 
L 30.16027 40.692188 
L 30.620209 39.556367 
L 30.947277 38.802902 
L 31.811791 36.958599 
L 31.941256 36.708381 
L 32.328797 35.856515 
L 32.541731 35.363108 
L 33.539117 33.929274 
L 33.664323 33.73388 
L 33.916438 33.38245 
L 34.487954 32.652882 
L 34.726441 32.314103 
L 34.953855 31.937371 
L 35.035622 31.801016 
L 35.189787 31.58313 
L 35.28944 31.434123 
L 36.485281 29.667135 
L 36.709289 29.484391 
L 37.940051 28.610034 
L 38.175131 28.462434 
L 38.822452 28.071644 
L 39.055828 27.893118 
L 39.198069 27.805963 
L 39.416966 27.656957 
L 43.321335 26.164083 
L 44.400488 25.925111 
L 46.391001 25.539944 
L 46.580087 25.517453 
L 50.331144 25.04232 
L 50.611366 25.005771 
L 51.822538 24.831462 
L 53.110367 24.29026 
L 53.375258 24.062534 
L 53.519202 23.926179 
L 53.777279 23.71251 
L 53.959551 23.486189 
L 54.137564 23.280954 
L 54.40501 22.918278 
L 54.60091 22.652598 
L 54.893908 22.267431 
L 55.164761 21.752937 
L 55.384509 21.346685 
L 55.639179 20.88842 
L 56.084638 19.946589 
L 56.218361 19.664039 
L 56.30098 19.493947 
L 56.542022 19.080666 
L 57.077766 18.404515 
L 57.23193 18.221772 
L 57.434644 18.015131 
L 57.765119 17.599038 
L 57.933763 17.421918 
L 58.540201 16.78091 
L 58.690107 16.598166 
L 59.363832 15.899524 
L 59.602319 15.605729 
L 61.240212 14.393999 
L 61.515324 14.223907 
L 62.039143 13.88794 
L 63.912968 12.777422 
L 64.547513 12.596085 
L 65.116475 12.47941 
L 65.702471 12.317752 
L 65.856636 12.275581 
L 66.313167 12.130792 
L 66.639383 12.00006 
L 67.606958 11.728756 
L 67.775603 11.64863 
L 68.192955 11.50103 
L 68.600086 11.337966 
L 69.029362 11.121486 
L 69.422865 10.955611 
L 70.197096 10.457986 
L 70.869969 10.221825 
L 73.405595 9.268748 
L 73.575091 9.202679 
L 74.018847 9.080382 
L 74.424274 8.935593 
L 77.898516 8.094973 
L 80.127516 7.830698 
L 83.832579 7.514411 
L 87.054706 7.387896 
L 87.158618 7.380868 
L 91.080023 7.240296 
L 98.538698 7.050524 
L 145.174794 6.530408 
L 179.399355 6.363127 
L 207.996479 6.226772 
L 207.996479 6.226772 
" clip-path="url(#pd705d991d5)" style="fill: none; stroke: #9467bd; stroke-width: 1.5; stroke-linecap: square"/>
   </g>
   <g id="patch_3">
    <path d="M 3.5 126.814399 
L 3.5 0 
" style="fill: none; stroke: #000000; stroke-width: 0.8; stroke-linejoin: miter; stroke-linecap: square"/>
   </g>
   <g id="patch_4">
    <path d="M 207.917267 126.814399 
L 207.917267 0 
" style="fill: none; stroke: #000000; stroke-width: 0.8; stroke-linejoin: miter; stroke-linecap: square"/>
   </g>
   <g id="patch_5">
    <path d="M 3.5 126.814399 
L 207.917267 126.814399 
" style="fill: none; stroke: #000000; stroke-width: 0.8; stroke-linejoin: miter; stroke-linecap: square"/>
   </g>
   <g id="patch_6">
    <path d="M 3.5 0 
L 207.917267 0 
" style="fill: none; stroke: #000000; stroke-width: 0.8; stroke-linejoin: miter; stroke-linecap: square"/>
   </g>
   <g id="legend_1">
    <g id="patch_7">
     <path d="M 71.725224 120.983399 
L 202.086267 120.983399 
L 202.086267 78.986748 
L 71.725224 78.986748 
z
" style="fill: #ffffff; opacity: 0.8; stroke: #000000; stroke-linejoin: miter"/>
    </g>
    <g id="line2d_21">
     <path d="M 76.390024 87.733248 
L 82.221024 87.733248 
L 88.052024 87.733248 
" style="fill: none; stroke: #9467bd; stroke-width: 1.5; stroke-linecap: square"/>
    </g>
    <g id="text_7">
     <!-- Auckland -->
     <g transform="translate(91.550624 91.814948) scale(0.11662 -0.11662)">
      <defs>
       <path id="CMR17-41" d="M 2323 4378 
C 2291 4461 2278 4480 2214 4480 
C 2150 4480 2138 4461 2106 4378 
L 749 566 
C 627 223 371 153 147 153 
L 147 -13 
C 262 0 518 0 640 0 
C 800 0 1056 0 1210 -13 
L 1210 153 
C 909 153 864 361 864 439 
C 864 497 877 530 890 569 
L 1229 1536 
L 2906 1536 
L 3290 442 
C 3322 365 3322 352 3322 327 
C 3322 153 3046 153 2925 153 
L 2925 0 
C 3110 0 3443 0 3642 0 
C 3808 0 4128 0 4282 -13 
L 4282 153 
C 3942 153 3827 153 3744 387 
L 2323 4378 
z
M 2067 3893 
L 2848 1702 
L 1286 1702 
L 2067 3893 
z
" transform="scale(0.015625)"/>
       <path id="CMR17-75" d="M 1882 2693 
L 1882 2528 
C 2259 2528 2317 2489 2317 2186 
L 2317 1032 
C 2317 500 2029 38 1555 38 
C 1030 38 986 348 986 678 
L 986 2763 
L 211 2693 
L 211 2528 
C 467 2528 640 2528 646 2274 
L 646 1058 
C 646 633 646 361 813 183 
C 896 101 1056 -64 1517 -64 
C 2061 -64 2272 377 2323 506 
L 2330 506 
L 2330 -63 
L 3091 -63 
L 3091 128 
C 2714 128 2656 166 2656 473 
L 2656 2763 
L 1882 2693 
z
" transform="scale(0.015625)"/>
       <path id="CMR17-63" d="M 2234 2240 
C 2112 2240 1933 2240 1933 2017 
C 1933 1838 2080 1787 2163 1787 
C 2208 1787 2394 1807 2394 2024 
C 2394 2467 1958 2803 1466 2803 
C 787 2803 211 2178 211 1363 
C 211 516 813 -64 1466 -64 
C 2259 -64 2458 677 2458 748 
C 2458 774 2451 793 2406 793 
C 2362 793 2355 787 2330 703 
C 2163 180 1798 51 1523 51 
C 1114 51 621 427 621 1369 
C 621 2338 1094 2688 1472 2688 
C 1722 2688 2093 2573 2234 2240 
z
" transform="scale(0.015625)"/>
       <path id="CMR17-6b" d="M 1670 1673 
C 1664 1686 1632 1724 1632 1743 
C 1632 1756 2086 2171 2144 2222 
C 2509 2528 2739 2560 2906 2560 
L 2906 2733 
C 2867 2733 2854 2733 2848 2720 
L 2534 2720 
C 2355 2720 2080 2720 1907 2733 
L 1907 2566 
C 1997 2559 2061 2508 2061 2419 
C 2061 2291 1933 2170 1926 2170 
L 960 1289 
L 960 4396 
L 198 4326 
L 198 4160 
C 576 4160 634 4122 634 3817 
L 634 426 
C 634 184 608 153 198 153 
L 198 -13 
C 352 0 634 0 794 0 
C 954 0 1235 0 1389 -13 
L 1389 153 
C 979 153 954 178 954 428 
L 954 1130 
L 1395 1532 
L 2042 574 
C 2118 459 2182 369 2182 286 
C 2182 172 2067 153 1990 153 
L 1990 -13 
C 2144 0 2419 0 2579 0 
C 2694 0 2931 0 3040 0 
L 3040 153 
C 2739 153 2669 210 2477 491 
L 1670 1673 
z
" transform="scale(0.015625)"/>
       <path id="CMR17-6c" d="M 979 4396 
L 218 4326 
L 218 4160 
C 595 4160 653 4122 653 3817 
L 653 426 
C 653 184 627 153 218 153 
L 218 -13 
C 371 0 653 0 813 0 
C 979 0 1261 0 1414 -13 
L 1414 153 
C 1005 153 979 178 979 426 
L 979 4396 
z
" transform="scale(0.015625)"/>
       <path id="CMR17-61" d="M 2304 1653 
C 2304 2072 2304 2294 2035 2543 
C 1798 2752 1523 2816 1306 2816 
C 800 2816 435 2407 435 1971 
C 435 1728 627 1728 666 1728 
C 749 1728 896 1778 896 1954 
C 896 2112 774 2181 666 2181 
C 640 2181 608 2174 589 2168 
C 723 2592 1069 2714 1293 2714 
C 1613 2714 1965 2429 1965 1885 
L 1965 1600 
C 1587 1600 1133 1549 774 1357 
C 371 1133 256 813 256 570 
C 256 77 832 -64 1171 -64 
C 1523 -64 1850 139 1990 511 
C 2003 233 2182 -18 2464 -18 
C 2598 -18 2938 70 2938 567 
L 2938 920 
L 2822 920 
L 2822 562 
C 2822 178 2650 128 2566 128 
C 2304 128 2304 458 2304 738 
L 2304 1653 
z
M 1965 870 
C 1965 317 1568 38 1216 38 
C 896 38 646 275 646 570 
C 646 761 730 1100 1101 1305 
C 1408 1478 1760 1504 1965 1504 
L 1965 870 
z
" transform="scale(0.015625)"/>
       <path id="CMR17-6e" d="M 2656 1933 
C 2656 2259 2592 2790 1837 2790 
C 1331 2790 1069 2400 973 2144 
L 966 2144 
L 966 2790 
L 211 2720 
L 211 2554 
C 589 2554 646 2515 646 2208 
L 646 428 
C 646 184 621 153 211 153 
L 211 -13 
C 365 0 646 0 813 0 
C 979 0 1267 0 1421 -13 
L 1421 153 
C 1011 153 986 178 986 428 
L 986 1658 
C 986 2247 1344 2688 1792 2688 
C 2266 2688 2317 2266 2317 1958 
L 2317 428 
C 2317 184 2291 153 1882 153 
L 1882 -13 
C 2035 0 2317 0 2483 0 
C 2650 0 2938 0 3091 -13 
L 3091 153 
C 2682 153 2656 178 2656 428 
L 2656 1933 
z
" transform="scale(0.015625)"/>
       <path id="CMR17-64" d="M 1869 4326 
L 1869 4160 
C 2246 4160 2304 4122 2304 3820 
L 2304 2345 
C 2278 2377 2016 2790 1498 2790 
C 845 2790 211 2208 211 1364 
C 211 525 806 -64 1434 -64 
C 1978 -64 2259 337 2291 380 
L 2291 -63 
L 3066 -63 
L 3066 128 
C 2688 128 2630 166 2630 473 
L 2630 4396 
L 1869 4326 
z
M 2291 755 
C 2291 563 2176 390 2029 262 
C 1811 70 1594 38 1472 38 
C 1286 38 621 134 621 1356 
C 621 2612 1363 2688 1530 2688 
C 1824 2688 2061 2522 2208 2291 
C 2291 2157 2291 2138 2291 2023 
L 2291 755 
z
" transform="scale(0.015625)"/>
      </defs>
      <use xlink:href="#CMR17-41" transform="scale(0.996264)"/>
      <use xlink:href="#CMR17-75" transform="translate(69.07243 0) scale(0.996264)"/>
      <use xlink:href="#CMR17-63" transform="translate(119.9678 0) scale(0.996264)"/>
      <use xlink:href="#CMR17-6b" transform="translate(157.851006 0) scale(0.996264)"/>
      <use xlink:href="#CMR17-6c" transform="translate(206.143922 0) scale(0.996264)"/>
      <use xlink:href="#CMR17-61" transform="translate(231.01498 0) scale(0.996264)"/>
      <use xlink:href="#CMR17-6e" transform="translate(276.705458 0) scale(0.996264)"/>
      <use xlink:href="#CMR17-64" transform="translate(327.600827 0) scale(0.996264)"/>
     </g>
    </g>
    <g id="line2d_22">
     <path d="M 76.390024 98.855505 
L 82.221024 98.855505 
L 88.052024 98.855505 
" style="fill: none; stroke-dasharray: 9.6,2.4,1.5,2.4; stroke-dashoffset: 0; stroke: #d62728; stroke-width: 1.5"/>
    </g>
    <g id="text_8">
     <!-- Kellevie -->
     <g transform="translate(91.550624 102.937205) scale(0.11662 -0.11662)">
      <defs>
       <path id="CMR17-4b" d="M 2362 2675 
L 3469 3782 
C 3699 4006 3942 4186 4301 4186 
L 4301 4352 
C 4173 4352 4013 4352 3885 4352 
C 3712 4352 3411 4352 3245 4358 
L 3245 4192 
C 3411 4180 3437 4065 3437 4019 
C 3437 3975 3411 3905 3386 3867 
L 1261 1738 
L 1261 3900 
C 1261 4186 1331 4186 1773 4186 
L 1773 4352 
C 1587 4352 1248 4352 1050 4352 
C 851 4352 512 4352 326 4352 
L 326 4186 
C 768 4186 838 4186 838 3899 
L 838 446 
C 838 160 768 160 326 160 
L 326 0 
C 512 0 851 0 1050 0 
C 1248 0 1587 0 1773 0 
L 1773 160 
C 1331 160 1261 160 1261 447 
L 1261 1579 
L 2080 2390 
L 3290 537 
C 3328 473 3373 390 3373 326 
C 3373 160 3194 160 3110 160 
L 3110 0 
C 3315 0 3610 0 3821 0 
C 3974 0 4237 0 4384 -6 
L 4384 160 
C 4077 160 3981 198 3789 493 
L 2362 2675 
z
" transform="scale(0.015625)"/>
       <path id="CMR17-65" d="M 2438 1472 
C 2464 1498 2464 1511 2464 1576 
C 2464 2238 2118 2816 1389 2816 
C 710 2816 173 2169 173 1383 
C 173 551 781 -64 1459 -64 
C 2176 -64 2458 607 2458 740 
C 2458 784 2419 784 2406 784 
C 2362 784 2355 771 2330 696 
C 2189 265 1837 51 1504 51 
C 1229 51 954 203 781 480 
C 582 803 582 1176 582 1472 
L 2438 1472 
z
M 589 1568 
C 634 2505 1126 2714 1382 2714 
C 1818 2714 2112 2297 2118 1568 
L 589 1568 
z
" transform="scale(0.015625)"/>
       <path id="CMR17-76" d="M 2502 2163 
C 2560 2304 2662 2560 3034 2560 
L 3034 2726 
C 2912 2726 2752 2726 2630 2726 
C 2496 2726 2285 2726 2157 2732 
L 2157 2566 
C 2317 2553 2406 2477 2406 2311 
C 2406 2253 2406 2240 2368 2151 
L 1664 377 
L 902 2286 
C 864 2369 864 2381 864 2407 
C 864 2560 1075 2560 1171 2560 
L 1171 2732 
C 1018 2726 736 2726 576 2726 
C 403 2726 205 2726 64 2732 
L 64 2560 
C 307 2560 442 2560 518 2362 
L 1446 44 
C 1485 -51 1491 -64 1549 -64 
C 1606 -64 1613 -51 1651 44 
L 2502 2163 
z
" transform="scale(0.015625)"/>
       <path id="CMR17-69" d="M 992 3909 
C 992 4049 877 4170 730 4170 
C 589 4170 467 4056 467 3909 
C 467 3769 582 3648 730 3648 
C 870 3648 992 3763 992 3909 
z
M 243 2706 
L 243 2541 
C 602 2541 653 2502 653 2197 
L 653 427 
C 653 184 627 153 218 153 
L 218 -13 
C 371 0 646 0 806 0 
C 960 0 1222 0 1370 -13 
L 1370 153 
C 992 153 979 191 979 420 
L 979 2776 
L 243 2706 
z
" transform="scale(0.015625)"/>
      </defs>
      <use xlink:href="#CMR17-4b" transform="scale(0.996264)"/>
      <use xlink:href="#CMR17-65" transform="translate(71.674777 0) scale(0.996264)"/>
      <use xlink:href="#CMR17-6c" transform="translate(112.160438 0) scale(0.996264)"/>
      <use xlink:href="#CMR17-6c" transform="translate(137.031496 0) scale(0.996264)"/>
      <use xlink:href="#CMR17-65" transform="translate(161.902555 0) scale(0.996264)"/>
      <use xlink:href="#CMR17-76" transform="translate(202.388215 0) scale(0.996264)"/>
      <use xlink:href="#CMR17-69" transform="translate(250.681131 0) scale(0.996264)"/>
      <use xlink:href="#CMR17-65" transform="translate(275.55219 0) scale(0.996264)"/>
     </g>
    </g>
    <g id="line2d_23">
     <path d="M 76.390024 109.977762 
L 82.221024 109.977762 
L 88.052024 109.977762 
" style="fill: none; stroke-dasharray: 5.55,2.4; stroke-dashoffset: 0; stroke: #2ca02c; stroke-width: 1.5"/>
    </g>
    <g id="text_9">
     <!-- Noojee -->
     <g transform="translate(91.550624 114.059462) scale(0.11662 -0.11662)">
      <defs>
       <path id="CMR17-4e" d="M 1312 4250 
C 1267 4320 1261 4320 1139 4320 
L 326 4320 
L 326 4160 
L 448 4160 
C 704 4160 819 4129 838 4122 
L 838 610 
C 838 451 838 153 326 153 
L 326 -13 
C 474 0 742 0 902 0 
C 1062 0 1331 0 1478 -13 
L 1478 153 
C 966 153 966 451 966 610 
L 966 4033 
C 1011 3995 1011 3982 1056 3919 
L 3430 76 
C 3475 0 3494 0 3526 0 
C 3590 0 3590 19 3590 139 
L 3590 3705 
C 3590 3863 3590 4160 4102 4160 
L 4102 4326 
C 3955 4320 3686 4320 3526 4320 
C 3366 4320 3098 4320 2950 4326 
L 2950 4160 
C 3462 4160 3462 3862 3462 3703 
L 3462 763 
L 1312 4250 
z
" transform="scale(0.015625)"/>
       <path id="CMR17-6f" d="M 2758 1356 
C 2758 2176 2163 2816 1466 2816 
C 768 2816 173 2176 173 1356 
C 173 551 768 -64 1466 -64 
C 2163 -64 2758 551 2758 1356 
z
M 1466 51 
C 1165 51 909 230 762 480 
C 602 767 582 1126 582 1408 
C 582 1677 595 2010 762 2298 
C 890 2509 1139 2714 1466 2714 
C 1754 2714 1997 2554 2150 2330 
C 2349 2029 2349 1607 2349 1408 
C 2349 1158 2336 775 2163 467 
C 1984 173 1709 51 1466 51 
z
" transform="scale(0.015625)"/>
       <path id="CMR17-6a" d="M 1165 3963 
C 1165 4103 1050 4224 902 4224 
C 762 4224 640 4110 640 3963 
C 640 3823 755 3702 902 3702 
C 1043 3702 1165 3817 1165 3963 
z
M 365 2754 
L 365 2588 
C 787 2588 838 2543 838 2235 
L 838 -359 
C 838 -678 781 -1178 403 -1178 
C 358 -1178 186 -1178 45 -1082 
C 90 -1075 250 -1031 250 -851 
C 250 -729 166 -621 19 -621 
C -122 -621 -211 -717 -211 -858 
C -211 -1114 70 -1280 397 -1280 
C 838 -1280 1165 -877 1165 -332 
L 1165 2825 
L 365 2754 
z
" transform="scale(0.015625)"/>
      </defs>
      <use xlink:href="#CMR17-4e" transform="scale(0.996264)"/>
      <use xlink:href="#CMR17-6f" transform="translate(69.07243 0) scale(0.996264)"/>
      <use xlink:href="#CMR17-6f" transform="translate(117.365346 0) scale(0.996264)"/>
      <use xlink:href="#CMR17-6a" transform="translate(168.260624 0) scale(0.996264)"/>
      <use xlink:href="#CMR17-65" transform="translate(195.734137 0) scale(0.996264)"/>
      <use xlink:href="#CMR17-65" transform="translate(236.219797 0) scale(0.996264)"/>
     </g>
    </g>
    <g id="line2d_24">
     <path d="M 145.469088 87.733248 
L 151.300088 87.733248 
L 157.131088 87.733248 
" style="fill: none; stroke-dasharray: 1.5,2.475; stroke-dashoffset: 0; stroke: #ff7f0e; stroke-width: 1.5"/>
    </g>
    <g id="text_10">
     <!-- Perth -->
     <g transform="translate(160.629688 91.814948) scale(0.11662 -0.11662)">
      <defs>
       <path id="CMR17-50" d="M 1267 2042 
L 2291 2042 
C 3117 2042 3718 2578 3718 3184 
C 3718 3791 3130 4352 2291 4352 
L 333 4352 
L 333 4186 
C 774 4186 845 4186 845 3899 
L 845 446 
C 845 160 774 160 333 160 
L 333 0 
C 518 0 858 0 1056 0 
C 1254 0 1594 0 1779 0 
L 1779 160 
C 1338 160 1267 160 1267 446 
L 1267 2042 
z
M 1254 2176 
L 1254 3938 
C 1254 4155 1267 4186 1523 4186 
L 2170 4186 
C 2995 4186 3232 3714 3232 3184 
C 3232 2604 2950 2176 2170 2176 
L 1254 2176 
z
" transform="scale(0.015625)"/>
       <path id="CMR17-72" d="M 960 1497 
C 960 2112 1222 2688 1702 2688 
C 1747 2688 1792 2682 1837 2662 
C 1837 2662 1696 2617 1696 2452 
C 1696 2298 1818 2234 1914 2234 
C 1990 2234 2131 2279 2131 2458 
C 2131 2663 1926 2790 1709 2790 
C 1222 2790 1011 2317 947 2093 
L 941 2093 
L 941 2790 
L 198 2720 
L 198 2554 
C 576 2554 634 2515 634 2208 
L 634 428 
C 634 184 608 153 198 153 
L 198 -13 
C 352 0 646 0 813 0 
C 998 0 1325 0 1498 -13 
L 1498 153 
C 1037 153 960 153 960 440 
L 960 1497 
z
" transform="scale(0.015625)"/>
       <path id="CMR17-74" d="M 966 2560 
L 1862 2560 
L 1862 2725 
L 966 2725 
L 966 3904 
L 851 3904 
C 838 3245 614 2668 70 2668 
L 70 2560 
L 627 2560 
L 627 771 
C 627 650 627 -64 1370 -64 
C 1747 -64 1965 306 1965 777 
L 1965 1140 
L 1850 1140 
L 1850 783 
C 1850 344 1677 51 1408 51 
C 1222 51 966 178 966 758 
L 966 2560 
z
" transform="scale(0.015625)"/>
       <path id="CMR17-68" d="M 2656 1933 
C 2656 2259 2592 2790 1837 2790 
C 1312 2790 1056 2368 979 2157 
L 973 2157 
L 973 4396 
L 211 4326 
L 211 4160 
C 589 4160 646 4122 646 3817 
L 646 426 
C 646 184 621 153 211 153 
L 211 -13 
C 365 0 646 0 813 0 
C 979 0 1267 0 1421 -13 
L 1421 153 
C 1011 153 986 178 986 428 
L 986 1658 
C 986 2247 1344 2688 1792 2688 
C 2266 2688 2317 2266 2317 1958 
L 2317 428 
C 2317 184 2291 153 1882 153 
L 1882 -13 
C 2035 0 2317 0 2483 0 
C 2650 0 2938 0 3091 -13 
L 3091 153 
C 2682 153 2656 178 2656 428 
L 2656 1933 
z
" transform="scale(0.015625)"/>
      </defs>
      <use xlink:href="#CMR17-50" transform="scale(0.996264)"/>
      <use xlink:href="#CMR17-65" transform="translate(59.983847 0) scale(0.996264)"/>
      <use xlink:href="#CMR17-72" transform="translate(100.469507 0) scale(0.996264)"/>
      <use xlink:href="#CMR17-74" transform="translate(135.750275 0) scale(0.996264)"/>
      <use xlink:href="#CMR17-68" transform="translate(171.031043 0) scale(0.996264)"/>
     </g>
    </g>
    <g id="line2d_25">
     <path d="M 145.469088 98.855505 
L 151.300088 98.855505 
L 157.131088 98.855505 
" style="fill: none; stroke: #1f77b4; stroke-width: 1.5; stroke-linecap: square"/>
    </g>
    <g id="text_11">
     <!-- Sydney -->
     <g transform="translate(160.629688 102.937205) scale(0.11662 -0.11662)">
      <defs>
       <path id="CMR17-53" d="M 2803 4290 
C 2803 4404 2797 4411 2758 4411 
C 2720 4411 2707 4385 2682 4328 
L 2490 3907 
C 2246 4257 1875 4416 1472 4416 
C 819 4416 294 3901 294 3253 
C 294 3056 339 2776 557 2510 
C 794 2218 1018 2167 1530 2033 
C 1722 1982 2042 1899 2106 1874 
C 2470 1722 2662 1341 2662 985 
C 2662 527 2336 38 1779 38 
C 1094 38 454 419 410 1311 
C 403 1413 397 1419 352 1419 
C 301 1419 294 1413 294 1285 
L 294 -1 
C 294 -115 301 -122 339 -122 
C 384 -122 397 -90 486 108 
C 493 127 493 140 614 381 
C 934 -39 1472 -128 1779 -128 
C 2477 -128 2970 451 2970 1124 
C 2970 1454 2848 1708 2778 1823 
C 2509 2230 2221 2306 1914 2382 
C 1869 2402 1856 2402 1498 2490 
C 1152 2579 1005 2624 845 2796 
C 666 2992 602 3196 602 3399 
C 602 3812 934 4263 1478 4263 
C 2157 4263 2579 3786 2675 2993 
C 2694 2878 2701 2872 2746 2872 
C 2803 2872 2803 2891 2803 2999 
L 2803 4290 
z
" transform="scale(0.015625)"/>
       <path id="CMR17-79" d="M 2496 2197 
C 2656 2586 2944 2586 3034 2586 
L 3034 2752 
C 2912 2752 2752 2752 2630 2752 
C 2496 2752 2285 2752 2157 2758 
L 2157 2592 
C 2400 2573 2406 2394 2406 2343 
C 2406 2280 2394 2248 2362 2171 
L 1664 449 
L 902 2306 
C 870 2382 870 2426 870 2433 
C 870 2573 1018 2586 1171 2586 
L 1171 2758 
C 1018 2752 742 2752 582 2752 
C 410 2752 205 2752 64 2758 
L 64 2586 
C 410 2586 448 2554 531 2350 
L 1485 15 
C 1197 -738 1030 -1178 627 -1178 
C 557 -1178 397 -1159 282 -1044 
C 429 -1031 493 -942 493 -833 
C 493 -725 416 -629 288 -629 
C 147 -629 77 -725 77 -840 
C 77 -1095 339 -1280 627 -1280 
C 998 -1280 1229 -922 1357 -604 
L 2496 2197 
z
" transform="scale(0.015625)"/>
      </defs>
      <use xlink:href="#CMR17-53" transform="scale(0.996264)"/>
      <use xlink:href="#CMR17-79" transform="translate(50.89537 0) scale(0.996264)"/>
      <use xlink:href="#CMR17-64" transform="translate(99.188286 0) scale(0.996264)"/>
      <use xlink:href="#CMR17-6e" transform="translate(150.083655 0) scale(0.996264)"/>
      <use xlink:href="#CMR17-65" transform="translate(200.979025 0) scale(0.996264)"/>
      <use xlink:href="#CMR17-79" transform="translate(241.464686 0) scale(0.996264)"/>
     </g>
    </g>
   </g>
  </g>
 </g>
 <defs>
  <clipPath id="pd705d991d5">
   <rect x="3.5" y="0" width="204.417267" height="126.814399"/>
  </clipPath>
 </defs>
</svg>
