<?xml version="1.0" encoding="utf-8" standalone="no"?>
<!DOCTYPE svg PUBLIC "-//W3C//DTD SVG 1.1//EN"
  "http://www.w3.org/Graphics/SVG/1.1/DTD/svg11.dtd">
<svg xmlns:xlink="http://www.w3.org/1999/xlink" width="218.16pt" height="164.16pt" viewBox="0 0 218.16 164.16" xmlns="http://www.w3.org/2000/svg" version="1.1">
 <metadata>
  <rdf:RDF xmlns:dc="http://purl.org/dc/elements/1.1/" xmlns:cc="http://creativecommons.org/ns#" xmlns:rdf="http://www.w3.org/1999/02/22-rdf-syntax-ns#">
   <cc:Work>
    <dc:type rdf:resource="http://purl.org/dc/dcmitype/StillImage"/>
    <dc:date>2023-10-10T20:52:06.632999</dc:date>
    <dc:format>image/svg+xml</dc:format>
    <dc:creator>
     <cc:Agent>
      <dc:title>Matplotlib v3.7.0, https://matplotlib.org/</dc:title>
     </cc:Agent>
    </dc:creator>
   </cc:Work>
  </rdf:RDF>
 </metadata>
 <defs>
  <style type="text/css">*{stroke-linejoin: round; stroke-linecap: butt}</style>
 </defs>
 <g id="figure_1">
  <g id="patch_1">
   <path d="M 0 164.16 
L 218.16 164.16 
L 218.16 0 
L 0 0 
z
" style="fill: #ffffff"/>
  </g>
  <g id="axes_1">
   <g id="patch_2">
    <path d="M 3.5 126.814399 
L 207.917267 126.814399 
L 207.917267 0 
L 3.5 0 
z
" style="fill: #ffffff"/>
   </g>
   <g id="matplotlib.axis_1">
    <g id="xtick_1">
     <g id="line2d_1">
      <defs>
       <path id="m1257f65189" d="M 0 0 
L 0 3.5 
" style="stroke: #000000; stroke-width: 0.8"/>
      </defs>
      <g>
       <use xlink:href="#m1257f65189" x="9.178257" y="126.814399" style="stroke: #000000; stroke-width: 0.8"/>
      </g>
     </g>
     <g id="text_1">
      <!-- 25 -->
      <g transform="translate(2.349769 143.500275) scale(0.14 -0.14)">
       <defs>
        <path id="CMR17-32" d="M 2669 989 
L 2554 989 
C 2490 536 2438 459 2413 420 
C 2381 369 1920 369 1830 369 
L 602 369 
C 832 619 1280 1072 1824 1597 
C 2214 1967 2669 2402 2669 3035 
C 2669 3790 2067 4224 1395 4224 
C 691 4224 262 3604 262 3030 
C 262 2780 448 2748 525 2748 
C 589 2748 781 2787 781 3010 
C 781 3207 614 3264 525 3264 
C 486 3264 448 3258 422 3245 
C 544 3790 915 4058 1306 4058 
C 1862 4058 2227 3617 2227 3035 
C 2227 2479 1901 2000 1536 1584 
L 262 146 
L 262 0 
L 2515 0 
L 2669 989 
z
" transform="scale(0.015625)"/>
        <path id="CMR17-35" d="M 730 3692 
C 794 3666 1056 3584 1325 3584 
C 1920 3584 2246 3911 2432 4100 
C 2432 4157 2432 4192 2394 4192 
C 2387 4192 2374 4192 2323 4163 
C 2099 4058 1837 3973 1517 3973 
C 1325 3973 1037 3999 723 4139 
C 653 4171 640 4171 634 4171 
C 602 4171 595 4164 595 4037 
L 595 2203 
C 595 2089 595 2057 659 2057 
C 691 2057 704 2070 736 2114 
C 941 2401 1222 2522 1542 2522 
C 1766 2522 2246 2382 2246 1289 
C 2246 1085 2246 715 2054 421 
C 1894 159 1645 25 1370 25 
C 947 25 518 320 403 814 
C 429 807 480 795 506 795 
C 589 795 749 840 749 1038 
C 749 1210 627 1280 506 1280 
C 358 1280 262 1190 262 1011 
C 262 454 704 -128 1382 -128 
C 2042 -128 2669 440 2669 1264 
C 2669 2030 2170 2624 1549 2624 
C 1222 2624 947 2503 730 2274 
L 730 3692 
z
" transform="scale(0.015625)"/>
       </defs>
       <use xlink:href="#CMR17-32" transform="scale(0.996264)"/>
       <use xlink:href="#CMR17-35" transform="translate(45.690477 0) scale(0.996264)"/>
      </g>
     </g>
    </g>
    <g id="xtick_2">
     <g id="line2d_2">
      <g>
       <use xlink:href="#m1257f65189" x="37.569545" y="126.814399" style="stroke: #000000; stroke-width: 0.8"/>
      </g>
     </g>
     <g id="text_2">
      <!-- 50 -->
      <g transform="translate(30.741056 143.500275) scale(0.14 -0.14)">
       <defs>
        <path id="CMR17-30" d="M 2688 2025 
C 2688 2416 2682 3080 2413 3591 
C 2176 4039 1798 4198 1466 4198 
C 1158 4198 768 4058 525 3597 
C 269 3118 243 2524 243 2025 
C 243 1661 250 1106 448 619 
C 723 -39 1216 -128 1466 -128 
C 1760 -128 2208 -7 2470 600 
C 2662 1042 2688 1559 2688 2025 
z
M 1466 -26 
C 1056 -26 813 325 723 812 
C 653 1188 653 1738 653 2096 
C 653 2588 653 2997 736 3387 
C 858 3929 1216 4096 1466 4096 
C 1728 4096 2067 3923 2189 3400 
C 2272 3036 2278 2607 2278 2096 
C 2278 1680 2278 1169 2202 792 
C 2067 95 1690 -26 1466 -26 
z
" transform="scale(0.015625)"/>
       </defs>
       <use xlink:href="#CMR17-35" transform="scale(0.996264)"/>
       <use xlink:href="#CMR17-30" transform="translate(45.690477 0) scale(0.996264)"/>
      </g>
     </g>
    </g>
    <g id="xtick_3">
     <g id="line2d_3">
      <g>
       <use xlink:href="#m1257f65189" x="65.960832" y="126.814399" style="stroke: #000000; stroke-width: 0.8"/>
      </g>
     </g>
     <g id="text_3">
      <!-- 75 -->
      <g transform="translate(59.132343 143.500275) scale(0.14 -0.14)">
       <defs>
        <path id="CMR17-37" d="M 2886 3941 
L 2886 4081 
L 1382 4081 
C 634 4081 621 4165 595 4288 
L 480 4288 
L 294 3094 
L 410 3094 
C 429 3215 474 3540 550 3661 
C 589 3712 1062 3712 1171 3712 
L 2579 3712 
L 1869 2661 
C 1395 1954 1069 999 1069 165 
C 1069 89 1069 -128 1299 -128 
C 1530 -128 1530 89 1530 171 
L 1530 465 
C 1530 1508 1709 2196 2003 2636 
L 2886 3941 
z
" transform="scale(0.015625)"/>
       </defs>
       <use xlink:href="#CMR17-37" transform="scale(0.996264)"/>
       <use xlink:href="#CMR17-35" transform="translate(45.690477 0) scale(0.996264)"/>
      </g>
     </g>
    </g>
    <g id="xtick_4">
     <g id="line2d_4">
      <g>
       <use xlink:href="#m1257f65189" x="94.352119" y="126.814399" style="stroke: #000000; stroke-width: 0.8"/>
      </g>
     </g>
     <g id="text_4">
      <!-- 100 -->
      <g transform="translate(84.109386 143.500275) scale(0.14 -0.14)">
       <defs>
        <path id="CMR17-31" d="M 1702 4058 
C 1702 4192 1696 4192 1606 4192 
C 1357 3916 979 3827 621 3827 
C 602 3827 570 3827 563 3808 
C 557 3795 557 3782 557 3648 
C 755 3648 1088 3686 1344 3839 
L 1344 461 
C 1344 236 1331 160 781 160 
L 589 160 
L 589 0 
C 896 0 1216 0 1523 0 
C 1830 0 2150 0 2458 0 
L 2458 160 
L 2266 160 
C 1715 160 1702 230 1702 458 
L 1702 4058 
z
" transform="scale(0.015625)"/>
       </defs>
       <use xlink:href="#CMR17-31" transform="scale(0.996264)"/>
       <use xlink:href="#CMR17-30" transform="translate(45.690477 0) scale(0.996264)"/>
       <use xlink:href="#CMR17-30" transform="translate(91.380954 0) scale(0.996264)"/>
      </g>
     </g>
    </g>
    <g id="xtick_5">
     <g id="line2d_5">
      <g>
       <use xlink:href="#m1257f65189" x="122.743406" y="126.814399" style="stroke: #000000; stroke-width: 0.8"/>
      </g>
     </g>
     <g id="text_5">
      <!-- 125 -->
      <g transform="translate(112.500673 143.500275) scale(0.14 -0.14)">
       <use xlink:href="#CMR17-31" transform="scale(0.996264)"/>
       <use xlink:href="#CMR17-32" transform="translate(45.690477 0) scale(0.996264)"/>
       <use xlink:href="#CMR17-35" transform="translate(91.380954 0) scale(0.996264)"/>
      </g>
     </g>
    </g>
    <g id="xtick_6">
     <g id="line2d_6">
      <g>
       <use xlink:href="#m1257f65189" x="151.134693" y="126.814399" style="stroke: #000000; stroke-width: 0.8"/>
      </g>
     </g>
     <g id="text_6">
      <!-- 150 -->
      <g transform="translate(140.89196 143.500275) scale(0.14 -0.14)">
       <use xlink:href="#CMR17-31" transform="scale(0.996264)"/>
       <use xlink:href="#CMR17-35" transform="translate(45.690477 0) scale(0.996264)"/>
       <use xlink:href="#CMR17-30" transform="translate(91.380954 0) scale(0.996264)"/>
      </g>
     </g>
    </g>
    <g id="xtick_7">
     <g id="line2d_7">
      <g>
       <use xlink:href="#m1257f65189" x="179.52598" y="126.814399" style="stroke: #000000; stroke-width: 0.8"/>
      </g>
     </g>
     <g id="text_7">
      <!-- 175 -->
      <g transform="translate(169.283247 143.500275) scale(0.14 -0.14)">
       <use xlink:href="#CMR17-31" transform="scale(0.996264)"/>
       <use xlink:href="#CMR17-37" transform="translate(45.690477 0) scale(0.996264)"/>
       <use xlink:href="#CMR17-35" transform="translate(91.380954 0) scale(0.996264)"/>
      </g>
     </g>
    </g>
    <g id="xtick_8">
     <g id="line2d_8">
      <g>
       <use xlink:href="#m1257f65189" x="207.917267" y="126.814399" style="stroke: #000000; stroke-width: 0.8"/>
      </g>
     </g>
     <g id="text_8">
      <!-- 200 -->
      <g transform="translate(197.674534 143.500275) scale(0.14 -0.14)">
       <use xlink:href="#CMR17-32" transform="scale(0.996264)"/>
       <use xlink:href="#CMR17-30" transform="translate(45.690477 0) scale(0.996264)"/>
       <use xlink:href="#CMR17-30" transform="translate(91.380954 0) scale(0.996264)"/>
      </g>
     </g>
    </g>
    <g id="text_9">
     <!-- RTT [ms] -->
     <g transform="translate(76.935346 160.673076) scale(0.14 -0.14)">
      <defs>
       <path id="CMR17-52" d="M 2509 2146 
C 3117 2268 3629 2676 3629 3186 
C 3629 3785 2950 4326 2054 4326 
L 333 4326 
L 333 4160 
C 774 4160 845 4160 845 3873 
L 845 415 
C 845 128 774 128 333 128 
L 333 -26 
C 518 -26 851 -26 1050 -26 
C 1248 -26 1581 -26 1766 -26 
L 1766 128 
C 1325 128 1254 128 1254 417 
L 1254 2112 
L 2003 2112 
C 2368 2112 2573 1964 2662 1881 
C 2918 1632 2918 1459 2918 1024 
C 2918 595 2918 377 3110 160 
C 3354 -102 3680 -128 3821 -128 
C 4294 -128 4365 396 4365 503 
C 4365 540 4365 585 4307 585 
C 4256 585 4250 547 4250 522 
C 4218 112 4032 -26 3834 -26 
C 3482 -26 3443 375 3405 764 
C 3386 898 3373 993 3360 1133 
C 3322 1452 3270 1917 2509 2146 
z
M 1984 2214 
L 1254 2214 
L 1254 3913 
C 1254 4129 1267 4160 1523 4160 
L 1990 4160 
C 2522 4160 3142 3977 3142 3190 
C 3142 2372 2464 2214 1984 2214 
z
" transform="scale(0.015625)"/>
       <path id="CMR17-54" d="M 3981 4326 
L 288 4326 
L 179 2918 
L 294 2918 
C 378 3976 467 4160 1453 4160 
C 1568 4160 1754 4160 1805 4154 
C 1926 4135 1926 4058 1926 3912 
L 1926 459 
C 1926 230 1907 160 1376 160 
L 1197 160 
L 1197 0 
C 1504 0 1824 0 2138 0 
C 2451 0 2771 0 3078 0 
L 3078 160 
L 2899 160 
C 2368 160 2349 230 2349 459 
L 2349 3912 
C 2349 4052 2349 4129 2464 4154 
C 2515 4160 2701 4160 2816 4160 
C 3795 4160 3891 3976 3974 2918 
L 4090 2918 
L 3981 4326 
z
" transform="scale(0.015625)"/>
       <path id="CMR17-5b" d="M 1504 -1600 
L 1504 -1377 
L 902 -1377 
L 902 4544 
L 1504 4544 
L 1504 4767 
L 678 4767 
L 678 -1600 
L 1504 -1600 
z
" transform="scale(0.015625)"/>
       <path id="CMR17-6d" d="M 4326 1933 
C 4326 2252 4269 2790 3507 2790 
C 3072 2790 2771 2496 2656 2151 
L 2650 2151 
C 2573 2676 2195 2790 1837 2790 
C 1331 2790 1069 2400 973 2144 
L 966 2144 
L 966 2790 
L 211 2720 
L 211 2554 
C 589 2554 646 2515 646 2208 
L 646 428 
C 646 184 621 153 211 153 
L 211 -13 
C 365 0 646 0 813 0 
C 979 0 1267 0 1421 -13 
L 1421 153 
C 1011 153 986 178 986 428 
L 986 1658 
C 986 2247 1344 2688 1792 2688 
C 2266 2688 2317 2266 2317 1958 
L 2317 428 
C 2317 184 2291 153 1882 153 
L 1882 -13 
C 2035 0 2317 0 2483 0 
C 2650 0 2938 0 3091 -13 
L 3091 153 
C 2682 153 2656 178 2656 428 
L 2656 1658 
C 2656 2247 3014 2688 3462 2688 
C 3936 2688 3987 2266 3987 1958 
L 3987 428 
C 3987 184 3962 153 3552 153 
L 3552 -13 
C 3706 0 3987 0 4154 0 
C 4320 0 4608 0 4762 -13 
L 4762 153 
C 4352 153 4326 178 4326 428 
L 4326 1933 
z
" transform="scale(0.015625)"/>
       <path id="CMR17-73" d="M 1978 2697 
C 1978 2813 1971 2819 1933 2819 
C 1907 2819 1901 2813 1824 2717 
C 1805 2691 1747 2626 1728 2601 
C 1523 2819 1235 2819 1126 2819 
C 416 2819 160 2447 160 2076 
C 160 1498 813 1365 998 1325 
C 1402 1243 1542 1217 1677 1101 
C 1760 1025 1901 884 1901 654 
C 1901 384 1747 38 1158 38 
C 602 38 403 460 288 1021 
C 269 1110 269 1117 218 1117 
C 166 1117 160 1110 160 983 
L 160 63 
C 160 -51 166 -58 205 -58 
C 237 -58 243 -51 275 0 
C 314 57 410 211 448 276 
C 576 103 800 -64 1158 -64 
C 1792 -64 2131 283 2131 784 
C 2131 1112 1958 1285 1875 1362 
C 1683 1561 1459 1606 1190 1657 
C 838 1735 390 1825 390 2217 
C 390 2383 480 2737 1126 2737 
C 1811 2737 1850 2094 1862 1888 
C 1869 1856 1901 1849 1920 1849 
C 1978 1849 1978 1869 1978 1978 
L 1978 2697 
z
" transform="scale(0.015625)"/>
       <path id="CMR17-5d" d="M 915 4767 
L 90 4767 
L 90 4544 
L 691 4544 
L 691 -1377 
L 90 -1377 
L 90 -1600 
L 915 -1600 
L 915 4767 
z
" transform="scale(0.015625)"/>
      </defs>
      <use xlink:href="#CMR17-52" transform="scale(0.996264)"/>
      <use xlink:href="#CMR17-54" transform="translate(59.983847 0) scale(0.996264)"/>
      <use xlink:href="#CMR17-54" transform="translate(126.493727 0) scale(0.996264)"/>
      <use xlink:href="#CMR17-5b" transform="translate(223.079574 0) scale(0.996264)"/>
      <use xlink:href="#CMR17-6d" transform="translate(247.950633 0) scale(0.996264)"/>
      <use xlink:href="#CMR17-73" transform="translate(324.870222 0) scale(0.996264)"/>
      <use xlink:href="#CMR17-5d" transform="translate(360.67156 0) scale(0.996264)"/>
     </g>
    </g>
   </g>
   <g id="matplotlib.axis_2">
    <g id="ytick_1">
     <g id="line2d_9">
      <path d="M 3.5 121.050108 
L 207.917267 121.050108 
" clip-path="url(#p51aa87fd16)" style="fill: none; stroke: #b0b0b0; stroke-opacity: 0.7; stroke-width: 0.5; stroke-linecap: square"/>
     </g>
     <g id="line2d_10">
      <defs>
       <path id="md69be7b779" d="M 0 0 
L -3.5 0 
" style="stroke: #000000; stroke-width: 0.8"/>
      </defs>
      <g>
       <use xlink:href="#md69be7b779" x="3.5" y="121.050108" style="stroke: #000000; stroke-width: 0.8"/>
      </g>
     </g>
    </g>
    <g id="ytick_2">
     <g id="line2d_11">
      <path d="M 3.5 92.228654 
L 207.917267 92.228654 
" clip-path="url(#p51aa87fd16)" style="fill: none; stroke: #b0b0b0; stroke-opacity: 0.7; stroke-width: 0.5; stroke-linecap: square"/>
     </g>
     <g id="line2d_12">
      <g>
       <use xlink:href="#md69be7b779" x="3.5" y="92.228654" style="stroke: #000000; stroke-width: 0.8"/>
      </g>
     </g>
    </g>
    <g id="ytick_3">
     <g id="line2d_13">
      <path d="M 3.5 63.4072 
L 207.917267 63.4072 
" clip-path="url(#p51aa87fd16)" style="fill: none; stroke: #b0b0b0; stroke-opacity: 0.7; stroke-width: 0.5; stroke-linecap: square"/>
     </g>
     <g id="line2d_14">
      <g>
       <use xlink:href="#md69be7b779" x="3.5" y="63.4072" style="stroke: #000000; stroke-width: 0.8"/>
      </g>
     </g>
    </g>
    <g id="ytick_4">
     <g id="line2d_15">
      <path d="M 3.5 34.585745 
L 207.917267 34.585745 
" clip-path="url(#p51aa87fd16)" style="fill: none; stroke: #b0b0b0; stroke-opacity: 0.7; stroke-width: 0.5; stroke-linecap: square"/>
     </g>
     <g id="line2d_16">
      <g>
       <use xlink:href="#md69be7b779" x="3.5" y="34.585745" style="stroke: #000000; stroke-width: 0.8"/>
      </g>
     </g>
    </g>
    <g id="ytick_5">
     <g id="line2d_17">
      <path d="M 3.5 5.764291 
L 207.917267 5.764291 
" clip-path="url(#p51aa87fd16)" style="fill: none; stroke: #b0b0b0; stroke-opacity: 0.7; stroke-width: 0.5; stroke-linecap: square"/>
     </g>
     <g id="line2d_18">
      <g>
       <use xlink:href="#md69be7b779" x="3.5" y="5.764291" style="stroke: #000000; stroke-width: 0.8"/>
      </g>
     </g>
    </g>
   </g>
   <g id="line2d_19">
    <path d="M 11.809562 121.047614 
L 15.694626 120.920419 
L 15.944469 120.868045 
L 16.439613 120.718404 
L 17.065357 120.24953 
L 17.245926 119.935284 
L 17.492362 119.790631 
L 18.09085 119.217008 
L 19.397985 116.24913 
L 19.510415 115.45354 
L 19.926063 113.129118 
L 21.661339 92.850287 
L 22.10765 88.423411 
L 22.189416 87.774968 
L 22.401783 86.216209 
L 23.167212 78.514692 
L 23.385257 76.624229 
L 23.570369 75.314871 
L 23.792956 73.589013 
L 23.817941 73.396974 
L 24.368732 68.57355 
L 26.133534 52.093103 
L 26.653662 46.703538 
L 26.690003 46.499029 
L 26.80584 45.980274 
L 27.483824 42.251722 
L 28.694428 36.43568 
L 29.297459 32.111059 
L 29.358784 31.712017 
L 29.576829 30.519878 
L 29.617713 30.327839 
L 29.734685 29.574647 
L 29.83008 29.09829 
L 31.217846 23.501722 
L 31.472232 22.933086 
L 31.636901 22.56896 
L 31.725482 22.366945 
L 33.30858 19.154654 
L 33.452808 18.912735 
L 33.826437 18.359064 
L 35.100638 16.795317 
L 35.534457 16.094499 
L 36.017109 15.862555 
L 36.319192 15.690468 
L 36.527016 15.553298 
L 37.032381 15.25651 
L 42.176883 13.114151 
L 42.993416 12.897172 
L 44.323264 12.56048 
L 44.55153 12.450744 
L 45.521376 12.273669 
L 45.76327 12.23127 
L 47.805171 11.782348 
L 48.623976 11.602779 
L 48.744355 11.57285 
L 49.064609 11.433186 
L 60.43248 9.273369 
L 61.408005 9.128716 
L 61.535198 9.096294 
L 63.32612 8.886797 
L 77.832932 7.771972 
L 89.161056 7.39787 
L 89.359795 7.377918 
L 92.603215 7.245735 
L 97.254844 7.058684 
L 97.759073 7.036238 
L 101.125144 6.861657 
L 101.906472 6.816765 
L 107.547253 6.57734 
L 108.20366 6.554893 
L 124.025556 6.315468 
L 140.760517 6.178297 
L 144.387787 6.158345 
L 209.052919 6.016186 
L 209.052919 6.016186 
" clip-path="url(#p51aa87fd16)" style="fill: none; stroke: #1f77b4; stroke-width: 1.5; stroke-linecap: square"/>
   </g>
   <g id="line2d_20">
    <path d="M 3.498864 119.722256 
L 3.614701 119.443674 
L 3.966753 118.838003 
L 4.101895 118.588209 
L 5.770167 114.353952 
L 5.884868 113.816056 
L 6.176731 112.597461 
L 6.302788 112.00743 
L 6.905819 108.598037 
L 7.02052 107.703811 
L 7.950618 102.083219 
L 8.339011 99.321205 
L 9.210056 93.824151 
L 10.220785 85.569389 
L 10.651197 81.562938 
L 11.583567 73.043195 
L 12.145715 68.735042 
L 13.104205 61.298571 
L 13.498276 59.10256 
L 15.7639 44.862943 
L 16.35671 41.408442 
L 17.494633 35.472548 
L 18.27369 32.613517 
L 18.890349 30.608365 
L 20.316727 27.480274 
L 20.726697 26.716611 
L 21.057172 26.212943 
L 22.716359 24.084708 
L 22.826517 23.949837 
L 24.290372 22.645559 
L 24.476619 22.495274 
L 24.736683 22.272001 
L 25.286338 21.813668 
L 26.598016 20.661034 
L 26.959153 20.475842 
L 27.65985 20.07667 
L 28.236761 19.757741 
L 28.507046 19.590909 
L 29.018089 19.325021 
L 29.868692 18.866008 
L 30.301375 18.662455 
L 30.672733 18.475223 
L 31.551727 18.078318 
L 31.914 17.930527 
L 32.398923 17.720628 
L 32.631732 17.614318 
L 34.756536 16.64665 
L 34.991616 16.5383 
L 35.579883 16.21053 
L 36.051178 16.051859 
L 36.850677 15.779398 
L 37.273139 15.655634 
L 38.34633 15.328318 
L 38.801726 15.18506 
L 39.978261 14.837117 
L 40.648296 14.688872 
L 46.448068 13.644135 
L 47.742711 13.468463 
L 48.504733 13.379834 
L 50.41717 13.192375 
L 51.4279 13.103293 
L 56.339592 12.747189 
L 57.936318 12.646772 
L 61.609015 12.454327 
L 66.287899 12.254174 
L 77.120879 11.971286 
L 80.344993 11.845029 
L 81.255786 11.77612 
L 82.726454 11.63581 
L 83.159138 11.582088 
L 85.187411 11.268599 
L 85.774543 11.153675 
L 87.208871 10.898895 
L 87.763069 10.796665 
L 88.67159 10.600139 
L 88.791969 10.567045 
L 98.844756 8.447649 
L 99.360342 8.361287 
L 102.205149 7.965742 
L 103.407804 7.838578 
L 113.100589 7.304309 
L 121.505546 7.151305 
L 122.100627 7.144505 
L 173.274219 6.589382 
L 173.58198 6.578048 
L 177.252406 6.441817 
L 177.40004 6.435017 
L 201.666641 6.007965 
L 208.014933 5.990737 
L 208.014933 5.990737 
" clip-path="url(#p51aa87fd16)" style="fill: none; stroke-dasharray: 1.5,2.475; stroke-dashoffset: 0; stroke: #ff7f0e; stroke-width: 1.5"/>
   </g>
   <g id="line2d_21">
    <path d="M 3.496593 120.385754 
L 3.623786 120.351733 
L 4.106438 120.26857 
L 5.00701 120.104135 
L 5.214834 120.069169 
L 6.612821 119.813067 
L 7.766643 119.312202 
L 8.721726 118.376625 
L 8.879581 118.184784 
L 8.988604 118.03925 
L 9.41788 117.109343 
L 10.003876 115.544377 
L 10.765898 113.343407 
L 10.968044 112.668658 
L 11.794798 110.302308 
L 12.258144 109.315699 
L 13.465342 106.600635 
L 13.592535 106.352093 
L 13.920738 105.645212 
L 14.495378 104.474323 
L 14.837209 103.72019 
L 14.892856 103.531185 
L 15.181311 102.805404 
L 15.372101 102.274298 
L 15.683269 101.285799 
L 15.822954 100.841636 
L 16.122766 99.747294 
L 16.184091 99.557344 
L 16.413493 98.776751 
L 16.638352 97.917721 
L 17.097155 95.538141 
L 17.342456 94.088468 
L 17.66271 93.231328 
L 17.833057 92.734244 
L 18.004541 92.182347 
L 18.132869 91.75425 
L 18.496278 90.160933 
L 18.79609 88.750007 
L 19.076596 87.753003 
L 19.321896 86.863732 
L 19.369594 86.681341 
L 19.488837 86.085974 
L 19.698933 85.268525 
L 20.533637 81.417537 
L 20.648337 80.789094 
L 21.135532 78.605135 
L 21.258182 78.001262 
L 22.209858 73.112634 
L 22.295032 72.755413 
L 22.488093 71.976711 
L 22.802668 70.629101 
L 23.097938 69.262591 
L 23.354595 68.175809 
L 23.640779 67.165575 
L 23.881537 66.308435 
L 24.015544 65.676211 
L 24.47889 63.92791 
L 26.118771 56.630406 
L 26.487857 54.270672 
L 30.693175 39.888296 
L 31.271221 37.567308 
L 32.242203 34.002663 
L 32.987191 31.84611 
L 33.250662 30.967234 
L 34.161454 28.43456 
L 34.27502 28.033868 
L 34.37155 27.809897 
L 35.26985 25.273442 
L 35.456097 24.591132 
L 35.544678 24.437093 
L 35.735467 24.116729 
L 37.010804 22.208718 
L 37.363992 21.772115 
L 37.534339 21.536803 
L 38.357687 20.381979 
L 38.70406 19.955772 
L 38.819897 19.793227 
L 39.258258 19.284802 
L 41.89297 16.523431 
L 42.088302 16.369392 
L 43.564649 15.28072 
L 43.830391 15.103999 
L 44.949008 14.316791 
L 46.333367 13.673228 
L 46.724031 13.521078 
L 48.35142 12.961622 
L 48.748898 12.827428 
L 50.27862 12.309553 
L 50.92367 12.130942 
L 51.173514 12.063845 
L 52.323929 11.762382 
L 52.470428 11.71891 
L 53.062102 11.583771 
L 53.324438 11.503444 
L 54.068289 11.267187 
L 55.064256 10.971393 
L 56.032966 10.771048 
L 56.265775 10.717181 
L 57.635371 10.397762 
L 57.869315 10.34295 
L 59.093547 10.085902 
L 59.345662 10.019751 
L 61.209266 9.714507 
L 62.347189 9.514161 
L 64.227827 9.246718 
L 64.623034 9.200412 
L 65.820011 9.044482 
L 68.470621 8.713722 
L 70.880474 8.540782 
L 71.057635 8.524717 
L 89.195125 7.746959 
L 109.172371 7.310356 
L 110.869034 7.25838 
L 115.144762 7.10623 
L 115.780727 7.086385 
L 129.251824 6.709319 
L 151.75703 6.432425 
L 176.517639 6.272716 
L 177.002562 6.267046 
L 208.338594 6.144192 
L 208.338594 6.144192 
" clip-path="url(#p51aa87fd16)" style="fill: none; stroke-dasharray: 5.55,2.4; stroke-dashoffset: 0; stroke: #2ca02c; stroke-width: 1.5"/>
   </g>
   <g id="line2d_22">
    <path d="M 7.073895 121.049278 
L 9.805137 120.906494 
L 9.935737 120.88657 
L 10.526276 120.722203 
L 11.177004 120.366072 
L 11.342809 120.268946 
L 11.756186 120.00081 
L 11.929941 119.887081 
L 14.65664 116.733375 
L 15.117715 115.988739 
L 15.299419 115.719773 
L 16.340811 113.585481 
L 17.126682 111.082606 
L 17.241383 110.496527 
L 17.624098 109.719515 
L 17.727442 109.506999 
L 18.015897 108.872771 
L 18.427003 107.703933 
L 19.159498 105.904187 
L 19.254893 105.698313 
L 19.41502 105.2683 
L 21.618184 98.484388 
L 21.920267 97.233366 
L 22.031561 96.875575 
L 22.263234 96.177427 
L 22.310931 96.005587 
L 22.560775 95.190389 
L 23.269421 92.580426 
L 23.553334 91.690515 
L 24.279015 89.459096 
L 25.762176 84.781252 
L 26.009748 83.888021 
L 26.119906 83.383295 
L 26.416311 82.032656 
L 26.812654 81.216627 
L 26.926219 80.99664 
L 27.16357 80.453728 
L 28.06187 78.16835 
L 28.160672 77.959985 
L 29.280424 75.027927 
L 29.492791 74.521541 
L 29.716515 73.86573 
L 30.05721 73.014005 
L 30.353615 72.212089 
L 30.665919 71.259917 
L 31.016835 70.21726 
L 31.132672 69.996443 
L 33.190472 65.217322 
L 33.466436 64.505061 
L 33.536846 64.317449 
L 33.995649 63.045673 
L 34.343159 62.020449 
L 35.231238 59.083411 
L 35.493574 57.984304 
L 35.892187 57.160804 
L 36.059128 56.812975 
L 36.344177 56.201161 
L 36.756418 55.114507 
L 36.823421 54.929386 
L 37.031246 54.443753 
L 37.237934 53.944838 
L 38.190746 51.588899 
L 38.443996 50.869997 
L 38.647278 50.376063 
L 39.089046 49.141643 
L 39.392265 48.309012 
L 39.46154 48.12223 
L 39.947599 46.490173 
L 40.175865 45.961373 
L 40.482491 45.255754 
L 40.55063 45.11546 
L 40.858391 44.40901 
L 40.931073 44.218908 
L 41.343314 42.910606 
L 41.68401 42.086276 
L 42.105337 41.196365 
L 42.139406 41.034487 
L 42.447168 40.391958 
L 42.607294 40.039148 
L 42.813983 39.540234 
L 43.108117 38.883592 
L 43.213732 38.670246 
L 44.382318 35.859389 
L 44.497019 35.474203 
L 45.261312 34.161751 
L 45.471408 33.813922 
L 45.896141 32.996233 
L 46.093745 32.62599 
L 46.253871 32.372797 
L 46.868259 31.292784 
L 47.789272 29.762834 
L 47.902837 29.551148 
L 48.924924 27.908299 
L 49.039624 27.67503 
L 49.569974 27.150381 
L 49.971994 26.757724 
L 50.070796 26.604148 
L 50.68859 25.897698 
L 51.153072 25.421197 
L 51.335912 25.167174 
L 51.53238 24.948017 
L 51.879889 24.559511 
L 52.026388 24.386842 
L 53.378949 22.739012 
L 53.98198 22.052485 
L 54.381729 21.758616 
L 54.57479 21.601719 
L 56.466785 20.081731 
L 56.747291 19.865064 
L 56.916503 19.711488 
L 57.090258 19.596099 
L 57.379849 19.372791 
L 57.566096 19.225856 
L 57.778463 19.059827 
L 58.062376 18.716979 
L 58.214553 18.613212 
L 58.633608 18.342586 
L 58.852789 18.218895 
L 60.423395 17.205293 
L 60.725478 17.050887 
L 60.869706 16.970363 
L 61.588573 16.581857 
L 61.978102 16.398396 
L 62.139364 16.311231 
L 62.55047 16.043926 
L 62.732174 15.911933 
L 63.198927 15.707719 
L 63.64751 15.530899 
L 63.811043 15.437923 
L 68.723872 13.758548 
L 69.450689 13.589199 
L 69.73233 13.517807 
L 70.398958 13.345968 
L 70.669243 13.282047 
L 71.321107 13.127641 
L 71.657259 13.018892 
L 72.05928 12.94501 
L 72.858779 12.785623 
L 73.49815 12.664422 
L 74.353296 12.517487 
L 75.586614 12.328215 
L 76.750656 12.163847 
L 77.217409 12.111548 
L 78.295142 11.959632 
L 79.788524 11.808547 
L 86.828428 11.273106 
L 89.565348 11.130322 
L 91.544788 11.032365 
L 94.582656 10.894562 
L 98.22469 10.688687 
L 98.405259 10.682046 
L 101.355681 10.501905 
L 102.984206 10.374893 
L 107.564288 10.066911 
L 108.031041 10.012122 
L 109.509659 9.926617 
L 113.829677 9.657652 
L 115.020976 9.593731 
L 117.125338 9.440155 
L 117.9396 9.402798 
L 121.68725 9.108929 
L 124.589975 8.866527 
L 126.426324 8.689707 
L 126.734085 8.658162 
L 128.419392 8.522019 
L 128.523872 8.512057 
L 130.80426 8.318634 
L 131.102936 8.296221 
L 134.390647 8.076233 
L 140.415279 7.696859 
L 148.6885 7.412951 
L 173.945389 6.862567 
L 180.989835 6.718953 
L 181.172675 6.712312 
L 197.586246 6.386066 
L 207.959286 6.273997 
L 207.959286 6.273997 
" clip-path="url(#p51aa87fd16)" style="fill: none; stroke-dasharray: 9.6,2.4,1.5,2.4; stroke-dashoffset: 0; stroke: #d62728; stroke-width: 1.5"/>
   </g>
   <g id="line2d_23">
    <path d="M 7.363486 121.048967 
L 10.71593 120.932569 
L 12.580669 120.358564 
L 12.714676 120.295801 
L 14.229635 119.878136 
L 15.656013 119.405695 
L 15.912671 119.305273 
L 16.540686 118.977759 
L 17.499176 118.172099 
L 20.119124 116.286901 
L 20.309913 115.971941 
L 20.533637 115.648992 
L 20.647202 115.33289 
L 21.546638 113.277659 
L 21.839636 112.367012 
L 21.922538 112.223226 
L 22.153076 111.83409 
L 23.696426 108.976622 
L 23.779329 108.833977 
L 24.135923 108.110481 
L 24.280151 107.808073 
L 24.500467 107.38242 
L 24.607218 107.11767 
L 24.822992 106.70457 
L 24.919523 106.532254 
L 25.346528 105.597643 
L 25.939338 104.157498 
L 26.498078 102.365875 
L 26.59688 102.216383 
L 26.901234 101.756495 
L 27.072718 101.463216 
L 28.483197 98.480221 
L 28.596762 98.126461 
L 29.493927 96.074653 
L 29.791467 95.336321 
L 29.957273 95.015655 
L 30.137841 94.605978 
L 30.886236 92.702521 
L 33.024667 88.16184 
L 33.141639 87.722493 
L 33.265425 87.440626 
L 34.160319 85.09554 
L 34.262527 84.641358 
L 34.644106 83.565243 
L 34.715652 83.338152 
L 35.047263 82.236931 
L 35.12108 81.955064 
L 35.755909 79.862174 
L 35.996667 79.462768 
L 36.89951 77.40069 
L 37.123233 76.956778 
L 37.21295 76.790168 
L 37.520711 76.215023 
L 39.709112 71.569355 
L 40.100912 70.452159 
L 40.234919 70.163445 
L 40.398452 69.856472 
L 40.565393 69.532383 
L 40.814101 68.991472 
L 41.194544 67.979262 
L 41.453473 67.246637 
L 41.673789 66.820983 
L 41.856629 66.479776 
L 44.093862 61.734828 
L 44.867241 59.756054 
L 47.789272 53.769522 
L 47.902837 53.415762 
L 48.115204 53.044885 
L 48.647825 51.730267 
L 48.819308 51.249838 
L 48.924924 50.796797 
L 49.04076 50.346038 
L 49.187259 50.041348 
L 52.331878 43.561834 
L 52.444308 43.209216 
L 52.817937 42.44692 
L 53.020083 41.999585 
L 53.794597 40.017388 
L 54.402171 39.045118 
L 54.603181 38.717605 
L 54.716746 38.432315 
L 55.558264 36.987604 
L 55.686593 36.800454 
L 56.740477 34.924385 
L 56.827922 34.789728 
L 57.76597 33.15102 
L 57.851144 32.984411 
L 57.976066 32.702544 
L 58.178212 32.235809 
L 58.291777 32.093164 
L 58.780107 31.446125 
L 58.944777 31.187082 
L 59.772667 29.762912 
L 59.878282 29.629397 
L 60.088378 29.345247 
L 60.281439 29.126144 
L 60.396139 28.913888 
L 60.598285 28.654845 
L 61.062767 28.031771 
L 61.21608 27.829785 
L 61.377342 27.660893 
L 61.603337 27.332239 
L 61.906556 26.971632 
L 62.294949 26.423874 
L 62.841197 25.574851 
L 66.430991 22.123979 
L 66.660393 21.952805 
L 66.949984 21.715443 
L 67.093076 21.553398 
L 67.213455 21.42787 
L 67.466705 21.249849 
L 67.955036 20.91663 
L 68.526268 20.505812 
L 68.707973 20.38599 
L 69.226965 20.094994 
L 69.598323 19.877032 
L 70.017379 19.657929 
L 70.412585 19.418285 
L 71.619783 18.687942 
L 71.960478 18.495086 
L 72.723636 18.230337 
L 72.888306 18.141326 
L 73.156319 18.006669 
L 73.604902 17.836636 
L 74.193169 17.625521 
L 74.427113 17.547922 
L 74.721247 17.422394 
L 75.742198 17.033258 
L 82.156357 15.532631 
L 83.481663 15.363739 
L 84.063116 15.284999 
L 88.198023 14.914122 
L 88.449002 14.895863 
L 90.962199 14.728113 
L 91.519804 14.697301 
L 138.076972 13.523046 
L 138.347257 13.504788 
L 140.961527 13.314214 
L 142.191437 13.218356 
L 144.300342 13.002677 
L 145.86527 12.844055 
L 147.082688 12.715104 
L 148.326227 12.549636 
L 148.658973 12.500566 
L 150.924597 12.214134 
L 151.252801 12.17077 
L 152.356654 12.029266 
L 155.554648 11.601331 
L 156.46317 11.467815 
L 156.617618 11.447274 
L 157.832765 11.285229 
L 163.77563 10.542333 
L 165.11002 10.403111 
L 166.088952 10.269596 
L 168.958743 9.918118 
L 170.179568 9.784602 
L 171.502602 9.64538 
L 177.320545 9.08507 
L 177.623764 9.051976 
L 189.138134 8.267999 
L 192.531461 8.133342 
L 207.961557 7.819522 
L 207.961557 7.819522 
" clip-path="url(#p51aa87fd16)" style="fill: none; stroke: #9467bd; stroke-width: 1.5; stroke-linecap: square"/>
   </g>
   <g id="patch_3">
    <path d="M 3.5 126.814399 
L 3.5 0 
" style="fill: none; stroke: #000000; stroke-width: 0.8; stroke-linejoin: miter; stroke-linecap: square"/>
   </g>
   <g id="patch_4">
    <path d="M 207.917267 126.814399 
L 207.917267 0 
" style="fill: none; stroke: #000000; stroke-width: 0.8; stroke-linejoin: miter; stroke-linecap: square"/>
   </g>
   <g id="patch_5">
    <path d="M 3.5 126.814399 
L 207.917267 126.814399 
" style="fill: none; stroke: #000000; stroke-width: 0.8; stroke-linejoin: miter; stroke-linecap: square"/>
   </g>
   <g id="patch_6">
    <path d="M 3.5 0 
L 207.917267 0 
" style="fill: none; stroke: #000000; stroke-width: 0.8; stroke-linejoin: miter; stroke-linecap: square"/>
   </g>
   <g id="legend_1">
    <g id="patch_7">
     <path d="M 89.152912 120.983399 
L 202.086267 120.983399 
L 202.086267 78.986748 
L 89.152912 78.986748 
z
" style="fill: #ffffff; opacity: 0.8; stroke: #000000; stroke-linejoin: miter"/>
    </g>
    <g id="line2d_24">
     <path d="M 93.817712 87.733248 
L 99.648712 87.733248 
L 105.479712 87.733248 
" style="fill: none; stroke-dasharray: 5.55,2.4; stroke-dashoffset: 0; stroke: #2ca02c; stroke-width: 1.5"/>
    </g>
    <g id="text_10">
     <!-- Berlin -->
     <g transform="translate(108.978312 91.814948) scale(0.11662 -0.11662)">
      <defs>
       <path id="CMR17-42" d="M 333 4352 
L 333 4186 
C 774 4186 845 4186 845 3900 
L 845 452 
C 845 166 774 166 333 166 
L 333 0 
L 2534 0 
C 3354 0 3885 583 3885 1164 
C 3885 1741 3360 2233 2675 2233 
C 3290 2356 3718 2771 3718 3264 
C 3718 3802 3194 4352 2368 4352 
L 333 4352 
z
M 1248 2304 
L 1248 3937 
C 1248 4155 1261 4186 1517 4186 
L 2336 4186 
C 2970 4186 3251 3674 3251 3277 
C 3251 2791 2861 2304 2170 2304 
L 1248 2304 
z
M 1517 166 
C 1261 166 1248 197 1248 413 
L 1248 2202 
L 2432 2202 
C 3091 2202 3411 1625 3411 1162 
C 3411 699 3046 166 2349 166 
L 1517 166 
z
" transform="scale(0.015625)"/>
       <path id="CMR17-65" d="M 2438 1472 
C 2464 1498 2464 1511 2464 1576 
C 2464 2238 2118 2816 1389 2816 
C 710 2816 173 2169 173 1383 
C 173 551 781 -64 1459 -64 
C 2176 -64 2458 607 2458 740 
C 2458 784 2419 784 2406 784 
C 2362 784 2355 771 2330 696 
C 2189 265 1837 51 1504 51 
C 1229 51 954 203 781 480 
C 582 803 582 1176 582 1472 
L 2438 1472 
z
M 589 1568 
C 634 2505 1126 2714 1382 2714 
C 1818 2714 2112 2297 2118 1568 
L 589 1568 
z
" transform="scale(0.015625)"/>
       <path id="CMR17-72" d="M 960 1497 
C 960 2112 1222 2688 1702 2688 
C 1747 2688 1792 2682 1837 2662 
C 1837 2662 1696 2617 1696 2452 
C 1696 2298 1818 2234 1914 2234 
C 1990 2234 2131 2279 2131 2458 
C 2131 2663 1926 2790 1709 2790 
C 1222 2790 1011 2317 947 2093 
L 941 2093 
L 941 2790 
L 198 2720 
L 198 2554 
C 576 2554 634 2515 634 2208 
L 634 428 
C 634 184 608 153 198 153 
L 198 -13 
C 352 0 646 0 813 0 
C 998 0 1325 0 1498 -13 
L 1498 153 
C 1037 153 960 153 960 440 
L 960 1497 
z
" transform="scale(0.015625)"/>
       <path id="CMR17-6c" d="M 979 4396 
L 218 4326 
L 218 4160 
C 595 4160 653 4122 653 3817 
L 653 426 
C 653 184 627 153 218 153 
L 218 -13 
C 371 0 653 0 813 0 
C 979 0 1261 0 1414 -13 
L 1414 153 
C 1005 153 979 178 979 426 
L 979 4396 
z
" transform="scale(0.015625)"/>
       <path id="CMR17-69" d="M 992 3909 
C 992 4049 877 4170 730 4170 
C 589 4170 467 4056 467 3909 
C 467 3769 582 3648 730 3648 
C 870 3648 992 3763 992 3909 
z
M 243 2706 
L 243 2541 
C 602 2541 653 2502 653 2197 
L 653 427 
C 653 184 627 153 218 153 
L 218 -13 
C 371 0 646 0 806 0 
C 960 0 1222 0 1370 -13 
L 1370 153 
C 992 153 979 191 979 420 
L 979 2776 
L 243 2706 
z
" transform="scale(0.015625)"/>
       <path id="CMR17-6e" d="M 2656 1933 
C 2656 2259 2592 2790 1837 2790 
C 1331 2790 1069 2400 973 2144 
L 966 2144 
L 966 2790 
L 211 2720 
L 211 2554 
C 589 2554 646 2515 646 2208 
L 646 428 
C 646 184 621 153 211 153 
L 211 -13 
C 365 0 646 0 813 0 
C 979 0 1267 0 1421 -13 
L 1421 153 
C 1011 153 986 178 986 428 
L 986 1658 
C 986 2247 1344 2688 1792 2688 
C 2266 2688 2317 2266 2317 1958 
L 2317 428 
C 2317 184 2291 153 1882 153 
L 1882 -13 
C 2035 0 2317 0 2483 0 
C 2650 0 2938 0 3091 -13 
L 3091 153 
C 2682 153 2656 178 2656 428 
L 2656 1933 
z
" transform="scale(0.015625)"/>
      </defs>
      <use xlink:href="#CMR17-42" transform="scale(0.996264)"/>
      <use xlink:href="#CMR17-65" transform="translate(65.188754 0) scale(0.996264)"/>
      <use xlink:href="#CMR17-72" transform="translate(105.674415 0) scale(0.996264)"/>
      <use xlink:href="#CMR17-6c" transform="translate(140.955183 0) scale(0.996264)"/>
      <use xlink:href="#CMR17-69" transform="translate(165.826241 0) scale(0.996264)"/>
      <use xlink:href="#CMR17-6e" transform="translate(190.6973 0) scale(0.996264)"/>
     </g>
    </g>
    <g id="line2d_25">
     <path d="M 93.817712 98.855505 
L 99.648712 98.855505 
L 105.479712 98.855505 
" style="fill: none; stroke: #1f77b4; stroke-width: 1.5; stroke-linecap: square"/>
    </g>
    <g id="text_11">
     <!-- Dublin -->
     <g transform="translate(108.978312 102.937205) scale(0.11662 -0.11662)">
      <defs>
       <path id="CMR17-44" d="M 333 4352 
L 333 4186 
C 774 4186 845 4186 845 3900 
L 845 452 
C 845 166 774 166 333 166 
L 333 0 
L 2368 0 
C 3398 0 4224 943 4224 2141 
C 4224 3346 3411 4352 2368 4352 
L 333 4352 
z
M 1523 166 
C 1267 166 1254 197 1254 414 
L 1254 3938 
C 1254 4155 1267 4186 1523 4186 
L 2240 4186 
C 2771 4186 3750 3874 3750 2141 
C 3750 1242 3488 879 3366 707 
C 3213 510 2848 166 2240 166 
L 1523 166 
z
" transform="scale(0.015625)"/>
       <path id="CMR17-75" d="M 1882 2693 
L 1882 2528 
C 2259 2528 2317 2489 2317 2186 
L 2317 1032 
C 2317 500 2029 38 1555 38 
C 1030 38 986 348 986 678 
L 986 2763 
L 211 2693 
L 211 2528 
C 467 2528 640 2528 646 2274 
L 646 1058 
C 646 633 646 361 813 183 
C 896 101 1056 -64 1517 -64 
C 2061 -64 2272 377 2323 506 
L 2330 506 
L 2330 -63 
L 3091 -63 
L 3091 128 
C 2714 128 2656 166 2656 473 
L 2656 2763 
L 1882 2693 
z
" transform="scale(0.015625)"/>
       <path id="CMR17-62" d="M 960 4396 
L 198 4326 
L 198 4160 
C 576 4160 634 4122 634 3817 
L 634 -13 
L 749 -13 
L 934 441 
C 1120 141 1395 -64 1766 -64 
C 2406 -64 3053 500 3053 1370 
C 3053 2188 2477 2790 1830 2790 
C 1434 2790 1152 2579 960 2330 
L 960 4396 
z
M 973 2004 
C 973 2118 973 2138 1062 2272 
C 1312 2657 1670 2688 1792 2688 
C 1984 2688 2643 2585 2643 1376 
C 2643 108 1888 38 1734 38 
C 1536 38 1248 114 1043 486 
C 973 608 973 621 973 735 
L 973 2004 
z
" transform="scale(0.015625)"/>
      </defs>
      <use xlink:href="#CMR17-44" transform="scale(0.996264)"/>
      <use xlink:href="#CMR17-75" transform="translate(70.393556 0) scale(0.996264)"/>
      <use xlink:href="#CMR17-62" transform="translate(121.288926 0) scale(0.996264)"/>
      <use xlink:href="#CMR17-6c" transform="translate(172.184295 0) scale(0.996264)"/>
      <use xlink:href="#CMR17-69" transform="translate(197.055354 0) scale(0.996264)"/>
      <use xlink:href="#CMR17-6e" transform="translate(221.926412 0) scale(0.996264)"/>
     </g>
    </g>
    <g id="line2d_26">
     <path d="M 93.817712 109.977762 
L 99.648712 109.977762 
L 105.479712 109.977762 
" style="fill: none; stroke-dasharray: 1.5,2.475; stroke-dashoffset: 0; stroke: #ff7f0e; stroke-width: 1.5"/>
    </g>
    <g id="text_12">
     <!-- London -->
     <g transform="translate(108.978312 114.059462) scale(0.11662 -0.11662)">
      <defs>
       <path id="CMR17-4c" d="M 3469 1615 
L 3354 1615 
C 3302 983 3219 166 2125 166 
L 1530 166 
C 1274 166 1261 197 1261 414 
L 1261 3898 
C 1261 4129 1274 4192 1760 4192 
L 1901 4192 
L 1901 4352 
C 1638 4352 1331 4352 1069 4352 
C 870 4352 512 4352 326 4352 
L 326 4192 
C 768 4192 838 4192 838 3905 
L 838 452 
C 838 166 768 166 326 166 
L 326 0 
L 3315 0 
L 3469 1615 
z
" transform="scale(0.015625)"/>
       <path id="CMR17-6f" d="M 2758 1356 
C 2758 2176 2163 2816 1466 2816 
C 768 2816 173 2176 173 1356 
C 173 551 768 -64 1466 -64 
C 2163 -64 2758 551 2758 1356 
z
M 1466 51 
C 1165 51 909 230 762 480 
C 602 767 582 1126 582 1408 
C 582 1677 595 2010 762 2298 
C 890 2509 1139 2714 1466 2714 
C 1754 2714 1997 2554 2150 2330 
C 2349 2029 2349 1607 2349 1408 
C 2349 1158 2336 775 2163 467 
C 1984 173 1709 51 1466 51 
z
" transform="scale(0.015625)"/>
       <path id="CMR17-64" d="M 1869 4326 
L 1869 4160 
C 2246 4160 2304 4122 2304 3820 
L 2304 2345 
C 2278 2377 2016 2790 1498 2790 
C 845 2790 211 2208 211 1364 
C 211 525 806 -64 1434 -64 
C 1978 -64 2259 337 2291 380 
L 2291 -63 
L 3066 -63 
L 3066 128 
C 2688 128 2630 166 2630 473 
L 2630 4396 
L 1869 4326 
z
M 2291 755 
C 2291 563 2176 390 2029 262 
C 1811 70 1594 38 1472 38 
C 1286 38 621 134 621 1356 
C 621 2612 1363 2688 1530 2688 
C 1824 2688 2061 2522 2208 2291 
C 2291 2157 2291 2138 2291 2023 
L 2291 755 
z
" transform="scale(0.015625)"/>
      </defs>
      <use xlink:href="#CMR17-4c" transform="scale(0.996264)"/>
      <use xlink:href="#CMR17-6f" transform="translate(57.381408 0) scale(0.996264)"/>
      <use xlink:href="#CMR17-6e" transform="translate(103.071885 0) scale(0.996264)"/>
      <use xlink:href="#CMR17-64" transform="translate(153.967255 0) scale(0.996264)"/>
      <use xlink:href="#CMR17-6f" transform="translate(204.862625 0) scale(0.996264)"/>
      <use xlink:href="#CMR17-6e" transform="translate(250.553102 0) scale(0.996264)"/>
     </g>
    </g>
    <g id="line2d_27">
     <path d="M 153.053379 87.733248 
L 158.884379 87.733248 
L 164.715379 87.733248 
" style="fill: none; stroke-dasharray: 9.6,2.4,1.5,2.4; stroke-dashoffset: 0; stroke: #d62728; stroke-width: 1.5"/>
    </g>
    <g id="text_13">
     <!-- Paris -->
     <g transform="translate(168.213979 91.814948) scale(0.11662 -0.11662)">
      <defs>
       <path id="CMR17-50" d="M 1267 2042 
L 2291 2042 
C 3117 2042 3718 2578 3718 3184 
C 3718 3791 3130 4352 2291 4352 
L 333 4352 
L 333 4186 
C 774 4186 845 4186 845 3899 
L 845 446 
C 845 160 774 160 333 160 
L 333 0 
C 518 0 858 0 1056 0 
C 1254 0 1594 0 1779 0 
L 1779 160 
C 1338 160 1267 160 1267 446 
L 1267 2042 
z
M 1254 2176 
L 1254 3938 
C 1254 4155 1267 4186 1523 4186 
L 2170 4186 
C 2995 4186 3232 3714 3232 3184 
C 3232 2604 2950 2176 2170 2176 
L 1254 2176 
z
" transform="scale(0.015625)"/>
       <path id="CMR17-61" d="M 2304 1653 
C 2304 2072 2304 2294 2035 2543 
C 1798 2752 1523 2816 1306 2816 
C 800 2816 435 2407 435 1971 
C 435 1728 627 1728 666 1728 
C 749 1728 896 1778 896 1954 
C 896 2112 774 2181 666 2181 
C 640 2181 608 2174 589 2168 
C 723 2592 1069 2714 1293 2714 
C 1613 2714 1965 2429 1965 1885 
L 1965 1600 
C 1587 1600 1133 1549 774 1357 
C 371 1133 256 813 256 570 
C 256 77 832 -64 1171 -64 
C 1523 -64 1850 139 1990 511 
C 2003 233 2182 -18 2464 -18 
C 2598 -18 2938 70 2938 567 
L 2938 920 
L 2822 920 
L 2822 562 
C 2822 178 2650 128 2566 128 
C 2304 128 2304 458 2304 738 
L 2304 1653 
z
M 1965 870 
C 1965 317 1568 38 1216 38 
C 896 38 646 275 646 570 
C 646 761 730 1100 1101 1305 
C 1408 1478 1760 1504 1965 1504 
L 1965 870 
z
" transform="scale(0.015625)"/>
      </defs>
      <use xlink:href="#CMR17-50" transform="scale(0.996264)"/>
      <use xlink:href="#CMR17-61" transform="translate(59.983847 0) scale(0.996264)"/>
      <use xlink:href="#CMR17-72" transform="translate(105.674324 0) scale(0.996264)"/>
      <use xlink:href="#CMR17-69" transform="translate(140.955092 0) scale(0.996264)"/>
      <use xlink:href="#CMR17-73" transform="translate(165.82615 0) scale(0.996264)"/>
     </g>
    </g>
    <g id="line2d_28">
     <path d="M 153.053379 98.855505 
L 158.884379 98.855505 
L 164.715379 98.855505 
" style="fill: none; stroke: #9467bd; stroke-width: 1.5; stroke-linecap: square"/>
    </g>
    <g id="text_14">
     <!-- Rome -->
     <g transform="translate(168.213979 102.937205) scale(0.11662 -0.11662)">
      <use xlink:href="#CMR17-52" transform="scale(0.996264)"/>
      <use xlink:href="#CMR17-6f" transform="translate(67.791102 0) scale(0.996264)"/>
      <use xlink:href="#CMR17-6d" transform="translate(113.481579 0) scale(0.996264)"/>
      <use xlink:href="#CMR17-65" transform="translate(190.401169 0) scale(0.996264)"/>
     </g>
    </g>
   </g>
  </g>
 </g>
 <defs>
  <clipPath id="p51aa87fd16">
   <rect x="3.5" y="0" width="204.417267" height="126.814399"/>
  </clipPath>
 </defs>
</svg>
